<svg width="983" height="983" viewBox="0 0 983 983" fill="none" xmlns="http://www.w3.org/2000/svg">
<g id="form_gen">
<g id="dynamic_spiral_angle_round">
<g id="dynamic">
<g id="swirl_2">
<path id="Vector" d="M182.201 117.92C218.564 87.7385 258.947 63.1778 302.709 44.6683C362.527 19.3652 426.05 6.53516 491.496 6.53516C556.942 6.53516 620.458 19.3652 680.283 44.6683C724.045 63.1778 764.424 87.7385 800.788 117.92C812.417 127.568 823.63 137.791 834.414 148.575C878.94 193.102 913.899 244.96 938.328 302.71C962.75 360.423 975.544 421.587 976.41 484.587C976.425 485.584 976.432 486.589 976.446 487.586C976.446 487.863 976.446 488.14 976.446 488.424C976.446 489.443 976.468 490.47 976.468 491.489C976.468 492.509 976.461 493.535 976.446 494.555C976.446 494.839 976.446 495.116 976.446 495.392C976.432 496.39 976.425 497.395 976.41 498.392C972.864 720.477 798.727 901.877 579.588 917.007C551.073 919.017 519.967 918.012 491.496 914.037C410.118 902.845 335.978 868.6 275.921 818.125C337.784 859.098 411.902 882.967 491.496 882.967C571.09 882.967 645.208 859.091 707.072 818.125C811.674 748.863 881.234 630.726 882.938 496.543C882.952 494.861 882.967 493.171 882.967 491.489C882.967 489.807 882.952 488.118 882.938 486.436C882.297 427.492 870.421 370.304 847.608 316.362C824.948 262.785 792.509 214.669 751.194 173.354C709.882 132.039 661.774 99.6 608.189 76.94C598.752 72.9498 589.214 69.2943 579.58 65.9666C550.957 56.1002 521.525 49.1974 491.489 45.3164C472.244 42.8261 452.744 41.5737 433.062 41.5737C372.327 41.5737 313.413 53.4716 257.935 76.9328C231.278 88.2045 205.982 101.894 182.193 117.898L182.201 117.92Z" fill="#FF4500"/>
<path id="Vector_2" d="M6.5332 491.503C6.5332 490.484 6.5332 489.457 6.54777 488.438C6.54777 488.154 6.54777 487.877 6.54777 487.6C6.56233 486.603 6.56961 485.598 6.58417 484.6C6.59874 483.858 6.6133 483.115 6.62786 482.372C6.62786 482.219 6.62786 482.059 6.64243 481.913C6.65699 481.469 6.66427 481.025 6.67883 480.574C6.6934 480.137 6.70068 479.693 6.71524 479.248C6.75893 477.683 6.8099 476.125 6.87543 474.559C6.91184 473.693 6.94825 472.826 6.98466 471.967C7.0065 471.348 7.03563 470.729 7.07203 470.11C7.23223 466.87 7.4288 463.644 7.66181 460.426C7.69822 459.88 7.73463 459.326 7.7856 458.78C7.84385 458.008 7.9021 457.244 7.96763 456.472C8.01132 455.94 8.05501 455.402 8.0987 454.87C8.22249 453.436 8.34627 452.001 8.4919 450.567C8.68122 448.513 8.89238 446.467 9.12539 444.421C9.48218 441.195 9.87538 437.992 10.2977 434.788C10.3632 434.314 10.4288 433.841 10.487 433.375C13.021 414.866 16.7418 396.735 21.584 379.055C21.8024 378.247 22.0282 377.446 22.2539 376.645C22.4796 375.837 22.7054 375.036 22.9311 374.235C23.3825 372.684 23.834 371.126 24.3 369.575C25.5014 365.541 26.7684 361.521 28.0936 357.538C28.5961 356.031 29.0985 354.538 29.6155 353.031C30.4528 350.606 31.3048 348.196 32.1786 345.793C32.9358 343.711 33.7077 341.643 34.5014 339.582C34.8581 338.65 35.2222 337.718 35.579 336.786C35.8266 336.153 36.0742 335.519 36.329 334.878C36.9916 333.218 37.6542 331.565 38.3314 329.92C39.2634 327.641 40.2173 325.376 41.193 323.119C41.8411 321.619 42.4964 320.119 43.1663 318.612C43.5013 317.862 43.8289 317.119 44.1712 316.369C44.5134 315.619 44.8483 314.876 45.1906 314.134C45.5328 313.391 45.875 312.648 46.2173 311.905C46.909 310.42 47.608 308.942 48.3143 307.471C49.3774 305.265 50.4551 303.058 51.5546 300.867C51.9259 300.139 52.29 299.403 52.6614 298.682C53.7682 296.505 54.8968 294.328 56.0473 292.165C56.4259 291.444 56.8118 290.724 57.1977 290.01C57.4963 289.457 57.7948 288.903 58.0934 288.35C59.8992 285.029 61.7487 281.738 63.6418 278.483C63.9841 277.886 64.3263 277.297 64.6758 276.707C66.0229 274.406 67.3918 272.112 68.7826 269.833C69.0957 269.323 69.4088 268.814 69.7219 268.304C71.484 265.45 73.2755 262.617 75.0959 259.806C75.4964 259.202 75.8896 258.583 76.2901 257.979C76.6032 257.491 76.9236 257.01 77.2512 256.522C77.659 255.911 78.0667 255.292 78.4818 254.673C79.8798 252.59 81.2924 250.523 82.7269 248.469C83.1856 247.807 83.6589 247.137 84.1249 246.474C85.057 245.149 85.9963 243.831 86.9502 242.513C87.4235 241.85 87.904 241.195 88.3773 240.547C89.8118 238.581 91.2608 236.629 92.7317 234.693C93.2195 234.045 93.7147 233.404 94.2025 232.756C95.6734 230.826 97.1734 228.911 98.6806 227.003C99.183 226.37 99.6855 225.736 100.195 225.103C100.647 224.535 101.098 223.974 101.557 223.414C102.117 222.722 102.685 222.023 103.261 221.331C103.727 220.756 104.193 220.195 104.666 219.627C105.227 218.95 105.787 218.273 106.363 217.603C106.88 216.984 107.404 216.365 107.928 215.746C108.445 215.135 108.977 214.516 109.508 213.897C110.557 212.666 111.62 211.45 112.69 210.234C113.222 209.63 113.761 209.018 114.299 208.414C115.909 206.601 117.54 204.802 119.185 203.018C119.731 202.421 120.277 201.824 120.831 201.234C121.93 200.047 123.037 198.868 124.159 197.703C124.712 197.12 125.273 196.538 125.833 195.948C126.394 195.365 126.955 194.783 127.523 194.2C128.083 193.625 128.651 193.043 129.219 192.467C130.333 191.331 131.455 190.203 132.583 189.081C133.18 188.492 133.77 187.902 134.374 187.319C134.95 186.751 135.532 186.183 136.107 185.623C137.272 184.494 138.43 183.373 139.61 182.266C140.192 181.705 140.782 181.152 141.372 180.598C149.352 173.099 157.624 165.912 166.158 159.053C166.792 158.536 167.425 158.033 168.066 157.531C172.238 154.21 176.476 150.97 180.772 147.81C181.245 147.46 181.726 147.111 182.207 146.761C182.68 146.412 183.153 146.07 183.634 145.727C184.18 145.327 184.733 144.934 185.279 144.533C187.085 143.244 188.905 141.963 190.733 140.696C191.301 140.303 191.869 139.91 192.437 139.524C193.544 138.759 194.672 138.002 195.794 137.245C196.427 136.815 197.053 136.4 197.694 135.978C198.066 135.73 198.444 135.482 198.823 135.228C199.398 134.856 199.959 134.478 200.534 134.106C201.211 133.662 201.896 133.218 202.58 132.781C204.655 131.441 206.738 130.123 208.835 128.82C209.498 128.412 210.16 127.997 210.83 127.589C211.966 126.898 213.109 126.199 214.252 125.514C214.944 125.092 215.658 124.669 216.357 124.254C221.279 121.342 226.259 118.517 231.306 115.801C231.823 115.517 232.347 115.233 232.871 114.956C234.014 114.344 235.172 113.733 236.322 113.136C237.043 112.757 237.771 112.378 238.5 112.007C242.126 110.136 245.788 108.322 249.473 106.553C250.208 106.204 250.951 105.847 251.686 105.505C252.429 105.155 253.172 104.813 253.915 104.463C254.606 104.143 255.291 103.823 255.982 103.502C258.422 102.381 260.883 101.281 263.351 100.211C263.941 99.9488 264.538 99.6939 265.128 99.4391C268.143 98.143 271.179 96.8833 274.223 95.6527C274.98 95.3396 275.744 95.041 276.516 94.7352C280.943 92.9804 285.407 91.2984 289.907 89.6964C290.686 89.4125 291.465 89.143 292.252 88.8664C292.885 88.6406 293.511 88.4222 294.145 88.2037C295.077 87.8834 296.016 87.563 296.955 87.2426C297.545 87.046 298.135 86.8421 298.725 86.6455C299.067 86.5363 299.417 86.4198 299.759 86.3033C301.069 85.8737 302.38 85.4441 303.705 85.029C308.948 83.3543 314.227 81.7815 319.557 80.3106C320.103 80.1577 320.649 80.0048 321.195 79.8592C324.297 79.0145 327.421 78.199 330.559 77.4271C331.033 77.3034 331.513 77.1869 331.994 77.0776C332.431 76.9684 332.868 76.8592 333.312 76.7572C334.841 76.3859 336.37 76.0291 337.914 75.6796C346.185 73.7864 354.559 72.1338 363.013 70.7285C363.814 70.5974 364.608 70.4663 365.409 70.3352C365.729 70.2842 366.057 70.2333 366.377 70.1824C367.309 70.0294 368.256 69.8838 369.195 69.7455C369.981 69.629 370.775 69.5125 371.569 69.396C372.821 69.2139 374.074 69.0392 375.333 68.8717C384.61 67.612 393.981 66.6435 403.447 65.9882C413.248 65.3183 423.136 64.9688 433.104 64.9688C452.925 64.9688 472.425 66.3305 491.531 68.9591C572.909 80.1504 647.049 114.395 707.107 164.87C645.243 123.898 571.125 100.029 491.531 100.029C411.937 100.029 337.819 123.905 275.956 164.87C171.35 234.132 101.79 352.267 100.086 486.45C100.071 488.132 100.057 489.821 100.057 491.503C100.057 493.185 100.071 494.875 100.086 496.557C100.727 555.5 112.603 612.689 135.416 666.63C158.076 720.207 190.515 768.327 231.83 809.642C273.145 850.957 321.254 883.396 374.838 906.056C384.275 910.046 393.814 913.702 403.447 917.029C507.215 953.036 624.389 948.98 725.092 906.056C751.747 894.784 777.043 881.095 800.832 865.09C764.468 895.272 724.087 919.833 680.325 938.342C620.464 963.638 556.948 976.468 491.495 976.468C426.041 976.468 362.532 963.638 302.708 938.335C258.946 919.825 218.563 895.265 182.199 865.083C170.571 855.435 159.357 845.212 148.573 834.428C104.047 789.902 69.0884 738.043 44.659 680.29C19.8656 621.66 7.05019 559.469 6.54777 495.406C6.54777 495.129 6.54777 494.853 6.54777 494.569C6.54777 493.549 6.5332 492.523 6.5332 491.503Z" fill="currentColor"/>
</g>
<g id="Frame">
<g id="Group">
<path id="Vector_3" d="M417.704 322.182H194.659C185.86 322.182 178.727 329.315 178.727 338.113V624.886C178.727 633.685 185.86 640.818 194.659 640.818H417.704C426.503 640.818 433.636 633.685 433.636 624.886V338.113C433.636 329.315 426.503 322.182 417.704 322.182Z" fill="currentColor"/>
<path id="Vector_4" d="M210.591 385.908H369.909" stroke="var(--background)" stroke-width="2.5" stroke-linecap="round"/>
<path id="Vector_5" d="M210.591 449.637H401.773" stroke="var(--background)" stroke-width="2.5" stroke-linecap="round"/>
<path id="Vector_6" d="M210.591 513.363H338.045" stroke="var(--background)" stroke-width="2.5" stroke-linecap="round"/>
<path id="Vector_7" d="M309.368 561.158H220.15C214.871 561.158 210.591 565.438 210.591 570.717V596.208C210.591 601.488 214.871 605.767 220.15 605.767H309.368C314.647 605.767 318.927 601.488 318.927 596.208V570.717C318.927 565.438 314.647 561.158 309.368 561.158Z" fill="#FF4500"/>
</g>
<g id="Group_2">
<path id="Vector_8" d="M707.663 194.727H541.972C517.335 194.727 497.363 214.699 497.363 239.336V723.663C497.363 748.3 517.335 768.272 541.972 768.272H707.663C732.3 768.272 752.272 748.3 752.272 723.663V239.336C752.272 214.699 732.3 194.727 707.663 194.727Z" fill="#242424"/>
<path id="Vector_9" d="M733.154 232.963H516.481C512.962 232.963 510.108 235.816 510.108 239.336V720.477C510.108 723.996 512.962 726.849 516.481 726.849H733.154C736.673 726.849 739.527 723.996 739.527 720.477V239.336C739.527 235.816 736.673 232.963 733.154 232.963Z" fill="currentColor"/>
<path id="Vector_10" d="M602.514 719H647.123" stroke="var(--background)" stroke-width="2" stroke-linecap="round"/>
<path id="Vector_11" d="M579 212L671 212" stroke="currentColor" stroke-width="2" stroke-linecap="round"/>
</g>
</g>
</g>
</g>
</g>
</svg>
