<svg width="512" height="512" viewBox="0 0 512 512" fill="none" xmlns="http://www.w3.org/2000/svg">
<g id="app_gen">
<circle id="Ellipse 59" cx="256" cy="256" r="256" fill="white"/>
<g id="form_gen">
<g id="dynamic_spiral_angle_round">
<g id="dynamic">
<g id="swirl_2">
<path id="Vector" d="M106.042 75.9811C123.614 61.3968 143.127 49.5288 164.274 40.5847C193.178 28.3578 223.874 22.1582 255.498 22.1582C287.123 22.1582 317.815 28.3578 346.723 40.5847C367.869 49.5288 387.381 61.3968 404.953 75.9811C410.572 80.6431 415.99 85.5831 421.201 90.7941C442.717 112.31 459.609 137.369 471.414 165.274C483.215 193.162 489.397 222.717 489.816 253.16C489.823 253.642 489.826 254.127 489.833 254.609C489.833 254.743 489.833 254.877 489.833 255.014C489.833 255.506 489.844 256.003 489.844 256.495C489.844 256.988 489.84 257.484 489.833 257.976C489.833 258.114 489.833 258.247 489.833 258.381C489.826 258.863 489.823 259.349 489.816 259.831C488.102 367.146 403.957 454.8 298.065 462.112C284.287 463.083 269.256 462.597 255.498 460.676C216.175 455.268 180.35 438.721 151.329 414.33C181.222 434.129 217.037 445.663 255.498 445.663C293.959 445.663 329.774 434.125 359.667 414.33C410.213 380.862 443.825 323.776 444.648 258.937C444.656 258.124 444.663 257.308 444.663 256.495C444.663 255.682 444.656 254.866 444.648 254.053C444.339 225.571 438.6 197.936 427.577 171.871C416.627 145.982 400.952 122.732 380.988 102.768C361.026 82.8035 337.779 67.1285 311.886 56.1789C307.326 54.2507 302.717 52.4843 298.062 50.8764C284.23 46.1088 270.009 42.7732 255.495 40.8978C246.195 39.6945 236.773 39.0893 227.262 39.0893C197.914 39.0893 169.446 44.8386 142.638 56.1754C129.757 61.622 117.534 68.2368 106.039 75.9705L106.042 75.9811Z" fill="#FF4500"/>
<path id="Vector_2" d="M21.1572 256.502C21.1572 256.01 21.1572 255.513 21.1643 255.021C21.1643 254.884 21.1643 254.75 21.1643 254.616C21.1713 254.134 21.1748 253.649 21.1819 253.167C21.1889 252.808 21.1959 252.449 21.203 252.09C21.203 252.016 21.203 251.939 21.21 251.868C21.217 251.654 21.2206 251.439 21.2276 251.221C21.2346 251.01 21.2382 250.795 21.2452 250.581C21.2663 249.824 21.2909 249.071 21.3226 248.315C21.3402 247.896 21.3578 247.477 21.3754 247.062C21.3859 246.763 21.4 246.464 21.4176 246.165C21.495 244.599 21.59 243.04 21.7026 241.485C21.7202 241.221 21.7378 240.954 21.7624 240.69C21.7905 240.317 21.8187 239.948 21.8504 239.575C21.8715 239.318 21.8926 239.057 21.9137 238.801C21.9735 238.107 22.0333 237.414 22.1037 236.721C22.1952 235.729 22.2972 234.74 22.4098 233.751C22.5822 232.193 22.7722 230.645 22.9763 229.096C23.008 228.868 23.0396 228.639 23.0678 228.414C24.2922 219.47 26.0902 210.709 28.43 202.166C28.5355 201.775 28.6446 201.388 28.7537 201.001C28.8628 200.611 28.9718 200.224 29.0809 199.836C29.2991 199.087 29.5172 198.334 29.7424 197.585C30.323 195.635 30.9352 193.693 31.5755 191.768C31.8183 191.04 32.0611 190.319 32.3109 189.591C32.7155 188.419 33.1272 187.254 33.5494 186.093C33.9154 185.087 34.2883 184.088 34.6718 183.092C34.8443 182.641 35.0202 182.191 35.1926 181.741C35.3122 181.435 35.4318 181.128 35.555 180.819C35.8752 180.017 36.1954 179.218 36.5226 178.423C36.973 177.321 37.4339 176.227 37.9054 175.136C38.2185 174.412 38.5352 173.687 38.8589 172.958C39.0207 172.596 39.1791 172.237 39.3444 171.875C39.5098 171.512 39.6717 171.153 39.837 170.795C40.0024 170.436 40.1678 170.077 40.3331 169.718C40.6674 169 41.0052 168.286 41.3465 167.575C41.8602 166.509 42.3809 165.443 42.9122 164.384C43.0917 164.032 43.2676 163.677 43.447 163.328C43.9818 162.276 44.5272 161.224 45.0831 160.179C45.2661 159.831 45.4526 159.483 45.6391 159.138C45.7833 158.87 45.9276 158.603 46.0718 158.336C46.9444 156.731 47.8381 155.141 48.753 153.568C48.9183 153.279 49.0837 152.994 49.2526 152.709C49.9035 151.598 50.565 150.489 51.237 149.388C51.3883 149.142 51.5396 148.895 51.6909 148.649C52.5424 147.27 53.4081 145.901 54.2877 144.543C54.4812 144.251 54.6712 143.952 54.8648 143.66C55.0161 143.424 55.1709 143.192 55.3292 142.956C55.5262 142.661 55.7233 142.361 55.9238 142.062C56.5994 141.056 57.282 140.057 57.9751 139.065C58.1968 138.744 58.4255 138.421 58.6507 138.101C59.1011 137.46 59.5549 136.823 60.0159 136.186C60.2446 135.866 60.4768 135.55 60.7055 135.236C61.3987 134.286 62.0988 133.343 62.8096 132.408C63.0453 132.094 63.2846 131.785 63.5203 131.472C64.2311 130.539 64.9559 129.614 65.6842 128.692C65.927 128.386 66.1698 128.08 66.4161 127.774C66.6342 127.499 66.8524 127.228 67.074 126.957C67.345 126.623 67.6194 126.285 67.8974 125.951C68.1225 125.673 68.3477 125.402 68.5764 125.128C68.8474 124.801 69.1183 124.473 69.3962 124.15C69.6461 123.851 69.8994 123.551 70.1527 123.252C70.4025 122.957 70.6594 122.658 70.9162 122.359C71.4229 121.764 71.9366 121.176 72.4538 120.589C72.7107 120.297 72.9711 120.001 73.2314 119.709C74.009 118.833 74.7972 117.964 75.5924 117.102C75.8562 116.813 76.1201 116.525 76.3875 116.24C76.9188 115.666 77.4537 115.096 77.9955 114.534C78.2629 114.252 78.5338 113.971 78.8048 113.686C79.0757 113.404 79.3466 113.123 79.6211 112.841C79.892 112.563 80.1664 112.282 80.4409 112.004C80.9792 111.455 81.5211 110.909 82.0664 110.368C82.3549 110.083 82.64 109.798 82.932 109.516C83.21 109.242 83.4914 108.967 83.7694 108.696C84.3324 108.151 84.8918 107.609 85.4618 107.074C85.7433 106.803 86.0283 106.536 86.3133 106.268C90.1696 102.644 94.1666 99.1716 98.2903 95.8572C98.5964 95.6074 98.9025 95.3646 99.2122 95.1218C101.228 93.5174 103.276 91.9516 105.352 90.4246C105.581 90.2557 105.813 90.0868 106.045 89.9179C106.274 89.7491 106.503 89.5837 106.735 89.4183C106.999 89.2248 107.266 89.0348 107.53 88.8413C108.403 88.2185 109.282 87.5992 110.165 86.987C110.44 86.797 110.714 86.607 110.989 86.4205C111.523 86.0511 112.069 85.6852 112.611 85.3192C112.917 85.1116 113.219 84.9111 113.529 84.707C113.708 84.5874 113.891 84.4678 114.074 84.3446C114.352 84.1652 114.623 83.9822 114.901 83.8028C115.228 83.5881 115.559 83.3735 115.89 83.1624C116.893 82.515 117.899 81.8781 118.912 81.2483C119.233 81.0513 119.553 80.8507 119.876 80.6537C120.425 80.3194 120.978 79.9816 121.53 79.6509C121.864 79.4468 122.209 79.2428 122.547 79.0422C124.926 77.6348 127.332 76.2696 129.771 74.9572C130.02 74.82 130.274 74.6828 130.527 74.5491C131.079 74.2535 131.639 73.9579 132.195 73.6694C132.543 73.4865 132.895 73.3035 133.247 73.1241C134.999 72.2198 136.769 71.3437 138.549 70.4887C138.905 70.3198 139.263 70.1474 139.619 69.982C139.978 69.8131 140.337 69.6478 140.696 69.4789C141.03 69.3241 141.361 69.1692 141.695 69.0144C142.873 68.4726 144.063 67.9413 145.256 67.4241C145.541 67.2974 145.829 67.1742 146.114 67.0511C147.571 66.4248 149.038 65.8161 150.509 65.2215C150.875 65.0702 151.244 64.9259 151.617 64.7781C153.756 63.9302 155.913 63.1174 158.088 62.3433C158.464 62.2061 158.841 62.0759 159.221 61.9422C159.527 61.8331 159.829 61.7276 160.135 61.622C160.586 61.4672 161.04 61.3124 161.493 61.1576C161.778 61.0626 162.063 60.9641 162.348 60.8691C162.514 60.8163 162.683 60.76 162.848 60.7037C163.481 60.4961 164.115 60.2885 164.755 60.0879C167.288 59.2787 169.839 58.5187 172.415 57.8079C172.679 57.7341 172.943 57.6602 173.207 57.5898C174.706 57.1816 176.215 56.7876 177.731 56.4146C177.96 56.3548 178.192 56.2985 178.425 56.2457C178.636 56.1929 178.847 56.1402 179.061 56.0909C179.8 55.9115 180.539 55.7391 181.285 55.5702C185.282 54.6553 189.328 53.8568 193.413 53.1777C193.801 53.1144 194.184 53.051 194.571 52.9877C194.726 52.963 194.884 52.9385 195.039 52.9138C195.489 52.8399 195.947 52.7696 196.401 52.7027C196.781 52.6464 197.164 52.5901 197.548 52.5338C198.153 52.4459 198.758 52.3614 199.367 52.2805C203.849 51.6718 208.378 51.2038 212.952 50.8871C217.688 50.5634 222.466 50.3945 227.283 50.3945C236.86 50.3945 246.283 51.0525 255.515 52.3227C294.838 57.7305 330.664 74.2781 359.685 98.6685C329.791 78.8698 293.976 67.3361 255.515 67.3361C217.054 67.3361 181.239 78.8733 151.346 98.6685C100.799 132.137 67.1866 189.221 66.3633 254.06C66.3562 254.873 66.3492 255.689 66.3492 256.502C66.3492 257.315 66.3562 258.131 66.3633 258.944C66.6729 287.426 72.4116 315.061 83.4351 341.126C94.3848 367.015 110.06 390.268 130.024 410.232C149.988 430.196 173.235 445.871 199.128 456.82C203.688 458.748 208.297 460.515 212.952 462.123C263.094 479.522 319.714 477.562 368.375 456.82C381.256 451.374 393.479 444.759 404.974 437.025C387.402 451.609 367.89 463.477 346.743 472.421C317.818 484.645 287.126 490.844 255.498 490.844C223.87 490.844 193.181 484.645 164.273 472.418C143.127 463.474 123.613 451.606 106.042 437.022C100.423 432.36 95.004 427.419 89.7931 422.209C68.2774 400.693 51.3848 375.634 39.5802 347.727C27.5996 319.396 21.407 289.344 21.1643 258.388C21.1643 258.254 21.1643 258.121 21.1643 257.984C21.1643 257.491 21.1572 256.995 21.1572 256.502Z" fill="black"/>
</g>
<g id="Frame" clip-path="url(#clip0_6508_587)">
<g id="Group">
<path id="Vector_3" d="M330.67 107H237.172C223.27 107 212 117.4 212 130.228V382.418C212 395.247 223.27 405.646 237.172 405.646H330.67C344.573 405.646 355.843 395.247 355.843 382.418V130.228C355.843 117.4 344.573 107 330.67 107Z" fill="#242424"/>
<path id="Vector_4" d="M345.054 126.909H222.788C220.802 126.909 219.192 128.395 219.192 130.227V380.759C219.192 382.591 220.802 384.077 222.788 384.077H345.054C347.04 384.077 348.65 382.591 348.65 380.759V130.227C348.65 128.395 347.04 126.909 345.054 126.909Z" fill="black"/>
<path id="Vector_5" d="M271.335 379.99H296.507" stroke="white" stroke-width="2" stroke-linecap="round"/>
<path id="Vector_6" d="M258.067 115.994L309.982 115.994" stroke="black" stroke-width="2" stroke-linecap="round"/>
<rect id="Rectangle 3818" x="225" y="133.76" width="118" height="239.916" rx="4" fill="#FF4500"/>
</g>
<g id="Group_2">
<path id="Vector_7" d="M250.477 179H142.698C138.447 179 135 182.447 135 186.698V325.271C135 329.523 138.447 332.97 142.698 332.97H250.477C254.729 332.97 258.176 329.523 258.176 325.271V186.698C258.176 182.447 254.729 179 250.477 179Z" fill="black" stroke="white" stroke-width="5"/>
<path id="Vector_8" d="M155 210H231.985" stroke="white" stroke-width="9" stroke-linecap="round"/>
<path id="Vector_9" d="M155 241H240" stroke="white" stroke-width="9" stroke-linecap="round"/>
<path id="Vector_10" d="M155 271.588H216.588" stroke="white" stroke-width="9" stroke-linecap="round"/>
<path id="Vector_11" d="M198.128 294.478H155.016C152.465 294.478 150.397 296.546 150.397 299.097V311.414C150.397 313.965 152.465 316.033 155.016 316.033H198.128C200.679 316.033 202.747 313.965 202.747 311.414V299.097C202.747 296.546 200.679 294.478 198.128 294.478Z" fill="#FF4500"/>
</g>
</g>
</g>
</g>
</g>
</g>
<defs>
<clipPath id="clip0_6508_587">
<rect width="224" height="299" fill="white" transform="translate(132 107)"/>
</clipPath>
</defs>
</svg>
