<svg width="983" height="983" viewBox="0 0 983 983" fill="none" xmlns="http://www.w3.org/2000/svg">
<g id="prod_search_spiral_round" clip-path="url(#clip0_5376_586)">
<g id="dynamic">
<g id="spiral">
<path id="Vector" d="M178.034 112.887C214.888 82.2985 255.815 57.407 300.166 38.6481C360.789 13.004 425.169 0.0012099 491.497 0.001207C557.825 0.0012041 622.197 13.004 682.827 38.6481C727.179 57.407 768.106 82.2984 804.96 112.887C816.745 122.665 828.109 133.026 839.039 143.955C884.165 189.081 919.594 241.638 944.353 300.166C969.097 358.657 982.07 420.645 982.948 484.493C982.963 485.504 982.97 486.523 982.985 487.534C982.985 487.814 982.985 488.095 982.985 488.382C982.985 489.416 983 490.456 983 491.489C983 492.522 983 493.563 982.985 494.596C982.985 494.884 982.985 495.164 982.985 495.445C982.97 496.456 982.963 497.474 982.948 498.485C979.354 723.563 802.871 907.403 580.775 922.738C551.877 924.775 520.351 923.756 491.497 919.727C409.023 908.384 333.884 873.678 273.017 822.523C335.714 864.048 410.831 888.238 491.497 888.238C572.163 888.238 647.28 864.04 709.977 822.523C815.992 752.328 886.489 632.602 888.216 496.611C888.231 494.906 888.246 493.194 888.246 491.489C888.246 489.785 888.231 488.073 888.216 486.368C887.567 426.63 875.531 368.671 852.41 314.003C829.445 259.704 796.569 210.939 754.697 169.068C712.825 127.196 664.069 94.3198 609.762 71.3545C600.198 67.3105 590.531 63.6059 580.768 60.2334C551.759 50.2341 521.93 43.2382 491.489 39.3049C471.985 36.7811 452.223 35.5118 432.276 35.5118C370.722 35.5118 311.014 47.5701 254.789 71.3471C227.772 82.7707 202.136 96.6443 178.027 112.865L178.034 112.887Z" fill="#FF4500"/>
<path id="Vector_2" d="M-0.000204589 491.505C-0.000204635 490.471 -0.00020468 489.431 0.0145545 488.398C0.0145544 488.11 0.0145544 487.83 0.0145544 487.549C0.0293136 486.538 0.0366931 485.52 0.0514522 484.509C0.0662114 483.756 0.0809705 483.003 0.0957297 482.251C0.0957297 482.096 0.0957297 481.933 0.110489 481.786C0.125248 481.335 0.132628 480.885 0.147387 480.428C0.162146 479.985 0.169525 479.535 0.184285 479.085C0.228562 477.498 0.280219 475.919 0.346635 474.332C0.383533 473.454 0.420431 472.576 0.457329 471.705C0.479468 471.078 0.508986 470.451 0.545884 469.823C0.708235 466.539 0.907484 463.27 1.14363 460.008C1.18053 459.455 1.21743 458.894 1.26908 458.341C1.32812 457.558 1.38716 456.784 1.45357 456.001C1.49785 455.463 1.54213 454.917 1.58641 454.378C1.71186 452.924 1.83731 451.47 1.9849 450.017C2.17677 447.935 2.39078 445.862 2.62693 443.788C2.98853 440.519 3.38702 437.272 3.81504 434.025C3.88146 433.545 3.94787 433.066 4.00691 432.593C6.57501 413.834 10.346 395.459 15.2534 377.542C15.4748 376.722 15.7036 375.911 15.9323 375.099C16.1611 374.28 16.3899 373.468 16.6186 372.656C17.0762 371.084 17.5337 369.505 18.006 367.933C19.2236 363.845 20.5077 359.771 21.8508 355.735C22.3599 354.207 22.8691 352.694 23.3931 351.167C24.2417 348.71 25.1052 346.267 25.9907 343.832C26.7582 341.721 27.5404 339.625 28.3448 337.537C28.7064 336.592 29.0754 335.648 29.437 334.703C29.6879 334.061 29.9388 333.419 30.1971 332.77C30.8686 331.087 31.5402 329.412 32.2265 327.744C33.171 325.434 34.1378 323.139 35.1266 320.852C35.7834 319.331 36.4476 317.811 37.1265 316.284C37.466 315.523 37.798 314.771 38.1449 314.011C38.4917 313.251 38.8312 312.498 39.178 311.745C39.5249 310.992 39.8717 310.24 40.2186 309.487C40.9196 307.982 41.6281 306.483 42.3439 304.993C43.4213 302.757 44.5135 300.521 45.6278 298.299C46.0042 297.562 46.3731 296.816 46.7495 296.086C47.8712 293.879 49.015 291.673 50.181 289.481C50.5647 288.75 50.9559 288.02 51.347 287.297C51.6495 286.736 51.9521 286.175 52.2547 285.614C54.0848 282.249 55.9592 278.913 57.8779 275.615C58.2248 275.01 58.5716 274.412 58.9258 273.814C60.291 271.482 61.6784 269.158 63.0879 266.848C63.4052 266.331 63.7225 265.815 64.0399 265.298C65.8257 262.405 67.6411 259.535 69.486 256.686C69.8919 256.074 70.2904 255.446 70.6963 254.834C71.0136 254.339 71.3383 253.852 71.6704 253.358C72.0836 252.738 72.4969 252.111 72.9175 251.483C74.3344 249.373 75.766 247.277 77.2198 245.196C77.6847 244.524 78.1644 243.846 78.6367 243.174C79.5813 241.831 80.5332 240.495 81.5 239.16C81.9797 238.488 82.4667 237.824 82.9464 237.167C84.4002 235.175 85.8687 233.197 87.3594 231.234C87.8538 230.577 88.3556 229.928 88.85 229.271C90.3407 227.315 91.8609 225.374 93.3885 223.441C93.8977 222.799 94.4069 222.157 94.9235 221.515C95.381 220.939 95.8385 220.371 96.3034 219.803C96.8717 219.102 97.4473 218.393 98.0302 217.692C98.5025 217.109 98.9748 216.541 99.4545 215.965C100.023 215.279 100.591 214.593 101.174 213.914C101.698 213.287 102.229 212.659 102.761 212.032C103.285 211.412 103.823 210.785 104.362 210.158C105.425 208.911 106.502 207.678 107.587 206.446C108.126 205.833 108.672 205.213 109.218 204.601C110.849 202.763 112.502 200.941 114.169 199.133C114.723 198.528 115.276 197.922 115.837 197.325C116.952 196.122 118.073 194.926 119.21 193.745C119.771 193.155 120.339 192.565 120.907 191.967C121.475 191.377 122.043 190.786 122.619 190.196C123.187 189.613 123.763 189.023 124.338 188.44C125.468 187.288 126.604 186.145 127.748 185.008C128.353 184.41 128.951 183.813 129.563 183.222C130.146 182.647 130.737 182.071 131.32 181.503C132.5 180.359 133.674 179.222 134.869 178.101C135.46 177.533 136.057 176.972 136.655 176.411C144.743 168.81 153.126 161.526 161.775 154.575C162.417 154.051 163.059 153.541 163.709 153.032C167.937 149.667 172.232 146.383 176.586 143.181C177.066 142.826 177.553 142.472 178.04 142.118C178.519 141.764 178.999 141.417 179.486 141.07C180.04 140.664 180.6 140.266 181.154 139.86C182.984 138.554 184.829 137.255 186.681 135.971C187.257 135.572 187.832 135.174 188.408 134.783C189.53 134.008 190.674 133.24 191.81 132.473C192.452 132.037 193.087 131.617 193.736 131.189C194.113 130.938 194.496 130.687 194.88 130.429C195.463 130.052 196.031 129.669 196.614 129.292C197.3 128.842 197.994 128.392 198.688 127.949C200.791 126.591 202.902 125.256 205.027 123.935C205.698 123.521 206.37 123.101 207.049 122.687C208.2 121.986 209.359 121.278 210.517 120.584C211.218 120.156 211.942 119.728 212.65 119.308C217.639 116.356 222.686 113.492 227.8 110.74C228.324 110.452 228.856 110.164 229.387 109.884C230.546 109.264 231.719 108.644 232.885 108.039C233.615 107.655 234.353 107.271 235.091 106.895C238.766 104.999 242.478 103.161 246.212 101.368C246.958 101.014 247.71 100.652 248.456 100.305C249.209 99.9509 249.961 99.6041 250.714 99.2498C251.415 98.9251 252.109 98.6005 252.81 98.2757C255.282 97.1393 257.776 96.025 260.278 94.9402C260.876 94.6745 261.481 94.4162 262.079 94.1579C265.134 92.8444 268.211 91.5677 271.296 90.3205C272.063 90.0032 272.838 89.7006 273.62 89.3907C278.107 87.6122 282.631 85.9076 287.191 84.284C287.981 83.9963 288.77 83.7232 289.567 83.4428C290.21 83.214 290.844 82.9926 291.486 82.7712C292.431 82.4465 293.383 82.1219 294.335 81.7972C294.932 81.5979 295.53 81.3912 296.128 81.1919C296.475 81.0813 296.829 80.9632 297.176 80.8451C298.504 80.4098 299.833 79.9744 301.176 79.5537C306.489 77.8564 311.839 76.2624 317.241 74.7718C317.794 74.6168 318.348 74.4618 318.901 74.3143C322.045 73.4582 325.211 72.6317 328.392 71.8495C328.871 71.724 329.358 71.6059 329.845 71.4952C330.288 71.3845 330.731 71.2739 331.181 71.1705C332.731 70.7942 334.28 70.4325 335.845 70.0784C344.228 68.1597 352.715 66.4845 361.282 65.0602C362.094 64.9274 362.898 64.7945 363.71 64.6617C364.035 64.61 364.367 64.5584 364.692 64.5067C365.636 64.3517 366.596 64.2042 367.548 64.0639C368.345 63.9459 369.149 63.8278 369.953 63.7098C371.223 63.5253 372.492 63.3482 373.769 63.1785C383.17 61.9018 392.668 60.9202 402.261 60.2561C412.194 59.5771 422.216 59.2229 432.318 59.2229C452.406 59.2229 472.168 60.6029 491.532 63.267C574.006 74.6094 649.145 109.316 710.012 160.471C647.315 118.946 572.198 94.7557 491.532 94.7557C410.866 94.7557 335.749 118.953 273.052 160.471C167.037 230.666 96.5396 350.392 94.8128 486.383C94.798 488.088 94.7833 489.8 94.7833 491.505C94.7833 493.209 94.798 494.921 94.8128 496.626C95.4622 556.364 107.498 614.323 130.619 668.991C153.584 723.29 186.46 772.054 228.332 813.926C270.203 855.798 318.96 888.674 373.267 911.639C382.831 915.683 392.498 919.388 402.261 922.76C507.428 959.252 626.18 955.142 728.24 911.639C755.257 900.216 780.893 886.342 805.002 870.122C768.149 900.71 727.221 925.602 682.87 944.36C622.203 969.997 557.83 983 491.495 983C425.16 983 360.795 969.997 300.165 944.353C255.813 925.594 214.886 900.703 178.032 870.114C166.247 860.336 154.883 849.976 143.953 839.046C98.8273 793.92 63.3979 741.363 38.6393 682.835C13.5118 623.415 0.523749 560.386 0.0145548 495.46C0.0145548 495.18 0.0145547 494.899 0.0145547 494.611C0.0145547 493.578 -0.000204544 492.538 -0.000204589 491.505Z" fill="var(--text)"/>
</g>
</g>
<g id="chat_add_on">
<path id="chat_add_on_2" d="M243.232 733.532V306.416C243.232 290.755 248.808 277.348 259.961 266.196C271.113 255.043 284.52 249.467 300.181 249.467H641.875C657.536 249.467 670.942 255.043 682.095 266.196C693.247 277.348 698.824 290.755 698.824 306.416V450.923C694.078 449.974 689.332 449.381 684.586 449.144C679.841 448.906 675.095 448.788 670.349 448.788C665.603 448.788 660.858 448.906 656.112 449.144C651.366 449.381 646.62 449.974 641.875 450.923V306.416H300.181V591.16H501.638C500.689 595.906 500.095 600.651 499.858 605.397C499.621 610.143 499.502 614.889 499.502 619.634C499.502 624.38 499.621 629.126 499.858 633.872C500.095 638.617 500.689 643.363 501.638 648.109H328.655L243.232 733.532ZM357.13 534.211H499.502V477.262H357.13V534.211Z" fill="var(--text)"/>
<path id="archive" d="M784.372 619.635L670.474 733.533L556.576 619.635L596.44 579.771L641.999 625.33V505.737H698.948V625.33L744.508 579.771L784.372 619.635Z" fill="#FF4500"/>
<path id="chat_add_on_3" d="M584.925 420.313H357.13V363.364H584.925V420.313Z" fill="#FF4500"/>
</g>
</g>
<defs>
<clipPath id="clip0_5376_586">
<rect width="983" height="983" fill="white"/>
</clipPath>
</defs>
</svg>
