<svg width="983" height="983" viewBox="0 0 983 983" fill="none" xmlns="http://www.w3.org/2000/svg">
<g id="managed_info_spiral_round">
<g id="dynamic">
<g id="spiral">
<path id="Vector" d="M178.034 112.89C214.888 82.3013 255.815 57.4099 300.167 38.651C360.79 13.0069 425.169 0.00407855 491.497 0.00407565C557.825 0.00407275 622.197 13.0069 682.828 38.651C727.179 57.4099 768.106 82.3013 804.96 112.89C816.745 122.668 828.11 133.029 839.039 143.958C884.165 189.084 919.595 241.641 944.353 300.169C969.097 358.66 982.07 420.648 982.948 484.496C982.963 485.507 982.971 486.526 982.985 487.537C982.985 487.817 982.985 488.098 982.985 488.385C982.985 489.418 983 490.459 983 491.492C983 492.525 983 493.566 982.985 494.599C982.985 494.887 982.985 495.167 982.985 495.448C982.971 496.459 982.963 497.477 982.948 498.488C979.355 723.566 802.872 907.406 580.776 922.741C551.877 924.777 520.351 923.759 491.497 919.73C409.023 908.387 333.884 873.681 273.017 822.526C335.714 864.051 410.831 888.241 491.497 888.241C572.164 888.241 647.28 864.043 709.977 822.526C815.993 752.331 886.49 632.605 888.217 496.614C888.231 494.909 888.246 493.197 888.246 491.492C888.246 489.787 888.231 488.075 888.217 486.371C887.567 426.633 875.531 368.674 852.411 314.006C829.446 259.707 796.569 210.942 754.698 169.07C712.826 127.199 664.069 94.3226 609.763 71.3573C600.199 67.3133 590.531 63.6087 580.768 60.2362C551.759 50.2369 521.931 43.2411 491.49 39.3077C471.986 36.7839 452.223 35.5146 432.276 35.5146C370.723 35.5146 311.015 47.5729 254.789 71.35C227.773 82.7736 202.136 96.6472 178.027 112.868L178.034 112.89Z" fill="#FF4500"/>
<path id="Vector_2" d="M-6.22516e-06 491.506C-6.27032e-06 490.472 -6.3158e-06 489.432 0.0147528 488.399C0.0147528 488.111 0.0147528 487.831 0.0147528 487.55C0.0295119 486.539 0.0368915 485.521 0.0516506 484.51C0.0664098 483.757 0.0811689 483.004 0.095928 482.252C0.095928 482.097 0.095928 481.934 0.110687 481.787C0.125446 481.336 0.132826 480.886 0.147585 480.429C0.162344 479.986 0.169724 479.536 0.184483 479.086C0.22876 477.499 0.280418 475.92 0.346834 474.333C0.383732 473.455 0.42063 472.577 0.457528 471.706C0.479666 471.079 0.509185 470.452 0.546083 469.824C0.708433 466.54 0.907682 463.271 1.14383 460.009C1.18073 459.456 1.21762 458.895 1.26928 458.342C1.32832 457.559 1.38736 456.785 1.45377 456.002C1.49805 455.464 1.54233 454.918 1.5866 454.379C1.71206 452.925 1.83751 451.471 1.9851 450.018C2.17697 447.936 2.39098 445.863 2.62713 443.789C2.98873 440.52 3.38722 437.273 3.81524 434.026C3.88166 433.546 3.94807 433.067 4.00711 432.594C6.57521 413.835 10.3462 395.46 15.2536 377.543C15.475 376.723 15.7038 375.912 15.9325 375.1C16.1613 374.281 16.3901 373.469 16.6188 372.657C17.0764 371.085 17.5339 369.506 18.0062 367.934C19.2238 363.846 20.5079 359.772 21.851 355.736C22.3601 354.208 22.8693 352.695 23.3933 351.168C24.2419 348.711 25.1054 346.268 25.9909 343.833C26.7584 341.722 27.5406 339.626 28.345 337.538C28.7066 336.593 29.0756 335.649 29.4372 334.704C29.6881 334.062 29.939 333.42 30.1973 332.771C30.8688 331.088 31.5404 329.413 32.2267 327.745C33.1712 325.435 34.138 323.14 35.1268 320.853C35.7836 319.332 36.4478 317.812 37.1267 316.285C37.4662 315.524 37.7982 314.772 38.1451 314.012C38.4919 313.252 38.8314 312.499 39.1782 311.746C39.5251 310.993 39.8719 310.241 40.2188 309.488C40.9198 307.983 41.6283 306.484 42.3441 304.994C43.4215 302.758 44.5137 300.522 45.628 298.3C46.0044 297.563 46.3733 296.817 46.7497 296.087C47.8714 293.88 49.0152 291.674 50.1812 289.482C50.5649 288.751 50.9561 288.021 51.3472 287.298C51.6497 286.737 51.9523 286.176 52.2549 285.615C54.085 282.25 55.9594 278.914 57.8781 275.616C58.225 275.01 58.5718 274.413 58.926 273.815C60.2912 271.483 61.6786 269.159 63.0881 266.849C63.4054 266.332 63.7227 265.816 64.0401 265.299C65.8259 262.406 67.6413 259.536 69.4862 256.687C69.8921 256.075 70.2906 255.447 70.6965 254.835C71.0138 254.34 71.3385 253.853 71.6706 253.359C72.0838 252.739 72.4971 252.112 72.9177 251.484C74.3346 249.374 75.7662 247.278 77.22 245.197C77.6849 244.525 78.1646 243.846 78.6369 243.175C79.5815 241.832 80.5335 240.496 81.5002 239.161C81.9799 238.489 82.4669 237.825 82.9466 237.168C84.4004 235.176 85.8689 233.198 87.3596 231.235C87.854 230.578 88.3558 229.929 88.8502 229.272C90.3409 227.316 91.8611 225.375 93.3887 223.442C93.8979 222.8 94.4071 222.158 94.9237 221.516C95.3812 220.94 95.8387 220.372 96.3036 219.804C96.8719 219.103 97.4475 218.394 98.0305 217.693C98.5028 217.11 98.975 216.542 99.4547 215.966C100.023 215.28 100.591 214.594 101.174 213.915C101.698 213.288 102.229 212.66 102.761 212.033C103.285 211.413 103.823 210.786 104.362 210.159C105.425 208.911 106.502 207.679 107.587 206.447C108.126 205.834 108.672 205.214 109.218 204.602C110.849 202.764 112.502 200.942 114.17 199.134C114.723 198.528 115.277 197.923 115.837 197.326C116.952 196.123 118.073 194.927 119.21 193.746C119.771 193.156 120.339 192.566 120.907 191.968C121.475 191.378 122.044 190.787 122.619 190.197C123.187 189.614 123.763 189.024 124.339 188.441C125.468 187.289 126.604 186.146 127.748 185.009C128.353 184.411 128.951 183.814 129.563 183.223C130.146 182.648 130.737 182.072 131.32 181.504C132.501 180.36 133.674 179.223 134.869 178.102C135.46 177.534 136.057 176.973 136.655 176.412C144.743 168.811 153.126 161.527 161.775 154.576C162.417 154.052 163.059 153.542 163.709 153.033C167.937 149.668 172.232 146.384 176.586 143.182C177.066 142.827 177.553 142.473 178.04 142.119C178.52 141.765 178.999 141.418 179.486 141.071C180.04 140.665 180.601 140.267 181.154 139.861C182.984 138.554 184.829 137.256 186.681 135.972C187.257 135.573 187.833 135.175 188.408 134.784C189.53 134.009 190.674 133.241 191.81 132.474C192.452 132.038 193.087 131.618 193.736 131.19C194.113 130.939 194.496 130.688 194.88 130.43C195.463 130.053 196.031 129.669 196.614 129.293C197.301 128.843 197.994 128.393 198.688 127.95C200.791 126.592 202.902 125.257 205.027 123.936C205.699 123.522 206.37 123.102 207.049 122.688C208.2 121.987 209.359 121.279 210.518 120.585C211.219 120.157 211.942 119.729 212.65 119.309C217.639 116.357 222.687 113.493 227.801 110.741C228.325 110.453 228.856 110.165 229.387 109.885C230.546 109.265 231.719 108.645 232.885 108.04C233.616 107.656 234.354 107.272 235.092 106.896C238.767 105 242.479 103.162 246.213 101.369C246.958 101.015 247.711 100.653 248.456 100.306C249.209 99.9519 249.961 99.605 250.714 99.2508C251.415 98.9261 252.109 98.6014 252.81 98.2767C255.282 97.1402 257.776 96.0259 260.278 94.9412C260.876 94.6755 261.481 94.4172 262.079 94.1589C265.134 92.8454 268.211 91.5687 271.296 90.3215C272.063 90.0042 272.838 89.7016 273.62 89.3917C278.107 87.6132 282.631 85.9086 287.192 84.285C287.981 83.9972 288.771 83.7242 289.568 83.4438C290.21 83.215 290.844 82.9936 291.486 82.7722C292.431 82.4475 293.383 82.1229 294.335 81.7981C294.933 81.5989 295.53 81.3922 296.128 81.1929C296.475 81.0823 296.829 80.9642 297.176 80.8461C298.504 80.4108 299.833 79.9753 301.176 79.5547C306.489 77.8574 311.839 76.2634 317.241 74.7728C317.795 74.6178 318.348 74.4628 318.902 74.3152C322.045 73.4592 325.211 72.6327 328.392 71.8504C328.871 71.725 329.358 71.6069 329.846 71.4961C330.288 71.3855 330.731 71.2748 331.181 71.1715C332.731 70.7952 334.281 70.4335 335.845 70.0793C344.228 68.1606 352.715 66.4855 361.283 65.0611C362.094 64.9283 362.899 64.7955 363.71 64.6626C364.035 64.611 364.367 64.5594 364.692 64.5077C365.637 64.3527 366.596 64.2052 367.548 64.0649C368.345 63.9469 369.149 63.8288 369.954 63.7107C371.223 63.5262 372.492 63.3492 373.769 63.1794C383.17 61.9028 392.668 60.9212 402.261 60.2571C412.194 59.5781 422.216 59.2239 432.319 59.2239C452.406 59.2239 472.168 60.6039 491.532 63.268C574.007 74.6104 649.146 109.317 710.012 160.472C647.316 118.947 572.199 94.7566 491.532 94.7566C410.866 94.7566 335.749 118.954 273.052 160.472C167.037 230.667 96.5398 350.393 94.813 486.384C94.7982 488.089 94.7835 489.801 94.7835 491.506C94.7835 493.21 94.7982 494.922 94.813 496.627C95.4624 556.365 107.498 614.324 130.619 668.992C153.584 723.291 186.46 772.055 228.332 813.927C270.204 855.799 318.961 888.675 373.267 911.64C382.831 915.684 392.498 919.389 402.261 922.761C507.428 959.253 626.18 955.143 728.24 911.64C755.257 900.217 780.894 886.343 805.003 870.123C768.149 900.711 727.222 925.602 682.87 944.361C622.203 969.998 557.831 983.001 491.495 983.001C425.16 983.001 360.796 969.998 300.165 944.354C255.814 925.595 214.886 900.704 178.033 870.115C166.247 860.337 154.883 849.976 143.954 839.047C98.8275 793.921 63.3981 741.364 38.6395 682.836C13.512 623.416 0.523948 560.387 0.0147531 495.461C0.0147531 495.181 0.0147531 494.9 0.0147531 494.612C0.014753 493.579 -6.18e-06 492.539 -6.22516e-06 491.506Z" fill="var(--text)"/>
</g>
</g>
<g id="mobile_info">
<g id="info_cards">
<path id="1" d="M457.998 393.757V364.088H715.129V393.757H457.998Z" fill="var(--text)"/>
<path id="2" d="M457.998 420.384V450.053H633.346V420.384H457.998Z" fill="#FF4500"/>
<path id="3" d="M457.998 476.68V506.349H681.308V476.68H457.998Z" fill="var(--text)"/>
<path id="4" d="M457.998 532.976V562.645H579.391V532.976H457.998Z" fill="#FF4500"/>
<path id="5" d="M457.998 589.271V618.94H715.129V589.271H457.998Z" fill="var(--text)"/>
</g>
<path id="mobile" d="M307.812 784.394C296.829 784.394 287.427 780.482 279.608 772.658C271.784 764.839 267.872 755.438 267.872 744.454V238.547C267.872 227.563 271.784 218.159 279.608 210.336C287.427 202.516 296.829 198.606 307.812 198.606H600.706C611.69 198.606 621.093 202.516 628.917 210.336C636.736 218.159 640.646 227.563 640.646 238.547V335.734H600.706V298.457H454.259H307.812V684.544H600.706V647.267H640.646V744.454C640.646 755.438 636.736 764.839 628.917 772.658C621.093 780.482 611.69 784.394 600.706 784.394H307.812ZM307.812 744.454H600.706V724.484H307.812V744.454ZM307.812 258.517H600.706V238.547H307.812V258.517Z" fill="var(--text)"/>
</g>
</g>
</svg>
