<svg width="983" height="983" viewBox="0 0 983 983" fill="none" xmlns="http://www.w3.org/2000/svg">
<g id="managed_settings">
<g id="dynamic">
<g id="spiral">
<path id="right" d="M178.031 112.886C214.885 82.2974 255.812 57.4057 300.163 38.6465C360.787 13.0022 425.167 -0.000743225 491.495 -0.000746124C557.823 -0.000749024 622.195 13.0022 682.826 38.6465C727.178 57.4057 768.105 82.2973 804.959 112.886C816.744 122.664 828.109 133.025 839.038 143.954C884.165 189.081 919.594 241.639 944.353 300.167C969.097 358.658 982.07 420.648 982.948 484.497C982.963 485.508 982.97 486.526 982.985 487.537C982.985 487.817 982.985 488.098 982.985 488.386C982.985 489.419 983 490.459 983 491.493C983 492.526 983 493.566 982.985 494.599C982.985 494.887 982.985 495.168 982.985 495.448C982.97 496.459 982.963 497.477 982.948 498.488C979.354 723.568 802.871 907.411 580.774 922.746C551.875 924.782 520.349 923.764 491.495 919.735C409.02 908.392 333.881 873.686 273.014 822.53C335.711 864.055 410.828 888.246 491.495 888.246C572.162 888.246 647.279 864.048 709.976 822.53C815.992 752.334 886.489 632.607 888.216 496.614C888.231 494.909 888.246 493.197 888.246 491.493C888.246 489.788 888.231 488.076 888.216 486.371C887.567 426.633 875.53 368.673 852.41 314.004C829.445 259.705 796.568 210.94 754.697 169.067C712.824 127.195 664.067 94.3188 609.761 71.3533C600.197 67.3092 590.529 63.6046 580.766 60.2321C551.757 50.2326 521.928 43.2367 491.488 39.3033C471.983 36.7795 452.221 35.5102 432.273 35.5102C370.72 35.5102 311.012 47.5686 254.786 71.3459C227.769 82.7697 202.133 96.6434 178.023 112.864L178.031 112.886Z" fill="#FF4500"/>
<path id="left" d="M3.95511e-05 491.497C3.9506e-05 490.464 3.94605e-05 489.424 0.0147987 488.391C0.0147986 488.103 0.0147986 487.822 0.0147986 487.542C0.0295578 486.531 0.0369374 485.513 0.0516966 484.501C0.0664558 483.749 0.081215 482.996 0.0959742 482.243C0.0959742 482.088 0.0959742 481.926 0.110733 481.778C0.125493 481.328 0.132872 480.878 0.147631 480.421C0.162391 479.978 0.16977 479.528 0.18453 479.077C0.228807 477.491 0.280464 475.912 0.346881 474.325C0.383779 473.447 0.420677 472.569 0.457575 471.698C0.479714 471.071 0.509232 470.443 0.546131 469.816C0.708482 466.532 0.907732 463.263 1.14388 460.001C1.18078 459.448 1.21768 458.887 1.26933 458.333C1.32837 457.551 1.38741 456.776 1.45382 455.994C1.4981 455.455 1.54238 454.909 1.58666 454.37C1.71211 452.917 1.83756 451.463 1.98516 450.009C2.17703 447.928 2.39103 445.854 2.62718 443.781C2.98878 440.511 3.38728 437.264 3.8153 434.017C3.88172 433.538 3.94813 433.058 4.00717 432.586C6.57528 413.826 10.3463 395.451 15.2537 377.533C15.4751 376.714 15.7039 375.902 15.9326 375.091C16.1614 374.271 16.3902 373.46 16.6189 372.648C17.0765 371.076 17.534 369.497 18.0063 367.925C19.2239 363.837 20.508 359.763 21.8511 355.726C22.3603 354.199 22.8695 352.686 23.3934 351.158C24.2421 348.701 25.1055 346.258 25.9911 343.823C26.7585 341.712 27.5408 339.617 28.3452 337.528C28.7068 336.583 29.0757 335.639 29.4373 334.694C29.6882 334.052 29.9392 333.41 30.1974 332.761C30.869 331.078 31.5405 329.403 32.2268 327.735C33.1714 325.425 34.1382 323.13 35.127 320.843C35.7838 319.322 36.448 317.802 37.1269 316.275C37.4664 315.514 37.7984 314.762 38.1453 314.002C38.4921 313.242 38.8316 312.489 39.1784 311.736C39.5253 310.983 39.8721 310.231 40.219 309.478C40.92 307.972 41.6285 306.474 42.3443 304.984C43.4217 302.748 44.5139 300.512 45.6282 298.29C46.0046 297.552 46.3736 296.807 46.7499 296.076C47.8716 293.87 49.0155 291.663 50.1814 289.472C50.5652 288.741 50.9563 288.01 51.3474 287.287C51.65 286.726 51.9526 286.166 52.2551 285.605C54.0853 282.24 55.9597 278.904 57.8784 275.605C58.2252 275 58.5721 274.402 58.9263 273.805C60.2915 271.473 61.6789 269.148 63.0884 266.838C63.4057 266.322 63.723 265.805 64.0404 265.288C65.8262 262.396 67.6416 259.525 69.4865 256.676C69.8924 256.064 70.2909 255.437 70.6968 254.824C71.0141 254.33 71.3388 253.843 71.6709 253.348C72.0842 252.728 72.4974 252.101 72.9181 251.474C74.3349 249.363 75.7666 247.267 77.2204 245.186C77.6853 244.515 78.165 243.836 78.6373 243.164C79.5818 241.821 80.5338 240.485 81.5006 239.15C81.9802 238.478 82.4673 237.814 82.947 237.157C84.4007 235.165 85.8693 233.187 87.36 231.224C87.8544 230.567 88.3562 229.918 88.8507 229.261C90.3413 227.305 91.8615 225.364 93.3891 223.431C93.8983 222.789 94.4075 222.147 94.9241 221.505C95.3816 220.929 95.8392 220.361 96.3041 219.793C96.8723 219.092 97.4479 218.383 98.0309 217.682C98.5032 217.099 98.9755 216.531 99.4552 215.955C100.023 215.269 100.592 214.583 101.175 213.904C101.699 213.277 102.23 212.649 102.761 212.022C103.285 211.402 103.824 210.775 104.363 210.148C105.425 208.9 106.503 207.668 107.588 206.436C108.126 205.823 108.672 205.203 109.218 204.591C110.849 202.753 112.502 200.93 114.17 199.122C114.724 198.517 115.277 197.912 115.838 197.314C116.952 196.111 118.074 194.916 119.21 193.735C119.771 193.145 120.339 192.554 120.908 191.957C121.476 191.366 122.044 190.776 122.62 190.186C123.188 189.603 123.764 189.012 124.339 188.429C125.468 187.278 126.605 186.134 127.749 184.998C128.354 184.4 128.952 183.802 129.564 183.212C130.147 182.636 130.737 182.061 131.32 181.492C132.501 180.349 133.674 179.212 134.87 178.09C135.46 177.522 136.058 176.961 136.656 176.4C144.744 168.799 153.127 161.516 161.776 154.564C162.418 154.04 163.06 153.531 163.71 153.022C167.938 149.656 172.233 146.372 176.587 143.17C177.067 142.815 177.554 142.461 178.041 142.107C178.52 141.753 179 141.406 179.487 141.059C180.041 140.653 180.601 140.255 181.155 139.849C182.985 138.543 184.83 137.244 186.682 135.96C187.258 135.561 187.833 135.163 188.409 134.772C189.531 133.997 190.675 133.229 191.811 132.462C192.453 132.026 193.088 131.606 193.737 131.178C194.114 130.927 194.497 130.676 194.881 130.418C195.464 130.041 196.032 129.658 196.615 129.281C197.302 128.831 197.995 128.381 198.689 127.938C200.792 126.58 202.903 125.244 205.028 123.924C205.7 123.51 206.371 123.09 207.05 122.676C208.201 121.975 209.36 121.267 210.518 120.573C211.22 120.145 211.943 119.717 212.651 119.296C217.64 116.345 222.687 113.481 227.802 110.729C228.325 110.441 228.857 110.153 229.388 109.873C230.547 109.253 231.72 108.633 232.886 108.028C233.617 107.644 234.355 107.26 235.093 106.884C238.768 104.987 242.48 103.15 246.214 101.357C246.959 101.002 247.712 100.641 248.457 100.294C249.21 99.9396 249.963 99.5927 250.715 99.2385C251.416 98.9138 252.11 98.5891 252.811 98.2645C255.283 97.128 257.778 96.0136 260.279 94.9288C260.877 94.6631 261.482 94.4049 262.08 94.1466C265.135 92.833 268.212 91.5563 271.297 90.3091C272.064 89.9918 272.839 89.6892 273.622 89.3793C278.108 87.6008 282.632 85.8961 287.193 84.2726C287.982 83.9848 288.772 83.7117 289.569 83.4313C290.211 83.2026 290.846 82.9811 291.488 82.7598C292.432 82.435 293.384 82.1103 294.336 81.7856C294.934 81.5864 295.532 81.3797 296.129 81.1805C296.476 81.0698 296.83 80.9517 297.177 80.8337C298.506 80.3982 299.834 79.9629 301.177 79.5422C306.49 77.8449 311.841 76.2509 317.243 74.7602C317.796 74.6052 318.349 74.4502 318.903 74.3027C322.047 73.4466 325.212 72.6201 328.393 71.8379C328.873 71.7124 329.36 71.5943 329.847 71.4836C330.29 71.3729 330.732 71.2623 331.183 71.1589C332.732 70.7826 334.282 70.4209 335.847 70.0668C344.23 68.148 352.716 66.4728 361.284 65.0485C362.096 64.9157 362.9 64.7828 363.712 64.65C364.037 64.5983 364.369 64.5467 364.693 64.495C365.638 64.3401 366.597 64.1925 367.549 64.0523C368.346 63.9342 369.151 63.8161 369.955 63.6981C371.224 63.5136 372.494 63.3365 373.77 63.1668C383.172 61.8901 392.67 60.9086 402.263 60.2444C412.196 59.5654 422.218 59.2112 432.32 59.2112C452.408 59.2112 472.17 60.5912 491.534 63.2553C574.009 74.5979 649.148 109.304 710.015 160.46C647.318 118.935 572.201 94.7443 491.534 94.7443C410.868 94.7443 335.751 118.942 273.053 160.46C167.038 230.656 96.5402 350.383 94.8134 486.376C94.7986 488.081 94.7839 489.793 94.7839 491.497C94.7839 493.202 94.7986 494.914 94.8134 496.619C95.4628 556.357 107.499 614.317 130.619 668.986C153.585 723.285 186.461 772.05 228.333 813.922C270.205 855.795 318.962 888.671 373.269 911.637C382.833 915.681 392.5 919.385 402.263 922.758C507.43 959.25 626.183 955.14 728.243 911.637C755.26 900.213 780.897 886.339 805.006 870.119C768.152 900.707 727.225 925.599 682.873 944.358C622.205 969.995 557.833 982.998 491.498 982.998C425.162 982.998 360.797 969.995 300.166 944.351C255.815 925.592 214.887 900.7 178.033 870.111C166.248 860.333 154.884 849.972 143.954 839.043C98.8279 793.916 63.3984 741.358 38.6397 682.83C13.5121 623.409 0.523996 560.379 0.014799 495.453C0.014799 495.173 0.0147989 494.892 0.0147989 494.604C0.0147989 493.571 3.95963e-05 492.531 3.95511e-05 491.497Z" fill="var(--text)"/>
</g>
<g id="settings_cog">
<ellipse id="bullseye" cx="491.153" cy="491.5" rx="52.168" ry="52.1661" fill="#FF4500"/>
<path id="cog" d="M451.464 799.723C436.748 799.723 424.322 788.793 422.444 774.198L415.424 719.646C413.941 708.119 405.697 698.721 395.015 694.143C389.054 691.589 382.874 688.582 376.474 685.124C369.6 681.411 363.265 677.56 357.47 673.569C348.286 667.243 336.557 665.107 326.25 669.365L272.492 691.573C259.034 697.133 243.537 691.951 236.13 679.415L196.761 612.785C189.108 599.831 192.526 583.185 204.664 574.295L250.012 541.083C258.936 534.547 263.302 523.546 262.127 512.547C262.082 512.13 262.038 511.713 261.995 511.295C261.314 504.731 260.973 498.352 260.973 492.159C260.973 486.406 261.314 480.358 261.995 474.017C262.142 472.638 262.297 471.221 262.461 469.767C263.658 459.154 259.214 448.656 250.598 442.346L204.777 408.787C192.591 399.863 189.201 383.13 196.952 370.166L236.13 304.645C243.552 292.231 258.932 287.103 272.32 292.579L326.388 314.697C336.268 318.738 347.484 316.958 356.255 310.874C362.744 306.373 369.519 302.149 376.58 298.202C382.844 294.698 389.019 291.603 395.106 288.915C405.406 284.366 413.267 275.228 414.779 264.069L422.295 208.607C424.262 194.099 436.649 183.277 451.29 183.277H531.515C546.24 183.277 558.671 194.22 560.538 208.827L567.705 264.896C569.12 275.969 576.789 285.102 587.044 289.513C593.8 292.418 600.068 295.534 605.847 298.861C611.878 302.332 618.013 306.309 624.252 310.79C632.87 316.979 643.998 318.82 653.858 314.901L710.82 292.256C724.159 286.953 739.375 292.11 746.742 304.43L786.047 370.164C793.798 383.129 790.408 399.863 778.221 408.787L731.671 442.873C722.066 449.907 718.516 462.12 718.978 474.017C719.201 479.919 719.313 485.747 719.313 491.5C719.313 496.814 719.086 502.422 718.634 508.324C718.559 509.307 718.467 510.324 718.359 511.375C717.201 522.672 721.378 534.034 730.557 540.719L776.678 574.311C788.864 583.186 792.311 599.867 784.643 612.845L745.365 679.322C737.935 691.898 722.367 697.067 708.889 691.433L654.065 668.514C644.105 664.35 632.743 666.125 623.957 672.397C617.569 676.956 611.159 681.09 604.728 684.798C599.143 688.018 593.444 690.9 587.631 693.445C577.135 698.039 569.085 707.304 567.633 718.669L560.538 774.173C558.671 788.78 546.24 799.723 531.515 799.723H451.464ZM490.548 577.117C515.14 577.117 535.98 568.818 553.067 552.22C570.149 535.627 578.69 515.387 578.69 491.5C578.69 467.613 570.149 447.373 553.067 430.78C535.98 414.182 515.14 405.883 490.548 405.883C465.827 405.883 444.955 414.182 427.932 430.78C410.915 447.373 402.406 467.613 402.406 491.5C402.406 515.387 410.915 535.627 427.932 552.22C444.955 568.818 465.827 577.117 490.548 577.117Z" fill="var(--text)"/>
</g>
</g>
</g>
</svg>
