<svg width="983" height="983" viewBox="0 0 983 983" fill="none" xmlns="http://www.w3.org/2000/svg">
<g id="prod_search_spiral_round" clip-path="url(#clip0_3876_1195)">
<g id="dynamic">
<g id="spiral">
<path id="Vector" d="M178.034 112.887C214.888 82.2985 255.815 57.407 300.166 38.6481C360.789 13.004 425.169 0.0012099 491.497 0.001207C557.825 0.0012041 622.197 13.004 682.827 38.6481C727.179 57.407 768.106 82.2984 804.96 112.887C816.745 122.665 828.109 133.026 839.039 143.955C884.165 189.081 919.594 241.638 944.353 300.166C969.097 358.657 982.07 420.645 982.948 484.493C982.963 485.504 982.97 486.523 982.985 487.534C982.985 487.814 982.985 488.095 982.985 488.382C982.985 489.416 983 490.456 983 491.489C983 492.522 983 493.563 982.985 494.596C982.985 494.884 982.985 495.164 982.985 495.445C982.97 496.456 982.963 497.474 982.948 498.485C979.354 723.563 802.871 907.403 580.775 922.738C551.877 924.775 520.351 923.756 491.497 919.727C409.023 908.384 333.884 873.678 273.017 822.523C335.714 864.048 410.831 888.238 491.497 888.238C572.163 888.238 647.28 864.04 709.977 822.523C815.992 752.328 886.489 632.602 888.216 496.611C888.231 494.906 888.246 493.194 888.246 491.489C888.246 489.785 888.231 488.073 888.216 486.368C887.567 426.63 875.531 368.671 852.41 314.003C829.445 259.704 796.569 210.939 754.697 169.068C712.825 127.196 664.069 94.3198 609.762 71.3545C600.198 67.3105 590.531 63.6059 580.768 60.2334C551.759 50.2341 521.93 43.2382 491.489 39.3049C471.985 36.7811 452.223 35.5118 432.276 35.5118C370.722 35.5118 311.014 47.5701 254.789 71.3471C227.772 82.7707 202.136 96.6443 178.027 112.865L178.034 112.887Z" fill="#FF4500"/>
<path id="Vector_2" d="M-0.000235107 491.505C-0.000235152 490.471 -0.000235198 489.431 0.0145239 488.398C0.0145239 488.11 0.0145239 487.83 0.0145239 487.549C0.029283 486.538 0.0366626 485.52 0.0514217 484.509C0.0661809 483.756 0.08094 483.003 0.0956991 482.251C0.0956991 482.096 0.0956991 481.933 0.110458 481.786C0.125217 481.335 0.132597 480.885 0.147356 480.428C0.162115 479.985 0.169495 479.535 0.184254 479.085C0.228532 477.498 0.280189 475.919 0.346605 474.332C0.383503 473.454 0.420401 472.576 0.457299 471.705C0.479437 471.078 0.508956 470.451 0.545854 469.823C0.708204 466.539 0.907453 463.27 1.1436 460.008C1.1805 459.455 1.2174 458.894 1.26905 458.341C1.32809 457.558 1.38713 456.784 1.45354 456.001C1.49782 455.463 1.5421 454.917 1.58638 454.378C1.71183 452.924 1.83728 451.47 1.98487 450.017C2.17674 447.935 2.39075 445.862 2.6269 443.788C2.9885 440.519 3.38699 437.272 3.81501 434.025C3.88143 433.545 3.94784 433.066 4.00688 432.593C6.57498 413.834 10.3459 395.459 15.2534 377.542C15.4748 376.722 15.7035 375.911 15.9323 375.099C16.1611 374.28 16.3898 373.468 16.6186 372.656C17.0761 371.084 17.5337 369.505 18.006 367.933C19.2236 363.845 20.5076 359.771 21.8507 355.735C22.3599 354.207 22.8691 352.694 23.3931 351.167C24.2417 348.71 25.1051 346.267 25.9907 343.832C26.7582 341.721 27.5404 339.625 28.3448 337.537C28.7064 336.592 29.0753 335.648 29.4369 334.703C29.6878 334.061 29.9388 333.419 30.197 332.77C30.8686 331.087 31.5401 329.412 32.2264 327.744C33.171 325.434 34.1377 323.139 35.1266 320.852C35.7834 319.331 36.4476 317.811 37.1265 316.284C37.4659 315.523 37.798 314.771 38.1449 314.011C38.4917 313.251 38.8312 312.498 39.178 311.745C39.5248 310.992 39.8717 310.24 40.2185 309.487C40.9196 307.982 41.628 306.483 42.3438 304.993C43.4213 302.757 44.5134 300.521 45.6278 298.299C46.0041 297.562 46.3731 296.816 46.7495 296.086C47.8712 293.879 49.015 291.673 50.181 289.481C50.5647 288.75 50.9558 288.02 51.3469 287.297C51.6495 286.736 51.9521 286.175 52.2546 285.614C54.0848 282.249 55.9592 278.913 57.8779 275.615C58.2247 275.01 58.5716 274.412 58.9258 273.814C60.291 271.482 61.6784 269.158 63.0879 266.848C63.4052 266.331 63.7225 265.815 64.0398 265.298C65.8257 262.405 67.6411 259.535 69.486 256.686C69.8919 256.074 70.2904 255.446 70.6962 254.834C71.0135 254.339 71.3382 253.852 71.6703 253.358C72.0836 252.738 72.4968 252.111 72.9175 251.483C74.3344 249.373 75.766 247.277 77.2198 245.196C77.6847 244.524 78.1644 243.846 78.6367 243.174C79.5812 241.831 80.5332 240.495 81.4999 239.16C81.9796 238.488 82.4667 237.824 82.9463 237.167C84.4001 235.175 85.8687 233.197 87.3593 231.234C87.8538 230.577 88.3556 229.928 88.85 229.271C90.3407 227.315 91.8609 225.374 93.3885 223.441C93.8977 222.799 94.4068 222.157 94.9234 221.515C95.381 220.939 95.8385 220.371 96.3034 219.803C96.8716 219.102 97.4472 218.393 98.0302 217.692C98.5025 217.109 98.9748 216.541 99.4545 215.965C100.023 215.279 100.591 214.593 101.174 213.914C101.698 213.287 102.229 212.659 102.761 212.032C103.284 211.412 103.823 210.785 104.362 210.158C105.425 208.911 106.502 207.678 107.587 206.446C108.125 205.833 108.672 205.213 109.218 204.601C110.849 202.763 112.502 200.941 114.169 199.133C114.723 198.528 115.276 197.922 115.837 197.325C116.951 196.122 118.073 194.926 119.21 193.745C119.77 193.155 120.339 192.565 120.907 191.967C121.475 191.377 122.043 190.786 122.619 190.196C123.187 189.613 123.763 189.023 124.338 188.44C125.468 187.288 126.604 186.145 127.748 185.008C128.353 184.41 128.951 183.813 129.563 183.222C130.146 182.647 130.737 182.071 131.32 181.503C132.5 180.359 133.674 179.222 134.869 178.101C135.459 177.533 136.057 176.972 136.655 176.411C144.743 168.81 153.126 161.526 161.775 154.575C162.417 154.051 163.059 153.541 163.709 153.032C167.937 149.667 172.232 146.383 176.586 143.181C177.066 142.826 177.553 142.472 178.04 142.118C178.519 141.764 178.999 141.417 179.486 141.07C180.04 140.664 180.6 140.266 181.154 139.86C182.984 138.554 184.829 137.255 186.681 135.971C187.257 135.572 187.832 135.174 188.408 134.783C189.53 134.008 190.674 133.24 191.81 132.473C192.452 132.037 193.087 131.617 193.736 131.189C194.112 130.938 194.496 130.687 194.88 130.429C195.463 130.052 196.031 129.669 196.614 129.292C197.3 128.842 197.994 128.392 198.688 127.949C200.791 126.591 202.902 125.256 205.027 123.935C205.698 123.521 206.37 123.101 207.049 122.687C208.2 121.986 209.359 121.278 210.517 120.584C211.218 120.156 211.942 119.728 212.65 119.308C217.639 116.356 222.686 113.492 227.8 110.74C228.324 110.452 228.856 110.164 229.387 109.884C230.546 109.264 231.719 108.644 232.885 108.039C233.615 107.655 234.353 107.271 235.091 106.895C238.766 104.999 242.478 103.161 246.212 101.368C246.958 101.014 247.71 100.652 248.456 100.305C249.208 99.9509 249.961 99.6041 250.714 99.2498C251.415 98.9251 252.109 98.6005 252.81 98.2757C255.282 97.1393 257.776 96.025 260.278 94.9402C260.876 94.6745 261.481 94.4162 262.079 94.1579C265.134 92.8444 268.211 91.5677 271.296 90.3205C272.063 90.0032 272.838 89.7006 273.62 89.3907C278.107 87.6122 282.631 85.9076 287.191 84.284C287.981 83.9963 288.77 83.7232 289.567 83.4428C290.209 83.214 290.844 82.9926 291.486 82.7712C292.431 82.4465 293.383 82.1219 294.335 81.7972C294.932 81.5979 295.53 81.3912 296.128 81.1919C296.475 81.0813 296.829 80.9632 297.176 80.8451C298.504 80.4098 299.832 79.9744 301.176 79.5537C306.489 77.8564 311.839 76.2624 317.241 74.7718C317.794 74.6168 318.348 74.4618 318.901 74.3143C322.045 73.4582 325.211 72.6317 328.392 71.8495C328.871 71.724 329.358 71.6059 329.845 71.4952C330.288 71.3845 330.731 71.2739 331.181 71.1705C332.731 70.7942 334.28 70.4325 335.845 70.0784C344.228 68.1597 352.715 66.4845 361.282 65.0602C362.094 64.9274 362.898 64.7945 363.71 64.6617C364.035 64.61 364.367 64.5584 364.692 64.5067C365.636 64.3517 366.596 64.2042 367.548 64.0639C368.345 63.9459 369.149 63.8278 369.953 63.7098C371.223 63.5253 372.492 63.3482 373.769 63.1785C383.17 61.9018 392.668 60.9202 402.261 60.2561C412.194 59.5771 422.216 59.2229 432.318 59.2229C452.406 59.2229 472.168 60.6029 491.532 63.267C574.006 74.6094 649.145 109.316 710.012 160.471C647.315 118.946 572.198 94.7557 491.532 94.7557C410.866 94.7557 335.749 118.953 273.052 160.471C167.037 230.666 96.5395 350.392 94.8127 486.383C94.798 488.088 94.7832 489.8 94.7832 491.505C94.7832 493.209 94.798 494.921 94.8127 496.626C95.4621 556.364 107.498 614.323 130.619 668.991C153.584 723.29 186.46 772.054 228.332 813.926C270.203 855.798 318.96 888.674 373.267 911.639C382.831 915.683 392.498 919.388 402.261 922.76C507.428 959.252 626.18 955.142 728.24 911.639C755.256 900.216 780.893 886.342 805.002 870.122C768.149 900.71 727.221 925.602 682.87 944.36C622.202 969.997 557.83 983 491.495 983C425.16 983 360.795 969.997 300.165 944.353C255.813 925.594 214.886 900.703 178.032 870.114C166.247 860.336 154.883 849.976 143.953 839.046C98.8272 793.92 63.3978 741.363 38.6393 682.835C13.5118 623.415 0.523719 560.386 0.0145242 495.46C0.0145242 495.18 0.0145242 494.899 0.0145242 494.611C0.0145242 493.578 -0.000235062 492.538 -0.000235107 491.505Z" fill="var(--text)"/>
</g>
</g>
<g id="bottom">
<path fill-rule="evenodd" clip-rule="evenodd" d="M324.184 780.498C290.721 780.498 262.074 768.583 238.245 744.753C214.415 720.924 202.5 692.277 202.5 658.814C202.5 625.351 214.415 596.705 238.245 572.875C262.074 549.045 290.721 537.13 324.184 537.13C336.785 537.13 348.703 538.82 359.938 542.199C364.539 576.696 379.786 606.89 405.676 632.781C418.07 645.175 431.449 655.129 445.815 662.644C444.936 694.468 433.039 721.838 410.123 744.753C386.293 768.583 357.647 780.498 324.184 780.498ZM324.184 719.656C340.915 719.656 355.239 713.699 367.153 701.784C379.068 689.869 385.026 675.546 385.026 658.814C385.026 642.083 379.068 627.759 367.153 615.844C355.239 603.93 340.915 597.972 324.184 597.972C307.452 597.972 293.129 603.93 281.214 615.844C269.299 627.759 263.342 642.083 263.342 658.814C263.342 675.546 269.299 689.869 281.214 701.784C293.129 713.699 307.452 719.656 324.184 719.656Z" fill="var(--text)"/>
<path fill-rule="evenodd" clip-rule="evenodd" d="M297.987 539.833C330.666 532.628 361.205 538.097 389.606 556.238C418.008 574.378 435.81 599.788 443.014 632.466C450.218 665.145 444.75 695.685 426.609 724.086C408.468 752.487 383.059 770.289 350.38 777.494C338.075 780.206 326.072 781.122 314.373 780.241C302.453 747.543 281.064 721.339 250.207 701.63C235.436 692.195 220.227 685.354 204.58 681.108C198.587 649.841 204.314 620.552 221.758 593.24C239.899 564.839 265.309 547.037 297.987 539.833ZM311.085 599.248C294.746 602.85 282.041 611.751 272.971 625.952C263.901 640.152 261.167 655.422 264.769 671.761C268.371 688.101 277.272 700.805 291.472 709.876C305.673 718.946 320.943 721.68 337.282 718.078C353.621 714.476 366.326 705.575 375.397 691.374C384.467 677.174 387.201 661.904 383.599 645.565C379.997 629.226 371.096 616.521 356.895 607.45C342.695 598.38 327.425 595.646 311.085 599.248Z" fill="var(--text)"/>
</g>
<g id="left">
<path fill-rule="evenodd" clip-rule="evenodd" d="M445.868 324.184C445.868 346.963 440.346 367.51 429.304 385.825C421.066 391.546 413.19 398.163 405.676 405.676C398.163 413.19 391.546 421.066 385.825 429.304C367.51 440.346 346.963 445.868 324.184 445.868C290.721 445.868 262.074 433.953 238.245 410.123C214.415 386.293 202.5 357.647 202.5 324.184C202.5 290.721 214.415 262.074 238.245 238.245C262.074 214.415 290.721 202.5 324.184 202.5C357.647 202.5 386.293 214.415 410.123 238.245C433.953 262.074 445.868 290.721 445.868 324.184ZM367.153 367.153C355.239 379.068 340.915 385.026 324.184 385.026C307.452 385.026 293.129 379.068 281.214 367.153C269.299 355.239 263.342 340.915 263.342 324.184C263.342 307.452 269.299 293.129 281.214 281.214C293.129 269.299 307.452 263.342 324.184 263.342C340.915 263.342 355.239 269.299 367.153 281.214C379.068 293.129 385.026 307.452 385.026 324.184C385.026 340.915 379.068 355.239 367.153 367.153Z" fill="var(--text)"/>
<path fill-rule="evenodd" clip-rule="evenodd" d="M410.227 410.227C394.12 426.334 375.687 436.959 354.928 442.102C345.058 440.322 334.81 439.432 324.184 439.432C313.558 439.432 303.31 440.322 293.439 442.102C272.681 436.959 254.248 426.334 238.14 410.227C214.478 386.565 202.647 357.884 202.647 324.184C202.647 290.483 214.478 261.802 238.14 238.14C261.802 214.478 290.483 202.647 324.184 202.647C357.884 202.647 386.565 214.478 410.227 238.14C433.889 261.802 445.72 290.483 445.72 324.184C445.72 357.884 433.889 386.565 410.227 410.227ZM324.184 384.952C307.334 384.952 292.993 379.036 281.162 367.206C269.331 355.375 263.416 341.034 263.416 324.184C263.416 307.334 269.331 292.993 281.162 281.162C292.993 269.331 307.334 263.416 324.184 263.416C341.034 263.416 355.375 269.331 367.206 281.162C379.036 292.993 384.952 307.334 384.952 324.184C384.952 341.034 379.036 355.375 367.206 367.206C355.375 379.036 341.034 384.952 324.184 384.952Z" fill="var(--text)"/>
</g>
<g id="right">
<path fill-rule="evenodd" clip-rule="evenodd" d="M744.753 410.123C721.838 433.039 694.468 444.936 662.644 445.815C655.129 431.449 645.175 418.07 632.781 405.676C606.89 379.786 576.696 364.539 542.199 359.938C538.82 348.703 537.13 336.785 537.13 324.184C537.13 290.721 549.045 262.074 572.875 238.245C596.705 214.415 625.351 202.5 658.814 202.5C692.277 202.5 720.924 214.415 744.753 238.245C768.583 262.074 780.498 290.721 780.498 324.184C780.498 357.647 768.583 386.293 744.753 410.123ZM701.784 367.153C689.869 379.068 675.546 385.026 658.814 385.026C642.083 385.026 627.759 379.068 615.844 367.153C603.93 355.239 597.972 340.915 597.972 324.184C597.972 307.452 603.93 293.129 615.844 281.214C627.759 269.299 642.083 263.342 658.814 263.342C675.546 263.342 689.869 269.299 701.784 281.214C713.699 293.129 719.656 307.452 719.656 324.184C719.656 340.915 713.699 355.239 701.784 367.153Z" fill="var(--text)"/>
<path fill-rule="evenodd" clip-rule="evenodd" d="M572.875 410.123C549.959 387.208 538.062 359.838 537.183 328.014C551.548 320.499 564.928 310.544 577.322 298.151C603.212 272.26 618.458 242.066 623.06 207.569C634.295 204.19 646.213 202.5 658.814 202.5C692.277 202.5 720.924 214.415 744.753 238.245C768.583 262.074 780.498 290.721 780.498 324.184C780.498 357.647 768.583 386.293 744.753 410.123C720.924 433.953 692.277 445.868 658.814 445.868C625.351 445.868 596.705 433.953 572.875 410.123ZM615.844 367.153C603.93 355.239 597.972 340.915 597.972 324.184C597.972 307.452 603.93 293.129 615.844 281.214C627.759 269.299 642.083 263.342 658.814 263.342C675.546 263.342 689.869 269.299 701.784 281.214C713.699 293.129 719.656 307.452 719.656 324.184C719.656 340.915 713.699 355.239 701.784 367.153C689.869 379.068 675.546 385.026 658.814 385.026C642.083 385.026 627.759 379.068 615.844 367.153Z" fill="var(--text)"/>
</g>
<g id="search">
<path fill-rule="evenodd" clip-rule="evenodd" d="M445.815 662.645C467.946 674.223 492.417 680.012 519.229 680.012C533.967 680.012 548.203 678.169 561.936 674.485C575.67 670.8 588.566 665.273 600.625 657.904L710.084 766.474C717.904 774.23 730.522 774.204 738.31 766.416L766.3 738.427C774.133 730.594 774.107 717.886 766.242 710.085L656.898 601.631C664.268 589.572 669.962 576.676 673.981 562.942C678.001 549.209 680.011 534.638 680.011 519.23C680.011 492.418 674.222 467.947 662.644 445.816C655.129 431.45 645.175 418.071 632.781 405.677C606.89 379.786 576.696 364.54 542.199 359.939C534.743 358.945 527.086 358.447 519.229 358.447C485.564 358.447 455.59 367.573 429.304 385.826C421.066 391.546 413.19 398.164 405.676 405.677C398.163 413.191 391.545 421.067 385.825 429.305C367.573 455.59 358.446 485.565 358.446 519.23C358.446 527.087 358.944 534.744 359.938 542.2C364.539 576.697 379.785 606.891 405.676 632.782C418.07 645.176 431.449 655.13 445.815 662.645ZM519.229 599.621C541.336 599.621 560.261 591.749 576.005 576.006C591.748 560.263 599.62 541.337 599.62 519.23C599.62 497.122 591.748 478.197 576.005 462.453C560.261 446.71 541.336 438.838 519.229 438.838C497.121 438.838 478.196 446.71 462.452 462.453C446.709 478.197 438.837 497.122 438.837 519.23C438.837 541.337 446.709 560.263 462.452 576.006C478.196 591.749 497.121 599.621 519.229 599.621Z" fill="#FF4500"/>
</g>
</g>
<defs>
<clipPath id="clip0_3876_1195">
<rect width="983" height="983" fill="white"/>
</clipPath>
</defs>
</svg>
