<svg width="983" height="983" viewBox="0 0 983 983" fill="none" xmlns="http://www.w3.org/2000/svg">
<g clip-path="url(#clip0_3686_665)">
<path d="M178.034 112.888C214.888 82.2994 255.815 57.408 300.166 38.6491C360.79 13.005 425.169 0.00218646 491.497 0.00218356C557.825 0.00218066 622.197 13.005 682.828 38.6491C727.179 57.408 768.106 82.2994 804.96 112.888C816.745 122.666 828.11 133.027 839.039 143.956C884.165 189.082 919.595 241.639 944.353 300.167C969.097 358.658 982.07 420.646 982.948 484.494C982.963 485.505 982.97 486.524 982.985 487.535C982.985 487.815 982.985 488.096 982.985 488.383C982.985 489.417 983 490.457 983 491.49C983 492.523 983 493.564 982.985 494.597C982.985 494.885 982.985 495.165 982.985 495.446C982.97 496.457 982.963 497.475 982.948 498.486C979.354 723.564 802.872 907.404 580.775 922.739C551.877 924.776 520.351 923.757 491.497 919.728C409.023 908.385 333.884 873.679 273.017 822.524C335.714 864.049 410.831 888.239 491.497 888.239C572.163 888.239 647.28 864.041 709.977 822.524C815.992 752.329 886.49 632.603 888.216 496.612C888.231 494.907 888.246 493.195 888.246 491.49C888.246 489.786 888.231 488.073 888.216 486.369C887.567 426.631 875.531 368.672 852.411 314.004C829.445 259.705 796.569 210.94 754.698 169.069C712.826 127.197 664.069 94.3208 609.762 71.3554C600.198 67.3114 590.531 63.6069 580.768 60.2344C551.759 50.235 521.931 43.2392 491.49 39.3059C471.985 36.782 452.223 35.5127 432.276 35.5127C370.723 35.5127 311.014 47.571 254.789 71.3481C227.773 82.7717 202.136 96.6453 178.027 112.866L178.034 112.888Z" fill="#FF4500"/>
<path d="M-2.14839e-05 491.506C-2.15291e-05 490.472 -2.15746e-05 489.432 0.0147376 488.399C0.0147375 488.111 0.0147375 487.831 0.0147375 487.55C0.0294967 486.539 0.0368762 485.521 0.0516353 484.51C0.0663945 483.757 0.0811536 483.004 0.0959128 482.252C0.0959128 482.097 0.0959128 481.934 0.110672 481.787C0.125431 481.336 0.132811 480.886 0.14757 480.429C0.162329 479.986 0.169709 479.536 0.184468 479.086C0.228745 477.499 0.280402 475.92 0.346818 474.333C0.383716 473.455 0.420614 472.577 0.457512 471.706C0.479651 471.079 0.509169 470.452 0.546067 469.824C0.708418 466.54 0.907667 463.271 1.14381 460.009C1.18071 459.456 1.21761 458.895 1.26927 458.342C1.3283 457.559 1.38734 456.785 1.45376 456.002C1.49803 455.464 1.54231 454.918 1.58659 454.379C1.71204 452.925 1.83749 451.471 1.98509 450.018C2.17696 447.936 2.39096 445.863 2.62711 443.789C2.98871 440.52 3.38721 437.273 3.81522 434.026C3.88164 433.546 3.94806 433.067 4.00709 432.594C6.57519 413.835 10.3462 395.46 15.2536 377.543C15.475 376.723 15.7037 375.912 15.9325 375.1C16.1613 374.281 16.39 373.469 16.6188 372.657C17.0763 371.085 17.5339 369.506 18.0062 367.934C19.2238 363.846 20.5079 359.772 21.8509 355.736C22.3601 354.208 22.8693 352.695 23.3933 351.168C24.2419 348.711 25.1053 346.268 25.9909 343.833C26.7584 341.722 27.5406 339.626 28.345 337.538C28.7066 336.593 29.0756 335.649 29.4372 334.704C29.6881 334.062 29.939 333.42 30.1973 332.771C30.8688 331.088 31.5403 329.413 32.2266 327.745C33.1712 325.435 34.138 323.14 35.1268 320.853C35.7836 319.332 36.4478 317.812 37.1267 316.285C37.4661 315.524 37.7982 314.772 38.1451 314.012C38.4919 313.252 38.8314 312.499 39.1782 311.746C39.5251 310.993 39.8719 310.241 40.2187 309.488C40.9198 307.983 41.6282 306.484 42.3441 304.994C43.4215 302.758 44.5137 300.522 45.628 298.3C46.0043 297.563 46.3733 296.817 46.7497 296.087C47.8714 293.88 49.0152 291.674 50.1812 289.482C50.5649 288.751 50.956 288.021 51.3472 287.298C51.6497 286.737 51.9523 286.176 52.2548 285.615C54.085 282.25 55.9594 278.914 57.8781 275.616C58.2249 275.01 58.5718 274.413 58.926 273.815C60.2912 271.483 61.6786 269.159 63.0881 266.849C63.4054 266.332 63.7227 265.816 64.04 265.299C65.8259 262.406 67.6413 259.536 69.4862 256.687C69.8921 256.075 70.2906 255.447 70.6964 254.835C71.0138 254.34 71.3385 253.853 71.6705 253.359C72.0838 252.739 72.4971 252.112 72.9177 251.484C74.3346 249.374 75.7662 247.278 77.22 245.197C77.6849 244.525 78.1646 243.846 78.6369 243.175C79.5815 241.832 80.5334 240.496 81.5002 239.161C81.9798 238.489 82.4669 237.825 82.9466 237.168C84.4003 235.176 85.8689 233.198 87.3595 231.235C87.854 230.578 88.3558 229.929 88.8502 229.272C90.3409 227.316 91.8611 225.375 93.3887 223.442C93.8979 222.8 94.4071 222.158 94.9236 221.516C95.3812 220.94 95.8387 220.372 96.3036 219.804C96.8718 219.103 97.4474 218.394 98.0304 217.693C98.5027 217.11 98.975 216.542 99.4547 215.966C100.023 215.28 100.591 214.594 101.174 213.915C101.698 213.288 102.229 212.66 102.761 212.033C103.285 211.413 103.823 210.786 104.362 210.159C105.425 208.911 106.502 207.679 107.587 206.447C108.126 205.834 108.672 205.214 109.218 204.602C110.849 202.764 112.502 200.942 114.17 199.134C114.723 198.528 115.277 197.923 115.837 197.326C116.952 196.123 118.073 194.927 119.21 193.746C119.771 193.156 120.339 192.566 120.907 191.968C121.475 191.378 122.044 190.787 122.619 190.197C123.187 189.614 123.763 189.024 124.339 188.441C125.468 187.289 126.604 186.146 127.748 185.009C128.353 184.411 128.951 183.814 129.563 183.223C130.146 182.648 130.737 182.072 131.32 181.504C132.5 180.36 133.674 179.223 134.869 178.102C135.46 177.534 136.057 176.973 136.655 176.412C144.743 168.811 153.126 161.527 161.775 154.576C162.417 154.052 163.059 153.542 163.709 153.033C167.937 149.668 172.232 146.384 176.586 143.182C177.066 142.827 177.553 142.473 178.04 142.119C178.52 141.765 178.999 141.418 179.486 141.071C180.04 140.665 180.601 140.267 181.154 139.861C182.984 138.554 184.829 137.256 186.681 135.972C187.257 135.573 187.833 135.175 188.408 134.784C189.53 134.009 190.674 133.241 191.81 132.474C192.452 132.038 193.087 131.618 193.736 131.19C194.113 130.939 194.496 130.688 194.88 130.43C195.463 130.053 196.031 129.669 196.614 129.293C197.301 128.843 197.994 128.393 198.688 127.95C200.791 126.592 202.902 125.257 205.027 123.936C205.699 123.522 206.37 123.102 207.049 122.688C208.2 121.987 209.359 121.279 210.518 120.585C211.219 120.157 211.942 119.729 212.65 119.309C217.639 116.357 222.686 113.493 227.801 110.741C228.324 110.453 228.856 110.165 229.387 109.885C230.546 109.265 231.719 108.645 232.885 108.04C233.616 107.656 234.354 107.272 235.092 106.896C238.767 105 242.479 103.162 246.213 101.369C246.958 101.015 247.711 100.653 248.456 100.306C249.209 99.9519 249.961 99.605 250.714 99.2508C251.415 98.9261 252.109 98.6014 252.81 98.2767C255.282 97.1402 257.776 96.0259 260.278 94.9412C260.876 94.6755 261.481 94.4172 262.079 94.1589C265.134 92.8454 268.211 91.5687 271.296 90.3215C272.063 90.0042 272.838 89.7016 273.62 89.3917C278.107 87.6132 282.631 85.9086 287.191 84.285C287.981 83.9972 288.771 83.7242 289.568 83.4438C290.21 83.215 290.844 82.9936 291.486 82.7722C292.431 82.4475 293.383 82.1229 294.335 81.7981C294.933 81.5989 295.53 81.3922 296.128 81.1929C296.475 81.0823 296.829 80.9642 297.176 80.8461C298.504 80.4108 299.833 79.9753 301.176 79.5547C306.489 77.8574 311.839 76.2634 317.241 74.7728C317.795 74.6178 318.348 74.4628 318.902 74.3152C322.045 73.4592 325.211 72.6327 328.392 71.8504C328.871 71.725 329.358 71.6069 329.845 71.4961C330.288 71.3855 330.731 71.2748 331.181 71.1715C332.731 70.7952 334.281 70.4335 335.845 70.0793C344.228 68.1606 352.715 66.4855 361.283 65.0611C362.094 64.9283 362.899 64.7955 363.71 64.6626C364.035 64.611 364.367 64.5594 364.692 64.5077C365.636 64.3527 366.596 64.2052 367.548 64.0649C368.345 63.9469 369.149 63.8288 369.954 63.7107C371.223 63.5262 372.492 63.3492 373.769 63.1794C383.17 61.9028 392.668 60.9212 402.261 60.2571C412.194 59.5781 422.216 59.2239 432.318 59.2239C452.406 59.2239 472.168 60.6039 491.532 63.268C574.007 74.6104 649.146 109.317 710.012 160.472C647.315 118.947 572.199 94.7566 491.532 94.7566C410.866 94.7566 335.749 118.954 273.052 160.472C167.037 230.667 96.5398 350.393 94.8129 486.384C94.7982 488.089 94.7834 489.801 94.7834 491.506C94.7834 493.21 94.7982 494.922 94.8129 496.627C95.4624 556.365 107.498 614.324 130.619 668.992C153.584 723.291 186.46 772.055 228.332 813.927C270.204 855.799 318.961 888.675 373.267 911.64C382.831 915.684 392.498 919.389 402.261 922.761C507.428 959.253 626.18 955.143 728.24 911.64C755.257 900.217 780.893 886.343 805.002 870.123C768.149 900.711 727.222 925.602 682.87 944.361C622.203 969.998 557.831 983.001 491.495 983.001C425.16 983.001 360.796 969.998 300.165 944.354C255.813 925.595 214.886 900.704 178.033 870.115C166.247 860.337 154.883 849.976 143.954 839.047C98.8275 793.921 63.398 741.364 38.6395 682.836C13.512 623.416 0.523932 560.387 0.0147379 495.461C0.0147379 495.181 0.0147378 494.9 0.0147378 494.612C0.0147378 493.579 -2.14388e-05 492.539 -2.14839e-05 491.506Z" fill="var(--text)"/>
<path d="M291.212 548.725V491.5H348.437V548.725H291.212ZM233.986 491.5V434.275H291.212V491.5H233.986ZM491.5 291.212V233.986H548.725V291.212H491.5ZM276.905 706.095H362.743V620.257H276.905V706.095ZM233.986 749.014V577.338H405.662V749.014H233.986ZM620.257 362.743H706.095V276.905H620.257V362.743ZM577.338 405.662V233.986H749.014V405.662H577.338ZM405.662 548.725V491.5H348.437V434.275H462.887V548.725H405.662ZM434.275 405.662V291.212H491.5V348.437H548.725V405.662H434.275ZM298.365 341.284V298.365H341.284V341.284H298.365Z" fill="var(--text)"/>
<path d="M298.365 641.717V684.636H341.284V641.717H298.365Z" fill="var(--text)"/>
<path d="M605.951 663.176V749.014H663.176V663.176H749.014V605.951H663.176V520.113H605.951V605.951H520.113V663.176H605.951Z" fill="#FF4500"/>
<path fill-rule="evenodd" clip-rule="evenodd" d="M233.986 405.662V233.986H405.662V405.662H233.986ZM362.743 362.743H276.905V276.905H362.743V362.743Z" fill="var(--text)"/>
<path d="M636 472.55L539.667 472.55L539.667 520.717L491.5 520.717L491.5 472.55L539.667 472.55L539.667 424.383L636 424.383L636 472.55Z" fill="var(--text)"/>
<path d="M435.494 749.014L483.661 749.014L483.661 652.68L435.494 652.68L435.494 749.014Z" fill="var(--text)"/>
<path d="M700.847 520.717L749.014 520.717L749.014 424.383L700.847 424.383L700.847 520.717Z" fill="var(--text)"/>
<path d="M641.716 298.365V341.284H684.635V298.365H641.716Z" fill="var(--text)"/>
</g>
<defs>
<clipPath id="clip0_3686_665">
<rect width="983" height="983" fill="white"/>
</clipPath>
</defs>
</svg>
