<svg width="166" height="50" viewBox="0 0 166 50" fill="none" xmlns="http://www.w3.org/2000/svg">
<g id="get_it_on_google" clip-path="url(#clip0_4439_315)">
<rect id="background" y="0.277344" width="166" height="49.4468" rx="5.88653" fill="var(--text)"/>
<g id="text">
<path id="Vector" d="M154.948 22.8594L152.147 29.9431H152.078L149.184 22.8594H146.568L150.92 32.7442L148.443 38.2538H150.99L157.68 22.8594H154.948Z" fill="var(--background)"/>
<path id="Vector_2" d="M135.317 16.9805H132.887V33.3008H135.317V16.9805Z" fill="var(--background)"/>
<path id="Vector_3" d="M126.199 16.9805H120.365V33.3008H122.796V27.1199H126.199C128.907 27.1199 131.546 25.1754 131.546 22.0502C131.546 18.925 128.884 16.9805 126.199 16.9805ZM126.268 24.8513H122.819V19.2491H126.291C127.032 19.2491 127.75 19.5501 128.259 20.0593C128.792 20.5918 129.069 21.2863 129.069 22.0271C129.069 22.7678 128.768 23.4855 128.259 23.9948C127.727 24.5503 127.009 24.8513 126.268 24.8513Z" fill="var(--background)"/>
<path id="Vector_4" d="M141.313 22.4922C139.554 22.4922 137.725 23.2793 136.961 24.9923L139.114 25.8952C139.577 24.9923 140.434 24.7145 141.337 24.7145C142.587 24.7145 143.883 25.4785 143.906 26.8211V26.9832C143.119 26.5665 142.263 26.3582 141.383 26.3582C139.045 26.3582 136.684 27.6314 136.684 30.0389C136.684 32.215 138.582 33.6271 140.735 33.6271C142.378 33.6271 143.281 32.8863 143.837 32.0298H143.929V33.2798H146.291V27.0295C146.267 24.1126 144.091 22.4922 141.313 22.4922ZM141.013 31.451C140.225 31.451 139.114 31.0575 139.114 30.0621C139.114 28.812 140.503 28.3259 141.707 28.3259C142.494 28.3027 143.258 28.4879 143.929 28.8814C143.837 29.5991 143.49 30.2473 142.957 30.7102C142.425 31.1732 141.73 31.4279 141.013 31.451Z" fill="var(--background)"/>
<path id="Vector_5" d="M54.3423 33.6295C49.5967 33.6295 45.5918 29.7635 45.5918 25.0179C45.5918 20.2722 49.5735 16.4062 54.3423 16.4062C56.9582 16.4062 58.8333 17.448 60.2454 18.7906L58.5786 20.4574C57.5601 19.5083 56.1943 18.7675 54.3423 18.7675C50.8699 18.7675 48.1614 21.5686 48.1614 25.041C48.1614 28.5134 50.8699 31.3145 54.3423 31.3145C56.5878 31.3145 57.861 30.4117 58.6944 29.6014C59.3657 28.9301 59.8056 27.9578 59.9676 26.6383H54.2728V24.2539H62.2594C62.352 24.6706 62.3752 25.1799 62.3752 25.7355C62.3752 27.4948 61.889 29.694 60.338 31.2451C58.8333 32.7961 56.8887 33.6295 54.3423 33.6295Z" fill="var(--background)"/>
<path id="Vector_6" d="M74.3422 28.0949C74.3422 31.2896 71.8421 33.6508 68.7863 33.6508C65.7306 33.6508 63.2305 31.2896 63.2305 28.0949C63.2305 24.8772 65.7306 22.5391 68.7863 22.5391C71.8421 22.5391 74.3422 24.8772 74.3422 28.0949ZM71.8884 28.0949C71.8884 26.1041 70.43 24.7383 68.7632 24.7383C67.0964 24.7383 65.638 26.1041 65.638 28.0949C65.638 30.0626 67.0964 31.4516 68.7632 31.4516C70.43 31.4516 71.8884 30.0626 71.8884 28.0949Z" fill="var(--background)"/>
<path id="Vector_7" d="M86.4262 28.0949C86.4262 31.2896 83.9261 33.6508 80.8703 33.6508C77.8146 33.6508 75.3145 31.2896 75.3145 28.0949C75.3145 24.8772 77.8146 22.5391 80.8703 22.5391C83.9492 22.5391 86.4262 24.8772 86.4262 28.0949ZM83.9955 28.0949C83.9955 26.1041 82.5371 24.7383 80.8703 24.7383C79.1804 24.7383 77.7451 26.1041 77.7451 28.0949C77.7451 30.0626 79.2036 31.4516 80.8703 31.4516C82.5602 31.4516 83.9955 30.0626 83.9955 28.0949Z" fill="var(--background)"/>
<path id="Vector_8" d="M98.024 22.8626V32.84C98.024 36.9375 95.6165 38.6274 92.746 38.6274C90.0606 38.6274 88.4402 36.8217 87.8383 35.3401L89.968 34.4605C90.3384 35.3633 91.2644 36.4282 92.7691 36.4282C94.5979 36.4282 95.7322 35.2938 95.7322 33.1641V32.3539H95.6396C95.0841 33.0252 94.0423 33.6039 92.7228 33.6039C89.9449 33.6039 87.3984 31.1964 87.3984 28.0712C87.3984 24.946 89.9449 22.4922 92.7228 22.4922C94.0423 22.4922 95.1072 23.0709 95.6396 23.7423H95.7322V22.8394L98.024 22.8626ZM95.8711 28.1175C95.8711 26.173 94.5748 24.7377 92.908 24.7377C91.2181 24.7377 89.8291 26.173 89.8291 28.1175C89.8291 30.0621 91.2412 31.451 92.908 31.451C94.5748 31.451 95.8711 30.0389 95.8711 28.1175Z" fill="var(--background)"/>
<path id="Vector_9" d="M102.216 16.9805V33.3008H99.7617V16.9805H102.216Z" fill="var(--background)"/>
<path id="Vector_10" d="M111.659 29.9235L113.557 31.1735C112.956 32.0764 111.474 33.6274 108.928 33.6274C105.779 33.6274 103.418 31.1967 103.418 28.0715C103.418 24.7611 105.802 22.5156 108.65 22.5156C111.52 22.5156 112.932 24.8074 113.395 26.0575L113.65 26.6825L106.242 29.7614C106.821 30.8726 107.701 31.4513 108.928 31.4513C110.154 31.4513 111.034 30.8494 111.659 29.9235ZM105.826 27.9095L110.78 25.8491C110.502 25.1547 109.691 24.6685 108.719 24.6685C107.492 24.6917 105.779 25.7797 105.826 27.9095Z" fill="var(--background)"/>
</g>
<g id="play_icon">
<path id="Vector_11" d="M20.9594 24.3438L8.43555 37.3538C8.82909 38.7659 10.1486 39.8076 11.6996 39.8076C12.3247 39.8076 12.9034 39.6455 13.4127 39.3446L13.459 39.3215L27.557 31.358L20.9594 24.3438Z" fill="#DA4536"/>
<path id="Vector_12" d="M33.6453 22.1443L27.5339 18.6719L20.6816 24.6444L27.557 31.3809L33.6222 27.9548C34.6871 27.3992 35.4047 26.288 35.4047 25.038C35.4047 23.7879 34.6871 22.6999 33.6453 22.1443Z" fill="#F2B41C"/>
<path id="Vector_13" d="M8.43606 12.6523C8.36661 12.9301 8.32031 13.2079 8.32031 13.5089V36.5194C8.34346 36.8435 8.36661 37.0982 8.43606 37.376L21.3998 24.6901L8.43606 12.6523Z" fill="#547DBF"/>
<path id="Vector_14" d="M21.052 25.0149L27.5339 18.6719L13.459 10.6622C12.9497 10.3613 12.3478 10.1992 11.6996 10.1992C10.1255 10.1992 8.80594 11.2409 8.43555 12.6531L21.052 25.0149Z" fill="#109E58"/>
</g>
</g>
<defs>
<clipPath id="clip0_4439_315">
<rect width="166" height="49.4468" fill="var(--background)" transform="translate(0 0.277344)"/>
</clipPath>
</defs>
</svg>
