<svg xmlns="http://www.w3.org/2000/svg" width="635" height="211" viewBox="0 0 635 211"><g transform="translate(-1213 -347)"><g transform="translate(1093 83)"><g transform="translate(120 264)" fill="#fff" stroke="#ff4500" stroke-width="10"><rect width="635" height="211" stroke="none"/><rect x="5" y="5" width="625" height="201" fill="none"/></g><g transform="translate(0.65 0.1)"><g transform="translate(139.7 263.5)"><text transform="translate(0.15 114.4)" fill="#00284c" font-size="121" font-family="Raleway-Medium, Raleway" font-weight="500" letter-spacing="0.178em"><tspan x="0" y="0">BAYTON</tspan></text></g><g transform="translate(237.97 405.6)" fill="#ff4500"><path d="M 486.7512512207031 40.800048828125 L 0.5000005960464478 40.800048828125 L 0.5000005960464478 0.800048828125 L 486.7512512207031 0.800048828125 L 486.7512512207031 40.800048828125 Z" stroke="none"/><path d="M 1 1.300048828125 L 1 40.300048828125 L 486.2512512207031 40.300048828125 L 486.2512512207031 1.300048828125 L 1 1.300048828125 M 0 0.300048828125 L 487.2512512207031 0.300048828125 L 487.2512512207031 41.300048828125 L 0 41.300048828125 L 0 0.300048828125 Z" stroke="none" fill="#ff4500"/></g><g transform="translate(149.35 405.9)" fill="#ff4500" stroke="#ff4500" stroke-width="1"><rect width="67" height="41" stroke="none"/><rect x="0.5" y="0.5" width="66" height="40" fill="none"/></g></g></g><rect width="97" height="83" transform="translate(1328 393)" fill="#fff"/><path d="M10.5,93.49,3.97,98.721A2.442,2.442,0,0,1,0,96.819V39.7a39.7,39.7,0,0,1,79.407,0V96.819a2.442,2.442,0,0,1-3.97,1.9L68.9,93.49a3.9,3.9,0,0,0-5.542.7l-7.775,10.36a3.309,3.309,0,0,1-5.294,0L42.35,93.965a3.309,3.309,0,0,0-5.294,0l-7.941,10.588a3.309,3.309,0,0,1-5.294,0l-7.775-10.36a3.877,3.877,0,0,0-5.521-.7ZM33.086,39.7a6.617,6.617,0,1,0-6.617,6.617A6.61,6.61,0,0,0,33.086,39.7Zm19.852,6.617A6.617,6.617,0,1,0,46.321,39.7,6.61,6.61,0,0,0,52.938,46.321Z" transform="translate(1331.211 367.282)" fill="#ff4500"/></g></svg>