<svg xmlns="http://www.w3.org/2000/svg" width="635" height="211" viewBox="0 0 635 211"><defs><style>.a{fill:#00284c;stroke-width:10px;}.a,.d{stroke:#ff4500;}.b{fill:#fff;font-size:121px;font-family:Raleway-Medium, Raleway;font-weight:500;letter-spacing:0.178em;}.c,.d{fill:#ff4500;}.e,.g{stroke:none;}.f{fill:none;}.g{fill:#ff4500;}</style></defs><g transform="translate(-120 -264)"><g class="a" transform="translate(120 264)"><rect class="e" width="635" height="211"/><rect class="f" x="5" y="5" width="625" height="201"/></g><g transform="translate(0.65 0.1)"><g transform="translate(139.7 263.5)"><text class="b" transform="translate(0.15 114.4)"><tspan x="0" y="0">BAYTON</tspan></text></g><g class="c" transform="translate(241.999 405.6)"><path class="e" d="M 482.7229614257812 40.800048828125 L 0.5000101327896118 40.800048828125 L 0.5000101327896118 0.800048828125 L 482.7229614257812 0.800048828125 L 482.7229614257812 40.800048828125 Z"/><path class="g" d="M 0.999969482421875 1.300048828125 L 0.999969482421875 40.300048828125 L 482.2229919433594 40.300048828125 L 482.2229919433594 1.300048828125 L 0.999969482421875 1.300048828125 M -3.0517578125e-05 0.300048828125 L 483.2229919433594 0.300048828125 L 483.2229919433594 41.300048828125 L -3.0517578125e-05 41.300048828125 L -3.0517578125e-05 0.300048828125 Z"/></g><g class="d" transform="translate(149.35 405.9)"><rect class="e" width="67" height="41"/><rect class="f" x="0.5" y="0.5" width="66" height="40"/></g></g></g></svg>