<svg xmlns="http://www.w3.org/2000/svg" width="634.2" height="211" viewBox="0 0 634.2 211"><defs><style>.a{fill:#00284c;stroke-width:10px;}.a,.d{stroke:#ff4500;}.b{fill:#fff;font-size:121px;font-family:Raleway-Medium, Raleway;font-weight:500;letter-spacing:0.178em;}.c,.d{fill:#ff4500;}.e,.g{stroke:none;}.f{fill:none;}.g{fill:#ff4500;}</style></defs><g transform="translate(-120.5 -263.6)"><g class="a" transform="translate(120.5 263.6)"><rect class="e" width="634.2" height="211"/><rect class="f" x="5" y="5" width="624.2" height="201"/></g><g transform="translate(0.65 0.1)"><g transform="translate(139.7 263.5)"><text class="b" transform="translate(0.1 114)"><tspan x="0" y="0">BAYTON</tspan></text></g><g class="c" transform="translate(253.35 405.6)"><path class="e" d="M 469.9300231933594 40.5 L 0.5000116229057312 40.5 L 0.5000116229057312 0.5 L 469.9300231933594 0.5 L 469.9300231933594 40.5 Z"/><path class="g" d="M 1 1 L 1 40 L 469.4300231933594 40 L 469.4300231933594 1 L 1 1 M 0 0 L 470.4300231933594 0 L 470.4300231933594 41 L 0 41 L 0 0 Z"/></g><g class="d" transform="translate(150 405.6)"><rect class="e" width="66.35" height="41"/><rect class="f" x="0.5" y="0.5" width="65.35" height="40"/></g></g></g></svg>