<svg width="125" height="40" viewBox="0 0 125 40" fill="none" xmlns="http://www.w3.org/2000/svg">
<g clip-path="url(#clip0_5725_836)">
<mask id="mask0_5725_836" style="mask-type:luminance" maskUnits="userSpaceOnUse" x="0" y="0" width="125" height="40">
<path d="M125 0.625H0V39.375H125V0.625Z" fill="white"/>
</mask>
<g mask="url(#mask0_5725_836)">
<path fill-rule="evenodd" clip-rule="evenodd" d="M81.9442 0.625C84.2499 0.625 86.1115 2.47996 86.1115 4.77739C86.1115 7.07482 84.2499 8.92979 81.9442 8.92979C79.6386 8.92979 77.777 7.07482 77.777 4.77739C77.777 2.47996 79.6386 0.625 81.9442 0.625ZM22.2196 35.2226C22.2196 37.52 20.358 39.375 18.0524 39.375C15.7466 39.375 13.8851 37.52 13.8851 35.2226V11.7037C13.8851 8.6575 15.1319 5.88356 17.1471 3.87544C19.1625 1.86731 21.9293 0.625 25.0034 0.625H36.1217C38.7519 0.625 41.16 1.54398 43.0557 3.05858C44.9515 1.54398 47.3768 0.625 50.0069 0.625H61.1251C64.1823 0.625 66.9661 1.86731 68.9814 3.87544C70.9968 5.88356 72.2435 8.64047 72.2435 11.7037V35.2226C72.2435 37.52 70.3819 39.375 68.0762 39.375C65.7706 39.375 63.909 37.52 63.909 35.2226V11.7037C63.909 10.9379 63.6016 10.2572 63.0893 9.74665C62.5939 9.23611 61.8938 8.92979 61.1251 8.92979H50.0069C49.2383 8.92979 48.5551 9.23611 48.0428 9.74665C47.5304 10.2572 47.223 10.9379 47.223 11.7037V35.2226C47.223 37.52 45.3614 39.375 43.0557 39.375C40.7501 39.375 38.8885 37.52 38.8885 35.2226V11.7037C38.8885 10.9379 38.5811 10.2572 38.0687 9.74665C37.5564 9.23611 36.8732 8.92979 36.1046 8.92979H24.9864C24.2177 8.92979 23.5346 9.23611 23.0223 9.74665C22.527 10.2572 22.2025 10.9379 22.2025 11.7037V35.2226H22.2196ZM4.16724 11.7037C6.47288 11.7037 8.33448 13.5586 8.33448 15.8561V35.2226C8.33448 37.52 6.47288 39.375 4.16724 39.375C1.86159 39.375 0 37.52 0 35.2226V15.8561C0 13.5586 1.86159 11.7037 4.16724 11.7037ZM4.16724 0.625C6.47288 0.625 8.33448 2.47996 8.33448 4.77739C8.33448 7.07482 6.47288 8.92979 4.16724 8.92979C1.86159 8.92979 0 7.07482 0 4.77739C0 2.47996 1.86159 0.625 4.16724 0.625ZM99.9966 35.2226C99.9966 37.52 98.135 39.375 95.8294 39.375C93.5237 39.375 91.6621 37.52 91.6621 35.2226V11.7037C91.6621 8.6575 92.9089 5.88356 94.9241 3.87544C96.9395 1.86731 99.7062 0.625 102.78 0.625H113.899C116.956 0.625 119.74 1.86731 121.755 3.87544C123.77 5.88356 125.017 8.64047 125.017 11.7037V35.2226C125.017 37.52 123.156 39.375 120.85 39.375C118.544 39.375 116.683 37.52 116.683 35.2226V11.7037C116.683 10.9379 116.375 10.2572 115.863 9.74665C115.351 9.23611 114.667 8.92979 113.899 8.92979H102.78C102.012 8.92979 101.329 9.23611 100.816 9.74665C100.321 10.2572 99.9966 10.9379 99.9966 11.7037V35.2226ZM81.9442 11.7037C84.2499 11.7037 86.1115 13.5586 86.1115 15.8561V35.2226C86.1115 37.52 84.2499 39.375 81.9442 39.375C79.6386 39.375 77.777 37.52 77.777 35.2226V15.8561C77.777 13.5586 79.6386 11.7037 81.9442 11.7037Z" fill="#AAAAAA"/>
</g>
</g>
<defs>
<clipPath id="clip0_5725_836">
<rect width="125" height="40" fill="white"/>
</clipPath>
</defs>
</svg>
