<?xml version="1.0" encoding="iso-8859-1"?>
<!-- Generator: Adobe Illustrator 25.4.1, SVG Export Plug-In . SVG Version: 6.00 Build 0)  -->
<svg version="1.1" id="Layer_1" xmlns="http://www.w3.org/2000/svg" xmlns:xlink="http://www.w3.org/1999/xlink" x="0px" y="0px"
	 viewBox="0 0 7500 5000" style="enable-background:new 0 0 7500 5000;" xml:space="preserve">
<rect style="fill:none;" width="7500" height="5000"/>
<g>
	<path style="fill:#FFFFFF;" d="M1995.662,2208.343c-4.627-1.716-40.548-24.19-79.824-49.943
		c-303.375-198.922-749.089-404.071-987.611-454.569c-60.744-12.858-212.56-12.829-259.513,0.052
		c-218.603,59.967-349.068,288.313-377.838,661.315c-6.757,87.597-3.797,305.645,5.47,402.957
		c34.827,365.722,137.469,729.311,293.029,1037.994c156.454,310.459,339.884,517.98,551.156,623.539
		c67.54,33.746,128.563,50.948,209.129,58.951h0.051c36.472,3.623,121.533-6.961,163.223-20.309
		c118.391-37.905,231.445-144.173,301.615-283.511c40.516-80.456,89.438-216.653,115.861-322.562
		c52.49-210.387,94.244-532.917,120.512-930.88c8.826-133.725,30.742-544.273,30.742-575.889c0-5.881,2.086-10.693,4.634-10.693
		c2.549,0,22.636,15.493,44.64,34.43c22.004,18.936,47.957,40.612,57.672,48.169l17.666,13.739l-11.507,35.728
		c-21.832,67.787-21.026,111.64,2.483,135.149c30.541,30.542,73.118,10.708,101.494-47.282
		c8.251-16.862,16.594-30.782,18.541-30.932c1.945-0.151,7.633,6.661,12.64,15.137c9.933,16.814,43.513,35.665,63.219,35.484
		c23.443-0.211,56.885-20.316,94.554-56.841c20.745-20.115,39.145-35.147,40.886-33.404c5.294,5.295-2.904,37.891-11.279,44.841
		c-4.318,3.584-11.326,13.231-15.567,21.436c-7.233,13.99-6.998,15.682,3.777,27.15c8.391,8.934,16.963,12.232,31.786,12.232
		c17.276,0,23.219-3.164,39.918-21.252c10.79-11.689,19.618-22.826,19.618-24.751c0-3.85,58.538-50.91,63.328-50.91
		c1.638,0,2.981,5.812,2.981,12.915c0,55.583,61.408,89.33,101.364,55.708c25.841-21.743,41.457-61.724,41.457-106.14v-38.149
		l25.754-5.523c14.165-3.038,28.753-5.523,32.417-5.523c5.01,0,7.552,18.364,10.263,74.1
		c4.884,100.444,10.844,114.626,48.176,114.626c19.918,0,29.708-12.854,54.118-71.061l19.463-46.414l28.825,27.494
		c35.78,34.129,58.87,46.104,108.745,56.406c48.644,10.047,78.654,10.089,121.103,0.169c39.537-9.239,111.137-43.524,127.689-61.141
		l11.808-12.571l-11.898-12.664c-18.297-19.476-27.311-19.791-62.214-2.172c-73.977,37.343-140.96,48.749-194.64,33.144
		c-24.785-7.205-35.183-14.381-66.456-45.857c-20.392-20.522-43.218-41.341-50.727-46.261
		c-18.506-12.125-45.419-6.892-59.146,11.501l-10.336,13.853l-0.302-17.853c-0.428-27.913-16.652-58.396-35.159-66.062
		c-13.536-5.606-22.531-5.256-58.422,2.276c-34.858,7.315-47.182,7.882-69.114,3.178c-27.889-5.981-64.624-3.016-76.212,6.151
		c-3.726,2.948-12.191,16.049-18.812,29.114c-6.619,13.065-17.343,27.224-23.83,31.466c-6.485,4.239-24.928,16.104-40.983,26.365
		l-29.19,18.656l-11.095-21.746c-10.074-19.737-10.555-24.367-5.242-50.107c12.07-58.448,5.578-77.535-28.704-84.39
		c-13.236-2.647-18.599-0.647-30.7,11.455c-12.547,12.545-15.108,19.934-17.722,51.15c-3.956,47.184-14.985,67.819-58.828,110.079
		c-48.251,46.506-56.888,45.513-66.677-7.669c-6.79-36.884-13.21-48.927-29.36-55.068c-11.627-4.421-12.064-5.596-4.789-12.872
		c10.313-10.336,10.435-47.412,0.18-62.052c-9.53-13.607-38.125-22.195-57.177-17.171c-8.494,2.24-21.915,14.157-33.817,30.031
		l-19.734,26.317l-46.575-42.001c-25.615-23.1-56.038-49.581-67.605-58.844l-21.031-16.844l-2.82-549.268
		c-2.772-540.139-6.429-674.836-24.192-891.016c-2.996-36.469-8.608-108.772-12.47-160.672
		c-3.863-51.899-10.49-105.577-14.732-119.283c-6.964-22.519-29.999-54.14-39.438-54.14c-2.055,0-7.686,12.051-12.511,26.779
		c-13.038,39.791-38.958,89.181-64.945,123.751c-24.498,32.59-61.163,64.659-171.934,150.384
		c-155.844,120.608-218.626,200.505-248.166,315.819c-34.227,133.606,3.449,252.361,87.528,275.902
		c17.679,4.95,24.599,4.802,35.872-0.764c14.962-7.389,17.521-15.231,6.566-20.12c-3.723-1.662-11.362-5.22-16.97-7.909
		c-5.61-2.689-17.088-18.543-25.504-35.234c-14.583-28.949-15.307-33.165-14.763-91.555c0.444-50.538,2.899-69.04,14.09-106.133
		c33.186-110.015,73.851-162.797,259.228-336.467c79.695-74.663,109.732-114.342,132.154-174.586
		c6.265-16.832,12.088-28.31,12.945-25.504c0.854,2.806,5.337,68.222,9.97,145.371c6.627,110.474,8.94,265.409,10.886,729.401
		c1.361,324.024,0.85,621.681-1.127,661.461C2004.48,2203.339,2003.131,2211.112,1995.662,2208.343z M2001.044,2321.843
		c-3.574,120.918-17.408,410.172-26.713,558.527c-41.93,668.436-107.316,1049.022-219.712,1278.845
		c-37.147,75.958-75.338,128.326-133.906,183.618c-51.058,48.202-105.952,78.574-163.939,90.707h-0.001
		c-157.195,32.891-347.702-47.594-519.641-219.532c-263.473-263.474-476.888-730.23-559.085-1222.766
		c-26.378-158.064-31.402-215.505-34.239-391.412c-3.172-196.674,1.852-278.158,23.907-387.654
		c51.706-256.718,154.941-402.793,321.402-454.77c33.64-10.505,48.408-11.94,122.417-11.921
		c98.94,0.03,145.737,8.613,267.146,49.002c261.239,86.907,587.253,251.808,867.764,438.925l56.104,37.424L2001.044,2321.843z
		 M2732.586,2472.313c3.912-55.724,11.853-71.222,11.732-22.952h0.003c-0.043,20.455-3.214,42.24-7.426,51.006
		C2730.068,2514.581,2729.761,2512.587,2732.586,2472.313z M2271.181,2458.751c11.441-30.897,18.576-38.081,33.853-34.086
		c12.222,3.196,15.408,11.943,4.349,11.943c-3.773,0-10.625,4.157-15.221,9.239h-0.003c-4.597,5.081-15.421,21.722-24.051,36.98
		C2253.938,2511.423,2254.246,2504.487,2271.181,2458.751z"/>
	<path style="fill:#FFFFFF;" d="M6704.209,2589.805c-185.417-8.498-239.364-22.351-289.543-74.345
		c-41.777-43.291-64.248-53.344-79.135-35.404c-5.576,6.716-8.931,5.028-25.346-12.752c-16.831-18.23-21.518-20.493-42.462-20.493
		c-12.947,0-46.379,4.862-74.291,10.806l-50.749,10.807l-17.03-12.96c-22.864-17.399-41.521-21.689-51.392-11.817
		c-12.518,12.518-26.497,78.302-26.678,125.581c-0.208,53.274,9.413,73.424,43.304,90.708l0.001,0.001
		c34.733,17.713,61.322,7.128,85.529-34.048c12.087-20.567,13.816-28.914,13.816-66.783v-43.279l31.834-8.591
		c17.507-4.724,33.004-6.7,34.431-4.387c1.44,2.313,2.025,29.857,1.319,61.21l-1.276,57.005l16.658,14.889
		c32.018,28.618,46.913,19.018,77.855-50.185c9.085-20.318,18.15-36.941,20.145-36.941c1.994,0,8,4.942,13.343,10.98
		c32.385,36.599,108.224,68.57,193.343,81.507c72.342,10.995,400.311,9.465,502.419-2.343c86.426-9.995,97.732-11.88,118.592-19.768
		c17.076-6.458,18.599-22.742,3.628-38.812c-12.706-13.638-32.075-14.198-122.217-3.526
		C6965.748,2590.426,6824.097,2595.3,6704.209,2589.805z M6126.617,2583.254c-5.412,11.922-10.945,21.678-12.296,21.678
		c-10.324,0-8.515-65.204,2.266-81.656c4.292-6.551,6.033-6.231,12.539,2.295c10.142,13.295,9.346,31.558-2.513,57.683H6126.617z"/>
	<path style="fill:#FFFFFF;" d="M5678.827,2463.811l-14.048-11.051c-28.042-22.057-39.022-15.455-80.952,48.677
		c-27.191,41.589-65.385,83.092-76.466,83.092c-5.113,0-10.014-12.24-15.828-39.53c-4.632-21.742-10.731-46.417-13.55-54.833
		c-2.821-8.416-7.05-29.726-9.393-47.355c-2.345-17.629-7.841-37.508-12.209-44.177c-9.396-14.34-39.463-25.482-56.935-21.096
		c-43.535,10.926-114.593,142.416-114.593,212.051c0,31.817,5.606,43.309,26.361,54.042c31.672,16.378,63.632-0.695,98.446-52.592
		l22.311-33.258l13.014,25.677c31.307,61.783,83.587,66.308,139.953,12.113c12.152-11.685,23.909-21.244,26.126-21.244
		c2.217,0,5.427,8.704,7.126,19.344c4.466,27.932,38.014,57.167,65.6,57.167c15.924,0,32.033-11.878,50.884-37.522l15.539-21.136
		l-2.657,132.618l-2.657,132.62l-26.239,84.161c-82.735,265.366-111,381.861-115.893,477.625
		c-3.65,71.464,2.233,104.156,22.591,125.534h-0.001c10.844,11.389,17.831,14.028,37.151,14.028
		c45.489,0,73.777-32.758,99.112-114.767c25.723-83.266,35.154-177.459,43.662-436.111l5.622-170.873l51.157-168.323
		c28.136-92.578,52.884-170.153,54.992-172.391c2.109-2.236,5.399,23.589,7.308,57.39c6.486,114.781,16.053,170.496,32.014,186.458
		c9.886,9.886,35.527,9.848,39.33-0.057c1.619-4.215,0.729-18.56-1.977-31.88c-12.178-59.967-17.398-444.36-6.936-510.886
		l2.734-17.402l278.878,4.423c153.383,2.433,291.965,4.526,307.958,4.65c36.024,0.28,43.763-5.901,34.717-27.739
		c-3.594-8.679-10.695-18.006-15.78-20.726c-15.108-8.086-141.459-14.177-373.324-17.994
		c-120.006-1.976-219.023-4.995-220.037-6.709c-1.012-1.714,0.626-33.443,3.652-70.509c6.177-75.773,3.333-87.862-24.002-101.997
		c-14.217-7.352-15.714-7.188-23.628,2.584c-9.901,12.23-18.374,50.013-27.106,120.901l-6.284,51.006l-171.518,2.55
		c-94.334,1.404-173.374,4.409-175.641,6.679c-2.265,2.271,0.417,12.546,5.959,22.835c12.993,24.111,15.025,24.419,191.147,28.997
		c96.842,2.518,141.486,5.473,144.22,9.547c12.777,19.05-35.027,230.079-92.617,408.858l-9.858,30.604l-0.977-114.765
		c-0.536-63.122-2.536-120.505-4.44-127.518c-2.024-7.451-10.778-16.433-21.06-21.606c-23.444-11.798-28.285-6.416-40.598,45.133
		c-17.401,72.857-57.941,170.3-70.849,170.3c-2.144,0-2.939-26.014-1.723-57.809L5678.827,2463.811z M5413.071,2474.393
		c-5.374,5.87-18.129,23.869-28.343,40.001c-10.215,16.13-19.678,29.329-21.034,29.329c-3.943,0,11.972-35.482,31.895-71.106
		c17.054-30.49,18.704-32.004,22.819-20.885C5421.755,2460.778,5420.445,2466.341,5413.071,2474.393z M5698.177,3462.348h-0.001
		c-5.762,15.156-14.761,33.098-19.996,39.868l-9.519,12.309l-6.343-11.854c-4.591-8.577-5.609-31.713-3.682-83.719
		c2.837-76.514,7.785-100.44,55.985-270.794l21.648-76.511l1.64,43.357C5741.757,3216.794,5720.332,3404.092,5698.177,3462.348z"/>
	<path style="fill:#FFFFFF;" d="M3810.779,1949.42c-61.833,15.468-146.676,33.225-158.75,33.225
		c-11.103,0,40.388-84.87,164.674-271.425c213.252-320.09,299.314-462.15,371.694-613.549
		c66.733-139.585,81.407-186.41,85.171-271.776l2.766-62.647l-18.69-37.817c-29.499-59.686-72.424-90.406-150.726-107.871
		c-79.389-17.706-220.909,0.821-377.548,49.429c-26.54,8.236-49.699,14.973-51.464,14.973c-1.765,0-5.792-5.674-8.956-12.61
		c-6.843-15.02-30.49-22.85-37.167-12.309c-2.465,3.888-4.503,16.51-4.554,28.051c-0.075,20.336-0.829,21.267-24.307,30.091
		c-66.042,24.819-218.811,108.822-299.666,164.777c-185.756,128.55-339.197,300.607-339.197,380.348
		c0,20.213,10.412,42.906,23.676,51.595c18.59,12.18,27.323,2.668,27.443-29.958c0.063-15.029,4.445-35.714,10.307-48.627
		c34.784-76.67,173.621-211.483,312.441-303.387c91.302-60.446,275.103-156.428,281.067-146.777
		c1.319,2.126,0.308,40.48-2.235,85.23c-7.019,123.446-19.511,367.707-25.813,504.723
		c-8.363,181.826-11.697,1289.076-5.091,1690.886c7.688,467.735,19.782,881.352,26.351,901.307
		c9.894,30.054,42.362,26.256,48.35-5.655c1.778-9.489,0.651-132.833-2.505-274.102c-15.44-690.863-20.835-1619.113-9.476-1630.471
		c3.367-3.366,14.269-6.139,24.229-6.166c19.814-0.049,110.246-18.25,252.741-50.87c102.355-23.431,237.559-47.334,318.795-56.36
		c80.774-8.976,335.523-4.186,397.855,7.481c208.874,39.093,358.694,130.678,430.257,263.016
		c32.109,59.382,44.881,113.913,47.875,204.38c6.438,194.658-39.316,367.28-162.6,613.45
		c-123.066,245.735-339.606,517.175-601.197,753.61c-264.663,239.215-615.858,464.561-900.251,577.652
		c-135.361,53.828-209.799,70.647-316.244,71.457c-74.069,0.564-77.534,0.114-108.553-14.099
		c-60.221-27.592-109.082-96.465-134.611-189.737c-16.582-60.494-16.63-197.588-0.121-271.301
		c34.055-152.052,98.375-283.405,217.817-444.813c29.421-39.76,53.494-76.499,53.494-81.639c0-14.157-24.395-31.445-35.776-25.353
		c-16.835,9.01-60.947,62.822-106.515,129.938c-82.104,120.928-119.547,193.352-158.76,307.075
		c-30.119,87.347-35.594,124.835-35.594,243.641c0,121.117,6.325,154.46,43.986,231.884
		c40.015,82.259,111.71,143.105,195.748,166.125h0.026c45.674,12.51,165.761,7.7,241.352-9.668
		c119.381-27.431,238.133-73.703,401.338-156.38c217.229-110.046,429.218-251.003,632.489-420.558
		c87.926-73.342,253.845-234.151,333.312-323.048c250.1-279.775,420.226-581.231,485.222-859.796
		c52.578-225.329,29.822-418.938-66.344-564.511c-69.646-105.427-191.53-192.667-334.037-239.091
		c-123.699-40.297-288.855-56.46-469.162-45.915C4172.536,1872.66,3993.98,1903.591,3810.779,1949.42z M3647.547,1821.251
		l0.06-111.856c0.044-61.52,3.348-200.225,7.343-308.232c3.994-108.008,9.87-292.781,13.051-410.607
		c3.183-117.827,6.695-218.948,7.809-224.717c2.295-11.896,57.512-32.493,148.942-55.557
		c161.068-40.63,278.426-43.498,347.037-8.481c32.279,16.474,38.996,27.699,41.062,68.604
		c6.815,134.957-110.4,372.326-392.074,793.981h0.015c-38.417,57.51-93.115,138.832-121.548,180.715L3647.547,1821.251z"/>
</g>
</svg>
