<svg xmlns="http://www.w3.org/2000/svg" width="550" height="316.306" viewBox="0 0 550 316.306">
  <g id="JasonBayton_white" transform="translate(-21.076 -37.087)">
    <g id="Group_1" data-name="Group 1" transform="translate(21.076 37.087)">
      <path id="Path_1" data-name="Path 1" d="M422.627,643.529c-.367-.136-3.214-1.921-6.328-3.966-24.049-15.8-59.382-32.09-78.29-36.1-4.815-1.021-16.85-1.019-20.572,0-17.329,4.762-27.671,22.9-29.952,52.519a271.189,271.189,0,0,0,.434,32c2.761,29.044,10.9,57.918,23.229,82.433q18.6,36.983,43.691,49.519a44.4,44.4,0,0,0,16.578,4.682h0a44.251,44.251,0,0,0,12.939-1.613c9.385-3.01,18.347-11.45,23.91-22.515a142.451,142.451,0,0,0,9.185-25.617c4.161-16.708,7.471-42.322,9.553-73.926.7-10.62,2.437-43.224,2.437-45.735,0-.467.165-.849.367-.849a23.563,23.563,0,0,1,3.539,2.734c1.744,1.5,3.8,3.225,4.572,3.825l1.4,1.091-.912,2.837c-1.731,5.383-1.667,8.866.2,10.733,2.421,2.425,5.8.85,8.046-3.755a9.429,9.429,0,0,1,1.47-2.456c.154-.012.605.529,1,1.2a7.373,7.373,0,0,0,5.011,2.818c1.858-.017,4.509-1.613,7.5-4.514,1.645-1.6,3.1-2.791,3.241-2.653.42.42-.23,3.009-.894,3.561a6.658,6.658,0,0,0-1.234,1.7c-.573,1.111-.555,1.245.3,2.156a3.024,3.024,0,0,0,2.52.971c1.37,0,1.841-.251,3.164-1.688a9.8,9.8,0,0,0,1.555-1.966,29.163,29.163,0,0,1,5.02-4.043c.13,0,.236.461.236,1.026,0,4.414,4.868,7.094,8.035,4.424,2.048-1.727,3.286-4.9,3.286-8.429v-3.03l2.042-.439a21.76,21.76,0,0,1,2.57-.439c.4,0,.6,1.458.814,5.885.387,7.977.86,9.1,3.819,9.1,1.579,0,2.355-1.021,4.29-5.643l1.543-3.686,2.285,2.184a14.749,14.749,0,0,0,8.621,4.48,19.652,19.652,0,0,0,9.6.013c3.134-.734,8.81-3.456,10.122-4.856l.936-1-.943-1.006c-1.45-1.547-2.165-1.572-4.932-.173-5.864,2.966-11.174,3.871-15.43,2.632-1.965-.572-2.789-1.142-5.268-3.642a41.73,41.73,0,0,0-4.021-3.674,3.562,3.562,0,0,0-4.689.913l-.819,1.1-.024-1.418c-.034-2.217-1.32-4.638-2.787-5.246-1.073-.445-1.786-.417-4.631.181-2.763.581-3.74.626-5.479.252-2.211-.475-5.123-.239-6.041.489a9.955,9.955,0,0,0-1.491,2.312,7.833,7.833,0,0,1-1.889,2.5c-.514.337-1.976,1.279-3.249,2.094l-2.314,1.482-.879-1.727c-.8-1.567-.837-1.935-.416-3.979.957-4.642.442-6.157-2.275-6.7-1.049-.21-1.474-.051-2.434.91-.995,1-1.2,1.583-1.4,4.062-.314,3.747-1.188,5.386-4.663,8.742-3.825,3.693-4.51,3.614-5.286-.609-.538-2.929-1.047-3.886-2.327-4.373-.922-.351-.956-.444-.38-1.022.818-.821.827-3.765.014-4.928a4.867,4.867,0,0,0-4.533-1.364,6.691,6.691,0,0,0-2.681,2.385l-1.564,2.09-3.692-3.336c-2.031-1.834-4.442-3.937-5.359-4.673l-1.667-1.338-.224-43.62c-.22-42.9-.51-53.592-1.918-70.76-.238-2.9-.682-8.638-.988-12.76a71.591,71.591,0,0,0-1.168-9.473c-.552-1.788-2.378-4.3-3.126-4.3a5.443,5.443,0,0,0-.992,2.127,37.447,37.447,0,0,1-5.148,9.828c-1.942,2.588-4.848,5.135-13.63,11.943-12.354,9.578-17.331,15.923-19.673,25.081-2.713,10.61.273,20.041,6.939,21.911a3.3,3.3,0,0,0,2.844-.061c1.186-.587,1.389-1.21.521-1.6-.3-.132-.9-.415-1.345-.628a8.109,8.109,0,0,1-2.022-2.8c-1.156-2.3-1.213-2.634-1.17-7.271a24.485,24.485,0,0,1,1.117-8.429c2.631-8.737,5.854-12.929,20.549-26.721,6.318-5.929,8.7-9.08,10.476-13.865.5-1.337.958-2.248,1.026-2.025s.423,5.418.79,11.545c.525,8.773.709,21.078.863,57.926.108,25.732.067,49.371-.089,52.53C423.326,643.131,423.219,643.749,422.627,643.529Zm.427,9.014c-.283,9.6-1.38,32.574-2.118,44.356-3.324,53.084-8.507,83.309-17.417,101.56A46.8,46.8,0,0,1,392.9,813.04a27.019,27.019,0,0,1-13,7.2h0c-12.461,2.612-27.563-3.78-41.193-17.434-20.886-20.924-37.8-57.992-44.32-97.107-2.091-12.553-2.489-17.114-2.714-31.084-.251-15.619.147-22.09,1.9-30.786,4.1-20.387,12.282-31.988,25.478-36.116,2.667-.834,3.837-.948,9.7-.947,7.843,0,11.553.684,21.177,3.892,20.709,6.9,46.553,20,68.789,34.857l4.447,2.972Zm57.991,11.95c.31-4.425.94-5.656.93-1.823h0a11.908,11.908,0,0,1-.589,4.051C480.845,667.849,480.821,667.69,481.045,664.492Zm-36.577-1.077c.907-2.454,1.473-3.024,2.684-2.707.969.254,1.221.948.345.948a2.156,2.156,0,0,0-1.207.734h0a23.013,23.013,0,0,0-1.907,2.937C443.1,667.6,443.126,667.047,444.468,663.415Z" transform="translate(-287.194 -508.538)" fill="#fff"/>
      <path id="Path_2" data-name="Path 2" d="M6099.631,2450.439c-14.7-.674-18.975-1.772-22.952-5.893-3.312-3.432-5.094-4.229-6.274-2.807-.441.532-.708.4-2.009-1.011-1.334-1.446-1.706-1.625-3.366-1.625a39.044,39.044,0,0,0-5.889.856l-4.023.857-1.35-1.028c-1.812-1.379-3.291-1.719-4.074-.937-.992.992-2.1,6.207-2.115,9.955-.016,4.223.746,5.821,3.433,7.191h0c2.753,1.4,4.861.565,6.781-2.7.958-1.63,1.095-2.292,1.095-5.294v-3.431l2.524-.681c1.388-.375,2.616-.531,2.729-.348a31.112,31.112,0,0,1,.1,4.852l-.1,4.519,1.32,1.18c2.538,2.269,3.719,1.508,6.172-3.978a11.5,11.5,0,0,1,1.6-2.928,2.907,2.907,0,0,1,1.058.87c2.567,2.9,8.58,5.436,15.327,6.461,5.735.872,31.734.75,39.828-.186,6.851-.792,7.747-.942,9.4-1.567,1.354-.512,1.474-1.8.288-3.077-1.007-1.081-2.542-1.125-9.688-.279A194.908,194.908,0,0,1,6099.631,2450.439Zm-45.787-.52a6.065,6.065,0,0,1-.975,1.719c-.818,0-.675-5.169.18-6.473.341-.52.479-.494.995.182.8,1.054.74,2.5-.2,4.573Z" transform="translate(-5589.949 -2285.159)" fill="#fff"/>
      <path id="Path_3" data-name="Path 3" d="M5316.084,1979.822l-1.114-.876c-2.223-1.748-3.093-1.225-6.417,3.859-2.155,3.3-5.184,6.587-6.062,6.587-.405,0-.794-.97-1.255-3.134-.367-1.724-.851-3.68-1.074-4.347a26.86,26.86,0,0,1-.745-3.754,11.164,11.164,0,0,0-.968-3.5,5.086,5.086,0,0,0-4.513-1.672c-3.452.866-9.084,11.29-9.084,16.81,0,2.522.444,3.433,2.09,4.284,2.51,1.3,5.044-.055,7.8-4.169l1.769-2.636,1.031,2.035c2.482,4.9,6.627,5.257,11.1.96a9.522,9.522,0,0,1,2.071-1.684c.176,0,.43.69.564,1.533a6.059,6.059,0,0,0,5.2,4.532c1.262,0,2.539-.942,4.034-2.974l1.231-1.676-.21,10.513-.21,10.513-2.079,6.672c-6.559,21.036-8.8,30.271-9.188,37.862-.289,5.665.177,8.257,1.791,9.951h0a3.243,3.243,0,0,0,2.946,1.112c3.605,0,5.848-2.6,7.856-9.1,2.039-6.6,2.787-14.068,3.461-34.572l.446-13.545,4.056-13.344c2.229-7.339,4.191-13.488,4.359-13.666s.428,1.87.579,4.549c.514,9.1,1.273,13.516,2.538,14.781.784.784,2.816.781,3.118,0a6.912,6.912,0,0,0-.157-2.527c-.965-4.754-1.379-35.225-.55-40.5l.217-1.379,22.107.351c12.159.193,23.145.359,24.413.369,2.855.022,3.469-.468,2.752-2.2a3.764,3.764,0,0,0-1.251-1.643c-1.2-.641-11.213-1.124-29.594-1.427-9.513-.157-17.362-.4-17.443-.532a51.535,51.535,0,0,1,.29-5.589c.489-6.007.264-6.965-1.9-8.086-1.127-.583-1.246-.57-1.873.205-.785.969-1.457,3.965-2.149,9.584l-.5,4.043-13.6.2c-7.479.111-13.744.349-13.923.529s.033.995.472,1.81c1.03,1.912,1.191,1.936,15.153,2.3,7.677.2,11.216.434,11.433.757,1.013,1.51-2.776,18.239-7.342,32.411l-.781,2.426-.078-9.1c-.042-5-.2-9.552-.351-10.109a3.287,3.287,0,0,0-1.67-1.713c-1.858-.935-2.242-.509-3.218,3.578-1.379,5.776-4.593,13.5-5.616,13.5-.169,0-.232-2.062-.136-4.583Zm-21.067.839a31.316,31.316,0,0,0-2.247,3.171,13.4,13.4,0,0,1-1.667,2.325c-.312,0,.949-2.813,2.528-5.637,1.353-2.417,1.483-2.537,1.81-1.656A1.5,1.5,0,0,1,5295.017,1980.66Zm22.6,78.317h0a15.751,15.751,0,0,1-1.585,3.161l-.754.976-.5-.94c-.364-.68-.445-2.514-.292-6.636.225-6.065.617-7.962,4.438-21.466l1.716-6.065.13,3.437C5321.073,2039.512,5319.375,2054.359,5317.619,2058.977Z" transform="translate(-4887.686 -1824.477)" fill="#fff"/>
      <path id="Path_4" data-name="Path 4" d="M2909.05,717.276c-4.9,1.229-11.627,2.639-12.584,2.639-.88,0,3.2-6.74,13.054-21.556,16.9-25.421,23.727-36.7,29.465-48.727,5.29-11.086,6.453-14.8,6.751-21.584l.22-4.975-1.482-3c-2.339-4.74-5.741-7.18-11.948-8.567-6.293-1.406-17.512.065-29.929,3.926-2.1.654-3.94,1.189-4.08,1.189s-.459-.451-.71-1c-.542-1.193-2.417-1.815-2.947-.978a5.783,5.783,0,0,0-.361,2.228c-.006,1.615-.066,1.689-1.927,2.39-5.235,1.971-17.346,8.643-23.755,13.086-14.725,10.209-26.889,23.874-26.889,30.207a5.294,5.294,0,0,0,1.877,4.1c1.473.967,2.166.212,2.175-2.379a10.813,10.813,0,0,1,.817-3.862c2.757-6.089,13.763-16.8,24.768-24.095,7.238-4.8,21.808-12.423,22.281-11.657a60.388,60.388,0,0,1-.177,6.769c-.557,9.8-1.547,29.2-2.046,40.085-.663,14.441-.927,102.377-.4,134.289.609,37.147,1.568,70,2.089,71.581.785,2.387,3.358,2.085,3.833-.449.141-.754.052-10.55-.2-21.769-1.224-54.868-1.652-128.589-.751-129.491a3.373,3.373,0,0,1,1.92-.49c1.571,0,8.74-1.449,20.036-4.04,8.114-1.861,18.832-3.759,25.271-4.476,6.4-.713,26.6-.332,31.539.594,16.558,3.1,28.434,10.378,34.107,20.889,2.545,4.716,3.558,9.047,3.8,16.232.51,15.46-3.117,29.169-12.89,48.72-9.756,19.516-26.921,41.074-47.658,59.851-20.98,19-48.82,36.9-71.365,45.877-10.73,4.275-16.631,5.611-25.069,5.675-5.872.045-6.146.009-8.605-1.12-4.774-2.191-8.647-7.661-10.671-15.069-1.314-4.8-1.318-15.692-.009-21.547,2.7-12.076,7.8-22.508,17.267-35.327,2.332-3.158,4.241-6.075,4.241-6.484,0-1.124-1.934-2.5-2.836-2.013-1.334.716-4.831,4.989-8.444,10.32-6.509,9.6-9.477,15.356-12.585,24.388-2.387,6.937-2.822,9.914-2.822,19.35,0,9.619.5,12.267,3.487,18.416a24.751,24.751,0,0,0,15.517,13.193h0c3.621.994,13.14.612,19.133-.768,9.463-2.178,18.877-5.853,31.815-12.42a266.827,266.827,0,0,0,50.139-33.4,334.269,334.269,0,0,0,26.422-25.656c19.826-22.219,33.312-46.161,38.465-68.284,4.168-17.9,2.364-33.272-5.259-44.833-5.521-8.373-15.183-15.3-26.479-18.988-9.806-3.2-22.9-4.484-37.192-3.647C2937.727,711.18,2923.573,713.636,2909.05,717.276ZM2896.111,707.1l0-8.883c0-4.886.265-15.9.582-24.48s.782-23.252,1.034-32.61.531-17.389.619-17.847c.182-.945,4.559-2.581,11.807-4.412,12.768-3.227,22.071-3.455,27.51-.674,2.559,1.308,3.091,2.2,3.255,5.449.541,10.718-8.751,29.57-31.08,63.057h0c-3.045,4.567-7.382,11.026-9.635,14.352Z" transform="translate(-2629.175 -602.857)" fill="#fff"/>
    </g>
  </g>
</svg>
