<svg xmlns="http://www.w3.org/2000/svg" width="550.02" height="316.317" viewBox="0 0 550.02 316.317">
  <g id="JasonBayton_white" transform="translate(-21.076 -37.087)">
    <g id="Group_1" data-name="Group 1" transform="translate(21.076 37.087)">
      <path id="Path_1" data-name="Path 1" d="M422.877,643.533c-.367-.136-3.22-1.921-6.339-3.966-24.094-15.8-59.491-32.091-78.434-36.1-4.824-1.021-16.881-1.019-20.61,0-17.361,4.763-27.722,22.9-30.007,52.521a270.716,270.716,0,0,0,.434,32c2.766,29.045,10.918,57.921,23.272,82.436q18.638,36.984,43.772,49.52a44.55,44.55,0,0,0,16.609,4.682h0a44.41,44.41,0,0,0,12.963-1.613c9.4-3.01,18.381-11.45,23.954-22.516a142.29,142.29,0,0,0,9.2-25.617c4.169-16.708,7.485-42.323,9.571-73.929.7-10.62,2.441-43.225,2.441-45.736,0-.467.166-.849.368-.849a23.606,23.606,0,0,1,3.545,2.734c1.747,1.5,3.809,3.225,4.58,3.826l1.4,1.091-.914,2.838c-1.734,5.383-1.67,8.866.2,10.733,2.426,2.426,5.807.85,8.06-3.755a9.428,9.428,0,0,1,1.473-2.457c.155-.012.606.529,1,1.2a7.389,7.389,0,0,0,5.021,2.818c1.862-.017,4.518-1.613,7.509-4.514,1.647-1.6,3.109-2.791,3.247-2.653.42.42-.231,3.009-.9,3.561a6.656,6.656,0,0,0-1.236,1.7c-.574,1.111-.556,1.245.3,2.156a3.032,3.032,0,0,0,2.524.971c1.372,0,1.844-.251,3.17-1.688a9.8,9.8,0,0,0,1.558-1.966,29.21,29.21,0,0,1,5.029-4.043c.13,0,.237.461.237,1.026,0,4.414,4.877,7.094,8.05,4.424,2.052-1.727,3.292-4.9,3.292-8.429v-3.03l2.045-.439a21.824,21.824,0,0,1,2.575-.439c.4,0,.6,1.458.815,5.885.388,7.977.861,9.1,3.826,9.1,1.582,0,2.359-1.021,4.3-5.643l1.546-3.686,2.289,2.184a14.784,14.784,0,0,0,8.636,4.48,19.723,19.723,0,0,0,9.618.013c3.14-.734,8.826-3.457,10.141-4.856l.938-1-.945-1.006c-1.453-1.547-2.169-1.572-4.941-.173-5.875,2.966-11.195,3.872-15.458,2.632-1.968-.572-2.794-1.142-5.278-3.642a41.778,41.778,0,0,0-4.029-3.674,3.573,3.573,0,0,0-4.7.913l-.821,1.1-.024-1.418c-.034-2.217-1.322-4.638-2.792-5.247-1.075-.445-1.789-.417-4.64.181-2.768.581-3.747.626-5.489.252-2.215-.475-5.132-.239-6.053.489a9.954,9.954,0,0,0-1.494,2.312,7.835,7.835,0,0,1-1.893,2.5c-.515.337-1.98,1.279-3.255,2.094l-2.318,1.482-.881-1.727c-.8-1.567-.838-1.935-.416-3.979.959-4.642.443-6.158-2.28-6.7-1.051-.21-1.477-.051-2.438.91-1,1-1.2,1.583-1.408,4.062-.314,3.747-1.19,5.386-4.672,8.742-3.832,3.693-4.518,3.615-5.3-.609-.539-2.929-1.049-3.886-2.332-4.373-.923-.351-.958-.445-.38-1.022.819-.821.829-3.765.014-4.928a4.882,4.882,0,0,0-4.541-1.364,6.7,6.7,0,0,0-2.686,2.385l-1.567,2.09-3.7-3.336c-2.034-1.835-4.451-3.938-5.369-4.673l-1.67-1.338-.224-43.622c-.22-42.9-.511-53.594-1.921-70.763-.238-2.9-.684-8.638-.99-12.76a71.484,71.484,0,0,0-1.17-9.473c-.553-1.788-2.383-4.3-3.132-4.3a5.44,5.44,0,0,0-.994,2.127,37.426,37.426,0,0,1-5.158,9.828c-1.946,2.588-4.857,5.135-13.655,11.943-12.377,9.579-17.363,15.924-19.709,25.082-2.718,10.611.274,20.042,6.951,21.912a3.31,3.31,0,0,0,2.849-.061c1.188-.587,1.392-1.21.521-1.6-.3-.132-.9-.415-1.348-.628a8.11,8.11,0,0,1-2.026-2.8c-1.158-2.3-1.216-2.634-1.172-7.271a24.445,24.445,0,0,1,1.119-8.429c2.636-8.737,5.865-12.929,20.587-26.722,6.329-5.93,8.715-9.081,10.5-13.865.5-1.337.96-2.248,1.028-2.026s.424,5.418.792,11.545c.526,8.774.71,21.078.865,57.928.108,25.733.068,49.373-.09,52.532C423.578,643.136,423.47,643.753,422.877,643.533Zm.427,9.014c-.284,9.6-1.383,32.575-2.122,44.357-3.33,53.086-8.523,83.311-17.449,101.564A46.8,46.8,0,0,1,393.1,813.051a27.083,27.083,0,0,1-13.02,7.2h0c-12.484,2.612-27.614-3.78-41.269-17.435-20.925-20.925-37.874-57.994-44.4-97.11-2.095-12.553-2.494-17.115-2.719-31.085-.252-15.62.147-22.091,1.9-30.787,4.106-20.388,12.305-31.989,25.525-36.117,2.672-.834,3.845-.948,9.722-.947,7.858,0,11.574.684,21.216,3.892,20.747,6.9,46.639,20,68.916,34.859l4.456,2.972Zm58.1,11.95c.311-4.426.941-5.656.932-1.823h0a11.889,11.889,0,0,1-.59,4.051C481.2,667.854,481.178,667.7,481.4,664.5Zm-36.644-1.077c.909-2.454,1.475-3.024,2.689-2.707.971.254,1.224.948.345.948a2.16,2.16,0,0,0-1.209.734h0a23.006,23.006,0,0,0-1.91,2.937C443.389,667.6,443.414,667.053,444.758,663.42Z" transform="translate(-287.194 -508.538)"/>
      <path id="Path_2" data-name="Path 2" d="M6099.728,2450.461c-14.726-.675-19.01-1.775-22.994-5.9-3.318-3.438-5.1-4.237-6.286-2.812-.442.533-.709.4-2.013-1.013-1.336-1.448-1.708-1.627-3.372-1.627a39.13,39.13,0,0,0-5.9.858l-4.031.859-1.353-1.03c-1.815-1.382-3.3-1.722-4.081-.938-.994.994-2.1,6.219-2.119,9.973-.016,4.231.748,5.831,3.439,7.2h0c2.758,1.407,4.871.566,6.793-2.7.959-1.633,1.1-2.3,1.1-5.3v-3.437l2.528-.682c1.391-.375,2.621-.532,2.734-.349a31.261,31.261,0,0,1,.1,4.861l-.1,4.527,1.322,1.182c2.543,2.273,3.726,1.511,6.184-3.986a11.5,11.5,0,0,1,1.6-2.934,2.918,2.918,0,0,1,1.06.872c2.572,2.907,8.6,5.446,15.355,6.473,5.746.874,31.792.752,39.9-.186,6.864-.794,7.762-.943,9.418-1.57,1.356-.513,1.477-1.806.288-3.082-1.009-1.083-2.547-1.128-9.706-.28A195.242,195.242,0,0,1,6099.728,2450.461Zm-45.871-.52a6.072,6.072,0,0,1-.977,1.722c-.819,0-.676-5.178.18-6.485.342-.521.479-.5,1,.182.806,1.056.741,2.506-.2,4.581Z" transform="translate(-5590.099 -2285.171)"/>
      <path id="Path_3" data-name="Path 3" d="M5316.143,1979.9l-1.116-.878c-2.227-1.752-3.1-1.228-6.429,3.866-2.159,3.3-5.193,6.6-6.073,6.6-.406,0-.8-.972-1.257-3.139-.368-1.727-.853-3.686-1.076-4.354a26.863,26.863,0,0,1-.746-3.761,11.21,11.21,0,0,0-.969-3.509,5.1,5.1,0,0,0-4.522-1.675c-3.457.868-9.1,11.31-9.1,16.841,0,2.527.445,3.439,2.094,4.292,2.515,1.3,5.053-.055,7.818-4.177l1.772-2.641,1.033,2.039c2.486,4.907,6.639,5.266,11.115.962a9.559,9.559,0,0,1,2.075-1.687c.176,0,.431.692.565,1.536a6.07,6.07,0,0,0,5.21,4.54c1.264,0,2.544-.943,4.041-2.98l1.233-1.679-.211,10.532-.21,10.532-2.083,6.684c-6.571,21.075-8.816,30.327-9.205,37.932-.289,5.675.178,8.271,1.794,9.969h0a3.249,3.249,0,0,0,2.951,1.114c3.612,0,5.859-2.6,7.871-9.115,2.042-6.613,2.792-14.094,3.468-34.635l.446-13.57,4.063-13.368c2.234-7.352,4.2-13.513,4.367-13.691s.429,1.873.58,4.558c.515,9.116,1.275,13.54,2.542,14.808.785.785,2.821.782,3.124,0a6.94,6.94,0,0,0-.157-2.532c-.967-4.763-1.382-35.29-.552-40.574l.218-1.382,22.148.351c12.182.193,23.188.36,24.458.37,2.861.022,3.475-.469,2.757-2.2a3.777,3.777,0,0,0-1.253-1.646c-1.2-.642-11.234-1.126-29.649-1.429-9.531-.157-17.394-.4-17.475-.533a51.58,51.58,0,0,1,.29-5.6c.49-6.018.265-6.978-1.906-8.1-1.129-.584-1.248-.571-1.876.205-.786.971-1.459,3.972-2.153,9.6l-.5,4.051-13.621.2c-7.492.111-13.77.35-13.95.53s.033,1,.474,1.813c1.032,1.915,1.193,1.939,15.18,2.3,7.691.2,11.237.434,11.455.758,1.014,1.513-2.782,18.272-7.356,32.471l-.782,2.43-.078-9.114c-.042-5.013-.2-9.57-.353-10.127a3.293,3.293,0,0,0-1.673-1.716c-1.862-.937-2.247-.51-3.224,3.584-1.382,5.786-4.6,13.525-5.626,13.525-.17,0-.233-2.066-.137-4.591Zm-21.107.84a31.408,31.408,0,0,0-2.25,3.177,13.449,13.449,0,0,1-1.67,2.329c-.313,0,.951-2.818,2.533-5.647,1.354-2.422,1.485-2.542,1.813-1.659A1.5,1.5,0,0,1,5295.036,1980.739Zm22.644,78.462h0a15.808,15.808,0,0,1-1.588,3.166l-.756.978-.5-.942c-.365-.681-.445-2.518-.292-6.648.226-6.077.619-7.977,4.446-21.506l1.72-6.076.13,3.443C5321.14,2039.7,5319.438,2054.574,5317.679,2059.2Z" transform="translate(-4887.948 -1824.614)"/>
      <path id="Path_4" data-name="Path 4" d="M2909.193,717.275c-4.91,1.228-11.648,2.639-12.607,2.639-.882,0,3.207-6.74,13.078-21.556,16.936-25.421,23.771-36.7,29.519-48.727,5.3-11.086,6.465-14.8,6.764-21.584l.22-4.975-1.484-3c-2.343-4.74-5.752-7.18-11.97-8.567-6.3-1.406-17.544.065-29.984,3.926-2.108.654-3.947,1.189-4.087,1.189s-.46-.451-.711-1c-.544-1.193-2.422-1.815-2.952-.977a5.771,5.771,0,0,0-.361,2.228c-.006,1.615-.066,1.689-1.93,2.39-5.245,1.971-17.378,8.642-23.8,13.086-14.752,10.209-26.938,23.874-26.938,30.207a5.291,5.291,0,0,0,1.88,4.1c1.476.967,2.17.212,2.179-2.379a10.794,10.794,0,0,1,.819-3.862c2.762-6.089,13.788-16.8,24.813-24.094,7.251-4.8,21.848-12.423,22.322-11.657a60.184,60.184,0,0,1-.177,6.769c-.557,9.8-1.549,29.2-2.05,40.084-.664,14.44-.929,102.376-.4,134.287.61,37.147,1.571,70,2.093,71.58.786,2.387,3.364,2.085,3.84-.449.141-.754.052-10.549-.2-21.769-1.226-54.867-1.655-128.587-.753-129.489a3.386,3.386,0,0,1,1.924-.49c1.574,0,8.755-1.449,20.073-4.04,8.128-1.861,18.866-3.759,25.318-4.476,6.415-.713,26.647-.333,31.6.594,16.589,3.1,28.487,10.378,34.17,20.888,2.55,4.716,3.564,9.047,3.8,16.232.511,15.459-3.123,29.169-12.914,48.719-9.773,19.516-26.971,41.073-47.746,59.85-21.019,19-48.91,36.895-71.5,45.876-10.75,4.275-16.662,5.611-25.116,5.675-5.883.045-6.158.009-8.621-1.12-4.783-2.191-8.663-7.661-10.691-15.068-1.317-4.8-1.321-15.692-.01-21.546,2.705-12.076,7.813-22.508,17.3-35.326,2.337-3.158,4.249-6.075,4.249-6.484,0-1.124-1.938-2.5-2.842-2.013-1.337.716-4.84,4.989-8.459,10.319-6.521,9.6-9.494,15.356-12.608,24.387-2.392,6.937-2.827,9.914-2.827,19.349,0,9.619.5,12.267,3.494,18.416a24.784,24.784,0,0,0,15.545,13.193h0c3.627.994,13.165.612,19.168-.768,9.481-2.179,18.912-5.853,31.873-12.419a267.355,267.355,0,0,0,50.231-33.4,334.606,334.606,0,0,0,26.471-25.656c19.863-22.219,33.374-46.16,38.536-68.283,4.176-17.9,2.368-33.271-5.269-44.832-5.531-8.373-15.211-15.3-26.529-18.988-9.824-3.2-22.94-4.484-37.26-3.646C2937.924,711.179,2923.743,713.635,2909.193,717.275ZM2896.23,707.1l0-8.883c0-4.886.266-15.9.583-24.479s.784-23.252,1.036-32.61.532-17.389.62-17.847c.182-.945,4.568-2.581,11.829-4.412,12.792-3.227,22.112-3.455,27.561-.674,2.563,1.308,3.1,2.2,3.261,5.448.542,10.718-8.768,29.569-31.137,63.057h0c-3.051,4.567-7.4,11.026-9.653,14.352Z" transform="translate(-2629.356 -602.842)"/>
    </g>
  </g>
</svg>
