<svg width="263" height="40" viewBox="0 0 263 40" fill="none" xmlns="http://www.w3.org/2000/svg">
<g clip-path="url(#clip0_1882_93)">
<path d="M112.636 36.9735L101.135 4.99368C100.984 4.53971 100.782 3.98485 100.782 3.43C100.782 2.06808 101.942 0.706169 103.657 0.706169C105.12 0.706169 106.078 1.66456 106.532 3.02647L116.066 30.6179L125.65 2.97603C126.104 1.66456 126.961 0.706169 128.424 0.706169H128.726C130.29 0.706169 131.198 1.66456 131.652 2.97603L141.186 30.6179L150.87 2.92559C151.223 1.76543 152.03 0.706169 153.594 0.706169C155.208 0.706169 156.368 1.9672 156.368 3.32912C156.368 3.83353 156.167 4.43883 156.015 4.8928L144.464 36.9735C143.859 38.6381 142.699 39.546 141.387 39.546H141.186C139.723 39.546 138.613 38.6885 138.109 36.9735L128.676 9.78561L119.143 36.9735C118.638 38.6381 117.529 39.546 116.066 39.546H115.914C114.401 39.4956 113.191 38.6381 112.636 36.9735Z" fill="#AAAAAA"/>
<path d="M196.368 3.53089C196.368 1.9672 197.629 0.655724 199.143 0.655724C200.757 0.655724 202.018 1.91676 202.018 3.53089V10.0378C204.792 3.73265 210.996 0.756612 215.082 0.756612C216.797 0.756612 217.856 2.01765 217.856 3.63178C217.856 5.19546 216.848 6.25472 215.334 6.50692C208.02 7.36443 201.967 12.913 201.967 23.8083V36.6709C201.967 38.2345 200.807 39.546 199.193 39.546C197.579 39.546 196.318 38.285 196.318 36.6709L196.368 3.53089Z" fill="#AAAAAA"/>
<path d="M236.066 39.8991C225.877 39.8991 217.554 31.9798 217.554 20.3783V20.227C217.554 9.43252 225.12 0.706169 235.36 0.706169C246.356 0.706169 252.61 9.78561 252.61 19.7226C252.61 21.2358 251.4 22.3455 250.038 22.3455H223.203C224.01 30.4666 229.66 35.0567 236.267 35.0567C240.858 35.0567 244.237 33.2408 246.961 30.7188C247.415 30.3657 247.919 30.063 248.525 30.063C249.887 30.063 250.946 31.1727 250.946 32.4842C250.946 33.14 250.643 33.7957 250.088 34.3001C246.557 37.6797 242.421 39.8991 236.066 39.8991ZM247.062 18.2093C246.507 11.3997 242.623 5.44766 235.208 5.44766C228.752 5.44766 223.859 10.8953 223.153 18.2093H247.062Z" fill="#AAAAAA"/>
<path d="M156.52 28.1967V28.0454C156.52 20.0757 163.077 15.8386 172.661 15.8386C177.503 15.8386 180.933 16.4943 184.313 17.4527V16.1412C184.313 9.33165 180.126 5.85119 173.064 5.85119C169.281 5.85119 167.062 6.35561 164.288 7.5662C163.934 7.71752 163.581 7.76796 163.279 7.76796C161.967 7.76796 160.807 6.65825 160.807 5.34678C160.807 4.18662 161.311 3.48045 162.371 3.02648C166.103 1.41235 168.878 0.857498 173.72 0.857498C179.067 0.857498 183.153 2.21942 185.927 5.04413C188.499 7.61664 189.811 11.2484 189.811 16.0908V36.9735C189.811 38.5876 188.651 39.7478 187.087 39.7478C185.473 39.7478 184.414 38.5876 184.414 37.1248V33.5435C181.791 36.9735 177.402 40.0504 170.744 40.0504C163.632 40 156.52 35.9647 156.52 28.1967ZM184.363 25.2711V21.6393C181.589 20.8323 177.856 20.0252 173.266 20.0252C166.204 20.0252 162.219 23.1021 162.219 27.8436V27.9949C162.219 32.7364 166.608 35.5107 171.702 35.5107C178.663 35.5107 184.363 31.2736 184.363 25.2711Z" fill="#AAAAAA"/>
<path d="M10.3404 3.17766C9.07937 0.453828 6.05288 -0.756774 3.17772 0.50426C0.302563 1.76529 -0.756712 4.94311 0.554764 7.66694L12.5598 33.7451C14.4261 37.8309 16.4438 39.9494 20.1765 39.9494C24.1613 39.9494 25.9268 37.6291 27.7931 33.7451C27.7931 33.7451 38.2345 10.9456 38.3858 10.6934C38.4867 10.4412 38.8398 9.73504 39.899 9.73504C40.807 9.73504 41.5636 10.4412 41.5636 11.3996V33.6947C41.5636 37.1247 43.4804 39.9494 47.1122 39.9494C50.7944 39.9494 52.7616 37.1247 52.7616 33.6947V15.4349C52.7616 11.904 55.2837 9.63415 58.7137 9.63415C62.1437 9.63415 64.4135 12.0049 64.4135 15.4349V33.6947C64.4135 37.1247 66.3303 39.9494 69.9621 39.9494C73.6443 39.9494 75.6115 37.1247 75.6115 33.6947V15.4349C75.6115 11.904 78.1336 9.63415 81.5636 9.63415C84.9936 9.63415 87.2635 12.0049 87.2635 15.4349V33.6947C87.2635 37.1247 89.1802 39.9494 92.812 39.9494C96.4942 39.9494 98.4614 37.1247 98.4614 33.6947V12.9128C98.4614 5.29619 92.3076 -0.0505829 84.9432 -0.0505829C77.5787 -0.0505829 72.9381 5.04398 72.9381 5.04398C70.4665 1.86618 67.0869 -0.0505829 61.387 -0.0505829C55.3341 -0.0505829 50.0377 5.04398 50.0377 5.04398C47.5661 1.86618 43.3795 -0.0505829 39.9495 -0.0505829C34.6027 -0.0505829 30.3656 2.32016 27.7427 8.2218L20.0756 26.2798L10.3404 3.17766Z" fill="#AAAAAA"/>
<path d="M253.064 5.4981C253.064 2.92559 255.132 0.756615 257.755 0.756615C260.378 0.756615 262.446 2.87515 262.446 5.44765C262.446 8.02016 260.378 10.1387 257.755 10.1387C255.082 10.1387 253.064 8.02017 253.064 5.4981ZM261.488 5.44765C261.488 3.32912 259.874 1.61411 257.705 1.61411C255.586 1.61411 253.922 3.37956 253.922 5.44765C253.922 7.51575 255.536 9.2812 257.705 9.2812C259.874 9.2812 261.488 7.51575 261.488 5.44765Z" fill="#AAAAAA"/>
<path d="M255.99 3.53089C255.99 3.22824 256.192 3.02647 256.494 3.02647H258.058C258.663 3.02647 259.117 3.17779 259.37 3.48044C259.622 3.73265 259.773 4.08574 259.773 4.48927C259.773 5.19545 259.42 5.64943 258.865 5.85119L259.571 6.70869C259.672 6.80957 259.723 6.9609 259.723 7.11223C259.723 7.36443 259.47 7.5662 259.269 7.5662C259.067 7.5662 258.916 7.46531 258.764 7.31399L257.806 6.1034H256.999V7.11223C256.999 7.41487 256.797 7.61664 256.494 7.61664C256.192 7.61664 255.99 7.41487 255.99 7.11223V3.53089ZM258.008 5.24589C258.512 5.24589 258.764 4.99369 258.764 4.59016C258.764 4.18663 258.462 3.93441 258.008 3.93441H256.999V5.24589H258.008Z" fill="#AAAAAA"/>
</g>
<defs>
<clipPath id="clip0_1882_93">
<rect width="262.396" height="40" fill="white"/>
</clipPath>
</defs>
</svg>
