<svg xmlns="http://www.w3.org/2000/svg" xmlns:xlink="http://www.w3.org/1999/xlink" width="347" height="347" viewBox="0 0 347 347"><defs><clipPath id="b"><rect width="347" height="347"/></clipPath></defs><g id="a" clip-path="url(#b)"><rect width="347" height="347" fill="#fff"/><g transform="translate(-27 -453)"><g transform="translate(-93 189)"><g transform="translate(120 264)" fill="#fff" stroke="#ff4500" stroke-width="10"><rect width="347" height="347" stroke="none"/><rect x="5" y="5" width="337" height="337" fill="none"/></g><g transform="translate(0.65 0.1)"><g transform="translate(139.7 263.5)"><g transform="translate(-0.35 0.4)"><text transform="translate(0 114)" fill="#00284c" font-size="121" font-family="Raleway-Medium, Raleway" font-weight="500" letter-spacing="0.277em"><tspan x="0" y="0">BAY</tspan></text></g><text transform="translate(8.15 248.4)" fill="#00284c" font-size="121" font-family="Raleway-Medium, Raleway" font-weight="500" letter-spacing="0.178em"><tspan x="0" y="0">TON</tspan></text></g><path d="M.45.3H333.376V62.258H.45Z" transform="translate(125.658 539.6)" fill="#ff4500"/><g transform="translate(150.35 539.9)" fill="#ff4500" stroke="#ff4500" stroke-width="1"><rect width="70" height="41" stroke="none"/><rect x="0.5" y="0.5" width="69" height="40" fill="none"/></g></g></g><g transform="translate(-1474 -386)"><g transform="translate(1627 1006.5)" fill="#fff" stroke="#0c274b" stroke-width="11"><circle cx="40.5" cy="40.5" r="40.5" stroke="none"/><circle cx="40.5" cy="40.5" r="35" fill="none"/></g><rect width="97" height="57" transform="translate(1620 995)" fill="#fff"/><path d="M59.45,33.457a3.314,3.314,0,1,1,3.373-3.314,3.344,3.344,0,0,1-3.373,3.314m-37.281,0a3.314,3.314,0,1,1,3.373-3.314,3.344,3.344,0,0,1-3.373,3.314M60.66,13.5,67.4,2.03A1.365,1.365,0,0,0,66.888.148a1.416,1.416,0,0,0-1.916.5L58.146,12.264a43.069,43.069,0,0,0-34.673,0L16.648.651a1.416,1.416,0,0,0-1.916-.5,1.365,1.365,0,0,0-.514,1.882L20.96,13.5A39.065,39.065,0,0,0,.31,44.795h81A39.069,39.069,0,0,0,60.66,13.5" transform="translate(1626.69 1000.235)" fill="#0c274b"/></g></g></g></svg>