<svg width="60" height="60" viewBox="0 0 512 512" fill="none" xmlns="http://www.w3.org/2000/svg">
    <g clip-path="url(#clip0_701_93)">
        <path d="M180.186 210.223C180.186 214.586 179.075 218.394 176.854 221.647C174.632 224.9 171.618 227.438 167.81 229.263C164.081 231.088 159.956 232 155.434 232H115.331V147.51H157.338C161.304 147.51 164.716 148.581 167.572 150.723C170.507 152.786 172.728 155.483 174.236 158.815C175.822 162.068 176.616 165.479 176.616 169.049C176.616 173.174 175.545 177.062 173.403 180.711C171.34 184.281 168.365 186.939 164.478 188.684C169.317 190.112 173.125 192.77 175.902 196.657C178.758 200.465 180.186 204.987 180.186 210.223ZM169.357 208.319C169.357 205.701 168.762 203.281 167.572 201.06C166.461 198.839 164.914 197.054 162.931 195.705C161.027 194.356 158.805 193.682 156.267 193.682H126.041V222.718H155.434C158.052 222.718 160.392 222.044 162.455 220.695C164.597 219.346 166.263 217.601 167.453 215.459C168.722 213.238 169.357 210.858 169.357 208.319ZM126.041 156.792V184.995H152.935C155.473 184.995 157.695 184.36 159.599 183.091C161.582 181.822 163.129 180.116 164.24 177.974C165.43 175.832 166.025 173.492 166.025 170.953C166.025 168.256 165.469 165.876 164.359 163.813C163.327 161.671 161.86 159.965 159.956 158.696C158.131 157.427 156.029 156.792 153.649 156.792H126.041ZM251.258 147.51H260.302L294.812 232H283.388L273.392 207.248H237.93L228.053 232H216.629L251.258 147.51ZM271.012 198.918L255.78 159.886L240.072 198.918H271.012ZM332.135 147.51L357.72 191.54L383.543 147.51H395.205L363.075 201.179V232H352.365V200.941L320.354 147.51H332.135Z" fill="var(--text)"/>
        <path d="M184.043 288.03H154.888V363H144.178V288.03H115.023V278.51H184.043V288.03Z" fill="var(--text)"/>
        <path d="M334.825 298.264V363H324.115V278.51H333.159L384.805 344.555V278.629H395.515V363H385.757L334.825 298.264Z" fill="var(--text)"/>
        <path fill-rule="evenodd" clip-rule="evenodd" d="M287.514 340.777C288.759 338.106 289.634 335.317 290.127 332.473C290.644 329.48 288.135 327 285.097 327V327C282.06 327 279.66 329.496 278.942 332.448C278.569 333.984 278.037 335.491 277.352 336.95C275.869 340.104 273.696 342.97 270.957 345.385C268.218 347.799 264.966 349.714 261.386 351.021C257.807 352.327 253.971 353 250.097 353C246.223 353 242.387 352.327 238.808 351.021C235.229 349.714 231.977 347.799 229.238 345.385C226.498 342.97 224.325 340.104 222.843 336.95C222.157 335.491 221.626 333.984 221.252 332.448C220.535 329.496 218.135 327 215.097 327V327C212.06 327 209.55 329.48 210.068 332.473C210.56 335.317 211.436 338.106 212.68 340.777C214.716 345.144 217.699 349.113 221.46 352.456C225.22 355.799 229.685 358.45 234.599 360.26C239.512 362.069 244.779 363 250.097 363C255.416 363 260.682 362.069 265.596 360.26C270.51 358.45 274.974 355.799 278.735 352.456C282.496 349.113 285.479 345.144 287.514 340.777Z" fill="var(--text)"/>
        <rect width="3" height="16.5707" rx="1.5" transform="matrix(-0.866025 -0.5 -0.5 0.866025 277.481 275.5)" fill="#FF4500"/>
        <rect x="222.597" y="275.5" width="3" height="16.5707" rx="1.5" transform="rotate(-30 222.597 275.5)" fill="#FF4500"/>
        <path fill-rule="evenodd" clip-rule="evenodd" d="M287.514 306.223C288.759 308.894 289.634 311.683 290.127 314.527C290.644 317.52 288.135 320 285.097 320V320C282.06 320 279.66 317.504 278.942 314.552C278.569 313.016 278.037 311.509 277.352 310.05C275.869 306.896 273.696 304.03 270.957 301.615C268.218 299.201 264.966 297.286 261.386 295.979C257.807 294.673 253.971 294 250.097 294C246.223 294 242.387 294.673 238.808 295.979C235.229 297.286 231.977 299.201 229.238 301.615C226.498 304.03 224.325 306.896 222.843 310.05C222.157 311.509 221.626 313.016 221.252 314.552C220.535 317.504 218.135 320 215.097 320V320C212.06 320 209.55 317.52 210.068 314.527C210.56 311.683 211.436 308.894 212.68 306.223C214.716 301.856 217.699 297.887 221.46 294.544C225.22 291.201 229.685 288.55 234.599 286.74C239.512 284.931 244.779 284 250.097 284C255.416 284 260.682 284.931 265.596 286.74C270.51 288.55 274.974 291.201 278.735 294.544C282.496 297.887 285.479 301.856 287.514 306.223Z" fill="#FF4500"/>
        <path fill-rule="evenodd" clip-rule="evenodd" d="M236.507 311.318C233.243 311.318 230.597 313.964 230.597 317.227V330.818C230.597 334.082 233.243 336.727 236.507 336.727H250.688H263.688C266.952 336.727 269.597 334.082 269.597 330.818V317.227C269.597 313.964 266.952 311.318 263.688 311.318H236.507ZM250.097 328.159C252.382 328.159 254.234 326.307 254.234 324.023C254.234 321.738 252.382 319.886 250.097 319.886C247.813 319.886 245.961 321.738 245.961 324.023C245.961 326.307 247.813 328.159 250.097 328.159Z" fill="var(--text)"/>
        <rect x="244.982" y="307.385" width="9.93455" height="8.16182" rx="1.865" stroke="var(--text)" stroke-width="2.77"/>
        <rect x="60" y="60" width="392" height="392" rx="84" stroke="#FF4500" stroke-width="22"/>
        <circle cx="256" cy="256" r="244" stroke="#FF4500" stroke-width="24"/>
        <rect x="142" y="23" width="228" height="41" rx="18" fill="#FF4500"/>
        <rect x="142" y="447" width="228" height="41" rx="18" fill="#FF4500"/>
        <rect x="489" y="142" width="228" height="41" rx="18" transform="rotate(90 489 142)" fill="#FF4500"/>
        <rect x="63" y="142" width="228" height="41" rx="18" transform="rotate(90 63 142)" fill="#FF4500"/>
    </g>
    <defs>
        <clipPath id="clip0_701_93">
            <rect width="512" height="512" />
        </clipPath>
    </defs>
</svg>
