<svg width="635" height="142" viewBox="0 0 635 142" fill="none" xmlns="http://www.w3.org/2000/svg">
<g clip-path="url(#clip0_1_245)">
<path d="M635 0H0V142H635V0Z" fill="white"/>
<path d="M635 0H0V142H635V0Z" fill="#00284C"/>
<path d="M630 5H5V137H630V5Z" stroke="#FF4500" stroke-width="10"/>
<path d="M97.23 91.857C97.23 95.1643 96.5443 98.1893 95.173 100.932C93.8823 103.675 92.0673 106.014 89.728 107.95C87.4693 109.886 84.8073 111.378 81.742 112.427C78.7573 113.476 75.5307 114 72.062 114H31.285V28.09H73.998C76.9827 28.09 79.685 28.7353 82.105 30.026C84.525 31.3167 86.582 33.0107 88.276 35.108C89.97 37.1247 91.2607 39.464 92.148 42.126C93.116 44.7073 93.6 47.329 93.6 49.991C93.6 54.2663 92.511 58.219 90.333 61.849C88.2357 65.479 85.2107 68.1813 81.258 69.956C86.1787 71.408 90.0507 74.1103 92.874 78.063C95.778 81.935 97.23 86.533 97.23 91.857ZM86.219 89.921C86.219 87.985 85.856 86.1297 85.13 84.355C84.4847 82.4997 83.557 80.8863 82.347 79.515C81.2177 78.1437 79.8463 77.0547 78.233 76.248C76.6197 75.4413 74.845 75.038 72.909 75.038H42.175V104.562H72.062C74.0787 104.562 75.934 104.159 77.628 103.352C79.322 102.545 80.8143 101.497 82.105 100.206C83.3957 98.8347 84.404 97.2617 85.13 95.487C85.856 93.7123 86.219 91.857 86.219 89.921ZM42.175 37.528V66.205H69.521C71.457 66.205 73.2317 65.842 74.845 65.116C76.4583 64.3093 77.8297 63.2607 78.959 61.97C80.169 60.6793 81.0967 59.187 81.742 57.493C82.468 55.7183 82.831 53.863 82.831 51.927C82.831 49.9103 82.5083 48.0147 81.863 46.24C81.2177 44.4653 80.3303 42.9327 79.201 41.642C78.1523 40.3513 76.8213 39.343 75.208 38.617C73.6753 37.891 72.0217 37.528 70.247 37.528H42.175ZM158.002 28.09H167.198L202.288 114H190.672L180.508 88.832H144.45L134.407 114H122.791L158.002 28.09ZM178.088 80.362L162.6 40.674L146.628 80.362H178.088ZM228.743 28.09L254.758 72.86L281.015 28.09H292.873L260.203 82.661V114H249.313V82.419L216.764 28.09H228.743ZM387.891 37.77H358.246V114H347.356V37.77H317.711V28.09H387.891V37.77ZM453.688 114.605C447.638 114.605 442.112 113.395 437.111 110.975C432.19 108.474 427.955 105.207 424.406 101.174C420.856 97.06 418.114 92.3813 416.178 87.138C414.242 81.8947 413.274 76.5303 413.274 71.045C413.274 65.3177 414.282 59.8323 416.299 54.589C418.396 49.3457 421.26 44.7073 424.89 40.674C428.52 36.6407 432.795 33.4543 437.716 31.115C442.717 28.695 448.122 27.485 453.93 27.485C459.98 27.485 465.465 28.7757 470.386 31.357C475.306 33.8577 479.541 37.165 483.091 41.279C486.64 45.393 489.383 50.0717 491.319 55.315C493.255 60.4777 494.223 65.7613 494.223 71.166C494.223 76.8933 493.174 82.3787 491.077 87.622C489.06 92.8653 486.237 97.5037 482.607 101.537C479.057 105.49 474.782 108.676 469.781 111.096C464.86 113.435 459.496 114.605 453.688 114.605ZM424.285 71.045C424.285 75.401 424.97 79.636 426.342 83.75C427.794 87.7833 429.81 91.373 432.392 94.519C434.973 97.665 438.079 100.166 441.709 102.021C445.339 103.876 449.372 104.804 453.809 104.804C458.407 104.804 462.521 103.836 466.151 101.9C469.781 99.8833 472.846 97.302 475.347 94.156C477.928 90.9293 479.864 87.2993 481.155 83.266C482.526 79.2327 483.212 75.159 483.212 71.045C483.212 66.689 482.486 62.4943 481.034 58.461C479.662 54.347 477.646 50.7573 474.984 47.692C472.402 44.546 469.297 42.0453 465.667 40.19C462.117 38.3347 458.165 37.407 453.809 37.407C449.211 37.407 445.097 38.375 441.467 40.311C437.837 42.247 434.731 44.788 432.15 47.934C429.649 51.08 427.713 54.6697 426.342 58.703C424.97 62.7363 424.285 66.8503 424.285 71.045ZM541.418 48.418V114H530.528V28.09H538.998L592.238 95.003V28.211H603.128V114H593.932L541.418 48.418Z" fill="white"/>
<path d="M212 47H115V130H212V47Z" fill="#0C274B"/>
<path d="M128.711 108.682L122.181 113.626C121.741 113.959 121.203 114.137 120.651 114.134C120.022 114.15 119.412 113.916 118.955 113.484C118.498 113.052 118.23 112.456 118.211 111.827V57.827C118.211 37.097 135.995 20.282 157.911 20.282C179.827 20.282 197.611 37.097 197.611 57.823V111.823C197.592 112.452 197.324 113.048 196.867 113.48C196.41 113.912 195.8 114.146 195.171 114.13C194.619 114.133 194.081 113.955 193.641 113.622L187.111 108.682C186.278 108.062 185.239 107.785 184.207 107.909C183.176 108.033 182.232 108.548 181.569 109.347L173.794 119.147C173.473 119.538 173.069 119.853 172.611 120.07C172.153 120.286 171.653 120.399 171.147 120.399C170.641 120.399 170.141 120.286 169.683 120.07C169.225 119.853 168.821 119.538 168.5 119.147L160.561 109.128C160.24 108.737 159.836 108.422 159.378 108.205C158.92 107.989 158.42 107.876 157.914 107.876C157.408 107.876 156.908 107.989 156.45 108.205C155.992 108.422 155.588 108.737 155.267 109.128L147.327 119.139C147.006 119.53 146.602 119.845 146.144 120.062C145.686 120.278 145.186 120.391 144.68 120.391C144.174 120.391 143.674 120.278 143.216 120.062C142.758 119.845 142.354 119.53 142.033 119.139L134.258 109.339C133.883 108.879 133.41 108.509 132.874 108.256C132.337 108.002 131.751 107.871 131.158 107.873C130.287 107.873 129.439 108.154 128.739 108.673L128.711 108.682ZM151.297 57.823C151.274 56.9776 151.084 56.1452 150.739 55.3731C150.393 54.6011 149.899 53.9047 149.285 53.3236C148.67 52.7426 147.947 52.2883 147.157 51.9867C146.367 51.6851 145.525 51.5422 144.68 51.566C143.829 51.5179 142.976 51.644 142.175 51.9367C141.374 52.2293 140.641 52.6824 140.022 53.2682C139.402 53.8539 138.908 54.56 138.571 55.3432C138.233 56.1264 138.059 56.9702 138.059 57.823C138.059 58.6758 138.233 59.5196 138.571 60.3028C138.908 61.086 139.402 61.7921 140.022 62.3779C140.641 62.9636 141.374 63.4167 142.175 63.7094C142.976 64.002 143.829 64.1282 144.68 64.08C145.525 64.1039 146.367 63.9609 147.157 63.6593C147.947 63.3577 148.67 62.9035 149.285 62.3224C149.899 61.7413 150.393 61.0449 150.739 60.2729C151.084 59.5009 151.274 58.6684 151.297 57.823V57.823ZM171.149 64.082C172.372 64.0136 173.548 63.5885 174.531 62.8592C175.515 62.1299 176.264 61.1284 176.684 59.9783C177.105 58.8283 177.18 57.5802 176.899 56.3882C176.618 55.1962 175.995 54.1126 175.105 53.2712C174.215 52.4298 173.098 51.8676 171.893 51.6539C170.687 51.4403 169.445 51.5846 168.32 52.069C167.195 52.5534 166.237 53.3567 165.564 54.3797C164.891 55.4026 164.532 56.6004 164.532 57.825C164.555 58.6704 164.745 59.5029 165.091 60.2749C165.436 61.0469 165.93 61.7433 166.544 62.3244C167.159 62.9054 167.882 63.3597 168.672 63.6613C169.462 63.9629 170.304 64.1059 171.149 64.082V64.082Z" fill="white"/>
<path d="M454.5 114.5C476.868 114.5 495 96.3675 495 74C495 51.6325 476.868 33.5 454.5 33.5C432.132 33.5 414 51.6325 414 74C414 96.3675 432.132 114.5 454.5 114.5Z" fill="#0C274B"/>
<path d="M454.5 109C473.83 109 489.5 93.33 489.5 74C489.5 54.67 473.83 39 454.5 39C435.17 39 419.5 54.67 419.5 74C419.5 93.33 435.17 109 454.5 109Z" stroke="white" stroke-width="11"/>
<path d="M504 22H407V79H504V22Z" fill="#0C274B"/>
<path d="M473.14 60.692C472.487 60.6804 471.852 60.4762 471.315 60.1051C470.778 59.7339 470.362 59.2124 470.121 58.6059C469.879 57.9994 469.822 57.335 469.956 56.6961C470.09 56.0572 470.411 55.4722 470.876 55.0146C471.342 54.557 471.933 54.2472 472.574 54.124C473.215 54.0009 473.878 54.0699 474.48 54.3223C475.083 54.5748 475.597 54.9995 475.958 55.5431C476.32 56.0868 476.513 56.7251 476.513 57.378C476.505 58.2647 476.145 59.112 475.513 59.7335C474.88 60.355 474.027 60.6997 473.14 60.692M435.859 60.692C435.206 60.6804 434.571 60.4762 434.034 60.1051C433.497 59.7339 433.081 59.2124 432.84 58.6059C432.598 57.9994 432.541 57.335 432.675 56.6961C432.809 56.0572 433.13 55.4722 433.595 55.0146C434.061 54.557 434.652 54.2472 435.293 54.124C435.934 54.0009 436.597 54.0699 437.199 54.3223C437.802 54.5748 438.316 54.9995 438.677 55.5431C439.039 56.0868 439.232 56.7251 439.232 57.378C439.224 58.2647 438.864 59.112 438.232 59.7335C437.599 60.355 436.746 60.6997 435.859 60.692M474.35 40.735L481.09 29.265C481.182 29.1083 481.242 28.9348 481.265 28.7548C481.289 28.5747 481.277 28.3917 481.23 28.2164C481.182 28.0411 481.1 27.8771 480.988 27.734C480.876 27.5909 480.737 27.4716 480.578 27.383C480.257 27.1994 479.876 27.149 479.518 27.2424C479.16 27.3359 478.853 27.5658 478.662 27.883L471.836 39.499C466.372 37.0964 460.468 35.8557 454.5 35.8557C448.531 35.8557 442.627 37.0964 437.163 39.499L430.338 27.886C430.147 27.5688 429.84 27.3389 429.482 27.2454C429.124 27.152 428.743 27.2024 428.422 27.386C428.263 27.4744 428.124 27.5936 428.012 27.7367C427.9 27.8797 427.817 28.0437 427.769 28.219C427.721 28.3942 427.709 28.5773 427.733 28.7575C427.757 28.9376 427.816 29.1112 427.908 29.268L434.65 40.735C428.86 43.8012 423.934 48.2745 420.325 53.7432C416.717 59.2119 414.541 65.5004 414 72.03H495C494.458 65.5005 492.283 59.2122 488.674 53.7435C485.066 48.2748 480.14 43.8015 474.35 40.735" fill="white"/>
</g>
<defs>
<clipPath id="clip0_1_245">
<rect width="635" height="142" fill="white"/>
</clipPath>
</defs>
</svg>
