<svg width="170" height="27" viewBox="0 0 2871 462" fill="none" xmlns="http://www.w3.org/2000/svg">
    <g id="bayton_swirl_angle_rectangle">
        {% if page.url == '/' %}
        <g id="dynamic">
            <g id="text">
                <path id="n" d="M2553.45 118.43V447.55H2499V18H2544.98L2807.55 353.775V18.605H2862V447.55H2812.39L2553.45 118.43Z" fill="#FFFFFF"/>
                <g id="swirl_2">
                    <path id="swirl_orange" d="M2007.06 60.0315C2023.72 46.2035 2042.22 34.951 2062.27 26.4707C2089.68 14.8779 2118.78 8.99982 2148.76 8.99982C2178.75 8.99982 2207.85 14.8779 2235.26 26.4707C2255.31 34.951 2273.81 46.2035 2290.47 60.0315C2295.8 64.4517 2300.93 69.1355 2305.87 74.0762C2326.27 94.4762 2342.29 118.236 2353.48 144.694C2364.67 171.135 2370.53 199.158 2370.93 228.022C2370.94 228.479 2370.94 228.939 2370.95 229.396C2370.95 229.523 2370.95 229.65 2370.95 229.78C2370.95 230.247 2370.95 230.717 2370.95 231.184C2370.95 231.651 2370.95 232.122 2370.95 232.589C2370.95 232.719 2370.95 232.846 2370.95 232.972C2370.94 233.429 2370.94 233.89 2370.93 234.347C2369.31 336.096 2289.52 419.204 2189.12 426.137C2176.06 427.057 2161.81 426.597 2148.76 424.775C2111.48 419.648 2077.51 403.958 2050 380.833C2078.34 399.605 2112.3 410.54 2148.76 410.54C2185.23 410.54 2219.19 399.602 2247.53 380.833C2295.46 349.1 2327.33 294.976 2328.11 233.5C2328.11 232.729 2328.12 231.955 2328.12 231.184C2328.12 230.414 2328.11 229.64 2328.11 228.869C2327.81 201.864 2322.37 175.662 2311.92 150.949C2301.54 126.402 2286.68 104.358 2267.75 85.4288C2248.82 66.5 2226.78 51.6379 2202.23 41.2561C2197.9 39.428 2193.53 37.7533 2189.12 36.2287C2176.01 31.7083 2162.52 28.5458 2148.76 26.7676C2139.94 25.6267 2131.01 25.0529 2121.99 25.0529C2094.17 25.0529 2067.17 30.504 2041.76 41.2528C2029.54 46.417 2017.95 52.6888 2007.05 60.0214L2007.06 60.0315Z" fill="#FF4500"/>
                    <path id="swirl_black" d="M1926.57 231.191C1926.57 230.724 1926.57 230.254 1926.58 229.787C1926.58 229.657 1926.58 229.53 1926.58 229.403C1926.59 228.946 1926.59 228.486 1926.6 228.029C1926.6 227.688 1926.61 227.348 1926.62 227.008C1926.62 226.938 1926.62 226.864 1926.62 226.798C1926.63 226.594 1926.63 226.391 1926.64 226.184C1926.65 225.984 1926.65 225.78 1926.66 225.577C1926.68 224.859 1926.7 224.145 1926.73 223.428C1926.75 223.031 1926.76 222.634 1926.78 222.24C1926.79 221.957 1926.8 221.673 1926.82 221.39C1926.89 219.905 1926.98 218.427 1927.09 216.953C1927.11 216.703 1927.12 216.449 1927.15 216.199C1927.17 215.845 1927.2 215.495 1927.23 215.141C1927.25 214.898 1927.27 214.651 1927.29 214.407C1927.35 213.75 1927.4 213.093 1927.47 212.436C1927.56 211.495 1927.66 210.558 1927.76 209.62C1927.93 208.142 1928.11 206.674 1928.3 205.207C1928.33 204.99 1928.36 204.773 1928.39 204.559C1929.55 196.079 1931.25 187.772 1933.47 179.672C1933.57 179.302 1933.67 178.935 1933.78 178.568C1933.88 178.198 1933.98 177.831 1934.09 177.464C1934.29 176.753 1934.5 176.039 1934.71 175.329C1935.26 173.481 1935.85 171.639 1936.45 169.814C1936.68 169.124 1936.91 168.44 1937.15 167.749C1937.53 166.638 1937.92 165.534 1938.32 164.433C1938.67 163.479 1939.02 162.532 1939.39 161.588C1939.55 161.161 1939.72 160.734 1939.88 160.307C1940 160.016 1940.11 159.726 1940.23 159.433C1940.53 158.672 1940.83 157.915 1941.14 157.161C1941.57 156.117 1942.01 155.079 1942.45 154.045C1942.75 153.358 1943.05 152.67 1943.36 151.98C1943.51 151.636 1943.66 151.296 1943.82 150.952C1943.98 150.609 1944.13 150.268 1944.29 149.928C1944.44 149.588 1944.6 149.248 1944.76 148.907C1945.07 148.227 1945.39 147.55 1945.72 146.876C1946.2 145.865 1946.7 144.854 1947.2 143.85C1947.37 143.516 1947.54 143.179 1947.71 142.849C1948.22 141.852 1948.73 140.854 1949.26 139.863C1949.43 139.533 1949.61 139.203 1949.79 138.876C1949.92 138.622 1950.06 138.369 1950.2 138.115C1951.02 136.594 1951.87 135.086 1952.74 133.595C1952.9 133.321 1953.05 133.051 1953.21 132.781C1953.83 131.727 1954.46 130.676 1955.09 129.632C1955.24 129.398 1955.38 129.165 1955.52 128.931C1956.33 127.623 1957.15 126.326 1957.99 125.038C1958.17 124.761 1958.35 124.477 1958.53 124.201C1958.68 123.977 1958.82 123.757 1958.97 123.533C1959.16 123.253 1959.35 122.97 1959.54 122.686C1960.18 121.732 1960.83 120.784 1961.48 119.844C1961.69 119.54 1961.91 119.233 1962.12 118.93C1962.55 118.322 1962.98 117.719 1963.42 117.115C1963.63 116.811 1963.85 116.511 1964.07 116.214C1964.73 115.313 1965.39 114.419 1966.07 113.532C1966.29 113.235 1966.52 112.941 1966.74 112.644C1967.41 111.76 1968.1 110.883 1968.79 110.009C1969.02 109.719 1969.25 109.429 1969.49 109.138C1969.69 108.878 1969.9 108.621 1970.11 108.364C1970.37 108.047 1970.63 107.727 1970.89 107.41C1971.1 107.147 1971.32 106.89 1971.53 106.63C1971.79 106.319 1972.05 106.009 1972.31 105.702C1972.55 105.419 1972.79 105.135 1973.03 104.851C1973.27 104.571 1973.51 104.288 1973.75 104.004C1974.23 103.44 1974.72 102.883 1975.21 102.326C1975.45 102.049 1975.7 101.769 1975.95 101.492C1976.69 100.661 1977.43 99.8374 1978.19 99.02C1978.44 98.7465 1978.69 98.4729 1978.94 98.2027C1979.44 97.6589 1979.95 97.1185 1980.46 96.5847C1980.72 96.3178 1980.98 96.0509 1981.23 95.7807C1981.49 95.5138 1981.75 95.247 1982.01 94.9801C1982.26 94.7165 1982.52 94.4497 1982.78 94.1861C1983.29 93.6657 1983.81 93.1486 1984.32 92.6348C1984.6 92.3646 1984.87 92.0944 1985.15 91.8275C1985.41 91.5673 1985.68 91.3071 1985.94 91.0502C1986.47 90.5331 1987 90.0194 1987.54 89.5123C1987.81 89.2554 1988.08 89.0019 1988.35 88.7483C1992.01 85.3122 1995.8 82.0195 1999.71 78.877C2000 78.6401 2000.29 78.4099 2000.58 78.1797C2002.49 76.6585 2004.43 75.1739 2006.4 73.7261C2006.62 73.5659 2006.84 73.4058 2007.06 73.2457C2007.28 73.0856 2007.49 72.9288 2007.71 72.772C2007.96 72.5885 2008.22 72.4083 2008.47 72.2248C2009.29 71.6344 2010.13 71.0472 2010.97 70.4667C2011.23 70.2866 2011.49 70.1064 2011.75 69.9296C2012.25 69.5794 2012.77 69.2324 2013.28 68.8855C2013.58 68.6886 2013.86 68.4985 2014.16 68.305C2014.33 68.1916 2014.5 68.0781 2014.67 67.9614C2014.94 67.7912 2015.19 67.6178 2015.46 67.4476C2015.77 67.2441 2016.08 67.0406 2016.39 66.8405C2017.34 66.2266 2018.3 65.6228 2019.26 65.0257C2019.56 64.8388 2019.87 64.6487 2020.17 64.4618C2020.69 64.1449 2021.22 63.8247 2021.74 63.5111C2022.06 63.3176 2022.39 63.1241 2022.71 62.9339C2024.96 61.5995 2027.24 60.3051 2029.55 59.0608C2029.79 58.9307 2030.03 58.8006 2030.27 58.6738C2030.8 58.3936 2031.33 58.1133 2031.85 57.8398C2032.18 57.6663 2032.52 57.4929 2032.85 57.3227C2034.51 56.4654 2036.19 55.6347 2037.88 54.824C2038.22 54.6639 2038.56 54.5004 2038.89 54.3436C2039.23 54.1835 2039.57 54.0267 2039.91 53.8665C2040.23 53.7197 2040.54 53.573 2040.86 53.4262C2041.98 52.9124 2043.11 52.4087 2044.24 51.9183C2044.51 51.7982 2044.78 51.6815 2045.05 51.5647C2046.43 50.9709 2047.82 50.3937 2049.22 49.8299C2049.56 49.6865 2049.91 49.5497 2050.27 49.4096C2052.3 48.6056 2054.34 47.835 2056.4 47.1011C2056.76 46.9709 2057.12 46.8475 2057.48 46.7207C2057.77 46.6173 2058.05 46.5172 2058.34 46.4171C2058.77 46.2704 2059.2 46.1236 2059.63 45.9768C2059.9 45.8867 2060.17 45.7933 2060.44 45.7032C2060.6 45.6532 2060.76 45.5998 2060.92 45.5464C2061.52 45.3496 2062.12 45.1528 2062.73 44.9626C2065.13 44.1953 2067.55 43.4748 2069.99 42.8009C2070.24 42.7308 2070.49 42.6608 2070.74 42.594C2072.16 42.2071 2073.59 41.8334 2075.03 41.4798C2075.25 41.4231 2075.47 41.3697 2075.69 41.3196C2075.89 41.2696 2076.09 41.2196 2076.29 41.1729C2076.99 41.0027 2077.69 40.8393 2078.4 40.6792C2082.19 39.8118 2086.02 39.0545 2089.9 38.4106C2090.26 38.3506 2090.63 38.2905 2090.99 38.2305C2091.14 38.2071 2091.29 38.1838 2091.44 38.1604C2091.87 38.0904 2092.3 38.0236 2092.73 37.9603C2093.09 37.9069 2093.45 37.8535 2093.82 37.8001C2094.39 37.7167 2094.96 37.6367 2095.54 37.5599C2099.79 36.9828 2104.09 36.5391 2108.42 36.2388C2112.91 35.9319 2117.44 35.7718 2122.01 35.7718C2131.09 35.7718 2140.02 36.3957 2148.78 37.6C2186.06 42.7275 2220.03 58.4169 2247.55 81.5425C2219.2 62.7705 2185.25 51.8349 2148.78 51.8349C2112.31 51.8349 2078.35 62.7738 2050.01 81.5425C2002.09 113.275 1970.22 167.399 1969.44 228.876C1969.43 229.647 1969.42 230.42 1969.42 231.191C1969.42 231.962 1969.43 232.736 1969.44 233.506C1969.73 260.512 1975.17 286.713 1985.62 311.427C1996 335.973 2010.87 358.018 2029.8 376.947C2048.72 395.875 2070.77 410.737 2095.32 421.119C2099.64 422.947 2104.01 424.622 2108.42 426.147C2155.96 442.643 2209.65 440.785 2255.79 421.119C2268 415.955 2279.59 409.683 2290.49 402.351C2273.83 416.179 2255.33 427.431 2235.28 435.911C2207.85 447.501 2178.75 453.379 2148.76 453.379C2118.77 453.379 2089.68 447.501 2062.27 435.908C2042.22 427.428 2023.72 416.175 2007.06 402.347C2001.73 397.927 1996.59 393.243 1991.65 388.303C1971.25 367.903 1955.23 344.143 1944.04 317.685C1932.68 290.823 1926.81 262.33 1926.58 232.979C1926.58 232.852 1926.58 232.726 1926.58 232.596C1926.58 232.129 1926.57 231.658 1926.57 231.191Z" fill="#FFFFFF"/>
                </g>
                <path id="exclude" fill-rule="evenodd" clip-rule="evenodd" d="M688.194 17.5L862.256 447.525H803.095L662.5 81.5L521.905 447.525H464.75L638.812 17.5H688.194Z" fill="#FFFFFF"/>
                <g id="bayt">
                    <path d="M338.725 336.835C338.725 359.018 333.078 378.378 321.785 394.915C310.492 411.452 295.165 424.358 275.805 433.635C256.848 442.912 235.875 447.55 212.885 447.55H9V18H222.565C242.732 18 260.075 23.445 274.595 34.335C289.518 44.8217 300.812 58.535 308.475 75.475C316.542 92.0117 320.575 109.355 320.575 127.505C320.575 148.478 315.13 168.242 304.24 186.795C293.753 204.945 278.628 218.457 258.865 227.33C283.468 234.59 302.828 248.102 316.945 267.865C331.465 287.225 338.725 310.215 338.725 336.835ZM283.67 327.155C283.67 313.845 280.645 301.543 274.595 290.25C268.948 278.957 261.083 269.882 251 263.025C241.32 256.168 230.027 252.74 217.12 252.74H63.45V400.36H212.885C226.195 400.36 238.093 396.932 248.58 390.075C259.47 383.218 267.94 374.345 273.99 363.455C280.443 352.162 283.67 340.062 283.67 327.155ZM63.45 65.19V208.575H200.18C213.087 208.575 224.38 205.348 234.06 198.895C244.143 192.442 252.008 183.77 257.655 172.88C263.705 161.99 266.73 150.092 266.73 137.185C266.73 123.472 263.907 111.372 258.26 100.885C253.017 89.995 245.555 81.3233 235.875 74.87C226.598 68.4167 215.91 65.19 203.81 65.19H63.45Z" fill="#FFFFFF"/>
                    <path d="M996.289 18L1126.36 241.85L1257.65 18H1316.94L1153.59 290.855V447.55H1099.14V289.645L936.394 18H996.289Z" fill="#FFFFFF"/>
                    <path d="M1792.03 66.4H1643.8V447.55H1589.35V66.4H1441.13V18H1792.03V66.4Z" fill="#FFFFFF"/>
                </g>
            </g>
        </g>
        {% else %}
        <g id="dynamic">
            <g id="text">
                <path id="n" d="M2553.45 118.43V447.55H2499V18H2544.98L2807.55 353.775V18.605H2862V447.55H2812.39L2553.45 118.43Z" fill="var(--text)"/>
                <g id="swirl_2">
                    <path id="swirl_orange" d="M2007.06 60.0315C2023.72 46.2035 2042.22 34.951 2062.27 26.4707C2089.68 14.8779 2118.78 8.99982 2148.76 8.99982C2178.75 8.99982 2207.85 14.8779 2235.26 26.4707C2255.31 34.951 2273.81 46.2035 2290.47 60.0315C2295.8 64.4517 2300.93 69.1355 2305.87 74.0762C2326.27 94.4762 2342.29 118.236 2353.48 144.694C2364.67 171.135 2370.53 199.158 2370.93 228.022C2370.94 228.479 2370.94 228.939 2370.95 229.396C2370.95 229.523 2370.95 229.65 2370.95 229.78C2370.95 230.247 2370.95 230.717 2370.95 231.184C2370.95 231.651 2370.95 232.122 2370.95 232.589C2370.95 232.719 2370.95 232.846 2370.95 232.972C2370.94 233.429 2370.94 233.89 2370.93 234.347C2369.31 336.096 2289.52 419.204 2189.12 426.137C2176.06 427.057 2161.81 426.597 2148.76 424.775C2111.48 419.648 2077.51 403.958 2050 380.833C2078.34 399.605 2112.3 410.54 2148.76 410.54C2185.23 410.54 2219.19 399.602 2247.53 380.833C2295.46 349.1 2327.33 294.976 2328.11 233.5C2328.11 232.729 2328.12 231.955 2328.12 231.184C2328.12 230.414 2328.11 229.64 2328.11 228.869C2327.81 201.864 2322.37 175.662 2311.92 150.949C2301.54 126.402 2286.68 104.358 2267.75 85.4288C2248.82 66.5 2226.78 51.6379 2202.23 41.2561C2197.9 39.428 2193.53 37.7533 2189.12 36.2287C2176.01 31.7083 2162.52 28.5458 2148.76 26.7676C2139.94 25.6267 2131.01 25.0529 2121.99 25.0529C2094.17 25.0529 2067.17 30.504 2041.76 41.2528C2029.54 46.417 2017.95 52.6888 2007.05 60.0214L2007.06 60.0315Z" fill="#FF4500"/>
                    <path id="swirl_black" d="M1926.57 231.191C1926.57 230.724 1926.57 230.254 1926.58 229.787C1926.58 229.657 1926.58 229.53 1926.58 229.403C1926.59 228.946 1926.59 228.486 1926.6 228.029C1926.6 227.688 1926.61 227.348 1926.62 227.008C1926.62 226.938 1926.62 226.864 1926.62 226.798C1926.63 226.594 1926.63 226.391 1926.64 226.184C1926.65 225.984 1926.65 225.78 1926.66 225.577C1926.68 224.859 1926.7 224.145 1926.73 223.428C1926.75 223.031 1926.76 222.634 1926.78 222.24C1926.79 221.957 1926.8 221.673 1926.82 221.39C1926.89 219.905 1926.98 218.427 1927.09 216.953C1927.11 216.703 1927.12 216.449 1927.15 216.199C1927.17 215.845 1927.2 215.495 1927.23 215.141C1927.25 214.898 1927.27 214.651 1927.29 214.407C1927.35 213.75 1927.4 213.093 1927.47 212.436C1927.56 211.495 1927.66 210.558 1927.76 209.62C1927.93 208.142 1928.11 206.674 1928.3 205.207C1928.33 204.99 1928.36 204.773 1928.39 204.559C1929.55 196.079 1931.25 187.772 1933.47 179.672C1933.57 179.302 1933.67 178.935 1933.78 178.568C1933.88 178.198 1933.98 177.831 1934.09 177.464C1934.29 176.753 1934.5 176.039 1934.71 175.329C1935.26 173.481 1935.85 171.639 1936.45 169.814C1936.68 169.124 1936.91 168.44 1937.15 167.749C1937.53 166.638 1937.92 165.534 1938.32 164.433C1938.67 163.479 1939.02 162.532 1939.39 161.588C1939.55 161.161 1939.72 160.734 1939.88 160.307C1940 160.016 1940.11 159.726 1940.23 159.433C1940.53 158.672 1940.83 157.915 1941.14 157.161C1941.57 156.117 1942.01 155.079 1942.45 154.045C1942.75 153.358 1943.05 152.67 1943.36 151.98C1943.51 151.636 1943.66 151.296 1943.82 150.952C1943.98 150.609 1944.13 150.268 1944.29 149.928C1944.44 149.588 1944.6 149.248 1944.76 148.907C1945.07 148.227 1945.39 147.55 1945.72 146.876C1946.2 145.865 1946.7 144.854 1947.2 143.85C1947.37 143.516 1947.54 143.179 1947.71 142.849C1948.22 141.852 1948.73 140.854 1949.26 139.863C1949.43 139.533 1949.61 139.203 1949.79 138.876C1949.92 138.622 1950.06 138.369 1950.2 138.115C1951.02 136.594 1951.87 135.086 1952.74 133.595C1952.9 133.321 1953.05 133.051 1953.21 132.781C1953.83 131.727 1954.46 130.676 1955.09 129.632C1955.24 129.398 1955.38 129.165 1955.52 128.931C1956.33 127.623 1957.15 126.326 1957.99 125.038C1958.17 124.761 1958.35 124.477 1958.53 124.201C1958.68 123.977 1958.82 123.757 1958.97 123.533C1959.16 123.253 1959.35 122.97 1959.54 122.686C1960.18 121.732 1960.83 120.784 1961.48 119.844C1961.69 119.54 1961.91 119.233 1962.12 118.93C1962.55 118.322 1962.98 117.719 1963.42 117.115C1963.63 116.811 1963.85 116.511 1964.07 116.214C1964.73 115.313 1965.39 114.419 1966.07 113.532C1966.29 113.235 1966.52 112.941 1966.74 112.644C1967.41 111.76 1968.1 110.883 1968.79 110.009C1969.02 109.719 1969.25 109.429 1969.49 109.138C1969.69 108.878 1969.9 108.621 1970.11 108.364C1970.37 108.047 1970.63 107.727 1970.89 107.41C1971.1 107.147 1971.32 106.89 1971.53 106.63C1971.79 106.319 1972.05 106.009 1972.31 105.702C1972.55 105.419 1972.79 105.135 1973.03 104.851C1973.27 104.571 1973.51 104.288 1973.75 104.004C1974.23 103.44 1974.72 102.883 1975.21 102.326C1975.45 102.049 1975.7 101.769 1975.95 101.492C1976.69 100.661 1977.43 99.8374 1978.19 99.02C1978.44 98.7465 1978.69 98.4729 1978.94 98.2027C1979.44 97.6589 1979.95 97.1185 1980.46 96.5847C1980.72 96.3178 1980.98 96.0509 1981.23 95.7807C1981.49 95.5138 1981.75 95.247 1982.01 94.9801C1982.26 94.7165 1982.52 94.4497 1982.78 94.1861C1983.29 93.6657 1983.81 93.1486 1984.32 92.6348C1984.6 92.3646 1984.87 92.0944 1985.15 91.8275C1985.41 91.5673 1985.68 91.3071 1985.94 91.0502C1986.47 90.5331 1987 90.0194 1987.54 89.5123C1987.81 89.2554 1988.08 89.0019 1988.35 88.7483C1992.01 85.3122 1995.8 82.0195 1999.71 78.877C2000 78.6401 2000.29 78.4099 2000.58 78.1797C2002.49 76.6585 2004.43 75.1739 2006.4 73.7261C2006.62 73.5659 2006.84 73.4058 2007.06 73.2457C2007.28 73.0856 2007.49 72.9288 2007.71 72.772C2007.96 72.5885 2008.22 72.4083 2008.47 72.2248C2009.29 71.6344 2010.13 71.0472 2010.97 70.4667C2011.23 70.2866 2011.49 70.1064 2011.75 69.9296C2012.25 69.5794 2012.77 69.2324 2013.28 68.8855C2013.58 68.6886 2013.86 68.4985 2014.16 68.305C2014.33 68.1916 2014.5 68.0781 2014.67 67.9614C2014.94 67.7912 2015.19 67.6178 2015.46 67.4476C2015.77 67.2441 2016.08 67.0406 2016.39 66.8405C2017.34 66.2266 2018.3 65.6228 2019.26 65.0257C2019.56 64.8388 2019.87 64.6487 2020.17 64.4618C2020.69 64.1449 2021.22 63.8247 2021.74 63.5111C2022.06 63.3176 2022.39 63.1241 2022.71 62.9339C2024.96 61.5995 2027.24 60.3051 2029.55 59.0608C2029.79 58.9307 2030.03 58.8006 2030.27 58.6738C2030.8 58.3936 2031.33 58.1133 2031.85 57.8398C2032.18 57.6663 2032.52 57.4929 2032.85 57.3227C2034.51 56.4654 2036.19 55.6347 2037.88 54.824C2038.22 54.6639 2038.56 54.5004 2038.89 54.3436C2039.23 54.1835 2039.57 54.0267 2039.91 53.8665C2040.23 53.7197 2040.54 53.573 2040.86 53.4262C2041.98 52.9124 2043.11 52.4087 2044.24 51.9183C2044.51 51.7982 2044.78 51.6815 2045.05 51.5647C2046.43 50.9709 2047.82 50.3937 2049.22 49.8299C2049.56 49.6865 2049.91 49.5497 2050.27 49.4096C2052.3 48.6056 2054.34 47.835 2056.4 47.1011C2056.76 46.9709 2057.12 46.8475 2057.48 46.7207C2057.77 46.6173 2058.05 46.5172 2058.34 46.4171C2058.77 46.2704 2059.2 46.1236 2059.63 45.9768C2059.9 45.8867 2060.17 45.7933 2060.44 45.7032C2060.6 45.6532 2060.76 45.5998 2060.92 45.5464C2061.52 45.3496 2062.12 45.1528 2062.73 44.9626C2065.13 44.1953 2067.55 43.4748 2069.99 42.8009C2070.24 42.7308 2070.49 42.6608 2070.74 42.594C2072.16 42.2071 2073.59 41.8334 2075.03 41.4798C2075.25 41.4231 2075.47 41.3697 2075.69 41.3196C2075.89 41.2696 2076.09 41.2196 2076.29 41.1729C2076.99 41.0027 2077.69 40.8393 2078.4 40.6792C2082.19 39.8118 2086.02 39.0545 2089.9 38.4106C2090.26 38.3506 2090.63 38.2905 2090.99 38.2305C2091.14 38.2071 2091.29 38.1838 2091.44 38.1604C2091.87 38.0904 2092.3 38.0236 2092.73 37.9603C2093.09 37.9069 2093.45 37.8535 2093.82 37.8001C2094.39 37.7167 2094.96 37.6367 2095.54 37.5599C2099.79 36.9828 2104.09 36.5391 2108.42 36.2388C2112.91 35.9319 2117.44 35.7718 2122.01 35.7718C2131.09 35.7718 2140.02 36.3957 2148.78 37.6C2186.06 42.7275 2220.03 58.4169 2247.55 81.5425C2219.2 62.7705 2185.25 51.8349 2148.78 51.8349C2112.31 51.8349 2078.35 62.7738 2050.01 81.5425C2002.09 113.275 1970.22 167.399 1969.44 228.876C1969.43 229.647 1969.42 230.42 1969.42 231.191C1969.42 231.962 1969.43 232.736 1969.44 233.506C1969.73 260.512 1975.17 286.713 1985.62 311.427C1996 335.973 2010.87 358.018 2029.8 376.947C2048.72 395.875 2070.77 410.737 2095.32 421.119C2099.64 422.947 2104.01 424.622 2108.42 426.147C2155.96 442.643 2209.65 440.785 2255.79 421.119C2268 415.955 2279.59 409.683 2290.49 402.351C2273.83 416.179 2255.33 427.431 2235.28 435.911C2207.85 447.501 2178.75 453.379 2148.76 453.379C2118.77 453.379 2089.68 447.501 2062.27 435.908C2042.22 427.428 2023.72 416.175 2007.06 402.347C2001.73 397.927 1996.59 393.243 1991.65 388.303C1971.25 367.903 1955.23 344.143 1944.04 317.685C1932.68 290.823 1926.81 262.33 1926.58 232.979C1926.58 232.852 1926.58 232.726 1926.58 232.596C1926.58 232.129 1926.57 231.658 1926.57 231.191Z" fill="var(--text)"/>
                </g>
                <path id="exclude" fill-rule="evenodd" clip-rule="evenodd" d="M688.194 17.5L862.256 447.525H803.095L662.5 81.5L521.905 447.525H464.75L638.812 17.5H688.194Z" fill="var(--text)"/>
                <g id="bayt">
                    <path d="M338.725 336.835C338.725 359.018 333.078 378.378 321.785 394.915C310.492 411.452 295.165 424.358 275.805 433.635C256.848 442.912 235.875 447.55 212.885 447.55H9V18H222.565C242.732 18 260.075 23.445 274.595 34.335C289.518 44.8217 300.812 58.535 308.475 75.475C316.542 92.0117 320.575 109.355 320.575 127.505C320.575 148.478 315.13 168.242 304.24 186.795C293.753 204.945 278.628 218.457 258.865 227.33C283.468 234.59 302.828 248.102 316.945 267.865C331.465 287.225 338.725 310.215 338.725 336.835ZM283.67 327.155C283.67 313.845 280.645 301.543 274.595 290.25C268.948 278.957 261.083 269.882 251 263.025C241.32 256.168 230.027 252.74 217.12 252.74H63.45V400.36H212.885C226.195 400.36 238.093 396.932 248.58 390.075C259.47 383.218 267.94 374.345 273.99 363.455C280.443 352.162 283.67 340.062 283.67 327.155ZM63.45 65.19V208.575H200.18C213.087 208.575 224.38 205.348 234.06 198.895C244.143 192.442 252.008 183.77 257.655 172.88C263.705 161.99 266.73 150.092 266.73 137.185C266.73 123.472 263.907 111.372 258.26 100.885C253.017 89.995 245.555 81.3233 235.875 74.87C226.598 68.4167 215.91 65.19 203.81 65.19H63.45Z" fill="var(--text)"/>
                    <path d="M996.289 18L1126.36 241.85L1257.65 18H1316.94L1153.59 290.855V447.55H1099.14V289.645L936.394 18H996.289Z" fill="var(--text)"/>
                    <path d="M1792.03 66.4H1643.8V447.55H1589.35V66.4H1441.13V18H1792.03V66.4Z" fill="var(--text)"/>
                </g>
            </g>
        </g>
        {% endif %}
    </g>
</svg>
