<svg xmlns="http://www.w3.org/2000/svg" xmlns:xlink="http://www.w3.org/1999/xlink" width="635" height="142" viewBox="0 0 635 142"><defs><style>.a{clip-path:url(#b);}.b{fill:#00284c;stroke:#ff4500;stroke-width:10px;}.c,.j{fill:#fff;}.c{font-size:121px;font-family:Raleway-Medium, Raleway;font-weight:500;letter-spacing:0.178em;}.d,.e{fill:#0c274b;}.d{stroke:#fff;stroke-width:11px;}.f{fill:#3ddc84;}.g{fill:#71d888;font-size:31px;font-family:Raleway;font-weight:300;}.h{stroke:none;}.i{fill:none;}</style><clipPath id="b"><rect width="635" height="142"/></clipPath></defs><g id="a" class="a"><rect class="j" width="635" height="142"/><g transform="translate(-491 -34)"><g transform="translate(371 -230)"><g class="b" transform="translate(120 264)"><rect class="h" width="635" height="142"/><rect class="i" x="5" y="5" width="625" height="132"/></g><g transform="translate(0.65 0.1)"><g transform="translate(139.7 263.5)"><text class="c" transform="translate(0.15 114.4)"><tspan x="0" y="0">BAYTON</tspan></text></g></g></g><g transform="translate(-722 -939)"><g class="d" transform="translate(1627 1006.5)"><circle class="h" cx="40.5" cy="40.5" r="40.5"/><circle class="i" cx="40.5" cy="40.5" r="35"/></g><rect class="e" width="97" height="57" transform="translate(1620 995)"/><path class="f" d="M59.45,33.457a3.314,3.314,0,1,1,3.373-3.314,3.344,3.344,0,0,1-3.373,3.314m-37.281,0a3.314,3.314,0,1,1,3.373-3.314,3.344,3.344,0,0,1-3.373,3.314M60.66,13.5,67.4,2.03A1.365,1.365,0,0,0,66.888.148a1.416,1.416,0,0,0-1.916.5L58.146,12.264a43.069,43.069,0,0,0-34.673,0L16.648.651a1.416,1.416,0,0,0-1.916-.5,1.365,1.365,0,0,0-.514,1.882L20.96,13.5A39.065,39.065,0,0,0,.31,44.795h81A39.069,39.069,0,0,0,60.66,13.5" transform="translate(1626.69 1000.235)"/><text class="g" transform="translate(1653 1065)"><tspan x="0" y="0">14</tspan></text></g></g></g></svg>