<svg xmlns="http://www.w3.org/2000/svg" xmlns:xlink="http://www.w3.org/1999/xlink" width="347" height="347" viewBox="0 0 347 347"><defs><style>.a{clip-path:url(#b);}.b{fill:#00284c;stroke-width:10px;}.b,.f{stroke:#ff4500;}.c,.d,.i{fill:#fff;}.c,.d{font-size:119px;font-family:Raleway-Medium, Raleway;font-weight:500;}.c{letter-spacing:0.277em;}.d{letter-spacing:0.178em;}.e,.f{fill:#ff4500;}.g,.h{fill:#0c274b;}.g{stroke:#fff;stroke-width:11px;}.j{stroke:none;}.k{fill:none;}</style><clipPath id="b"><rect width="347" height="347"/></clipPath></defs><g id="a" class="a"><rect class="i" width="347" height="347"/><g transform="translate(-27 -34)"><g transform="translate(-93 -230)"><g class="b" transform="translate(120 264)"><rect class="j" width="347" height="347"/><rect class="k" x="5" y="5" width="337" height="337"/></g><g transform="translate(129.649 264)"><g transform="translate(10.351)"><g transform="translate(0)"><text class="c" transform="translate(0 112)"><tspan x="0" y="0">BAY</tspan></text></g><text class="d" transform="translate(8.5 246)"><tspan x="0" y="0">TON</tspan></text></g><path class="e" d="M.45.3h331.7V65.022H.45Z" transform="translate(-0.45 275.7)"/><g class="f" transform="translate(21.351 276)"><rect class="j" width="70" height="41"/><rect class="k" x="0.5" y="0.5" width="69" height="40"/></g></g></g><g transform="translate(-1474 -805)"><g class="g" transform="translate(1627 1006.5)"><circle class="j" cx="40.5" cy="40.5" r="40.5"/><circle class="k" cx="40.5" cy="40.5" r="35"/></g><rect class="h" width="97" height="57" transform="translate(1620 995)"/><path class="i" d="M59.45,33.457a3.314,3.314,0,1,1,3.373-3.314,3.344,3.344,0,0,1-3.373,3.314m-37.281,0a3.314,3.314,0,1,1,3.373-3.314,3.344,3.344,0,0,1-3.373,3.314M60.66,13.5,67.4,2.03A1.365,1.365,0,0,0,66.888.148a1.416,1.416,0,0,0-1.916.5L58.146,12.264a43.069,43.069,0,0,0-34.673,0L16.648.651a1.416,1.416,0,0,0-1.916-.5,1.365,1.365,0,0,0-.514,1.882L20.96,13.5A39.065,39.065,0,0,0,.31,44.795h81A39.069,39.069,0,0,0,60.66,13.5" transform="translate(1626.69 1000.235)"/></g></g></g></svg>