<svg width="170" height="38" viewBox="0 0 635 142" fill="none" xmlns="http://www.w3.org/2000/svg">
    <g id="bayton_rectangle_dynamic" clip-path="url(#clip0_807_2)">
        <g id="image">
            {% if page.url == '/' %}
            <g id="dynamic">
                <g id="text">
                    <path id="bayt" d="M98.23 91.857C98.23 96.2937 97.1007 100.166 94.842 103.473C92.5833 106.78 89.518 109.362 85.646 111.217C81.8547 113.072 77.66 114 73.062 114H32.285V28.09H74.998C79.0313 28.09 82.5 29.179 85.404 31.357C88.3887 33.4543 90.6473 36.197 92.18 39.585C93.7933 42.8923 94.6 46.361 94.6 49.991C94.6 54.1857 93.511 58.1383 91.333 61.849C89.2357 65.479 86.2107 68.1813 82.258 69.956C87.1787 71.408 91.0507 74.1103 93.874 78.063C96.778 81.935 98.23 86.533 98.23 91.857ZM87.219 89.921C87.219 87.259 86.614 84.7987 85.404 82.54C84.2747 80.2813 82.7017 78.4663 80.685 77.095C78.749 75.7237 76.4903 75.038 73.909 75.038H43.175V104.562H73.062C75.724 104.562 78.1037 103.876 80.201 102.505C82.379 101.134 84.073 99.359 85.283 97.181C86.5737 94.9223 87.219 92.5023 87.219 89.921ZM43.175 37.528V66.205H70.521C73.1023 66.205 75.361 65.5597 77.297 64.269C79.3137 62.9783 80.8867 61.244 82.016 59.066C83.226 56.888 83.831 54.5083 83.831 51.927C83.831 49.1843 83.2663 46.7643 82.137 44.667C81.0883 42.489 79.596 40.7547 77.66 39.464C75.8047 38.1733 73.667 37.528 71.247 37.528H43.175ZM159.002 28.09H168.198L203.288 114H191.672L181.508 88.832H145.45L135.407 114H123.791L159.002 28.09ZM179.088 80.362L163.6 40.674L147.628 80.362H179.088ZM229.743 28.09L255.758 72.86L282.015 28.09H293.873L261.203 82.661V114H250.313V82.419L217.764 28.09H229.743ZM388.891 37.77H359.246V114H348.356V37.77H318.711V28.09H388.891V37.77Z" fill="#FFFFFF"/>
                    <path id="n" d="M541.175 48.176V114H530.285V28.09H539.481L591.995 95.245V28.211H602.885V114H592.963L541.175 48.176Z" fill="#FFFFFF"/>
                </g>
                <g id="android">
                    <path id="android_bod" fill-rule="evenodd" clip-rule="evenodd" d="M492.917 91.7766C494.162 89.1057 495.037 86.3174 495.529 83.4731C496.047 80.48 493.538 78 490.5 78V78C487.462 78 485.063 80.4962 484.345 83.4478C483.972 84.9841 483.44 86.4912 482.754 87.9498C481.272 91.1042 479.099 93.9705 476.36 96.3848C473.62 98.7991 470.368 100.714 466.789 102.021C463.21 103.327 459.374 104 455.5 104C451.626 104 447.79 103.327 444.211 102.021C440.632 100.714 437.38 98.7991 434.64 96.3848C431.901 93.9704 429.728 91.1042 428.246 87.9498C427.56 86.4912 427.028 84.9841 426.655 83.4478C425.937 80.4962 423.538 78 420.5 78V78C417.462 78 414.953 80.48 415.471 83.4731C415.963 86.3174 416.838 89.1057 418.083 91.7766C420.118 96.1443 423.101 100.113 426.862 103.456C430.623 106.799 435.088 109.45 440.001 111.26C444.915 113.069 450.181 114 455.5 114C460.819 114 466.085 113.069 470.999 111.26C475.912 109.45 480.377 106.799 484.138 103.456C487.899 100.113 490.882 96.1443 492.917 91.7766Z" fill="#FFFFFF"/>
                    <rect id="r-ant" width="3" height="16.5707" rx="1.5" transform="matrix(-0.866025 -0.5 -0.5 0.866025 482.884 26.5)" fill="#FFFFFF"/>
                    <rect id="l-ant" x="428" y="26.5" width="3" height="16.5707" rx="1.5" transform="rotate(-30 428 26.5)" fill="#FFFFFF"/>
                    <path id="top-bod" fill-rule="evenodd" clip-rule="evenodd" d="M492.917 57.2234C494.162 59.8943 495.037 62.6826 495.529 65.5269C496.047 68.52 493.538 71 490.5 71V71C487.462 71 485.063 68.5038 484.345 65.5522C483.972 64.0159 483.44 62.5088 482.754 61.0502C481.272 57.8958 479.099 55.0295 476.36 52.6152C473.62 50.2009 470.368 48.2858 466.789 46.9791C463.21 45.6725 459.374 45 455.5 45C451.626 45 447.79 45.6725 444.211 46.9791C440.632 48.2858 437.38 50.2009 434.64 52.6152C431.901 55.0296 429.728 57.8958 428.246 61.0502C427.56 62.5088 427.028 64.0159 426.655 65.5522C425.937 68.5038 423.538 71 420.5 71V71C417.462 71 414.953 68.52 415.471 65.5269C415.963 62.6826 416.838 59.8943 418.083 57.2234C420.118 52.8557 423.101 48.8871 426.862 45.5442C430.623 42.2013 435.088 39.5495 440.001 37.7403C444.915 35.9312 450.181 35 455.5 35C460.819 35 466.085 35.9312 470.999 37.7403C475.912 39.5495 480.377 42.2012 484.138 45.5442C487.899 48.8871 490.882 52.8557 492.917 57.2234Z" fill="#FFFFFF"/>
                </g>
                <g id="briefcase">
                    <path id="Subtract" fill-rule="evenodd" clip-rule="evenodd" d="M441.909 62.3182C438.646 62.3182 436 64.9638 436 68.2273V81.8182C436 85.0817 438.646 87.7273 441.909 87.7273H456.091H469.091C472.354 87.7273 475 85.0817 475 81.8182V68.2273C475 64.9638 472.354 62.3182 469.091 62.3182H441.909ZM455.5 79.1591C457.784 79.1591 459.636 77.3072 459.636 75.0228C459.636 72.7383 457.784 70.8864 455.5 70.8864C453.215 70.8864 451.364 72.7383 451.364 75.0228C451.364 77.3072 453.215 79.1591 455.5 79.1591Z" fill="#FFFFFF"/>
                    <rect id="handle" x="450.385" y="58.385" width="9.93455" height="8.16182" rx="1.865" stroke="#FFFFFF" stroke-width="2.77"/>
                </g>
            </g>
            {% else %}
            <g id="dynamic">
                <g id="text">
                    <path id="bayt" d="M98.23 91.857C98.23 96.2937 97.1007 100.166 94.842 103.473C92.5833 106.78 89.518 109.362 85.646 111.217C81.8547 113.072 77.66 114 73.062 114H32.285V28.09H74.998C79.0313 28.09 82.5 29.179 85.404 31.357C88.3887 33.4543 90.6473 36.197 92.18 39.585C93.7933 42.8923 94.6 46.361 94.6 49.991C94.6 54.1857 93.511 58.1383 91.333 61.849C89.2357 65.479 86.2107 68.1813 82.258 69.956C87.1787 71.408 91.0507 74.1103 93.874 78.063C96.778 81.935 98.23 86.533 98.23 91.857ZM87.219 89.921C87.219 87.259 86.614 84.7987 85.404 82.54C84.2747 80.2813 82.7017 78.4663 80.685 77.095C78.749 75.7237 76.4903 75.038 73.909 75.038H43.175V104.562H73.062C75.724 104.562 78.1037 103.876 80.201 102.505C82.379 101.134 84.073 99.359 85.283 97.181C86.5737 94.9223 87.219 92.5023 87.219 89.921ZM43.175 37.528V66.205H70.521C73.1023 66.205 75.361 65.5597 77.297 64.269C79.3137 62.9783 80.8867 61.244 82.016 59.066C83.226 56.888 83.831 54.5083 83.831 51.927C83.831 49.1843 83.2663 46.7643 82.137 44.667C81.0883 42.489 79.596 40.7547 77.66 39.464C75.8047 38.1733 73.667 37.528 71.247 37.528H43.175ZM159.002 28.09H168.198L203.288 114H191.672L181.508 88.832H145.45L135.407 114H123.791L159.002 28.09ZM179.088 80.362L163.6 40.674L147.628 80.362H179.088ZM229.743 28.09L255.758 72.86L282.015 28.09H293.873L261.203 82.661V114H250.313V82.419L217.764 28.09H229.743ZM388.891 37.77H359.246V114H348.356V37.77H318.711V28.09H388.891V37.77Z" fill="var(--text)"/>
                    <path id="n" d="M541.175 48.176V114H530.285V28.09H539.481L591.995 95.245V28.211H602.885V114H592.963L541.175 48.176Z" fill="var(--text)"/>
                </g>
                <g id="android">
                    <path id="android_bod" fill-rule="evenodd" clip-rule="evenodd" d="M492.917 91.7766C494.162 89.1057 495.037 86.3174 495.529 83.4731C496.047 80.48 493.538 78 490.5 78V78C487.462 78 485.063 80.4962 484.345 83.4478C483.972 84.9841 483.44 86.4912 482.754 87.9498C481.272 91.1042 479.099 93.9705 476.36 96.3848C473.62 98.7991 470.368 100.714 466.789 102.021C463.21 103.327 459.374 104 455.5 104C451.626 104 447.79 103.327 444.211 102.021C440.632 100.714 437.38 98.7991 434.64 96.3848C431.901 93.9704 429.728 91.1042 428.246 87.9498C427.56 86.4912 427.028 84.9841 426.655 83.4478C425.937 80.4962 423.538 78 420.5 78V78C417.462 78 414.953 80.48 415.471 83.4731C415.963 86.3174 416.838 89.1057 418.083 91.7766C420.118 96.1443 423.101 100.113 426.862 103.456C430.623 106.799 435.088 109.45 440.001 111.26C444.915 113.069 450.181 114 455.5 114C460.819 114 466.085 113.069 470.999 111.26C475.912 109.45 480.377 106.799 484.138 103.456C487.899 100.113 490.882 96.1443 492.917 91.7766Z" fill="var(--text)"/>
                    <rect id="r-ant" width="3" height="16.5707" rx="1.5" transform="matrix(-0.866025 -0.5 -0.5 0.866025 482.884 26.5)" fill="#FF4500"/>
                    <rect id="l-ant" x="428" y="26.5" width="3" height="16.5707" rx="1.5" transform="rotate(-30 428 26.5)" fill="#FF4500"/>
                    <path id="top-bod" fill-rule="evenodd" clip-rule="evenodd" d="M492.917 57.2234C494.162 59.8943 495.037 62.6826 495.529 65.5269C496.047 68.52 493.538 71 490.5 71V71C487.462 71 485.063 68.5038 484.345 65.5522C483.972 64.0159 483.44 62.5088 482.754 61.0502C481.272 57.8958 479.099 55.0295 476.36 52.6152C473.62 50.2009 470.368 48.2858 466.789 46.9791C463.21 45.6725 459.374 45 455.5 45C451.626 45 447.79 45.6725 444.211 46.9791C440.632 48.2858 437.38 50.2009 434.64 52.6152C431.901 55.0296 429.728 57.8958 428.246 61.0502C427.56 62.5088 427.028 64.0159 426.655 65.5522C425.937 68.5038 423.538 71 420.5 71V71C417.462 71 414.953 68.52 415.471 65.5269C415.963 62.6826 416.838 59.8943 418.083 57.2234C420.118 52.8557 423.101 48.8871 426.862 45.5442C430.623 42.2013 435.088 39.5495 440.001 37.7403C444.915 35.9312 450.181 35 455.5 35C460.819 35 466.085 35.9312 470.999 37.7403C475.912 39.5495 480.377 42.2012 484.138 45.5442C487.899 48.8871 490.882 52.8557 492.917 57.2234Z" fill="#FF4500"/>
                </g>
                <g id="briefcase">
                    <path id="Subtract" fill-rule="evenodd" clip-rule="evenodd" d="M441.909 62.3182C438.646 62.3182 436 64.9638 436 68.2273V81.8182C436 85.0817 438.646 87.7273 441.909 87.7273H456.091H469.091C472.354 87.7273 475 85.0817 475 81.8182V68.2273C475 64.9638 472.354 62.3182 469.091 62.3182H441.909ZM455.5 79.1591C457.784 79.1591 459.636 77.3072 459.636 75.0228C459.636 72.7383 457.784 70.8864 455.5 70.8864C453.215 70.8864 451.364 72.7383 451.364 75.0228C451.364 77.3072 453.215 79.1591 455.5 79.1591Z" fill="var(--text)"/>
                    <rect id="handle" x="450.385" y="58.385" width="9.93455" height="8.16182" rx="1.865" stroke="var(--text)" stroke-width="2.77"/>
                </g>
            </g>
            {% endif %}
            {% if page.url == '/' %}
            <path id="border" d="M615 5H20C11.7157 5 5 11.7157 5 20V122C5 130.284 11.7157 137 20 137H615C623.284 137 630 130.284 630 122V20C630 11.7157 623.284 5 615 5Z" stroke="#FFFFFF" stroke-width="10"/>
            {% else %}
            <path id="border" d="M615 5H20C11.7157 5 5 11.7157 5 20V122C5 130.284 11.7157 137 20 137H615C623.284 137 630 130.284 630 122V20C630 11.7157 623.284 5 615 5Z" stroke="#FF4500" stroke-width="10"/>
            {% endif %}
        </g>
    </g>
    <defs>
        <clipPath id="clip0_807_2">
            <rect width="635" height="142" />
        </clipPath>
    </defs>
</svg>
