<svg width="60" height="60" viewBox="0 0 512 512" fill="none" xmlns="http://www.w3.org/2000/svg">
    <g id="bayton_round_app" clip-path="url(#clip0_701_93)">
        <g id="dynamic">
            <g id="text">
                <path id="BAY" d="M180.186 210.223C180.186 214.586 179.075 218.394 176.854 221.647C174.632 224.9 171.618 227.438 167.81 229.263C164.081 231.088 159.956 232 155.434 232H115.331V147.51H157.338C161.304 147.51 164.716 148.581 167.572 150.723C170.507 152.786 172.728 155.483 174.236 158.815C175.822 162.068 176.616 165.479 176.616 169.049C176.616 173.174 175.545 177.062 173.403 180.711C171.34 184.281 168.365 186.939 164.478 188.684C169.317 190.112 173.125 192.77 175.902 196.657C178.758 200.465 180.186 204.987 180.186 210.223ZM169.357 208.319C169.357 205.701 168.762 203.281 167.572 201.06C166.461 198.839 164.914 197.054 162.931 195.705C161.027 194.356 158.805 193.682 156.267 193.682H126.041V222.718H155.434C158.052 222.718 160.392 222.044 162.455 220.695C164.597 219.346 166.263 217.601 167.453 215.459C168.722 213.238 169.357 210.858 169.357 208.319ZM126.041 156.792V184.995H152.935C155.473 184.995 157.695 184.36 159.599 183.091C161.582 181.822 163.129 180.116 164.24 177.974C165.43 175.832 166.025 173.492 166.025 170.953C166.025 168.256 165.469 165.876 164.359 163.813C163.327 161.671 161.86 159.965 159.956 158.696C158.131 157.427 156.029 156.792 153.649 156.792H126.041ZM251.258 147.51H260.302L294.812 232H283.388L273.392 207.248H237.93L228.053 232H216.629L251.258 147.51ZM271.012 198.918L255.78 159.886L240.072 198.918H271.012ZM332.135 147.51L357.72 191.54L383.543 147.51H395.205L363.075 201.179V232H352.365V200.941L320.354 147.51H332.135Z" fill="var(--text)"/>
                <path id="T" d="M184.043 288.03H154.888V363H144.178V288.03H115.023V278.51H184.043V288.03Z" fill="var(--text)"/>
                <path id="N" d="M334.825 298.264V363H324.115V278.51H333.159L384.805 344.555V278.629H395.515V363H385.757L334.825 298.264Z" fill="var(--text)"/>
            </g>
            <g id="icon">
                <path id="android_head" d="M267.14 309.495C266.487 309.484 265.852 309.28 265.315 308.909C264.778 308.537 264.362 308.016 264.121 307.409C263.879 306.803 263.822 306.138 263.956 305.5C264.09 304.861 264.411 304.276 264.876 303.818C265.342 303.36 265.933 303.051 266.574 302.928C267.215 302.804 267.878 302.873 268.48 303.126C269.083 303.378 269.597 303.803 269.958 304.347C270.32 304.89 270.513 305.529 270.513 306.181C270.505 307.068 270.145 307.915 269.513 308.537C268.88 309.158 268.027 309.503 267.14 309.495ZM229.859 309.495C229.206 309.484 228.571 309.28 228.034 308.909C227.497 308.537 227.081 308.016 226.84 307.409C226.598 306.803 226.541 306.138 226.675 305.5C226.809 304.861 227.13 304.276 227.595 303.818C228.061 303.36 228.652 303.051 229.293 302.928C229.934 302.804 230.597 302.873 231.199 303.126C231.802 303.378 232.316 303.803 232.677 304.347C233.039 304.89 233.232 305.529 233.232 306.181C233.224 307.068 232.864 307.915 232.232 308.537C231.599 309.158 230.746 309.503 229.859 309.495ZM268.35 289.538L275.09 278.068C275.182 277.912 275.242 277.738 275.265 277.558C275.289 277.378 275.277 277.195 275.23 277.02C275.182 276.845 275.1 276.681 274.988 276.538C274.876 276.394 274.737 276.275 274.578 276.186C274.257 276.003 273.876 275.952 273.518 276.046C273.16 276.139 272.853 276.369 272.662 276.686L265.836 288.302C260.372 285.9 254.468 284.659 248.5 284.659C242.531 284.659 236.627 285.9 231.163 288.302L224.338 276.689C224.147 276.372 223.84 276.142 223.482 276.049C223.124 275.955 222.743 276.006 222.422 276.189C222.263 276.278 222.124 276.397 222.012 276.54C221.9 276.683 221.817 276.847 221.769 277.022C221.721 277.198 221.709 277.381 221.733 277.561C221.757 277.741 221.816 277.915 221.908 278.071L228.65 289.538C222.86 292.605 217.934 297.078 214.325 302.547C210.717 308.015 208.541 314.304 208 320.833H248.5H289C288.458 314.304 286.283 308.016 282.674 302.547C279.066 297.078 274.14 292.605 268.35 289.538Z" fill="var(--text)"/>
                <path id="android_bod" fill-rule="evenodd" clip-rule="evenodd" d="M285.917 341.58C287.952 337.212 289 332.531 289 327.803L278 327.803C278 331.218 277.237 334.599 275.754 337.753C274.272 340.908 272.099 343.774 269.36 346.188C266.62 348.603 263.368 350.518 259.789 351.824C256.21 353.131 252.374 353.803 248.5 353.803C244.626 353.803 240.79 353.131 237.211 351.824C233.632 350.518 230.38 348.603 227.64 346.188C224.901 343.774 222.728 340.908 221.246 337.753C219.763 334.599 219 331.218 219 327.803H208C208 332.531 209.048 337.212 211.083 341.58C213.118 345.948 216.101 349.916 219.862 353.259C223.623 356.602 228.088 359.254 233.001 361.063C237.915 362.872 243.181 363.803 248.5 363.803C253.819 363.803 259.085 362.872 263.999 361.063C268.912 359.254 273.377 356.602 277.138 353.259C280.899 349.916 283.882 345.948 285.917 341.58Z" fill="var(--text)"/>
            </g>
        </g>
        <g id="outline">
            <rect id="Rectangle 4" x="60" y="60" width="392" height="392" rx="84" stroke="#FF4500" stroke-width="22"/>
            <circle id="Ellipse 3" cx="256" cy="256" r="244" stroke="#FF4500" stroke-width="24"/>
            <rect id="Rectangle 5" x="142" y="23" width="228" height="41" rx="18" fill="#FF4500"/>
            <rect id="Rectangle 6" x="142" y="447" width="228" height="41" rx="18" fill="#FF4500"/>
            <rect id="Rectangle 7" x="489" y="142" width="228" height="41" rx="18" transform="rotate(90 489 142)" fill="#FF4500"/>
            <rect id="Rectangle 8" x="63" y="142" width="228" height="41" rx="18" transform="rotate(90 63 142)" fill="#FF4500"/>
        </g>
    </g>
    <defs>
        <clipPath id="clip0_701_93">
            <rect width="512" height="512" fill=""/>
        </clipPath>
    </defs>
</svg>
