<svg xmlns="http://www.w3.org/2000/svg" xmlns:xlink="http://www.w3.org/1999/xlink" width="635" height="142" viewBox="0 0 635 142"><defs><clipPath id="b"><rect width="635" height="142"/></clipPath></defs><g id="a" clip-path="url(#b)"><rect width="635" height="142" fill="#fff"/><g transform="translate(-1213 -34)"><g transform="translate(1093 -230)"><g transform="translate(120 264)" fill="#00284c" stroke="#ff4500" stroke-width="10"><rect width="635" height="142" stroke="none"/><rect x="5" y="5" width="625" height="132" fill="none"/></g><g transform="translate(0.65 0.1)"><g transform="translate(139.7 263.5)"><text transform="translate(0.15 114.4)" fill="#fff" font-size="121" font-family="Raleway-Medium, Raleway" font-weight="500" letter-spacing="0.178em"><tspan x="0" y="0">BAYTON</tspan></text></g></g></g><rect width="97" height="83" transform="translate(1328 81)" fill="#0c274b"/><path d="M10.5,88.4,3.97,93.344a2.511,2.511,0,0,1-1.53.508A2.381,2.381,0,0,1,0,91.545v-54C0,16.815,17.784,0,39.7,0s39.7,16.815,39.7,37.541v54a2.381,2.381,0,0,1-2.44,2.307,2.511,2.511,0,0,1-1.53-.508L68.9,88.4a4.055,4.055,0,0,0-5.542.665l-7.775,9.8a3.425,3.425,0,0,1-5.294,0L42.35,88.846a3.425,3.425,0,0,0-5.294,0L29.116,98.857a3.425,3.425,0,0,1-5.294,0l-7.775-9.8a3.988,3.988,0,0,0-3.1-1.466,4.057,4.057,0,0,0-2.419.8ZM33.086,37.541a6.438,6.438,0,0,0-6.617-6.257,6.267,6.267,0,1,0,0,12.514A6.438,6.438,0,0,0,33.086,37.541ZM52.938,43.8a6.267,6.267,0,1,0-6.617-6.257A6.438,6.438,0,0,0,52.938,43.8Z" transform="translate(1331.211 54.282)" fill="#fff"/><g transform="translate(0 -939)"><g transform="translate(1627 1006.5)" fill="#0c274b" stroke="#fff" stroke-width="11"><circle cx="40.5" cy="40.5" r="40.5" stroke="none"/><circle cx="40.5" cy="40.5" r="35" fill="none"/></g><rect width="97" height="57" transform="translate(1620 995)" fill="#0c274b"/><path d="M59.45,33.457a3.314,3.314,0,1,1,3.373-3.314,3.344,3.344,0,0,1-3.373,3.314m-37.281,0a3.314,3.314,0,1,1,3.373-3.314,3.344,3.344,0,0,1-3.373,3.314M60.66,13.5,67.4,2.03A1.365,1.365,0,0,0,66.888.148a1.416,1.416,0,0,0-1.916.5L58.146,12.264a43.069,43.069,0,0,0-34.673,0L16.648.651a1.416,1.416,0,0,0-1.916-.5,1.365,1.365,0,0,0-.514,1.882L20.96,13.5A39.065,39.065,0,0,0,.31,44.795h81A39.069,39.069,0,0,0,60.66,13.5" transform="translate(1626.69 1000.235)" fill="#fff"/></g></g></g></svg>