<svg width="347" height="347" viewBox="0 0 347 347" fill="none" xmlns="http://www.w3.org/2000/svg">
<g clip-path="url(#clip0_1_362)">
<path d="M347 0H0V347H347V0Z" fill="white"/>
<path d="M347 0H0V347H347V0Z" fill="white"/>
<path d="M342 5H5V342H342V5Z" stroke="#FF4500" stroke-width="10"/>
<path d="M98.1857 95.223C98.1857 98.4757 97.5114 101.451 96.1627 104.148C94.8934 106.845 93.1084 109.146 90.8077 111.05C88.5864 112.954 85.9684 114.422 82.9537 115.453C80.0184 116.484 76.845 117 73.4337 117H33.3307V32.51H75.3377C78.273 32.51 80.9307 33.1447 83.3107 34.414C85.6907 35.6833 87.7137 37.3493 89.3797 39.412C91.0457 41.3953 92.315 43.696 93.1877 46.314C94.1397 48.8527 94.6157 51.431 94.6157 54.049C94.6157 58.2537 93.5447 62.141 91.4027 65.711C89.34 69.281 86.365 71.9387 82.4777 73.684C87.317 75.112 91.125 77.7697 93.9017 81.657C96.7577 85.465 98.1857 89.987 98.1857 95.223ZM87.3567 93.319C87.3567 91.415 86.9997 89.5903 86.2857 87.845C85.651 86.0203 84.7387 84.4337 83.5487 83.085C82.438 81.7363 81.0894 80.6653 79.5027 79.872C77.916 79.0787 76.1707 78.682 74.2667 78.682H44.0407V107.718H73.4337C75.417 107.718 77.2417 107.321 78.9077 106.528C80.5737 105.735 82.0414 104.703 83.3107 103.434C84.58 102.085 85.5717 100.538 86.2857 98.793C86.9997 97.0477 87.3567 95.223 87.3567 93.319ZM44.0407 41.792V69.995H70.9347C72.8387 69.995 74.584 69.638 76.1707 68.924C77.7574 68.1307 79.106 67.0993 80.2167 65.83C81.4067 64.5607 82.319 63.093 82.9537 61.427C83.6677 59.6817 84.0247 57.857 84.0247 55.953C84.0247 53.9697 83.7074 52.1053 83.0727 50.36C82.438 48.6147 81.5654 47.1073 80.4547 45.838C79.4234 44.5687 78.1144 43.577 76.5277 42.863C75.0204 42.149 73.394 41.792 71.6487 41.792H44.0407ZM169.258 32.51H178.302L212.812 117H201.388L191.392 92.248H155.93L146.053 117H134.629L169.258 32.51ZM189.012 83.918L173.78 44.886L158.072 83.918H189.012ZM250.135 32.51L275.72 76.54L301.543 32.51H313.205L281.075 86.179V117H270.365V85.941L238.354 32.51H250.135Z" fill="#00284C"/>
<path d="M102.043 173.03H72.888V248H62.178V173.03H33.023V163.51H102.043V173.03ZM166.752 248.595C160.802 248.595 155.368 247.405 150.449 245.025C145.61 242.566 141.445 239.353 137.954 235.386C134.463 231.34 131.766 226.739 129.862 221.582C127.958 216.425 127.006 211.15 127.006 205.755C127.006 200.122 127.998 194.728 129.981 189.571C132.044 184.414 134.86 179.853 138.43 175.886C142 171.919 146.205 168.786 151.044 166.485C155.963 164.105 161.278 162.915 166.99 162.915C172.94 162.915 178.335 164.184 183.174 166.723C188.013 169.182 192.178 172.435 195.669 176.481C199.16 180.527 201.857 185.128 203.761 190.285C205.665 195.362 206.617 200.559 206.617 205.874C206.617 211.507 205.586 216.901 203.523 222.058C201.54 227.215 198.763 231.776 195.193 235.743C191.702 239.63 187.498 242.764 182.579 245.144C177.74 247.445 172.464 248.595 166.752 248.595ZM137.835 205.755C137.835 210.039 138.509 214.204 139.858 218.25C141.286 222.217 143.269 225.747 145.808 228.841C148.347 231.935 151.401 234.394 154.971 236.219C158.541 238.044 162.508 238.956 166.871 238.956C171.393 238.956 175.439 238.004 179.009 236.1C182.579 234.117 185.594 231.578 188.053 228.484C190.592 225.311 192.496 221.741 193.765 217.774C195.114 213.807 195.788 209.801 195.788 205.755C195.788 201.471 195.074 197.346 193.646 193.379C192.297 189.333 190.314 185.803 187.696 182.788C185.157 179.694 182.103 177.235 178.533 175.41C175.042 173.585 171.155 172.673 166.871 172.673C162.349 172.673 158.303 173.625 154.733 175.529C151.163 177.433 148.109 179.932 145.57 183.026C143.111 186.12 141.207 189.65 139.858 193.617C138.509 197.584 137.835 201.63 137.835 205.755ZM253.033 183.502V248H242.323V163.51H250.653L303.013 229.317V163.629H313.723V248H304.679L253.033 183.502Z" fill="#0C274B"/>
<path d="M9.649 276H341.349V340.722H9.649V276Z" fill="#FF4500"/>
<path d="M101 276H31V317H101V276Z" fill="#FF4500"/>
<path d="M100.5 276.5H31.5V316.5H100.5V276.5Z" stroke="#FF4500"/>
<path d="M166.5 248.5C188.868 248.5 207 230.368 207 208C207 185.632 188.868 167.5 166.5 167.5C144.132 167.5 126 185.632 126 208C126 230.368 144.132 248.5 166.5 248.5Z" fill="white"/>
<path d="M166.5 243C185.83 243 201.5 227.33 201.5 208C201.5 188.67 185.83 173 166.5 173C147.17 173 131.5 188.67 131.5 208C131.5 227.33 147.17 243 166.5 243Z" stroke="#00284C" stroke-width="11"/>
<path d="M216 156H119V213H216V156Z" fill="white"/>
<path d="M185.14 194.692C184.487 194.68 183.852 194.476 183.315 194.105C182.778 193.734 182.362 193.212 182.121 192.606C181.879 191.999 181.822 191.335 181.956 190.696C182.09 190.057 182.411 189.472 182.876 189.015C183.342 188.557 183.933 188.247 184.574 188.124C185.215 188.001 185.878 188.07 186.48 188.322C187.083 188.575 187.597 189 187.958 189.543C188.32 190.087 188.513 190.725 188.513 191.378C188.505 192.265 188.145 193.112 187.513 193.733C186.88 194.355 186.027 194.7 185.14 194.692M147.859 194.692C147.206 194.68 146.571 194.476 146.034 194.105C145.497 193.734 145.081 193.212 144.84 192.606C144.598 191.999 144.541 191.335 144.675 190.696C144.809 190.057 145.13 189.472 145.595 189.015C146.061 188.557 146.652 188.247 147.293 188.124C147.934 188.001 148.597 188.07 149.199 188.322C149.802 188.575 150.316 189 150.677 189.543C151.039 190.087 151.232 190.725 151.232 191.378C151.224 192.265 150.864 193.112 150.232 193.733C149.599 194.355 148.746 194.7 147.859 194.692M186.35 174.735L193.09 163.265C193.182 163.108 193.242 162.935 193.265 162.755C193.289 162.575 193.277 162.392 193.23 162.216C193.182 162.041 193.1 161.877 192.988 161.734C192.876 161.591 192.737 161.472 192.578 161.383C192.257 161.199 191.876 161.149 191.518 161.242C191.16 161.336 190.853 161.566 190.662 161.883L183.836 173.499C178.372 171.096 172.468 169.856 166.5 169.856C160.531 169.856 154.627 171.096 149.163 173.499L142.338 161.886C142.147 161.569 141.84 161.339 141.482 161.245C141.124 161.152 140.743 161.202 140.422 161.386C140.263 161.474 140.124 161.594 140.012 161.737C139.9 161.88 139.817 162.044 139.769 162.219C139.721 162.394 139.709 162.577 139.733 162.757C139.757 162.938 139.816 163.111 139.908 163.268L146.65 174.735C140.86 177.801 135.934 182.274 132.325 187.743C128.717 193.212 126.541 199.5 126 206.03H207C206.458 199.501 204.283 193.212 200.674 187.743C197.066 182.275 192.14 177.801 186.35 174.735" fill="#00284C"/>
</g>
<defs>
<clipPath id="clip0_1_362">
<rect width="347" height="347" fill="white"/>
</clipPath>
</defs>
</svg>
