<svg width="170" height="38" viewBox="0 0 3175 710" fill="none" xmlns="http://www.w3.org/2000/svg">
    <g id="bayton_swirl_2_rectangle" clip-path="url(#clip0_2698_216)">
        {% if page.url == '/' %}
        <g id="dynamic">
            <g id="text">
                <g id="bayt">
                    <path d="M490.725 460.285C490.725 482.469 485.078 501.829 473.785 518.365C462.492 534.902 447.165 547.809 427.805 557.085C408.848 566.362 387.875 571 364.885 571H161V141.45H374.565C394.732 141.45 412.075 146.895 426.595 157.785C441.518 168.272 452.812 181.985 460.475 198.925C468.542 215.462 472.575 232.805 472.575 250.955C472.575 271.929 467.13 291.692 456.24 310.245C445.753 328.395 430.628 341.907 410.865 350.78C435.468 358.04 454.828 371.552 468.945 391.315C483.465 410.675 490.725 433.665 490.725 460.285ZM435.67 450.605C435.67 437.295 432.645 424.994 426.595 413.7C420.948 402.407 413.083 393.332 403 386.475C393.32 379.619 382.027 376.19 369.12 376.19H215.45V523.81H364.885C378.195 523.81 390.093 520.382 400.58 513.525C411.47 506.669 419.94 497.795 425.99 486.905C432.443 475.612 435.67 463.512 435.67 450.605ZM215.45 188.64V332.025H352.18C365.087 332.025 376.38 328.799 386.06 322.345C396.143 315.892 404.008 307.22 409.655 296.33C415.705 285.44 418.73 273.542 418.73 260.635C418.73 246.922 415.907 234.822 410.26 224.335C405.017 213.445 397.555 204.774 387.875 198.32C378.598 191.867 367.91 188.64 355.81 188.64H215.45Z" fill="#FFFFFF"/>
                    <path d="M794.586 141.45H840.566L1016.02 571H957.936L907.116 445.16H726.826L676.611 571H618.531L794.586 141.45ZM895.016 402.81L817.576 204.37L737.716 402.81H895.016Z" fill="#FFFFFF"/>
                    <path d="M1148.29 141.45L1278.36 365.3L1409.65 141.45H1468.94L1305.59 414.305V571H1251.14V413.095L1088.39 141.45H1148.29Z" fill="#FFFFFF"/>
                    <path d="M1944.03 189.85H1795.8V571H1741.35V189.85H1593.13V141.45H1944.03V189.85Z" fill="#FFFFFF"/>
                </g>
                <path id="n" d="M2705.45 241.88V571H2651V141.45H2696.98L2959.55 477.225V142.055H3014V571H2964.39L2705.45 241.88Z" fill="#FFFFFF"/>
            </g>
            <g id="swirl_2">
                <path id="swirl_orange" d="M2161.06 184.031C2177.72 170.204 2196.22 158.951 2216.27 150.471C2243.67 138.878 2272.78 133 2302.76 133C2332.75 133 2361.85 138.878 2389.26 150.471C2409.31 158.951 2427.81 170.204 2444.47 184.031C2449.79 188.452 2454.93 193.136 2459.87 198.076C2480.27 218.476 2496.29 242.236 2507.48 268.694C2518.67 295.135 2524.53 323.158 2524.93 352.022C2524.94 352.479 2524.94 352.939 2524.95 353.396C2524.95 353.523 2524.95 353.65 2524.95 353.78C2524.95 354.247 2524.95 354.717 2524.95 355.184C2524.95 355.651 2524.95 356.122 2524.95 356.589C2524.95 356.719 2524.95 356.846 2524.95 356.972C2524.94 357.429 2524.94 357.89 2524.93 358.347C2523.3 460.096 2443.52 543.204 2343.12 550.137C2330.06 551.057 2315.81 550.597 2302.76 548.775C2265.48 543.648 2231.51 527.958 2203.99 504.833C2232.34 523.605 2266.3 534.54 2302.76 534.54C2339.23 534.54 2373.19 523.602 2401.53 504.833C2449.45 473.1 2481.32 418.976 2482.1 357.499C2482.11 356.729 2482.12 355.955 2482.12 355.184C2482.12 354.414 2482.11 353.64 2482.1 352.869C2481.81 325.864 2476.37 299.662 2465.92 274.949C2455.54 250.402 2440.67 228.358 2421.75 209.429C2402.82 190.5 2380.78 175.638 2356.23 165.256C2351.9 163.428 2347.53 161.753 2343.12 160.229C2330 155.708 2316.52 152.546 2302.76 150.768C2293.94 149.627 2285.01 149.053 2275.99 149.053C2248.16 149.053 2221.17 154.504 2195.75 165.253C2183.54 170.417 2171.95 176.689 2161.05 184.021L2161.06 184.031Z" fill="#FF4500"/>
                <path id="swirl_black" d="M2080.57 355.191C2080.57 354.724 2080.57 354.254 2080.58 353.787C2080.58 353.657 2080.58 353.53 2080.58 353.403C2080.59 352.946 2080.59 352.486 2080.6 352.029C2080.6 351.688 2080.61 351.348 2080.62 351.008C2080.62 350.938 2080.62 350.864 2080.62 350.798C2080.63 350.594 2080.63 350.391 2080.64 350.184C2080.65 349.984 2080.65 349.78 2080.66 349.577C2080.68 348.859 2080.7 348.145 2080.73 347.428C2080.75 347.031 2080.76 346.634 2080.78 346.24C2080.79 345.957 2080.8 345.673 2080.82 345.39C2080.89 343.905 2080.98 342.427 2081.09 340.953C2081.11 340.703 2081.12 340.449 2081.15 340.199C2081.17 339.845 2081.2 339.495 2081.23 339.141C2081.25 338.898 2081.27 338.651 2081.29 338.407C2081.35 337.75 2081.4 337.093 2081.47 336.436C2081.56 335.495 2081.66 334.558 2081.76 333.62C2081.93 332.142 2082.11 330.674 2082.3 329.207C2082.33 328.99 2082.36 328.773 2082.39 328.559C2083.55 320.079 2085.25 311.772 2087.47 303.672C2087.57 303.302 2087.67 302.935 2087.78 302.568C2087.88 302.198 2087.98 301.831 2088.09 301.464C2088.29 300.753 2088.5 300.039 2088.71 299.329C2089.26 297.481 2089.85 295.639 2090.45 293.814C2090.68 293.124 2090.91 292.44 2091.15 291.749C2091.53 290.638 2091.92 289.534 2092.32 288.433C2092.67 287.479 2093.02 286.532 2093.39 285.588C2093.55 285.161 2093.72 284.734 2093.88 284.307C2094 284.016 2094.11 283.726 2094.23 283.433C2094.53 282.672 2094.83 281.915 2095.14 281.161C2095.57 280.117 2096.01 279.079 2096.45 278.045C2096.75 277.358 2097.05 276.67 2097.36 275.98C2097.51 275.636 2097.66 275.296 2097.82 274.952C2097.98 274.609 2098.13 274.268 2098.29 273.928C2098.44 273.588 2098.6 273.248 2098.76 272.907C2099.07 272.227 2099.39 271.55 2099.72 270.876C2100.2 269.865 2100.7 268.854 2101.2 267.85C2101.37 267.516 2101.54 267.179 2101.71 266.849C2102.22 265.852 2102.73 264.854 2103.26 263.863C2103.43 263.533 2103.61 263.203 2103.79 262.876C2103.92 262.622 2104.06 262.369 2104.2 262.115C2105.02 260.594 2105.87 259.086 2106.74 257.595C2106.9 257.321 2107.05 257.051 2107.21 256.781C2107.83 255.727 2108.46 254.676 2109.09 253.632C2109.24 253.398 2109.38 253.165 2109.52 252.931C2110.33 251.623 2111.15 250.326 2111.99 249.038C2112.17 248.761 2112.35 248.477 2112.53 248.201C2112.68 247.977 2112.82 247.757 2112.97 247.533C2113.16 247.253 2113.35 246.97 2113.54 246.686C2114.18 245.732 2114.83 244.784 2115.48 243.844C2115.69 243.54 2115.91 243.233 2116.12 242.93C2116.55 242.322 2116.98 241.719 2117.42 241.115C2117.63 240.811 2117.85 240.511 2118.07 240.214C2118.73 239.313 2119.39 238.419 2120.07 237.532C2120.29 237.235 2120.52 236.941 2120.74 236.644C2121.41 235.76 2122.1 234.883 2122.79 234.009C2123.02 233.719 2123.25 233.429 2123.49 233.138C2123.69 232.878 2123.9 232.621 2124.11 232.364C2124.37 232.047 2124.63 231.727 2124.89 231.41C2125.1 231.147 2125.32 230.89 2125.53 230.63C2125.79 230.319 2126.05 230.009 2126.31 229.702C2126.55 229.419 2126.79 229.135 2127.03 228.851C2127.27 228.571 2127.51 228.288 2127.75 228.004C2128.23 227.44 2128.72 226.883 2129.21 226.326C2129.45 226.049 2129.7 225.769 2129.95 225.492C2130.69 224.661 2131.43 223.837 2132.19 223.02C2132.44 222.746 2132.69 222.473 2132.94 222.203C2133.44 221.659 2133.95 221.118 2134.46 220.585C2134.72 220.318 2134.98 220.051 2135.23 219.781C2135.49 219.514 2135.75 219.247 2136.01 218.98C2136.26 218.717 2136.52 218.45 2136.78 218.186C2137.29 217.666 2137.81 217.149 2138.32 216.635C2138.6 216.365 2138.87 216.094 2139.15 215.827C2139.41 215.567 2139.68 215.307 2139.94 215.05C2140.47 214.533 2141 214.019 2141.54 213.512C2141.81 213.255 2142.08 213.002 2142.35 212.748C2146.01 209.312 2149.8 206.02 2153.71 202.877C2154 202.64 2154.29 202.41 2154.58 202.18C2156.49 200.658 2158.43 199.174 2160.4 197.726C2160.62 197.566 2160.84 197.406 2161.06 197.246C2161.28 197.086 2161.49 196.929 2161.71 196.772C2161.96 196.588 2162.22 196.408 2162.47 196.225C2163.29 195.634 2164.13 195.047 2164.97 194.467C2165.23 194.287 2165.49 194.106 2165.75 193.93C2166.25 193.579 2166.77 193.232 2167.28 192.885C2167.58 192.689 2167.86 192.498 2168.16 192.305C2168.33 192.192 2168.5 192.078 2168.67 191.961C2168.94 191.791 2169.19 191.618 2169.46 191.448C2169.77 191.244 2170.08 191.041 2170.39 190.84C2171.34 190.227 2172.3 189.623 2173.26 189.026C2173.56 188.839 2173.87 188.649 2174.17 188.462C2174.69 188.145 2175.22 187.825 2175.74 187.511C2176.06 187.318 2176.39 187.124 2176.71 186.934C2178.96 185.6 2181.24 184.305 2183.55 183.061C2183.79 182.931 2184.03 182.801 2184.27 182.674C2184.8 182.394 2185.33 182.113 2185.85 181.84C2186.18 181.666 2186.52 181.493 2186.85 181.323C2188.51 180.465 2190.19 179.635 2191.88 178.824C2192.22 178.664 2192.56 178.5 2192.89 178.344C2193.23 178.183 2193.57 178.027 2193.91 177.867C2194.23 177.72 2194.54 177.573 2194.86 177.426C2195.98 176.912 2197.11 176.409 2198.24 175.918C2198.51 175.798 2198.78 175.681 2199.05 175.565C2200.43 174.971 2201.82 174.394 2203.22 173.83C2203.56 173.686 2203.91 173.55 2204.27 173.41C2206.3 172.606 2208.34 171.835 2210.4 171.101C2210.76 170.971 2211.12 170.848 2211.48 170.721C2211.77 170.617 2212.05 170.517 2212.34 170.417C2212.77 170.27 2213.2 170.124 2213.63 169.977C2213.9 169.887 2214.17 169.793 2214.44 169.703C2214.6 169.653 2214.76 169.6 2214.92 169.546C2215.52 169.35 2216.12 169.153 2216.73 168.963C2219.13 168.195 2221.55 167.475 2223.99 166.801C2224.24 166.731 2224.49 166.661 2224.74 166.594C2226.16 166.207 2227.59 165.833 2229.03 165.48C2229.25 165.423 2229.47 165.37 2229.69 165.32C2229.89 165.27 2230.09 165.22 2230.29 165.173C2230.99 165.003 2231.69 164.839 2232.4 164.679C2236.19 163.812 2240.02 163.054 2243.9 162.411C2244.26 162.351 2244.63 162.29 2244.99 162.23C2245.14 162.207 2245.29 162.184 2245.44 162.16C2245.87 162.09 2246.3 162.024 2246.73 161.96C2247.09 161.907 2247.45 161.854 2247.82 161.8C2248.39 161.717 2248.96 161.637 2249.54 161.56C2253.79 160.983 2258.09 160.539 2262.42 160.239C2266.91 159.932 2271.44 159.772 2276.01 159.772C2285.09 159.772 2294.02 160.396 2302.78 161.6C2340.06 166.727 2374.03 182.417 2401.55 205.542C2373.2 186.77 2339.25 175.835 2302.78 175.835C2266.31 175.835 2232.35 186.774 2204.01 205.542C2156.09 237.275 2124.22 291.399 2123.44 352.876C2123.43 353.647 2123.42 354.42 2123.42 355.191C2123.42 355.962 2123.43 356.736 2123.44 357.506C2123.73 384.512 2129.17 410.713 2139.62 435.427C2150 459.973 2164.87 482.018 2183.8 500.947C2202.72 519.875 2224.77 534.737 2249.32 545.119C2253.64 546.947 2258.01 548.622 2262.42 550.147C2309.96 566.643 2363.65 564.785 2409.79 545.119C2422 539.955 2433.59 533.683 2444.49 526.351C2427.83 540.179 2409.33 551.431 2389.28 559.911C2361.85 571.501 2332.75 577.379 2302.76 577.379C2272.77 577.379 2243.68 571.501 2216.27 559.908C2196.22 551.428 2177.72 540.175 2161.06 526.347C2155.73 521.927 2150.59 517.243 2145.65 512.303C2125.25 491.903 2109.23 468.143 2098.04 441.685C2086.68 414.823 2080.81 386.33 2080.58 356.979C2080.58 356.852 2080.58 356.726 2080.58 356.596C2080.58 356.129 2080.57 355.658 2080.57 355.191Z" fill="#FFFFFF"/>
            </g>
        </g>
        <path id="border" d="M3075 25H100C58.5786 25 25 58.5787 25 100V610C25 651.421 58.5786 685 100 685H3075C3116.42 685 3150 651.421 3150 610V100C3150 58.5786 3116.42 25 3075 25Z" stroke="#FFFFFF" stroke-width="50"/>
        {% else %}
        <g id="dynamic">
            <g id="text">
                <g id="bayt">
                    <path d="M490.725 460.285C490.725 482.469 485.078 501.829 473.785 518.365C462.492 534.902 447.165 547.809 427.805 557.085C408.848 566.362 387.875 571 364.885 571H161V141.45H374.565C394.732 141.45 412.075 146.895 426.595 157.785C441.518 168.272 452.812 181.985 460.475 198.925C468.542 215.462 472.575 232.805 472.575 250.955C472.575 271.929 467.13 291.692 456.24 310.245C445.753 328.395 430.628 341.907 410.865 350.78C435.468 358.04 454.828 371.552 468.945 391.315C483.465 410.675 490.725 433.665 490.725 460.285ZM435.67 450.605C435.67 437.295 432.645 424.994 426.595 413.7C420.948 402.407 413.083 393.332 403 386.475C393.32 379.619 382.027 376.19 369.12 376.19H215.45V523.81H364.885C378.195 523.81 390.093 520.382 400.58 513.525C411.47 506.669 419.94 497.795 425.99 486.905C432.443 475.612 435.67 463.512 435.67 450.605ZM215.45 188.64V332.025H352.18C365.087 332.025 376.38 328.799 386.06 322.345C396.143 315.892 404.008 307.22 409.655 296.33C415.705 285.44 418.73 273.542 418.73 260.635C418.73 246.922 415.907 234.822 410.26 224.335C405.017 213.445 397.555 204.774 387.875 198.32C378.598 191.867 367.91 188.64 355.81 188.64H215.45Z" fill="var(--text)"/>
                    <path d="M794.586 141.45H840.566L1016.02 571H957.936L907.116 445.16H726.826L676.611 571H618.531L794.586 141.45ZM895.016 402.81L817.576 204.37L737.716 402.81H895.016Z" fill="var(--text)"/>
                    <path d="M1148.29 141.45L1278.36 365.3L1409.65 141.45H1468.94L1305.59 414.305V571H1251.14V413.095L1088.39 141.45H1148.29Z" fill="var(--text)"/>
                    <path d="M1944.03 189.85H1795.8V571H1741.35V189.85H1593.13V141.45H1944.03V189.85Z" fill="var(--text)"/>
                </g>
                <path id="n" d="M2705.45 241.88V571H2651V141.45H2696.98L2959.55 477.225V142.055H3014V571H2964.39L2705.45 241.88Z" fill="var(--text)"/>
            </g>
            <g id="swirl_2">
                <path id="swirl_orange" d="M2161.06 184.031C2177.72 170.204 2196.22 158.951 2216.27 150.471C2243.67 138.878 2272.78 133 2302.76 133C2332.75 133 2361.85 138.878 2389.26 150.471C2409.31 158.951 2427.81 170.204 2444.47 184.031C2449.79 188.452 2454.93 193.136 2459.87 198.076C2480.27 218.476 2496.29 242.236 2507.48 268.694C2518.67 295.135 2524.53 323.158 2524.93 352.022C2524.94 352.479 2524.94 352.939 2524.95 353.396C2524.95 353.523 2524.95 353.65 2524.95 353.78C2524.95 354.247 2524.95 354.717 2524.95 355.184C2524.95 355.651 2524.95 356.122 2524.95 356.589C2524.95 356.719 2524.95 356.846 2524.95 356.972C2524.94 357.429 2524.94 357.89 2524.93 358.347C2523.3 460.096 2443.52 543.204 2343.12 550.137C2330.06 551.057 2315.81 550.597 2302.76 548.775C2265.48 543.648 2231.51 527.958 2203.99 504.833C2232.34 523.605 2266.3 534.54 2302.76 534.54C2339.23 534.54 2373.19 523.602 2401.53 504.833C2449.45 473.1 2481.32 418.976 2482.1 357.499C2482.11 356.729 2482.12 355.955 2482.12 355.184C2482.12 354.414 2482.11 353.64 2482.1 352.869C2481.81 325.864 2476.37 299.662 2465.92 274.949C2455.54 250.402 2440.67 228.358 2421.75 209.429C2402.82 190.5 2380.78 175.638 2356.23 165.256C2351.9 163.428 2347.53 161.753 2343.12 160.229C2330 155.708 2316.52 152.546 2302.76 150.768C2293.94 149.627 2285.01 149.053 2275.99 149.053C2248.16 149.053 2221.17 154.504 2195.75 165.253C2183.54 170.417 2171.95 176.689 2161.05 184.021L2161.06 184.031Z" fill="#FF4500"/>
                <path id="swirl_black" d="M2080.57 355.191C2080.57 354.724 2080.57 354.254 2080.58 353.787C2080.58 353.657 2080.58 353.53 2080.58 353.403C2080.59 352.946 2080.59 352.486 2080.6 352.029C2080.6 351.688 2080.61 351.348 2080.62 351.008C2080.62 350.938 2080.62 350.864 2080.62 350.798C2080.63 350.594 2080.63 350.391 2080.64 350.184C2080.65 349.984 2080.65 349.78 2080.66 349.577C2080.68 348.859 2080.7 348.145 2080.73 347.428C2080.75 347.031 2080.76 346.634 2080.78 346.24C2080.79 345.957 2080.8 345.673 2080.82 345.39C2080.89 343.905 2080.98 342.427 2081.09 340.953C2081.11 340.703 2081.12 340.449 2081.15 340.199C2081.17 339.845 2081.2 339.495 2081.23 339.141C2081.25 338.898 2081.27 338.651 2081.29 338.407C2081.35 337.75 2081.4 337.093 2081.47 336.436C2081.56 335.495 2081.66 334.558 2081.76 333.62C2081.93 332.142 2082.11 330.674 2082.3 329.207C2082.33 328.99 2082.36 328.773 2082.39 328.559C2083.55 320.079 2085.25 311.772 2087.47 303.672C2087.57 303.302 2087.67 302.935 2087.78 302.568C2087.88 302.198 2087.98 301.831 2088.09 301.464C2088.29 300.753 2088.5 300.039 2088.71 299.329C2089.26 297.481 2089.85 295.639 2090.45 293.814C2090.68 293.124 2090.91 292.44 2091.15 291.749C2091.53 290.638 2091.92 289.534 2092.32 288.433C2092.67 287.479 2093.02 286.532 2093.39 285.588C2093.55 285.161 2093.72 284.734 2093.88 284.307C2094 284.016 2094.11 283.726 2094.23 283.433C2094.53 282.672 2094.83 281.915 2095.14 281.161C2095.57 280.117 2096.01 279.079 2096.45 278.045C2096.75 277.358 2097.05 276.67 2097.36 275.98C2097.51 275.636 2097.66 275.296 2097.82 274.952C2097.98 274.609 2098.13 274.268 2098.29 273.928C2098.44 273.588 2098.6 273.248 2098.76 272.907C2099.07 272.227 2099.39 271.55 2099.72 270.876C2100.2 269.865 2100.7 268.854 2101.2 267.85C2101.37 267.516 2101.54 267.179 2101.71 266.849C2102.22 265.852 2102.73 264.854 2103.26 263.863C2103.43 263.533 2103.61 263.203 2103.79 262.876C2103.92 262.622 2104.06 262.369 2104.2 262.115C2105.02 260.594 2105.87 259.086 2106.74 257.595C2106.9 257.321 2107.05 257.051 2107.21 256.781C2107.83 255.727 2108.46 254.676 2109.09 253.632C2109.24 253.398 2109.38 253.165 2109.52 252.931C2110.33 251.623 2111.15 250.326 2111.99 249.038C2112.17 248.761 2112.35 248.477 2112.53 248.201C2112.68 247.977 2112.82 247.757 2112.97 247.533C2113.16 247.253 2113.35 246.97 2113.54 246.686C2114.18 245.732 2114.83 244.784 2115.48 243.844C2115.69 243.54 2115.91 243.233 2116.12 242.93C2116.55 242.322 2116.98 241.719 2117.42 241.115C2117.63 240.811 2117.85 240.511 2118.07 240.214C2118.73 239.313 2119.39 238.419 2120.07 237.532C2120.29 237.235 2120.52 236.941 2120.74 236.644C2121.41 235.76 2122.1 234.883 2122.79 234.009C2123.02 233.719 2123.25 233.429 2123.49 233.138C2123.69 232.878 2123.9 232.621 2124.11 232.364C2124.37 232.047 2124.63 231.727 2124.89 231.41C2125.1 231.147 2125.32 230.89 2125.53 230.63C2125.79 230.319 2126.05 230.009 2126.31 229.702C2126.55 229.419 2126.79 229.135 2127.03 228.851C2127.27 228.571 2127.51 228.288 2127.75 228.004C2128.23 227.44 2128.72 226.883 2129.21 226.326C2129.45 226.049 2129.7 225.769 2129.95 225.492C2130.69 224.661 2131.43 223.837 2132.19 223.02C2132.44 222.746 2132.69 222.473 2132.94 222.203C2133.44 221.659 2133.95 221.118 2134.46 220.585C2134.72 220.318 2134.98 220.051 2135.23 219.781C2135.49 219.514 2135.75 219.247 2136.01 218.98C2136.26 218.717 2136.52 218.45 2136.78 218.186C2137.29 217.666 2137.81 217.149 2138.32 216.635C2138.6 216.365 2138.87 216.094 2139.15 215.827C2139.41 215.567 2139.68 215.307 2139.94 215.05C2140.47 214.533 2141 214.019 2141.54 213.512C2141.81 213.255 2142.08 213.002 2142.35 212.748C2146.01 209.312 2149.8 206.02 2153.71 202.877C2154 202.64 2154.29 202.41 2154.58 202.18C2156.49 200.658 2158.43 199.174 2160.4 197.726C2160.62 197.566 2160.84 197.406 2161.06 197.246C2161.28 197.086 2161.49 196.929 2161.71 196.772C2161.96 196.588 2162.22 196.408 2162.47 196.225C2163.29 195.634 2164.13 195.047 2164.97 194.467C2165.23 194.287 2165.49 194.106 2165.75 193.93C2166.25 193.579 2166.77 193.232 2167.28 192.885C2167.58 192.689 2167.86 192.498 2168.16 192.305C2168.33 192.192 2168.5 192.078 2168.67 191.961C2168.94 191.791 2169.19 191.618 2169.46 191.448C2169.77 191.244 2170.08 191.041 2170.39 190.84C2171.34 190.227 2172.3 189.623 2173.26 189.026C2173.56 188.839 2173.87 188.649 2174.17 188.462C2174.69 188.145 2175.22 187.825 2175.74 187.511C2176.06 187.318 2176.39 187.124 2176.71 186.934C2178.96 185.6 2181.24 184.305 2183.55 183.061C2183.79 182.931 2184.03 182.801 2184.27 182.674C2184.8 182.394 2185.33 182.113 2185.85 181.84C2186.18 181.666 2186.52 181.493 2186.85 181.323C2188.51 180.465 2190.19 179.635 2191.88 178.824C2192.22 178.664 2192.56 178.5 2192.89 178.344C2193.23 178.183 2193.57 178.027 2193.91 177.867C2194.23 177.72 2194.54 177.573 2194.86 177.426C2195.98 176.912 2197.11 176.409 2198.24 175.918C2198.51 175.798 2198.78 175.681 2199.05 175.565C2200.43 174.971 2201.82 174.394 2203.22 173.83C2203.56 173.686 2203.91 173.55 2204.27 173.41C2206.3 172.606 2208.34 171.835 2210.4 171.101C2210.76 170.971 2211.12 170.848 2211.48 170.721C2211.77 170.617 2212.05 170.517 2212.34 170.417C2212.77 170.27 2213.2 170.124 2213.63 169.977C2213.9 169.887 2214.17 169.793 2214.44 169.703C2214.6 169.653 2214.76 169.6 2214.92 169.546C2215.52 169.35 2216.12 169.153 2216.73 168.963C2219.13 168.195 2221.55 167.475 2223.99 166.801C2224.24 166.731 2224.49 166.661 2224.74 166.594C2226.16 166.207 2227.59 165.833 2229.03 165.48C2229.25 165.423 2229.47 165.37 2229.69 165.32C2229.89 165.27 2230.09 165.22 2230.29 165.173C2230.99 165.003 2231.69 164.839 2232.4 164.679C2236.19 163.812 2240.02 163.054 2243.9 162.411C2244.26 162.351 2244.63 162.29 2244.99 162.23C2245.14 162.207 2245.29 162.184 2245.44 162.16C2245.87 162.09 2246.3 162.024 2246.73 161.96C2247.09 161.907 2247.45 161.854 2247.82 161.8C2248.39 161.717 2248.96 161.637 2249.54 161.56C2253.79 160.983 2258.09 160.539 2262.42 160.239C2266.91 159.932 2271.44 159.772 2276.01 159.772C2285.09 159.772 2294.02 160.396 2302.78 161.6C2340.06 166.727 2374.03 182.417 2401.55 205.542C2373.2 186.77 2339.25 175.835 2302.78 175.835C2266.31 175.835 2232.35 186.774 2204.01 205.542C2156.09 237.275 2124.22 291.399 2123.44 352.876C2123.43 353.647 2123.42 354.42 2123.42 355.191C2123.42 355.962 2123.43 356.736 2123.44 357.506C2123.73 384.512 2129.17 410.713 2139.62 435.427C2150 459.973 2164.87 482.018 2183.8 500.947C2202.72 519.875 2224.77 534.737 2249.32 545.119C2253.64 546.947 2258.01 548.622 2262.42 550.147C2309.96 566.643 2363.65 564.785 2409.79 545.119C2422 539.955 2433.59 533.683 2444.49 526.351C2427.83 540.179 2409.33 551.431 2389.28 559.911C2361.85 571.501 2332.75 577.379 2302.76 577.379C2272.77 577.379 2243.68 571.501 2216.27 559.908C2196.22 551.428 2177.72 540.175 2161.06 526.347C2155.73 521.927 2150.59 517.243 2145.65 512.303C2125.25 491.903 2109.23 468.143 2098.04 441.685C2086.68 414.823 2080.81 386.33 2080.58 356.979C2080.58 356.852 2080.58 356.726 2080.58 356.596C2080.58 356.129 2080.57 355.658 2080.57 355.191Z" fill="var(--text)"/>
            </g>
        </g>
        <path id="border" d="M3075 25H100C58.5786 25 25 58.5787 25 100V610C25 651.421 58.5786 685 100 685H3075C3116.42 685 3150 651.421 3150 610V100C3150 58.5786 3116.42 25 3075 25Z" stroke="#FF4500" stroke-width="50"/>
        {% endif %}
    </g>
    <defs>
        <clipPath id="clip0_2698_216">
            <rect width="3175" height="710" fill="white"/>
        </clipPath>
    </defs>
</svg>
