<svg width="635" height="142" viewBox="0 0 635 142" fill="none" xmlns="http://www.w3.org/2000/svg">
<g clip-path="url(#clip0_1_2)">
<path d="M635 0H0V142H635V0Z" fill="white"/>
<path d="M635 0H0V142H635V0Z" fill="white"/>
<path d="M630 5H5V137H630V5Z" stroke="#FF4500" stroke-width="10"/>
<path d="M98.23 91.857C98.23 95.1643 97.5443 98.1893 96.173 100.932C94.8823 103.675 93.0673 106.014 90.728 107.95C88.4693 109.886 85.8073 111.378 82.742 112.427C79.7573 113.476 76.5307 114 73.062 114H32.285V28.09H74.998C77.9827 28.09 80.685 28.7353 83.105 30.026C85.525 31.3167 87.582 33.0107 89.276 35.108C90.97 37.1247 92.2607 39.464 93.148 42.126C94.116 44.7073 94.6 47.329 94.6 49.991C94.6 54.2663 93.511 58.219 91.333 61.849C89.2357 65.479 86.2107 68.1813 82.258 69.956C87.1787 71.408 91.0507 74.1103 93.874 78.063C96.778 81.935 98.23 86.533 98.23 91.857ZM87.219 89.921C87.219 87.985 86.856 86.1297 86.13 84.355C85.4847 82.4997 84.557 80.8863 83.347 79.515C82.2177 78.1437 80.8463 77.0547 79.233 76.248C77.6197 75.4413 75.845 75.038 73.909 75.038H43.175V104.562H73.062C75.0787 104.562 76.934 104.159 78.628 103.352C80.322 102.545 81.8143 101.497 83.105 100.206C84.3957 98.8347 85.404 97.2617 86.13 95.487C86.856 93.7123 87.219 91.857 87.219 89.921ZM43.175 37.528V66.205H70.521C72.457 66.205 74.2317 65.842 75.845 65.116C77.4583 64.3093 78.8297 63.2607 79.959 61.97C81.169 60.6793 82.0967 59.187 82.742 57.493C83.468 55.7183 83.831 53.863 83.831 51.927C83.831 49.9103 83.5083 48.0147 82.863 46.24C82.2177 44.4653 81.3303 42.9327 80.201 41.642C79.1523 40.3513 77.8213 39.343 76.208 38.617C74.6753 37.891 73.0217 37.528 71.247 37.528H43.175ZM159.002 28.09H168.198L203.288 114H191.672L181.508 88.832H145.45L135.407 114H123.791L159.002 28.09ZM179.088 80.362L163.6 40.674L147.628 80.362H179.088ZM229.743 28.09L255.758 72.86L282.015 28.09H293.873L261.203 82.661V114H250.313V82.419L217.764 28.09H229.743ZM388.891 37.77H359.246V114H348.356V37.77H318.711V28.09H388.891V37.77ZM454.688 114.605C448.638 114.605 443.112 113.395 438.111 110.975C433.19 108.474 428.955 105.207 425.406 101.174C421.856 97.06 419.114 92.3813 417.178 87.138C415.242 81.8947 414.274 76.5303 414.274 71.045C414.274 65.3177 415.282 59.8323 417.299 54.589C419.396 49.3457 422.26 44.7073 425.89 40.674C429.52 36.6407 433.795 33.4543 438.716 31.115C443.717 28.695 449.122 27.485 454.93 27.485C460.98 27.485 466.465 28.7757 471.386 31.357C476.306 33.8577 480.541 37.165 484.091 41.279C487.64 45.393 490.383 50.0717 492.319 55.315C494.255 60.4777 495.223 65.7613 495.223 71.166C495.223 76.8933 494.174 82.3787 492.077 87.622C490.06 92.8653 487.237 97.5037 483.607 101.537C480.057 105.49 475.782 108.676 470.781 111.096C465.86 113.435 460.496 114.605 454.688 114.605ZM425.285 71.045C425.285 75.401 425.97 79.636 427.342 83.75C428.794 87.7833 430.81 91.373 433.392 94.519C435.973 97.665 439.079 100.166 442.709 102.021C446.339 103.876 450.372 104.804 454.809 104.804C459.407 104.804 463.521 103.836 467.151 101.9C470.781 99.8833 473.846 97.302 476.347 94.156C478.928 90.9293 480.864 87.2993 482.155 83.266C483.526 79.2327 484.212 75.159 484.212 71.045C484.212 66.689 483.486 62.4943 482.034 58.461C480.662 54.347 478.646 50.7573 475.984 47.692C473.402 44.546 470.297 42.0453 466.667 40.19C463.117 38.3347 459.165 37.407 454.809 37.407C450.211 37.407 446.097 38.375 442.467 40.311C438.837 42.247 435.731 44.788 433.15 47.934C430.649 51.08 428.713 54.6697 427.342 58.703C425.97 62.7363 425.285 66.8503 425.285 71.045ZM542.418 48.418V114H531.528V28.09H539.998L593.238 95.003V28.211H604.128V114H594.932L542.418 48.418Z" fill="#00284C"/>
<path d="M454.5 114.5C476.868 114.5 495 96.3675 495 74C495 51.6325 476.868 33.5 454.5 33.5C432.132 33.5 414 51.6325 414 74C414 96.3675 432.132 114.5 454.5 114.5Z" fill="white"/>
<path d="M454.5 109C473.83 109 489.5 93.33 489.5 74C489.5 54.67 473.83 39 454.5 39C435.17 39 419.5 54.67 419.5 74C419.5 93.33 435.17 109 454.5 109Z" stroke="#0C274B" stroke-width="11"/>
<path d="M504 22H407V79H504V22Z" fill="white"/>
<path d="M473.14 60.692C472.487 60.6804 471.852 60.4762 471.315 60.1051C470.778 59.7339 470.362 59.2124 470.121 58.6059C469.879 57.9994 469.822 57.335 469.956 56.6961C470.09 56.0572 470.411 55.4722 470.876 55.0146C471.342 54.557 471.933 54.2472 472.574 54.124C473.215 54.0009 473.878 54.0699 474.48 54.3223C475.083 54.5748 475.597 54.9995 475.958 55.5431C476.32 56.0868 476.513 56.7251 476.513 57.378C476.505 58.2647 476.145 59.112 475.513 59.7335C474.88 60.355 474.027 60.6997 473.14 60.692M435.859 60.692C435.206 60.6804 434.571 60.4762 434.034 60.1051C433.497 59.7339 433.081 59.2124 432.84 58.6059C432.598 57.9994 432.541 57.335 432.675 56.6961C432.809 56.0572 433.13 55.4722 433.595 55.0146C434.061 54.557 434.652 54.2472 435.293 54.124C435.934 54.0009 436.597 54.0699 437.199 54.3223C437.802 54.5748 438.316 54.9995 438.677 55.5431C439.039 56.0868 439.232 56.7251 439.232 57.378C439.224 58.2647 438.864 59.112 438.232 59.7335C437.599 60.355 436.746 60.6997 435.859 60.692M474.35 40.735L481.09 29.265C481.182 29.1083 481.242 28.9348 481.265 28.7548C481.289 28.5747 481.277 28.3917 481.23 28.2164C481.182 28.0411 481.1 27.8771 480.988 27.734C480.876 27.5909 480.737 27.4716 480.578 27.383C480.257 27.1994 479.876 27.149 479.518 27.2424C479.16 27.3359 478.853 27.5658 478.662 27.883L471.836 39.499C466.372 37.0964 460.468 35.8557 454.5 35.8557C448.531 35.8557 442.627 37.0964 437.163 39.499L430.338 27.886C430.147 27.5688 429.84 27.3389 429.482 27.2454C429.124 27.152 428.743 27.2024 428.422 27.386C428.263 27.4744 428.124 27.5936 428.012 27.7367C427.9 27.8797 427.817 28.0437 427.769 28.219C427.721 28.3942 427.709 28.5773 427.733 28.7575C427.757 28.9376 427.816 29.1112 427.908 29.268L434.65 40.735C428.86 43.8012 423.934 48.2745 420.325 53.7432C416.717 59.2119 414.541 65.5004 414 72.03H495C494.458 65.5005 492.283 59.2122 488.674 53.7435C485.066 48.2748 480.14 43.8015 474.35 40.735" fill="#0C274B"/>
</g>
<defs>
<clipPath id="clip0_1_2">
<rect width="635" height="142" fill="white"/>
</clipPath>
</defs>
</svg>
