<svg width="60" height="60" viewBox="0 0 1333 1333" fill="none" xmlns="http://www.w3.org/2000/svg">
    <g id="dynamic_spiral_angle_round" clip-path="url(#clip0_2923_238)">
        <g id="dynamic">
            <g id="text">
                <path id="exclude" fill-rule="evenodd" clip-rule="evenodd" d="M678.358 380.259L769 604.193H738.192L664.978 413.587L591.763 604.193H562L652.642 380.259H678.358Z" fill="var(--text)"/>
                <g id="BAY">
                    <path d="M465.954 546.384C465.954 557.929 463.015 568.004 457.138 576.609C451.261 585.215 443.285 591.932 433.21 596.759C423.345 601.587 412.43 604.001 400.466 604.001H294.363V380.461H405.504C415.998 380.461 425.024 383.295 432.58 388.962C440.346 394.419 446.224 401.556 450.212 410.371C454.41 418.977 456.508 428.003 456.508 437.448C456.508 448.363 453.675 458.647 448.008 468.303C442.55 477.748 434.679 484.78 424.394 489.397C437.198 493.175 447.273 500.207 454.619 510.492C462.176 520.567 465.954 532.531 465.954 546.384ZM437.303 541.347C437.303 534.42 435.729 528.018 432.58 522.141C429.642 516.264 425.549 511.541 420.301 507.973C415.264 504.405 409.387 502.621 402.67 502.621H322.699V579.443H400.466C407.393 579.443 413.585 577.659 419.042 574.091C424.709 570.522 429.117 565.905 432.265 560.237C435.624 554.36 437.303 548.063 437.303 541.347ZM322.699 405.019V479.637H393.854C400.571 479.637 406.448 477.958 411.486 474.6C416.733 471.241 420.826 466.728 423.765 461.061C426.913 455.394 428.487 449.202 428.487 442.485C428.487 435.349 427.018 429.052 424.079 423.595C421.351 417.928 417.468 413.415 412.43 410.056C407.603 406.698 402.04 405.019 395.743 405.019H322.699Z" fill="var(--text)"/>
                    <path d="M867.974 380.461L935.666 496.954L1003.99 380.461H1034.84L949.834 522.456V604.001H921.498V521.826L836.804 380.461H867.974Z" fill="var(--text)"/>
                </g>
                <text id="T" fill="var(--text)" xml:space="preserve" style="white-space: pre" font-family="Raleway" font-size="314.845" font-weight="500" letter-spacing="0.175em"><tspan x="288.477" y="950.735">T</tspan></text>
                <text id="O" fill="var(--text)" xml:space="preserve" style="white-space: pre" font-family="Raleway" font-size="314.845" font-weight="500" letter-spacing="0.175em"><tspan x="534" y="950.735">O</tspan></text>
                <text id="N" fill="var(--text)" xml:space="preserve" style="white-space: pre" font-family="Raleway" font-size="314.845" font-weight="500" letter-spacing="0.175em"><tspan x="820.273" y="950.735">N</tspan></text>
            </g>
            <g id="swirl_2">
                <path id="Vector" d="M241.248 152.971C291.188 111.521 346.648 77.7912 406.748 52.3712C488.898 17.6212 576.138 0.00120606 666.018 0.00120214C755.898 0.00119821 843.128 17.6212 925.288 52.3712C985.388 77.7912 1040.85 111.521 1090.79 152.971C1106.76 166.221 1122.16 180.261 1136.97 195.071C1198.12 256.221 1246.13 327.441 1279.68 406.751C1313.21 486.011 1330.79 570.011 1331.98 656.531C1332 657.901 1332.01 659.281 1332.03 660.651C1332.03 661.031 1332.03 661.411 1332.03 661.801C1332.03 663.201 1332.05 664.611 1332.05 666.011C1332.05 667.411 1332.05 668.821 1332.03 670.221C1332.03 670.611 1332.03 670.991 1332.03 671.371C1332.01 672.741 1332 674.121 1331.98 675.491C1327.11 980.491 1087.96 1229.61 786.998 1250.39C747.838 1253.15 705.118 1251.77 666.018 1246.31C554.258 1230.94 452.438 1183.91 369.958 1114.59C454.918 1170.86 556.708 1203.64 666.018 1203.64C775.328 1203.64 877.118 1170.85 962.078 1114.59C1105.74 1019.47 1201.27 857.231 1203.61 672.951C1203.63 670.641 1203.65 668.321 1203.65 666.011C1203.65 663.701 1203.63 661.381 1203.61 659.071C1202.73 578.121 1186.42 499.581 1155.09 425.501C1123.97 351.921 1079.42 285.841 1022.68 229.101C965.938 172.361 899.868 127.811 826.278 96.6913C813.318 91.2113 800.218 86.1912 786.988 81.6212C747.678 68.0712 707.258 58.5912 666.008 53.2612C639.578 49.8412 612.798 48.1212 585.768 48.1212C502.358 48.1212 421.448 64.4613 345.258 96.6813C308.648 112.161 273.908 130.961 241.238 152.941L241.248 152.971Z" fill="#FF4500"/>
                <path id="Vector_2" d="M-2.91127e-05 666.031C-2.91739e-05 664.631 -2.92355e-05 663.221 0.0199707 661.821C0.0199707 661.431 0.0199707 661.051 0.0199707 660.671C0.0399706 659.301 0.0499705 657.921 0.0699705 656.551C0.0899704 655.531 0.10997 654.511 0.12997 653.491C0.12997 653.281 0.12997 653.061 0.14997 652.861C0.16997 652.251 0.17997 651.641 0.19997 651.021C0.21997 650.421 0.22997 649.811 0.24997 649.201C0.30997 647.051 0.37997 644.911 0.46997 642.761C0.51997 641.571 0.56997 640.381 0.61997 639.201C0.64997 638.351 0.68997 637.501 0.73997 636.651C0.959969 632.201 1.22997 627.771 1.54997 623.351C1.59997 622.601 1.64997 621.841 1.71997 621.091C1.79997 620.031 1.87997 618.981 1.96997 617.921C2.02997 617.191 2.08997 616.451 2.14997 615.721C2.31997 613.751 2.48997 611.781 2.68997 609.811C2.94997 606.991 3.23997 604.181 3.55997 601.371C4.04997 596.941 4.58997 592.541 5.16997 588.141C5.25997 587.491 5.34997 586.841 5.42997 586.201C8.90997 560.781 14.02 535.881 20.67 511.601C20.97 510.491 21.28 509.391 21.59 508.291C21.9 507.181 22.21 506.081 22.52 504.981C23.14 502.851 23.76 500.711 24.4 498.581C26.05 493.041 27.79 487.521 29.61 482.051C30.3 479.981 30.99 477.931 31.7 475.861C32.85 472.531 34.02 469.221 35.22 465.921C36.26 463.061 37.32 460.221 38.41 457.391C38.9 456.111 39.4 454.831 39.89 453.551C40.23 452.681 40.57 451.811 40.92 450.931C41.83 448.651 42.74 446.381 43.67 444.121C44.95 440.991 46.26 437.881 47.6 434.781C48.49 432.721 49.39 430.661 50.31 428.591C50.77 427.561 51.22 426.541 51.69 425.511C52.16 424.481 52.62 423.461 53.09 422.441C53.56 421.421 54.03 420.401 54.5 419.381C55.45 417.341 56.41 415.311 57.38 413.291C58.84 410.261 60.32 407.231 61.83 404.221C62.34 403.221 62.84 402.211 63.35 401.221C64.87 398.231 66.42 395.241 68 392.271C68.52 391.281 69.05 390.291 69.58 389.311C69.99 388.551 70.4 387.791 70.81 387.031C73.29 382.471 75.83 377.951 78.43 373.481C78.9 372.661 79.37 371.851 79.85 371.041C81.7 367.881 83.58 364.731 85.49 361.601C85.92 360.901 86.35 360.201 86.78 359.501C89.2 355.581 91.66 351.691 94.16 347.831C94.71 347.001 95.25 346.151 95.8 345.321C96.23 344.651 96.67 343.991 97.12 343.321C97.68 342.481 98.24 341.631 98.81 340.781C100.73 337.921 102.67 335.081 104.64 332.261C105.27 331.351 105.92 330.431 106.56 329.521C107.84 327.701 109.13 325.891 110.44 324.081C111.09 323.171 111.75 322.271 112.4 321.381C114.37 318.681 116.36 316.001 118.38 313.341C119.05 312.451 119.73 311.571 120.4 310.681C122.42 308.031 124.48 305.401 126.55 302.781C127.24 301.911 127.93 301.041 128.63 300.171C129.25 299.391 129.87 298.621 130.5 297.851C131.27 296.901 132.05 295.941 132.84 294.991C133.48 294.201 134.12 293.431 134.77 292.651C135.54 291.721 136.31 290.791 137.1 289.871C137.81 289.021 138.53 288.171 139.25 287.321C139.96 286.481 140.69 285.631 141.42 284.781C142.86 283.091 144.32 281.421 145.79 279.751C146.52 278.921 147.26 278.081 148 277.251C150.21 274.761 152.45 272.291 154.71 269.841C155.46 269.021 156.21 268.201 156.97 267.391C158.48 265.761 160 264.141 161.54 262.541C162.3 261.741 163.07 260.941 163.84 260.131C164.61 259.331 165.38 258.531 166.16 257.731C166.93 256.941 167.71 256.141 168.49 255.351C170.02 253.791 171.56 252.241 173.11 250.701C173.93 249.891 174.74 249.081 175.57 248.281C176.36 247.501 177.16 246.721 177.95 245.951C179.55 244.401 181.14 242.861 182.76 241.341C183.56 240.571 184.37 239.811 185.18 239.051C196.14 228.751 207.5 218.881 219.22 209.461C220.09 208.751 220.96 208.061 221.84 207.371C227.57 202.811 233.39 198.361 239.29 194.021C239.94 193.541 240.6 193.061 241.26 192.581C241.91 192.101 242.56 191.631 243.22 191.161C243.97 190.611 244.73 190.071 245.48 189.521C247.96 187.751 250.46 185.991 252.97 184.251C253.75 183.711 254.53 183.171 255.31 182.641C256.83 181.591 258.38 180.551 259.92 179.511C260.79 178.921 261.65 178.351 262.53 177.771C263.04 177.431 263.56 177.091 264.08 176.741C264.87 176.231 265.64 175.711 266.43 175.201C267.36 174.591 268.3 173.981 269.24 173.381C272.09 171.541 274.95 169.731 277.83 167.941C278.74 167.381 279.65 166.811 280.57 166.251C282.13 165.301 283.7 164.341 285.27 163.401C286.22 162.821 287.2 162.241 288.16 161.671C294.92 157.671 301.76 153.791 308.69 150.061C309.4 149.671 310.12 149.281 310.84 148.901C312.41 148.061 314 147.221 315.58 146.401C316.57 145.881 317.57 145.361 318.57 144.851C323.55 142.281 328.58 139.791 333.64 137.361C334.65 136.881 335.67 136.391 336.68 135.921C337.7 135.441 338.72 134.971 339.74 134.491C340.69 134.051 341.63 133.611 342.58 133.171C345.93 131.631 349.31 130.121 352.7 128.651C353.51 128.291 354.33 127.941 355.14 127.591C359.28 125.811 363.45 124.081 367.63 122.391C368.67 121.961 369.72 121.551 370.78 121.131C376.86 118.721 382.99 116.411 389.17 114.211C390.24 113.821 391.31 113.451 392.39 113.071C393.26 112.761 394.12 112.461 394.99 112.161C396.27 111.721 397.56 111.281 398.85 110.841C399.66 110.571 400.47 110.291 401.28 110.021C401.75 109.871 402.23 109.711 402.7 109.551C404.5 108.961 406.3 108.371 408.12 107.801C415.32 105.501 422.57 103.341 429.89 101.321C430.64 101.111 431.39 100.901 432.14 100.701C436.4 99.5408 440.69 98.4208 445 97.3608C445.65 97.1908 446.31 97.0307 446.97 96.8807C447.57 96.7307 448.17 96.5808 448.78 96.4408C450.88 95.9308 452.98 95.4408 455.1 94.9608C466.46 92.3608 477.96 90.0907 489.57 88.1607C490.67 87.9807 491.76 87.8007 492.86 87.6207C493.3 87.5507 493.75 87.4807 494.19 87.4107C495.47 87.2007 496.77 87.0008 498.06 86.8108C499.14 86.6508 500.23 86.4908 501.32 86.3308C503.04 86.0808 504.76 85.8408 506.49 85.6108C519.23 83.8808 532.1 82.5507 545.1 81.6507C558.56 80.7307 572.14 80.2507 585.83 80.2507C613.05 80.2507 639.83 82.1208 666.07 85.7308C777.83 101.101 879.65 148.131 962.13 217.451C877.17 161.181 775.38 128.401 666.07 128.401C556.76 128.401 454.97 161.191 370.01 217.451C226.35 312.571 130.82 474.811 128.48 659.091C128.46 661.401 128.44 663.721 128.44 666.031C128.44 668.341 128.46 670.661 128.48 672.971C129.36 753.921 145.67 832.461 177 906.541C208.12 980.121 252.67 1046.2 309.41 1102.94C366.15 1159.68 432.22 1204.23 505.81 1235.35C518.77 1240.83 531.87 1245.85 545.1 1250.42C687.61 1299.87 848.53 1294.3 986.83 1235.35C1023.44 1219.87 1058.18 1201.07 1090.85 1179.09C1040.91 1220.54 985.45 1254.27 925.35 1279.69C843.14 1314.43 755.91 1332.05 666.02 1332.05C576.13 1332.05 488.91 1314.43 406.75 1279.68C346.65 1254.26 291.19 1220.53 241.25 1179.08C225.28 1165.83 209.88 1151.79 195.07 1136.98C133.92 1075.83 85.91 1004.61 52.36 925.301C18.31 844.781 0.709975 759.371 0.0199711 671.391C0.0199711 671.011 0.0199711 670.631 0.0199711 670.241C0.019971 668.841 -2.90515e-05 667.431 -2.91127e-05 666.031Z" fill="var(--text)"/>
            </g>
        </g>
    </g>
    <defs>
        <clipPath id="clip0_2923_238">
            <rect width="1332.05" height="1332.05" fill="white"/>
        </clipPath>
    </defs>
</svg>
