<svg width="1350" height="1350" viewBox="0 0 1350 1350" fill="none" xmlns="http://www.w3.org/2000/svg">
<path d="M250.225 161.946C300.165 120.496 355.625 86.7656 415.725 61.3456C497.875 26.5956 585.115 8.9756 674.995 8.97559C764.875 8.97559 852.105 26.5956 934.265 61.3456C994.365 86.7656 1049.82 120.496 1099.76 161.946C1115.73 175.196 1131.13 189.236 1145.94 204.046C1207.09 265.196 1255.1 336.416 1288.65 415.726C1322.19 494.986 1339.76 578.986 1340.95 665.506C1340.97 666.876 1340.98 668.256 1341 669.626C1341 670.006 1341 670.386 1341 670.776C1341 672.176 1341.03 673.586 1341.03 674.986C1341.03 676.386 1341.02 677.796 1341 679.196C1341 679.586 1341 679.966 1341 680.346C1340.98 681.716 1340.97 683.096 1340.95 684.466C1336.08 989.466 1096.93 1238.59 795.975 1259.37C756.815 1262.13 714.095 1260.75 674.995 1255.29C563.235 1239.92 461.415 1192.89 378.935 1123.57C463.895 1179.84 565.685 1212.62 674.995 1212.62C784.305 1212.62 886.095 1179.83 971.055 1123.57C1114.71 1028.45 1210.24 866.206 1212.58 681.926C1212.6 679.616 1212.62 677.296 1212.62 674.986C1212.62 672.676 1212.6 670.356 1212.58 668.046C1211.7 587.096 1195.39 508.556 1164.06 434.476C1132.94 360.896 1088.39 294.816 1031.65 238.076C974.915 181.336 908.845 136.786 835.255 105.666C822.295 100.186 809.195 95.1656 795.965 90.5956C756.655 77.0456 716.235 67.5656 674.985 62.2356C648.555 58.8156 621.775 57.0956 594.745 57.0956C511.335 57.0956 430.425 73.4356 354.235 105.656C317.625 121.136 282.885 139.936 250.215 161.916L250.225 161.946Z" fill="#FF4500"/>
<path d="M8.97266 675.005C8.97266 673.605 8.97266 672.195 8.99266 670.795C8.99266 670.405 8.99266 670.025 8.99266 669.645C9.01266 668.275 9.02266 666.895 9.04266 665.525C9.06266 664.505 9.08266 663.485 9.10266 662.465C9.10266 662.255 9.10266 662.035 9.12266 661.835C9.14266 661.225 9.15266 660.615 9.17266 659.995C9.19266 659.395 9.20266 658.785 9.22266 658.175C9.28266 656.025 9.35266 653.885 9.44266 651.735C9.49266 650.545 9.54266 649.355 9.59266 648.175C9.62266 647.325 9.66266 646.475 9.71266 645.625C9.93266 641.175 10.2026 636.745 10.5226 632.325C10.5726 631.575 10.6226 630.815 10.6926 630.065C10.7726 629.005 10.8526 627.955 10.9426 626.895C11.0026 626.165 11.0626 625.425 11.1226 624.695C11.2926 622.725 11.4626 620.755 11.6626 618.785C11.9226 615.965 12.2126 613.155 12.5326 610.345C13.0226 605.915 13.5626 601.515 14.1426 597.115C14.2326 596.465 14.3226 595.815 14.4026 595.175C17.8826 569.755 22.9926 544.855 29.6426 520.575C29.9426 519.465 30.2526 518.365 30.5626 517.265C30.8726 516.155 31.1826 515.055 31.4926 513.955C32.1126 511.825 32.7326 509.685 33.3726 507.555C35.0226 502.015 36.7626 496.495 38.5826 491.025C39.2726 488.955 39.9626 486.905 40.6726 484.835C41.8226 481.505 42.9926 478.195 44.1926 474.895C45.2326 472.035 46.2926 469.195 47.3826 466.365C47.8726 465.085 48.3726 463.805 48.8626 462.525C49.2026 461.655 49.5426 460.785 49.8926 459.905C50.8026 457.625 51.7126 455.355 52.6426 453.095C53.9226 449.965 55.2326 446.855 56.5726 443.755C57.4626 441.695 58.3626 439.635 59.2826 437.565C59.7426 436.535 60.1926 435.515 60.6626 434.485C61.1326 433.455 61.5926 432.435 62.0626 431.415C62.5326 430.395 63.0026 429.375 63.4726 428.355C64.4226 426.315 65.3826 424.285 66.3526 422.265C67.8126 419.235 69.2926 416.205 70.8026 413.195C71.3126 412.195 71.8126 411.185 72.3226 410.195C73.8426 407.205 75.3926 404.215 76.9726 401.245C77.4926 400.255 78.0226 399.265 78.5526 398.285C78.9626 397.525 79.3726 396.765 79.7826 396.005C82.2626 391.445 84.8026 386.925 87.4026 382.455C87.8726 381.635 88.3426 380.825 88.8226 380.015C90.6726 376.855 92.5526 373.705 94.4626 370.575C94.8926 369.875 95.3226 369.175 95.7526 368.475C98.1726 364.555 100.633 360.665 103.133 356.805C103.683 355.975 104.223 355.125 104.773 354.295C105.203 353.625 105.643 352.965 106.093 352.295C106.653 351.455 107.213 350.605 107.783 349.755C109.703 346.895 111.643 344.055 113.613 341.235C114.243 340.325 114.893 339.405 115.533 338.495C116.813 336.675 118.103 334.865 119.413 333.055C120.063 332.145 120.723 331.245 121.373 330.355C123.343 327.655 125.333 324.975 127.353 322.315C128.023 321.425 128.703 320.545 129.373 319.655C131.393 317.005 133.453 314.375 135.523 311.755C136.213 310.885 136.903 310.015 137.603 309.145C138.223 308.365 138.843 307.595 139.473 306.825C140.243 305.875 141.023 304.915 141.813 303.965C142.453 303.175 143.093 302.405 143.743 301.625C144.513 300.695 145.283 299.765 146.073 298.845C146.783 297.995 147.503 297.145 148.223 296.295C148.933 295.455 149.663 294.605 150.393 293.755C151.833 292.065 153.293 290.395 154.763 288.725C155.493 287.895 156.233 287.055 156.973 286.225C159.183 283.735 161.423 281.265 163.683 278.815C164.433 277.995 165.183 277.175 165.943 276.365C167.453 274.735 168.973 273.115 170.513 271.515C171.273 270.715 172.043 269.915 172.813 269.105C173.583 268.305 174.353 267.505 175.133 266.705C175.903 265.915 176.683 265.115 177.463 264.325C178.993 262.765 180.533 261.215 182.083 259.675C182.903 258.865 183.713 258.055 184.543 257.255C185.333 256.475 186.133 255.695 186.923 254.925C188.523 253.375 190.113 251.835 191.733 250.315C192.533 249.545 193.343 248.785 194.153 248.025C205.113 237.725 216.473 227.855 228.193 218.435C229.063 217.725 229.933 217.035 230.813 216.345C236.543 211.785 242.363 207.335 248.263 202.995C248.913 202.515 249.573 202.035 250.233 201.555C250.883 201.075 251.533 200.605 252.193 200.135C252.943 199.585 253.703 199.045 254.453 198.495C256.933 196.725 259.433 194.965 261.943 193.225C262.723 192.685 263.503 192.145 264.283 191.615C265.803 190.565 267.353 189.525 268.893 188.485C269.763 187.895 270.623 187.325 271.503 186.745C272.013 186.405 272.533 186.065 273.053 185.715C273.843 185.205 274.613 184.685 275.403 184.175C276.333 183.565 277.273 182.955 278.213 182.355C281.063 180.515 283.923 178.705 286.803 176.915C287.713 176.355 288.623 175.785 289.543 175.225C291.103 174.275 292.673 173.315 294.243 172.375C295.193 171.795 296.173 171.215 297.133 170.645C303.893 166.645 310.733 162.765 317.663 159.035C318.373 158.645 319.093 158.255 319.813 157.875C321.383 157.035 322.973 156.195 324.553 155.375C325.543 154.855 326.543 154.335 327.543 153.825C332.523 151.255 337.553 148.765 342.613 146.335C343.623 145.855 344.643 145.365 345.653 144.895C346.673 144.415 347.693 143.945 348.713 143.465C349.663 143.025 350.603 142.585 351.553 142.145C354.903 140.605 358.283 139.095 361.673 137.625C362.483 137.265 363.303 136.915 364.113 136.565C368.253 134.785 372.423 133.055 376.603 131.365C377.643 130.935 378.693 130.525 379.753 130.105C385.833 127.695 391.963 125.385 398.143 123.185C399.213 122.795 400.283 122.425 401.363 122.045C402.233 121.735 403.093 121.435 403.963 121.135C405.243 120.695 406.533 120.255 407.823 119.815C408.633 119.545 409.443 119.265 410.253 118.995C410.723 118.845 411.203 118.685 411.673 118.525C413.473 117.935 415.273 117.345 417.093 116.775C424.293 114.475 431.543 112.315 438.863 110.295C439.613 110.085 440.363 109.875 441.113 109.675C445.373 108.515 449.663 107.395 453.973 106.335C454.623 106.165 455.283 106.005 455.943 105.855C456.543 105.705 457.143 105.555 457.753 105.415C459.853 104.905 461.953 104.415 464.073 103.935C475.433 101.335 486.933 99.0654 498.543 97.1354C499.643 96.9554 500.733 96.7753 501.833 96.5953C502.273 96.5253 502.723 96.4554 503.163 96.3854C504.443 96.1754 505.743 95.9754 507.033 95.7854C508.113 95.6254 509.203 95.4654 510.293 95.3054C512.013 95.0554 513.733 94.8154 515.463 94.5854C528.203 92.8554 541.073 91.5253 554.073 90.6253C567.533 89.7053 581.113 89.2253 594.803 89.2253C622.023 89.2253 648.803 91.0954 675.043 94.7054C786.803 110.075 888.623 157.105 971.103 226.425C886.143 170.155 784.353 137.375 675.043 137.375C565.733 137.375 463.943 170.165 378.983 226.425C235.323 321.545 139.793 483.785 137.453 668.065C137.433 670.375 137.413 672.695 137.413 675.005C137.413 677.315 137.433 679.635 137.453 681.945C138.333 762.895 154.643 841.435 185.973 915.515C217.093 989.095 261.643 1055.18 318.383 1111.92C375.123 1168.66 441.193 1213.21 514.783 1244.33C527.743 1249.81 540.843 1254.83 554.073 1259.4C696.583 1308.85 857.503 1303.28 995.803 1244.33C1032.41 1228.85 1067.15 1210.05 1099.82 1188.07C1049.88 1229.52 994.423 1263.25 934.323 1288.67C852.113 1323.41 764.883 1341.03 674.993 1341.03C585.103 1341.03 497.883 1323.41 415.723 1288.66C355.623 1263.24 300.163 1229.51 250.223 1188.06C234.253 1174.81 218.853 1160.77 204.043 1145.96C142.893 1084.81 94.8826 1013.59 61.3326 934.275C27.2826 853.755 9.68266 768.345 8.99266 680.365C8.99266 679.985 8.99266 679.605 8.99266 679.215C8.99266 677.815 8.97266 676.405 8.97266 675.005Z" fill="var(--text)"/>
<path d="M885 205L920 385L1100 420L920 455L885 635L850 455L670 420L850 385L885 205Z" fill="var(--text)"/>
<path d="M503 391L555.744 662.256L827 715L555.744 767.744L503 1039L450.256 767.744L179 715L450.256 662.256L503 391Z" fill="#FF4500"/>
<path d="M617 205L632 275L702 290L632 305L617 375L602 305L532 290L602 275L617 205Z" fill="var(--text)"/>
<path d="M1035 610L1045 665L1100 675L1045 685L1035 740L1025 685L970 675L1025 665L1035 610Z" fill="var(--text)"/>
<path d="M1008 843L1018 898L1073 908L1018 918L1008 973L998 918L943 908L998 898L1008 843Z" fill="var(--text)"/>
<path d="M722 908L738.154 996.846L827 1013L738.154 1029.15L722 1118L705.846 1029.15L617 1013L705.846 996.846L722 908Z" fill="var(--text)"/>
<path d="M286.039 469.054L300.247 471.582C301.091 468.127 302.015 464.771 303.02 461.512C304.024 458.254 305.195 454.957 306.532 451.623L296.812 451.917L286.039 469.054ZM312.774 477.465L335.994 491.92C340.242 489.087 344.607 485.237 349.09 480.37C353.573 475.503 357.61 470.213 361.201 464.5C367.186 454.98 371.287 444.986 373.503 434.518C375.718 424.051 375.64 414.893 373.268 407.045C365.167 408.309 356.853 412.215 348.326 418.762C339.798 425.308 332.542 433.342 326.556 442.863C322.965 448.575 319.948 454.506 317.505 460.656C315.063 466.806 313.485 472.409 312.774 477.465ZM339.884 459.923C336.756 457.956 334.769 455.118 333.923 451.408C333.077 447.697 333.637 444.278 335.603 441.15C337.57 438.021 340.436 436.028 344.202 435.169C347.968 434.311 351.415 434.865 354.543 436.831C357.671 438.798 359.658 441.636 360.504 445.347C361.35 449.057 360.79 452.476 358.823 455.605C356.857 458.733 353.991 460.726 350.225 461.585C346.459 462.444 343.012 461.89 339.884 459.923ZM355.2 512.533L365.974 495.396L362.025 486.509C359.6 489.159 357.13 491.615 354.617 493.878C352.103 496.14 349.473 498.401 346.725 500.658L355.2 512.533ZM382.465 392.19C387.625 405.111 389.297 418.45 387.481 432.205C385.666 445.96 380.312 459.91 371.419 474.055L378.492 489.745C379.44 491.859 379.822 494.044 379.637 496.3C379.453 498.556 378.762 500.636 377.565 502.54L356.018 536.815L334.6 507.268L299.713 485.336L263.802 478.843L285.183 444.606C286.38 442.702 287.983 441.172 289.991 440.015C291.999 438.858 294.162 438.248 296.478 438.186L313.683 437.759C322.575 423.614 332.792 412.72 344.332 405.079C355.872 397.437 368.583 393.141 382.465 392.19ZM283.591 511.208C286.583 506.448 290.87 503.402 296.451 502.072C302.031 500.741 307.202 501.572 311.962 504.565C316.722 507.557 319.713 511.857 320.932 517.462C322.152 523.068 321.266 528.251 318.273 533.012C316.136 536.412 312.055 539.848 306.03 543.319C300.005 546.79 291.466 550.601 280.411 554.753C279.361 542.991 279.093 533.643 279.61 526.71C280.126 519.776 281.453 514.609 283.591 511.208ZM295.182 518.353C294.327 519.713 293.68 521.987 293.242 525.174C292.803 528.362 292.703 531.502 292.942 534.593C295.832 533.468 298.624 532.045 301.319 530.324C304.014 528.602 305.789 527.061 306.644 525.701C307.671 524.069 308.024 522.299 307.706 520.391C307.387 518.483 306.412 517.016 304.78 515.99C303.148 514.964 301.396 514.693 299.526 515.178C297.656 515.662 296.208 516.721 295.182 518.353Z" fill="#FF4500"/>
<path d="M286.039 469.054L300.247 471.582C301.091 468.127 302.015 464.771 303.02 461.512C304.024 458.254 305.195 454.957 306.532 451.623L296.812 451.917L286.039 469.054ZM312.774 477.464L335.994 491.92C340.242 489.087 344.607 485.237 349.09 480.37C353.573 475.502 357.61 470.213 361.201 464.5C367.186 454.979 371.287 444.985 373.503 434.518C375.718 424.051 375.64 414.893 373.268 407.045C365.168 408.309 356.853 412.215 348.326 418.762C339.798 425.308 332.542 433.342 326.556 442.863C322.965 448.575 319.948 454.506 317.505 460.656C315.063 466.806 313.485 472.409 312.774 477.464ZM339.884 459.923C336.756 457.956 334.769 455.118 333.923 451.408C333.077 447.697 333.637 444.278 335.603 441.15C337.57 438.021 340.436 436.028 344.202 435.169C347.968 434.311 351.415 434.865 354.543 436.831C357.671 438.798 359.658 441.636 360.504 445.347C361.35 449.057 360.79 452.476 358.823 455.605C356.857 458.733 353.991 460.726 350.225 461.585C346.459 462.444 343.012 461.89 339.884 459.923ZM355.2 512.533L365.974 495.396L362.025 486.509C359.6 489.159 357.13 491.615 354.617 493.878C352.103 496.14 349.473 498.401 346.725 500.658L355.2 512.533ZM382.465 392.19C387.625 405.111 389.297 418.45 387.481 432.205C385.666 445.96 380.312 459.91 371.419 474.055L378.492 489.745C379.44 491.859 379.822 494.044 379.637 496.3C379.453 498.556 378.762 500.636 377.565 502.54L356.018 536.815L334.6 507.268L299.713 485.336L263.802 478.843L285.183 444.606C286.38 442.702 287.983 441.172 289.991 440.015C291.999 438.858 294.162 438.248 296.478 438.186L313.683 437.759C322.575 423.613 332.792 412.72 344.332 405.079C355.872 397.437 368.583 393.141 382.465 392.19Z" fill="var(--text)"/>
</svg>
