<svg width="500" viewBox="0 0 4382 983" fill="none" xmlns="http://www.w3.org/2000/svg">
<g id="app_gen" clip-path="url(#clip0_6482_2016)">
<g id="text">
<g id="bayt">
<path d="M1672.74 431.999V2.44922H1851.82C1870.77 2.44922 1888.12 6.48255 1903.85 14.5492C1919.58 22.2126 1933.29 32.6992 1944.99 46.0092C1956.68 58.9159 1965.76 73.6376 1972.21 90.1742C1978.67 106.308 1981.89 122.844 1981.89 139.784C1981.89 163.178 1976.65 185.563 1966.16 206.939C1955.68 227.913 1940.95 245.054 1922 258.364C1903.04 271.271 1880.86 277.724 1855.45 277.724H1727.19V431.999H1672.74ZM1727.19 229.324H1852.42C1867.35 229.324 1880.25 225.291 1891.14 217.224C1902.44 209.158 1911.11 198.268 1917.16 184.554C1923.61 170.841 1926.84 155.918 1926.84 139.784C1926.84 122.844 1923.21 107.719 1915.95 94.4092C1908.69 80.6959 1899.21 70.0076 1887.51 62.3442C1875.82 54.6809 1862.91 50.8492 1848.79 50.8492H1727.19V229.324Z" fill="var(--text)"/>
<path d="M2155.56 431.999V2.44922H2334.64C2353.59 2.44922 2370.94 6.48255 2386.67 14.5492C2402.4 22.2126 2416.11 32.6992 2427.81 46.0092C2439.5 58.9159 2448.58 73.6376 2455.03 90.1742C2461.48 106.308 2464.71 122.844 2464.71 139.784C2464.71 163.178 2459.47 185.563 2448.98 206.939C2438.5 227.913 2423.77 245.054 2404.82 258.364C2385.86 271.271 2363.68 277.724 2338.27 277.724H2210.01V431.999H2155.56ZM2210.01 229.324H2335.24C2350.17 229.324 2363.07 225.291 2373.96 217.224C2385.26 209.158 2393.93 198.268 2399.98 184.554C2406.43 170.841 2409.66 155.918 2409.66 139.784C2409.66 122.844 2406.03 107.719 2398.77 94.4092C2391.51 80.6959 2382.03 70.0076 2370.33 62.3442C2358.63 54.6809 2345.73 50.8492 2331.61 50.8492H2210.01V229.324Z" fill="var(--text)"/>
</g>
<g id="bayt_2">
<path d="M1312.07 980.584C1283.84 980.584 1257.42 974.534 1232.82 962.434C1208.62 949.931 1187.44 933.394 1169.29 912.824C1151.14 891.851 1137.02 868.458 1126.94 842.644C1116.86 816.428 1111.82 789.404 1111.82 761.574C1111.82 732.534 1116.86 705.108 1126.94 679.294C1137.02 653.078 1150.94 629.886 1168.69 609.719C1186.84 589.553 1208.01 573.823 1232.21 562.529C1256.81 550.833 1283.43 544.984 1312.07 544.984C1353.61 544.984 1387.9 553.656 1414.92 570.999C1441.94 588.343 1462.31 610.929 1476.03 638.759L1434.28 667.799C1421.78 642.793 1404.64 624.239 1382.86 612.139C1361.08 600.039 1337.08 593.989 1310.86 593.989C1289.08 593.989 1269.32 598.628 1251.57 607.904C1233.82 617.181 1218.5 629.886 1205.59 646.019C1193.09 661.749 1183.41 679.698 1176.55 699.864C1170.1 720.031 1166.87 741.004 1166.87 762.784C1166.87 785.774 1170.5 807.554 1177.76 828.124C1185.42 848.291 1196.11 866.239 1209.83 881.969C1223.54 897.296 1239.47 909.396 1257.62 918.269C1275.77 927.143 1295.33 931.579 1316.31 931.579C1340.91 931.579 1364.3 925.328 1386.49 912.824C1408.67 900.321 1429.64 881.163 1449.41 855.349V911.614C1410.69 957.594 1364.91 980.584 1312.07 980.584ZM1442.75 804.529H1350.19V763.389H1488.73V977.559H1442.75V804.529Z" fill="var(--text)"/>
<path d="M1944.82 929.159V977.559H1653.21V548.009H1939.38V596.409H1707.66V735.559H1909.13V780.934H1707.66V929.159H1944.82Z" fill="var(--text)"/>
<path d="M2155.64 648.439V977.559H2101.19V548.009H2147.17L2409.74 883.784V548.614H2464.19V977.559H2414.58L2155.64 648.439Z" fill="var(--text)"/>
</g>
<path id="a-1" fill-rule="evenodd" clip-rule="evenodd" d="M1336.02 2L1509.74 431.201H1450.7L1310.37 65.8773L1170.05 431.201H1113L1286.73 2H1336.02Z" fill="var(--text)"/>
</g>
<g id="sparkle">
<g id="dynamic_spiral_angle_round">
<g id="dynamic">
<g id="swirl_2">
<path id="Vector" d="M182.701 117.918C219.065 87.7365 259.448 63.1759 303.21 44.6664C363.027 19.3632 426.551 6.53321 491.997 6.5332C557.443 6.5332 620.959 19.3632 680.784 44.6664C724.545 63.1759 764.925 87.7365 801.289 117.918C812.917 127.566 824.13 137.789 834.914 148.573C879.441 193.1 914.399 244.958 938.828 302.708C963.251 360.421 976.044 421.585 976.911 484.585C976.925 485.582 976.932 486.587 976.947 487.585C976.947 487.861 976.947 488.138 976.947 488.422C976.947 489.441 976.969 490.468 976.969 491.487C976.969 492.507 976.962 493.534 976.947 494.553C976.947 494.837 976.947 495.114 976.947 495.39C976.932 496.388 976.925 497.393 976.911 498.39C973.364 720.475 799.228 901.875 580.088 917.006C551.574 919.015 520.467 918.01 491.997 914.035C410.619 902.843 336.479 868.598 276.421 818.123C338.285 859.096 412.403 882.965 491.997 882.965C571.59 882.965 645.709 859.089 707.572 818.123C812.174 748.861 881.734 630.724 883.438 496.541C883.453 494.859 883.467 493.169 883.467 491.487C883.467 489.805 883.453 488.116 883.438 486.434C882.797 427.49 870.921 370.302 848.108 316.361C825.449 262.783 793.009 214.667 751.694 173.352C710.383 132.037 662.274 99.5981 608.69 76.9381C599.253 72.9478 589.714 69.2923 580.081 65.9647C551.457 56.0983 522.025 49.1954 491.989 45.3144C472.744 42.8241 453.245 41.5717 433.563 41.5717C372.828 41.5717 313.913 53.4697 258.436 76.9308C231.778 88.2025 206.482 101.892 182.694 117.896L182.701 117.918Z" fill="#FF4500"/>
<path id="Vector_2" d="M7.03345 491.501C7.03345 490.482 7.03345 489.455 7.04801 488.436C7.04801 488.152 7.04801 487.875 7.04801 487.598C7.06257 486.601 7.06986 485.596 7.08442 484.598C7.09898 483.856 7.11354 483.113 7.12811 482.37C7.12811 482.217 7.12811 482.057 7.14267 481.912C7.15723 481.467 7.16451 481.023 7.17908 480.572C7.19364 480.135 7.20092 479.691 7.21548 479.246C7.25917 477.681 7.31014 476.123 7.37568 474.557C7.41208 473.691 7.44849 472.824 7.4849 471.965C7.50674 471.346 7.53587 470.727 7.57228 470.108C7.73247 466.868 7.92905 463.642 8.16206 460.424C8.19846 459.878 8.23487 459.324 8.28584 458.778C8.34409 458.006 8.40234 457.242 8.46788 456.47C8.51157 455.938 8.55526 455.4 8.59894 454.868C8.72273 453.434 8.84651 451.999 8.99214 450.565C9.18146 448.511 9.39263 446.465 9.62563 444.419C9.98243 441.193 10.3756 437.99 10.798 434.786C10.8635 434.312 10.929 433.839 10.9873 433.373C13.5212 414.864 17.2421 396.733 22.0842 379.053C22.3027 378.245 22.5284 377.444 22.7541 376.643C22.9799 375.835 23.2056 375.034 23.4313 374.233C23.8828 372.682 24.3342 371.124 24.8002 369.573C26.0017 365.539 27.2687 361.519 28.5939 357.536C29.0963 356.029 29.5987 354.537 30.1157 353.029C30.9531 350.605 31.805 348.194 32.6788 345.791C33.4361 343.709 34.2079 341.641 35.0016 339.58C35.3584 338.648 35.7225 337.716 36.0793 336.784C36.3268 336.151 36.5744 335.517 36.8292 334.877C37.4919 333.216 38.1545 331.563 38.8317 329.918C39.7637 327.639 40.7176 325.374 41.6933 323.117C42.3413 321.617 42.9967 320.117 43.6666 318.61C44.0015 317.86 44.3292 317.117 44.6714 316.367C45.0136 315.617 45.3486 314.874 45.6908 314.132C46.033 313.389 46.3753 312.646 46.7175 311.903C47.4092 310.418 48.1083 308.94 48.8146 307.469C49.8777 305.263 50.9553 303.056 52.0548 300.865C52.4262 300.137 52.7903 299.401 53.1616 298.68C54.2684 296.503 55.397 294.326 56.5475 292.163C56.9261 291.442 57.3121 290.722 57.698 290.008C57.9965 289.455 58.2951 288.901 58.5936 288.348C60.3994 285.028 62.2489 281.736 64.1421 278.481C64.4843 277.884 64.8265 277.295 65.1761 276.705C66.5231 274.404 67.8921 272.11 69.2828 269.831C69.5959 269.321 69.909 268.812 70.2221 268.302C71.9842 265.448 73.7758 262.615 75.5961 259.804C75.9966 259.2 76.3898 258.581 76.7903 257.977C77.1034 257.489 77.4238 257.008 77.7515 256.521C78.1592 255.909 78.567 255.29 78.982 254.671C80.3801 252.589 81.7927 250.521 83.2271 248.467C83.6859 247.805 84.1592 247.135 84.6252 246.472C85.5572 245.147 86.4965 243.829 87.4504 242.511C87.9237 241.848 88.4043 241.193 88.8776 240.545C90.312 238.579 91.761 236.628 93.2319 234.691C93.7198 234.043 94.2149 233.402 94.7028 232.754C96.1736 230.824 97.6736 228.909 99.1809 227.001C99.6833 226.368 100.186 225.734 100.695 225.101C101.147 224.533 101.598 223.972 102.057 223.412C102.618 222.72 103.186 222.021 103.761 221.329C104.227 220.754 104.693 220.193 105.166 219.625C105.727 218.948 106.288 218.271 106.863 217.601C107.38 216.982 107.904 216.363 108.428 215.744C108.945 215.133 109.477 214.514 110.008 213.895C111.057 212.664 112.12 211.448 113.19 210.232C113.722 209.628 114.261 209.016 114.8 208.412C116.409 206.599 118.04 204.8 119.686 203.016C120.232 202.419 120.778 201.822 121.331 201.232C122.431 200.045 123.537 198.866 124.659 197.701C125.212 197.118 125.773 196.536 126.334 195.946C126.894 195.363 127.455 194.781 128.023 194.198C128.583 193.623 129.151 193.041 129.719 192.465C130.833 191.329 131.955 190.201 133.083 189.079C133.681 188.49 134.27 187.9 134.875 187.317C135.45 186.749 136.032 186.181 136.608 185.621C137.773 184.492 138.93 183.371 140.11 182.264C140.693 181.703 141.282 181.15 141.872 180.596C149.853 173.097 158.124 165.91 166.658 159.051C167.292 158.534 167.925 158.031 168.566 157.529C172.738 154.208 176.976 150.968 181.272 147.808C181.746 147.458 182.226 147.109 182.707 146.759C183.18 146.41 183.653 146.068 184.134 145.725C184.68 145.325 185.233 144.932 185.78 144.531C187.585 143.242 189.406 141.961 191.233 140.694C191.801 140.301 192.369 139.908 192.937 139.522C194.044 138.757 195.173 138 196.294 137.243C196.927 136.813 197.554 136.398 198.194 135.976C198.566 135.728 198.944 135.48 199.323 135.226C199.898 134.854 200.459 134.476 201.034 134.104C201.711 133.66 202.396 133.216 203.08 132.779C205.156 131.439 207.238 130.121 209.335 128.818C209.998 128.41 210.66 127.995 211.33 127.587C212.466 126.896 213.609 126.197 214.753 125.512C215.444 125.09 216.158 124.667 216.857 124.252C221.779 121.34 226.76 118.515 231.806 115.799C232.323 115.515 232.847 115.231 233.371 114.954C234.514 114.342 235.672 113.731 236.823 113.134C237.544 112.755 238.272 112.376 239 112.005C242.626 110.134 246.289 108.321 249.973 106.551C250.709 106.202 251.451 105.845 252.187 105.503C252.929 105.153 253.672 104.811 254.415 104.461C255.107 104.141 255.791 103.821 256.483 103.5C258.922 102.379 261.383 101.279 263.852 100.209C264.441 99.9468 265.038 99.692 265.628 99.4371C268.643 98.141 271.679 96.8813 274.723 95.6507C275.48 95.3376 276.245 95.0391 277.016 94.7333C281.444 92.9784 285.907 91.2964 290.407 89.6945C291.186 89.4105 291.965 89.1411 292.752 88.8644C293.385 88.6387 294.011 88.4202 294.645 88.2018C295.577 87.8814 296.516 87.561 297.456 87.2406C298.045 87.044 298.635 86.8401 299.225 86.6435C299.567 86.5343 299.917 86.4178 300.259 86.3013C301.57 85.8717 302.88 85.4421 304.206 85.0271C309.448 83.3523 314.727 81.7795 320.057 80.3087C320.603 80.1557 321.15 80.0028 321.696 79.8572C324.798 79.0126 327.921 78.197 331.06 77.4252C331.533 77.3014 332.014 77.1849 332.494 77.0757C332.931 76.9665 333.368 76.8572 333.812 76.7553C335.341 76.3839 336.87 76.0271 338.414 75.6776C346.686 73.7844 355.059 72.1318 363.513 70.7265C364.314 70.5955 365.108 70.4643 365.909 70.3332C366.229 70.2823 366.557 70.2314 366.877 70.1804C367.809 70.0275 368.756 69.8819 369.695 69.7435C370.482 69.627 371.275 69.5105 372.069 69.394C373.321 69.212 374.574 69.0372 375.833 68.8697C385.11 67.61 394.481 66.6415 403.947 65.9862C413.748 65.3163 423.636 64.9668 433.605 64.9668C453.425 64.9668 472.925 66.3285 492.031 68.9571C573.409 80.1485 647.549 114.393 707.607 164.869C645.743 123.896 571.625 100.027 492.031 100.027C412.437 100.027 338.319 123.903 276.456 164.869C171.85 234.13 102.29 352.265 100.586 486.448C100.572 488.13 100.557 489.819 100.557 491.501C100.557 493.183 100.572 494.873 100.586 496.555C101.227 555.498 113.103 612.687 135.916 666.628C158.576 720.205 191.015 768.325 232.33 809.64C273.645 850.955 321.754 883.394 375.338 906.054C384.775 910.044 394.314 913.7 403.947 917.027C507.716 953.034 624.889 948.978 725.592 906.054C752.247 894.782 777.543 881.093 801.332 865.088C764.968 895.27 724.587 919.831 680.826 938.34C620.965 963.636 557.448 976.466 491.995 976.466C426.542 976.466 363.033 963.636 303.208 938.333C259.446 919.823 219.063 895.263 182.699 865.081C171.071 855.433 159.857 845.21 149.074 834.426C104.547 789.9 69.5886 738.041 45.1593 680.288C20.3658 621.658 7.55043 559.467 7.04801 495.404C7.04801 495.127 7.04801 494.851 7.04801 494.567C7.04801 493.547 7.03345 492.521 7.03345 491.501Z" fill="var(--text)"/>
</g>
<g id="wand_glyph">
<path id="Vector_3" d="M644.911 149.268L670.396 280.334L801.463 305.819L670.396 331.305L644.911 462.371L619.426 331.305L488.359 305.819L619.426 280.334L644.911 149.268Z" fill="var(--text)"/>
<path id="Vector_4" d="M366.759 284.703L405.164 482.218L602.679 520.623L405.164 559.029L366.759 756.543L328.353 559.029L130.839 520.623L328.353 482.218L366.759 284.703Z" fill="#FF4500"/>
<path id="Vector_5" d="M449.768 149.268L460.69 200.238L511.66 211.16L460.69 222.082L449.768 273.053L438.845 222.082L387.875 211.16L438.845 200.238L449.768 149.268Z" fill="var(--text)"/>
<path id="Vector_6" d="M754.133 444.168L761.415 484.216L801.463 491.498L761.415 498.779L754.133 538.827L746.852 498.779L706.804 491.498L746.852 484.216L754.133 444.168Z" fill="var(--text)"/>
<path id="Vector_7" d="M734.473 613.826L741.755 653.874L781.803 661.156L741.755 668.437L734.473 708.485L727.192 668.437L687.144 661.156L727.192 653.874L734.473 613.826Z" fill="var(--text)"/>
<path id="Vector_8" d="M526.223 661.156L537.986 725.849L602.679 737.612L537.986 749.374L526.223 814.067L514.461 749.374L449.768 737.612L514.461 725.849L526.223 661.156Z" fill="var(--text)"/>
</g>
</g>
</g>
<g id="Group 22115">
<path id="Vector_9" d="M208.779 341.538L219.125 343.379C219.739 340.863 220.412 338.419 221.144 336.046C221.875 333.674 222.728 331.273 223.702 328.845L216.624 329.059L208.779 341.538ZM228.246 347.662L245.154 358.187C248.247 356.125 251.426 353.321 254.69 349.777C257.954 346.233 260.894 342.381 263.509 338.222C267.867 331.289 270.852 324.012 272.466 316.391C274.079 308.769 274.022 302.101 272.295 296.386C266.397 297.307 260.343 300.151 254.133 304.917C247.924 309.684 242.64 315.534 238.282 322.467C235.667 326.626 233.47 330.945 231.691 335.423C229.913 339.901 228.764 343.98 228.246 347.662ZM247.986 334.889C245.709 333.457 244.262 331.39 243.646 328.689C243.03 325.987 243.438 323.497 244.87 321.219C246.302 318.941 248.389 317.49 251.131 316.865C253.873 316.239 256.383 316.643 258.66 318.075C260.938 319.507 262.385 321.574 263.001 324.275C263.617 326.977 263.209 329.467 261.777 331.745C260.345 334.022 258.258 335.474 255.516 336.099C252.774 336.724 250.264 336.321 247.986 334.889ZM259.139 373.197L266.984 360.718L264.108 354.247C262.342 356.177 260.544 357.966 258.714 359.613C256.884 361.261 254.968 362.906 252.968 364.55L259.139 373.197ZM278.992 285.569C282.749 294.978 283.967 304.69 282.644 314.706C281.322 324.722 277.424 334.879 270.949 345.179L276.099 356.604C276.789 358.143 277.067 359.734 276.933 361.377C276.798 363.019 276.295 364.534 275.424 365.921L259.734 390.878L244.139 369.363L218.736 353.394L192.588 348.666L208.156 323.736C209.028 322.35 210.195 321.235 211.657 320.393C213.119 319.55 214.694 319.106 216.38 319.061L228.908 318.75C235.383 308.45 242.822 300.518 251.225 294.954C259.628 289.39 268.884 286.262 278.992 285.569ZM206.997 372.232C209.176 368.766 212.297 366.548 216.36 365.58C220.424 364.611 224.189 365.216 227.655 367.395C231.121 369.574 233.299 372.704 234.187 376.786C235.075 380.868 234.43 384.642 232.251 388.108C230.694 390.584 227.723 393.086 223.336 395.613C218.949 398.141 212.731 400.916 204.681 403.939C203.916 395.375 203.722 388.568 204.098 383.52C204.474 378.471 205.44 374.708 206.997 372.232ZM215.437 377.435C214.814 378.425 214.343 380.081 214.024 382.402C213.705 384.723 213.632 387.009 213.806 389.26C215.91 388.441 217.943 387.404 219.906 386.151C221.868 384.898 223.161 383.776 223.783 382.785C224.53 381.597 224.788 380.308 224.556 378.919C224.324 377.529 223.614 376.461 222.425 375.714C221.237 374.967 219.962 374.77 218.6 375.123C217.238 375.475 216.184 376.246 215.437 377.435Z" fill="#FF4500"/>
<path id="Vector_10" d="M208.779 341.539L219.125 343.379C219.739 340.864 220.412 338.42 221.143 336.047C221.875 333.674 222.727 331.274 223.701 328.846L216.623 329.06L208.779 341.539ZM228.246 347.663L245.153 358.188C248.246 356.126 251.425 353.322 254.689 349.778C257.954 346.234 260.893 342.382 263.508 338.223C267.866 331.29 270.852 324.013 272.465 316.392C274.079 308.77 274.022 302.102 272.295 296.387C266.396 297.308 260.342 300.151 254.133 304.918C247.923 309.685 242.64 315.535 238.281 322.468C235.667 326.627 233.47 330.946 231.691 335.424C229.912 339.902 228.764 343.981 228.246 347.663ZM247.986 334.89C245.708 333.458 244.261 331.391 243.645 328.689C243.029 325.988 243.437 323.498 244.869 321.22C246.301 318.942 248.388 317.491 251.13 316.866C253.872 316.24 256.382 316.644 258.66 318.076C260.938 319.508 262.385 321.575 263.001 324.276C263.617 326.978 263.209 329.468 261.777 331.746C260.345 334.023 258.258 335.475 255.516 336.1C252.774 336.725 250.264 336.322 247.986 334.89ZM259.138 373.198L266.983 360.719L264.108 354.248C262.342 356.178 260.544 357.967 258.714 359.614C256.883 361.262 254.968 362.907 252.967 364.551L259.138 373.198ZM278.991 285.57C282.748 294.979 283.966 304.691 282.644 314.707C281.322 324.723 277.423 334.88 270.948 345.18L276.098 356.605C276.789 358.144 277.067 359.735 276.932 361.378C276.798 363.02 276.295 364.535 275.423 365.921L259.734 390.879L244.138 369.364L218.736 353.395L192.587 348.667L208.156 323.737C209.027 322.351 210.194 321.236 211.657 320.394C213.119 319.551 214.693 319.107 216.38 319.062L228.908 318.751C235.383 308.451 242.822 300.519 251.225 294.955C259.628 289.391 268.883 286.263 278.991 285.57Z" fill="var(--text)"/>
</g>
</g>
</g>
<defs>
<clipPath id="clip0_6482_2016">
<rect width="4382" height="983" fill="white"/>
</clipPath>
</defs>
</svg>
