<svg width="500" viewBox="0 0 4385 983" fill="none" xmlns="http://www.w3.org/2000/svg">
    <g id="managed_settings" clip-path="url(#clip0_3021_590)">
        <g id="text">
            <g id="nged">
                <path d="M2207.59 104.274V433.394H2153.14V3.84433H2199.12L2461.69 339.619V4.44933H2516.14V433.394H2466.53L2207.59 104.274Z" fill="var(--text)"/>
                <path d="M3293.51 436.419C3265.28 436.419 3238.86 430.369 3214.26 418.269C3190.06 405.766 3168.88 389.229 3150.73 368.659C3132.58 347.686 3118.47 324.293 3108.38 298.479C3098.3 272.263 3093.26 245.239 3093.26 217.409C3093.26 188.369 3098.3 160.943 3108.38 135.129C3118.47 108.913 3132.38 85.721 3150.13 65.5543C3168.28 45.3877 3189.45 29.6577 3213.65 18.3643C3238.26 6.66767 3264.88 0.819336 3293.51 0.819336C3335.06 0.819336 3369.34 9.49101 3396.36 26.8343C3423.39 44.1777 3443.76 66.7644 3457.47 94.5943L3415.72 123.634C3403.22 98.6277 3386.08 80.0743 3364.3 67.9743C3342.52 55.8743 3318.52 49.8244 3292.3 49.8244C3270.52 49.8244 3250.76 54.4627 3233.01 63.7394C3215.27 73.016 3199.94 85.721 3187.03 101.854C3174.53 117.584 3164.85 135.533 3157.99 155.699C3151.54 175.866 3148.31 196.839 3148.31 218.619C3148.31 241.609 3151.94 263.389 3159.2 283.959C3166.87 304.126 3177.56 322.074 3191.27 337.804C3204.98 353.131 3220.91 365.231 3239.06 374.104C3257.21 382.978 3276.78 387.414 3297.75 387.414C3322.35 387.414 3345.75 381.163 3367.93 368.659C3390.11 356.156 3411.09 336.998 3430.85 311.184V367.449C3392.13 413.429 3346.35 436.419 3293.51 436.419ZM3424.19 260.364H3331.63V219.224H3470.17V433.394H3424.19V260.364Z" fill="var(--text)"/>
                <path d="M3899.04 384.994V433.394H3607.43V3.84433H3893.59V52.2443H3661.88V191.394H3863.34V236.769H3661.88V384.994H3899.04Z" fill="var(--text)"/>
                <path d="M4028.19 433.394V3.84433H4177.02C4223 3.84433 4261.31 13.5243 4291.97 32.8843C4323.02 51.841 4346.22 77.6543 4361.54 110.324C4376.87 142.591 4384.53 178.488 4384.53 218.014C4384.53 261.574 4376.06 299.488 4359.12 331.754C4342.18 364.021 4318.18 389.028 4287.13 406.774C4256.07 424.521 4219.37 433.394 4177.02 433.394H4028.19ZM4329.48 218.014C4329.48 185.748 4323.43 157.111 4311.33 132.104C4299.63 107.098 4282.49 87.536 4259.9 73.4193C4237.32 59.3027 4209.69 52.2443 4177.02 52.2443H4082.64V384.994H4177.02C4210.09 384.994 4237.92 377.734 4260.51 363.214C4283.09 348.291 4300.24 328.326 4311.93 303.319C4323.63 277.909 4329.48 249.474 4329.48 218.014Z" fill="var(--text)"/>
            </g>
            <path id="a-2" fill-rule="evenodd" clip-rule="evenodd" d="M2851.16 4.73828L3024.89 433.939H2965.84L2825.52 68.6156L2685.19 433.939H2628.14L2801.87 4.73828H2851.16Z" fill="var(--text)"/>
            <path id="a-1" fill-rule="evenodd" clip-rule="evenodd" d="M1867.25 4.73047L2040.98 433.931H1981.93L1841.61 68.6078L1701.28 433.931H1644.24L1817.97 4.73047H1867.25Z" fill="var(--text)"/>
            <path id="m" d="M1477.48 433.403V105.494L1335.91 357.778H1302.64L1160.46 105.494V433.403H1106.01V3.85352H1163.49L1318.97 282.759L1475.06 3.85352H1531.93V433.403H1477.48Z" fill="var(--text)"/>
        <g id="settings">
            <path d="M1392.18 639.324C1387.34 633.678 1380.88 628.233 1372.82 622.989C1364.75 617.746 1355.67 613.108 1345.59 609.074C1335.51 604.638 1324.42 601.209 1312.32 598.789C1300.62 595.966 1288.32 594.554 1275.41 594.554C1242.34 594.554 1217.94 600.806 1202.21 613.309C1186.48 625.813 1178.61 642.954 1178.61 664.734C1178.61 680.061 1182.64 692.161 1190.71 701.034C1198.78 709.908 1211.08 717.168 1227.62 722.814C1244.56 728.461 1265.93 734.309 1291.75 740.359C1321.59 746.813 1347.41 754.678 1369.19 763.954C1390.97 773.231 1407.7 785.734 1419.4 801.464C1431.1 816.791 1436.95 837.361 1436.95 863.174C1436.95 883.744 1432.91 901.693 1424.85 917.019C1417.18 931.943 1406.29 944.446 1392.18 954.529C1378.06 964.209 1361.52 971.469 1342.57 976.309C1323.61 980.746 1303.04 982.964 1280.86 982.964C1259.08 982.964 1237.7 980.746 1216.73 976.309C1196.16 971.469 1176.59 964.613 1158.04 955.739C1139.49 946.866 1122.15 935.774 1106.01 922.464L1132.03 876.484C1138.48 883.341 1146.75 890.198 1156.83 897.054C1167.32 903.508 1179.01 909.558 1191.92 915.204C1205.23 920.851 1219.55 925.489 1234.88 929.119C1250.2 932.346 1265.93 933.959 1282.07 933.959C1312.72 933.959 1336.52 928.514 1353.46 917.624C1370.4 906.331 1378.87 889.996 1378.87 868.619C1378.87 852.486 1374.03 839.579 1364.35 829.899C1355.07 820.219 1341.15 812.153 1322.6 805.699C1304.05 799.246 1281.46 792.793 1254.84 786.339C1225.8 779.079 1201.4 771.214 1181.64 762.744C1161.87 753.871 1146.95 742.376 1136.87 728.259C1127.19 714.143 1122.35 695.791 1122.35 673.204C1122.35 645.778 1129 622.586 1142.31 603.629C1155.62 584.673 1173.97 570.354 1197.37 560.674C1220.76 550.994 1247.18 546.154 1276.62 546.154C1295.98 546.154 1313.93 548.171 1330.47 552.204C1347.41 556.238 1363.14 561.884 1377.66 569.144C1392.18 576.404 1405.49 585.076 1417.59 595.159L1392.18 639.324Z" fill="var(--text)"/>
            <path d="M1854.62 930.329V978.729H1563.01V549.179H1849.18V597.579H1617.46V736.729H1818.93V782.104H1617.46V930.329H1854.62Z" fill="var(--text)"/>
            <path d="M2293.53 597.579H2145.31V978.729H2090.86V597.579H1942.63V549.179H2293.53V597.579Z" fill="var(--text)"/>
            <path d="M2719.61 597.579H2571.38V978.729H2516.93V597.579H2368.71V549.179H2719.61V597.579Z" fill="var(--text)"/>
            <path d="M2835.92 978.729V549.179H2890.37V978.729H2835.92Z" fill="var(--text)"/>
            <path d="M3101.98 649.609V978.729H3047.53V549.179H3093.51L3356.08 884.954V549.784H3410.53V978.729H3360.92L3101.98 649.609Z" fill="var(--text)"/>
            <path d="M3739.97 981.754C3711.74 981.754 3685.32 975.704 3660.72 963.604C3636.52 951.101 3615.34 934.564 3597.19 913.994C3579.04 893.021 3564.93 869.628 3554.84 843.814C3544.76 817.598 3539.72 790.574 3539.72 762.744C3539.72 733.704 3544.76 706.278 3554.84 680.464C3564.93 654.248 3578.84 631.056 3596.59 610.889C3614.74 590.723 3635.91 574.993 3660.11 563.699C3684.72 552.003 3711.34 546.154 3739.97 546.154C3781.52 546.154 3815.8 554.826 3842.82 572.169C3869.85 589.513 3890.21 612.099 3903.93 639.929L3862.18 668.969C3849.68 643.963 3832.54 625.409 3810.76 613.309C3788.98 601.209 3764.98 595.159 3738.76 595.159C3716.98 595.159 3697.22 599.798 3679.47 609.074C3661.73 618.351 3646.4 631.056 3633.49 647.189C3620.99 662.919 3611.31 680.868 3604.45 701.034C3598 721.201 3594.77 742.174 3594.77 763.954C3594.77 786.944 3598.4 808.724 3605.66 829.294C3613.33 849.461 3624.01 867.409 3637.73 883.139C3651.44 898.466 3667.37 910.566 3685.52 919.439C3703.67 928.313 3723.23 932.749 3744.21 932.749C3768.81 932.749 3792.2 926.498 3814.39 913.994C3836.57 901.491 3857.54 882.333 3877.31 856.519V912.784C3838.59 958.764 3792.81 981.754 3739.97 981.754ZM3870.65 805.699H3778.09V764.559H3916.63V978.729H3870.65V805.699Z" fill="var(--text)"/>
            <path d="M4306.17 639.324C4301.33 633.678 4294.88 628.233 4286.81 622.989C4278.75 617.746 4269.67 613.108 4259.59 609.074C4249.5 604.638 4238.41 601.209 4226.31 598.789C4214.62 595.966 4202.31 594.554 4189.41 594.554C4156.33 594.554 4131.93 600.806 4116.2 613.309C4100.47 625.813 4092.61 642.954 4092.61 664.734C4092.61 680.061 4096.64 692.161 4104.71 701.034C4112.77 709.908 4125.08 717.168 4141.61 722.814C4158.55 728.461 4179.93 734.309 4205.74 740.359C4235.59 746.813 4261.4 754.678 4283.18 763.954C4304.96 773.231 4321.7 785.734 4333.4 801.464C4345.09 816.791 4350.94 837.361 4350.94 863.174C4350.94 883.744 4346.91 901.693 4338.84 917.019C4331.18 931.943 4320.29 944.446 4306.17 954.529C4292.06 964.209 4275.52 971.469 4256.56 976.309C4237.61 980.746 4217.04 982.964 4194.85 982.964C4173.07 982.964 4151.7 980.746 4130.72 976.309C4110.15 971.469 4090.59 964.613 4072.04 955.739C4053.48 946.866 4036.14 935.774 4020.01 922.464L4046.02 876.484C4052.48 883.341 4060.74 890.198 4070.83 897.054C4081.31 903.508 4093.01 909.558 4105.92 915.204C4119.23 920.851 4133.55 925.489 4148.87 929.119C4164.2 932.346 4179.93 933.959 4196.06 933.959C4226.72 933.959 4250.51 928.514 4267.45 917.624C4284.39 906.331 4292.86 889.996 4292.86 868.619C4292.86 852.486 4288.02 839.579 4278.34 829.899C4269.07 820.219 4255.15 812.153 4236.6 805.699C4218.04 799.246 4195.46 792.793 4168.84 786.339C4139.8 779.079 4115.4 771.214 4095.63 762.744C4075.87 753.871 4060.95 742.376 4050.86 728.259C4041.18 714.143 4036.34 695.791 4036.34 673.204C4036.34 645.778 4043 622.586 4056.31 603.629C4069.62 584.673 4087.97 570.354 4111.36 560.674C4134.76 550.994 4161.17 546.154 4190.62 546.154C4209.98 546.154 4227.93 548.171 4244.46 552.204C4261.4 556.238 4277.13 561.884 4291.65 569.144C4306.17 576.404 4319.48 585.076 4331.58 595.159L4306.17 639.324Z" fill="var(--text)"/>
        </g>
    </g>
    <g id="managed_settings_2">
        <g id="dynamic">
            <g id="spiral">
                <path id="right" d="M177.964 113.629C214.786 83.0672 255.677 58.1975 299.99 39.455C360.56 13.8333 424.883 0.841842 491.153 0.841839C557.423 0.841837 621.739 13.8333 682.317 39.455C726.629 58.1975 767.521 83.0672 804.342 113.629C816.117 123.398 827.472 133.75 838.391 144.67C883.478 189.756 918.877 242.268 943.613 300.744C968.336 359.184 981.297 421.118 982.175 484.911C982.19 485.921 982.197 486.938 982.212 487.948C982.212 488.228 982.212 488.509 982.212 488.796C982.212 489.828 982.227 490.868 982.227 491.9C982.227 492.933 982.227 493.972 982.212 495.004C982.212 495.292 982.212 495.572 982.212 495.852C982.197 496.862 982.19 497.88 982.175 498.89C978.584 723.771 802.256 907.45 580.354 922.772C551.48 924.807 519.982 923.789 491.153 919.764C408.751 908.431 333.678 873.755 272.864 822.645C335.506 864.133 410.557 888.302 491.153 888.302C571.749 888.302 646.8 864.126 709.442 822.645C815.365 752.511 885.801 632.889 887.526 497.017C887.541 495.314 887.555 493.604 887.555 491.9C887.555 490.197 887.541 488.487 887.526 486.783C886.877 427.098 874.851 369.189 851.751 314.569C828.806 260.317 795.959 211.596 754.124 169.76C712.288 127.925 663.574 95.078 609.315 72.1328C599.76 68.0923 590.101 64.3909 580.346 61.0214C551.362 51.0308 521.56 44.0411 491.146 40.1112C471.659 37.5896 451.913 36.3214 431.984 36.3214C370.484 36.3214 310.828 48.3691 254.652 72.1254C227.659 83.539 202.045 97.4005 177.957 113.607L177.964 113.629Z" fill="#FF4500"/>
                <path id="left" d="M0.0898223 491.906C0.0898222 490.874 0.0898222 489.834 0.104568 488.802C0.104568 488.514 0.104568 488.234 0.104568 487.954C0.119315 486.944 0.126688 485.926 0.141434 484.916C0.15618 484.164 0.170926 483.412 0.185673 482.66C0.185673 482.505 0.185673 482.343 0.200419 482.195C0.215165 481.746 0.222538 481.296 0.237285 480.839C0.252031 480.396 0.259404 479.947 0.27415 479.497C0.318389 477.912 0.370001 476.334 0.436359 474.749C0.473225 473.871 0.51009 472.994 0.546956 472.124C0.569075 471.497 0.598568 470.87 0.635434 470.244C0.797643 466.963 0.996717 463.696 1.23266 460.437C1.26952 459.884 1.30639 459.324 1.358 458.771C1.41699 457.989 1.47597 457.215 1.54233 456.434C1.58657 455.895 1.63081 455.35 1.67505 454.812C1.80039 453.359 1.92573 451.907 2.0732 450.454C2.2649 448.375 2.47872 446.303 2.71466 444.231C3.07594 440.965 3.47409 437.721 3.90173 434.476C3.96809 433.997 4.03445 433.518 4.09343 433.046C6.65929 414.304 10.427 395.944 15.3301 378.042C15.5513 377.224 15.7799 376.413 16.0084 375.602C16.237 374.784 16.4656 373.972 16.6941 373.161C17.1513 371.591 17.6084 370.013 18.0803 368.443C19.2968 364.358 20.5798 360.288 21.9217 356.255C22.4304 354.729 22.9392 353.217 23.4627 351.691C24.3106 349.236 25.1732 346.795 26.058 344.362C26.8248 342.253 27.6064 340.159 28.41 338.073C28.7713 337.129 29.14 336.185 29.5013 335.241C29.752 334.6 30.0026 333.958 30.2607 333.31C30.9317 331.629 31.6026 329.955 32.2883 328.289C33.2321 325.981 34.198 323.688 35.186 321.402C35.8422 319.883 36.5058 318.364 37.1841 316.838C37.5232 316.079 37.855 315.327 38.2016 314.567C38.5481 313.808 38.8873 313.056 39.2338 312.304C39.5804 311.552 39.9269 310.799 40.2734 310.047C40.9739 308.543 41.6817 307.047 42.3969 305.557C43.4734 303.323 44.5646 301.089 45.6779 298.87C46.054 298.132 46.4226 297.388 46.7987 296.658C47.9194 294.453 49.0622 292.249 50.2272 290.059C50.6106 289.329 51.0013 288.599 51.3921 287.876C51.6944 287.316 51.9967 286.756 52.299 286.195C54.1276 282.833 56.0003 279.5 57.9173 276.205C58.2639 275.6 58.6104 275.003 58.9643 274.406C60.3284 272.076 61.7145 269.753 63.1228 267.445C63.4398 266.929 63.7569 266.413 64.0739 265.897C65.8582 263.007 67.672 260.139 69.5153 257.293C69.9208 256.681 70.319 256.054 70.7245 255.442C71.0415 254.948 71.366 254.461 71.6977 253.967C72.1106 253.348 72.5235 252.721 72.9438 252.094C74.3594 249.986 75.7898 247.892 77.2423 245.813C77.7069 245.142 78.1861 244.463 78.658 243.792C79.6017 242.45 80.5529 241.116 81.5188 239.781C81.998 239.11 82.4847 238.447 82.9639 237.791C84.4164 235.8 85.8837 233.824 87.373 231.863C87.867 231.206 88.3684 230.558 88.8624 229.901C90.3518 227.947 91.8707 226.008 93.3969 224.077C93.9056 223.435 94.4144 222.794 94.9305 222.152C95.3876 221.577 95.8448 221.009 96.3093 220.442C96.877 219.741 97.4521 219.033 98.0346 218.333C98.5065 217.75 98.9784 217.183 99.4576 216.608C100.025 215.922 100.593 215.236 101.176 214.558C101.699 213.931 102.23 213.304 102.761 212.678C103.284 212.058 103.823 211.432 104.361 210.805C105.422 209.559 106.499 208.328 107.583 207.096C108.121 206.484 108.667 205.865 109.212 205.253C110.842 203.417 112.493 201.596 114.16 199.789C114.713 199.185 115.266 198.58 115.826 197.983C116.939 196.781 118.06 195.587 119.196 194.407C119.756 193.817 120.324 193.227 120.891 192.63C121.459 192.04 122.027 191.45 122.602 190.861C123.17 190.278 123.745 189.688 124.32 189.106C125.448 187.956 126.583 186.813 127.726 185.677C128.331 185.08 128.928 184.483 129.54 183.893C130.123 183.318 130.712 182.743 131.295 182.175C132.475 181.032 133.647 179.897 134.841 178.776C135.431 178.208 136.028 177.648 136.626 177.088C144.707 169.493 153.082 162.216 161.724 155.27C162.365 154.747 163.007 154.238 163.656 153.729C167.88 150.367 172.172 147.086 176.522 143.886C177.001 143.532 177.488 143.179 177.974 142.825C178.453 142.471 178.933 142.124 179.419 141.778C179.972 141.372 180.533 140.974 181.086 140.568C182.914 139.263 184.757 137.966 186.608 136.683C187.183 136.285 187.758 135.886 188.333 135.496C189.454 134.721 190.597 133.955 191.732 133.188C192.374 132.753 193.008 132.333 193.657 131.905C194.033 131.654 194.416 131.404 194.8 131.145C195.382 130.769 195.95 130.386 196.532 130.01C197.218 129.56 197.911 129.111 198.604 128.668C200.706 127.311 202.814 125.977 204.938 124.657C205.609 124.244 206.28 123.824 206.958 123.411C208.108 122.711 209.266 122.003 210.423 121.31C211.124 120.882 211.846 120.454 212.554 120.034C217.538 117.085 222.582 114.224 227.691 111.474C228.215 111.186 228.746 110.899 229.276 110.619C230.434 109.999 231.606 109.38 232.771 108.775C233.501 108.392 234.239 108.009 234.976 107.633C238.648 105.738 242.356 103.902 246.087 102.11C246.832 101.756 247.584 101.395 248.329 101.048C249.081 100.694 249.833 100.348 250.585 99.994C251.285 99.6695 251.978 99.3452 252.679 99.0207C255.149 97.8853 257.641 96.7719 260.14 95.6881C260.738 95.4226 261.342 95.1646 261.94 94.9066C264.992 93.5941 268.067 92.3185 271.149 91.0725C271.915 90.7554 272.69 90.4531 273.471 90.1435C277.954 88.3665 282.474 86.6634 287.03 85.0413C287.819 84.7537 288.608 84.4809 289.404 84.2008C290.046 83.9722 290.68 83.751 291.321 83.5298C292.265 83.2054 293.216 82.881 294.167 82.5566C294.765 82.3575 295.362 82.151 295.959 81.9519C296.306 81.8413 296.66 81.7234 297.006 81.6054C298.333 81.1704 299.66 80.7354 301.002 80.3151C306.311 78.6193 311.657 77.0267 317.054 75.5373C317.607 75.3825 318.16 75.2276 318.713 75.0802C321.854 74.2249 325.017 73.3991 328.195 72.6176C328.674 72.4922 329.16 72.3742 329.647 72.2636C330.089 72.153 330.532 72.0424 330.982 71.9392C332.53 71.5632 334.078 71.2019 335.641 70.848C344.017 68.931 352.496 67.2572 361.057 65.8342C361.868 65.7015 362.671 65.5688 363.482 65.4361C363.807 65.3844 364.139 65.3329 364.463 65.2812C365.407 65.1264 366.365 64.979 367.316 64.8389C368.113 64.7209 368.916 64.603 369.72 64.485C370.988 64.3007 372.256 64.1237 373.532 63.9541C382.925 62.6786 392.415 61.6979 402 61.0343C411.924 60.356 421.937 60.0021 432.03 60.0021C452.1 60.0021 471.845 61.3809 491.193 64.0426C573.595 75.3751 648.668 110.051 709.482 161.162C646.84 119.673 571.788 95.5037 491.193 95.5037C410.597 95.5037 335.546 119.68 272.903 161.162C166.981 231.295 96.5452 350.917 94.8199 486.789C94.8052 488.492 94.7904 490.203 94.7904 491.906C94.7904 493.609 94.8052 495.32 94.8199 497.023C95.4688 556.708 107.494 614.617 130.594 669.237C153.54 723.489 186.387 772.21 228.222 814.046C270.057 855.881 318.772 888.728 373.031 911.673C382.586 915.714 392.245 919.415 402 922.785C507.074 959.245 625.723 955.138 727.693 911.673C754.686 900.26 780.301 886.398 804.389 870.192C767.567 900.754 726.676 925.623 682.363 944.366C621.749 969.98 557.433 982.972 491.156 982.972C424.879 982.972 360.57 969.98 299.992 944.359C255.68 925.616 214.788 900.746 177.967 870.185C166.192 860.415 154.837 850.063 143.918 839.144C98.8309 794.057 63.4325 741.546 38.6956 683.069C13.59 623.701 0.613318 560.727 0.104569 495.858C0.104569 495.578 0.104569 495.298 0.104569 495.01C0.104569 493.978 0.0898223 492.938 0.0898223 491.906Z" fill="var(--text)"/>
            </g>
                <g id="settings_cog">
                    <circle id="bullseye" cx="491.157" cy="491.501" r="52.1218" fill="#FF4500">
                    <animate
                        attributeType="XML"
                        attributeName="fill"
                        values="#FF4500;#FF4500;var(--background);#FF4500"
                        dur="2s"
                        repeatCount="indefinite"/>
                    </circle>
                    <path id="cog" d="M451.25 808.936C436.507 808.936 424.071 797.958 422.243 783.329L415.068 725.93C413.634 714.454 405.485 705.062 394.9 700.402C388.9 697.761 382.678 694.647 376.233 691.061C369.461 687.297 363.214 683.394 357.492 679.351C348.178 672.771 336.153 670.556 325.659 675.019L272.787 697.506C259.164 703.3 243.361 697.995 235.992 685.156L196.04 615.545C188.705 602.764 192.029 586.523 203.795 577.651L250.328 542.566C258.997 536.03 263.228 525.237 262.079 514.441C262.002 513.717 261.927 512.992 261.854 512.263C261.173 505.512 260.832 498.951 260.832 492.581C260.832 486.663 261.173 480.442 261.854 473.92C262.028 472.236 262.214 470.498 262.412 468.705C263.565 458.283 259.259 447.973 250.886 441.66L203.902 406.235C192.091 397.329 188.793 381.003 196.223 368.211L235.99 299.743C243.376 287.025 259.06 281.775 272.614 287.483L325.809 309.885C335.875 314.124 347.381 312.274 356.278 305.938C362.686 301.374 369.373 297.087 376.338 293.079C382.649 289.445 388.87 286.238 395 283.457C405.2 278.83 412.959 269.7 414.421 258.596L422.097 200.287C424.012 185.742 436.41 174.869 451.08 174.869H531.043C545.795 174.869 558.236 185.861 560.054 200.5L567.374 259.454C568.741 270.466 576.303 279.585 586.453 284.069C593.266 287.077 599.583 290.307 605.404 293.757C611.353 297.283 617.404 301.314 623.557 305.853C632.294 312.297 643.707 314.211 653.754 310.099L709.842 287.144C723.349 281.616 738.864 286.897 746.194 299.517L786.09 368.209C793.52 381.002 790.222 397.329 778.409 406.235L730.909 442.042C721.4 449.211 717.851 461.405 718.409 473.301C718.419 473.508 718.427 473.714 718.435 473.92C718.658 479.99 718.77 485.985 718.77 491.903C718.77 497.369 718.544 503.137 718.092 509.207C717.995 510.504 717.872 511.858 717.722 513.27C716.546 524.351 720.622 535.494 729.537 542.178L776.864 577.664C788.677 586.522 792.031 602.799 784.681 615.605L744.82 685.058C737.427 697.939 721.551 703.23 707.909 697.359L653.962 674.141C643.817 669.775 632.162 671.619 623.254 678.149C616.952 682.769 610.629 686.961 604.285 690.727C598.657 694.068 592.912 697.055 587.052 699.689C576.656 704.361 568.706 713.617 567.302 724.927L560.054 783.305C558.236 797.945 545.795 808.936 531.043 808.936H451.25ZM490.206 579.968C514.776 579.968 535.598 571.431 552.67 554.358C569.737 537.291 578.271 516.473 578.271 491.903C578.271 467.333 569.737 446.514 552.67 429.447C535.598 412.374 514.776 403.838 490.206 403.838C465.507 403.838 444.653 412.374 427.645 429.447C410.642 446.514 402.141 467.333 402.141 491.903C402.141 516.473 410.642 537.291 427.645 554.358C444.653 571.431 465.507 579.968 490.206 579.968Z" fill="var(--text)"/>
                </g>
            </g>
        </g>
    </g>
    <defs>
    <clipPath id="clip0_3021_590">
    <rect width="4385" height="983" fill="white"/>
    </clipPath>
    </defs>
</svg>