<svg width="25" height="25" viewBox="0 0 1024 1024" fill="none" xmlns="http://www.w3.org/2000/svg">
    <g id="managed_settings">
        <g id="dynamic">
            <g id="spiral">
                <path id="right" d="M177.962 113.629C214.784 83.0672 255.675 58.1975 299.987 39.455C360.557 13.8333 424.88 0.841842 491.149 0.841839C557.419 0.841837 621.734 13.8333 682.311 39.455C726.624 58.1975 767.515 83.0672 804.336 113.629C816.111 123.398 827.465 133.75 838.385 144.67C883.471 189.756 918.87 242.268 943.606 300.744C968.328 359.184 981.29 421.118 982.168 484.911C982.182 485.921 982.19 486.938 982.205 487.948C982.205 488.228 982.205 488.509 982.205 488.796C982.205 489.828 982.219 490.868 982.219 491.9C982.219 492.933 982.219 493.972 982.205 495.004C982.205 495.292 982.205 495.572 982.205 495.852C982.19 496.862 982.182 497.88 982.168 498.89C978.577 723.771 802.25 907.45 580.349 922.772C551.476 924.807 519.978 923.789 491.149 919.764C408.748 908.431 333.675 873.755 272.862 822.645C335.503 864.133 410.554 888.302 491.149 888.302C571.745 888.302 646.795 864.126 709.437 822.645C815.359 752.511 885.794 632.889 887.519 497.017C887.534 495.314 887.549 493.604 887.549 491.9C887.549 490.197 887.534 488.487 887.519 486.783C886.87 427.098 874.845 369.189 851.745 314.569C828.8 260.317 795.953 211.596 754.118 169.76C712.283 127.925 663.569 95.078 609.31 72.1328C599.755 68.0923 590.096 64.3909 580.342 61.0214C551.358 51.0308 521.556 44.0411 491.142 40.1112C471.655 37.5896 451.91 36.3214 431.98 36.3214C370.481 36.3214 310.826 48.3691 254.65 72.1254C227.657 83.539 202.043 97.4005 177.955 113.607L177.962 113.629Z" fill="#FF4500"/>
                <path id="left" d="M0.0898223 491.906C0.0898222 490.874 0.0898222 489.834 0.104568 488.802C0.104568 488.514 0.104568 488.234 0.104568 487.954C0.119314 486.944 0.126687 485.926 0.141434 484.916C0.15618 484.164 0.170926 483.412 0.185672 482.66C0.185672 482.505 0.185672 482.343 0.200418 482.195C0.215164 481.746 0.222537 481.296 0.237284 480.839C0.25203 480.396 0.259403 479.947 0.274149 479.497C0.318388 477.912 0.369999 476.334 0.436357 474.749C0.473222 473.871 0.510088 472.994 0.546953 472.124C0.569072 471.497 0.598565 470.87 0.63543 470.244C0.797638 466.963 0.996711 463.696 1.23265 460.437C1.26952 459.884 1.30638 459.324 1.35799 458.771C1.41698 457.989 1.47596 457.215 1.54232 456.434C1.58656 455.895 1.6308 455.35 1.67504 454.812C1.80038 453.359 1.92572 451.907 2.07318 450.454C2.26488 448.375 2.4787 446.303 2.71464 444.231C3.07592 440.965 3.47407 437.721 3.90171 434.476C3.96807 433.997 4.03442 433.518 4.09341 433.046C6.65924 414.304 10.4269 395.944 15.33 378.042C15.5512 377.224 15.7798 376.413 16.0083 375.602C16.2369 374.784 16.4655 373.972 16.694 373.161C17.1512 371.591 17.6083 370.013 18.0802 368.443C19.2967 364.358 20.5796 360.288 21.9215 356.255C22.4303 354.729 22.939 353.217 23.4625 351.691C24.3104 349.236 25.1731 346.795 26.0578 344.362C26.8246 342.253 27.6062 340.159 28.4099 338.073C28.7711 337.129 29.1398 336.185 29.5011 335.241C29.7518 334.6 30.0024 333.958 30.2605 333.31C30.9315 331.629 31.6024 329.955 32.2881 328.289C33.2319 325.981 34.1977 323.688 35.1857 321.402C35.8419 319.883 36.5055 318.364 37.1838 316.838C37.523 316.079 37.8548 315.327 38.2013 314.567C38.5479 313.808 38.887 313.056 39.2336 312.304C39.5801 311.552 39.9266 310.799 40.2732 310.047C40.9736 308.543 41.6814 307.047 42.3966 305.557C43.4731 303.323 44.5643 301.089 45.6776 298.87C46.0537 298.132 46.4223 297.388 46.7983 296.658C47.9191 294.453 49.0619 292.249 50.2268 290.059C50.6102 289.329 51.001 288.599 51.3918 287.876C51.6941 287.316 51.9964 286.756 52.2987 286.195C54.1272 282.833 56 279.5 57.917 276.205C58.2635 275.6 58.61 275.003 58.9639 274.406C60.328 272.076 61.7141 269.753 63.1224 267.445C63.4394 266.929 63.7565 266.413 64.0735 265.897C65.8578 263.007 67.6716 260.139 69.5148 257.293C69.9204 256.681 70.3185 256.054 70.724 255.442C71.0411 254.948 71.3655 254.461 71.6973 253.967C72.1102 253.348 72.5231 252.721 72.9433 252.094C74.359 249.986 75.7893 247.892 77.2418 245.813C77.7063 245.142 78.1856 244.463 78.6575 243.792C79.6012 242.45 80.5524 241.116 81.5182 239.781C81.9975 239.11 82.4841 238.447 82.9634 237.791C84.4159 235.8 85.8831 233.824 87.3725 231.863C87.8665 231.206 88.3678 230.558 88.8618 229.901C90.3512 227.947 91.8701 226.008 93.3963 224.077C93.905 223.435 94.4138 222.794 94.9299 222.152C95.387 221.577 95.8442 221.009 96.3087 220.442C96.8764 219.741 97.4515 219.033 98.034 218.333C98.5058 217.75 98.9777 217.183 99.457 216.608C100.025 215.922 100.592 215.236 101.175 214.558C101.698 213.931 102.229 213.304 102.76 212.678C103.284 212.058 103.822 211.432 104.36 210.805C105.422 209.559 106.498 208.328 107.582 207.096C108.12 206.484 108.666 205.865 109.212 205.253C110.841 203.417 112.493 201.596 114.159 199.789C114.712 199.185 115.265 198.58 115.825 197.983C116.939 196.781 118.059 195.587 119.195 194.407C119.755 193.817 120.323 193.227 120.891 192.63C121.458 192.04 122.026 191.45 122.601 190.861C123.169 190.278 123.744 189.688 124.319 189.106C125.447 187.956 126.583 186.813 127.725 185.677C128.33 185.08 128.927 184.483 129.539 183.893C130.122 183.318 130.711 182.743 131.294 182.175C132.474 181.032 133.646 179.897 134.84 178.776C135.43 178.208 136.027 177.648 136.625 177.088C144.706 169.493 153.081 162.216 161.723 155.27C162.364 154.747 163.006 154.238 163.654 153.729C167.879 150.367 172.17 147.086 176.521 143.886C177 143.532 177.486 143.179 177.973 142.825C178.452 142.471 178.932 142.124 179.418 141.778C179.971 141.372 180.531 140.974 181.084 140.568C182.913 139.263 184.756 137.966 186.607 136.683C187.182 136.285 187.757 135.886 188.332 135.496C189.453 134.721 190.596 133.955 191.731 133.188C192.373 132.753 193.007 132.333 193.656 131.905C194.032 131.654 194.415 131.404 194.798 131.145C195.381 130.769 195.949 130.386 196.531 130.01C197.217 129.56 197.91 129.111 198.603 128.668C200.704 127.311 202.813 125.977 204.936 124.657C205.607 124.244 206.278 123.824 206.957 123.411C208.107 122.711 209.264 122.003 210.422 121.31C211.122 120.882 211.845 120.454 212.553 120.034C217.537 117.085 222.58 114.224 227.69 111.474C228.213 111.186 228.744 110.899 229.275 110.619C230.433 109.999 231.605 109.38 232.77 108.775C233.5 108.392 234.237 108.009 234.974 107.633C238.646 105.738 242.355 103.902 246.086 102.11C246.83 101.756 247.582 101.395 248.327 101.048C249.079 100.694 249.831 100.348 250.583 99.994C251.284 99.6695 251.977 99.3452 252.677 99.0207C255.147 97.8853 257.639 96.7719 260.139 95.6881C260.736 95.4226 261.341 95.1646 261.938 94.9066C264.99 93.5941 268.065 92.3185 271.147 91.0725C271.914 90.7554 272.688 90.4531 273.469 90.1435C277.952 88.3665 282.472 86.6634 287.028 85.0413C287.817 84.7537 288.606 84.4809 289.403 84.2008C290.044 83.9722 290.678 83.751 291.32 83.5298C292.263 83.2054 293.214 82.881 294.166 82.5566C294.763 82.3575 295.36 82.151 295.957 81.9519C296.304 81.8413 296.658 81.7234 297.004 81.6054C298.331 81.1704 299.659 80.7354 301 80.3151C306.309 78.6193 311.655 77.0267 317.052 75.5373C317.605 75.3825 318.158 75.2276 318.711 75.0802C321.852 74.2249 325.015 73.3991 328.192 72.6176C328.672 72.4922 329.158 72.3742 329.645 72.2636C330.087 72.153 330.53 72.0424 330.979 71.9392C332.528 71.5632 334.076 71.2019 335.639 70.848C344.015 68.931 352.494 67.2572 361.054 65.8342C361.865 65.7015 362.669 65.5688 363.48 65.4361C363.804 65.3844 364.136 65.3329 364.461 65.2812C365.404 65.1264 366.363 64.979 367.314 64.8389C368.11 64.7209 368.914 64.603 369.718 64.485C370.986 64.3007 372.254 64.1237 373.53 63.9541C382.923 62.6786 392.412 61.6979 401.997 61.0343C411.921 60.356 421.934 60.0021 432.028 60.0021C452.097 60.0021 471.842 61.3809 491.189 64.0426C573.591 75.3751 648.664 110.051 709.477 161.162C646.835 119.673 571.785 95.5037 491.189 95.5037C410.594 95.5037 335.543 119.68 272.902 161.162C166.98 231.295 96.5446 350.917 94.8193 486.789C94.8046 488.492 94.7898 490.203 94.7898 491.906C94.7898 493.609 94.8046 495.32 94.8193 497.023C95.4681 556.708 107.494 614.617 130.594 669.237C153.539 723.489 186.386 772.21 228.221 814.046C270.056 855.881 318.77 888.728 373.028 911.673C382.584 915.714 392.242 919.415 401.997 922.785C507.071 959.245 625.719 955.138 727.689 911.673C754.682 900.26 780.296 886.398 804.384 870.192C767.562 900.754 726.671 925.623 682.359 944.366C621.745 969.98 557.429 982.972 491.153 982.972C424.876 982.972 360.568 969.98 299.99 944.359C255.678 925.616 214.787 900.746 177.966 870.185C166.191 860.415 154.836 850.063 143.917 839.144C98.8303 794.057 63.4321 741.546 38.6953 683.069C13.59 623.701 0.613315 560.727 0.104569 495.858C0.104569 495.578 0.104569 495.298 0.104569 495.01C0.104569 493.978 0.0898223 492.938 0.0898223 491.906Z" fill="var(--text)"/>
            </g>
            <g id="settings_cog">
                <circle id="bullseye" cx="491.153" cy="491.907" rx="52.1218" ry="52.12" fill="#FF4500">
                <animate
                    attributeType="XML"
                    attributeName="fill"
                    values="#FF4500;#FF4500;var(--background);#FF4500"
                    dur="2s"
                    repeatCount="indefinite"/>   
                </circle>
                <path id="cog" d="M451.154 799.857C436.452 799.857 424.036 788.937 422.16 774.355L415.147 719.851C413.665 708.334 405.428 698.945 394.755 694.371C388.8 691.819 382.625 688.815 376.231 685.36C369.362 681.65 363.033 677.802 357.243 673.814C348.067 667.495 336.349 665.36 326.052 669.614L272.341 691.803C258.895 697.358 243.411 692.181 236.011 679.656L196.677 613.085C189.03 600.143 192.445 583.511 204.573 574.629L249.88 541.446C258.797 534.916 263.159 523.925 261.985 512.935C261.94 512.519 261.896 512.102 261.853 511.684C261.172 505.126 260.832 498.753 260.832 492.566C260.832 486.817 261.172 480.775 261.853 474.439C262 473.062 262.155 471.646 262.319 470.193C263.515 459.59 259.074 449.101 250.466 442.797L204.685 409.267C192.511 400.351 189.124 383.633 196.868 370.681L236.01 305.217C243.427 292.814 258.793 287.691 272.169 293.162L326.189 315.26C336.061 319.298 347.267 317.52 356.03 311.441C362.513 306.944 369.282 302.723 376.337 298.78C382.595 295.279 388.765 292.186 394.846 289.501C405.137 284.956 412.991 275.826 414.502 264.678L422.012 209.264C423.976 194.769 436.352 183.957 450.98 183.957H531.134C545.846 183.957 558.266 194.89 560.132 209.484L567.292 265.504C568.707 276.567 576.369 285.692 586.615 290.098C593.365 293.001 599.627 296.114 605.401 299.438C611.426 302.907 617.556 306.88 623.79 311.356C632.4 317.54 643.518 319.38 653.369 315.464L710.281 292.839C723.609 287.541 738.811 292.693 746.171 305.002L785.441 370.679C793.186 383.631 789.798 400.351 777.622 409.267L731.114 443.323C721.517 450.35 717.97 462.553 718.432 474.439V474.439C718.655 480.336 718.766 486.159 718.766 491.907C718.766 497.216 718.54 502.819 718.088 508.716C718.013 509.698 717.921 510.714 717.814 511.765C716.656 523.052 720.83 534.403 730.001 541.083L776.081 574.644C788.256 583.512 791.7 600.178 784.039 613.145L744.796 679.563C737.372 692.128 721.817 697.293 708.352 691.663L653.576 668.764C643.625 664.604 632.273 666.377 623.495 672.644C617.112 677.199 610.708 681.33 604.283 685.035C598.703 688.252 593.009 691.131 587.201 693.673C576.714 698.263 568.672 707.52 567.22 718.875L560.132 774.33C558.266 788.924 545.846 799.857 531.134 799.857H451.154ZM490.204 577.449C514.774 577.449 535.595 569.157 552.668 552.573C569.735 535.995 578.268 515.773 578.268 491.907C578.268 468.041 569.735 447.819 552.668 431.241C535.595 414.657 514.774 406.365 490.204 406.365C465.505 406.365 444.651 414.657 427.643 431.241C410.641 447.819 402.14 468.041 402.14 491.907C402.14 515.773 410.641 535.995 427.643 552.573C444.651 569.157 465.505 577.449 490.204 577.449Z" fill="var(--text)"/>
            </g>
        </g>
    </g>
</svg>