<svg width="983" height="982" viewBox="0 0 983 982" fill="none" xmlns="http://www.w3.org/2000/svg">
<path d="M178.035 112.891C214.888 82.3023 255.816 57.4109 300.167 38.6519C360.79 13.0079 425.17 0.00502584 491.498 0.00502294C557.825 0.00502004 622.197 13.0079 682.828 38.6519C727.18 57.4108 768.107 82.3023 804.96 112.891C816.746 122.669 828.11 133.03 839.039 143.959C884.166 189.085 919.595 241.642 944.354 300.17C969.097 358.66 982.071 420.649 982.949 484.497C982.964 485.508 982.971 486.527 982.986 487.538C982.986 487.818 982.986 488.099 982.986 488.386C982.986 489.419 983.001 490.46 983.001 491.493C983.001 492.526 983.001 493.567 982.986 494.6C982.986 494.888 982.986 495.168 982.986 495.449C982.971 496.46 982.964 497.478 982.949 498.489C979.355 723.566 802.872 907.407 580.776 922.742C551.877 924.778 520.352 923.76 491.498 919.731C409.023 908.388 333.884 873.682 273.017 822.527C335.714 864.052 410.831 888.242 491.498 888.242C572.164 888.242 647.281 864.044 709.978 822.527C815.993 752.332 886.49 632.606 888.217 496.615C888.232 494.91 888.247 493.198 888.247 491.493C888.247 489.788 888.232 488.076 888.217 486.372C887.568 426.634 875.531 368.675 852.411 314.007C829.446 259.708 796.57 210.943 754.698 169.071C712.826 127.2 664.069 94.3236 609.763 71.3583C600.199 67.3143 590.532 63.6097 580.768 60.2372C551.759 50.2379 521.931 43.2421 491.49 39.3087C471.986 36.7849 452.223 35.5156 432.276 35.5156C370.723 35.5156 311.015 47.5739 254.79 71.351C227.773 82.7746 202.136 96.6482 178.027 112.869L178.035 112.891Z" fill="#FF4500"/>
<path d="M-2.14839e-05 491.507C-2.15291e-05 490.473 -2.15746e-05 489.433 0.0147376 488.4C0.0147375 488.112 0.0147375 487.831 0.0147375 487.551C0.0294967 486.54 0.0368762 485.522 0.0516353 484.511C0.0663945 483.758 0.0811536 483.005 0.0959128 482.253C0.0959128 482.098 0.0959128 481.935 0.110672 481.788C0.125431 481.337 0.132811 480.887 0.14757 480.43C0.162329 479.987 0.169709 479.537 0.184468 479.087C0.228745 477.5 0.280402 475.921 0.346819 474.334C0.383716 473.456 0.420614 472.578 0.457512 471.707C0.479651 471.08 0.509169 470.453 0.546067 469.825C0.708418 466.541 0.907667 463.272 1.14381 460.01C1.18071 459.457 1.21761 458.896 1.26927 458.343C1.3283 457.56 1.38734 456.786 1.45376 456.003C1.49803 455.465 1.54231 454.919 1.58659 454.38C1.71204 452.926 1.83749 451.472 1.98509 450.018C2.17696 447.937 2.39096 445.864 2.62711 443.79C2.98871 440.521 3.38721 437.274 3.81522 434.027C3.88164 433.547 3.94806 433.068 4.00709 432.595C6.57519 413.836 10.3462 395.461 15.2536 377.544C15.475 376.724 15.7037 375.913 15.9325 375.101C16.1613 374.282 16.39 373.47 16.6188 372.658C17.0763 371.086 17.5339 369.507 18.0062 367.935C19.2238 363.847 20.5079 359.773 21.8509 355.737C22.3601 354.209 22.8693 352.696 23.3933 351.169C24.2419 348.711 25.1053 346.269 25.9909 343.834C26.7584 341.723 27.5406 339.627 28.345 337.539C28.7066 336.594 29.0756 335.65 29.4372 334.705C29.6881 334.063 29.939 333.421 30.1973 332.772C30.8688 331.089 31.5403 329.414 32.2266 327.746C33.1712 325.436 34.138 323.141 35.1268 320.853C35.7836 319.333 36.4478 317.813 37.1267 316.286C37.4662 315.525 37.7982 314.773 38.1451 314.013C38.4919 313.253 38.8314 312.5 39.1782 311.747C39.5251 310.994 39.8719 310.242 40.2187 309.489C40.9198 307.984 41.6282 306.485 42.3441 304.995C43.4215 302.759 44.5137 300.523 45.628 298.301C46.0043 297.564 46.3733 296.818 46.7497 296.088C47.8714 293.881 49.0152 291.675 50.1812 289.483C50.5649 288.752 50.956 288.022 51.3472 287.299C51.6497 286.738 51.9523 286.177 52.2548 285.616C54.085 282.251 55.9594 278.915 57.8781 275.617C58.2249 275.011 58.5718 274.414 58.926 273.816C60.2912 271.484 61.6786 269.159 63.0881 266.85C63.4054 266.333 63.7227 265.817 64.0401 265.3C65.8259 262.407 67.6413 259.537 69.4862 256.688C69.8921 256.075 70.2906 255.448 70.6964 254.836C71.0138 254.341 71.3385 253.854 71.6706 253.36C72.0838 252.74 72.4971 252.113 72.9177 251.485C74.3346 249.375 75.7662 247.279 77.22 245.198C77.6849 244.526 78.1646 243.847 78.6369 243.176C79.5815 241.833 80.5334 240.497 81.5002 239.161C81.9798 238.49 82.4669 237.826 82.9466 237.169C84.4003 235.176 85.8689 233.199 87.3596 231.236C87.854 230.579 88.3558 229.93 88.8502 229.273C90.3409 227.317 91.8611 225.376 93.3887 223.443C93.8979 222.801 94.4071 222.159 94.9236 221.517C95.3812 220.941 95.8387 220.373 96.3036 219.805C96.8718 219.104 97.4475 218.395 98.0304 217.694C98.5027 217.111 98.975 216.543 99.4547 215.967C100.023 215.281 100.591 214.595 101.174 213.916C101.698 213.289 102.229 212.661 102.761 212.034C103.285 211.414 103.823 210.787 104.362 210.16C105.425 208.912 106.502 207.68 107.587 206.448C108.126 205.835 108.672 205.215 109.218 204.603C110.849 202.765 112.502 200.943 114.17 199.135C114.723 198.529 115.277 197.924 115.837 197.327C116.952 196.124 118.073 194.928 119.21 193.747C119.771 193.157 120.339 192.567 120.907 191.969C121.475 191.379 122.044 190.788 122.619 190.198C123.187 189.615 123.763 189.025 124.339 188.442C125.468 187.29 126.604 186.146 127.748 185.01C128.353 184.412 128.951 183.815 129.563 183.224C130.146 182.649 130.737 182.073 131.32 181.505C132.501 180.361 133.674 179.224 134.869 178.103C135.46 177.535 136.057 176.974 136.655 176.413C144.743 168.812 153.126 161.528 161.775 154.577C162.417 154.053 163.059 153.543 163.709 153.034C167.937 149.669 172.232 146.385 176.586 143.182C177.066 142.828 177.553 142.474 178.04 142.12C178.52 141.766 178.999 141.419 179.486 141.072C180.04 140.666 180.601 140.268 181.154 139.862C182.984 138.555 184.829 137.257 186.681 135.973C187.257 135.574 187.833 135.176 188.408 134.785C189.53 134.01 190.674 133.242 191.81 132.475C192.452 132.039 193.087 131.619 193.736 131.191C194.113 130.94 194.496 130.689 194.88 130.431C195.463 130.054 196.031 129.67 196.614 129.294C197.301 128.844 197.994 128.394 198.688 127.951C200.791 126.593 202.902 125.257 205.027 123.937C205.699 123.523 206.37 123.103 207.049 122.689C208.2 121.988 209.359 121.28 210.518 120.586C211.219 120.158 211.942 119.73 212.65 119.31C217.639 116.358 222.686 113.494 227.801 110.742C228.324 110.454 228.856 110.166 229.387 109.886C230.546 109.266 231.719 108.646 232.885 108.041C233.616 107.657 234.354 107.273 235.092 106.897C238.767 105.001 242.479 103.163 246.213 101.37C246.958 101.016 247.711 100.654 248.456 100.307C249.209 99.9529 249.961 99.606 250.714 99.2518C251.415 98.9271 252.109 98.6024 252.81 98.2777C255.282 97.1412 257.776 96.0269 260.278 94.9421C260.876 94.6764 261.481 94.4182 262.079 94.1599C265.134 92.8463 268.211 91.5696 271.296 90.3225C272.063 90.0051 272.838 89.7026 273.62 89.3926C278.107 87.6142 282.631 85.9095 287.191 84.286C287.981 83.9982 288.771 83.7252 289.568 83.4447C290.21 83.216 290.844 82.9946 291.486 82.7732C292.431 82.4485 293.383 82.1238 294.335 81.7991C294.933 81.5998 295.53 81.3932 296.128 81.1939C296.475 81.0832 296.829 80.9652 297.176 80.8471C298.504 80.4117 299.833 79.9763 301.176 79.5557C306.489 77.8584 311.839 76.2644 317.241 74.7737C317.795 74.6187 318.348 74.4638 318.902 74.3162C322.045 73.4601 325.211 72.6337 328.392 71.8514C328.871 71.726 329.358 71.6078 329.846 71.4971C330.288 71.3864 330.731 71.2758 331.181 71.1725C332.731 70.7961 334.281 70.4345 335.845 70.0803C344.228 68.1616 352.715 66.4864 361.283 65.0621C362.094 64.9293 362.899 64.7965 363.71 64.6636C364.035 64.612 364.367 64.5603 364.692 64.5087C365.637 64.3537 366.596 64.2061 367.548 64.0659C368.345 63.9478 369.149 63.8298 369.954 63.7117C371.223 63.5272 372.492 63.3501 373.769 63.1804C383.17 61.9037 392.668 60.9222 402.261 60.258C412.194 59.5791 422.216 59.2249 432.319 59.2249C452.406 59.2249 472.168 60.6049 491.532 63.269C574.007 74.6114 649.146 109.318 710.012 160.473C647.315 118.948 572.199 94.7576 491.532 94.7576C410.866 94.7576 335.749 118.955 273.052 160.473C167.037 230.668 96.5398 350.394 94.813 486.385C94.7982 488.09 94.7834 489.802 94.7834 491.507C94.7834 493.211 94.7982 494.923 94.813 496.628C95.4624 556.366 107.498 614.325 130.619 668.993C153.584 723.292 186.46 772.056 228.332 813.928C270.204 855.8 318.961 888.676 373.267 911.641C382.831 915.685 392.498 919.39 402.261 922.762C507.428 959.254 626.18 955.144 728.24 911.641C755.257 900.218 780.893 886.344 805.003 870.124C768.149 900.712 727.222 925.603 682.87 944.362C622.203 969.999 557.831 983.002 491.495 983.002C425.16 983.002 360.796 969.999 300.165 944.355C255.813 925.596 214.886 900.705 178.033 870.116C166.247 860.338 154.883 849.977 143.954 839.048C98.8275 793.922 63.398 741.365 38.6395 682.837C13.512 623.417 0.523932 560.388 0.0147379 495.462C0.0147379 495.182 0.0147378 494.901 0.0147378 494.613C0.0147378 493.58 -2.14388e-05 492.54 -2.14839e-05 491.507Z" fill="black"/>
<path d="M457.998 393.757V364.088H715.13V393.757H457.998Z" fill="black"/>
<path d="M457.998 420.383V450.052H633.347V420.383H457.998Z" fill="#FF4500"/>
<path d="M457.998 476.68V506.349H681.309V476.68H457.998Z" fill="black"/>
<path d="M457.998 532.975V562.644H579.391V532.975H457.998Z" fill="#FF4500"/>
<path d="M457.998 589.271V618.941H715.13V589.271H457.998Z" fill="black"/>
<path d="M307.812 784.395C296.829 784.395 287.427 780.483 279.608 772.659C271.784 764.84 267.872 755.439 267.872 744.455V238.547C267.872 227.564 271.784 218.16 279.608 210.336C287.427 202.517 296.829 198.607 307.812 198.607H600.706C611.69 198.607 621.093 202.517 628.917 210.336C636.736 218.16 640.646 227.564 640.646 238.547V335.735H600.706V298.458H454.259H307.812V684.545H600.706V647.268H640.646V744.455C640.646 755.439 636.736 764.84 628.917 772.659C621.093 780.483 611.69 784.395 600.706 784.395H307.812ZM307.812 744.455H600.706V724.485H307.812V744.455ZM307.812 258.518H600.706V238.547H307.812V258.518Z" fill="black"/>
</svg>
