<svg width="500" viewBox="0 0 4385 984" fill="none" xmlns="http://www.w3.org/2000/svg">
    <g id="managed_info" clip-path="url(#clip0_3871_1066)">
        <g id="text">
            <path id="a-2" fill-rule="evenodd" clip-rule="evenodd" d="M2851.16 1.5332L3024.89 430.734H2965.84L2825.52 65.4105L2685.19 430.734H2628.14L2801.87 1.5332H2851.16Z" fill="var(--text)"/>
            <path id="a-1" fill-rule="evenodd" clip-rule="evenodd" d="M1867.25 1.52539L2040.98 430.726H1981.93L1841.61 65.4027L1701.28 430.726H1644.24L1817.96 1.52539H1867.25Z" fill="var(--text)"/>
            <path id="m" d="M1477.48 430.198V102.288L1335.91 354.573H1302.64L1160.46 102.288V430.198H1106.01V0.648438H1163.49L1318.97 279.553L1475.06 0.648438H1531.93V430.198H1477.48Z" fill="var(--text)"/>
            <path id="bayt" d="M4028.56 430.075V0.525391H4177.39C4223.37 0.525391 4261.68 10.2054 4292.34 29.5654C4323.39 48.5221 4346.58 74.3354 4361.91 107.005C4377.24 139.272 4384.9 175.169 4384.9 214.695C4384.9 258.255 4376.43 296.169 4359.49 328.435C4342.55 360.702 4318.55 385.709 4287.5 403.455C4256.44 421.202 4219.74 430.075 4177.39 430.075H4028.56ZM4329.85 214.695C4329.85 182.429 4323.8 153.792 4311.7 128.785C4300 103.779 4282.86 84.2171 4260.27 70.1004C4237.68 55.9837 4210.06 48.9254 4177.39 48.9254H4083.01V381.675H4177.39C4210.46 381.675 4238.29 374.415 4260.88 359.895C4283.46 344.972 4300.61 325.007 4312.3 300C4324 274.59 4329.85 246.155 4329.85 214.695Z" fill="var(--text)"/>
            <path id="bayt_2" d="M3899.41 381.675V430.075H3607.8V0.525391H3893.96V48.9254H3662.25V188.075H3863.71V233.45H3662.25V381.675H3899.41Z" fill="var(--text)"/>
            <path id="bayt_3" d="M3293.88 436.1C3265.65 436.1 3239.23 430.05 3214.63 417.95C3190.43 405.447 3169.25 388.91 3151.1 368.34C3132.95 347.367 3118.84 323.973 3108.75 298.16C3098.67 271.943 3093.63 244.92 3093.63 217.09C3093.63 188.05 3098.67 160.623 3108.75 134.81C3118.84 108.593 3132.75 85.4017 3150.5 65.235C3168.65 45.0683 3189.82 29.3383 3214.02 18.045C3238.63 6.34833 3265.25 0.5 3293.88 0.5C3335.43 0.5 3369.71 9.17166 3396.73 26.515C3423.76 43.8583 3444.13 66.445 3457.84 94.275L3416.09 123.315C3403.59 98.3083 3386.45 79.755 3364.67 67.655C3342.89 55.555 3318.89 49.505 3292.67 49.505C3270.89 49.505 3251.13 54.1434 3233.38 63.42C3215.64 72.6967 3200.31 85.4017 3187.4 101.535C3174.9 117.265 3165.22 135.213 3158.36 155.38C3151.91 175.547 3148.68 196.52 3148.68 218.3C3148.68 241.29 3152.31 263.07 3159.57 283.64C3167.24 303.807 3177.93 321.755 3191.64 337.485C3205.35 352.812 3221.28 364.912 3239.43 373.785C3257.58 382.658 3277.15 387.095 3298.12 387.095C3322.72 387.095 3346.12 380.843 3368.3 368.34C3390.48 355.837 3411.46 336.678 3431.22 310.865V367.13C3392.5 413.11 3346.72 436.1 3293.88 436.1ZM3424.56 260.045H3332V218.905H3470.54V433.075H3424.56V260.045Z" fill="var(--text)"/>
            <path id="bayt_4" d="M2207.96 100.955V430.075H2153.51V0.525391H2199.49L2462.06 336.3V1.13038H2516.51V430.075H2466.9L2207.96 100.955Z" fill="var(--text)"/>
            <path id="O" fill-rule="evenodd" clip-rule="evenodd" d="M2578.92 983.499C2697.53 983.499 2793.69 887.341 2793.69 768.724C2793.69 650.107 2697.53 553.949 2578.92 553.949C2460.3 553.949 2364.14 650.107 2364.14 768.724C2364.14 887.341 2460.3 983.499 2578.92 983.499ZM2578.92 929.082C2667.48 929.082 2739.27 857.289 2739.27 768.727C2739.27 680.165 2667.48 608.371 2578.92 608.371C2490.36 608.371 2418.56 680.165 2418.56 768.727C2418.56 857.289 2490.36 929.082 2578.92 929.082Z" fill="var(--text)"/>
            <path id="bayt_5" d="M1940.86 983.499V553.949H2224.6V602.349H1995.31V745.734H2188.3V791.109H1995.31V983.499H1940.86Z" fill="var(--text)"/>
            <path id="bayt_6" d="M1423.87 654.379V983.499H1369.42V553.949H1415.4L1677.97 889.724V554.554H1732.42V983.499H1682.81L1423.87 654.379Z" fill="var(--text)"/>
            <path id="bayt_7" d="M1106.38 983.499V553.949H1160.83V983.499H1106.38Z" fill="var(--text)"/>
        </g>
        <g id="managed_info_spiral_round">
            <g id="dynamic">
                <g id="spiral">
                    <path id="Vector" d="M178.035 112.887C214.888 82.2984 255.816 57.407 300.167 38.6481C360.79 13.004 425.17 0.00114887 491.498 0.00114597C557.825 0.00114307 622.198 13.0039 682.828 38.648C727.18 57.407 768.107 82.2984 804.96 112.887C816.746 122.665 828.11 133.026 839.039 143.955C884.166 189.081 919.595 241.638 944.354 300.166C969.097 358.657 982.071 420.645 982.949 484.493C982.964 485.504 982.971 486.523 982.986 487.534C982.986 487.814 982.986 488.095 982.986 488.382C982.986 489.416 983.001 490.456 983.001 491.489C983.001 492.522 983.001 493.563 982.986 494.596C982.986 494.884 982.986 495.164 982.986 495.445C982.971 496.456 982.964 497.474 982.949 498.485C979.355 723.563 802.872 907.403 580.776 922.738C551.877 924.775 520.352 923.756 491.498 919.727C409.023 908.384 333.884 873.678 273.017 822.523C335.714 864.048 410.831 888.238 491.498 888.238C572.164 888.238 647.281 864.04 709.978 822.523C815.993 752.328 886.49 632.602 888.217 496.611C888.232 494.906 888.247 493.194 888.247 491.489C888.247 489.785 888.232 488.072 888.217 486.368C887.568 426.63 875.531 368.671 852.411 314.003C829.446 259.704 796.57 210.939 754.698 169.068C712.826 127.196 664.069 94.3197 609.763 71.3544C600.199 67.3104 590.532 63.6058 580.768 60.2333C551.759 50.234 521.931 43.2381 491.49 39.3048C471.986 36.781 452.223 35.5117 432.276 35.5117C370.723 35.5117 311.015 47.57 254.79 71.347C227.773 82.7707 202.136 96.6443 178.027 112.865L178.035 112.887Z" fill="#FF4500"/>
                    <path id="Vector_2" d="M-2.14839e-05 491.503C-2.15291e-05 490.469 -2.15746e-05 489.429 0.0147376 488.396C0.0147375 488.108 0.0147375 487.828 0.0147375 487.547C0.0294967 486.536 0.0368762 485.518 0.0516353 484.507C0.0663945 483.754 0.0811536 483.001 0.0959128 482.249C0.0959128 482.094 0.0959128 481.931 0.110672 481.784C0.125431 481.334 0.132811 480.883 0.14757 480.426C0.162329 479.983 0.169709 479.533 0.184468 479.083C0.228745 477.496 0.280402 475.917 0.346819 474.33C0.383716 473.452 0.420614 472.574 0.457512 471.703C0.479651 471.076 0.509169 470.449 0.546067 469.821C0.708418 466.537 0.907667 463.268 1.14381 460.007C1.18071 459.453 1.21761 458.892 1.26927 458.339C1.3283 457.556 1.38734 456.782 1.45376 455.999C1.49803 455.461 1.54231 454.915 1.58659 454.376C1.71204 452.922 1.83749 451.468 1.98509 450.015C2.17696 447.934 2.39096 445.86 2.62711 443.786C2.98871 440.517 3.38721 437.27 3.81522 434.023C3.88164 433.543 3.94806 433.064 4.00709 432.591C6.57519 413.832 10.3462 395.457 15.2536 377.54C15.475 376.72 15.7037 375.909 15.9325 375.097C16.1613 374.278 16.39 373.466 16.6188 372.654C17.0763 371.082 17.5339 369.503 18.0062 367.931C19.2238 363.843 20.5079 359.77 21.8509 355.733C22.3601 354.205 22.8693 352.693 23.3933 351.165C24.2419 348.708 25.1053 346.265 25.9909 343.83C26.7584 341.719 27.5406 339.623 28.345 337.535C28.7066 336.59 29.0756 335.646 29.4372 334.701C29.6881 334.059 29.939 333.417 30.1973 332.768C30.8688 331.085 31.5403 329.41 32.2266 327.742C33.1712 325.432 34.138 323.137 35.1268 320.85C35.7836 319.329 36.4478 317.809 37.1267 316.282C37.4662 315.522 37.7982 314.769 38.1451 314.009C38.4919 313.249 38.8314 312.496 39.1782 311.743C39.5251 310.99 39.8719 310.238 40.2187 309.485C40.9198 307.98 41.6282 306.482 42.3441 304.991C43.4215 302.755 44.5137 300.519 45.628 298.298C46.0043 297.56 46.3733 296.814 46.7497 296.084C47.8714 293.877 49.0152 291.671 50.1812 289.479C50.5649 288.748 50.956 288.018 51.3472 287.295C51.6497 286.734 51.9523 286.173 52.2548 285.612C54.085 282.247 55.9594 278.911 57.8781 275.613C58.2249 275.008 58.5718 274.41 58.926 273.812C60.2912 271.48 61.6786 269.156 63.0881 266.846C63.4054 266.329 63.7227 265.813 64.0401 265.296C65.8259 262.403 67.6413 259.533 69.4862 256.684C69.8921 256.072 70.2906 255.444 70.6964 254.832C71.0138 254.337 71.3385 253.85 71.6706 253.356C72.0838 252.736 72.4971 252.109 72.9177 251.481C74.3346 249.371 75.7662 247.275 77.22 245.194C77.6849 244.523 78.1646 243.844 78.6369 243.172C79.5815 241.829 80.5334 240.493 81.5002 239.158C81.9798 238.486 82.4669 237.822 82.9466 237.165C84.4003 235.173 85.8689 233.195 87.3596 231.232C87.854 230.575 88.3558 229.926 88.8502 229.269C90.3409 227.313 91.8611 225.372 93.3887 223.439C93.8979 222.797 94.4071 222.155 94.9236 221.513C95.3812 220.937 95.8387 220.369 96.3036 219.801C96.8718 219.1 97.4475 218.391 98.0304 217.69C98.5027 217.107 98.975 216.539 99.4547 215.963C100.023 215.277 100.591 214.591 101.174 213.912C101.698 213.285 102.229 212.657 102.761 212.03C103.285 211.41 103.823 210.783 104.362 210.156C105.425 208.909 106.502 207.676 107.587 206.444C108.126 205.831 108.672 205.211 109.218 204.599C110.849 202.761 112.502 200.939 114.17 199.131C114.723 198.526 115.277 197.92 115.837 197.323C116.952 196.12 118.073 194.924 119.21 193.744C119.771 193.153 120.339 192.563 120.907 191.965C121.475 191.375 122.044 190.784 122.619 190.194C123.187 189.611 123.763 189.021 124.339 188.438C125.468 187.286 126.604 186.143 127.748 185.006C128.353 184.408 128.951 183.811 129.563 183.22C130.146 182.645 130.737 182.069 131.32 181.501C132.5 180.357 133.674 179.221 134.869 178.099C135.46 177.531 136.057 176.97 136.655 176.409C144.743 168.808 153.126 161.524 161.775 154.573C162.417 154.049 163.059 153.539 163.709 153.03C167.937 149.665 172.232 146.381 176.586 143.179C177.066 142.824 177.553 142.47 178.04 142.116C178.52 141.762 178.999 141.415 179.486 141.068C180.04 140.662 180.601 140.264 181.154 139.858C182.984 138.552 184.829 137.253 186.681 135.969C187.257 135.57 187.833 135.172 188.408 134.781C189.53 134.006 190.674 133.238 191.81 132.471C192.452 132.035 193.087 131.615 193.736 131.187C194.113 130.936 194.496 130.685 194.88 130.427C195.463 130.05 196.031 129.667 196.614 129.29C197.301 128.84 197.994 128.39 198.688 127.947C200.791 126.589 202.902 125.254 205.027 123.933C205.699 123.519 206.37 123.099 207.049 122.685C208.2 121.984 209.359 121.276 210.518 120.582C211.219 120.154 211.942 119.726 212.65 119.306C217.639 116.354 222.686 113.491 227.801 110.738C228.324 110.45 228.856 110.162 229.387 109.882C230.546 109.262 231.719 108.642 232.885 108.037C233.616 107.653 234.354 107.27 235.092 106.893C238.767 104.997 242.479 103.159 246.213 101.366C246.958 101.012 247.711 100.65 248.456 100.303C249.209 99.949 249.961 99.6021 250.714 99.2479C251.415 98.9231 252.109 98.5985 252.81 98.2738C255.282 97.1373 257.776 96.023 260.278 94.9382C260.876 94.6725 261.481 94.4143 262.079 94.156C265.134 92.8425 268.211 91.5657 271.296 90.3186C272.063 90.0013 272.838 89.6987 273.62 89.3887C278.107 87.6103 282.631 85.9056 287.191 84.2821C287.981 83.9943 288.771 83.7212 289.568 83.4408C290.21 83.2121 290.844 82.9906 291.486 82.7693C292.431 82.4446 293.383 82.1199 294.335 81.7952C294.933 81.5959 295.53 81.3893 296.128 81.19C296.475 81.0793 296.829 80.9613 297.176 80.8432C298.504 80.4078 299.833 79.9724 301.176 79.5517C306.489 77.8545 311.839 76.2605 317.241 74.7698C317.795 74.6149 318.348 74.4599 318.902 74.3123C322.045 73.4562 325.211 72.6297 328.392 71.8475C328.871 71.7221 329.358 71.6039 329.846 71.4932C330.288 71.3826 330.731 71.2719 331.181 71.1686C332.731 70.7922 334.281 70.4306 335.845 70.0764C344.228 68.1577 352.715 66.4825 361.283 65.0582C362.094 64.9254 362.899 64.7925 363.71 64.6597C364.035 64.6081 364.367 64.5564 364.692 64.5047C365.637 64.3498 366.596 64.2023 367.548 64.062C368.345 63.944 369.149 63.8259 369.954 63.7078C371.223 63.5233 372.492 63.3462 373.769 63.1765C383.17 61.8998 392.668 60.9183 402.261 60.2541C412.194 59.5752 422.216 59.2209 432.319 59.2209C452.406 59.2209 472.168 60.601 491.532 63.2651C574.007 74.6075 649.146 109.314 710.012 160.469C647.316 118.944 572.199 94.7537 491.532 94.7537C410.866 94.7537 335.749 118.951 273.052 160.469C167.037 230.664 96.5398 350.39 94.813 486.381C94.7982 488.086 94.7834 489.798 94.7834 491.503C94.7834 493.207 94.7982 494.919 94.813 496.624C95.4624 556.362 107.498 614.321 130.619 668.989C153.584 723.288 186.46 772.052 228.332 813.924C270.204 855.796 318.961 888.672 373.267 911.637C382.831 915.681 392.498 919.386 402.261 922.758C507.428 959.251 626.18 955.14 728.24 911.637C755.257 900.214 780.893 886.34 805.003 870.12C768.149 900.708 727.222 925.6 682.87 944.358C622.203 969.995 557.831 982.998 491.495 982.998C425.16 982.998 360.796 969.995 300.165 944.351C255.813 925.592 214.886 900.701 178.033 870.112C166.247 860.334 154.883 849.974 143.954 839.044C98.8275 793.918 63.398 741.361 38.6395 682.833C13.512 623.413 0.523932 560.384 0.0147379 495.458C0.0147379 495.178 0.0147378 494.897 0.0147378 494.609C0.0147378 493.576 -2.14388e-05 492.536 -2.14839e-05 491.503Z" fill="var(--text)"/>
                </g>
                <g id="mobile_info">
                    <g id="info_cards">
                        <path id="1" d="M454.259 393.741V364.072H711.39V393.741H454.259Z" fill="var(--text)">
                            <animate attributeName="fill" values="var(--text); #FF4500; var(--text)" dur="4s" repeatCount="indefinite" />
                        </path>
                        <path id="2" d="M454.259 420.367V450.036H629.608V420.367H454.259Z" fill="#FF4500">
                            <animate attributeName="fill" values="#FF4500; var(--text); #FF4500" dur="15s" repeatCount="indefinite" />
                        </path>
                        <path id="3" d="M454.259 476.664V506.333H677.57V476.664H454.259Z" fill="var(--text)">
                            <animate attributeName="fill" values="var(--text); #FF4500; var(--text)" dur="12s" repeatCount="indefinite" />
                        </path>
                        <path id="4" d="M454.259 532.959V562.628H575.652V532.959H454.259Z" fill="#FF4500">
                            <animate attributeName="fill" values="#FF4500; var(--text); #FF4500" dur="6.5s" repeatCount="indefinite" />
                        </path>
                        <path id="5" d="M454.259 589.256V618.925H711.39V589.256H454.259Z" fill="var(--text)">
                            <animate attributeName="fill" values="var(--text); #FF4500; var(--text)" dur="26s" repeatCount="indefinite" />
                        </path>
                    </g>
                    <path id="mobile" d="M307.812 784.391C296.829 784.391 287.427 780.479 279.608 772.656C271.784 764.836 267.872 755.435 267.872 744.451V238.544C267.872 227.56 271.784 218.156 279.608 210.333C287.427 202.513 296.829 198.604 307.812 198.604H600.706C611.69 198.604 621.093 202.513 628.917 210.333C636.736 218.156 640.646 227.56 640.646 238.544V335.731H600.706V298.454H454.259H307.812V684.541H600.706V647.264H640.646V744.451C640.646 755.435 636.736 764.836 628.917 772.656C621.093 780.479 611.69 784.391 600.706 784.391H307.812ZM307.812 744.451H600.706V724.481H307.812V744.451ZM307.812 258.514H600.706V238.544H307.812V258.514Z" fill="var(--text)"/>
                    </g>
                </g>
            </g>
        </g>
    <defs>
        <clipPath id="clip0_3871_1066">
            <rect width="4385" height="984" fill="white"/>
        </clipPath>
    </defs>
</svg>
