<svg width="500" viewBox="0 0 4385 983" fill="none" xmlns="http://www.w3.org/2000/svg">
<g id="managed_archiver" clip-path="url(#clip0_5388_551)">
<g id="text">
<path id="a-2" fill-rule="evenodd" clip-rule="evenodd" d="M2851.16 4.73828L3024.89 433.939H2965.84L2825.51 68.6156L2685.19 433.939H2628.14L2801.87 4.73828H2851.16Z" fill="var(--text)"/>
<path id="a-1" fill-rule="evenodd" clip-rule="evenodd" d="M1867.25 4.73047L2040.98 433.931H1981.93L1841.61 68.6078L1701.28 433.931H1644.24L1817.97 4.73047H1867.25Z" fill="var(--text)"/>
<path id="m" d="M1477.48 433.403V105.494L1335.91 357.778H1302.64L1160.46 105.494V433.403H1106.01V3.85352H1163.49L1318.97 282.759L1475.06 3.85352H1531.93V433.403H1477.48Z" fill="var(--text)"/>
<g id="bayt">
<path d="M1477.85 433.28V105.37L1336.28 357.655H1303.01L1160.83 105.37V433.28H1106.38V3.73008H1163.86L1319.34 282.635L1475.43 3.73008H1532.3V433.28H1477.85Z" fill="var(--text)"/>
<path d="M2207.95 104.16V433.28H2153.51V3.73008H2199.48L2462.06 339.505V4.33507H2516.51V433.28H2466.9L2207.95 104.16Z" fill="var(--text)"/>
<path d="M3293.88 436.305C3265.65 436.305 3239.23 430.255 3214.63 418.155C3190.43 405.652 3169.25 389.115 3151.1 368.545C3132.95 347.572 3118.84 324.178 3108.75 298.365C3098.67 272.148 3093.63 245.125 3093.63 217.295C3093.63 188.255 3098.67 160.828 3108.75 135.015C3118.84 108.798 3132.75 85.6067 3150.5 65.4401C3168.65 45.2734 3189.82 29.5434 3214.02 18.2501C3238.63 6.55341 3265.25 0.705078 3293.88 0.705078C3335.43 0.705078 3369.71 9.37674 3396.73 26.7201C3423.76 44.0634 3444.12 66.6501 3457.84 94.4801L3416.09 123.52C3403.59 98.5134 3386.45 79.9601 3364.67 67.8601C3342.89 55.7601 3318.89 49.7101 3292.67 49.7101C3270.89 49.7101 3251.13 54.3484 3233.38 63.6251C3215.64 72.9018 3200.31 85.6068 3187.4 101.74C3174.9 117.47 3165.22 135.418 3158.36 155.585C3151.91 175.752 3148.68 196.725 3148.68 218.505C3148.68 241.495 3152.31 263.275 3159.57 283.845C3167.24 304.012 3177.92 321.96 3191.64 337.69C3205.35 353.017 3221.28 365.117 3239.43 373.99C3257.58 382.863 3277.14 387.3 3298.12 387.3C3322.72 387.3 3346.11 381.048 3368.3 368.545C3390.48 356.042 3411.45 336.883 3431.22 311.07V367.335C3392.5 413.315 3346.72 436.305 3293.88 436.305ZM3424.56 260.25H3332V219.11H3470.54V433.28H3424.56V260.25Z" fill="var(--text)"/>
<path d="M3899.41 384.88V433.28H3607.8V3.73008H3893.96V52.1301H3662.25V191.28H3863.71V236.655H3662.25V384.88H3899.41Z" fill="var(--text)"/>
<path d="M4028.56 433.28V3.73008H4177.39C4223.37 3.73008 4261.68 13.4101 4292.34 32.7701C4323.39 51.7267 4346.58 77.5401 4361.91 110.21C4377.24 142.477 4384.9 178.373 4384.9 217.9C4384.9 261.46 4376.43 299.373 4359.49 331.64C4342.55 363.907 4318.55 388.913 4287.5 406.66C4256.44 424.407 4219.74 433.28 4177.39 433.28H4028.56ZM4329.85 217.9C4329.85 185.633 4323.8 156.997 4311.7 131.99C4300 106.983 4282.86 87.4218 4260.27 73.3051C4237.68 59.1884 4210.06 52.1301 4177.39 52.1301H4083.01V384.88H4177.39C4210.46 384.88 4238.29 377.62 4260.88 363.1C4283.46 348.177 4300.6 328.212 4312.3 303.205C4324 277.795 4329.85 249.36 4329.85 217.9Z" fill="var(--text)"/>
</g>
<g id="bayt_2">
<path d="M1270.33 549.009H1316.31L1491.76 978.559H1433.68L1382.86 852.719H1202.57L1152.35 978.559H1094.27L1270.33 549.009ZM1370.76 810.369L1293.32 611.929L1213.46 810.369H1370.76Z" fill="var(--text)"/>
<path d="M1594.46 978.559V549.009H1778.38C1797.34 549.009 1814.68 553.042 1830.41 561.109C1846.14 568.772 1859.85 579.259 1871.55 592.569C1883.25 605.476 1892.32 620.197 1898.77 636.734C1905.23 652.867 1908.45 669.404 1908.45 686.344C1908.45 706.107 1904.62 724.862 1896.96 742.609C1889.7 760.356 1879.21 775.481 1865.5 787.984C1852.19 800.487 1836.46 809.159 1818.31 813.999L1922.37 978.559H1860.66L1762.65 824.284H1648.91V978.559H1594.46ZM1648.91 775.884H1778.98C1793.91 775.884 1806.81 771.851 1817.7 763.784C1829 755.314 1837.67 744.222 1843.72 730.509C1850.17 716.796 1853.4 702.074 1853.4 686.344C1853.4 670.211 1849.77 655.489 1842.51 642.179C1835.25 628.466 1825.77 617.576 1814.07 609.509C1802.38 601.442 1789.47 597.409 1775.35 597.409H1648.91V775.884Z" fill="var(--text)"/>
<path d="M2009.63 760.759C2009.63 734.542 2014.06 708.931 2022.94 683.924C2032.21 658.514 2045.52 635.524 2062.87 614.954C2080.61 593.981 2102.19 577.444 2127.6 565.344C2153.01 552.841 2181.85 546.589 2214.12 546.589C2252.43 546.589 2285.3 555.462 2312.73 573.209C2340.16 590.552 2360.53 612.937 2373.84 640.364L2330.88 668.194C2322.41 650.044 2311.52 635.726 2298.21 625.239C2285.3 614.349 2271.19 606.686 2255.86 602.249C2240.94 597.812 2226.22 595.594 2211.7 595.594C2187.9 595.594 2166.72 600.434 2148.17 610.114C2130.02 619.794 2114.69 632.701 2102.19 648.834C2089.69 664.967 2080.21 683.117 2073.76 703.284C2067.71 723.047 2064.68 743.012 2064.68 763.179C2064.68 785.362 2068.31 806.739 2075.57 827.309C2083.23 847.879 2093.72 866.029 2107.03 881.759C2120.34 897.489 2136.07 909.992 2154.22 919.269C2172.37 928.546 2192.13 933.184 2213.51 933.184C2228.43 933.184 2243.76 930.562 2259.49 925.319C2275.22 920.076 2289.94 912.009 2303.66 901.119C2317.37 889.826 2328.26 875.306 2336.33 857.559L2381.7 882.364C2372.83 903.741 2359.11 921.891 2340.56 936.814C2322.01 951.737 2301.24 963.031 2278.25 970.694C2255.66 978.357 2233.27 982.189 2211.09 982.189C2181.65 982.189 2154.62 975.937 2130.02 963.434C2105.42 950.527 2084.04 933.587 2065.89 912.614C2048.14 891.237 2034.23 867.441 2024.15 841.224C2014.47 814.604 2009.63 787.782 2009.63 760.759Z" fill="var(--text)"/>
<path d="M2840.68 549.009V978.559H2786.23V783.144H2549.67V978.559H2495.22V549.009H2549.67V734.744H2786.23V549.009H2840.68Z" fill="var(--text)"/>
<path d="M2989.03 978.559V549.009H3043.48V978.559H2989.03Z" fill="var(--text)"/>
<path d="M3203.67 549.009L3345.84 910.194L3487.41 549.009H3544.89L3370.65 978.559H3321.03L3146.19 549.009H3203.67Z" fill="var(--text)"/>
<path d="M3939.76 930.159V978.559H3648.15V549.009H3934.32V597.409H3702.6V736.559H3904.07V781.934H3702.6V930.159H3939.76Z" fill="var(--text)"/>
<path d="M4059.83 978.559V549.009H4243.75C4262.71 549.009 4280.05 553.042 4295.78 561.109C4311.51 568.772 4325.23 579.259 4336.92 592.569C4348.62 605.476 4357.7 620.197 4364.15 636.734C4370.6 652.867 4373.83 669.404 4373.83 686.344C4373.83 706.107 4370 724.862 4362.33 742.609C4355.07 760.356 4344.59 775.481 4330.87 787.984C4317.56 800.487 4301.83 809.159 4283.68 813.999L4387.74 978.559H4326.03L4228.02 824.284H4114.28V978.559H4059.83ZM4114.28 775.884H4244.36C4259.28 775.884 4272.19 771.851 4283.08 763.784C4294.37 755.314 4303.04 744.222 4309.09 730.509C4315.55 716.796 4318.77 702.074 4318.77 686.344C4318.77 670.211 4315.14 655.489 4307.88 642.179C4300.62 628.466 4291.15 617.576 4279.45 609.509C4267.75 601.442 4254.85 597.409 4240.73 597.409H4114.28V775.884Z" fill="var(--text)"/>
</g>
</g>
<g id="prod_search_spiral_round" clip-path="url(#clip1_5388_551)">
<g id="dynamic">
<g id="spiral">
<path id="Vector" d="M178.534 113.887C215.387 83.2985 256.315 58.407 300.666 39.6481C361.289 14.004 425.669 1.00119 491.997 1.00119C558.324 1.00119 622.696 14.004 683.327 39.6481C727.679 58.407 768.606 83.2984 805.459 113.887C817.245 123.665 828.609 134.026 839.538 144.955C884.665 190.081 920.094 242.638 944.853 301.166C969.596 359.657 982.57 421.645 983.448 485.493C983.463 486.504 983.47 487.523 983.485 488.534C983.485 488.814 983.485 489.095 983.485 489.382C983.485 490.416 983.499 491.456 983.499 492.489C983.499 493.522 983.499 494.563 983.485 495.596C983.485 495.884 983.485 496.164 983.485 496.445C983.47 497.456 983.463 498.474 983.448 499.485C979.854 724.563 803.371 908.403 581.275 923.738C552.376 925.775 520.851 924.756 491.997 920.727C409.522 909.384 334.383 874.678 273.516 823.523C336.213 865.048 411.33 889.238 491.997 889.238C572.663 889.238 647.78 865.04 710.477 823.523C816.492 753.328 886.989 633.602 888.716 497.611C888.731 495.906 888.746 494.194 888.746 492.489C888.746 490.785 888.731 489.073 888.716 487.368C888.067 427.63 876.03 369.671 852.91 315.003C829.945 260.704 797.069 211.939 755.197 170.068C713.325 128.196 664.568 95.3198 610.262 72.3545C600.698 68.3105 591.031 64.6059 581.267 61.2334C552.258 51.2341 522.43 44.2382 491.989 40.3049C472.485 37.7811 452.722 36.5118 432.775 36.5118C371.222 36.5118 311.514 48.5701 255.289 72.3471C228.272 83.7707 202.635 97.6444 178.526 113.865L178.534 113.887Z" fill="#FF4500"/>
<path id="Vector_2" d="M0.49949 492.505C0.49949 491.471 0.49949 490.431 0.514249 489.398C0.514249 489.11 0.514249 488.83 0.514249 488.549C0.529008 487.538 0.536388 486.52 0.551147 485.509C0.565906 484.756 0.580665 484.003 0.595424 483.251C0.595424 483.096 0.595424 482.933 0.610184 482.786C0.624943 482.335 0.632322 481.885 0.647082 481.428C0.661841 480.985 0.66922 480.535 0.683979 480.085C0.728257 478.498 0.779914 476.919 0.84633 475.332C0.883228 474.454 0.920126 473.576 0.957024 472.705C0.979163 472.078 1.00868 471.451 1.04558 470.823C1.20793 467.539 1.40718 464.27 1.64333 461.008C1.68022 460.455 1.71712 459.894 1.76878 459.341C1.82781 458.558 1.88685 457.784 1.95327 457.001C1.99755 456.463 2.04182 455.917 2.0861 455.378C2.21155 453.924 2.33701 452.47 2.4846 451.017C2.67647 448.935 2.89048 446.862 3.12662 444.788C3.48822 441.519 3.88672 438.272 4.31474 435.025C4.38115 434.545 4.44757 434.066 4.5066 433.593C7.0747 414.834 10.8457 396.459 15.7531 378.542C15.9745 377.722 16.2033 376.911 16.432 376.099C16.6608 375.28 16.8896 374.468 17.1183 373.656C17.5759 372.084 18.0334 370.505 18.5057 368.933C19.7233 364.845 21.0074 360.772 22.3504 356.735C22.8596 355.207 23.3688 353.694 23.8928 352.167C24.7414 349.71 25.6048 347.267 26.4904 344.832C27.2579 342.721 28.0401 340.625 28.8445 338.537C29.2061 337.592 29.5751 336.648 29.9367 335.703C30.1876 335.061 30.4385 334.419 30.6968 333.77C31.3683 332.087 32.0398 330.412 32.7261 328.744C33.6707 326.434 34.6375 324.139 35.6263 321.852C36.2831 320.331 36.9473 318.811 37.6262 317.284C37.9657 316.523 38.2977 315.771 38.6446 315.011C38.9914 314.251 39.3309 313.498 39.6777 312.745C40.0246 311.992 40.3714 311.24 40.7182 310.487C41.4193 308.982 42.1277 307.483 42.8436 305.993C43.921 303.757 45.0132 301.521 46.1275 299.3C46.5038 298.562 46.8728 297.816 47.2492 297.086C48.3709 294.879 49.5147 292.673 50.6807 290.481C51.0644 289.75 51.4555 289.02 51.8467 288.297C52.1492 287.736 52.4518 287.175 52.7544 286.614C54.5845 283.249 56.4589 279.913 58.3776 276.615C58.7244 276.01 59.0713 275.412 59.4255 274.814C60.7907 272.482 62.1781 270.158 63.5876 267.848C63.9049 267.331 64.2222 266.815 64.5396 266.298C66.3254 263.405 68.1408 260.535 69.9857 257.686C70.3916 257.074 70.7901 256.446 71.196 255.834C71.5133 255.339 71.838 254.852 72.1701 254.358C72.5833 253.738 72.9966 253.111 73.4172 252.483C74.8341 250.373 76.2657 248.277 77.7195 246.196C78.1844 245.524 78.6641 244.846 79.1364 244.174C80.081 242.831 81.0329 241.495 81.9997 240.16C82.4793 239.488 82.9664 238.824 83.4461 238.167C84.8998 236.175 86.3684 234.197 87.8591 232.234C88.3535 231.577 88.8553 230.928 89.3497 230.271C90.8404 228.315 92.3606 226.374 93.8882 224.441C94.3974 223.799 94.9066 223.157 95.4231 222.515C95.8807 221.939 96.3382 221.371 96.8031 220.803C97.3714 220.102 97.947 219.393 98.5299 218.692C99.0022 218.109 99.4745 217.541 99.9542 216.965C100.522 216.279 101.091 215.593 101.674 214.914C102.198 214.287 102.729 213.659 103.26 213.032C103.784 212.412 104.323 211.785 104.862 211.158C105.924 209.911 107.002 208.678 108.087 207.446C108.625 206.833 109.171 206.213 109.717 205.601C111.348 203.763 113.001 201.941 114.669 200.133C115.223 199.528 115.776 198.922 116.337 198.325C117.451 197.122 118.573 195.926 119.709 194.745C120.27 194.155 120.838 193.565 121.407 192.967C121.975 192.377 122.543 191.786 123.119 191.196C123.687 190.613 124.263 190.023 124.838 189.44C125.967 188.288 127.104 187.145 128.248 186.008C128.853 185.41 129.45 184.813 130.063 184.222C130.646 183.647 131.236 183.071 131.819 182.503C133 181.359 134.173 180.222 135.369 179.101C135.959 178.533 136.557 177.972 137.155 177.411C145.243 169.81 153.626 162.526 162.275 155.575C162.917 155.051 163.559 154.541 164.208 154.032C168.437 150.667 172.732 147.383 177.086 144.181C177.565 143.826 178.052 143.472 178.539 143.118C179.019 142.764 179.499 142.417 179.986 142.07C180.539 141.664 181.1 141.266 181.654 140.86C183.484 139.554 185.329 138.255 187.181 136.971C187.757 136.572 188.332 136.174 188.908 135.783C190.029 135.008 191.173 134.24 192.31 133.473C192.952 133.037 193.586 132.617 194.236 132.189C194.612 131.938 194.996 131.687 195.38 131.429C195.963 131.052 196.531 130.669 197.114 130.292C197.8 129.842 198.494 129.392 199.188 128.949C201.291 127.591 203.401 126.256 205.527 124.935C206.198 124.521 206.87 124.101 207.549 123.687C208.7 122.986 209.858 122.278 211.017 121.584C211.718 121.156 212.441 120.728 213.15 120.308C218.138 117.356 223.186 114.492 228.3 111.74C228.824 111.452 229.355 111.164 229.887 110.884C231.045 110.264 232.219 109.644 233.385 109.039C234.115 108.655 234.853 108.271 235.591 107.895C239.266 105.999 242.978 104.161 246.712 102.368C247.457 102.014 248.21 101.652 248.955 101.305C249.708 100.951 250.461 100.604 251.214 100.25C251.915 99.9251 252.608 99.6004 253.309 99.2757C255.782 98.1393 258.276 97.0249 260.778 95.9401C261.375 95.6745 261.98 95.4162 262.578 95.158C265.633 93.8444 268.711 92.5677 271.795 91.3205C272.563 91.0032 273.338 90.7006 274.12 90.3907C278.607 88.6122 283.13 86.9076 287.691 85.2841C288.481 84.9963 289.27 84.7232 290.067 84.4428C290.709 84.214 291.344 83.9926 291.986 83.7712C292.93 83.4465 293.882 83.1218 294.834 82.7971C295.432 82.5979 296.03 82.3912 296.628 82.192C296.974 82.0813 297.329 81.9632 297.676 81.8451C299.004 81.4098 300.332 80.9744 301.675 80.5537C306.989 78.8564 312.339 77.2624 317.741 75.7718C318.294 75.6168 318.848 75.4618 319.401 75.3142C322.545 74.4582 325.711 73.6317 328.891 72.8495C329.371 72.724 329.858 72.6059 330.345 72.4952C330.788 72.3845 331.231 72.2738 331.681 72.1705C333.23 71.7942 334.78 71.4326 336.345 71.0784C344.728 69.1597 353.214 67.4845 361.782 66.0602C362.594 65.9274 363.398 65.7945 364.21 65.6617C364.535 65.61 364.867 65.5584 365.191 65.5067C366.136 65.3518 367.095 65.2042 368.047 65.064C368.844 64.9459 369.649 64.8278 370.453 64.7098C371.722 64.5253 372.992 64.3482 374.268 64.1785C383.67 62.9018 393.167 61.9202 402.761 61.2561C412.694 60.5771 422.715 60.2229 432.818 60.2229C452.905 60.2229 472.668 61.603 492.032 64.267C574.506 75.6094 649.645 110.316 710.512 161.471C647.815 119.946 572.698 95.7556 492.032 95.7556C411.366 95.7557 336.249 119.953 273.552 161.471C167.536 231.666 97.0393 351.392 95.3125 487.383C95.2977 489.088 95.2829 490.8 95.2829 492.505C95.2829 494.209 95.2977 495.921 95.3125 497.626C95.9619 557.364 107.998 615.323 131.118 669.991C154.084 724.29 186.96 773.054 228.831 814.926C270.703 856.798 319.46 889.674 373.767 912.639C383.33 916.683 392.998 920.388 402.761 923.76C507.927 960.252 626.68 956.142 728.74 912.639C755.756 901.216 781.393 887.342 805.502 871.122C768.648 901.71 727.721 926.602 683.37 945.36C622.702 970.997 558.33 984 491.995 984C425.66 984 361.295 970.997 300.664 945.353C256.313 926.594 215.386 901.703 178.532 871.114C166.747 861.336 155.382 850.976 144.453 840.046C99.327 794.92 63.8976 742.363 39.139 683.835C14.0115 624.415 1.02344 561.386 0.51425 496.46C0.51425 496.18 0.51425 495.899 0.51425 495.611C0.51425 494.578 0.49949 493.538 0.49949 492.505Z" fill="var(--text)"/>
</g>
</g>
<g id="chat_add_on">
<path id="chat_add_on_2" d="M221.43 734.533V307.417C221.43 291.756 227.006 278.349 238.159 267.196C249.311 256.044 262.718 250.468 278.379 250.468H620.073C635.734 250.468 649.14 256.044 660.293 267.196C671.445 278.349 677.022 291.756 677.022 307.417V451.924C672.276 450.975 667.53 450.382 662.784 450.145C658.039 449.907 653.293 449.789 648.547 449.789C643.801 449.789 639.056 449.907 634.31 450.145C629.564 450.382 624.818 450.975 620.073 451.924V307.417H278.379V592.161H479.836C478.887 596.907 478.294 601.652 478.056 606.398C477.819 611.144 477.7 615.89 477.7 620.635C477.7 625.381 477.819 630.127 478.056 634.873C478.294 639.618 478.887 644.364 479.836 649.11H306.854L221.43 734.533ZM335.328 535.212H477.7V478.263H335.328V535.212Z" fill="var(--text)"/>
<path id="archive" d="M762.57 620.636L648.672 734.534L534.774 620.636L574.638 580.772L620.197 626.331V506.738H677.146V626.331L722.705 580.772L762.57 620.636Z" fill="#FF4500"/>
<path id="chat_add_on_3" d="M563.124 421.314H335.328V364.365H563.124V421.314Z" fill="#FF4500"/>
</g>
</g>
</g>
<defs>
<clipPath id="clip0_5388_551">
<rect width="4385" height="983" fill="white"/>
</clipPath>
<clipPath id="clip1_5388_551">
<rect width="983" height="983" fill="white" transform="translate(0.5 1)"/>
</clipPath>
</defs>
</svg>
