<svg width="983" viewBox="0 0 983 983" fill="none" xmlns="http://www.w3.org/2000/svg">
	<g id="managed_info_spiral_round">
		<g id="dynamic">
			<g id="spiral">
				<path id="Vector" d="M178.034 112.892C214.888 82.3033 255.815 57.4119 300.166 38.6529C360.79 13.0088 425.169 0.00603168 491.497 0.00602878C557.825 0.00602588 622.197 13.0088 682.828 38.6529C727.179 57.4118 768.106 82.3033 804.96 112.892C816.745 122.67 828.11 133.031 839.039 143.96C884.165 189.086 919.594 241.643 944.353 300.171C969.097 358.661 982.07 420.65 982.948 484.498C982.963 485.509 982.97 486.528 982.985 487.539C982.985 487.819 982.985 488.099 982.985 488.387C982.985 489.42 983 490.461 983 491.494C983 492.527 983 493.568 982.985 494.601C982.985 494.889 982.985 495.169 982.985 495.45C982.97 496.461 982.963 497.479 982.948 498.49C979.354 723.567 802.871 907.408 580.775 922.743C551.877 924.779 520.351 923.761 491.497 919.732C409.023 908.389 333.884 873.683 273.017 822.528C335.714 864.053 410.831 888.243 491.497 888.243C572.163 888.243 647.28 864.045 709.977 822.528C815.992 752.333 886.49 632.607 888.216 496.616C888.231 494.911 888.246 493.199 888.246 491.494C888.246 489.789 888.231 488.077 888.216 486.373C887.567 426.635 875.531 368.676 852.411 314.008C829.445 259.709 796.569 210.944 754.697 169.072C712.826 127.201 664.069 94.3246 609.762 71.3593C600.198 67.3153 590.531 63.6107 580.768 60.2382C551.759 50.2389 521.93 43.243 491.49 39.3097C471.985 36.7859 452.223 35.5166 432.276 35.5166C370.723 35.5166 311.014 47.5749 254.789 71.3519C227.773 82.7756 202.136 96.6492 178.027 112.87L178.034 112.892Z" fill="#FF4500"/>
				<path id="Vector_2" d="M-0.000235107 491.507C-0.000235152 490.474 -0.000235198 489.434 0.0145239 488.401C0.0145239 488.113 0.0145239 487.832 0.0145239 487.552C0.029283 486.541 0.0366626 485.523 0.0514217 484.512C0.0661809 483.759 0.08094 483.006 0.0956992 482.254C0.0956991 482.099 0.0956992 481.936 0.110458 481.789C0.125217 481.338 0.132597 480.888 0.147356 480.431C0.162115 479.988 0.169495 479.538 0.184254 479.088C0.228532 477.501 0.280189 475.922 0.346605 474.335C0.383503 473.457 0.420401 472.579 0.457299 471.708C0.479437 471.081 0.508956 470.453 0.545854 469.826C0.708204 466.542 0.907453 463.273 1.1436 460.011C1.1805 459.458 1.2174 458.897 1.26905 458.344C1.32809 457.561 1.38713 456.786 1.45354 456.004C1.49782 455.466 1.5421 454.919 1.58638 454.381C1.71183 452.927 1.83728 451.473 1.98487 450.019C2.17674 447.938 2.39075 445.865 2.6269 443.791C2.9885 440.522 3.38699 437.275 3.81501 434.028C3.88143 433.548 3.94784 433.069 4.00688 432.596C6.57498 413.837 10.3459 395.462 15.2534 377.544C15.4748 376.725 15.7035 375.914 15.9323 375.102C16.1611 374.283 16.3898 373.471 16.6186 372.659C17.0761 371.087 17.5337 369.508 18.006 367.936C19.2236 363.848 20.5076 359.774 21.8507 355.738C22.3599 354.21 22.8691 352.697 23.3931 351.17C24.2417 348.712 25.1051 346.27 25.9907 343.835C26.7582 341.724 27.5404 339.628 28.3448 337.54C28.7064 336.595 29.0753 335.651 29.4369 334.706C29.6878 334.064 29.9388 333.422 30.197 332.773C30.8686 331.09 31.5401 329.415 32.2264 327.747C33.171 325.437 34.1377 323.142 35.1266 320.854C35.7834 319.334 36.4476 317.814 37.1265 316.286C37.4659 315.526 37.798 314.774 38.1449 314.014C38.4917 313.254 38.8312 312.501 39.178 311.748C39.5248 310.995 39.8717 310.243 40.2185 309.49C40.9196 307.984 41.628 306.486 42.3438 304.996C43.4213 302.76 44.5134 300.524 45.6278 298.302C46.0041 297.565 46.3731 296.819 46.7495 296.089C47.8712 293.882 49.015 291.676 50.181 289.484C50.5647 288.753 50.9558 288.023 51.3469 287.299C51.6495 286.739 51.9521 286.178 52.2546 285.617C54.0848 282.252 55.9592 278.916 57.8779 275.618C58.2247 275.012 58.5716 274.415 58.9258 273.817C60.291 271.485 61.6784 269.16 63.0879 266.851C63.4052 266.334 63.7225 265.818 64.0398 265.301C65.8257 262.408 67.6411 259.537 69.486 256.689C69.8919 256.076 70.2904 255.449 70.6962 254.837C71.0136 254.342 71.3383 253.855 71.6703 253.361C72.0836 252.741 72.4968 252.114 72.9175 251.486C74.3344 249.376 75.766 247.28 77.2198 245.199C77.6847 244.527 78.1644 243.848 78.6367 243.177C79.5813 241.834 80.5332 240.498 81.5 239.162C81.9796 238.491 82.4667 237.827 82.9463 237.17C84.4001 235.177 85.8687 233.2 87.3593 231.237C87.8538 230.58 88.3556 229.931 88.85 229.274C90.3407 227.318 91.8609 225.377 93.3885 223.444C93.8977 222.802 94.4069 222.16 94.9234 221.518C95.381 220.942 95.8385 220.374 96.3034 219.806C96.8716 219.105 97.4472 218.396 98.0302 217.695C98.5025 217.112 98.9748 216.544 99.4545 215.968C100.023 215.282 100.591 214.596 101.174 213.917C101.698 213.29 102.229 212.662 102.761 212.035C103.284 211.415 103.823 210.788 104.362 210.161C105.425 208.913 106.502 207.681 107.587 206.449C108.126 205.836 108.672 205.216 109.218 204.604C110.849 202.766 112.502 200.944 114.169 199.136C114.723 198.53 115.276 197.925 115.837 197.328C116.951 196.125 118.073 194.929 119.21 193.748C119.77 193.158 120.339 192.568 120.907 191.97C121.475 191.38 122.043 190.789 122.619 190.199C123.187 189.616 123.763 189.026 124.338 188.443C125.468 187.291 126.604 186.147 127.748 185.011C128.353 184.413 128.951 183.815 129.563 183.225C130.146 182.65 130.737 182.074 131.32 181.506C132.5 180.362 133.674 179.225 134.869 178.104C135.46 177.536 136.057 176.975 136.655 176.414C144.743 168.813 153.126 161.529 161.775 154.578C162.417 154.054 163.059 153.544 163.709 153.035C167.937 149.67 172.232 146.386 176.586 143.183C177.066 142.829 177.553 142.475 178.04 142.121C178.519 141.767 178.999 141.42 179.486 141.073C180.04 140.667 180.6 140.269 181.154 139.863C182.984 138.556 184.829 137.258 186.681 135.974C187.257 135.575 187.832 135.177 188.408 134.785C189.53 134.011 190.674 133.243 191.81 132.476C192.452 132.04 193.087 131.62 193.736 131.192C194.112 130.941 194.496 130.69 194.88 130.432C195.463 130.055 196.031 129.671 196.614 129.295C197.3 128.845 197.994 128.395 198.688 127.952C200.791 126.594 202.902 125.258 205.027 123.937C205.698 123.524 206.37 123.104 207.049 122.69C208.2 121.989 209.359 121.281 210.517 120.587C211.218 120.159 211.942 119.731 212.65 119.31C217.639 116.359 222.686 113.495 227.8 110.743C228.324 110.455 228.856 110.167 229.387 109.887C230.546 109.267 231.719 108.647 232.885 108.042C233.615 107.658 234.353 107.274 235.091 106.898C238.766 105.002 242.478 103.164 246.212 101.371C246.958 101.017 247.71 100.655 248.456 100.308C249.209 99.9538 249.961 99.607 250.714 99.2527C251.415 98.928 252.109 98.6034 252.81 98.2787C255.282 97.1422 257.776 96.0279 260.278 94.9431C260.876 94.6774 261.481 94.4192 262.079 94.1609C265.134 92.8473 268.211 91.5706 271.296 90.3235C272.063 90.0062 272.838 89.7035 273.62 89.3936C278.107 87.6152 282.631 85.9105 287.191 84.287C287.981 83.9992 288.77 83.7261 289.567 83.4457C290.21 83.217 290.844 82.9955 291.486 82.7742C292.431 82.4495 293.383 82.1248 294.335 81.8001C294.932 81.6008 295.53 81.3942 296.128 81.1949C296.475 81.0842 296.829 80.9662 297.176 80.8481C298.504 80.4127 299.833 79.9773 301.176 79.5566C306.489 77.8594 311.839 76.2654 317.241 74.7747C317.794 74.6197 318.348 74.4648 318.901 74.3172C322.045 73.4611 325.211 72.6346 328.392 71.8524C328.871 71.727 329.358 71.6088 329.845 71.4981C330.288 71.3874 330.731 71.2768 331.181 71.1734C332.731 70.7971 334.28 70.4355 335.845 70.0813C344.228 68.1626 352.715 66.4874 361.282 65.0631C362.094 64.9303 362.898 64.7974 363.71 64.6646C364.035 64.613 364.367 64.5613 364.692 64.5096C365.636 64.3547 366.596 64.2071 367.548 64.0669C368.345 63.9488 369.149 63.8307 369.953 63.7127C371.223 63.5282 372.492 63.3511 373.769 63.1814C383.17 61.9047 392.668 60.9231 402.261 60.259C412.194 59.5801 422.216 59.2258 432.318 59.2258C452.406 59.2258 472.168 60.6059 491.532 63.2699C574.006 74.6123 649.145 109.319 710.012 160.474C647.315 118.949 572.198 94.7586 491.532 94.7586C410.866 94.7586 335.749 118.956 273.052 160.474C167.037 230.669 96.5396 350.395 94.8127 486.386C94.798 488.091 94.7832 489.803 94.7832 491.507C94.7832 493.212 94.798 494.924 94.8127 496.629C95.4621 556.367 107.498 614.326 130.619 668.994C153.584 723.293 186.46 772.057 228.332 813.929C270.203 855.801 318.96 888.677 373.267 911.642C382.831 915.686 392.498 919.391 402.261 922.763C507.428 959.255 626.18 955.145 728.24 911.642C755.257 900.219 780.893 886.345 805.002 870.125C768.149 900.713 727.221 925.604 682.87 944.363C622.203 970 557.83 983.003 491.495 983.003C425.16 983.003 360.795 970 300.165 944.356C255.813 925.597 214.886 900.706 178.032 870.117C166.247 860.339 154.883 849.978 143.953 839.049C98.8273 793.923 63.3978 741.366 38.6393 682.838C13.5118 623.418 0.523719 560.389 0.0145242 495.463C0.0145242 495.183 0.0145242 494.902 0.0145242 494.614C0.0145242 493.581 -0.000235062 492.541 -0.000235107 491.507Z" fill="var(--text)"/>
			</g>
		</g>
		<g id="mobile_info">
			<g id="info_cards">
				<path id="1" d="M457.997 393.759V364.09H715.129V393.759H457.997Z" fill="var(--text)">
					<animate attributeName="fill" values="var(--text); #FF4500; var(--text)" dur="4s" repeatCount="indefinite" />
				</path>
				<path id="2" d="M457.997 420.386V450.055H633.346V420.386H457.997Z" fill="#FF4500">
					<animate attributeName="fill" values="#FF4500; var(--text); #FF4500" dur="15s" repeatCount="indefinite" />
				</path>
				<path id="3" d="M457.997 476.682V506.351H681.308V476.682H457.997Z" fill="var(--text)">
					<animate attributeName="fill" values="var(--text); #FF4500; var(--text)" dur="12s" repeatCount="indefinite" />
				</path>
				<path id="4" d="M457.997 532.978V562.647H579.391V532.978H457.997Z" fill="#FF4500">
					<animate attributeName="fill" values="#FF4500; var(--text); #FF4500" dur="6.5s" repeatCount="indefinite" />
				</path>
				<path id="5" d="M457.997 589.272V618.941H715.129V589.272H457.997Z" fill="var(--text)">
					<animate attributeName="fill" values="var(--text); #FF4500; var(--text)" dur="26s" repeatCount="indefinite" />
				</path>
			</g>
			<path id="mobile" d="M307.812 784.396C296.828 784.396 287.427 780.484 279.608 772.66C271.784 764.841 267.872 755.44 267.872 744.456V238.548C267.872 227.565 271.784 218.161 279.608 210.337C287.427 202.518 296.828 198.608 307.812 198.608H600.706C611.689 198.608 621.093 202.518 628.917 210.337C636.736 218.161 640.646 227.565 640.646 238.548V335.736H600.706V298.459H454.259H307.812V684.546H600.706V647.269H640.646V744.456C640.646 755.44 636.736 764.841 628.917 772.66C621.093 780.484 611.689 784.396 600.706 784.396H307.812ZM307.812 744.456H600.706V724.486H307.812V744.456ZM307.812 258.519H600.706V238.548H307.812V258.519Z" fill="var(--text)"/>
		</g>
	</g>
</svg>
