<svg width="25" viewBox="0 0 984 983" fill="none" xmlns="http://www.w3.org/2000/svg">
<g id="prod_beam_spiral_round">
<g id="dynamic">
<g id="spiral">
<path id="Vector" d="M182.87 117.921C219.233 87.7392 259.616 63.1786 303.378 44.6691C363.195 19.366 426.719 6.53599 492.165 6.53599C557.611 6.53599 621.127 19.366 680.952 44.6691C724.714 63.1786 765.097 87.7391 801.461 117.921C813.089 127.569 824.303 137.792 835.086 148.576C879.613 193.102 914.571 244.961 939.001 302.71C963.415 360.423 976.216 421.588 977.083 484.587C977.097 485.585 977.105 486.59 977.119 487.587C977.119 487.864 977.119 488.14 977.119 488.424C977.119 489.444 977.134 490.471 977.134 491.49C977.134 492.509 977.134 493.536 977.119 494.555C977.119 494.839 977.119 495.116 977.119 495.393C977.105 496.39 977.097 497.395 977.083 498.393C973.537 720.478 799.4 901.874 580.256 917.005C551.742 919.015 520.636 918.01 492.165 914.034C410.787 902.843 336.647 868.598 276.59 818.123C338.453 859.096 412.571 882.964 492.165 882.964C571.759 882.964 645.877 859.088 707.741 818.123C812.346 748.861 881.906 630.726 883.61 496.543C883.625 494.861 883.639 493.172 883.639 491.49C883.639 489.808 883.625 488.119 883.61 486.437C882.97 427.493 871.093 370.304 848.281 316.363C825.621 262.786 793.182 214.67 751.866 173.355C710.551 132.04 662.443 99.6007 608.858 76.9407C599.421 72.9504 589.883 69.2951 580.249 65.9674C551.626 56.101 522.194 49.1982 492.158 45.3172C472.913 42.8269 453.413 41.5745 433.731 41.5745C372.996 41.5745 314.082 53.4725 258.604 76.9334C231.947 88.2051 206.651 101.894 182.862 117.899L182.87 117.921Z" fill="#FF4500"/>
<path id="Vector_2" d="M7.20213 491.504C7.20213 490.484 7.20213 489.458 7.21669 488.438C7.21669 488.154 7.21669 487.877 7.21669 487.601C7.23125 486.603 7.23853 485.598 7.2531 484.601C7.26766 483.858 7.28222 483.115 7.29679 482.373C7.29679 482.22 7.29679 482.06 7.31135 481.914C7.32591 481.47 7.33319 481.026 7.34776 480.574C7.36232 480.137 7.3696 479.693 7.38416 479.249C7.42785 477.683 7.47882 476.125 7.54436 474.56C7.58076 473.693 7.61717 472.827 7.65358 471.967C7.67542 471.348 7.70455 470.73 7.74096 470.111C7.90115 466.87 8.09775 463.645 8.33076 460.426C8.36716 459.88 8.40357 459.327 8.45454 458.781C8.51279 458.009 8.57104 457.244 8.63658 456.472C8.68027 455.941 8.72396 455.402 8.76764 454.87C8.89143 453.436 9.01521 452.002 9.16084 450.567C9.35016 448.514 9.56133 446.468 9.79433 444.422C10.1511 441.196 10.5443 437.992 10.9667 434.788C11.0322 434.315 11.0977 433.842 11.156 433.376C13.6899 414.866 17.4108 396.735 22.2529 379.056C22.4714 378.247 22.6971 377.446 22.9228 376.646C23.1486 375.837 23.3743 375.036 23.6 374.235C24.0515 372.684 24.5029 371.126 24.9689 369.575C26.1704 365.541 27.4374 361.522 28.7626 357.539C29.265 356.032 29.7674 354.539 30.2844 353.032C31.1218 350.607 31.9737 348.197 32.8475 345.794C33.6048 343.711 34.3766 341.643 35.1703 339.583C35.5271 338.651 35.8912 337.719 36.248 336.787C36.4955 336.153 36.7431 335.52 36.9979 334.879C37.6606 333.219 38.3232 331.566 39.0003 329.92C39.9324 327.641 40.8863 325.377 41.862 323.119C42.51 321.619 43.1654 320.119 43.8353 318.612C44.1702 317.862 44.4979 317.119 44.8401 316.369C45.1823 315.619 45.5173 314.877 45.8595 314.134C46.2017 313.391 46.544 312.649 46.8862 311.906C47.5779 310.42 48.277 308.942 48.9833 307.471C50.0464 305.265 51.124 303.059 52.2235 300.867C52.5949 300.139 52.9589 299.404 53.3303 298.683C54.4371 296.506 55.5657 294.328 56.7162 292.166C57.0948 291.445 57.4808 290.724 57.8667 290.01C58.1652 289.457 58.4637 288.904 58.7623 288.35C60.5681 285.03 62.4176 281.739 64.3108 278.484C64.653 277.887 64.9952 277.297 65.3447 276.707C66.6918 274.406 68.0607 272.113 69.4515 269.833C69.7646 269.324 70.0777 268.814 70.3908 268.304C72.1529 265.45 73.9442 262.618 75.7646 259.807C76.165 259.203 76.5582 258.584 76.9587 257.979C77.2718 257.491 77.5922 257.011 77.9199 256.523C78.3276 255.911 78.7354 255.292 79.1504 254.673C80.5485 252.591 81.9611 250.523 83.3955 248.47C83.8543 247.807 84.3276 247.137 84.7936 246.474C85.7256 245.149 86.6649 243.831 87.6188 242.513C88.0921 241.851 88.5727 241.195 89.046 240.547C90.4804 238.581 91.9294 236.63 93.4003 234.693C93.8882 234.045 94.3833 233.404 94.8712 232.756C96.342 230.827 97.842 228.912 99.3493 227.004C99.8517 226.37 100.354 225.737 100.864 225.103C101.315 224.535 101.767 223.975 102.225 223.414C102.786 222.722 103.354 222.023 103.929 221.331C104.395 220.756 104.861 220.196 105.335 219.628C105.895 218.95 106.456 218.273 107.031 217.603C107.548 216.984 108.072 216.366 108.597 215.747C109.114 215.135 109.645 214.516 110.177 213.897C111.225 212.667 112.288 211.45 113.359 210.234C113.89 209.63 114.429 209.018 114.968 208.414C116.577 206.601 118.208 204.803 119.854 203.019C120.4 202.422 120.946 201.824 121.5 201.235C122.599 200.048 123.706 198.868 124.827 197.703C125.381 197.121 125.941 196.538 126.502 195.948C127.063 195.366 127.623 194.783 128.191 194.201C128.752 193.626 129.32 193.043 129.888 192.468C131.002 191.332 132.123 190.203 133.252 189.082C133.849 188.492 134.439 187.902 135.043 187.32C135.618 186.752 136.201 186.184 136.776 185.623C137.941 184.495 139.099 183.373 140.278 182.266C140.861 181.706 141.451 181.152 142.041 180.599C150.021 173.099 158.293 165.912 166.827 159.053C167.46 158.536 168.094 158.034 168.734 157.531C172.907 154.211 177.145 150.971 181.441 147.81C181.914 147.461 182.395 147.111 182.875 146.762C183.348 146.412 183.822 146.07 184.302 145.728C184.848 145.327 185.402 144.934 185.948 144.534C187.754 143.245 189.574 141.963 191.402 140.696C191.97 140.303 192.538 139.91 193.106 139.524C194.212 138.759 195.341 138.002 196.462 137.245C197.096 136.815 197.722 136.4 198.363 135.978C198.734 135.73 199.113 135.483 199.491 135.228C200.067 134.857 200.627 134.478 201.203 134.107C201.88 133.662 202.564 133.218 203.249 132.781C205.324 131.442 207.406 130.124 209.504 128.82C210.166 128.413 210.829 127.997 211.499 127.59C212.635 126.898 213.778 126.199 214.921 125.514C215.613 125.092 216.326 124.67 217.025 124.255C221.948 121.342 226.928 118.517 231.974 115.801C232.491 115.517 233.015 115.233 233.54 114.956C234.683 114.345 235.841 113.733 236.991 113.136C237.712 112.757 238.44 112.379 239.168 112.007C242.794 110.136 246.457 108.323 250.141 106.554C250.877 106.204 251.62 105.847 252.355 105.505C253.098 105.155 253.84 104.813 254.583 104.464C255.275 104.143 255.959 103.823 256.651 103.503C259.09 102.381 261.552 101.282 264.02 100.211C264.61 99.9492 265.207 99.6944 265.797 99.4395C268.811 98.1434 271.848 96.8837 274.891 95.6531C275.648 95.34 276.413 95.0414 277.185 94.7356C281.612 92.9808 286.076 91.2988 290.576 89.6969C291.355 89.4129 292.134 89.1435 292.92 88.8668C293.554 88.6411 294.18 88.4226 294.813 88.2042C295.745 87.8838 296.685 87.5634 297.624 87.243C298.214 87.0464 298.804 86.8425 299.393 86.6459C299.736 86.5367 300.085 86.4202 300.427 86.3037C301.738 85.8741 303.049 85.4445 304.374 85.0294C309.617 83.3547 314.896 81.7819 320.226 80.3111C320.772 80.1581 321.318 80.0052 321.864 79.8596C324.966 79.015 328.09 78.1995 331.228 77.4276C331.701 77.3038 332.182 77.1873 332.662 77.078C333.099 76.9688 333.536 76.8596 333.98 76.7577C335.51 76.3863 337.039 76.0296 338.582 75.68C346.854 73.7869 355.228 72.1339 363.682 70.7286C364.483 70.5975 365.276 70.4664 366.077 70.3354C366.398 70.2844 366.725 70.2335 367.046 70.1825C367.978 70.0296 368.924 69.884 369.864 69.7456C370.65 69.6291 371.444 69.5126 372.237 69.3961C373.49 69.2141 374.742 69.0393 376.002 68.8719C385.278 67.6122 394.65 66.6437 404.116 65.9883C413.917 65.3184 423.805 64.9689 433.773 64.9689C453.593 64.9689 473.093 66.3306 492.2 68.9592C573.578 80.1509 647.718 114.396 707.775 164.871C645.912 123.898 571.794 100.029 492.2 100.029C412.606 100.029 338.488 123.905 276.624 164.871C172.018 234.132 102.458 352.267 100.755 486.45C100.74 488.132 100.725 489.822 100.725 491.504C100.725 493.186 100.74 494.875 100.755 496.557C101.395 555.501 113.271 612.689 136.084 666.631C158.744 720.208 191.183 768.324 232.498 809.639C273.814 850.954 321.922 883.393 375.507 906.053C384.944 910.043 394.482 913.698 404.116 917.026C507.884 953.033 625.058 948.977 725.761 906.053C752.418 894.781 777.714 881.092 801.503 865.087C765.139 895.269 724.756 919.829 680.994 938.339C621.133 963.635 557.617 976.465 492.163 976.465C426.71 976.465 363.201 963.635 303.376 938.332C259.615 919.822 219.232 895.262 182.868 865.08C171.239 855.432 160.026 845.209 149.242 834.425C104.716 789.899 69.7573 738.04 45.328 680.291C20.5345 621.66 7.71912 559.469 7.21669 495.406C7.21669 495.13 7.21669 494.853 7.21669 494.569C7.21669 493.55 7.20213 492.523 7.20213 491.504Z" fill="var(--text)"/>
</g>
</g>
<g id="bottom">
<path fill-rule="evenodd" clip-rule="evenodd" d="M324.852 780.498C291.389 780.498 262.743 768.583 238.913 744.753C215.083 720.924 203.168 692.277 203.168 658.814C203.168 625.351 215.083 596.705 238.913 572.875C262.743 549.045 291.389 537.13 324.852 537.13C337.453 537.13 349.372 538.82 360.607 542.199C365.208 576.696 380.454 606.89 406.345 632.781C418.738 645.175 432.118 655.129 446.483 662.644C445.604 694.468 433.707 721.838 410.791 744.753C386.962 768.583 358.315 780.498 324.852 780.498ZM324.852 719.656C341.584 719.656 355.907 713.699 367.822 701.784C379.737 689.869 385.694 675.546 385.694 658.814C385.694 642.083 379.737 627.759 367.822 615.844C355.907 603.93 341.584 597.972 324.852 597.972C308.121 597.972 293.798 603.93 281.883 615.844C269.968 627.759 264.01 642.083 264.01 658.814C264.01 675.546 269.968 689.869 281.883 701.784C293.798 713.699 308.121 719.656 324.852 719.656Z" fill="var(--text)"/>
<path fill-rule="evenodd" clip-rule="evenodd" d="M298.656 539.833C331.334 532.628 361.874 538.097 390.275 556.238C418.676 574.378 436.479 599.788 443.683 632.466C450.887 665.145 445.418 695.685 427.278 724.086C409.137 752.487 383.727 770.289 351.049 777.494C338.743 780.206 326.741 781.122 315.042 780.241C303.122 747.543 281.733 721.339 250.875 701.63C236.104 692.195 220.895 685.354 205.249 681.108C199.256 649.841 204.982 620.552 222.427 593.24C240.568 564.839 265.977 547.037 298.656 539.833ZM311.754 599.248C295.415 602.85 282.71 611.751 273.64 625.952C264.569 640.152 261.835 655.422 265.437 671.761C269.039 688.101 277.94 700.805 292.141 709.876C306.341 718.946 321.611 721.68 337.951 718.078C354.29 714.476 366.995 705.575 376.065 691.374C385.135 677.174 387.87 661.904 384.268 645.565C380.665 629.226 371.764 616.521 357.564 607.45C343.363 598.38 328.093 595.646 311.754 599.248Z" fill="var(--text)"/>
</g>
<g id="left">
<path fill-rule="evenodd" clip-rule="evenodd" d="M446.536 324.184C446.536 346.963 441.014 367.51 429.972 385.825C421.734 391.546 413.858 398.163 406.344 405.676C398.831 413.19 392.214 421.066 386.493 429.304C368.178 440.346 347.631 445.868 324.852 445.868C291.389 445.868 262.742 433.953 238.913 410.123C215.083 386.293 203.168 357.647 203.168 324.184C203.168 290.721 215.083 262.074 238.913 238.245C262.742 214.415 291.389 202.5 324.852 202.5C358.315 202.5 386.961 214.415 410.791 238.245C434.621 262.074 446.536 290.721 446.536 324.184ZM367.821 367.153C355.907 379.068 341.583 385.026 324.852 385.026C308.12 385.026 293.797 379.068 281.882 367.153C269.967 355.239 264.01 340.915 264.01 324.184C264.01 307.452 269.967 293.129 281.882 281.214C293.797 269.299 308.12 263.342 324.852 263.342C341.583 263.342 355.907 269.299 367.821 281.214C379.736 293.129 385.694 307.452 385.694 324.184C385.694 340.915 379.736 355.239 367.821 367.153Z" fill="var(--text)"/>
<path fill-rule="evenodd" clip-rule="evenodd" d="M410.895 410.227C394.788 426.334 376.355 436.959 355.596 442.102C345.726 440.322 335.478 439.432 324.852 439.432C314.226 439.432 303.978 440.322 294.107 442.102C273.349 436.959 254.916 426.334 238.808 410.227C215.146 386.565 203.315 357.884 203.315 324.184C203.315 290.483 215.146 261.802 238.808 238.14C262.47 214.478 291.151 202.647 324.852 202.647C358.552 202.647 387.233 214.478 410.895 238.14C434.557 261.802 446.388 290.483 446.388 324.184C446.388 357.884 434.557 386.565 410.895 410.227ZM324.852 384.952C308.002 384.952 293.661 379.036 281.83 367.206C269.999 355.375 264.084 341.034 264.084 324.184C264.084 307.334 269.999 292.993 281.83 281.162C293.661 269.331 308.002 263.416 324.852 263.416C341.702 263.416 356.043 269.331 367.874 281.162C379.704 292.993 385.62 307.334 385.62 324.184C385.62 341.034 379.704 355.375 367.873 367.206C356.043 379.036 341.702 384.952 324.852 384.952Z" fill="var(--text)"/>
</g>
<g id="right">
<path fill-rule="evenodd" clip-rule="evenodd" d="M745.421 410.123C722.506 433.039 695.136 444.936 663.312 445.815C655.797 431.449 645.842 418.07 633.449 405.676C607.558 379.786 577.364 364.539 542.867 359.938C539.488 348.703 537.798 336.785 537.798 324.184C537.798 290.721 549.713 262.074 573.543 238.245C597.373 214.415 626.019 202.5 659.482 202.5C692.945 202.5 721.591 214.415 745.421 238.245C769.251 262.074 781.166 290.721 781.166 324.184C781.166 357.647 769.251 386.293 745.421 410.123ZM702.452 367.153C690.537 379.068 676.214 385.026 659.482 385.026C642.75 385.026 628.427 379.068 616.512 367.153C604.598 355.239 598.64 340.915 598.64 324.184C598.64 307.452 604.598 293.129 616.512 281.214C628.427 269.299 642.75 263.342 659.482 263.342C676.214 263.342 690.537 269.299 702.452 281.214C714.366 293.129 720.324 307.452 720.324 324.184C720.324 340.915 714.366 355.239 702.452 367.153Z" fill="var(--text)"/>
<path fill-rule="evenodd" clip-rule="evenodd" d="M573.543 410.123C550.627 387.208 538.73 359.838 537.851 328.014C552.216 320.499 565.596 310.544 577.989 298.151C603.88 272.26 619.126 242.066 623.728 207.569C634.963 204.19 646.881 202.5 659.482 202.5C692.945 202.5 721.591 214.415 745.421 238.245C769.251 262.074 781.166 290.721 781.166 324.184C781.166 357.647 769.251 386.293 745.421 410.123C721.592 433.953 692.945 445.868 659.482 445.868C626.019 445.868 597.373 433.953 573.543 410.123ZM616.512 367.153C604.598 355.239 598.64 340.915 598.64 324.184C598.64 307.452 604.598 293.129 616.512 281.214C628.427 269.299 642.75 263.342 659.482 263.342C676.214 263.342 690.537 269.299 702.452 281.214C714.366 293.129 720.324 307.452 720.324 324.184C720.324 340.915 714.366 355.239 702.452 367.153C690.537 379.068 676.214 385.026 659.482 385.026C642.75 385.026 628.427 379.068 616.512 367.153Z" fill="var(--text)"/>
</g>
<g id="search">
<path fill-rule="evenodd" clip-rule="evenodd" d="M446.483 662.645C468.614 674.223 493.085 680.012 519.896 680.012C534.635 680.012 548.871 678.169 562.604 674.485C576.338 670.8 589.234 665.273 601.292 657.904L724.894 780.501L781.168 724.227L657.566 601.631C664.936 589.572 670.63 576.676 674.649 562.942C678.669 549.209 680.679 534.638 680.679 519.23C680.679 492.418 674.89 467.947 663.312 445.816C655.797 431.45 645.842 418.071 633.449 405.677C607.558 379.786 577.364 364.54 542.867 359.939C535.411 358.945 527.754 358.447 519.896 358.447C486.232 358.447 456.257 367.573 429.972 385.826C421.734 391.546 413.858 398.164 406.344 405.677C398.831 413.191 392.213 421.067 386.493 429.305C368.24 455.59 359.114 485.565 359.114 519.23C359.114 527.087 359.611 534.744 360.606 542.2C365.207 576.697 380.453 606.891 406.344 632.782C418.738 645.176 432.117 655.13 446.483 662.645ZM519.896 599.621C542.004 599.621 560.929 591.749 576.673 576.006C592.416 560.263 600.288 541.337 600.288 519.23C600.288 497.122 592.416 478.197 576.673 462.453C560.929 446.71 542.004 438.838 519.896 438.838C497.789 438.838 478.864 446.71 463.12 462.453C447.377 478.197 439.505 497.122 439.505 519.23C439.505 541.337 447.377 560.263 463.12 576.006C478.864 591.749 497.789 599.621 519.896 599.621Z" fill="#FF4500"/>
  <!-- Animation block -->
<animateTransform
  attributeName="transform"
  type="translate"
  values="0,0; 100,-100; -100,-100; -100,100; 0,0; 0,0"
  keyTimes="0; 0.03; 0.06; 0.09; 0.12; 1"
  dur="36s"
  begin="2s"
  repeatCount="indefinite" />
</g>
</g>
</svg>
