<svg width="500" viewBox="0 0 4385 983" fill="none" xmlns="http://www.w3.org/2000/svg">
<g id="package_search" clip-path="url(#clip0_3635_368)">
<g id="text">
<g id="bayt">
<path d="M1105.77 433.281V3.73105H1284.85C1303.8 3.73105 1321.15 7.76438 1336.88 15.831C1352.61 23.4944 1366.32 33.9811 1378.02 47.2911C1389.71 60.1977 1398.79 74.9194 1405.24 91.4561C1411.69 107.589 1414.92 124.126 1414.92 141.066C1414.92 164.459 1409.68 186.844 1399.19 208.221C1388.7 229.194 1373.98 246.336 1355.03 259.646C1336.07 272.553 1313.89 279.006 1288.48 279.006H1160.22V433.281H1105.77ZM1160.22 230.606H1285.45C1300.37 230.606 1313.28 226.573 1324.17 218.506C1335.46 210.439 1344.14 199.549 1350.19 185.836C1356.64 172.123 1359.87 157.199 1359.87 141.066C1359.87 124.126 1356.24 109.001 1348.98 95.6911C1341.72 81.9777 1332.24 71.2894 1320.54 63.6261C1308.84 55.9627 1295.94 52.131 1281.82 52.131H1160.22V230.606Z" fill="var(--text)"/>
<path d="M2029.39 215.481C2029.39 189.264 2033.83 163.653 2042.7 138.646C2051.98 113.236 2065.29 90.2461 2082.63 69.6761C2100.38 48.7027 2121.96 32.166 2147.37 20.0661C2172.78 7.56272 2201.62 1.31105 2233.88 1.31105C2272.2 1.31105 2305.07 10.1844 2332.5 27.9311C2359.92 45.2744 2380.29 67.6594 2393.6 95.0861L2350.65 122.916C2342.18 104.766 2331.29 90.4477 2317.98 79.961C2305.07 69.0711 2290.95 61.4077 2275.63 56.9711C2260.7 52.5344 2245.98 50.3161 2231.46 50.3161C2207.67 50.3161 2186.49 55.1561 2167.94 64.8361C2149.79 74.5161 2134.46 87.4227 2121.96 103.556C2109.45 119.689 2099.98 137.839 2093.52 158.006C2087.47 177.769 2084.45 197.734 2084.45 217.901C2084.45 240.084 2088.08 261.461 2095.34 282.031C2103 302.601 2113.49 320.751 2126.8 336.481C2140.11 352.211 2155.84 364.714 2173.99 373.991C2192.14 383.268 2211.9 387.906 2233.28 387.906C2248.2 387.906 2263.53 385.284 2279.26 380.041C2294.99 374.798 2309.71 366.731 2323.42 355.841C2337.14 344.548 2348.03 330.028 2356.09 312.281L2401.47 337.086C2392.59 358.463 2378.88 376.613 2360.33 391.536C2341.77 406.459 2321 417.753 2298.01 425.416C2275.43 433.079 2253.04 436.911 2230.86 436.911C2201.41 436.911 2174.39 430.659 2149.79 418.156C2125.18 405.249 2103.81 388.309 2085.66 367.336C2067.91 345.959 2054 322.163 2043.91 295.946C2034.23 269.326 2029.39 242.504 2029.39 215.481Z" fill="var(--text)"/>
<path d="M2575.49 433.281V4.33604H2629.94V241.496L2851.37 3.73105H2910.06L2737.63 193.096L2919.74 433.281H2858.63L2703.15 225.766L2629.94 301.996V433.281H2575.49Z" fill="var(--text)"/>
<path d="M3747.82 436.306C3719.59 436.306 3693.17 430.256 3668.56 418.156C3644.36 405.653 3623.19 389.116 3605.04 368.546C3586.89 347.573 3572.77 324.179 3562.69 298.366C3552.61 272.149 3547.56 245.126 3547.56 217.296C3547.56 188.256 3552.61 160.829 3562.69 135.016C3572.77 108.799 3586.69 85.6077 3604.44 65.441C3622.59 45.2744 3643.76 29.5444 3667.96 18.251C3692.56 6.55439 3719.18 0.706055 3747.82 0.706055C3789.36 0.706055 3823.65 9.37772 3850.67 26.721C3877.69 44.0644 3898.06 66.6511 3911.78 94.4811L3870.03 123.521C3857.53 98.5144 3840.38 79.9611 3818.6 67.8611C3796.82 55.7611 3772.83 49.7111 3746.61 49.7111C3724.83 49.7111 3705.07 54.3494 3687.32 63.6261C3669.57 72.9027 3654.25 85.6077 3641.34 101.741C3628.84 117.471 3619.16 135.419 3612.3 155.586C3605.85 175.753 3602.62 196.726 3602.62 218.506C3602.62 241.496 3606.25 263.276 3613.51 283.846C3621.17 304.013 3631.86 321.961 3645.57 337.691C3659.29 353.018 3675.22 365.118 3693.37 373.991C3711.52 382.864 3731.08 387.301 3752.05 387.301C3776.66 387.301 3800.05 381.049 3822.24 368.546C3844.42 356.043 3865.39 336.884 3885.16 311.071V367.336C3846.44 413.316 3800.66 436.306 3747.82 436.306ZM3878.5 260.251H3785.94V219.111H3924.48V433.281H3878.5V260.251Z" fill="var(--text)"/>
<path d="M4404.77 384.881V433.281H4113.16V3.73105H4399.32V52.131H4167.61V191.281H4369.07V236.656H4167.61V384.881H4404.77Z" fill="var(--text)"/>
</g>
<g id="bayt_2">
<path d="M1391.93 639.155C1387.09 633.509 1380.64 628.064 1372.57 622.82C1364.5 617.577 1355.43 612.939 1345.35 608.905C1335.26 604.469 1324.17 601.04 1312.07 598.62C1300.37 595.797 1288.07 594.385 1275.17 594.385C1242.09 594.385 1217.69 600.637 1201.96 613.14C1186.23 625.644 1178.37 642.785 1178.37 664.565C1178.37 679.892 1182.4 691.992 1190.47 700.865C1198.53 709.739 1210.83 716.999 1227.37 722.645C1244.31 728.292 1265.69 734.14 1291.5 740.19C1321.35 746.644 1347.16 754.509 1368.94 763.785C1390.72 773.062 1407.46 785.565 1419.16 801.295C1430.85 816.622 1436.7 837.192 1436.7 863.005C1436.7 883.575 1432.67 901.524 1424.6 916.85C1416.94 931.774 1406.05 944.277 1391.93 954.36C1377.81 964.04 1361.28 971.3 1342.32 976.14C1323.36 980.577 1302.79 982.795 1280.61 982.795C1258.83 982.795 1237.45 980.577 1216.48 976.14C1195.91 971.3 1176.35 964.444 1157.8 955.57C1139.24 946.697 1121.9 935.605 1105.77 922.295L1131.78 876.315C1138.23 883.172 1146.5 890.029 1156.59 896.885C1167.07 903.339 1178.77 909.389 1191.68 915.035C1204.99 920.682 1219.3 925.32 1234.63 928.95C1249.96 932.177 1265.69 933.79 1281.82 933.79C1312.47 933.79 1336.27 928.345 1353.21 917.455C1370.15 906.162 1378.62 889.827 1378.62 868.45C1378.62 852.317 1373.78 839.41 1364.1 829.73C1354.82 820.05 1340.91 811.984 1322.36 805.53C1303.8 799.077 1281.22 792.624 1254.6 786.17C1225.56 778.91 1201.15 771.045 1181.39 762.575C1161.63 753.702 1146.7 742.207 1136.62 728.09C1126.94 713.974 1122.1 695.622 1122.1 673.035C1122.1 645.609 1128.76 622.417 1142.07 603.46C1155.38 584.504 1173.73 570.185 1197.12 560.505C1220.51 550.825 1246.93 545.985 1276.38 545.985C1295.74 545.985 1313.68 548.002 1330.22 552.035C1347.16 556.069 1362.89 561.715 1377.41 568.975C1391.93 576.235 1405.24 584.907 1417.34 594.99L1391.93 639.155Z" fill="var(--text)"/>
<path d="M1905.8 930.16V978.56H1614.19V549.01H1900.36V597.41H1668.64V736.56H1870.11V781.935H1668.64V930.16H1905.8Z" fill="var(--text)"/>
<path d="M2601.69 978.56V549.01H2785.61C2804.57 549.01 2821.91 553.044 2837.64 561.11C2853.37 568.774 2867.08 579.26 2878.78 592.57C2890.48 605.477 2899.55 620.199 2906.01 636.735C2912.46 652.869 2915.69 669.405 2915.69 686.345C2915.69 706.109 2911.85 724.864 2904.19 742.61C2896.93 760.357 2886.44 775.482 2872.73 787.985C2859.42 800.489 2843.69 809.16 2825.54 814L2929.6 978.56H2867.89L2769.88 824.285H2656.14V978.56H2601.69ZM2656.14 775.885H2786.22C2801.14 775.885 2814.05 771.852 2824.94 763.785C2836.23 755.315 2844.9 744.224 2850.95 730.51C2857.4 716.797 2860.63 702.075 2860.63 686.345C2860.63 670.212 2857 655.49 2849.74 642.18C2842.48 628.467 2833 617.577 2821.31 609.51C2809.61 601.444 2796.7 597.41 2782.59 597.41H2656.14V775.885Z" fill="var(--text)"/>
<path d="M3077.36 760.76C3077.36 734.544 3081.79 708.932 3090.67 683.925C3099.94 658.515 3113.25 635.525 3130.6 614.955C3148.34 593.982 3169.92 577.445 3195.33 565.345C3220.74 552.842 3249.58 546.59 3281.85 546.59C3320.16 546.59 3353.04 555.464 3380.46 573.21C3407.89 590.554 3428.26 612.939 3441.57 640.365L3398.61 668.195C3390.14 650.045 3379.25 635.727 3365.94 625.24C3353.04 614.35 3338.92 606.687 3323.59 602.25C3308.67 597.814 3293.95 595.595 3279.43 595.595C3255.63 595.595 3234.46 600.435 3215.9 610.115C3197.75 619.795 3182.43 632.702 3169.92 648.835C3157.42 664.969 3147.94 683.119 3141.49 703.285C3135.44 723.049 3132.41 743.014 3132.41 763.18C3132.41 785.364 3136.04 806.74 3143.3 827.31C3150.97 847.88 3161.45 866.03 3174.76 881.76C3188.07 897.49 3203.8 909.994 3221.95 919.27C3240.1 928.547 3259.87 933.185 3281.24 933.185C3296.17 933.185 3311.49 930.564 3327.22 925.32C3342.95 920.077 3357.67 912.01 3371.39 901.12C3385.1 889.827 3395.99 875.307 3404.06 857.56L3449.43 882.365C3440.56 903.742 3426.85 921.892 3408.29 936.815C3389.74 951.739 3368.97 963.032 3345.98 970.695C3323.39 978.359 3301.01 982.19 3278.82 982.19C3249.38 982.19 3222.36 975.939 3197.75 963.435C3173.15 950.529 3151.77 933.589 3133.62 912.615C3115.88 891.239 3101.96 867.442 3091.88 841.225C3082.2 814.605 3077.36 787.784 3077.36 760.76Z" fill="var(--text)"/>
<path d="M3968.91 549.01V978.56H3914.46V783.145H3677.9V978.56H3623.45V549.01H3677.9V734.745H3914.46V549.01H3968.91Z" fill="var(--text)"/>
</g>
<path id="a-3" fill-rule="evenodd" clip-rule="evenodd" d="M2264.42 549.615L2438.15 978.816H2379.1L2238.77 613.493L2098.45 978.816H2041.4L2215.13 549.615H2264.42Z" fill="var(--text)"/>
<path id="a-2" fill-rule="evenodd" clip-rule="evenodd" d="M3254.87 3.73047L3428.6 432.931H3369.55L3229.23 67.6078L3088.9 432.931H3031.85L3205.58 3.73047H3254.87Z" fill="var(--text)"/>
<path id="a-1" fill-rule="evenodd" clip-rule="evenodd" d="M1735.95 3.73047L1909.67 432.931H1850.63L1710.3 67.6078L1569.98 432.931H1512.93L1686.66 3.73047H1735.95Z" fill="var(--text)"/>
</g>
<g id="prod_beam_spiral_round">
<g id="dynamic">
<g id="spiral">
<path id="Vector" d="M181.869 118.921C218.232 88.7392 258.615 64.1786 302.377 45.6691C362.194 20.366 425.718 7.53599 491.164 7.53599C556.61 7.53599 620.126 20.366 679.951 45.6691C723.713 64.1786 764.096 88.7391 800.46 118.921C812.088 128.569 823.302 138.792 834.085 149.576C878.612 194.102 913.57 245.961 938 303.71C962.414 361.423 975.215 422.588 976.082 485.587C976.096 486.585 976.104 487.59 976.118 488.587C976.118 488.864 976.118 489.14 976.118 489.424C976.118 490.444 976.133 491.471 976.133 492.49C976.133 493.509 976.133 494.536 976.118 495.555C976.118 495.839 976.118 496.116 976.118 496.393C976.104 497.39 976.096 498.395 976.082 499.393C972.536 721.478 798.399 902.874 579.256 918.005C550.741 920.015 519.635 919.01 491.164 915.034C409.786 903.843 335.646 869.598 275.589 819.123C337.452 860.096 411.57 883.964 491.164 883.964C570.758 883.964 644.876 860.088 706.74 819.123C811.345 749.861 880.905 631.726 882.609 497.543C882.624 495.861 882.638 494.172 882.638 492.49C882.638 490.808 882.624 489.119 882.609 487.437C881.969 428.493 870.092 371.304 847.28 317.363C824.62 263.786 792.181 215.67 750.865 174.355C709.55 133.04 661.442 100.601 607.857 77.9407C598.42 73.9504 588.882 70.2951 579.248 66.9674C550.625 57.101 521.193 50.1982 491.157 46.3172C471.912 43.8269 452.412 42.5745 432.73 42.5745C371.995 42.5745 313.081 54.4725 257.603 77.9334C230.946 89.2051 205.65 102.894 181.861 118.899L181.869 118.921Z" fill="#FF4500"/>
<path id="Vector_2" d="M6.20115 492.504C6.20115 491.484 6.20115 490.458 6.21571 489.438C6.21571 489.154 6.21571 488.877 6.21571 488.601C6.23028 487.603 6.23756 486.598 6.25212 485.601C6.26668 484.858 6.28125 484.115 6.29581 483.373C6.29581 483.22 6.29581 483.06 6.31037 482.914C6.32494 482.47 6.33222 482.026 6.34678 481.574C6.36134 481.137 6.36862 480.693 6.38319 480.249C6.42688 478.683 6.47785 477.125 6.54338 475.56C6.57979 474.693 6.61619 473.827 6.6526 472.967C6.67445 472.348 6.70357 471.73 6.73998 471.111C6.90017 467.87 7.09677 464.645 7.32978 461.426C7.36619 460.88 7.40259 460.327 7.45356 459.781C7.51182 459.009 7.57007 458.244 7.6356 457.472C7.67929 456.941 7.72298 456.402 7.76667 455.87C7.89045 454.436 8.01424 453.002 8.15987 451.567C8.34919 449.514 8.56035 447.468 8.79336 445.422C9.15015 442.196 9.54335 438.992 9.96567 435.788C10.0312 435.315 10.0967 434.842 10.155 434.376C12.6889 415.866 16.4098 397.735 21.252 380.056C21.4704 379.247 21.6961 378.446 21.9219 377.646C22.1476 376.837 22.3733 376.036 22.599 375.235C23.0505 373.684 23.5019 372.126 23.968 370.575C25.1694 366.541 26.4364 362.522 27.7616 358.539C28.264 357.032 28.7665 355.539 29.2834 354.032C30.1208 351.607 30.9727 349.197 31.8465 346.794C32.6038 344.711 33.3756 342.643 34.1693 340.583C34.5261 339.651 34.8902 338.719 35.247 337.787C35.4945 337.153 35.7421 336.52 35.997 335.879C36.6596 334.219 37.3222 332.566 37.9994 330.92C38.9314 328.641 39.8853 326.377 40.861 324.119C41.509 322.619 42.1644 321.119 42.8343 319.612C43.1692 318.862 43.4969 318.119 43.8391 317.369C44.1814 316.619 44.5163 315.877 44.8585 315.134C45.2008 314.391 45.543 313.649 45.8852 312.906C46.577 311.42 47.276 309.942 47.9823 308.471C49.0454 306.265 50.123 304.059 51.2225 301.867C51.5939 301.139 51.958 300.404 52.3293 299.683C53.4361 297.506 54.5647 295.328 55.7152 293.166C56.0939 292.445 56.4798 291.724 56.8657 291.01C57.1642 290.457 57.4628 289.904 57.7613 289.35C59.5671 286.03 61.4166 282.739 63.3098 279.484C63.652 278.887 63.9943 278.297 64.3438 277.707C65.6908 275.406 67.0598 273.113 68.4505 270.833C68.7636 270.324 69.0767 269.814 69.3898 269.304C71.152 266.45 72.9432 263.618 74.7636 260.807C75.1641 260.203 75.5573 259.584 75.9577 258.979C76.2708 258.491 76.5912 258.011 76.9189 257.523C77.3267 256.911 77.7344 256.292 78.1495 255.673C79.5475 253.591 80.9601 251.523 82.3946 249.47C82.8533 248.807 83.3266 248.137 83.7926 247.474C84.7246 246.149 85.664 244.831 86.6178 243.513C87.0911 242.851 87.5717 242.195 88.045 241.547C89.4794 239.581 90.9285 237.63 92.3993 235.693C92.8872 235.045 93.3823 234.404 93.8702 233.756C95.341 231.827 96.841 229.912 98.3483 228.004C98.8507 227.37 99.3531 226.737 99.8628 226.103C100.314 225.535 100.766 224.975 101.224 224.414C101.785 223.722 102.353 223.023 102.928 222.331C103.394 221.756 103.86 221.196 104.334 220.628C104.894 219.95 105.455 219.273 106.03 218.603C106.547 217.984 107.072 217.366 107.596 216.747C108.113 216.135 108.644 215.516 109.176 214.897C110.224 213.667 111.287 212.45 112.358 211.234C112.889 210.63 113.428 210.018 113.967 209.414C115.576 207.601 117.207 205.803 118.853 204.019C119.399 203.422 119.945 202.824 120.499 202.235C121.598 201.048 122.705 199.868 123.826 198.703C124.38 198.121 124.94 197.538 125.501 196.948C126.062 196.366 126.622 195.783 127.19 195.201C127.751 194.626 128.319 194.043 128.887 193.468C130.001 192.332 131.122 191.203 132.251 190.082C132.848 189.492 133.438 188.902 134.042 188.32C134.617 187.752 135.2 187.184 135.775 186.623C136.94 185.495 138.098 184.373 139.277 183.266C139.86 182.706 140.45 182.152 141.04 181.599C149.02 174.099 157.292 166.912 165.826 160.053C166.459 159.536 167.093 159.034 167.734 158.531C171.906 155.211 176.144 151.971 180.44 148.81C180.913 148.461 181.394 148.111 181.874 147.762C182.347 147.412 182.821 147.07 183.301 146.728C183.847 146.327 184.401 145.934 184.947 145.534C186.753 144.245 188.573 142.963 190.401 141.696C190.969 141.303 191.537 140.91 192.105 140.524C193.211 139.759 194.34 139.002 195.461 138.245C196.095 137.815 196.721 137.4 197.362 136.978C197.733 136.73 198.112 136.483 198.49 136.228C199.066 135.857 199.626 135.478 200.202 135.107C200.879 134.662 201.563 134.218 202.248 133.781C204.323 132.442 206.405 131.124 208.503 129.82C209.165 129.413 209.828 128.997 210.498 128.59C211.634 127.898 212.777 127.199 213.92 126.514C214.612 126.092 215.325 125.67 216.024 125.255C220.947 122.342 225.927 119.517 230.973 116.801C231.49 116.517 232.014 116.233 232.539 115.956C233.682 115.345 234.84 114.733 235.99 114.136C236.711 113.757 237.439 113.379 238.167 113.007C241.793 111.136 245.456 109.323 249.14 107.554C249.876 107.204 250.619 106.847 251.354 106.505C252.097 106.155 252.839 105.813 253.582 105.464C254.274 105.143 254.958 104.823 255.65 104.503C258.089 103.381 260.551 102.282 263.019 101.211C263.609 100.949 264.206 100.694 264.796 100.44C267.81 99.1434 270.847 97.8837 273.89 96.6531C274.648 96.34 275.412 96.0414 276.184 95.7356C280.611 93.9808 285.075 92.2988 289.575 90.6969C290.354 90.4129 291.133 90.1435 291.919 89.8668C292.553 89.6411 293.179 89.4226 293.812 89.2042C294.744 88.8838 295.684 88.5634 296.623 88.243C297.213 88.0464 297.803 87.8425 298.392 87.6459C298.735 87.5367 299.084 87.4202 299.426 87.3037C300.737 86.8741 302.048 86.4445 303.373 86.0294C308.616 84.3547 313.895 82.7819 319.225 81.3111C319.771 81.1581 320.317 81.0052 320.863 80.8596C323.965 80.015 327.089 79.1995 330.227 78.4276C330.7 78.3038 331.181 78.1873 331.662 78.078C332.098 77.9688 332.535 77.8596 332.979 77.7577C334.509 77.3863 336.038 77.0296 337.581 76.68C345.853 74.7869 354.227 73.1339 362.681 71.7286C363.482 71.5975 364.275 71.4664 365.076 71.3354C365.397 71.2844 365.724 71.2335 366.045 71.1825C366.977 71.0296 367.923 70.884 368.863 70.7456C369.649 70.6291 370.443 70.5126 371.236 70.3961C372.489 70.2141 373.741 70.0393 375.001 69.8719C384.277 68.6122 393.649 67.6437 403.115 66.9883C412.916 66.3184 422.804 65.9689 432.772 65.9689C452.592 65.9689 472.092 67.3306 491.199 69.9592C572.577 81.1509 646.717 115.396 706.774 165.871C644.911 124.898 570.793 101.029 491.199 101.029C411.605 101.029 337.487 124.905 275.623 165.871C171.017 235.132 101.457 353.267 99.7536 487.45C99.7391 489.132 99.7245 490.822 99.7245 492.504C99.7245 494.186 99.7391 495.875 99.7536 497.557C100.394 556.501 112.27 613.689 135.083 667.631C157.743 721.208 190.182 769.324 231.497 810.639C272.813 851.954 320.921 884.393 374.506 907.053C383.943 911.043 393.481 914.698 403.115 918.026C506.883 954.033 624.057 949.977 724.76 907.053C751.417 895.781 776.713 882.092 800.502 866.087C764.138 896.269 723.755 920.829 679.993 939.339C620.132 964.635 556.616 977.465 491.162 977.465C425.709 977.465 362.2 964.635 302.375 939.332C258.614 920.822 218.231 896.262 181.867 866.08C170.238 856.432 159.025 846.209 148.241 835.425C103.715 790.899 68.7564 739.04 44.327 681.291C19.5336 622.66 6.71814 560.469 6.21571 496.406C6.21571 496.13 6.21571 495.853 6.21571 495.569C6.21571 494.55 6.20115 493.523 6.20115 492.504Z" fill="var(--text)"/>
</g>
</g>
<g id="bottom">
<path fill-rule="evenodd" clip-rule="evenodd" d="M323.851 781.498C290.388 781.498 261.742 769.583 237.912 745.753C214.082 721.924 202.167 693.277 202.167 659.814C202.167 626.351 214.082 597.705 237.912 573.875C261.742 550.045 290.388 538.13 323.851 538.13C336.452 538.13 348.371 539.82 359.606 543.199C364.207 577.696 379.453 607.89 405.344 633.781C417.737 646.175 431.117 656.129 445.482 663.644C444.603 695.468 432.706 722.838 409.79 745.753C385.961 769.583 357.314 781.498 323.851 781.498ZM323.851 720.656C340.583 720.656 354.906 714.699 366.821 702.784C378.736 690.869 384.693 676.546 384.693 659.814C384.693 643.083 378.736 628.759 366.821 616.844C354.906 604.93 340.583 598.972 323.851 598.972C307.12 598.972 292.797 604.93 280.882 616.844C268.967 628.759 263.009 643.083 263.009 659.814C263.009 676.546 268.967 690.869 280.882 702.784C292.797 714.699 307.12 720.656 323.851 720.656Z" fill="var(--text)"/>
<path fill-rule="evenodd" clip-rule="evenodd" d="M297.655 540.833C330.333 533.628 360.873 539.097 389.274 557.238C417.675 575.378 435.478 600.788 442.682 633.466C449.886 666.145 444.417 696.685 426.277 725.086C408.136 753.487 382.726 771.289 350.048 778.494C337.742 781.206 325.74 782.122 314.041 781.241C302.121 748.543 280.732 722.339 249.874 702.63C235.103 693.195 219.894 686.354 204.248 682.108C198.255 650.841 203.981 621.552 221.426 594.24C239.567 565.839 264.976 548.037 297.655 540.833ZM310.753 600.248C294.414 603.85 281.709 612.751 272.639 626.952C263.568 641.152 260.834 656.422 264.436 672.761C268.038 689.101 276.939 701.805 291.14 710.876C305.341 719.946 320.61 722.68 336.95 719.078C353.289 715.476 365.994 706.575 375.064 692.374C384.134 678.174 386.869 662.904 383.267 646.565C379.664 630.226 370.763 617.521 356.563 608.45C342.362 599.38 327.092 596.646 310.753 600.248Z" fill="var(--text)"/>
</g>
<g id="left">
<path fill-rule="evenodd" clip-rule="evenodd" d="M445.536 325.184C445.536 347.963 440.014 368.51 428.972 386.825C420.734 392.546 412.858 399.163 405.344 406.676C397.831 414.19 391.214 422.066 385.493 430.304C367.178 441.346 346.631 446.868 323.852 446.868C290.389 446.868 261.742 434.953 237.913 411.123C214.083 387.293 202.168 358.647 202.168 325.184C202.168 291.721 214.083 263.074 237.913 239.245C261.742 215.415 290.389 203.5 323.852 203.5C357.315 203.5 385.961 215.415 409.791 239.245C433.621 263.074 445.536 291.721 445.536 325.184ZM366.821 368.153C354.907 380.068 340.583 386.026 323.852 386.026C307.12 386.026 292.797 380.068 280.882 368.153C268.967 356.239 263.01 341.915 263.01 325.184C263.01 308.452 268.967 294.129 280.882 282.214C292.797 270.299 307.12 264.342 323.852 264.342C340.583 264.342 354.907 270.299 366.821 282.214C378.736 294.129 384.694 308.452 384.694 325.184C384.694 341.915 378.736 356.239 366.821 368.153Z" fill="var(--text)"/>
<path fill-rule="evenodd" clip-rule="evenodd" d="M409.895 411.227C393.788 427.334 375.355 437.959 354.596 443.102C344.726 441.322 334.478 440.432 323.852 440.432C313.226 440.432 302.978 441.322 293.107 443.102C272.349 437.959 253.916 427.334 237.808 411.227C214.146 387.565 202.315 358.884 202.315 325.184C202.315 291.483 214.146 262.802 237.808 239.14C261.47 215.478 290.151 203.647 323.852 203.647C357.552 203.647 386.233 215.478 409.895 239.14C433.557 262.802 445.388 291.483 445.388 325.184C445.388 358.884 433.557 387.565 409.895 411.227ZM323.852 385.952C307.002 385.952 292.661 380.036 280.83 368.206C268.999 356.375 263.084 342.034 263.084 325.184C263.084 308.334 268.999 293.993 280.83 282.162C292.661 270.331 307.002 264.416 323.852 264.416C340.702 264.416 355.043 270.331 366.874 282.162C378.704 293.993 384.62 308.334 384.62 325.184C384.62 342.034 378.704 356.375 366.873 368.206C355.043 380.036 340.702 385.952 323.852 385.952Z" fill="var(--text)"/>
</g>
<g id="right">
<path fill-rule="evenodd" clip-rule="evenodd" d="M744.421 411.123C721.506 434.039 694.136 445.936 662.312 446.815C654.797 432.449 644.842 419.07 632.449 406.676C606.558 380.786 576.364 365.539 541.867 360.938C538.488 349.703 536.798 337.785 536.798 325.184C536.798 291.721 548.713 263.074 572.543 239.245C596.373 215.415 625.019 203.5 658.482 203.5C691.945 203.5 720.591 215.415 744.421 239.245C768.251 263.074 780.166 291.721 780.166 325.184C780.166 358.647 768.251 387.293 744.421 411.123ZM701.452 368.153C689.537 380.068 675.214 386.026 658.482 386.026C641.75 386.026 627.427 380.068 615.512 368.153C603.598 356.239 597.64 341.915 597.64 325.184C597.64 308.452 603.598 294.129 615.512 282.214C627.427 270.299 641.75 264.342 658.482 264.342C675.214 264.342 689.537 270.299 701.452 282.214C713.366 294.129 719.324 308.452 719.324 325.184C719.324 341.915 713.366 356.239 701.452 368.153Z" fill="var(--text)"/>
<path fill-rule="evenodd" clip-rule="evenodd" d="M572.543 411.123C549.627 388.208 537.73 360.838 536.851 329.014C551.216 321.499 564.596 311.544 576.989 299.151C602.88 273.26 618.126 243.066 622.728 208.569C633.963 205.19 645.881 203.5 658.482 203.5C691.945 203.5 720.591 215.415 744.421 239.245C768.251 263.074 780.166 291.721 780.166 325.184C780.166 358.647 768.251 387.293 744.421 411.123C720.592 434.953 691.945 446.868 658.482 446.868C625.019 446.868 596.373 434.953 572.543 411.123ZM615.512 368.153C603.598 356.239 597.64 341.915 597.64 325.184C597.64 308.452 603.598 294.129 615.512 282.214C627.427 270.299 641.75 264.342 658.482 264.342C675.214 264.342 689.537 270.299 701.452 282.214C713.366 294.129 719.324 308.452 719.324 325.184C719.324 341.915 713.366 356.239 701.452 368.153C689.537 380.068 675.214 386.026 658.482 386.026C641.75 386.026 627.427 380.068 615.512 368.153Z" fill="var(--text)"/>
</g>
<g id="search">
<path fill-rule="evenodd" clip-rule="evenodd" d="M445.482 663.645C467.613 675.223 492.084 681.012 518.896 681.012C533.634 681.012 547.87 679.169 561.603 675.485C575.337 671.8 588.233 666.273 600.292 658.904L723.893 781.501L780.167 725.227L656.565 602.631C663.935 590.572 669.629 577.676 673.648 563.942C677.668 550.209 679.678 535.638 679.678 520.23C679.678 493.418 673.889 468.947 662.311 446.816C654.796 432.45 644.842 419.071 632.448 406.677C606.557 380.786 576.363 365.54 541.866 360.939C534.41 359.945 526.753 359.447 518.896 359.447C485.231 359.447 455.257 368.573 428.971 386.826C420.733 392.546 412.857 399.164 405.343 406.677C397.83 414.191 391.212 422.067 385.492 430.305C367.24 456.59 358.113 486.565 358.113 520.23C358.113 528.087 358.611 535.744 359.605 543.2C364.206 577.697 379.452 607.891 405.343 633.782C417.737 646.176 431.116 656.13 445.482 663.645ZM518.896 600.621C541.003 600.621 559.928 592.749 575.672 577.006C591.415 561.263 599.287 542.337 599.287 520.23C599.287 498.122 591.415 479.197 575.672 463.453C559.928 447.71 541.003 439.838 518.896 439.838C496.788 439.838 477.863 447.71 462.119 463.453C446.376 479.197 438.504 498.122 438.504 520.23C438.504 542.337 446.376 561.263 462.119 577.006C477.863 592.749 496.788 600.621 518.896 600.621Z" fill="#FF4500"/>
<animateTransform
  attributeName="transform"
  type="translate"
  values="0,0; 100,-100; -100,-100; -100,100; 0,0; 0,0"
  keyTimes="0; 0.03; 0.06; 0.09; 0.12; 1"
  dur="36s"
  begin="2s"
  repeatCount="indefinite" />
</g>
</g>
</g>
<defs>
<clipPath id="clip0_3651_576">
<rect width="4385" height="983" fill="white"/>
</clipPath>
</defs>
</svg>
