<svg width="500" viewBox="0 0 4385 983" fill="none" xmlns="http://www.w3.org/2000/svg">
<g id="package_search" clip-path="url(#clip0_3635_368)">
<g id="text">
<g id="bayt">
<path d="M1105.77 433.281V3.73105H1284.85C1303.8 3.73105 1321.15 7.76438 1336.88 15.831C1352.61 23.4944 1366.32 33.9811 1378.02 47.2911C1389.71 60.1977 1398.79 74.9194 1405.24 91.4561C1411.69 107.589 1414.92 124.126 1414.92 141.066C1414.92 164.459 1409.68 186.844 1399.19 208.221C1388.7 229.194 1373.98 246.336 1355.03 259.646C1336.07 272.553 1313.89 279.006 1288.48 279.006H1160.22V433.281H1105.77ZM1160.22 230.606H1285.45C1300.37 230.606 1313.28 226.573 1324.17 218.506C1335.46 210.439 1344.14 199.549 1350.19 185.836C1356.64 172.123 1359.87 157.199 1359.87 141.066C1359.87 124.126 1356.24 109.001 1348.98 95.6911C1341.72 81.9777 1332.24 71.2894 1320.54 63.6261C1308.84 55.9627 1295.94 52.131 1281.82 52.131H1160.22V230.606Z" fill="var(--text)"/>
<path d="M2029.39 215.481C2029.39 189.264 2033.83 163.653 2042.7 138.646C2051.98 113.236 2065.29 90.2461 2082.63 69.6761C2100.38 48.7027 2121.96 32.166 2147.37 20.0661C2172.78 7.56272 2201.62 1.31105 2233.88 1.31105C2272.2 1.31105 2305.07 10.1844 2332.5 27.9311C2359.92 45.2744 2380.29 67.6594 2393.6 95.0861L2350.65 122.916C2342.18 104.766 2331.29 90.4477 2317.98 79.961C2305.07 69.0711 2290.95 61.4077 2275.63 56.9711C2260.7 52.5344 2245.98 50.3161 2231.46 50.3161C2207.67 50.3161 2186.49 55.1561 2167.94 64.8361C2149.79 74.5161 2134.46 87.4227 2121.96 103.556C2109.45 119.689 2099.98 137.839 2093.52 158.006C2087.47 177.769 2084.45 197.734 2084.45 217.901C2084.45 240.084 2088.08 261.461 2095.34 282.031C2103 302.601 2113.49 320.751 2126.8 336.481C2140.11 352.211 2155.84 364.714 2173.99 373.991C2192.14 383.268 2211.9 387.906 2233.28 387.906C2248.2 387.906 2263.53 385.284 2279.26 380.041C2294.99 374.798 2309.71 366.731 2323.42 355.841C2337.14 344.548 2348.03 330.028 2356.09 312.281L2401.47 337.086C2392.59 358.463 2378.88 376.613 2360.33 391.536C2341.77 406.459 2321 417.753 2298.01 425.416C2275.43 433.079 2253.04 436.911 2230.86 436.911C2201.41 436.911 2174.39 430.659 2149.79 418.156C2125.18 405.249 2103.81 388.309 2085.66 367.336C2067.91 345.959 2054 322.163 2043.91 295.946C2034.23 269.326 2029.39 242.504 2029.39 215.481Z" fill="var(--text)"/>
<path d="M2575.49 433.281V4.33604H2629.94V241.496L2851.37 3.73105H2910.06L2737.63 193.096L2919.74 433.281H2858.63L2703.15 225.766L2629.94 301.996V433.281H2575.49Z" fill="var(--text)"/>
<path d="M3747.82 436.306C3719.59 436.306 3693.17 430.256 3668.56 418.156C3644.36 405.653 3623.19 389.116 3605.04 368.546C3586.89 347.573 3572.77 324.179 3562.69 298.366C3552.61 272.149 3547.56 245.126 3547.56 217.296C3547.56 188.256 3552.61 160.829 3562.69 135.016C3572.77 108.799 3586.69 85.6077 3604.44 65.441C3622.59 45.2744 3643.76 29.5444 3667.96 18.251C3692.56 6.55439 3719.18 0.706055 3747.82 0.706055C3789.36 0.706055 3823.65 9.37772 3850.67 26.721C3877.69 44.0644 3898.06 66.6511 3911.78 94.4811L3870.03 123.521C3857.53 98.5144 3840.38 79.9611 3818.6 67.8611C3796.82 55.7611 3772.83 49.7111 3746.61 49.7111C3724.83 49.7111 3705.07 54.3494 3687.32 63.6261C3669.57 72.9027 3654.25 85.6077 3641.34 101.741C3628.84 117.471 3619.16 135.419 3612.3 155.586C3605.85 175.753 3602.62 196.726 3602.62 218.506C3602.62 241.496 3606.25 263.276 3613.51 283.846C3621.17 304.013 3631.86 321.961 3645.57 337.691C3659.29 353.018 3675.22 365.118 3693.37 373.991C3711.52 382.864 3731.08 387.301 3752.05 387.301C3776.66 387.301 3800.05 381.049 3822.24 368.546C3844.42 356.043 3865.39 336.884 3885.16 311.071V367.336C3846.44 413.316 3800.66 436.306 3747.82 436.306ZM3878.5 260.251H3785.94V219.111H3924.48V433.281H3878.5V260.251Z" fill="var(--text)"/>
<path d="M4404.77 384.881V433.281H4113.16V3.73105H4399.32V52.131H4167.61V191.281H4369.07V236.656H4167.61V384.881H4404.77Z" fill="var(--text)"/>
</g>
<g id="bayt_2">
<path d="M1391.93 639.155C1387.09 633.509 1380.64 628.064 1372.57 622.82C1364.5 617.577 1355.43 612.939 1345.35 608.905C1335.26 604.469 1324.17 601.04 1312.07 598.62C1300.37 595.797 1288.07 594.385 1275.17 594.385C1242.09 594.385 1217.69 600.637 1201.96 613.14C1186.23 625.644 1178.37 642.785 1178.37 664.565C1178.37 679.892 1182.4 691.992 1190.47 700.865C1198.53 709.739 1210.83 716.999 1227.37 722.645C1244.31 728.292 1265.69 734.14 1291.5 740.19C1321.35 746.644 1347.16 754.509 1368.94 763.785C1390.72 773.062 1407.46 785.565 1419.16 801.295C1430.85 816.622 1436.7 837.192 1436.7 863.005C1436.7 883.575 1432.67 901.524 1424.6 916.85C1416.94 931.774 1406.05 944.277 1391.93 954.36C1377.81 964.04 1361.28 971.3 1342.32 976.14C1323.36 980.577 1302.79 982.795 1280.61 982.795C1258.83 982.795 1237.45 980.577 1216.48 976.14C1195.91 971.3 1176.35 964.444 1157.8 955.57C1139.24 946.697 1121.9 935.605 1105.77 922.295L1131.78 876.315C1138.23 883.172 1146.5 890.029 1156.59 896.885C1167.07 903.339 1178.77 909.389 1191.68 915.035C1204.99 920.682 1219.3 925.32 1234.63 928.95C1249.96 932.177 1265.69 933.79 1281.82 933.79C1312.47 933.79 1336.27 928.345 1353.21 917.455C1370.15 906.162 1378.62 889.827 1378.62 868.45C1378.62 852.317 1373.78 839.41 1364.1 829.73C1354.82 820.05 1340.91 811.984 1322.36 805.53C1303.8 799.077 1281.22 792.624 1254.6 786.17C1225.56 778.91 1201.15 771.045 1181.39 762.575C1161.63 753.702 1146.7 742.207 1136.62 728.09C1126.94 713.974 1122.1 695.622 1122.1 673.035C1122.1 645.609 1128.76 622.417 1142.07 603.46C1155.38 584.504 1173.73 570.185 1197.12 560.505C1220.51 550.825 1246.93 545.985 1276.38 545.985C1295.74 545.985 1313.68 548.002 1330.22 552.035C1347.16 556.069 1362.89 561.715 1377.41 568.975C1391.93 576.235 1405.24 584.907 1417.34 594.99L1391.93 639.155Z" fill="var(--text)"/>
<path d="M1905.8 930.16V978.56H1614.19V549.01H1900.36V597.41H1668.64V736.56H1870.11V781.935H1668.64V930.16H1905.8Z" fill="var(--text)"/>
<path d="M2601.69 978.56V549.01H2785.61C2804.57 549.01 2821.91 553.044 2837.64 561.11C2853.37 568.774 2867.08 579.26 2878.78 592.57C2890.48 605.477 2899.55 620.199 2906.01 636.735C2912.46 652.869 2915.69 669.405 2915.69 686.345C2915.69 706.109 2911.85 724.864 2904.19 742.61C2896.93 760.357 2886.44 775.482 2872.73 787.985C2859.42 800.489 2843.69 809.16 2825.54 814L2929.6 978.56H2867.89L2769.88 824.285H2656.14V978.56H2601.69ZM2656.14 775.885H2786.22C2801.14 775.885 2814.05 771.852 2824.94 763.785C2836.23 755.315 2844.9 744.224 2850.95 730.51C2857.4 716.797 2860.63 702.075 2860.63 686.345C2860.63 670.212 2857 655.49 2849.74 642.18C2842.48 628.467 2833 617.577 2821.31 609.51C2809.61 601.444 2796.7 597.41 2782.59 597.41H2656.14V775.885Z" fill="var(--text)"/>
<path d="M3077.36 760.76C3077.36 734.544 3081.79 708.932 3090.67 683.925C3099.94 658.515 3113.25 635.525 3130.6 614.955C3148.34 593.982 3169.92 577.445 3195.33 565.345C3220.74 552.842 3249.58 546.59 3281.85 546.59C3320.16 546.59 3353.04 555.464 3380.46 573.21C3407.89 590.554 3428.26 612.939 3441.57 640.365L3398.61 668.195C3390.14 650.045 3379.25 635.727 3365.94 625.24C3353.04 614.35 3338.92 606.687 3323.59 602.25C3308.67 597.814 3293.95 595.595 3279.43 595.595C3255.63 595.595 3234.46 600.435 3215.9 610.115C3197.75 619.795 3182.43 632.702 3169.92 648.835C3157.42 664.969 3147.94 683.119 3141.49 703.285C3135.44 723.049 3132.41 743.014 3132.41 763.18C3132.41 785.364 3136.04 806.74 3143.3 827.31C3150.97 847.88 3161.45 866.03 3174.76 881.76C3188.07 897.49 3203.8 909.994 3221.95 919.27C3240.1 928.547 3259.87 933.185 3281.24 933.185C3296.17 933.185 3311.49 930.564 3327.22 925.32C3342.95 920.077 3357.67 912.01 3371.39 901.12C3385.1 889.827 3395.99 875.307 3404.06 857.56L3449.43 882.365C3440.56 903.742 3426.85 921.892 3408.29 936.815C3389.74 951.739 3368.97 963.032 3345.98 970.695C3323.39 978.359 3301.01 982.19 3278.82 982.19C3249.38 982.19 3222.36 975.939 3197.75 963.435C3173.15 950.529 3151.77 933.589 3133.62 912.615C3115.88 891.239 3101.96 867.442 3091.88 841.225C3082.2 814.605 3077.36 787.784 3077.36 760.76Z" fill="var(--text)"/>
<path d="M3968.91 549.01V978.56H3914.46V783.145H3677.9V978.56H3623.45V549.01H3677.9V734.745H3914.46V549.01H3968.91Z" fill="var(--text)"/>
</g>
<path id="a-3" fill-rule="evenodd" clip-rule="evenodd" d="M2264.42 549.615L2438.15 978.816H2379.1L2238.77 613.493L2098.45 978.816H2041.4L2215.13 549.615H2264.42Z" fill="var(--text)"/>
<path id="a-2" fill-rule="evenodd" clip-rule="evenodd" d="M3254.87 3.73047L3428.6 432.931H3369.55L3229.23 67.6078L3088.9 432.931H3031.85L3205.58 3.73047H3254.87Z" fill="var(--text)"/>
<path id="a-1" fill-rule="evenodd" clip-rule="evenodd" d="M1735.95 3.73047L1909.67 432.931H1850.63L1710.3 67.6078L1569.98 432.931H1512.93L1686.66 3.73047H1735.95Z" fill="var(--text)"/>
</g>
<g id="prod_beam_spiral_round">
<g id="dynamic">
<g id="spiral">
<path id="Vector" d="M182.201 118.921C218.565 88.7392 258.948 64.1786 302.71 45.6691C362.527 20.366 426.051 7.53599 491.497 7.53599C556.943 7.53599 620.459 20.366 680.284 45.6691C724.046 64.1786 764.429 88.7391 800.792 118.921C812.421 128.569 823.634 138.792 834.418 149.576C878.945 194.102 913.903 245.961 938.332 303.71C962.747 361.423 975.548 422.588 976.414 485.587C976.429 486.585 976.436 487.59 976.451 488.587C976.451 488.864 976.451 489.14 976.451 489.424C976.451 490.444 976.465 491.471 976.465 492.49C976.465 493.509 976.465 494.536 976.451 495.555C976.451 495.839 976.451 496.116 976.451 496.393C976.436 497.39 976.429 498.395 976.414 499.393C972.868 721.478 798.732 902.874 579.588 918.005C551.074 920.015 519.968 919.01 491.497 915.034C410.119 903.843 335.979 869.598 275.921 819.123C337.785 860.096 411.903 883.964 491.497 883.964C571.091 883.964 645.209 860.088 707.072 819.123C811.678 749.861 881.238 631.726 882.942 497.543C882.957 495.861 882.971 494.172 882.971 492.49C882.971 490.808 882.957 489.119 882.942 487.437C882.301 428.493 870.425 371.304 847.612 317.363C824.952 263.786 792.513 215.67 751.198 174.355C709.883 133.04 661.774 100.601 608.19 77.9407C598.753 73.9504 589.214 70.2951 579.581 66.9674C550.957 57.101 521.526 50.1982 491.49 46.3172C472.245 43.8269 452.745 42.5745 433.063 42.5745C372.328 42.5745 313.414 54.4725 257.936 77.9334C231.279 89.2051 205.983 102.894 182.194 118.899L182.201 118.921Z" fill="#FF4500"/>
<path id="Vector_2" d="M6.53404 492.505C6.53404 491.485 6.53404 490.458 6.5486 489.439C6.5486 489.155 6.5486 488.878 6.5486 488.602C6.56316 487.604 6.57044 486.599 6.58501 485.602C6.59957 484.859 6.61413 484.116 6.6287 483.374C6.6287 483.221 6.6287 483.06 6.64326 482.915C6.65782 482.471 6.6651 482.027 6.67967 481.575C6.69423 481.138 6.70151 480.694 6.71607 480.25C6.75976 478.684 6.81073 477.126 6.87627 475.561C6.91267 474.694 6.94908 473.828 6.98549 472.968C7.00733 472.349 7.03646 471.73 7.07287 471.112C7.23306 467.871 7.42966 464.646 7.66266 461.427C7.69907 460.881 7.73548 460.328 7.78645 459.782C7.8447 459.01 7.90295 458.245 7.96849 457.473C8.01218 456.942 8.05586 456.403 8.09955 455.871C8.22334 454.437 8.34712 453.003 8.49275 451.568C8.68207 449.515 8.89323 447.469 9.12624 445.423C9.48303 442.197 9.87623 438.993 10.2986 435.789C10.3641 435.316 10.4296 434.843 10.4879 434.377C13.0218 415.867 16.7427 397.736 21.5849 380.057C21.8033 379.248 22.029 378.447 22.2548 377.646C22.4805 376.838 22.7062 376.037 22.9319 375.236C23.3834 373.685 23.8348 372.127 24.3008 370.576C25.5023 366.542 26.7693 362.523 28.0945 358.54C28.5969 357.033 29.0993 355.54 29.6163 354.033C30.4537 351.608 31.3056 349.198 32.1794 346.795C32.9367 344.712 33.7085 342.644 34.5022 340.584C34.859 339.652 35.2231 338.72 35.5799 337.788C35.8274 337.154 36.075 336.521 36.3299 335.88C36.9925 334.22 37.6551 332.567 38.3323 330.921C39.2643 328.642 40.2182 326.378 41.1939 324.12C41.8419 322.62 42.4973 321.12 43.1672 319.613C43.5021 318.863 43.8298 318.12 44.172 317.37C44.5142 316.62 44.8492 315.878 45.1914 315.135C45.5336 314.392 45.8759 313.65 46.2181 312.907C46.9098 311.421 47.6089 309.943 48.3152 308.472C49.3783 306.266 50.4559 304.06 51.5554 301.868C51.9268 301.14 52.2909 300.405 52.6622 299.684C53.769 297.506 54.8976 295.329 56.0481 293.167C56.4267 292.446 56.8127 291.725 57.1986 291.011C57.4971 290.458 57.7957 289.905 58.0942 289.351C59.9 286.031 61.7495 282.74 63.6427 279.485C63.9849 278.888 64.3271 278.298 64.6767 277.708C66.0237 275.407 67.3926 273.114 68.7834 270.834C69.0965 270.325 69.4096 269.815 69.7227 269.305C71.4848 266.451 73.2761 263.619 75.0965 260.808C75.4969 260.203 75.8901 259.585 76.2906 258.98C76.6037 258.492 76.9241 258.012 77.2518 257.524C77.6595 256.912 78.0673 256.293 78.4823 255.674C79.8804 253.592 81.293 251.524 82.7274 249.471C83.1862 248.808 83.6595 248.138 84.1255 247.475C85.0575 246.15 85.9968 244.832 86.9507 243.514C87.424 242.852 87.9046 242.196 88.3779 241.548C89.8123 239.582 91.2613 237.631 92.7322 235.694C93.2201 235.046 93.7152 234.405 94.2031 233.757C95.6739 231.828 97.1739 229.912 98.6812 228.005C99.1836 227.371 99.686 226.738 100.196 226.104C100.647 225.536 101.099 224.976 101.557 224.415C102.118 223.723 102.686 223.024 103.261 222.332C103.727 221.757 104.193 221.197 104.667 220.629C105.227 219.951 105.788 219.274 106.363 218.604C106.88 217.985 107.404 217.367 107.929 216.748C108.446 216.136 108.977 215.517 109.509 214.898C110.557 213.668 111.62 212.451 112.691 211.235C113.222 210.631 113.761 210.019 114.3 209.415C115.909 207.602 117.54 205.804 119.186 204.02C119.732 203.423 120.278 202.825 120.831 202.236C121.931 201.049 123.038 199.869 124.159 198.704C124.712 198.122 125.273 197.539 125.834 196.949C126.394 196.367 126.955 195.784 127.523 195.202C128.084 194.626 128.652 194.044 129.22 193.469C130.334 192.333 131.455 191.204 132.584 190.083C133.181 189.493 133.771 188.903 134.375 188.321C134.95 187.753 135.533 187.185 136.108 186.624C137.273 185.495 138.431 184.374 139.61 183.267C140.193 182.707 140.783 182.153 141.372 181.6C149.353 174.1 157.625 166.913 166.159 160.054C166.792 159.537 167.426 159.035 168.066 158.532C172.239 155.212 176.477 151.972 180.773 148.811C181.246 148.462 181.726 148.112 182.207 147.763C182.68 147.413 183.154 147.071 183.634 146.729C184.18 146.328 184.734 145.935 185.28 145.535C187.086 144.246 188.906 142.964 190.734 141.697C191.302 141.304 191.87 140.911 192.438 140.525C193.544 139.76 194.673 139.003 195.794 138.246C196.428 137.816 197.054 137.401 197.695 136.979C198.066 136.731 198.445 136.484 198.823 136.229C199.399 135.858 199.959 135.479 200.535 135.108C201.212 134.663 201.896 134.219 202.581 133.782C204.656 132.443 206.738 131.125 208.835 129.821C209.498 129.414 210.161 128.998 210.831 128.591C211.966 127.899 213.11 127.2 214.253 126.515C214.945 126.093 215.658 125.671 216.357 125.256C221.279 122.343 226.26 119.518 231.306 116.802C231.823 116.518 232.347 116.234 232.872 115.957C234.015 115.346 235.173 114.734 236.323 114.137C237.044 113.758 237.772 113.38 238.5 113.008C242.126 111.137 245.789 109.324 249.473 107.555C250.209 107.205 250.952 106.848 251.687 106.506C252.43 106.156 253.172 105.814 253.915 105.465C254.607 105.144 255.291 104.824 255.983 104.504C258.422 103.382 260.883 102.283 263.352 101.212C263.942 100.95 264.539 100.695 265.129 100.441C268.143 99.1444 271.179 97.8846 274.223 96.6541C274.98 96.341 275.745 96.0424 276.517 95.7366C280.944 93.9818 285.407 92.2998 289.907 90.6979C290.687 90.4139 291.466 90.1445 292.252 89.8678C292.886 89.642 293.512 89.4236 294.145 89.2051C295.077 88.8848 296.017 88.5644 296.956 88.244C297.546 88.0474 298.136 87.8435 298.725 87.6469C299.068 87.5377 299.417 87.4212 299.759 87.3047C301.07 86.8751 302.381 86.4455 303.706 86.0304C308.949 84.3557 314.228 82.7829 319.558 81.312C320.104 81.1591 320.65 81.0062 321.196 80.8606C324.298 80.0159 327.422 79.2004 330.56 78.4286C331.033 78.3048 331.514 78.1882 331.994 78.079C332.431 77.9698 332.868 77.8606 333.312 77.7587C334.841 77.3873 336.371 77.0305 337.914 76.681C346.186 74.7878 354.56 73.1349 363.014 71.7296C363.814 71.5985 364.608 71.4674 365.409 71.3363C365.729 71.2854 366.057 71.2344 366.378 71.1835C367.31 71.0306 368.256 70.8849 369.195 70.7466C369.982 70.6301 370.776 70.5136 371.569 70.3971C372.822 70.2151 374.074 70.0403 375.334 69.8729C384.61 68.6132 393.982 67.6447 403.448 66.9893C413.248 66.3194 423.137 65.9699 433.105 65.9699C452.925 65.9699 472.425 67.3316 491.532 69.9602C572.91 81.1519 647.05 115.397 707.107 165.872C645.244 124.899 571.126 101.03 491.532 101.03C411.938 101.03 337.82 124.906 275.956 165.872C171.35 235.133 101.79 353.268 100.087 487.451C100.072 489.133 100.057 490.823 100.057 492.505C100.057 494.187 100.072 495.876 100.087 497.558C100.727 556.502 112.603 613.69 135.416 667.631C158.076 721.209 190.515 769.325 231.83 810.64C273.146 851.955 321.254 884.394 374.839 907.054C384.275 911.044 393.814 914.699 403.448 918.027C507.216 954.034 624.39 949.978 725.093 907.054C751.75 895.782 777.046 882.093 800.834 866.088C764.471 896.27 724.088 920.83 680.326 939.34C620.465 964.636 556.949 977.466 491.495 977.466C426.042 977.466 362.533 964.636 302.708 939.333C258.947 920.823 218.564 896.263 182.2 866.081C170.571 856.433 159.358 846.21 148.574 835.426C104.048 790.9 69.0893 739.041 44.6599 681.292C19.8664 622.661 7.05102 560.47 6.5486 496.407C6.5486 496.131 6.5486 495.854 6.5486 495.57C6.5486 494.551 6.53404 493.524 6.53404 492.505Z" fill="var(--text)"/>
</g>
</g>
<g id="Exclude">
<path fill-rule="evenodd" clip-rule="evenodd" d="M324.184 781.498C290.721 781.498 262.074 769.583 238.244 745.754C214.415 721.924 202.5 693.277 202.5 659.814C202.5 626.351 214.415 597.705 238.244 573.875C262.074 550.045 290.721 538.13 324.184 538.13C336.785 538.13 348.703 539.82 359.938 543.199C364.539 577.696 379.785 607.891 405.676 633.781C418.07 646.175 431.449 656.129 445.815 663.645C444.936 695.468 433.038 722.838 410.123 745.754C386.293 769.583 357.647 781.498 324.184 781.498ZM662.644 446.815C694.468 445.936 721.838 434.039 744.753 411.123C768.583 387.293 780.498 358.647 780.498 325.184C780.498 291.721 768.583 263.074 744.753 239.245C720.924 215.415 692.277 203.5 658.814 203.5C625.351 203.5 596.705 215.415 572.875 239.245C549.045 263.074 537.13 291.721 537.13 325.184C537.13 337.785 538.82 349.703 542.199 360.938C576.696 365.539 606.89 380.786 632.781 406.676C645.175 419.07 655.129 432.449 662.644 446.815ZM429.304 386.825C440.346 368.51 445.867 347.963 445.867 325.184C445.867 291.721 433.953 263.074 410.123 239.245C386.293 215.415 357.647 203.5 324.184 203.5C290.721 203.5 262.074 215.415 238.244 239.245C214.415 263.074 202.5 291.721 202.5 325.184C202.5 358.647 214.415 387.293 238.244 411.123C262.074 434.953 290.721 446.868 324.184 446.868C346.963 446.868 367.51 441.346 385.825 430.304C391.545 422.066 398.163 414.19 405.676 406.676C413.19 399.163 421.066 392.546 429.304 386.825ZM324.184 720.656C340.915 720.656 355.238 714.699 367.153 702.784C379.068 690.869 385.025 676.546 385.025 659.814C385.025 643.083 379.068 628.76 367.153 616.845C355.238 604.93 340.915 598.972 324.184 598.972C307.452 598.972 293.129 604.93 281.214 616.845C269.299 628.76 263.342 643.083 263.342 659.814C263.342 676.546 269.299 690.869 281.214 702.784C293.129 714.699 307.452 720.656 324.184 720.656ZM324.184 386.026C340.915 386.026 355.238 380.068 367.153 368.153C379.068 356.239 385.025 341.915 385.025 325.184C385.025 308.452 379.068 294.129 367.153 282.214C355.238 270.299 340.915 264.342 324.184 264.342C307.452 264.342 293.129 270.299 281.214 282.214C269.299 294.129 263.342 308.452 263.342 325.184C263.342 341.915 269.299 356.239 281.214 368.153C293.129 380.068 307.452 386.026 324.184 386.026ZM658.814 386.026C675.546 386.026 689.869 380.068 701.784 368.153C713.699 356.239 719.656 341.915 719.656 325.184C719.656 308.452 713.699 294.129 701.784 282.214C689.869 270.299 675.546 264.342 658.814 264.342C642.083 264.342 627.759 270.299 615.844 282.214C603.93 294.129 597.972 308.452 597.972 325.184C597.972 341.915 603.93 356.239 615.844 368.153C627.759 380.068 642.083 386.026 658.814 386.026Z" fill="var(--text)"/>
<path fill-rule="evenodd" clip-rule="evenodd" d="M445.815 663.645C467.946 675.222 492.417 681.011 519.229 681.011C533.967 681.011 548.203 679.169 561.936 675.484C575.67 671.8 588.566 666.273 600.625 658.904L724.226 781.5L780.5 725.226L656.898 602.63C664.268 590.571 669.962 577.675 673.981 563.941C678.001 550.208 680.011 535.637 680.011 520.229C680.011 493.417 674.222 468.946 662.644 446.815C655.129 432.449 645.175 419.07 632.781 406.676C606.89 380.786 576.696 365.539 542.199 360.938C534.743 359.944 527.086 359.447 519.229 359.447C485.564 359.447 455.589 368.573 429.304 386.825C421.066 392.546 413.19 399.163 405.676 406.676C398.163 414.19 391.545 422.066 385.825 430.304C367.572 456.59 358.446 486.565 358.446 520.229C358.446 528.087 358.944 535.743 359.938 543.199C364.539 577.696 379.785 607.891 405.676 633.781C418.07 646.175 431.449 656.129 445.815 663.645ZM519.229 600.62C541.336 600.62 560.261 592.748 576.005 577.005C591.748 561.262 599.62 542.336 599.62 520.229C599.62 498.121 591.748 479.196 576.005 463.453C560.261 447.709 541.336 439.838 519.229 439.838C497.121 439.838 478.196 447.709 462.452 463.453C446.709 479.196 438.837 498.121 438.837 520.229C438.837 542.336 446.709 561.262 462.452 577.005C478.196 592.748 497.121 600.62 519.229 600.62Z" fill="#FF4500"/>
</g>
</g>
</g>
<defs>
<clipPath id="clip0_3635_368">
<rect width="4385" height="983" fill="white"/>
</clipPath>
</defs>
</svg>
