<svg width="1601" height="401" viewBox="0 0 1601 401" fill="none" xmlns="http://www.w3.org/2000/svg">
<g clip-path="url(#clip0_1408_31)">
<rect width="1601" height="401" fill="black"/>
<path d="M438.26 462.394L438.305 462.412L438.351 462.431C450.776 467.313 464.631 467.06 476.87 461.728C489.109 456.396 498.729 446.421 503.614 433.997L503.632 433.951L503.649 433.905C507.17 424.708 507.895 414.675 505.733 405.066C503.572 395.458 498.62 386.702 491.5 379.898C484.38 373.094 475.409 368.544 465.713 366.82C456.016 365.097 446.027 366.276 436.998 370.209C427.969 374.143 420.303 380.656 414.963 388.931C409.623 397.206 406.845 406.874 406.98 416.721C407.115 426.569 410.156 436.157 415.721 444.283C421.285 452.408 429.127 458.709 438.26 462.394ZM26.9832 304.907L27.0289 304.926L27.0748 304.944C39.4997 309.826 53.3551 309.573 65.5937 304.241C77.8324 298.909 87.4521 288.934 92.3371 276.511L92.3551 276.465L92.3728 276.419C95.8931 267.221 96.6181 257.188 94.4567 247.58C92.2953 237.971 87.3439 229.216 80.2239 222.411C73.1039 215.607 64.1326 211.057 54.4362 209.334C44.7397 207.61 34.7501 208.789 25.7213 212.723C16.6925 216.656 9.02682 223.169 3.68646 231.444C-1.65389 239.719 -4.43098 249.387 -4.29619 259.235C-4.16138 269.082 -1.12069 278.671 4.44417 286.796C10.009 294.922 17.8501 301.222 26.9832 304.907ZM533.205 228.82L524.351 235.89L531.805 244.423C581.53 301.341 616.142 369.851 632.457 443.649C647.922 513.606 646.474 586.185 628.309 655.373L-242.982 321.737C-210.292 258.109 -162.895 203.124 -104.659 161.388C-43.2263 117.36 28.2932 89.4916 103.318 80.3463L114.569 78.975L112.698 67.7967L86.7653 -87.1635C86.7649 -87.166 86.7644 -87.1684 86.764 -87.1709C86.6507 -87.8627 86.6762 -88.57 86.8389 -89.2518C87.0022 -89.9361 87.3004 -90.5808 87.7162 -91.1484C88.132 -91.7158 88.6569 -92.1946 89.2601 -92.5565C89.8633 -92.9185 90.5328 -93.1564 91.2292 -93.2562L91.2878 -93.2646L91.3463 -93.2737C92.867 -93.5087 94.4192 -93.139 95.6707 -92.2437C96.9113 -91.3562 97.7586 -90.0222 98.0349 -88.5231L124.259 68.3536L125.848 77.8617L135.477 77.3936C204.403 74.0426 273.273 85.055 337.717 109.732C402.162 134.409 460.773 172.212 509.833 220.742L516.686 227.522L524.22 221.507L648.508 122.264C648.519 122.255 648.53 122.246 648.541 122.238C649.748 121.308 651.269 120.881 652.784 121.049C654.314 121.219 655.716 121.98 656.69 123.171L656.724 123.211L656.757 123.252C657.208 123.792 657.547 124.416 657.753 125.088C657.959 125.76 658.029 126.467 657.959 127.167C657.889 127.867 657.68 128.545 657.344 129.163C657.008 129.781 656.552 130.325 656.003 130.765L533.205 228.82Z" stroke="#FF4500" stroke-width="21.6801"/>
<path d="M581.23 193.857C581.23 198.294 580.1 202.166 577.842 205.473C575.583 208.78 572.518 211.362 568.646 213.217C564.854 215.072 560.66 216 556.062 216H515.285V130.09H557.998C562.031 130.09 565.5 131.179 568.404 133.357C571.388 135.454 573.647 138.197 575.18 141.585C576.793 144.892 577.6 148.361 577.6 151.991C577.6 156.186 576.511 160.138 574.333 163.849C572.235 167.479 569.21 170.181 565.258 171.956C570.178 173.408 574.05 176.11 576.874 180.063C579.778 183.935 581.23 188.533 581.23 193.857ZM570.219 191.921C570.219 189.259 569.614 186.799 568.404 184.54C567.274 182.281 565.701 180.466 563.685 179.095C561.749 177.724 559.49 177.038 556.909 177.038H526.175V206.562H556.062C558.724 206.562 561.103 205.876 563.201 204.505C565.379 203.134 567.073 201.359 568.283 199.181C569.573 196.922 570.219 194.502 570.219 191.921ZM526.175 139.528V168.205H553.521C556.102 168.205 558.361 167.56 560.297 166.269C562.313 164.978 563.886 163.244 565.016 161.066C566.226 158.888 566.831 156.508 566.831 153.927C566.831 151.184 566.266 148.764 565.137 146.667C564.088 144.489 562.596 142.755 560.66 141.464C558.804 140.173 556.667 139.528 554.247 139.528H526.175ZM642.002 130.09H651.198L686.288 216H674.672L664.508 190.832H628.45L618.407 216H606.791L642.002 130.09ZM662.088 182.362L646.6 142.674L630.628 182.362H662.088ZM712.742 130.09L738.757 174.86L765.014 130.09H776.872L744.202 184.661V216H733.312V184.419L700.763 130.09H712.742ZM871.89 139.77H842.245V216H831.355V139.77H801.71V130.09H871.89V139.77Z" fill="white"/>
<path d="M1024.17 150.176V216H1013.28V130.09H1022.48L1074.99 197.245V130.211H1085.88V216H1075.96L1024.17 150.176Z" fill="white"/>
<path fill-rule="evenodd" clip-rule="evenodd" d="M975.917 193.777C977.161 191.106 978.037 188.317 978.529 185.473C979.047 182.48 976.537 180 973.5 180V180C970.462 180 968.062 182.496 967.345 185.448C966.971 186.984 966.44 188.491 965.754 189.95C964.272 193.104 962.099 195.97 959.359 198.385C956.62 200.799 953.368 202.714 949.789 204.021C946.21 205.327 942.374 206 938.5 206C934.626 206 930.79 205.327 927.211 204.021C923.631 202.714 920.379 200.799 917.64 198.385C914.901 195.97 912.728 193.104 911.245 189.95C910.56 188.491 910.028 186.984 909.654 185.448C908.937 182.496 906.537 180 903.5 180V180C900.462 180 897.953 182.48 898.47 185.473C898.963 188.317 899.838 191.106 901.083 193.777C903.118 198.144 906.101 202.113 909.862 205.456C913.623 208.799 918.087 211.45 923.001 213.26C927.915 215.069 933.181 216 938.5 216C943.818 216 949.085 215.069 953.998 213.26C958.912 211.45 963.377 208.799 967.137 205.456C970.898 202.113 973.881 198.144 975.917 193.777Z" fill="white"/>
<rect width="3" height="16.5707" rx="1.5" transform="matrix(-0.866025 -0.5 -0.5 0.866025 965.883 128.5)" fill="#FF4500"/>
<rect x="911" y="128.5" width="3" height="16.5707" rx="1.5" transform="rotate(-30 911 128.5)" fill="#FF4500"/>
<path fill-rule="evenodd" clip-rule="evenodd" d="M975.917 159.223C977.161 161.894 978.037 164.683 978.529 167.527C979.047 170.52 976.537 173 973.5 173V173C970.462 173 968.062 170.504 967.345 167.552C966.971 166.016 966.44 164.509 965.754 163.05C964.272 159.896 962.099 157.03 959.359 154.615C956.62 152.201 953.368 150.286 949.789 148.979C946.21 147.673 942.374 147 938.5 147C934.626 147 930.79 147.673 927.211 148.979C923.631 150.286 920.379 152.201 917.64 154.615C914.901 157.03 912.728 159.896 911.245 163.05C910.56 164.509 910.028 166.016 909.654 167.552C908.937 170.504 906.537 173 903.5 173V173C900.462 173 897.953 170.52 898.47 167.527C898.963 164.683 899.838 161.894 901.083 159.223C903.118 154.856 906.101 150.887 909.862 147.544C913.623 144.201 918.087 141.55 923.001 139.74C927.915 137.931 933.181 137 938.5 137C943.818 137 949.085 137.931 953.998 139.74C958.912 141.55 963.377 144.201 967.137 147.544C970.898 150.887 973.881 154.856 975.917 159.223Z" fill="#FF4500"/>
<path fill-rule="evenodd" clip-rule="evenodd" d="M924.909 164.318C921.646 164.318 919 166.964 919 170.227V183.818C919 187.082 921.646 189.727 924.909 189.727H939.091H952.091C955.354 189.727 958 187.082 958 183.818V170.227C958 166.964 955.354 164.318 952.091 164.318H924.909ZM938.5 181.159C940.784 181.159 942.636 179.307 942.636 177.023C942.636 174.738 940.784 172.886 938.5 172.886C936.215 172.886 934.363 174.738 934.363 177.023C934.363 179.307 936.215 181.159 938.5 181.159Z" fill="white"/>
<rect x="933.385" y="160.385" width="9.93455" height="8.16182" rx="1.865" stroke="white" stroke-width="2.77"/>
<path d="M439.072 271.804C438.784 271.468 438.4 271.144 437.92 270.832C437.44 270.52 436.9 270.244 436.3 270.004C435.7 269.74 435.04 269.536 434.32 269.392C433.624 269.224 432.892 269.14 432.124 269.14C430.156 269.14 428.704 269.512 427.768 270.256C426.832 271 426.364 272.02 426.364 273.316C426.364 274.228 426.604 274.948 427.084 275.476C427.564 276.004 428.296 276.436 429.28 276.772C430.288 277.108 431.56 277.456 433.096 277.816C434.872 278.2 436.408 278.668 437.704 279.22C439 279.772 439.996 280.516 440.692 281.452C441.388 282.364 441.736 283.588 441.736 285.124C441.736 286.348 441.496 287.416 441.016 288.328C440.56 289.216 439.912 289.96 439.072 290.56C438.232 291.136 437.248 291.568 436.12 291.856C434.992 292.12 433.768 292.252 432.448 292.252C431.152 292.252 429.88 292.12 428.632 291.856C427.408 291.568 426.244 291.16 425.14 290.632C424.036 290.104 423.004 289.444 422.044 288.652L423.592 285.916C423.976 286.324 424.468 286.732 425.068 287.14C425.692 287.524 426.388 287.884 427.156 288.22C427.948 288.556 428.8 288.832 429.712 289.048C430.624 289.24 431.56 289.336 432.52 289.336C434.344 289.336 435.76 289.012 436.768 288.364C437.776 287.692 438.28 286.72 438.28 285.448C438.28 284.488 437.992 283.72 437.416 283.144C436.864 282.568 436.036 282.088 434.932 281.704C433.828 281.32 432.484 280.936 430.9 280.552C429.172 280.12 427.72 279.652 426.544 279.148C425.368 278.62 424.48 277.936 423.88 277.096C423.304 276.256 423.016 275.164 423.016 273.82C423.016 272.188 423.412 270.808 424.204 269.68C424.996 268.552 426.088 267.7 427.48 267.124C428.872 266.548 430.444 266.26 432.196 266.26C433.348 266.26 434.416 266.38 435.4 266.62C436.408 266.86 437.344 267.196 438.208 267.628C439.072 268.06 439.864 268.576 440.584 269.176L439.072 271.804ZM446.934 292V273.208H450.102V292H446.934ZM446.934 269.68V265.72H450.102V269.68H446.934ZM485.002 292H481.834V281.488C481.834 279.52 481.51 278.068 480.862 277.132C480.238 276.196 479.302 275.728 478.054 275.728C476.782 275.728 475.63 276.196 474.598 277.132C473.566 278.044 472.834 279.232 472.402 280.696V292H469.234V281.488C469.234 279.496 468.922 278.044 468.298 277.132C467.674 276.196 466.738 275.728 465.49 275.728C464.242 275.728 463.09 276.184 462.034 277.096C461.002 277.984 460.27 279.172 459.838 280.66V292H456.67V273.208H459.55V277.24C460.318 275.848 461.314 274.78 462.538 274.036C463.762 273.268 465.142 272.884 466.678 272.884C468.238 272.884 469.486 273.316 470.422 274.18C471.358 275.02 471.934 276.112 472.15 277.456C472.99 275.968 474.01 274.84 475.21 274.072C476.41 273.28 477.778 272.884 479.314 272.884C480.394 272.884 481.294 273.088 482.014 273.496C482.758 273.88 483.346 274.432 483.778 275.152C484.21 275.848 484.522 276.676 484.714 277.636C484.906 278.596 485.002 279.64 485.002 280.768V292ZM501.484 292.36C499.948 292.36 498.58 291.976 497.38 291.208C496.18 290.44 495.232 289.468 494.536 288.292V299.668H491.368V273.208H494.176V276.736C494.92 275.584 495.892 274.66 497.092 273.964C498.292 273.244 499.6 272.884 501.016 272.884C502.312 272.884 503.5 273.148 504.58 273.676C505.66 274.204 506.596 274.924 507.388 275.836C508.18 276.748 508.792 277.792 509.224 278.968C509.68 280.12 509.908 281.332 509.908 282.604C509.908 284.38 509.548 286.012 508.828 287.5C508.132 288.988 507.148 290.176 505.876 291.064C504.604 291.928 503.14 292.36 501.484 292.36ZM500.512 289.624C501.448 289.624 502.288 289.432 503.032 289.048C503.8 288.64 504.448 288.112 504.976 287.464C505.528 286.792 505.948 286.036 506.236 285.196C506.524 284.356 506.668 283.492 506.668 282.604C506.668 281.668 506.5 280.78 506.164 279.94C505.852 279.1 505.396 278.356 504.796 277.708C504.22 277.06 503.536 276.556 502.744 276.196C501.976 275.812 501.136 275.62 500.224 275.62C499.648 275.62 499.048 275.728 498.424 275.944C497.824 276.16 497.248 276.472 496.696 276.88C496.144 277.264 495.676 277.708 495.292 278.212C494.908 278.716 494.656 279.256 494.536 279.832V285.196C494.896 286.012 495.376 286.756 495.976 287.428C496.576 288.1 497.272 288.64 498.064 289.048C498.856 289.432 499.672 289.624 500.512 289.624ZM515.31 265.72H518.478V287.14C518.478 288.172 518.622 288.808 518.91 289.048C519.198 289.288 519.546 289.408 519.954 289.408C520.458 289.408 520.938 289.36 521.394 289.264C521.85 289.144 522.234 289.024 522.546 288.904L523.05 291.496C522.522 291.712 521.898 291.892 521.178 292.036C520.458 292.18 519.822 292.252 519.27 292.252C518.046 292.252 517.074 291.904 516.354 291.208C515.658 290.512 515.31 289.54 515.31 288.292V265.72ZM526.979 292V273.208H530.147V292H526.979ZM526.979 269.68V265.72H530.147V269.68H526.979ZM537.724 292V275.692H535.168V273.208H537.724V272.812C537.724 271.276 537.952 269.956 538.408 268.852C538.888 267.724 539.56 266.86 540.424 266.26C541.288 265.66 542.308 265.36 543.484 265.36C544.228 265.36 544.96 265.468 545.68 265.684C546.4 265.876 547.048 266.152 547.624 266.512L546.832 268.852C546.496 268.612 546.076 268.42 545.572 268.276C545.092 268.132 544.612 268.06 544.132 268.06C543.1 268.06 542.296 268.468 541.72 269.284C541.168 270.076 540.892 271.216 540.892 272.704V273.208H545.896V275.692H540.892V292H537.724ZM551.359 297.112C551.671 297.136 551.983 297.16 552.295 297.184C552.607 297.232 552.847 297.256 553.015 297.256C553.399 297.256 553.735 297.124 554.023 296.86C554.311 296.596 554.623 296.08 554.959 295.312C555.319 294.568 555.775 293.464 556.327 292L548.371 273.208H551.719L558.055 288.796L563.779 273.208H566.911L557.767 296.932C557.551 297.484 557.227 298 556.795 298.48C556.387 298.984 555.859 299.38 555.211 299.668C554.563 299.956 553.783 300.1 552.871 300.1C552.655 300.1 552.427 300.088 552.187 300.064C551.971 300.04 551.695 299.992 551.359 299.92V297.112ZM571.553 292V273.208H574.721V292H571.553ZM571.553 269.68V265.72H574.721V269.68H571.553ZM597.597 292H594.429V281.488C594.429 279.496 594.117 278.044 593.493 277.132C592.893 276.196 591.969 275.728 590.721 275.728C589.857 275.728 588.993 275.944 588.129 276.376C587.289 276.808 586.533 277.396 585.861 278.14C585.213 278.86 584.745 279.7 584.457 280.66V292H581.289V273.208H584.169V277.24C584.673 276.352 585.321 275.584 586.113 274.936C586.905 274.288 587.805 273.784 588.813 273.424C589.821 273.064 590.877 272.884 591.981 272.884C593.061 272.884 593.961 273.088 594.681 273.496C595.425 273.88 596.001 274.432 596.409 275.152C596.841 275.848 597.141 276.676 597.309 277.636C597.501 278.596 597.597 279.64 597.597 280.768V292ZM611.452 292.216C610.18 292.216 609.004 291.964 607.924 291.46C606.868 290.932 605.956 290.224 605.188 289.336C604.42 288.424 603.82 287.392 603.388 286.24C602.98 285.088 602.776 283.888 602.776 282.64C602.776 281.32 602.98 280.072 603.388 278.896C603.82 277.72 604.42 276.688 605.188 275.8C605.98 274.888 606.904 274.18 607.96 273.676C609.016 273.148 610.192 272.884 611.488 272.884C613.048 272.884 614.404 273.268 615.556 274.036C616.732 274.804 617.716 275.776 618.508 276.952V273.208H621.316V291.784C621.316 293.56 620.884 295.06 620.02 296.284C619.18 297.508 618.028 298.432 616.564 299.056C615.124 299.704 613.516 300.028 611.74 300.028C609.628 300.028 607.9 299.656 606.556 298.912C605.212 298.168 604.096 297.16 603.208 295.888L605.044 294.268C605.788 295.372 606.748 296.2 607.924 296.752C609.124 297.304 610.396 297.58 611.74 297.58C612.892 297.58 613.948 297.364 614.908 296.932C615.892 296.524 616.672 295.888 617.248 295.024C617.848 294.16 618.148 293.08 618.148 291.784V288.472C617.452 289.624 616.492 290.536 615.268 291.208C614.068 291.88 612.796 292.216 611.452 292.216ZM612.424 289.624C613.096 289.624 613.744 289.504 614.368 289.264C614.992 289.024 615.568 288.712 616.096 288.328C616.624 287.92 617.068 287.464 617.428 286.96C617.788 286.456 618.028 285.94 618.148 285.412V280.012C617.812 279.148 617.332 278.392 616.708 277.744C616.084 277.072 615.376 276.556 614.584 276.196C613.792 275.812 612.976 275.62 612.136 275.62C611.176 275.62 610.312 275.824 609.544 276.232C608.8 276.64 608.164 277.192 607.636 277.888C607.108 278.56 606.7 279.316 606.412 280.156C606.124 280.996 605.98 281.848 605.98 282.712C605.98 283.648 606.148 284.536 606.484 285.376C606.82 286.192 607.276 286.924 607.852 287.572C608.428 288.22 609.112 288.724 609.904 289.084C610.696 289.444 611.536 289.624 612.424 289.624ZM666.746 292H663.578V281.488C663.578 279.52 663.254 278.068 662.606 277.132C661.982 276.196 661.046 275.728 659.798 275.728C658.526 275.728 657.374 276.196 656.342 277.132C655.31 278.044 654.578 279.232 654.146 280.696V292H650.978V281.488C650.978 279.496 650.666 278.044 650.042 277.132C649.418 276.196 648.482 275.728 647.234 275.728C645.986 275.728 644.834 276.184 643.778 277.096C642.746 277.984 642.014 279.172 641.582 280.66V292H638.414V273.208H641.294V277.24C642.062 275.848 643.058 274.78 644.282 274.036C645.506 273.268 646.886 272.884 648.422 272.884C649.982 272.884 651.23 273.316 652.166 274.18C653.102 275.02 653.678 276.112 653.894 277.456C654.734 275.968 655.754 274.84 656.954 274.072C658.154 273.28 659.522 272.884 661.058 272.884C662.138 272.884 663.038 273.088 663.758 273.496C664.502 273.88 665.09 274.432 665.522 275.152C665.954 275.848 666.266 276.676 666.458 277.636C666.65 278.596 666.746 279.64 666.746 280.768V292ZM681.32 292.36C679.904 292.36 678.62 292.108 677.468 291.604C676.316 291.076 675.32 290.368 674.48 289.48C673.64 288.568 672.992 287.524 672.536 286.348C672.08 285.172 671.852 283.936 671.852 282.64C671.852 281.32 672.08 280.072 672.536 278.896C672.992 277.72 673.64 276.688 674.48 275.8C675.32 274.888 676.316 274.18 677.468 273.676C678.644 273.148 679.928 272.884 681.32 272.884C682.736 272.884 684.02 273.148 685.172 273.676C686.324 274.18 687.32 274.888 688.16 275.8C689.024 276.688 689.684 277.72 690.14 278.896C690.596 280.072 690.824 281.32 690.824 282.64C690.824 283.936 690.596 285.172 690.14 286.348C689.684 287.524 689.036 288.568 688.196 289.48C687.356 290.368 686.348 291.076 685.172 291.604C684.02 292.108 682.736 292.36 681.32 292.36ZM675.092 282.676C675.092 283.972 675.368 285.148 675.92 286.204C676.496 287.26 677.252 288.1 678.188 288.724C679.124 289.324 680.168 289.624 681.32 289.624C682.472 289.624 683.516 289.312 684.452 288.688C685.412 288.064 686.168 287.224 686.72 286.168C687.296 285.088 687.584 283.9 687.584 282.604C687.584 281.308 687.296 280.132 686.72 279.076C686.168 278.02 685.412 277.18 684.452 276.556C683.516 275.932 682.472 275.62 681.32 275.62C680.168 275.62 679.124 275.944 678.188 276.592C677.252 277.216 676.496 278.056 675.92 279.112C675.368 280.168 675.092 281.356 675.092 282.676ZM694.879 282.64C694.879 280.864 695.239 279.244 695.959 277.78C696.703 276.292 697.711 275.104 698.983 274.216C700.279 273.328 701.755 272.884 703.411 272.884C704.923 272.884 706.279 273.28 707.479 274.072C708.679 274.864 709.615 275.824 710.287 276.952V265.72H713.455V288.4C713.455 288.784 713.527 289.072 713.671 289.264C713.839 289.432 714.103 289.528 714.463 289.552V292C713.863 292.096 713.395 292.144 713.059 292.144C712.435 292.144 711.883 291.928 711.403 291.496C710.947 291.064 710.719 290.584 710.719 290.056V288.472C709.975 289.672 708.979 290.62 707.731 291.316C706.483 292.012 705.187 292.36 703.843 292.36C702.547 292.36 701.347 292.108 700.243 291.604C699.163 291.076 698.215 290.356 697.399 289.444C696.607 288.532 695.983 287.5 695.527 286.348C695.095 285.172 694.879 283.936 694.879 282.64ZM710.287 285.412V280.012C709.999 279.196 709.531 278.464 708.883 277.816C708.235 277.144 707.503 276.616 706.687 276.232C705.895 275.824 705.103 275.62 704.311 275.62C703.375 275.62 702.523 275.824 701.755 276.232C701.011 276.616 700.363 277.144 699.811 277.816C699.283 278.464 698.875 279.208 698.587 280.048C698.299 280.888 698.155 281.764 698.155 282.676C698.155 283.612 698.311 284.5 698.623 285.34C698.959 286.18 699.415 286.924 699.991 287.572C700.591 288.22 701.275 288.724 702.043 289.084C702.835 289.444 703.687 289.624 704.599 289.624C705.175 289.624 705.763 289.516 706.363 289.3C706.987 289.084 707.575 288.784 708.127 288.4C708.679 288.016 709.147 287.572 709.531 287.068C709.915 286.54 710.167 285.988 710.287 285.412ZM728.499 292.36C727.083 292.36 725.787 292.108 724.611 291.604C723.459 291.076 722.451 290.368 721.587 289.48C720.747 288.568 720.087 287.524 719.607 286.348C719.151 285.172 718.923 283.924 718.923 282.604C718.923 280.828 719.331 279.208 720.147 277.744C720.963 276.28 722.091 275.104 723.531 274.216C724.995 273.328 726.663 272.884 728.535 272.884C730.431 272.884 732.075 273.34 733.467 274.252C734.883 275.14 735.975 276.316 736.743 277.78C737.535 279.22 737.931 280.78 737.931 282.46C737.931 282.7 737.919 282.94 737.895 283.18C737.895 283.396 737.883 283.564 737.859 283.684H722.271C722.367 284.908 722.703 286 723.279 286.96C723.879 287.896 724.647 288.64 725.583 289.192C726.519 289.72 727.527 289.984 728.607 289.984C729.759 289.984 730.839 289.696 731.847 289.12C732.879 288.544 733.587 287.788 733.971 286.852L736.707 287.608C736.299 288.52 735.687 289.336 734.871 290.056C734.079 290.776 733.131 291.34 732.027 291.748C730.947 292.156 729.771 292.36 728.499 292.36ZM722.163 281.488H734.979C734.883 280.264 734.535 279.184 733.935 278.248C733.335 277.312 732.567 276.58 731.631 276.052C730.695 275.524 729.663 275.26 728.535 275.26C727.431 275.26 726.411 275.524 725.475 276.052C724.539 276.58 723.771 277.312 723.171 278.248C722.595 279.184 722.259 280.264 722.163 281.488ZM752.829 275.98C751.245 276.004 749.841 276.412 748.617 277.204C747.417 277.972 746.565 279.04 746.061 280.408V292H742.893V273.208H745.845V277.564C746.493 276.268 747.345 275.224 748.401 274.432C749.481 273.616 750.609 273.16 751.785 273.064C752.025 273.064 752.229 273.064 752.397 273.064C752.565 273.064 752.709 273.076 752.829 273.1V275.98ZM773.719 292H770.551V281.488C770.551 279.496 770.239 278.044 769.615 277.132C769.015 276.196 768.091 275.728 766.843 275.728C765.979 275.728 765.115 275.944 764.251 276.376C763.411 276.808 762.655 277.396 761.983 278.14C761.335 278.86 760.867 279.7 760.579 280.66V292H757.411V273.208H760.291V277.24C760.795 276.352 761.443 275.584 762.235 274.936C763.027 274.288 763.927 273.784 764.935 273.424C765.943 273.064 766.999 272.884 768.103 272.884C769.183 272.884 770.083 273.088 770.803 273.496C771.547 273.88 772.123 274.432 772.531 275.152C772.963 275.848 773.263 276.676 773.431 277.636C773.623 278.596 773.719 279.64 773.719 280.768V292ZM797.786 266.44H800.522L810.962 292H807.506L804.482 284.512H793.754L790.766 292H787.31L797.786 266.44ZM803.762 281.992L799.154 270.184L794.402 281.992H803.762ZM831.617 292H828.449V281.488C828.449 279.496 828.137 278.044 827.513 277.132C826.913 276.196 825.989 275.728 824.741 275.728C823.877 275.728 823.013 275.944 822.149 276.376C821.309 276.808 820.553 277.396 819.881 278.14C819.233 278.86 818.765 279.7 818.477 280.66V292H815.309V273.208H818.189V277.24C818.693 276.352 819.341 275.584 820.133 274.936C820.925 274.288 821.825 273.784 822.833 273.424C823.841 273.064 824.897 272.884 826.001 272.884C827.081 272.884 827.981 273.088 828.701 273.496C829.445 273.88 830.021 274.432 830.429 275.152C830.861 275.848 831.161 276.676 831.329 277.636C831.521 278.596 831.617 279.64 831.617 280.768V292ZM836.759 282.64C836.759 280.864 837.119 279.244 837.839 277.78C838.583 276.292 839.591 275.104 840.863 274.216C842.159 273.328 843.635 272.884 845.291 272.884C846.803 272.884 848.159 273.28 849.359 274.072C850.559 274.864 851.495 275.824 852.167 276.952V265.72H855.335V288.4C855.335 288.784 855.407 289.072 855.551 289.264C855.719 289.432 855.983 289.528 856.343 289.552V292C855.743 292.096 855.275 292.144 854.939 292.144C854.315 292.144 853.763 291.928 853.283 291.496C852.827 291.064 852.599 290.584 852.599 290.056V288.472C851.855 289.672 850.859 290.62 849.611 291.316C848.363 292.012 847.067 292.36 845.723 292.36C844.427 292.36 843.227 292.108 842.123 291.604C841.043 291.076 840.095 290.356 839.279 289.444C838.487 288.532 837.863 287.5 837.407 286.348C836.975 285.172 836.759 283.936 836.759 282.64ZM852.167 285.412V280.012C851.879 279.196 851.411 278.464 850.763 277.816C850.115 277.144 849.383 276.616 848.567 276.232C847.775 275.824 846.983 275.62 846.191 275.62C845.255 275.62 844.403 275.824 843.635 276.232C842.891 276.616 842.243 277.144 841.691 277.816C841.163 278.464 840.755 279.208 840.467 280.048C840.179 280.888 840.035 281.764 840.035 282.676C840.035 283.612 840.191 284.5 840.503 285.34C840.839 286.18 841.295 286.924 841.871 287.572C842.471 288.22 843.155 288.724 843.923 289.084C844.715 289.444 845.567 289.624 846.479 289.624C847.055 289.624 847.643 289.516 848.243 289.3C848.867 289.084 849.455 288.784 850.007 288.4C850.559 288.016 851.027 287.572 851.411 287.068C851.795 286.54 852.047 285.988 852.167 285.412ZM872 275.98C870.416 276.004 869.012 276.412 867.788 277.204C866.588 277.972 865.736 279.04 865.232 280.408V292H862.064V273.208H865.016V277.564C865.664 276.268 866.516 275.224 867.572 274.432C868.652 273.616 869.78 273.16 870.956 273.064C871.196 273.064 871.4 273.064 871.568 273.064C871.736 273.064 871.88 273.076 872 273.1V275.98ZM884.333 292.36C882.917 292.36 881.633 292.108 880.481 291.604C879.329 291.076 878.333 290.368 877.493 289.48C876.653 288.568 876.005 287.524 875.549 286.348C875.093 285.172 874.865 283.936 874.865 282.64C874.865 281.32 875.093 280.072 875.549 278.896C876.005 277.72 876.653 276.688 877.493 275.8C878.333 274.888 879.329 274.18 880.481 273.676C881.657 273.148 882.941 272.884 884.333 272.884C885.749 272.884 887.033 273.148 888.185 273.676C889.337 274.18 890.333 274.888 891.173 275.8C892.037 276.688 892.697 277.72 893.153 278.896C893.609 280.072 893.837 281.32 893.837 282.64C893.837 283.936 893.609 285.172 893.153 286.348C892.697 287.524 892.049 288.568 891.209 289.48C890.369 290.368 889.361 291.076 888.185 291.604C887.033 292.108 885.749 292.36 884.333 292.36ZM878.105 282.676C878.105 283.972 878.381 285.148 878.933 286.204C879.509 287.26 880.265 288.1 881.201 288.724C882.137 289.324 883.181 289.624 884.333 289.624C885.485 289.624 886.529 289.312 887.465 288.688C888.425 288.064 889.181 287.224 889.733 286.168C890.309 285.088 890.597 283.9 890.597 282.604C890.597 281.308 890.309 280.132 889.733 279.076C889.181 278.02 888.425 277.18 887.465 276.556C886.529 275.932 885.485 275.62 884.333 275.62C883.181 275.62 882.137 275.944 881.201 276.592C880.265 277.216 879.509 278.056 878.933 279.112C878.381 280.168 878.105 281.356 878.105 282.676ZM899.116 292V273.208H902.284V292H899.116ZM899.116 269.68V265.72H902.284V269.68H899.116ZM907.629 282.64C907.629 280.864 907.989 279.244 908.709 277.78C909.453 276.292 910.461 275.104 911.733 274.216C913.029 273.328 914.505 272.884 916.161 272.884C917.673 272.884 919.029 273.28 920.229 274.072C921.429 274.864 922.365 275.824 923.037 276.952V265.72H926.205V288.4C926.205 288.784 926.277 289.072 926.421 289.264C926.589 289.432 926.853 289.528 927.213 289.552V292C926.613 292.096 926.145 292.144 925.809 292.144C925.185 292.144 924.633 291.928 924.153 291.496C923.697 291.064 923.469 290.584 923.469 290.056V288.472C922.725 289.672 921.729 290.62 920.481 291.316C919.233 292.012 917.937 292.36 916.593 292.36C915.297 292.36 914.097 292.108 912.993 291.604C911.913 291.076 910.965 290.356 910.149 289.444C909.357 288.532 908.733 287.5 908.277 286.348C907.845 285.172 907.629 283.936 907.629 282.64ZM923.037 285.412V280.012C922.749 279.196 922.281 278.464 921.633 277.816C920.985 277.144 920.253 276.616 919.437 276.232C918.645 275.824 917.853 275.62 917.061 275.62C916.125 275.62 915.273 275.824 914.505 276.232C913.761 276.616 913.113 277.144 912.561 277.816C912.033 278.464 911.625 279.208 911.337 280.048C911.049 280.888 910.905 281.764 910.905 282.676C910.905 283.612 911.061 284.5 911.373 285.34C911.709 286.18 912.165 286.924 912.741 287.572C913.341 288.22 914.025 288.724 914.793 289.084C915.585 289.444 916.437 289.624 917.349 289.624C917.925 289.624 918.513 289.516 919.113 289.3C919.737 289.084 920.325 288.784 920.877 288.4C921.429 288.016 921.897 287.572 922.281 287.068C922.665 286.54 922.917 285.988 923.037 285.412ZM971.811 292H968.643V281.488C968.643 279.52 968.319 278.068 967.671 277.132C967.047 276.196 966.111 275.728 964.863 275.728C963.591 275.728 962.439 276.196 961.407 277.132C960.375 278.044 959.643 279.232 959.211 280.696V292H956.043V281.488C956.043 279.496 955.731 278.044 955.107 277.132C954.483 276.196 953.547 275.728 952.299 275.728C951.051 275.728 949.899 276.184 948.843 277.096C947.811 277.984 947.079 279.172 946.647 280.66V292H943.479V273.208H946.359V277.24C947.127 275.848 948.123 274.78 949.347 274.036C950.571 273.268 951.951 272.884 953.487 272.884C955.047 272.884 956.295 273.316 957.231 274.18C958.167 275.02 958.743 276.112 958.959 277.456C959.799 275.968 960.819 274.84 962.019 274.072C963.219 273.28 964.587 272.884 966.123 272.884C967.203 272.884 968.103 273.088 968.823 273.496C969.567 273.88 970.155 274.432 970.587 275.152C971.019 275.848 971.331 276.676 971.523 277.636C971.715 278.596 971.811 279.64 971.811 280.768V292ZM976.701 286.564C976.701 285.364 977.037 284.332 977.709 283.468C978.405 282.58 979.353 281.896 980.553 281.416C981.753 280.936 983.145 280.696 984.729 280.696C985.569 280.696 986.457 280.768 987.393 280.912C988.329 281.032 989.157 281.224 989.877 281.488V280.12C989.877 278.68 989.445 277.552 988.581 276.736C987.717 275.896 986.493 275.476 984.909 275.476C983.877 275.476 982.881 275.668 981.921 276.052C980.985 276.412 979.989 276.94 978.933 277.636L977.781 275.404C979.005 274.564 980.229 273.94 981.453 273.532C982.677 273.1 983.949 272.884 985.269 272.884C987.669 272.884 989.565 273.556 990.957 274.9C992.349 276.22 993.045 278.068 993.045 280.444V288.4C993.045 288.784 993.117 289.072 993.261 289.264C993.429 289.432 993.693 289.528 994.053 289.552V292C993.741 292.048 993.465 292.084 993.225 292.108C993.009 292.132 992.829 292.144 992.685 292.144C991.941 292.144 991.377 291.94 990.993 291.532C990.633 291.124 990.429 290.692 990.381 290.236L990.309 289.048C989.493 290.104 988.425 290.92 987.105 291.496C985.785 292.072 984.477 292.36 983.181 292.36C981.933 292.36 980.817 292.108 979.833 291.604C978.849 291.076 978.081 290.38 977.529 289.516C976.977 288.628 976.701 287.644 976.701 286.564ZM988.941 287.896C989.229 287.56 989.457 287.224 989.625 286.888C989.793 286.528 989.877 286.228 989.877 285.988V283.648C989.133 283.36 988.353 283.144 987.537 283C986.721 282.832 985.917 282.748 985.125 282.748C983.517 282.748 982.209 283.072 981.201 283.72C980.217 284.344 979.725 285.208 979.725 286.312C979.725 286.912 979.881 287.5 980.193 288.076C980.529 288.628 981.009 289.084 981.633 289.444C982.281 289.804 983.073 289.984 984.009 289.984C984.993 289.984 985.929 289.792 986.817 289.408C987.705 289 988.413 288.496 988.941 287.896ZM1015.86 292H1012.69V281.488C1012.69 279.496 1012.38 278.044 1011.75 277.132C1011.15 276.196 1010.23 275.728 1008.98 275.728C1008.12 275.728 1007.25 275.944 1006.39 276.376C1005.55 276.808 1004.79 277.396 1004.12 278.14C1003.47 278.86 1003.01 279.7 1002.72 280.66V292H999.55V273.208H1002.43V277.24C1002.93 276.352 1003.58 275.584 1004.37 274.936C1005.17 274.288 1006.07 273.784 1007.07 273.424C1008.08 273.064 1009.14 272.884 1010.24 272.884C1011.32 272.884 1012.22 273.088 1012.94 273.496C1013.69 273.88 1014.26 274.432 1014.67 275.152C1015.1 275.848 1015.4 276.676 1015.57 277.636C1015.76 278.596 1015.86 279.64 1015.86 280.768V292ZM1020.75 286.564C1020.75 285.364 1021.08 284.332 1021.76 283.468C1022.45 282.58 1023.4 281.896 1024.6 281.416C1025.8 280.936 1027.19 280.696 1028.78 280.696C1029.62 280.696 1030.5 280.768 1031.44 280.912C1032.38 281.032 1033.2 281.224 1033.92 281.488V280.12C1033.92 278.68 1033.49 277.552 1032.63 276.736C1031.76 275.896 1030.54 275.476 1028.96 275.476C1027.92 275.476 1026.93 275.668 1025.97 276.052C1025.03 276.412 1024.04 276.94 1022.98 277.636L1021.83 275.404C1023.05 274.564 1024.28 273.94 1025.5 273.532C1026.72 273.1 1028 272.884 1029.32 272.884C1031.72 272.884 1033.61 273.556 1035 274.9C1036.4 276.22 1037.09 278.068 1037.09 280.444V288.4C1037.09 288.784 1037.16 289.072 1037.31 289.264C1037.48 289.432 1037.74 289.528 1038.1 289.552V292C1037.79 292.048 1037.51 292.084 1037.27 292.108C1037.06 292.132 1036.88 292.144 1036.73 292.144C1035.99 292.144 1035.42 291.94 1035.04 291.532C1034.68 291.124 1034.48 290.692 1034.43 290.236L1034.36 289.048C1033.54 290.104 1032.47 290.92 1031.15 291.496C1029.83 292.072 1028.52 292.36 1027.23 292.36C1025.98 292.36 1024.86 292.108 1023.88 291.604C1022.9 291.076 1022.13 290.38 1021.58 289.516C1021.02 288.628 1020.75 287.644 1020.75 286.564ZM1032.99 287.896C1033.28 287.56 1033.5 287.224 1033.67 286.888C1033.84 286.528 1033.92 286.228 1033.92 285.988V283.648C1033.18 283.36 1032.4 283.144 1031.58 283C1030.77 282.832 1029.96 282.748 1029.17 282.748C1027.56 282.748 1026.26 283.072 1025.25 283.72C1024.26 284.344 1023.77 285.208 1023.77 286.312C1023.77 286.912 1023.93 287.5 1024.24 288.076C1024.58 288.628 1025.06 289.084 1025.68 289.444C1026.33 289.804 1027.12 289.984 1028.06 289.984C1029.04 289.984 1029.98 289.792 1030.86 289.408C1031.75 289 1032.46 288.496 1032.99 287.896ZM1051.09 292.216C1049.81 292.216 1048.64 291.964 1047.56 291.46C1046.5 290.932 1045.59 290.224 1044.82 289.336C1044.05 288.424 1043.45 287.392 1043.02 286.24C1042.61 285.088 1042.41 283.888 1042.41 282.64C1042.41 281.32 1042.61 280.072 1043.02 278.896C1043.45 277.72 1044.05 276.688 1044.82 275.8C1045.61 274.888 1046.54 274.18 1047.59 273.676C1048.65 273.148 1049.83 272.884 1051.12 272.884C1052.68 272.884 1054.04 273.268 1055.19 274.036C1056.37 274.804 1057.35 275.776 1058.14 276.952V273.208H1060.95V291.784C1060.95 293.56 1060.52 295.06 1059.65 296.284C1058.81 297.508 1057.66 298.432 1056.2 299.056C1054.76 299.704 1053.15 300.028 1051.37 300.028C1049.26 300.028 1047.53 299.656 1046.19 298.912C1044.85 298.168 1043.73 297.16 1042.84 295.888L1044.68 294.268C1045.42 295.372 1046.38 296.2 1047.56 296.752C1048.76 297.304 1050.03 297.58 1051.37 297.58C1052.53 297.58 1053.58 297.364 1054.54 296.932C1055.53 296.524 1056.31 295.888 1056.88 295.024C1057.48 294.16 1057.78 293.08 1057.78 291.784V288.472C1057.09 289.624 1056.13 290.536 1054.9 291.208C1053.7 291.88 1052.43 292.216 1051.09 292.216ZM1052.06 289.624C1052.73 289.624 1053.38 289.504 1054 289.264C1054.63 289.024 1055.2 288.712 1055.73 288.328C1056.26 287.92 1056.7 287.464 1057.06 286.96C1057.42 286.456 1057.66 285.94 1057.78 285.412V280.012C1057.45 279.148 1056.97 278.392 1056.34 277.744C1055.72 277.072 1055.01 276.556 1054.22 276.196C1053.43 275.812 1052.61 275.62 1051.77 275.62C1050.81 275.62 1049.95 275.824 1049.18 276.232C1048.43 276.64 1047.8 277.192 1047.27 277.888C1046.74 278.56 1046.33 279.316 1046.05 280.156C1045.76 280.996 1045.61 281.848 1045.61 282.712C1045.61 283.648 1045.78 284.536 1046.12 285.376C1046.45 286.192 1046.91 286.924 1047.49 287.572C1048.06 288.22 1048.75 288.724 1049.54 289.084C1050.33 289.444 1051.17 289.624 1052.06 289.624ZM1075.82 292.36C1074.4 292.36 1073.11 292.108 1071.93 291.604C1070.78 291.076 1069.77 290.368 1068.91 289.48C1068.07 288.568 1067.41 287.524 1066.93 286.348C1066.47 285.172 1066.24 283.924 1066.24 282.604C1066.24 280.828 1066.65 279.208 1067.47 277.744C1068.28 276.28 1069.41 275.104 1070.85 274.216C1072.32 273.328 1073.98 272.884 1075.86 272.884C1077.75 272.884 1079.4 273.34 1080.79 274.252C1082.2 275.14 1083.3 276.316 1084.06 277.78C1084.86 279.22 1085.25 280.78 1085.25 282.46C1085.25 282.7 1085.24 282.94 1085.22 283.18C1085.22 283.396 1085.2 283.564 1085.18 283.684H1069.59C1069.69 284.908 1070.02 286 1070.6 286.96C1071.2 287.896 1071.97 288.64 1072.9 289.192C1073.84 289.72 1074.85 289.984 1075.93 289.984C1077.08 289.984 1078.16 289.696 1079.17 289.12C1080.2 288.544 1080.91 287.788 1081.29 286.852L1084.03 287.608C1083.62 288.52 1083.01 289.336 1082.19 290.056C1081.4 290.776 1080.45 291.34 1079.35 291.748C1078.27 292.156 1077.09 292.36 1075.82 292.36ZM1069.48 281.488H1082.3C1082.2 280.264 1081.86 279.184 1081.26 278.248C1080.66 277.312 1079.89 276.58 1078.95 276.052C1078.02 275.524 1076.98 275.26 1075.86 275.26C1074.75 275.26 1073.73 275.524 1072.8 276.052C1071.86 276.58 1071.09 277.312 1070.49 278.248C1069.92 279.184 1069.58 280.264 1069.48 281.488ZM1118.54 292H1115.38V281.488C1115.38 279.52 1115.05 278.068 1114.4 277.132C1113.78 276.196 1112.84 275.728 1111.6 275.728C1110.32 275.728 1109.17 276.196 1108.14 277.132C1107.11 278.044 1106.38 279.232 1105.94 280.696V292H1102.78V281.488C1102.78 279.496 1102.46 278.044 1101.84 277.132C1101.22 276.196 1100.28 275.728 1099.03 275.728C1097.78 275.728 1096.63 276.184 1095.58 277.096C1094.54 277.984 1093.81 279.172 1093.38 280.66V292H1090.21V273.208H1093.09V277.24C1093.86 275.848 1094.86 274.78 1096.08 274.036C1097.3 273.268 1098.68 272.884 1100.22 272.884C1101.78 272.884 1103.03 273.316 1103.96 274.18C1104.9 275.02 1105.48 276.112 1105.69 277.456C1106.53 275.968 1107.55 274.84 1108.75 274.072C1109.95 273.28 1111.32 272.884 1112.86 272.884C1113.94 272.884 1114.84 273.088 1115.56 273.496C1116.3 273.88 1116.89 274.432 1117.32 275.152C1117.75 275.848 1118.06 276.676 1118.26 277.636C1118.45 278.596 1118.54 279.64 1118.54 280.768V292ZM1133.23 292.36C1131.81 292.36 1130.51 292.108 1129.34 291.604C1128.19 291.076 1127.18 290.368 1126.31 289.48C1125.47 288.568 1124.81 287.524 1124.33 286.348C1123.88 285.172 1123.65 283.924 1123.65 282.604C1123.65 280.828 1124.06 279.208 1124.87 277.744C1125.69 276.28 1126.82 275.104 1128.26 274.216C1129.72 273.328 1131.39 272.884 1133.26 272.884C1135.16 272.884 1136.8 273.34 1138.19 274.252C1139.61 275.14 1140.7 276.316 1141.47 277.78C1142.26 279.22 1142.66 280.78 1142.66 282.46C1142.66 282.7 1142.65 282.94 1142.62 283.18C1142.62 283.396 1142.61 283.564 1142.59 283.684H1127C1127.09 284.908 1127.43 286 1128.01 286.96C1128.61 287.896 1129.37 288.64 1130.31 289.192C1131.25 289.72 1132.25 289.984 1133.33 289.984C1134.49 289.984 1135.57 289.696 1136.57 289.12C1137.61 288.544 1138.31 287.788 1138.7 286.852L1141.43 287.608C1141.03 288.52 1140.41 289.336 1139.6 290.056C1138.81 290.776 1137.86 291.34 1136.75 291.748C1135.67 292.156 1134.5 292.36 1133.23 292.36ZM1126.89 281.488H1139.71C1139.61 280.264 1139.26 279.184 1138.66 278.248C1138.06 277.312 1137.29 276.58 1136.36 276.052C1135.42 275.524 1134.39 275.26 1133.26 275.26C1132.16 275.26 1131.14 275.524 1130.2 276.052C1129.27 276.58 1128.5 277.312 1127.9 278.248C1127.32 279.184 1126.99 280.264 1126.89 281.488ZM1163.93 292H1160.76V281.488C1160.76 279.496 1160.45 278.044 1159.82 277.132C1159.22 276.196 1158.3 275.728 1157.05 275.728C1156.19 275.728 1155.32 275.944 1154.46 276.376C1153.62 276.808 1152.86 277.396 1152.19 278.14C1151.54 278.86 1151.08 279.7 1150.79 280.66V292H1147.62V273.208H1150.5V277.24C1151 276.352 1151.65 275.584 1152.44 274.936C1153.24 274.288 1154.14 273.784 1155.14 273.424C1156.15 273.064 1157.21 272.884 1158.31 272.884C1159.39 272.884 1160.29 273.088 1161.01 273.496C1161.76 273.88 1162.33 274.432 1162.74 275.152C1163.17 275.848 1163.47 276.676 1163.64 277.636C1163.83 278.596 1163.93 279.64 1163.93 280.768V292ZM1179.84 291.064C1179.57 291.184 1179.21 291.34 1178.76 291.532C1178.3 291.724 1177.77 291.892 1177.17 292.036C1176.57 292.18 1175.94 292.252 1175.27 292.252C1174.5 292.252 1173.79 292.12 1173.14 291.856C1172.49 291.568 1171.98 291.136 1171.59 290.56C1171.21 289.96 1171.02 289.216 1171.02 288.328V275.692H1168.46V273.208H1171.02V266.944H1174.19V273.208H1178.4V275.692H1174.19V287.356C1174.23 288.028 1174.46 288.532 1174.87 288.868C1175.28 289.18 1175.76 289.336 1176.31 289.336C1176.93 289.336 1177.51 289.228 1178.04 289.012C1178.57 288.796 1178.91 288.64 1179.08 288.544L1179.84 291.064Z" fill="white"/>
</g>
<defs>
<clipPath id="clip0_1408_31">
<rect width="1601" height="401" fill="white"/>
</clipPath>
</defs>
</svg>
