<svg width="500" viewBox="0 0 4385 983" fill="none" xmlns="http://www.w3.org/2000/svg">
    <g id="project_placeholder">
        <g id="text">
            <path id="t" d="M4329.05 53.2535H4180.83V434.404H4126.38V53.2535H3978.15V4.85352H4329.05V53.2535Z" fill="var(--text)"/>
            <path id="c" d="M3473.2 218.604C3473.2 192.387 3477.63 166.775 3486.51 141.769C3495.78 116.359 3509.09 93.3686 3526.44 72.7986C3544.18 51.8253 3565.76 35.2886 3591.17 23.1886C3616.58 10.6853 3645.42 4.43359 3677.69 4.43359C3716 4.43359 3748.87 13.3069 3776.3 31.0536C3803.73 48.3969 3824.1 70.7819 3837.41 98.2086L3794.45 126.039C3785.98 107.889 3775.09 93.5703 3761.78 83.0836C3748.87 72.1936 3734.76 64.5303 3719.43 60.0936C3704.51 55.6569 3689.79 53.4386 3675.27 53.4386C3651.47 53.4386 3630.29 58.2786 3611.74 67.9586C3593.59 77.6386 3578.26 90.5453 3565.76 106.679C3553.26 122.812 3543.78 140.962 3537.33 161.129C3531.28 180.892 3528.25 200.857 3528.25 221.024C3528.25 243.207 3531.88 264.584 3539.14 285.154C3546.8 305.724 3557.29 323.874 3570.6 339.604C3583.91 355.334 3599.64 367.837 3617.79 377.114C3635.94 386.39 3655.7 391.029 3677.08 391.029C3692 391.029 3707.33 388.407 3723.06 383.164C3738.79 377.92 3753.51 369.854 3767.23 358.964C3780.94 347.67 3791.83 333.15 3799.9 315.404L3845.27 340.209C3836.4 361.585 3822.68 379.735 3804.13 394.659C3785.58 409.582 3764.81 420.875 3741.82 428.539C3719.23 436.202 3696.84 440.034 3674.66 440.034C3645.22 440.034 3618.19 433.782 3593.59 421.279C3568.99 408.372 3547.61 391.432 3529.46 370.459C3511.71 349.082 3497.8 325.285 3487.72 299.069C3478.04 272.449 3473.2 245.627 3473.2 218.604Z" fill="var(--text)"/>
            <path id="e" d="M3328.72 386.004V434.404H3037.11V4.85352H3323.28V53.2535H3091.56V192.404H3293.03V237.779H3091.56V386.004H3328.72Z" fill="var(--text)"/>
            <path id="j" d="M2607.35 370.274C2615.01 375.517 2625.5 380.559 2638.81 385.399C2652.52 389.835 2668.66 392.054 2687.21 392.054C2706.17 392.054 2721.69 389.029 2733.79 382.979C2745.89 376.525 2755.17 367.047 2761.62 354.544C2768.08 341.637 2772.51 325.302 2774.93 305.539C2777.35 285.775 2778.56 262.382 2778.56 235.359V4.85352H2833.01V223.259C2833.01 255.122 2831.4 284.364 2828.17 310.984C2824.95 337.604 2818.49 360.795 2808.81 380.559C2799.13 399.919 2784.61 414.842 2765.25 425.329C2746.3 435.815 2720.89 441.059 2689.02 441.059C2668.86 441.059 2651.11 438.84 2635.78 434.404C2620.46 429.967 2606.34 423.312 2593.43 414.439L2607.35 370.274Z" fill="var(--text)"/>
            <path id="r" d="M1589.84 434.404V4.85352H1773.76C1792.72 4.85352 1810.06 8.88685 1825.79 16.9535C1841.52 24.6169 1855.23 35.1035 1866.93 48.4135C1878.63 61.3202 1887.7 76.0419 1894.15 92.5785C1900.61 108.712 1903.83 125.249 1903.83 142.189C1903.83 161.952 1900 180.707 1892.34 198.454C1885.08 216.2 1874.59 231.325 1860.88 243.829C1847.57 256.332 1831.84 265.004 1813.69 269.844L1917.75 434.404H1856.04L1758.03 280.129H1644.29V434.404H1589.84ZM1644.29 231.729H1774.36C1789.29 231.729 1802.19 227.695 1813.08 219.629C1824.38 211.159 1833.05 200.067 1839.1 186.354C1845.55 172.64 1848.78 157.919 1848.78 142.189C1848.78 126.055 1845.15 111.334 1837.89 98.0235C1830.63 84.3102 1821.15 73.4202 1809.45 65.3535C1797.76 57.2868 1784.85 53.2535 1770.73 53.2535H1644.29V231.729Z" fill="var(--text)"/>
            <path id="p" d="M1107.02 434.404V4.85352H1286.1C1305.06 4.85352 1322.4 8.88685 1338.13 16.9535C1353.86 24.6169 1367.57 35.1035 1379.27 48.4135C1390.97 61.3202 1400.04 76.0419 1406.49 92.5785C1412.95 108.712 1416.17 125.249 1416.17 142.189C1416.17 165.582 1410.93 187.967 1400.44 209.344C1389.96 230.317 1375.24 247.459 1356.28 260.769C1337.32 273.675 1315.14 280.129 1289.73 280.129H1161.47V434.404H1107.02ZM1161.47 231.729H1286.7C1301.63 231.729 1314.53 227.695 1325.42 219.629C1336.72 211.562 1345.39 200.672 1351.44 186.959C1357.89 173.245 1361.12 158.322 1361.12 142.189C1361.12 125.249 1357.49 110.124 1350.23 96.8135C1342.97 83.1002 1333.49 72.4119 1321.79 64.7485C1310.1 57.0852 1297.19 53.2535 1283.07 53.2535H1161.47V231.729Z" fill="var(--text)"/>
            <path id="e_2" d="M3120.04 930.24V978.64H2828.43V549.09H3114.6V597.49H2882.88V736.64H3084.35V782.015H2882.88V930.24H3120.04Z" fill="var(--text)"/>
            <path id="m" d="M2565.24 978.64V650.73L2423.67 903.015H2390.4L2248.22 650.73V978.64H2193.77V549.09H2251.25L2406.73 827.995L2562.82 549.09H2619.69V978.64H2565.24Z" fill="var(--text)"/>
            <path id="n" d="M1161.47 649.52V978.64H1107.02V549.09H1153L1415.57 884.865V549.695H1470.02V978.64H1420.41L1161.47 649.52Z" fill="var(--text)"/>
            <path id="O" fill-rule="evenodd" clip-rule="evenodd" d="M2268.06 434.404C2386.68 434.404 2482.84 338.245 2482.84 219.629C2482.84 101.012 2386.68 4.85352 2268.06 4.85352C2149.44 4.85352 2053.29 101.012 2053.29 219.629C2053.29 338.245 2149.44 434.404 2268.06 434.404ZM2268.06 379.987C2356.62 379.987 2428.42 308.193 2428.42 219.631C2428.42 131.069 2356.62 59.2751 2268.06 59.2751C2179.5 59.2751 2107.7 131.069 2107.7 219.631C2107.7 308.193 2179.5 379.987 2268.06 379.987Z" fill="var(--text)"/>
            <path id="a-1" fill-rule="evenodd" clip-rule="evenodd" d="M1856.7 549.45L2030.43 978.65H1971.38L1831.05 613.327L1690.73 978.65H1633.68L1807.41 549.45H1856.7Z" fill="var(--text)"/>
        </g>
        <g id="managed_settings">
            <g id="dynamic">
                <g id="spiral">
                    <path id="right" d="M177.964 113.629C214.786 83.0672 255.677 58.1975 299.989 39.455C360.559 13.8333 424.882 0.841842 491.151 0.841839C557.421 0.841837 621.736 13.8333 682.313 39.455C726.626 58.1975 767.517 83.0672 804.338 113.629C816.113 123.398 827.467 133.75 838.387 144.67C883.473 189.756 918.872 242.268 943.608 300.744C968.33 359.184 981.292 421.118 982.17 484.911C982.184 485.921 982.192 486.938 982.207 487.948C982.207 488.228 982.207 488.509 982.207 488.796C982.207 489.828 982.221 490.868 982.221 491.9C982.221 492.933 982.221 493.972 982.207 495.004C982.207 495.292 982.207 495.572 982.207 495.852C982.192 496.862 982.184 497.88 982.17 498.89C978.579 723.771 802.251 907.45 580.351 922.772C551.478 924.807 519.98 923.789 491.151 919.764C408.75 908.431 333.677 873.755 272.863 822.645C335.505 864.133 410.556 888.302 491.151 888.302C571.747 888.302 646.797 864.126 709.439 822.645C815.361 752.511 885.796 632.889 887.521 497.017C887.536 495.314 887.551 493.604 887.551 491.9C887.551 490.197 887.536 488.487 887.521 486.783C886.872 427.098 874.847 369.189 851.747 314.569C828.802 260.317 795.955 211.596 754.12 169.76C712.285 127.925 663.571 95.078 609.312 72.1328C599.757 68.0923 590.098 64.3909 580.343 61.0214C551.36 51.0308 521.558 44.0411 491.144 40.1112C471.657 37.5896 451.912 36.3214 431.982 36.3214C370.483 36.3214 310.827 48.3691 254.652 72.1254C227.659 83.539 202.045 97.4005 177.957 113.607L177.964 113.629Z" fill="#FF4500"/>
                    <path id="left" d="M0.0898223 491.906C0.0898222 490.874 0.0898222 489.834 0.104568 488.802C0.104568 488.514 0.104568 488.234 0.104568 487.954C0.119314 486.944 0.126687 485.926 0.141434 484.916C0.15618 484.164 0.170926 483.412 0.185672 482.66C0.185672 482.505 0.185672 482.343 0.200418 482.195C0.215164 481.746 0.222537 481.296 0.237284 480.839C0.25203 480.396 0.259403 479.947 0.274149 479.497C0.318388 477.912 0.369999 476.334 0.436357 474.749C0.473222 473.871 0.510088 472.994 0.546953 472.124C0.569072 471.497 0.598565 470.87 0.63543 470.244C0.797638 466.963 0.996711 463.696 1.23265 460.437C1.26952 459.884 1.30638 459.324 1.35799 458.771C1.41698 457.989 1.47596 457.215 1.54232 456.434C1.58656 455.895 1.6308 455.35 1.67504 454.812C1.80038 453.359 1.92572 451.907 2.07318 450.454C2.26488 448.375 2.4787 446.303 2.71464 444.231C3.07592 440.965 3.47407 437.721 3.90171 434.476C3.96807 433.997 4.03442 433.518 4.09341 433.046C6.65924 414.304 10.4269 395.944 15.33 378.042C15.5512 377.224 15.7798 376.413 16.0083 375.602C16.2369 374.784 16.4655 373.972 16.694 373.161C17.1512 371.591 17.6083 370.013 18.0802 368.443C19.2967 364.358 20.5796 360.288 21.9215 356.255C22.4303 354.729 22.939 353.217 23.4625 351.691C24.3104 349.236 25.1731 346.795 26.0578 344.362C26.8246 342.253 27.6062 340.159 28.4099 338.073C28.7711 337.129 29.1398 336.185 29.5011 335.241C29.7518 334.6 30.0024 333.958 30.2605 333.31C30.9315 331.629 31.6024 329.955 32.2881 328.289C33.2319 325.981 34.1977 323.688 35.1857 321.402C35.8419 319.883 36.5055 318.364 37.1838 316.838C37.523 316.079 37.8548 315.327 38.2013 314.567C38.5479 313.808 38.887 313.056 39.2336 312.304C39.5801 311.552 39.9266 310.799 40.2732 310.047C40.9736 308.543 41.6814 307.047 42.3966 305.557C43.4731 303.323 44.5643 301.089 45.6776 298.87C46.0537 298.132 46.4223 297.388 46.7983 296.658C47.9191 294.453 49.0619 292.249 50.2268 290.059C50.6102 289.329 51.001 288.599 51.3918 287.876C51.6941 287.316 51.9964 286.756 52.2987 286.195C54.1272 282.833 56 279.5 57.917 276.205C58.2635 275.6 58.61 275.003 58.9639 274.406C60.328 272.076 61.7141 269.753 63.1224 267.445C63.4394 266.929 63.7565 266.413 64.0735 265.897C65.8578 263.007 67.6716 260.139 69.5148 257.293C69.9204 256.681 70.3185 256.054 70.724 255.442C71.0411 254.948 71.3655 254.461 71.6973 253.967C72.1102 253.348 72.5231 252.721 72.9433 252.094C74.359 249.986 75.7893 247.892 77.2418 245.813C77.7063 245.142 78.1856 244.463 78.6575 243.792C79.6012 242.45 80.5524 241.116 81.5182 239.781C81.9975 239.11 82.4841 238.447 82.9634 237.791C84.4159 235.8 85.8831 233.824 87.3725 231.863C87.8665 231.206 88.3678 230.558 88.8618 229.901C90.3512 227.947 91.8701 226.008 93.3963 224.077C93.905 223.435 94.4138 222.794 94.9299 222.152C95.387 221.577 95.8442 221.009 96.3087 220.442C96.8764 219.741 97.4515 219.033 98.034 218.333C98.5058 217.75 98.9777 217.183 99.457 216.608C100.025 215.922 100.592 215.236 101.175 214.558C101.698 213.931 102.229 213.304 102.76 212.678C103.284 212.058 103.822 211.432 104.36 210.805C105.422 209.559 106.498 208.328 107.582 207.096C108.12 206.484 108.666 205.865 109.212 205.253C110.841 203.417 112.493 201.596 114.159 199.789C114.712 199.185 115.265 198.58 115.825 197.983C116.939 196.781 118.059 195.587 119.195 194.407C119.755 193.817 120.323 193.227 120.891 192.63C121.458 192.04 122.026 191.45 122.601 190.861C123.169 190.278 123.744 189.688 124.319 189.106C125.447 187.956 126.583 186.813 127.725 185.677C128.33 185.08 128.927 184.483 129.539 183.893C130.122 183.318 130.711 182.743 131.294 182.175C132.474 181.032 133.646 179.897 134.84 178.776C135.43 178.208 136.027 177.648 136.625 177.088C144.706 169.493 153.081 162.216 161.723 155.27C162.364 154.747 163.006 154.238 163.654 153.729C167.879 150.367 172.17 147.086 176.521 143.886C177 143.532 177.486 143.179 177.973 142.825C178.452 142.471 178.932 142.124 179.418 141.778C179.971 141.372 180.531 140.974 181.084 140.568C182.913 139.263 184.756 137.966 186.607 136.683C187.182 136.285 187.757 135.886 188.332 135.496C189.453 134.721 190.596 133.955 191.731 133.188C192.373 132.753 193.007 132.333 193.656 131.905C194.032 131.654 194.415 131.404 194.798 131.145C195.381 130.769 195.949 130.386 196.531 130.01C197.217 129.56 197.91 129.111 198.603 128.668C200.704 127.311 202.813 125.977 204.936 124.657C205.607 124.244 206.278 123.824 206.957 123.411C208.107 122.711 209.264 122.003 210.422 121.31C211.122 120.882 211.845 120.454 212.553 120.034C217.537 117.085 222.58 114.224 227.69 111.474C228.213 111.186 228.744 110.899 229.275 110.619C230.433 109.999 231.605 109.38 232.77 108.775C233.5 108.392 234.237 108.009 234.974 107.633C238.646 105.738 242.355 103.902 246.086 102.11C246.83 101.756 247.582 101.395 248.327 101.048C249.079 100.694 249.831 100.348 250.583 99.994C251.284 99.6695 251.977 99.3452 252.677 99.0207C255.147 97.8853 257.639 96.7719 260.139 95.6881C260.736 95.4226 261.341 95.1646 261.938 94.9066C264.99 93.5941 268.065 92.3185 271.147 91.0725C271.914 90.7554 272.688 90.4531 273.469 90.1435C277.952 88.3665 282.472 86.6634 287.028 85.0413C287.817 84.7537 288.606 84.4809 289.403 84.2008C290.044 83.9722 290.678 83.751 291.32 83.5298C292.263 83.2054 293.214 82.881 294.166 82.5566C294.763 82.3575 295.36 82.151 295.957 81.9519C296.304 81.8413 296.658 81.7234 297.004 81.6054C298.331 81.1704 299.659 80.7354 301 80.3151C306.309 78.6193 311.655 77.0267 317.052 75.5373C317.605 75.3825 318.158 75.2276 318.711 75.0802C321.852 74.2249 325.015 73.3991 328.192 72.6176C328.672 72.4922 329.158 72.3742 329.645 72.2636C330.087 72.153 330.53 72.0424 330.979 71.9392C332.528 71.5632 334.076 71.2019 335.639 70.848C344.015 68.931 352.494 67.2572 361.054 65.8342C361.865 65.7015 362.669 65.5688 363.48 65.4361C363.804 65.3844 364.136 65.3329 364.461 65.2812C365.404 65.1264 366.363 64.979 367.314 64.8389C368.11 64.7209 368.914 64.603 369.718 64.485C370.986 64.3007 372.254 64.1237 373.53 63.9541C382.923 62.6786 392.412 61.6979 401.997 61.0343C411.921 60.356 421.934 60.0021 432.028 60.0021C452.097 60.0021 471.842 61.3809 491.189 64.0426C573.591 75.3751 648.664 110.051 709.477 161.162C646.835 119.673 571.785 95.5037 491.189 95.5037C410.594 95.5037 335.543 119.68 272.902 161.162C166.98 231.295 96.5446 350.917 94.8193 486.789C94.8046 488.492 94.7898 490.203 94.7898 491.906C94.7898 493.609 94.8046 495.32 94.8193 497.023C95.4681 556.708 107.494 614.617 130.594 669.237C153.539 723.489 186.386 772.21 228.221 814.046C270.056 855.881 318.77 888.728 373.028 911.673C382.584 915.714 392.242 919.415 401.997 922.785C507.071 959.245 625.719 955.138 727.689 911.673C754.682 900.26 780.296 886.398 804.384 870.192C767.562 900.754 726.671 925.623 682.359 944.366C621.745 969.98 557.429 982.972 491.153 982.972C424.876 982.972 360.568 969.98 299.99 944.359C255.678 925.616 214.787 900.746 177.966 870.185C166.191 860.415 154.836 850.063 143.917 839.144C98.8303 794.057 63.4321 741.546 38.6953 683.069C13.59 623.701 0.613315 560.727 0.104569 495.858C0.104569 495.578 0.104569 495.298 0.104569 495.01C0.104569 493.978 0.0898223 492.938 0.0898223 491.906Z" fill="var(--text)"/>
                </g>
                <g id="inner_image">
                    <path id="help" d="M492.128 673.952C499.819 673.952 506.31 671.295 511.6 665.982C516.89 660.669 519.535 654.166 519.535 646.475C519.535 638.778 516.878 632.287 511.565 627.003C506.252 621.713 499.747 619.068 492.049 619.068C484.358 619.068 477.867 621.724 472.577 627.038C467.293 632.351 464.651 638.856 464.651 646.553C464.651 654.245 467.307 660.735 472.621 666.025C477.934 671.31 484.436 673.952 492.128 673.952ZM474.152 558.702H507.754C508.647 543.575 511.49 531.281 516.281 521.82C521.078 512.365 530.95 500.297 545.898 485.616C561.426 470.088 572.984 456.179 580.571 443.888C588.158 431.597 591.951 417.368 591.951 401.202C591.951 373.772 582.314 351.913 563.039 335.625C543.764 319.343 520.962 311.202 494.633 311.202C469.604 311.202 448.354 318.006 430.883 331.614C413.418 345.222 400.625 360.86 392.504 378.528L424.488 391.779C430.068 379.111 438.044 367.913 448.415 358.186C458.792 348.458 473.752 343.595 493.294 343.595C515.869 343.595 532.357 349.784 542.757 362.162C553.152 374.546 558.349 388.168 558.349 403.029C558.349 415.077 555.092 425.84 548.578 435.318C542.064 444.801 533.587 454.34 523.146 463.934C502.977 482.536 489.77 498.308 483.523 511.249C477.275 524.189 474.152 540.007 474.152 558.702ZM491.266 805.132C447.954 805.132 407.231 796.913 369.099 780.475C330.972 764.036 297.805 741.727 269.597 713.549C241.389 685.37 219.06 652.232 202.61 614.134C186.154 576.043 177.926 535.338 177.926 492.02C177.926 448.708 186.145 407.986 202.584 369.853C219.022 331.727 241.331 298.56 269.51 270.352C297.689 242.145 330.827 219.816 368.925 203.366C407.017 186.91 447.722 178.682 491.04 178.682C534.352 178.682 575.075 186.901 613.207 203.339C651.334 219.778 684.501 242.087 712.709 270.265C740.917 298.444 763.246 331.582 779.696 369.679C796.152 407.771 804.38 448.476 804.38 491.794C804.38 535.106 796.161 575.828 779.723 613.96C763.284 652.087 740.975 685.254 712.796 713.462C684.617 741.669 651.479 763.998 613.381 780.448C575.289 796.904 534.584 805.132 491.266 805.132Z" fill="var(--text)"/>
                </g>
            </g>
        </g>
    </g>
</svg>
