<svg width="339" viewBox="0 0 2973 983" fill="none" xmlns="http://www.w3.org/2000/svg">
<g id="qr_code" clip-path="url(#clip0_3682_611)">
<g id="text">
<g id="QR">
<path id="Q" d="M1313.62 435.6C1283.37 435.6 1255.95 429.55 1231.34 417.45C1206.74 404.947 1185.36 388.41 1167.21 367.84C1149.47 347.27 1135.75 324.078 1126.07 298.265C1116.39 272.048 1111.55 245.227 1111.55 217.8C1111.55 189.163 1116.59 161.938 1126.68 136.125C1137.16 109.908 1151.48 86.7167 1169.63 66.55C1188.19 45.98 1209.76 29.8467 1234.37 18.15C1258.97 6.04999 1285.79 0 1314.83 0C1345.08 0 1372.51 6.25167 1397.11 18.755C1421.72 31.2583 1442.89 47.9967 1460.64 68.97C1478.38 89.9433 1492.1 113.337 1501.78 139.15C1511.46 164.963 1516.3 191.382 1516.3 218.405C1516.3 247.042 1511.26 274.468 1501.17 300.685C1491.09 326.498 1476.77 349.69 1458.22 370.26C1440.07 390.427 1418.69 406.358 1394.09 418.055C1369.48 429.752 1342.66 435.6 1313.62 435.6ZM1314.23 386.595C1337.22 386.595 1357.79 381.755 1375.94 372.075C1394.09 362.395 1409.41 349.488 1421.92 333.355C1434.82 317.222 1444.5 299.072 1450.96 278.905C1457.81 258.738 1461.24 238.37 1461.24 217.8C1461.24 196.02 1457.61 175.047 1450.35 154.88C1443.5 134.31 1433.41 116.16 1420.1 100.43C1407.2 84.7 1391.67 72.1967 1373.52 62.92C1355.77 53.6434 1336.01 49.005 1314.23 49.005C1291.24 49.005 1270.67 53.845 1252.52 63.525C1234.37 73.205 1218.84 86.1117 1205.93 102.245C1193.43 118.378 1183.75 136.528 1176.89 156.695C1170.04 176.458 1166.61 196.827 1166.61 217.8C1166.61 239.58 1170.04 260.755 1176.89 281.325C1184.15 301.492 1194.24 319.44 1207.14 335.17C1220.05 350.9 1235.58 363.403 1253.73 372.68C1271.88 381.957 1292.04 386.595 1314.23 386.595ZM1338.43 292.215H1391.67L1512.06 432.575H1458.82L1338.43 292.215Z" fill="var(--text)"/>
<path id="R" d="M1653.3 429.55V0H1837.22C1856.17 0 1873.52 4.03333 1889.25 12.1C1904.98 19.7633 1918.69 30.25 1930.39 43.56C1942.08 56.4667 1951.16 71.1884 1957.61 87.725C1964.07 103.858 1967.29 120.395 1967.29 137.335C1967.29 157.098 1963.46 175.853 1955.8 193.6C1948.54 211.347 1938.05 226.472 1924.34 238.975C1911.03 251.478 1895.3 260.15 1877.15 264.99L1981.21 429.55H1919.5L1821.49 275.275H1707.75V429.55H1653.3ZM1707.75 226.875H1837.82C1852.75 226.875 1865.65 222.842 1876.54 214.775C1887.84 206.305 1896.51 195.213 1902.56 181.5C1909.01 167.787 1912.24 153.065 1912.24 137.335C1912.24 121.202 1908.61 106.48 1901.35 93.17C1894.09 79.4567 1884.61 68.5667 1872.91 60.5C1861.22 52.4333 1848.31 48.4 1834.19 48.4H1707.75V226.875Z" fill="var(--text)"/>
</g>
<g id="CODE">
<path id="C" d="M1111.55 755.035C1111.55 728.819 1115.99 703.207 1124.86 678.2C1134.14 652.79 1147.45 629.8 1164.79 609.23C1182.54 588.257 1204.12 571.72 1229.53 559.62C1254.94 547.117 1283.78 540.865 1316.04 540.865C1354.36 540.865 1387.23 549.739 1414.66 567.485C1442.08 584.829 1462.45 607.214 1475.76 634.64L1432.81 662.47C1424.34 644.32 1413.45 630.002 1400.14 619.515C1387.23 608.625 1373.11 600.962 1357.79 596.525C1342.86 592.089 1328.14 589.87 1313.62 589.87C1289.83 589.87 1268.65 594.71 1250.1 604.39C1231.95 614.07 1216.62 626.977 1204.12 643.11C1191.61 659.244 1182.14 677.394 1175.68 697.56C1169.63 717.324 1166.61 737.289 1166.61 757.455C1166.61 779.639 1170.24 801.015 1177.5 821.585C1185.16 842.155 1195.65 860.305 1208.96 876.035C1222.27 891.765 1238 904.269 1256.15 913.545C1274.3 922.822 1294.06 927.46 1315.44 927.46C1330.36 927.46 1345.69 924.839 1361.42 919.595C1377.15 914.352 1391.87 906.285 1405.58 895.395C1419.3 884.102 1430.19 869.582 1438.25 851.835L1483.63 876.64C1474.75 898.017 1461.04 916.167 1442.49 931.09C1423.93 946.014 1403.16 957.307 1380.17 964.97C1357.59 972.634 1335.2 976.465 1313.02 976.465C1283.57 976.465 1256.55 970.214 1231.95 957.71C1207.34 944.804 1185.97 927.864 1167.82 906.89C1150.07 885.514 1136.16 861.717 1126.07 835.5C1116.39 808.88 1111.55 782.059 1111.55 755.035Z" fill="var(--text)"/>
<path id="E" d="M2972.13 925.435V973.835H2680.52V544.285H2966.69V592.685H2734.97V731.835H2936.44V777.21H2734.97V925.435H2972.13Z" fill="var(--text)"/>
<path id="D" d="M2187.18 973.835V544.285H2336.01C2381.99 544.285 2420.3 553.965 2450.96 573.325C2482.01 592.282 2505.21 618.095 2520.53 650.765C2535.86 683.032 2543.52 718.929 2543.52 758.455C2543.52 802.015 2535.05 839.928 2518.11 872.195C2501.17 904.462 2477.17 929.469 2446.12 947.215C2415.06 964.962 2378.36 973.835 2336.01 973.835H2187.18ZM2488.47 758.455C2488.47 726.189 2482.42 697.552 2470.32 672.545C2458.62 647.539 2441.48 627.977 2418.89 613.86C2396.31 599.743 2368.68 592.685 2336.01 592.685H2241.63V925.435H2336.01C2369.08 925.435 2396.91 918.175 2419.5 903.655C2442.08 888.732 2459.23 868.767 2470.92 843.76C2482.62 818.35 2488.47 789.915 2488.47 758.455Z" fill="var(--text)"/>
<path id="O" fill-rule="evenodd" clip-rule="evenodd" d="M1835.4 974.497C1954.02 974.497 2050.18 878.339 2050.18 759.722C2050.18 641.105 1954.02 544.947 1835.4 544.947C1716.79 544.947 1620.63 641.105 1620.63 759.722C1620.63 878.339 1716.79 974.497 1835.4 974.497ZM1835.4 920.081C1923.97 920.081 1995.76 848.287 1995.76 759.725C1995.76 671.163 1923.97 599.369 1835.4 599.369C1746.84 599.369 1675.05 671.163 1675.05 759.725C1675.05 848.287 1746.84 920.081 1835.4 920.081Z" fill="var(--text)"/>
</g>
</g>
<g id="qr_spiral_round">
<g id="dynamic">
<g id="spiral">
<path id="Vector" d="M182.202 117.923C218.565 87.7411 258.948 63.1806 302.71 44.6711C362.527 19.3679 426.051 6.53795 491.497 6.53794C556.943 6.53794 620.459 19.3679 680.284 44.6711C724.046 63.1806 764.429 87.7411 800.793 117.923C812.421 127.571 823.635 137.794 834.418 148.578C878.945 193.104 913.903 244.963 938.333 302.712C962.747 360.425 975.548 421.59 976.415 484.589C976.429 485.587 976.437 486.591 976.451 487.589C976.451 487.866 976.451 488.142 976.451 488.426C976.451 489.446 976.466 490.473 976.466 491.492C976.466 492.511 976.466 493.538 976.451 494.557C976.451 494.841 976.451 495.118 976.451 495.395C976.437 496.392 976.429 497.397 976.415 498.395C972.869 720.48 798.732 901.876 579.589 917.007C551.074 919.017 519.968 918.012 491.497 914.036C410.119 902.845 335.979 868.6 275.922 818.125C337.785 859.098 411.903 882.966 491.497 882.966C571.091 882.966 645.209 859.09 707.073 818.125C811.678 748.863 881.238 630.728 882.942 496.545C882.957 494.863 882.971 493.174 882.971 491.492C882.971 489.81 882.957 488.121 882.942 486.439C882.302 427.495 870.425 370.306 847.613 316.365C824.953 262.788 792.514 214.672 751.198 173.357C709.883 132.042 661.775 99.6026 608.19 76.9426C598.753 72.9524 589.215 69.297 579.581 65.9694C550.958 56.103 521.526 49.2002 491.49 45.3191C472.245 42.8289 452.745 41.5764 433.063 41.5764C372.328 41.5764 313.414 53.4744 257.936 76.9354C231.279 88.2071 205.983 101.896 182.194 117.901L182.202 117.923Z" fill="#FF4500"/>
<path id="Vector_2" d="M6.53416 491.506C6.53416 490.486 6.53416 489.459 6.54872 488.44C6.54872 488.156 6.54872 487.879 6.54872 487.603C6.56328 486.605 6.57057 485.6 6.58513 484.603C6.59969 483.86 6.61425 483.117 6.62882 482.375C6.62882 482.222 6.62882 482.061 6.64338 481.916C6.65794 481.472 6.66522 481.027 6.67979 480.576C6.69435 480.139 6.70163 479.695 6.71619 479.251C6.75988 477.685 6.81085 476.127 6.87639 474.562C6.91279 473.695 6.9492 472.829 6.98561 471.969C7.00745 471.35 7.03658 470.731 7.07299 470.113C7.23318 466.872 7.42978 463.647 7.66279 460.428C7.69919 459.882 7.7356 459.329 7.78657 458.783C7.84482 458.011 7.90308 457.246 7.96861 456.474C8.0123 455.943 8.05599 455.404 8.09968 454.872C8.22346 453.438 8.34725 452.004 8.49288 450.569C8.68219 448.516 8.89336 446.47 9.12636 444.424C9.48316 441.198 9.87636 437.994 10.2987 434.79C10.3642 434.317 10.4297 433.844 10.488 433.378C13.022 414.868 16.7428 396.737 21.585 379.058C21.8034 378.249 22.0291 377.448 22.2549 376.647C22.4806 375.839 22.7063 375.038 22.9321 374.237C23.3835 372.686 23.835 371.128 24.301 369.577C25.5024 365.543 26.7694 361.524 28.0946 357.541C28.597 356.034 29.0995 354.541 29.6164 353.034C30.4538 350.609 31.3058 348.199 32.1795 345.796C32.9368 343.713 33.7086 341.645 34.5023 339.585C34.8591 338.653 35.2232 337.721 35.58 336.789C35.8276 336.155 36.0751 335.522 36.33 334.881C36.9926 333.221 37.6552 331.568 38.3324 329.922C39.2644 327.643 40.2183 325.379 41.194 323.121C41.8421 321.621 42.4974 320.121 43.1673 318.614C43.5022 317.864 43.8299 317.121 44.1721 316.371C44.5144 315.621 44.8493 314.879 45.1915 314.136C45.5338 313.393 45.876 312.651 46.2182 311.908C46.91 310.422 47.609 308.944 48.3153 307.473C49.3784 305.267 50.456 303.061 51.5556 300.869C51.9269 300.141 52.291 299.405 52.6623 298.685C53.7691 296.507 54.8978 294.33 56.0482 292.168C56.4269 291.447 56.8128 290.726 57.1987 290.012C57.4972 289.459 57.7958 288.906 58.0943 288.352C59.9001 285.032 61.7496 281.741 63.6428 278.486C63.985 277.889 64.3273 277.299 64.6768 276.709C66.0239 274.408 67.3928 272.115 68.7835 269.835C69.0966 269.326 69.4097 268.816 69.7228 268.306C71.485 265.452 73.2762 262.619 75.0966 259.809C75.4971 259.204 75.8903 258.586 76.2907 257.981C76.6038 257.493 76.9242 257.013 77.2519 256.525C77.6597 255.913 78.0674 255.294 78.4825 254.675C79.8805 252.593 81.2931 250.525 82.7276 248.472C83.1863 247.809 83.6596 247.139 84.1256 246.476C85.0576 245.151 85.997 243.833 86.9508 242.515C87.4241 241.853 87.9047 241.197 88.378 240.549C89.8125 238.583 91.2615 236.632 92.7323 234.695C93.2202 234.047 93.7153 233.406 94.2032 232.758C95.674 230.829 97.174 228.913 98.6813 227.006C99.1837 226.372 99.6861 225.739 100.196 225.105C100.647 224.537 101.099 223.977 101.557 223.416C102.118 222.724 102.686 222.025 103.261 221.333C103.727 220.758 104.193 220.198 104.667 219.63C105.227 218.952 105.788 218.275 106.363 217.605C106.88 216.986 107.405 216.368 107.929 215.749C108.446 215.137 108.977 214.518 109.509 213.899C110.557 212.668 111.62 211.452 112.691 210.236C113.222 209.632 113.761 209.02 114.3 208.416C115.909 206.603 117.54 204.805 119.186 203.021C119.732 202.423 120.278 201.826 120.832 201.237C121.931 200.05 123.038 198.87 124.159 197.705C124.713 197.123 125.273 196.54 125.834 195.95C126.395 195.368 126.955 194.785 127.523 194.203C128.084 193.627 128.652 193.045 129.22 192.47C130.334 191.334 131.455 190.205 132.584 189.084C133.181 188.494 133.771 187.904 134.375 187.322C134.95 186.754 135.533 186.186 136.108 185.625C137.273 184.496 138.431 183.375 139.61 182.268C140.193 181.708 140.783 181.154 141.373 180.601C149.353 173.101 157.625 165.914 166.159 159.055C166.792 158.538 167.426 158.035 168.067 157.533C172.239 154.213 176.477 150.972 180.773 147.812C181.246 147.463 181.727 147.113 182.207 146.764C182.68 146.414 183.154 146.072 183.634 145.73C184.18 145.329 184.734 144.936 185.28 144.536C187.086 143.247 188.906 141.965 190.734 140.698C191.302 140.305 191.87 139.912 192.438 139.526C193.544 138.761 194.673 138.004 195.794 137.247C196.428 136.817 197.054 136.402 197.695 135.98C198.066 135.732 198.445 135.485 198.823 135.23C199.399 134.859 199.959 134.48 200.535 134.109C201.212 133.664 201.896 133.22 202.581 132.783C204.656 131.444 206.738 130.126 208.836 128.822C209.498 128.414 210.161 127.999 210.831 127.592C211.967 126.9 213.11 126.201 214.253 125.516C214.945 125.094 215.658 124.672 216.357 124.257C221.28 121.344 226.26 118.519 231.306 115.803C231.823 115.519 232.347 115.235 232.872 114.958C234.015 114.347 235.173 113.735 236.323 113.138C237.044 112.759 237.772 112.381 238.5 112.009C242.126 110.138 245.789 108.325 249.474 106.556C250.209 106.206 250.952 105.849 251.687 105.507C252.43 105.157 253.172 104.815 253.915 104.466C254.607 104.145 255.291 103.825 255.983 103.505C258.422 102.383 260.884 101.284 263.352 100.213C263.942 99.9511 264.539 99.6963 265.129 99.4415C268.143 98.1454 271.18 96.8856 274.223 95.6551C274.981 95.342 275.745 95.0434 276.517 94.7376C280.944 92.9827 285.408 91.3008 289.908 89.6989C290.687 89.4149 291.466 89.1454 292.252 88.8688C292.886 88.643 293.512 88.4246 294.145 88.2061C295.077 87.8857 296.017 87.5654 296.956 87.245C297.546 87.0484 298.136 86.8445 298.725 86.6479C299.068 86.5386 299.417 86.4222 299.759 86.3057C301.07 85.876 302.381 85.4464 303.706 85.0314C308.949 83.3567 314.228 81.7839 319.558 80.313C320.104 80.1601 320.65 80.0072 321.196 79.8616C324.298 79.0169 327.422 78.2014 330.56 77.4296C331.033 77.3058 331.514 77.1892 331.995 77.08C332.431 76.9708 332.868 76.8616 333.312 76.7596C334.842 76.3883 336.371 76.0315 337.914 75.682C346.186 73.7888 354.56 72.1359 363.014 70.7306C363.815 70.5995 364.608 70.4684 365.409 70.3373C365.73 70.2864 366.057 70.2354 366.378 70.1844C367.31 70.0315 368.256 69.8859 369.196 69.7476C369.982 69.6311 370.776 69.5146 371.569 69.3981C372.822 69.216 374.074 69.0413 375.334 68.8738C384.611 67.6141 393.982 66.6456 403.448 65.9903C413.249 65.3204 423.137 64.9709 433.105 64.9709C452.925 64.9709 472.425 66.3326 491.532 68.9612C572.91 80.1528 647.05 114.398 707.107 164.873C645.244 123.9 571.126 100.031 491.532 100.031C411.938 100.031 337.82 123.907 275.956 164.873C171.35 234.134 101.79 352.269 100.087 486.452C100.072 488.134 100.058 489.824 100.058 491.506C100.058 493.188 100.072 494.877 100.087 496.559C100.727 555.502 112.604 612.691 135.416 666.632C158.076 720.21 190.515 768.326 231.83 809.641C273.146 850.956 321.254 883.395 374.839 906.055C384.276 910.045 393.814 913.7 403.448 917.028C507.216 953.035 624.39 948.979 725.093 906.055C751.75 894.783 777.046 881.094 800.835 865.089C764.471 895.271 724.088 919.831 680.326 938.341C620.465 963.637 556.949 976.467 491.495 976.467C426.042 976.467 362.533 963.637 302.708 938.334C258.947 919.824 218.564 895.264 182.2 865.082C170.571 855.434 159.358 845.211 148.574 834.427C104.048 789.901 69.0894 738.042 44.66 680.293C19.8666 621.662 7.05115 559.471 6.54872 495.408C6.54872 495.132 6.54872 494.855 6.54872 494.571C6.54872 493.552 6.53416 492.525 6.53416 491.506Z" fill="var(--text)"/>
</g>
</g>
<g id="qrCode">
  <path id="qr_code_2" d="M291.212 548.727V491.502H348.437V548.727H291.212ZM233.986 491.502V434.277H291.212V491.502H233.986ZM491.5 291.214V233.988H548.725V291.214H491.5ZM276.905 706.097H362.743V620.259H276.905V706.097ZM233.986 749.016V577.34H405.662V749.016H233.986ZM620.257 362.745H706.095V276.907H620.257V362.745ZM577.338 405.664V233.988H749.014V405.664H577.338ZM405.662 548.727V491.502H348.437V434.277H462.887V548.727H405.662ZM434.275 405.664V291.214H491.5V348.439H548.725V405.664H434.275ZM298.365 341.286V298.367H341.284V341.286H298.365Z" fill="var(--text)"/>

  <path id="left_small_square" d="M298.365 641.719V684.638H341.284V641.719H298.365Z" fill="var(--text)">
    <animate attributeName="fill" values="var(--text); #FF4500; var(--text)" dur="6s" begin="4s" repeatCount="indefinite" />
  </path>

  <path id="plus" d="M605.951 663.178V749.016H663.176V663.178H749.014V605.953H663.176V520.115H605.951V605.953H520.113V663.178H605.951Z" fill="var(--text)">
    <animate attributeName="fill" values="var(--text); #FF4500; var(--text)" dur="8s" repeatCount="indefinite" />
  </path>

  <path id="left_large_square" fill-rule="evenodd" clip-rule="evenodd" d="M233.986 405.664V233.988H405.662V405.664H233.986ZM362.743 362.745H276.905V276.907H362.743V362.745Z" fill="var(--text)">
    <animate attributeName="fill" values="var(--text); #FF4500; var(--text)" dur="10s" repeatCount="indefinite" />
  </path>

  <path id="right_small_square" d="M641.716 298.367V341.286H684.635V298.367H641.716Z" fill="var(--text)">
    <animate attributeName="fill" values="var(--text); #FF4500; var(--text)" dur="7s" repeatCount="indefinite" />
  </path>

  <path id="square_rectangle" d="M636 472.552L539.667 472.552L539.667 520.719L491.5 520.719L491.5 472.552L539.667 472.552L539.667 424.385L636 424.385L636 472.552Z" fill="var(--text)"/>

  <path id="bottom_rectangle" d="M435.494 749.016L483.661 749.016L483.661 652.682L435.494 652.682L435.494 749.016Z" fill="var(--text)"/>

  <path id="right_rectangle" d="M700.847 520.719L749.014 520.719L749.014 424.385L700.847 424.385L700.847 520.719Z" fill="var(--text)"/>
</g>
</g>
</g>
<defs>
<clipPath id="clip0_3682_611">
<rect width="2973" height="983.001" fill="white"/>
</clipPath>
</defs>
</svg>
