<svg width="983" height="983" viewBox="0 0 983 983" fill="none" xmlns="http://www.w3.org/2000/svg">
    <g id="spiralception">
  <style>
    @keyframes rotate-quick {
      from { transform: rotate(0deg); }
      to { transform: rotate(360deg); }
    }
    @keyframes rotate-slow {
      from { transform: rotate(0deg); }
      to { transform: rotate(-360deg); }
    }
    @keyframes rotate-moderate {
      from { transform: rotate(0deg); }
      to { transform: rotate(360deg); }
    }
    #spiral_small {
      animation: rotate-quick 12s linear infinite;
      transform-origin: center;
    }
    #spiral_middle {
      animation: rotate-slow 10s linear infinite;
      transform-origin: center;
    }
    #spiral_big {
      animation: rotate-moderate 5s linear infinite;
      transform-origin: center;
    }
  </style>
        <g id="dynamic">
            <g id="spiral_small">
                <path id="Vector" d="M178.174 113.066C215.002 82.4992 255.9 57.6255 300.22 38.8799C360.8 13.2541 425.134 0.260463 491.414 0.26046C557.695 0.260457 622.021 13.254 682.609 38.8799C726.929 57.6255 767.827 82.4992 804.654 113.066C816.431 122.837 827.788 133.19 838.709 144.112C883.803 189.206 919.207 241.726 943.948 300.212C968.675 358.661 981.639 420.605 982.516 484.408C982.531 485.418 982.538 486.436 982.553 487.446C982.553 487.727 982.553 488.007 982.553 488.295C982.553 489.327 982.568 490.367 982.568 491.399C982.568 492.432 982.568 493.471 982.553 494.504C982.553 494.791 982.553 495.072 982.553 495.352C982.538 496.362 982.531 497.38 982.516 498.39C978.925 723.307 802.567 907.017 580.629 922.341C551.751 924.376 520.248 923.359 491.414 919.332C408.999 907.998 333.913 873.316 273.09 822.197C335.742 863.693 410.805 887.866 491.414 887.866C572.023 887.866 647.087 863.685 709.739 822.197C815.679 752.053 886.126 632.411 887.852 496.517C887.866 494.813 887.881 493.103 887.881 491.399C887.881 489.696 887.866 487.985 887.852 486.281C887.203 426.586 875.175 368.668 852.071 314.039C829.122 259.778 796.27 211.049 754.428 169.207C712.586 127.365 663.863 94.512 609.596 71.563C600.038 67.5219 590.378 63.8199 580.622 60.4498C551.633 50.4576 521.826 43.4667 491.407 39.5362C471.917 37.0142 452.168 35.7458 432.235 35.7458C370.726 35.7458 311.06 47.7955 254.875 71.5557C227.877 82.9712 202.259 96.8349 178.167 113.044L178.174 113.066Z" fill="#FF4500"/>
                <path id="Vector_2" d="M0.26951 491.414C0.26951 490.381 0.26951 489.341 0.284258 488.309C0.284258 488.021 0.284258 487.741 0.284258 487.461C0.299007 486.451 0.306381 485.433 0.32113 484.423C0.335879 483.67 0.350627 482.918 0.365376 482.166C0.365376 482.011 0.365376 481.849 0.380125 481.702C0.394873 481.252 0.402247 480.802 0.416996 480.345C0.431745 479.902 0.439119 479.452 0.453868 479.003C0.498114 477.417 0.549734 475.839 0.616103 474.253C0.652975 473.376 0.689847 472.498 0.726718 471.628C0.748841 471.001 0.778339 470.375 0.81521 469.748C0.977446 466.466 1.17655 463.199 1.41253 459.94C1.4494 459.387 1.48628 458.826 1.5379 458.273C1.59689 457.492 1.65588 456.717 1.72225 455.936C1.7665 455.397 1.81075 454.852 1.85499 454.313C1.98036 452.86 2.10572 451.408 2.25321 449.955C2.44494 447.875 2.65879 445.803 2.89477 443.731C3.25612 440.464 3.65433 437.22 4.08204 433.975C4.14841 433.495 4.21478 433.016 4.27378 432.544C6.84005 413.799 10.6083 395.436 15.5123 377.532C15.7335 376.713 15.9621 375.902 16.1907 375.091C16.4193 374.272 16.6479 373.461 16.8765 372.65C17.3337 371.079 17.7909 369.501 18.2629 367.93C19.4797 363.845 20.7628 359.774 22.1049 355.74C22.6138 354.214 23.1226 352.702 23.6462 351.176C24.4942 348.72 25.357 346.279 26.2419 343.846C27.0089 341.737 27.7906 339.642 28.5944 337.555C28.9557 336.611 29.3244 335.667 29.6858 334.724C29.9365 334.082 30.1872 333.44 30.4453 332.791C31.1164 331.11 31.7874 329.436 32.4733 327.77C33.4172 325.461 34.3832 323.168 35.3714 320.882C36.0277 319.363 36.6914 317.844 37.3698 316.317C37.709 315.558 38.0409 314.805 38.3875 314.046C38.7341 313.286 39.0733 312.534 39.4199 311.782C39.7665 311.03 40.1131 310.278 40.4597 309.525C41.1602 308.021 41.8682 306.524 42.5835 305.034C43.6601 302.8 44.7515 300.566 45.8651 298.346C46.2412 297.608 46.6099 296.864 46.986 296.134C48.1069 293.929 49.2499 291.724 50.415 289.534C50.7985 288.803 51.1893 288.073 51.5802 287.351C51.8825 286.79 52.1849 286.23 52.4872 285.669C54.3161 282.307 56.1891 278.973 58.1065 275.677C58.4531 275.072 58.7997 274.475 59.1536 273.878C60.5179 271.548 61.9043 269.225 63.3128 266.916C63.6299 266.4 63.947 265.884 64.264 265.368C66.0486 262.477 67.8627 259.608 69.7063 256.762C70.1119 256.15 70.5101 255.523 70.9157 254.911C71.2328 254.417 71.5573 253.93 71.8891 253.436C72.3021 252.817 72.715 252.19 73.1354 251.563C74.5513 249.454 75.9819 247.36 77.4346 245.28C77.8992 244.609 78.3785 243.931 78.8505 243.26C79.7944 241.917 80.7457 240.583 81.7117 239.248C82.1911 238.577 82.6778 237.913 83.1571 237.257C84.6099 235.266 86.0774 233.289 87.567 231.328C88.0611 230.672 88.5625 230.023 89.0566 229.366C90.5462 227.412 92.0653 225.473 93.5918 223.541C94.1006 222.899 94.6095 222.257 95.1257 221.616C95.5829 221.041 96.0401 220.473 96.5047 219.905C97.0725 219.204 97.6477 218.496 98.2303 217.796C98.7022 217.213 99.1742 216.646 99.6535 216.07C100.221 215.384 100.789 214.699 101.372 214.02C101.895 213.393 102.426 212.767 102.957 212.14C103.481 211.52 104.019 210.894 104.557 210.267C105.619 209.02 106.696 207.789 107.78 206.557C108.318 205.945 108.864 205.326 109.41 204.714C111.04 202.878 112.691 201.056 114.358 199.249C114.911 198.645 115.464 198.04 116.025 197.443C117.138 196.241 118.259 195.046 119.395 193.866C119.955 193.276 120.523 192.686 121.091 192.089C121.659 191.499 122.226 190.909 122.802 190.319C123.369 189.737 123.945 189.147 124.52 188.564C125.648 187.414 126.784 186.271 127.927 185.135C128.531 184.538 129.129 183.94 129.741 183.35C130.323 182.775 130.913 182.2 131.496 181.632C132.676 180.489 133.848 179.353 135.043 178.233C135.633 177.665 136.23 177.104 136.828 176.544C144.91 168.948 153.287 161.67 161.93 154.723C162.571 154.2 163.213 153.691 163.862 153.182C168.087 149.819 172.379 146.538 176.73 143.337C177.209 142.983 177.696 142.629 178.183 142.275C178.662 141.921 179.142 141.575 179.628 141.228C180.181 140.823 180.742 140.424 181.295 140.019C183.124 138.713 184.967 137.416 186.818 136.132C187.393 135.734 187.969 135.336 188.544 134.945C189.665 134.171 190.808 133.404 191.943 132.637C192.585 132.202 193.219 131.782 193.868 131.354C194.244 131.103 194.628 130.852 195.011 130.594C195.594 130.218 196.162 129.835 196.744 129.459C197.43 129.009 198.123 128.559 198.816 128.116C200.918 126.76 203.027 125.425 205.151 124.105C205.822 123.692 206.493 123.272 207.171 122.859C208.322 122.158 209.48 121.45 210.637 120.757C211.338 120.329 212.061 119.902 212.769 119.481C217.754 116.531 222.798 113.67 227.908 110.92C228.432 110.632 228.963 110.344 229.494 110.064C230.651 109.445 231.824 108.825 232.989 108.221C233.719 107.837 234.457 107.454 235.194 107.078C238.866 105.182 242.576 103.346 246.307 101.554C247.052 101.2 247.804 100.839 248.549 100.492C249.301 100.138 250.053 99.7916 250.805 99.4377C251.506 99.1132 252.199 98.7888 252.9 98.4643C255.37 97.3286 257.863 96.2151 260.363 95.1311C260.96 94.8656 261.565 94.6075 262.162 94.3494C265.215 93.0368 268.29 91.761 271.372 90.5147C272.139 90.1976 272.914 89.8953 273.695 89.5855C278.179 87.8083 282.699 86.1049 287.257 84.4826C288.046 84.195 288.835 83.9221 289.631 83.6419C290.273 83.4133 290.907 83.192 291.549 82.9708C292.493 82.6463 293.444 82.3219 294.395 81.9974C294.992 81.7983 295.59 81.5918 296.187 81.3927C296.534 81.282 296.888 81.1641 297.234 81.0461C298.562 80.611 299.889 80.1759 301.231 79.7556C306.541 78.0595 311.887 76.4666 317.285 74.977C317.838 74.8222 318.391 74.6673 318.944 74.5198C322.086 73.6644 325.249 72.8385 328.428 72.0568C328.907 71.9314 329.394 71.8134 329.881 71.7028C330.323 71.5921 330.765 71.4816 331.215 71.3783C332.764 71.0022 334.312 70.6409 335.876 70.2869C344.253 68.3696 352.734 66.6956 361.295 65.2724C362.106 65.1396 362.91 65.0069 363.721 64.8741C364.046 64.8225 364.378 64.7709 364.702 64.7193C365.646 64.5644 366.605 64.417 367.556 64.2768C368.352 64.1588 369.156 64.0409 369.96 63.9229C371.228 63.7385 372.497 63.5616 373.773 63.392C383.168 62.1162 392.658 61.1353 402.245 60.4717C412.171 59.7932 422.185 59.4392 432.281 59.4392C452.354 59.4392 472.102 60.8183 491.452 63.4804C573.868 74.8148 648.954 109.496 709.777 160.615C647.125 119.12 572.061 94.9467 491.452 94.9467C410.843 94.9467 335.78 119.127 273.128 160.615C167.188 230.76 96.7407 350.401 95.0151 486.296C95.0003 487.999 94.9856 489.71 94.9856 491.414C94.9856 493.117 95.0003 494.828 95.0151 496.531C95.664 556.227 107.692 614.145 130.795 668.774C153.744 723.034 186.597 771.764 228.439 813.606C270.281 855.448 319.003 888.301 373.271 911.25C382.828 915.291 392.489 918.993 402.245 922.363C507.337 958.829 626.005 954.721 727.992 911.25C754.989 899.834 780.608 885.97 804.7 869.762C767.872 900.328 726.974 925.202 682.654 943.947C622.03 969.566 557.704 982.56 491.416 982.56C425.128 982.56 360.809 969.566 300.221 943.94C255.901 925.195 215.003 900.321 178.176 869.754C166.399 859.983 155.042 849.63 144.121 838.708C99.0267 793.614 63.6225 741.094 38.8816 682.608C13.7719 623.23 0.793091 560.246 0.284259 495.366C0.284259 495.086 0.284259 494.806 0.284259 494.518C0.284259 493.486 0.26951 492.446 0.26951 491.414Z" fill="black"/>
            </g>
            <g id="spiral_middle">
                <path id="Vector_3" d="M802.125 606.821C790.916 637.109 775.409 665.443 755.834 691.351C729.077 726.766 695.866 756.065 657.133 778.427C618.399 800.79 576.424 814.9 532.372 820.367C500.148 824.365 467.855 823.628 436.021 818.191C425.842 816.454 415.712 814.235 405.645 811.538C364.079 800.4 325.669 781.654 291.478 755.823C257.308 730.009 228.833 698.184 206.793 661.194C206.444 660.609 206.096 660.017 205.747 659.431C205.652 659.268 205.557 659.104 205.46 658.936C205.112 658.332 204.753 657.73 204.404 657.126C204.056 656.523 203.705 655.915 203.365 655.307C203.268 655.139 203.174 654.975 203.079 654.812C202.747 654.216 202.408 653.619 202.076 653.024C128.289 520.374 169.367 353.516 293.893 269.68C310.082 258.747 328.836 248.713 347.044 241.338C399.03 220.155 454.61 215.089 507.402 224.44C456.789 221.33 404.767 232.529 357.66 259.726C310.554 286.923 274.847 326.38 252.231 371.763C213.988 448.498 213.187 542.183 258.028 622.179C258.594 623.18 259.163 624.184 259.737 625.18C260.312 626.175 260.898 627.17 261.481 628.161C282.001 662.827 308.571 692.615 340.504 716.744C372.222 740.71 407.862 758.103 446.431 768.437C485 778.772 524.557 781.532 564.013 776.633C570.961 775.77 577.855 774.674 584.694 773.352C605.006 769.41 624.783 763.439 643.886 755.473C656.126 750.371 668.095 744.449 679.743 737.724C715.688 716.971 746.491 689.798 771.308 656.957C783.233 641.177 793.526 624.432 802.137 606.831L802.125 606.821Z" fill="#FF4500"/>
                <path id="Vector_4" d="M778.437 325.697C778.785 326.301 779.136 326.908 779.476 327.517C779.573 327.685 779.667 327.848 779.762 328.012C780.094 328.608 780.433 329.205 780.765 329.8C781.011 330.245 781.256 330.689 781.501 331.134C781.553 331.224 781.608 331.319 781.649 331.41C781.792 331.678 781.94 331.943 782.085 332.216C782.226 332.479 782.373 332.744 782.517 333.012C783.026 333.954 783.528 334.893 784.024 335.842C784.299 336.368 784.573 336.893 784.845 337.414C785.044 337.788 785.238 338.164 785.428 338.543C786.44 340.515 787.426 342.491 788.388 344.476C788.553 344.811 788.721 345.151 788.877 345.492C789.106 345.969 789.333 346.441 789.558 346.92C789.714 347.25 789.872 347.583 790.028 347.913C790.445 348.804 790.862 349.696 791.266 350.594C791.855 351.874 792.429 353.157 792.991 354.448C793.882 356.479 794.744 358.509 795.588 360.55C795.711 360.852 795.834 361.155 795.959 361.451C800.784 373.271 804.777 385.273 807.952 397.391C808.099 397.944 808.239 398.495 808.379 399.046C808.522 399.602 808.662 400.153 808.802 400.704C809.065 401.776 809.33 402.853 809.584 403.93C810.252 406.728 810.875 409.539 811.452 412.349C811.67 413.413 811.882 414.468 812.091 415.537C812.424 417.258 812.744 418.976 813.048 420.696C813.311 422.188 813.561 423.675 813.795 425.166C813.902 425.84 814.005 426.516 814.113 427.189C814.183 427.649 814.253 428.108 814.321 428.574C814.496 429.783 814.669 430.988 814.83 432.193C815.057 433.861 815.266 435.527 815.46 437.196C815.589 438.305 815.714 439.417 815.833 440.538C815.891 441.096 815.95 441.648 816.004 442.209C816.058 442.769 816.113 443.323 816.165 443.88C816.216 444.436 816.267 444.993 816.318 445.549C816.417 446.665 816.508 447.779 816.592 448.89C816.717 450.559 816.833 452.233 816.931 453.906C816.96 454.464 816.996 455.024 817.023 455.577C817.112 457.244 817.188 458.918 817.246 460.591C817.268 461.147 817.286 461.706 817.301 462.26C817.314 462.689 817.326 463.119 817.339 463.549C817.404 466.131 817.434 468.71 817.426 471.284C817.428 471.754 817.427 472.22 817.421 472.688C817.41 474.511 817.384 476.336 817.339 478.16C817.328 478.569 817.317 478.977 817.306 479.386C817.238 481.677 817.146 483.966 817.029 486.251C816.999 486.746 816.977 487.246 816.947 487.741C816.928 488.137 816.903 488.53 816.876 488.931C816.843 489.432 816.814 489.938 816.779 490.446C816.664 492.156 816.534 493.863 816.387 495.568C816.342 496.117 816.29 496.675 816.241 497.227C816.142 498.33 816.037 499.431 815.923 500.537C815.869 501.09 815.808 501.643 815.75 502.188C815.572 503.841 815.382 505.492 815.173 507.14C815.106 507.691 815.032 508.239 814.964 508.789C814.753 510.434 814.52 512.08 814.28 513.724C814.199 514.271 814.118 514.817 814.033 515.366C813.959 515.857 813.884 516.343 813.804 516.831C813.708 517.432 813.611 518.04 813.507 518.646C813.428 519.146 813.344 519.637 813.258 520.135C813.157 520.727 813.057 521.319 812.945 521.912C812.851 522.455 812.752 523.001 812.653 523.546C812.556 524.085 812.453 524.633 812.35 525.181C812.15 526.267 811.936 527.35 811.718 528.436C811.61 528.975 811.5 529.521 811.388 530.063C811.055 531.686 810.704 533.307 810.34 534.926C810.221 535.466 810.101 536.006 809.976 536.544C809.73 537.622 809.478 538.698 809.213 539.771C809.084 540.305 808.952 540.841 808.821 541.382C808.688 541.918 808.556 542.454 808.419 542.993C808.283 543.525 808.146 544.064 808.007 544.598C807.735 545.651 807.457 546.703 807.173 547.752C807.021 548.305 806.873 548.856 806.715 549.407C806.568 549.94 806.418 550.475 806.269 551.003C805.965 552.069 805.663 553.128 805.343 554.186C805.19 554.717 805.03 555.246 804.87 555.775C802.709 562.941 800.269 570.021 797.563 576.996C797.364 577.519 797.161 578.033 796.953 578.549C795.619 581.94 794.218 585.305 792.755 588.644C792.594 589.012 792.429 589.383 792.264 589.754C792.104 590.123 791.941 590.487 791.773 590.854C791.587 591.278 791.394 591.699 791.207 592.123C790.579 593.503 789.939 594.883 789.291 596.258C789.089 596.684 788.887 597.111 788.683 597.534C788.289 598.364 787.88 599.198 787.475 600.03C787.247 600.5 787.018 600.96 786.783 601.429C786.648 601.702 786.508 601.978 786.371 602.258C786.158 602.675 785.955 603.09 785.742 603.507C785.493 604.001 785.239 604.498 784.984 604.99C784.213 606.492 783.431 607.984 782.635 609.472C782.383 609.939 782.132 610.411 781.875 610.882C781.439 611.679 781.001 612.484 780.559 613.279C780.294 613.766 780.016 614.259 779.744 614.744C777.826 618.15 775.843 621.523 773.785 624.855C773.576 625.2 773.363 625.547 773.147 625.89C772.68 626.643 772.203 627.4 771.727 628.147C771.429 628.617 771.128 629.09 770.824 629.558C769.317 631.905 767.769 634.23 766.193 636.536C765.877 636.994 765.559 637.459 765.241 637.913C764.921 638.373 764.598 638.83 764.278 639.29C763.978 639.716 763.683 640.14 763.383 640.566C762.322 642.063 761.241 643.555 760.146 645.032C759.887 645.388 759.62 645.743 759.358 646.095C758.017 647.893 756.651 649.676 755.27 651.444C754.928 651.888 754.578 652.326 754.226 652.771C752.205 655.322 750.138 657.843 748.022 660.328C747.658 660.763 747.289 661.188 746.918 661.621C746.621 661.971 746.325 662.314 746.024 662.66C745.582 663.168 745.136 663.678 744.689 664.189C744.407 664.507 744.128 664.829 743.846 665.147C743.681 665.329 743.514 665.517 743.351 665.703C742.722 666.405 742.093 667.107 741.451 667.805C738.92 670.588 736.333 673.323 733.681 676.014C733.41 676.292 733.14 676.569 732.866 676.841C731.319 678.401 729.749 679.951 728.155 681.48C727.917 681.715 727.673 681.949 727.426 682.177C727.204 682.391 726.983 682.605 726.755 682.817C725.977 683.56 725.194 684.293 724.4 685.028C720.151 688.975 715.76 692.814 711.237 696.534C710.808 696.886 710.383 697.234 709.954 697.586C709.781 697.725 709.605 697.867 709.433 698.007C708.933 698.416 708.423 698.826 707.914 699.229C707.489 699.566 707.059 699.906 706.629 700.246C705.95 700.782 705.268 701.314 704.58 701.843C699.52 705.758 694.305 709.534 688.926 713.156C683.355 716.901 677.622 720.487 671.722 723.893C659.992 730.666 647.986 736.523 635.78 741.496C583.794 762.679 528.214 767.745 475.422 758.393C526.035 761.504 578.057 750.304 625.164 723.107C672.27 695.91 707.977 656.454 730.593 611.071C768.836 534.336 769.637 440.651 724.796 360.655C724.23 359.654 723.661 358.649 723.087 357.654C722.512 356.658 721.926 355.664 721.343 354.673C700.823 320.007 674.253 290.219 642.32 266.09C610.602 242.124 574.962 224.731 536.393 214.397C497.824 204.062 458.267 201.302 418.811 206.201C411.863 207.064 404.969 208.16 398.13 209.482C324.413 223.629 256.451 266.067 211.519 325.881C199.594 341.661 189.3 358.406 180.69 376.007C191.898 345.719 207.406 317.384 226.981 291.476C253.766 256.051 286.973 226.755 325.71 204.39C364.448 182.024 406.419 167.917 450.471 162.45C482.695 158.452 514.988 159.189 546.822 164.626C557.001 166.363 567.131 168.581 577.198 171.279C618.764 182.417 657.174 201.163 691.365 226.994C726.072 253.222 754.907 285.65 777.095 323.392C777.189 323.556 777.284 323.72 777.381 323.888C777.729 324.491 778.089 325.094 778.437 325.697Z" fill="black"/>
            </g>
            <g id="spiral_big">
                <path id="Vector_5" d="M322.811 519.996C320.005 503.571 319.625 486.909 321.688 470.283C324.507 447.556 331.789 425.896 343.327 405.911C354.865 385.926 369.981 368.793 388.255 354.985C401.622 344.885 416.242 336.884 431.869 331.101C436.866 329.251 441.964 327.629 447.159 326.237C468.605 320.491 490.604 318.958 512.546 321.68C534.474 324.399 555.408 331.274 574.798 342.116C575.106 342.288 575.414 342.462 575.721 342.634C575.805 342.683 575.89 342.731 575.977 342.782C576.288 342.961 576.604 343.138 576.915 343.318C577.227 343.497 577.54 343.678 577.849 343.862C577.935 343.912 578.02 343.961 578.104 344.01C578.406 344.19 578.712 344.37 579.014 344.55C646.206 384.787 670.897 469.942 636.882 539.528C632.468 548.59 626.677 557.912 620.444 565.905C602.679 588.781 579.151 605.384 553.15 614.824C576.568 603.157 596.924 584.732 610.956 560.427C624.989 536.122 630.765 509.279 629.162 483.166C626.455 439.013 602.644 396.944 561.97 372.767C561.459 372.466 560.946 372.164 560.432 371.867C559.918 371.571 559.4 371.277 558.884 370.985C540.772 360.789 521.214 354.333 500.721 351.789C480.365 349.263 459.953 350.686 440.053 356.018C420.153 361.35 401.766 370.322 385.399 382.69C382.517 384.868 379.719 387.136 377.005 389.491C368.945 396.492 361.649 404.263 355.168 412.75C351.015 418.188 347.195 423.922 343.725 429.932C333.017 448.478 326.263 468.566 323.647 489.643C322.389 499.771 322.109 509.909 322.803 519.994L322.811 519.996Z" fill="#FF4500"/>
                <path id="Vector_6" d="M405.919 639.5C405.608 639.321 405.294 639.14 404.986 638.956C404.899 638.906 404.815 638.857 404.73 638.808C404.428 638.628 404.122 638.448 403.82 638.268C403.596 638.133 403.372 637.997 403.148 637.862C403.101 637.835 403.052 637.807 403.01 637.776C402.877 637.694 402.743 637.613 402.607 637.529C402.477 637.448 402.342 637.367 402.209 637.284C401.739 636.995 401.272 636.705 400.806 636.409C400.547 636.245 400.289 636.081 400.033 635.918C399.848 635.803 399.664 635.685 399.482 635.564C398.52 634.944 397.57 634.315 396.628 633.677C396.468 633.569 396.305 633.461 396.148 633.349C395.922 633.195 395.699 633.042 395.475 632.886C395.32 632.779 395.163 632.671 395.009 632.564C394.593 632.273 394.176 631.983 393.764 631.685C393.17 631.265 392.583 630.84 391.999 630.408C391.077 629.731 390.168 629.046 389.264 628.352C389.131 628.248 388.998 628.145 388.866 628.045C383.661 624.008 378.78 619.675 374.235 615.08C374.027 614.871 373.822 614.66 373.617 614.45C373.41 614.239 373.206 614.029 373.001 613.819C372.607 613.407 372.211 612.995 371.819 612.579C370.799 611.501 369.795 610.405 368.812 609.298C368.441 608.879 368.074 608.463 367.704 608.039C367.112 607.356 366.526 606.671 365.946 605.98C365.444 605.382 364.948 604.782 364.459 604.176C364.237 603.903 364.017 603.627 363.795 603.354C363.645 603.167 363.496 602.98 363.345 602.789C362.955 602.294 362.567 601.8 362.184 601.303C361.652 600.617 361.129 599.926 360.611 599.23C360.268 598.768 359.925 598.303 359.583 597.833C359.413 597.598 359.244 597.367 359.075 597.131C358.907 596.894 358.739 596.661 358.572 596.425C358.406 596.19 358.24 595.954 358.073 595.719C357.741 595.246 357.413 594.772 357.089 594.297C356.602 593.583 356.119 592.865 355.643 592.143C355.486 591.901 355.326 591.66 355.171 591.42C354.702 590.698 354.236 589.97 353.778 589.237C353.625 588.994 353.473 588.749 353.323 588.506C353.207 588.317 353.09 588.128 352.974 587.94C352.278 586.803 351.599 585.658 350.939 584.506C350.817 584.296 350.697 584.088 350.579 583.877C350.114 583.06 349.655 582.237 349.204 581.411C349.104 581.225 349.003 581.04 348.903 580.855C348.342 579.813 347.793 578.767 347.255 577.715C347.141 577.487 347.022 577.257 346.908 577.029C346.814 576.847 346.724 576.664 346.632 576.478C346.518 576.246 346.4 576.012 346.285 575.777C345.895 574.982 345.513 574.187 345.139 573.386C345.017 573.13 344.896 572.867 344.776 572.608C344.535 572.09 344.299 571.57 344.064 571.047C343.945 570.785 343.83 570.523 343.716 570.264C343.368 569.48 343.028 568.693 342.696 567.903C342.584 567.639 342.475 567.375 342.363 567.112C342.034 566.323 341.713 565.527 341.396 564.73C341.292 564.465 341.187 564.2 341.083 563.933C340.989 563.695 340.898 563.458 340.807 563.219C340.695 562.926 340.582 562.629 340.472 562.332C340.378 562.088 340.289 561.847 340.199 561.602C340.091 561.312 339.983 561.021 339.88 560.727C339.782 560.46 339.686 560.191 339.589 559.922C339.494 559.656 339.398 559.385 339.303 559.113C339.112 558.576 338.928 558.037 338.746 557.496C338.655 557.227 338.563 556.955 338.473 556.684C338.203 555.872 337.942 555.057 337.687 554.24C337.601 553.968 337.515 553.696 337.433 553.423C337.264 552.878 337.099 552.332 336.941 551.785C336.86 551.513 336.781 551.239 336.7 550.964C336.621 550.69 336.542 550.416 336.464 550.14C336.388 549.867 336.31 549.591 336.234 549.316C336.084 548.776 335.937 548.234 335.793 547.692C335.719 547.406 335.643 547.122 335.571 546.834C335.499 546.559 335.428 546.281 335.359 546.006C335.219 545.451 335.081 544.9 334.951 544.345C334.883 544.068 334.818 543.79 334.753 543.513C333.869 539.753 333.133 535.961 332.543 532.145C332.497 531.861 332.455 531.579 332.415 531.294C332.136 529.435 331.894 527.57 331.686 525.701C331.663 525.494 331.641 525.286 331.619 525.078C331.596 524.872 331.575 524.667 331.555 524.46C331.529 524.222 331.507 523.984 331.481 523.747C331.405 522.968 331.335 522.186 331.27 521.405C331.25 521.162 331.23 520.919 331.213 520.678C331.174 520.205 331.142 519.727 331.109 519.251C331.089 518.982 331.073 518.717 331.057 518.447C331.047 518.29 331.038 518.131 331.027 517.97C331.015 517.729 330.998 517.491 330.986 517.25C330.97 516.965 330.955 516.678 330.942 516.392C330.899 515.522 330.863 514.653 330.835 513.783C330.827 513.509 330.817 513.234 330.811 512.957C330.8 512.488 330.788 512.016 330.781 511.546C330.774 511.26 330.771 510.968 330.767 510.682C330.745 508.665 330.761 506.646 330.821 504.626C330.826 504.418 330.831 504.208 330.839 503.999C330.854 503.542 330.871 503.081 330.892 502.624C330.903 502.338 330.916 502.048 330.931 501.761C330.999 500.323 331.091 498.885 331.2 497.448C331.223 497.162 331.245 496.872 331.27 496.587C331.294 496.299 331.321 496.012 331.345 495.723C331.369 495.456 331.392 495.19 331.416 494.923C331.504 493.98 331.602 493.035 331.71 492.092C331.734 491.866 331.762 491.639 331.788 491.414C331.924 490.264 332.074 489.115 332.235 487.969C332.273 487.682 332.317 487.396 332.359 487.107C332.604 485.445 332.877 483.786 333.181 482.129C333.232 481.841 333.287 481.556 333.341 481.267C333.384 481.034 333.428 480.804 333.473 480.572C333.539 480.231 333.607 479.888 333.675 479.544C333.719 479.33 333.76 479.114 333.804 478.899C333.831 478.775 333.857 478.648 333.882 478.523C333.982 478.047 334.082 477.571 334.189 477.093C334.602 475.197 335.052 473.307 335.543 471.42C335.592 471.227 335.642 471.033 335.694 470.841C335.983 469.744 336.284 468.647 336.602 467.552C336.648 467.386 336.697 467.219 336.748 467.053C336.792 466.9 336.835 466.747 336.883 466.594C337.039 466.061 337.199 465.532 337.365 464.999C338.245 462.139 339.217 459.29 340.278 456.461C340.379 456.194 340.479 455.928 340.58 455.66C340.621 455.554 340.663 455.445 340.704 455.338C340.822 455.026 340.944 454.711 341.068 454.4C341.171 454.14 341.275 453.877 341.379 453.614C341.545 453.199 341.712 452.786 341.883 452.372C343.134 449.317 344.49 446.285 345.959 443.278C347.482 440.167 349.119 437.086 350.876 434.042C354.371 427.99 358.224 422.276 362.396 416.905C380.16 394.028 403.688 377.426 429.69 367.985C406.272 379.652 385.916 398.077 371.883 422.382C357.851 446.687 352.074 473.53 353.677 499.643C356.385 543.797 380.195 585.865 420.87 610.042C421.381 610.343 421.894 610.645 422.408 610.942C422.921 611.238 423.44 611.532 423.956 611.824C442.068 622.02 461.625 628.476 482.119 631.02C502.474 633.546 522.886 632.123 542.786 626.791C562.686 621.459 581.074 612.487 597.44 600.119C600.323 597.941 603.12 595.673 605.835 593.318C635.125 567.979 654.544 531.483 659.191 493.165C660.448 483.037 660.728 472.899 660.035 462.813C662.84 479.239 663.22 495.9 661.157 512.527C658.328 535.266 651.048 556.923 639.508 576.91C627.969 596.897 612.854 614.029 594.58 627.836C581.213 637.936 566.593 645.938 550.966 651.721C545.97 653.571 540.871 655.193 535.677 656.584C514.23 662.331 492.231 663.863 470.29 661.142C448.015 658.376 426.765 651.325 407.114 640.184C407.029 640.135 406.945 640.087 406.858 640.036C406.547 639.857 406.231 639.68 405.919 639.5Z" fill="black"/>
            </g>
        </g>
    </g>
</svg>
