<svg width="300" height="300" viewBox="0 0 445 446" fill="none" xmlns="http://www.w3.org/2000/svg">
<g id="swirl_check" clip-path="url(#clip0_4783_498)">
<g id="checks">
<path d="M247.847 296.793C245.085 301.576 238.969 303.214 234.186 300.453L154.932 254.695C150.179 251.951 148.526 245.889 151.228 241.112L155.096 234.273C157.832 229.436 163.987 227.757 168.8 230.536L223.99 262.4C228.773 265.161 234.889 263.522 237.65 258.74L318.325 119.006C321.104 114.193 327.274 112.569 332.062 115.39L338.832 119.379C343.56 122.165 345.16 128.242 342.415 132.995L247.847 296.793Z" fill="black"/>
<path d="M227.41 220.763C224.666 225.516 218.604 227.169 213.827 224.467L206.988 220.599C202.15 217.863 200.472 211.707 203.25 206.894L242.061 139.672C244.805 134.919 250.867 133.266 255.645 135.968L262.484 139.836C267.321 142.572 268.999 148.728 266.221 153.541L227.41 220.763Z" fill="#FF4500"/>
<path d="M171.772 317.306C168.986 322.034 162.909 323.634 158.156 320.89L78.9788 275.176C74.1659 272.398 72.5419 266.228 75.3631 261.44L79.3517 254.67C82.1378 249.942 88.2144 248.342 92.9674 251.086L156.971 288.039L172.145 296.8C176.958 299.578 178.582 305.748 175.761 310.536L171.772 317.306Z" fill="#FF4500"/>
</g>
<g id="swirl" class="swirl-spin">
<path id="swirl_orange" d="M80.5749 51.9611C97.2351 38.1332 115.737 26.8807 135.787 18.4004C163.192 6.80763 192.296 0.929506 222.28 0.929505C252.265 0.929504 281.365 6.80763 308.774 18.4004C328.824 26.8807 347.326 38.1332 363.986 51.9611C369.314 56.3814 374.451 61.0652 379.392 66.0059C399.792 86.4059 415.808 110.165 427.001 136.623C438.186 163.065 444.051 191.088 444.448 219.951C444.455 220.408 444.458 220.869 444.465 221.326C444.465 221.453 444.465 221.579 444.465 221.709C444.465 222.177 444.472 222.647 444.472 223.114C444.472 223.581 444.472 224.051 444.465 224.518C444.465 224.649 444.465 224.775 444.465 224.902C444.458 225.359 444.455 225.819 444.448 226.277C442.824 328.026 363.042 411.134 262.64 418.066C249.576 418.987 235.324 418.527 222.28 416.705C184.997 411.578 151.029 395.888 123.513 372.763C151.856 391.535 185.814 402.47 222.28 402.47C258.747 402.47 292.704 391.531 321.048 372.763C368.973 341.03 400.843 286.906 401.623 225.429C401.63 224.659 401.637 223.885 401.637 223.114C401.637 222.343 401.63 221.569 401.623 220.799C401.33 193.793 395.889 167.592 385.437 142.879C375.055 118.332 360.193 96.2872 341.264 77.3585C322.335 58.4297 300.294 43.5676 275.744 33.1858C271.42 31.3577 267.05 29.6829 262.637 28.1584C249.523 23.638 236.038 20.4754 222.277 18.6973C213.46 17.5564 204.526 16.9826 195.509 16.9826C167.683 16.9826 140.691 22.4337 115.273 33.1825C103.06 38.3467 91.4704 44.6185 80.5715 51.9511L80.5749 51.9611Z" fill="#FF4500"/>
<path id="swirl_black" d="M0.0910547 223.121C0.0910547 222.654 0.0910547 222.183 0.0977268 221.716C0.0977268 221.586 0.0977268 221.459 0.0977268 221.333C0.104399 220.876 0.107735 220.415 0.114407 219.958C0.121079 219.618 0.127751 219.278 0.134423 218.937C0.134423 218.867 0.134423 218.794 0.141095 218.727C0.147767 218.524 0.151103 218.32 0.157776 218.113C0.164448 217.913 0.167784 217.71 0.174456 217.506C0.194472 216.789 0.217824 216.075 0.247849 215.358C0.264529 214.961 0.281209 214.564 0.29789 214.17C0.307898 213.887 0.321242 213.603 0.337922 213.319C0.411315 211.835 0.501389 210.357 0.608142 208.883C0.624823 208.632 0.641503 208.379 0.664855 208.129C0.691544 207.775 0.718232 207.425 0.748256 207.071C0.768273 206.828 0.788289 206.581 0.808305 206.337C0.865018 205.68 0.921731 205.023 0.988452 204.366C1.07519 203.425 1.17193 202.487 1.27869 201.55C1.44216 200.072 1.6223 198.604 1.81579 197.136C1.84582 196.919 1.87584 196.703 1.90253 196.489C3.06348 188.009 4.7682 179.702 6.98667 171.602C7.08676 171.232 7.19017 170.865 7.29359 170.498C7.39701 170.128 7.50043 169.761 7.60384 169.394C7.81068 168.683 8.01751 167.969 8.23102 167.259C8.78147 165.41 9.36194 163.569 9.9691 161.744C10.1993 161.054 10.4295 160.37 10.6663 159.679C11.05 158.568 11.4403 157.464 11.8406 156.363C12.1876 155.409 12.5412 154.462 12.9048 153.517C13.0683 153.09 13.2351 152.663 13.3986 152.236C13.512 151.946 13.6254 151.656 13.7422 151.362C14.0458 150.602 14.3493 149.844 14.6596 149.09C15.0866 148.046 15.5236 147.009 15.9707 145.975C16.2676 145.287 16.5678 144.6 16.8747 143.91C17.0282 143.566 17.1783 143.226 17.3351 142.882C17.4919 142.538 17.6454 142.198 17.8022 141.858C17.959 141.518 18.1157 141.177 18.2725 140.837C18.5895 140.157 18.9097 139.479 19.2333 138.805C19.7204 137.795 20.2141 136.784 20.7179 135.78C20.888 135.446 21.0548 135.109 21.2249 134.779C21.732 133.781 22.2491 132.784 22.7762 131.793C22.9497 131.463 23.1265 131.132 23.3033 130.806C23.4401 130.552 23.5769 130.298 23.7136 130.045C24.541 128.524 25.3883 127.016 26.2557 125.525C26.4125 125.251 26.5693 124.981 26.7294 124.711C27.3466 123.656 27.9738 122.606 28.611 121.561C28.7544 121.328 28.8979 121.094 29.0413 120.861C29.8486 119.553 30.6693 118.255 31.5033 116.968C31.6868 116.691 31.867 116.407 32.0504 116.13C32.1939 115.907 32.3407 115.687 32.4908 115.463C32.6776 115.183 32.8644 114.899 33.0546 114.616C33.6951 113.662 34.3423 112.714 34.9995 111.773C35.2097 111.47 35.4265 111.163 35.64 110.859C36.067 110.252 36.4974 109.648 36.9344 109.044C37.1513 108.741 37.3714 108.441 37.5883 108.144C38.2455 107.243 38.9094 106.349 39.5832 105.462C39.8068 105.165 40.0336 104.871 40.2571 104.574C40.931 103.69 41.6182 102.813 42.3088 101.939C42.539 101.648 42.7692 101.358 43.0027 101.068C43.2095 100.808 43.4164 100.551 43.6265 100.294C43.8834 99.9771 44.1436 99.6568 44.4072 99.3399C44.6207 99.0763 44.8342 98.8195 45.051 98.5592C45.3079 98.249 45.5648 97.9387 45.8283 97.6318C46.0652 97.3482 46.3054 97.0647 46.5456 96.7811C46.7824 96.5009 47.026 96.2173 47.2695 95.9338C47.7499 95.37 48.237 94.8129 48.7274 94.2557C48.9709 93.9788 49.2178 93.6986 49.4646 93.4217C50.2019 92.591 50.9492 91.7671 51.7031 90.9497C51.9533 90.6762 52.2035 90.4026 52.4571 90.1324C52.9608 89.5886 53.4679 89.0482 53.9816 88.5144C54.2352 88.2475 54.4921 87.9806 54.7489 87.7104C55.0058 87.4435 55.2627 87.1767 55.5229 86.9098C55.7798 86.6462 56.04 86.3793 56.3002 86.1158C56.8106 85.5954 57.3244 85.0783 57.8415 84.5645C58.115 84.2943 58.3852 84.0241 58.6621 83.7572C58.9257 83.497 59.1926 83.2368 59.4561 82.9799C59.9899 82.4628 60.5203 81.9491 61.0607 81.442C61.3276 81.1851 61.5979 80.9315 61.8681 80.678C65.5244 77.2419 69.3141 73.9492 73.224 70.8066C73.5142 70.5698 73.8045 70.3396 74.098 70.1094C76.0096 68.5881 77.9512 67.1036 79.9195 65.6558C80.1363 65.4956 80.3565 65.3355 80.5767 65.1754C80.7935 65.0153 81.0103 64.8584 81.2305 64.7016C81.4807 64.5182 81.7343 64.338 81.9845 64.1545C82.8118 63.564 83.6458 62.9769 84.4832 62.3964C84.7434 62.2163 85.0036 62.0361 85.2638 61.8593C85.7709 61.509 86.288 61.1621 86.8017 60.8151C87.092 60.6183 87.3789 60.4282 87.6724 60.2347C87.8426 60.1212 88.0161 60.0078 88.1895 59.891C88.4531 59.7209 88.71 59.5475 88.9735 59.3773C89.2838 59.1738 89.5973 58.9703 89.9109 58.7701C90.8617 58.1563 91.8158 57.5525 92.7766 56.9553C93.0802 56.7685 93.3838 56.5783 93.6907 56.3915C94.2111 56.0746 94.7349 55.7543 95.2586 55.4408C95.5755 55.2473 95.9025 55.0538 96.2227 54.8636C98.4779 53.5292 100.76 52.2348 103.072 50.9905C103.309 50.8604 103.549 50.7303 103.789 50.6035C104.313 50.3233 104.843 50.043 105.37 49.7695C105.7 49.596 106.034 49.4225 106.368 49.2524C108.029 48.395 109.707 47.5644 111.395 46.7537C111.732 46.5936 112.072 46.4301 112.409 46.2733C112.75 46.1132 113.09 45.9563 113.43 45.7962C113.747 45.6494 114.061 45.5027 114.378 45.3559C115.495 44.8421 116.623 44.3384 117.754 43.848C118.024 43.7279 118.297 43.6111 118.568 43.4944C119.949 42.9006 121.34 42.3234 122.734 41.7596C123.081 41.6162 123.432 41.4794 123.785 41.3393C125.814 40.5353 127.859 39.7647 129.92 39.0307C130.277 38.9006 130.634 38.7772 130.994 38.6504C131.285 38.547 131.572 38.4469 131.862 38.3468C132.289 38.2 132.719 38.0533 133.15 37.9065C133.42 37.8164 133.69 37.723 133.96 37.6329C134.117 37.5829 134.277 37.5295 134.434 37.4761C135.034 37.2793 135.635 37.0825 136.242 36.8923C138.644 36.125 141.063 35.4044 143.505 34.7306C143.755 34.6605 144.005 34.5904 144.255 34.5237C145.676 34.1367 147.108 33.7631 148.545 33.4095C148.762 33.3528 148.982 33.2994 149.203 33.2493C149.403 33.1993 149.603 33.1493 149.806 33.1026C150.507 32.9324 151.208 32.769 151.915 32.6088C155.705 31.7415 159.541 30.9842 163.414 30.3403C163.781 30.2802 164.145 30.2202 164.512 30.1601C164.659 30.1368 164.809 30.1134 164.955 30.0901C165.382 30.02 165.816 29.9533 166.246 29.8899C166.607 29.8366 166.97 29.7832 167.334 29.7298C167.908 29.6464 168.482 29.5664 169.059 29.4896C173.309 28.9125 177.602 28.4688 181.939 28.1685C186.43 27.8616 190.96 27.7015 195.527 27.7015C204.608 27.7015 213.542 28.3253 222.296 29.5297C259.579 34.6572 293.547 50.3466 321.063 73.4721C292.72 54.7002 258.762 43.7646 222.296 43.7646C185.829 43.7646 151.871 54.7035 123.528 73.4721C75.6026 105.205 43.7333 159.329 42.9527 220.806C42.946 221.576 42.9393 222.35 42.9393 223.121C42.9393 223.891 42.946 224.665 42.9527 225.436C43.2462 252.441 48.6873 278.643 59.1392 303.356C69.521 327.903 84.3831 349.948 103.312 368.876C122.241 387.805 144.282 402.667 168.832 413.049C173.155 414.877 177.526 416.552 181.939 418.076C229.481 434.573 283.165 432.715 329.303 413.049C341.516 407.885 353.106 401.613 364.004 394.28C347.344 408.108 328.842 419.361 308.793 427.841C281.367 439.43 252.267 445.309 222.279 445.309C192.291 445.309 163.194 439.43 135.785 427.838C115.735 419.357 97.2336 408.105 80.5733 394.277C75.2457 389.857 70.1081 385.173 65.1674 380.232C44.7675 359.832 28.7511 336.073 17.5586 309.615C6.19937 282.753 0.327916 254.26 0.0977269 224.909C0.0977269 224.782 0.0977269 224.655 0.0977269 224.525C0.0977269 224.058 0.0910548 223.588 0.0910547 223.121Z" fill="var(--text)"/>
</g>
</g>
<defs>
<clipPath id="clip0_4783_498">
<rect width="445" height="446" fill="white"/>
</clipPath>
</defs>
</svg>
