<svg width="200" height="200" viewBox="0 0 445 445" fill="none" xmlns="http://www.w3.org/2000/svg">
<g id="swirl" style="animation: spinPause 6s infinite ease-in-out; transform-origin: center;">
<path id="swirl_orange" d="M81.058 51.0315C97.7183 37.2035 116.22 25.951 136.27 17.4707C163.675 5.87796 192.779 -0.000183105 222.764 -0.000183105C252.748 -0.000183105 281.848 5.87796 309.257 17.4707C329.307 25.951 347.809 37.2035 364.469 51.0315C369.797 55.4517 374.934 60.1355 379.875 65.0762C400.275 85.4762 416.291 109.236 427.484 135.694C438.67 162.135 444.534 190.158 444.931 219.022C444.938 219.479 444.941 219.939 444.948 220.396C444.948 220.523 444.948 220.65 444.948 220.78C444.948 221.247 444.955 221.717 444.955 222.184C444.955 222.651 444.955 223.122 444.948 223.589C444.948 223.719 444.948 223.846 444.948 223.972C444.941 224.429 444.938 224.89 444.931 225.347C443.307 327.096 363.525 410.204 263.123 417.137C250.059 418.057 235.808 417.597 222.764 415.775C185.48 410.648 151.512 394.958 123.996 371.833C152.339 390.605 186.297 401.54 222.764 401.54C259.23 401.54 293.188 390.602 321.531 371.833C369.456 340.1 401.326 285.976 402.106 224.5C402.113 223.729 402.12 222.955 402.12 222.184C402.12 221.414 402.113 220.64 402.106 219.869C401.813 192.864 396.372 166.662 385.92 141.949C375.538 117.402 360.676 95.3576 341.747 76.4288C322.818 57.5 300.777 42.6379 276.227 32.2561C271.904 30.428 267.533 28.7533 263.12 27.2287C250.006 22.7083 236.521 19.5457 222.76 17.7676C213.943 16.6267 205.009 16.0529 195.992 16.0529C168.166 16.0529 141.174 21.504 115.756 32.2528C103.543 37.417 91.9536 43.6888 81.0547 51.0214L81.058 51.0315Z" fill="#FF4500"/>
<path id="swirl_black" d="M0.574219 222.191C0.574219 221.724 0.574219 221.254 0.580891 220.787C0.580891 220.657 0.580891 220.53 0.580891 220.403C0.587563 219.946 0.590899 219.486 0.597571 219.029C0.604243 218.688 0.610915 218.348 0.617587 218.008C0.617587 217.938 0.617587 217.864 0.62426 217.798C0.630932 217.594 0.634268 217.391 0.64094 217.184C0.647612 216.984 0.650948 216.78 0.65762 216.577C0.677636 215.859 0.700989 215.145 0.731013 214.428C0.747693 214.031 0.764374 213.634 0.781054 213.24C0.791062 212.957 0.804406 212.673 0.821087 212.39C0.89448 210.905 0.984553 209.427 1.09131 207.953C1.10799 207.703 1.12467 207.449 1.14802 207.199C1.17471 206.845 1.2014 206.495 1.23142 206.141C1.25144 205.898 1.27145 205.651 1.29147 205.407C1.34818 204.75 1.4049 204.093 1.47162 203.436C1.55835 202.495 1.6551 201.558 1.76185 200.62C1.92532 199.142 2.10547 197.674 2.29896 196.207C2.32898 195.99 2.35901 195.773 2.3857 195.559C3.54664 187.079 5.25136 178.772 7.46984 170.672C7.56992 170.302 7.67334 169.935 7.77676 169.568C7.88017 169.198 7.98359 168.831 8.08701 168.464C8.29385 167.753 8.50068 167.039 8.71419 166.329C9.26464 164.481 9.84511 162.639 10.4523 160.814C10.6825 160.124 10.9126 159.44 11.1495 158.749C11.5332 157.638 11.9235 156.534 12.3238 155.433C12.6707 154.479 13.0244 153.532 13.388 152.588C13.5515 152.161 13.7183 151.734 13.8817 151.307C13.9952 151.016 14.1086 150.726 14.2253 150.433C14.5289 149.672 14.8325 148.915 15.1428 148.161C15.5698 147.117 16.0068 146.079 16.4538 145.045C16.7507 144.358 17.051 143.67 17.3579 142.98C17.5114 142.636 17.6615 142.296 17.8183 141.952C17.9751 141.609 18.1285 141.268 18.2853 140.928C18.4421 140.588 18.5989 140.248 18.7557 139.907C19.0726 139.227 19.3929 138.55 19.7165 137.876C20.2036 136.865 20.6973 135.854 21.201 134.85C21.3712 134.516 21.538 134.179 21.7081 133.849C22.2152 132.852 22.7323 131.854 23.2594 130.863C23.4329 130.533 23.6097 130.203 23.7865 129.876C23.9233 129.622 24.06 129.369 24.1968 129.115C25.0241 127.594 25.8715 126.086 26.7389 124.595C26.8957 124.321 27.0525 124.051 27.2126 123.781C27.8298 122.727 28.4569 121.676 29.0941 120.632C29.2376 120.398 29.381 120.165 29.5245 119.931C30.3318 118.623 31.1525 117.326 31.9865 116.038C32.17 115.761 32.3501 115.477 32.5336 115.201C32.6771 114.977 32.8238 114.757 32.974 114.533C33.1608 114.253 33.3476 113.97 33.5378 113.686C34.1783 112.732 34.8255 111.784 35.4827 110.844C35.6928 110.54 35.9097 110.233 36.1232 109.93C36.5502 109.322 36.9806 108.719 37.4176 108.115C37.6344 107.811 37.8546 107.511 38.0715 107.214C38.7287 106.313 39.3925 105.419 40.0664 104.532C40.2899 104.235 40.5168 103.941 40.7403 103.644C41.4142 102.76 42.1014 101.883 42.792 101.009C43.0222 100.719 43.2523 100.429 43.4859 100.138C43.6927 99.8781 43.8995 99.6212 44.1097 99.3643C44.3666 99.0474 44.6268 98.7271 44.8903 98.4102C45.1039 98.1466 45.3174 97.8898 45.5342 97.6295C45.7911 97.3193 46.048 97.009 46.3115 96.7021C46.5484 96.4185 46.7886 96.135 47.0288 95.8515C47.2656 95.5712 47.5091 95.2877 47.7527 95.0041C48.2331 94.4403 48.7201 93.8832 49.2105 93.326C49.4541 93.0492 49.7009 92.7689 49.9478 92.492C50.6851 91.6613 51.4323 90.8374 52.1863 90.0201C52.4365 89.7465 52.6867 89.4729 52.9402 89.2027C53.444 88.6589 53.9511 88.1185 54.4648 87.5847C54.7184 87.3178 54.9752 87.0509 55.2321 86.7807C55.489 86.5138 55.7459 86.247 56.0061 85.9801C56.263 85.7166 56.5232 85.4496 56.7834 85.1861C57.2938 84.6657 57.8075 84.1486 58.3246 83.6348C58.5982 83.3646 58.8684 83.0944 59.1453 82.8275C59.4089 82.5673 59.6757 82.3071 59.9393 82.0502C60.473 81.5331 61.0035 81.0194 61.5439 80.5123C61.8108 80.2554 62.081 80.0019 62.3512 79.7483C66.0076 76.3122 69.7973 73.0195 73.7072 69.877C73.9974 69.6401 74.2876 69.4099 74.5812 69.1797C76.4928 67.6584 78.4344 66.1739 80.4026 64.7261C80.6195 64.5659 80.8397 64.4058 81.0598 64.2457C81.2767 64.0856 81.4935 63.9288 81.7137 63.772C81.9639 63.5885 82.2174 63.4083 82.4676 63.2249C83.295 62.6344 84.129 62.0472 84.9663 61.4667C85.2266 61.2866 85.4868 61.1064 85.747 60.9296C86.2541 60.5793 86.7712 60.2324 87.2849 59.8855C87.5751 59.6886 87.862 59.4985 88.1556 59.305C88.3258 59.1916 88.4992 59.0781 88.6727 58.9614C88.9362 58.7912 89.1931 58.6178 89.4567 58.4476C89.7669 58.2441 90.0805 58.0406 90.3941 57.8405C91.3449 57.2266 92.299 56.6228 93.2598 56.0257C93.5634 55.8388 93.8669 55.6487 94.1739 55.4619C94.6943 55.1449 95.218 54.8247 95.7418 54.5111C96.0587 54.3176 96.3857 54.1241 96.7059 53.934C98.9611 52.5995 101.243 51.3051 103.555 50.0608C103.792 49.9307 104.032 49.8006 104.272 49.6738C104.796 49.3936 105.326 49.1133 105.853 48.8398C106.184 48.6663 106.517 48.4929 106.851 48.3227C108.512 47.4654 110.19 46.6347 111.878 45.824C112.215 45.6639 112.556 45.5004 112.892 45.3436C113.233 45.1835 113.573 45.0267 113.913 44.8665C114.23 44.7198 114.544 44.573 114.861 44.4262C115.978 43.9124 117.106 43.4087 118.237 42.9183C118.507 42.7982 118.781 42.6815 119.051 42.5647C120.432 41.9709 121.823 41.3937 123.218 40.8299C123.564 40.6865 123.915 40.5497 124.268 40.4096C126.297 39.6056 128.342 38.835 130.403 38.101C130.76 37.9709 131.117 37.8475 131.478 37.7207C131.768 37.6173 132.055 37.5172 132.345 37.4171C132.772 37.2704 133.202 37.1236 133.633 36.9768C133.903 36.8867 134.173 36.7933 134.443 36.7032C134.6 36.6532 134.76 36.5998 134.917 36.5464C135.518 36.3496 136.118 36.1528 136.725 35.9626C139.127 35.1953 141.546 34.4748 143.988 33.8009C144.238 33.7308 144.488 33.6608 144.738 33.5941C146.16 33.2071 147.591 32.8334 149.029 32.4798C149.245 32.4231 149.466 32.3697 149.686 32.3196C149.886 32.2696 150.086 32.2196 150.29 32.1729C150.99 32.0027 151.691 31.8393 152.398 31.6791C156.188 30.8118 160.024 30.0545 163.897 29.4106C164.264 29.3506 164.628 29.2905 164.995 29.2305C165.142 29.2071 165.292 29.1838 165.439 29.1604C165.866 29.0904 166.299 29.0237 166.73 28.9603C167.09 28.9069 167.454 28.8535 167.817 28.8001C168.391 28.7167 168.965 28.6367 169.542 28.5599C173.792 27.9828 178.086 27.5391 182.422 27.2388C186.913 26.9319 191.443 26.7718 196.01 26.7718C205.091 26.7718 214.025 27.3957 222.779 28.6C260.062 33.7275 294.03 49.4169 321.546 72.5424C293.203 53.7705 259.245 42.8349 222.779 42.8349C186.312 42.8349 152.355 53.7738 124.012 72.5424C76.0858 104.275 44.2165 158.399 43.4358 219.876C43.4292 220.647 43.4225 221.42 43.4225 222.191C43.4225 222.962 43.4292 223.736 43.4358 224.506C43.7294 251.512 49.1705 277.713 59.6224 302.427C70.0042 326.973 84.8663 349.018 103.795 367.947C122.724 386.875 144.765 401.737 169.315 412.119C173.639 413.947 178.009 415.622 182.422 417.147C229.965 433.643 283.648 431.785 329.786 412.119C341.999 406.955 353.589 400.683 364.488 393.351C347.827 407.179 329.326 418.431 309.276 426.911C281.85 438.501 252.75 444.379 222.762 444.379C192.774 444.379 163.677 438.501 136.268 426.908C116.218 418.428 97.7167 407.175 81.0565 393.347C75.7288 388.927 70.5913 384.243 65.6506 379.303C45.2506 358.903 29.2342 335.143 18.0418 308.685C6.68253 281.823 0.811079 253.33 0.580891 223.979C0.580891 223.852 0.580891 223.726 0.580891 223.596C0.580891 223.129 0.574219 222.658 0.574219 222.191Z" fill="var(--text)"/>
</g>
</svg>
