<svg width="500" viewBox="0 0 4382 983" fill="none" xmlns="http://www.w3.org/2000/svg">
<g id="app_gen">
<g id="text">
<g id="bayt">
<path d="M1672.74 431.999V2.44922H1851.82C1870.77 2.44922 1888.12 6.48255 1903.85 14.5492C1919.58 22.2126 1933.29 32.6992 1944.99 46.0092C1956.68 58.9159 1965.76 73.6376 1972.21 90.1742C1978.67 106.308 1981.89 122.844 1981.89 139.784C1981.89 163.178 1976.65 185.563 1966.16 206.939C1955.68 227.913 1940.95 245.054 1922 258.364C1903.04 271.271 1880.86 277.724 1855.45 277.724H1727.19V431.999H1672.74ZM1727.19 229.324H1852.42C1867.35 229.324 1880.25 225.291 1891.14 217.224C1902.44 209.158 1911.11 198.268 1917.16 184.554C1923.61 170.841 1926.84 155.918 1926.84 139.784C1926.84 122.844 1923.21 107.719 1915.95 94.4092C1908.69 80.6959 1899.21 70.0076 1887.51 62.3442C1875.82 54.6809 1862.91 50.8492 1848.79 50.8492H1727.19V229.324Z" fill="var(--text)"/>
<path d="M2155.56 431.999V2.44922H2334.64C2353.59 2.44922 2370.94 6.48255 2386.67 14.5492C2402.4 22.2126 2416.11 32.6992 2427.81 46.0092C2439.5 58.9159 2448.58 73.6376 2455.03 90.1742C2461.48 106.308 2464.71 122.844 2464.71 139.784C2464.71 163.178 2459.47 185.563 2448.98 206.939C2438.5 227.913 2423.77 245.054 2404.82 258.364C2385.86 271.271 2363.68 277.724 2338.27 277.724H2210.01V431.999H2155.56ZM2210.01 229.324H2335.24C2350.17 229.324 2363.07 225.291 2373.96 217.224C2385.26 209.158 2393.93 198.268 2399.98 184.554C2406.43 170.841 2409.66 155.918 2409.66 139.784C2409.66 122.844 2406.03 107.719 2398.77 94.4092C2391.51 80.6959 2382.03 70.0076 2370.33 62.3442C2358.63 54.6809 2345.73 50.8492 2331.61 50.8492H2210.01V229.324Z" fill="var(--text)"/>
</g>
<g id="bayt_2">
<path d="M1312.07 980.584C1283.84 980.584 1257.42 974.534 1232.82 962.434C1208.62 949.931 1187.44 933.394 1169.29 912.824C1151.14 891.851 1137.02 868.458 1126.94 842.644C1116.86 816.428 1111.82 789.404 1111.82 761.574C1111.82 732.534 1116.86 705.108 1126.94 679.294C1137.02 653.078 1150.94 629.886 1168.69 609.719C1186.84 589.553 1208.01 573.823 1232.21 562.529C1256.81 550.833 1283.43 544.984 1312.07 544.984C1353.61 544.984 1387.9 553.656 1414.92 570.999C1441.94 588.343 1462.31 610.929 1476.03 638.759L1434.28 667.799C1421.78 642.793 1404.64 624.239 1382.86 612.139C1361.08 600.039 1337.08 593.989 1310.86 593.989C1289.08 593.989 1269.32 598.628 1251.57 607.904C1233.82 617.181 1218.5 629.886 1205.59 646.019C1193.09 661.749 1183.41 679.698 1176.55 699.864C1170.1 720.031 1166.87 741.004 1166.87 762.784C1166.87 785.774 1170.5 807.554 1177.76 828.124C1185.42 848.291 1196.11 866.239 1209.83 881.969C1223.54 897.296 1239.47 909.396 1257.62 918.269C1275.77 927.143 1295.33 931.579 1316.31 931.579C1340.91 931.579 1364.3 925.328 1386.49 912.824C1408.67 900.321 1429.64 881.163 1449.41 855.349V911.614C1410.69 957.594 1364.91 980.584 1312.07 980.584ZM1442.75 804.529H1350.19V763.389H1488.73V977.559H1442.75V804.529Z" fill="var(--text)"/>
<path d="M1944.82 929.159V977.559H1653.21V548.009H1939.38V596.409H1707.66V735.559H1909.13V780.934H1707.66V929.159H1944.82Z" fill="var(--text)"/>
<path d="M2155.64 648.439V977.559H2101.19V548.009H2147.17L2409.74 883.784V548.614H2464.19V977.559H2414.58L2155.64 648.439Z" fill="var(--text)"/>
</g>
<path id="a-1" fill-rule="evenodd" clip-rule="evenodd" d="M1336.02 2L1509.74 431.201H1450.7L1310.37 65.8773L1170.05 431.201H1113L1286.73 2H1336.02Z" fill="var(--text)"/>
</g>
<g id="dynamic_spiral_angle_round">
<g id="dynamic">
<g id="swirl_2">
<path id="Vector" d="M178.534 112.885C215.387 82.2971 256.314 57.4056 300.666 38.6468C361.289 13.0028 425.668 7.37956e-06 491.995 0C558.323 0 622.695 13.0028 683.325 38.6468C727.677 57.4056 768.6 82.2971 805.453 112.885C817.239 122.663 828.603 133.024 839.532 143.953C884.658 189.079 920.088 241.637 944.846 300.164C969.597 358.654 982.563 420.643 983.441 484.491C983.456 485.502 983.463 486.52 983.478 487.531C983.478 487.811 983.478 488.092 983.478 488.38C983.478 489.413 983.5 490.453 983.5 491.486C983.5 492.52 983.493 493.56 983.478 494.593C983.478 494.881 983.478 495.161 983.478 495.442C983.463 496.453 983.456 497.471 983.441 498.482C979.847 723.559 803.365 907.401 581.273 922.736C552.375 924.773 520.849 923.755 491.995 919.725C409.521 908.383 334.383 873.677 273.516 822.522C336.213 864.046 411.329 888.237 491.995 888.237C572.661 888.237 647.778 864.039 710.475 822.522C816.486 752.327 886.983 632.598 888.71 496.608C888.724 494.903 888.739 493.191 888.739 491.486C888.739 489.782 888.724 488.07 888.71 486.365C888.06 426.627 876.024 368.668 852.904 314.001C829.939 259.702 797.063 210.938 755.191 169.066C713.323 127.194 664.567 94.3184 610.26 71.3532C600.696 67.3092 591.029 63.6045 581.266 60.232C552.257 50.2327 522.429 43.2369 491.988 39.3036C472.484 36.7798 452.721 35.5105 432.774 35.5105C371.221 35.5105 311.513 47.5687 255.289 71.3459C228.272 82.7694 202.635 96.643 178.526 112.863L178.534 112.885Z" fill="#FF4500"/>
<path id="Vector_2" d="M0.5 491.5C0.5 490.467 0.5 489.427 0.514759 488.394C0.514759 488.106 0.514759 487.825 0.514759 487.545C0.529519 486.534 0.536898 485.516 0.551657 484.505C0.566417 483.752 0.581175 482.999 0.595934 482.247C0.595934 482.092 0.595935 481.929 0.610694 481.782C0.625453 481.331 0.632833 480.881 0.647592 480.424C0.662351 479.981 0.66973 479.531 0.684489 479.081C0.728766 477.494 0.780424 475.915 0.84684 474.328C0.883737 473.45 0.920636 472.572 0.957533 471.701C0.979672 471.074 1.00919 470.447 1.04609 469.819C1.20844 466.535 1.40766 463.266 1.64381 460.005C1.68071 459.451 1.71761 458.89 1.76926 458.337C1.8283 457.555 1.88734 456.78 1.95375 455.997C1.99803 455.459 2.04231 454.913 2.08658 454.374C2.21204 452.92 2.33749 451.466 2.48508 450.013C2.67695 447.932 2.89096 445.858 3.1271 443.784C3.4887 440.515 3.8872 437.268 4.31521 434.021C4.38163 433.541 4.44804 433.062 4.50708 432.589C7.07517 413.831 10.8461 395.455 15.7535 377.538C15.9749 376.719 16.2037 375.907 16.4325 375.095C16.6612 374.276 16.89 373.464 17.1188 372.653C17.5763 371.081 18.0338 369.502 18.5061 367.93C19.7237 363.841 21.0078 359.768 22.3509 355.731C22.86 354.204 23.3692 352.691 23.8932 351.163C24.7418 348.706 25.6052 346.263 26.4908 343.828C27.2583 341.717 28.0405 339.622 28.8449 337.533C29.2065 336.589 29.5754 335.644 29.937 334.7C30.188 334.058 30.4389 333.415 30.6971 332.766C31.3687 331.084 32.0402 329.408 32.7265 327.741C33.6711 325.431 34.6378 323.136 35.6267 320.848C36.2835 319.328 36.9476 317.808 37.6266 316.28C37.966 315.52 38.2981 314.767 38.6449 314.007C38.9918 313.247 39.3312 312.494 39.6781 311.742C40.0249 310.989 40.3717 310.236 40.7186 309.484C41.4196 307.978 42.1281 306.48 42.8439 304.989C43.9213 302.753 45.0135 300.517 46.1278 298.296C46.5042 297.558 46.8731 296.813 47.2495 296.082C48.3712 293.876 49.515 291.669 50.681 289.478C51.0647 288.747 51.4559 288.016 51.847 287.293C52.1495 286.732 52.4521 286.172 52.7547 285.611C54.5848 282.246 56.4592 278.91 58.3779 275.611C58.7247 275.006 59.0716 274.409 59.4258 273.811C60.791 271.479 62.1784 269.154 63.5879 266.844C63.9052 266.328 64.2225 265.811 64.5398 265.295C66.3257 262.402 68.1413 259.531 69.9862 256.683C70.3921 256.07 70.7906 255.443 71.1965 254.831C71.5138 254.336 71.8385 253.849 72.1706 253.355C72.5838 252.735 72.9971 252.107 73.4177 251.48C74.8346 249.37 76.2662 247.274 77.72 245.193C78.1849 244.521 78.6646 243.842 79.1369 243.171C80.0815 241.828 81.0334 240.492 82.0002 239.156C82.4798 238.485 82.9669 237.821 83.4466 237.164C84.9003 235.171 86.3689 233.194 87.8595 231.231C88.354 230.574 88.8558 229.925 89.3502 229.268C90.8409 227.312 92.3611 225.371 93.8886 223.438C94.3978 222.796 94.907 222.154 95.4236 221.512C95.8811 220.936 96.3386 220.368 96.8036 219.8C97.3718 219.099 97.9474 218.39 98.5304 217.689C99.0027 217.106 99.475 216.538 99.9546 215.962C100.523 215.276 101.091 214.59 101.674 213.911C102.198 213.284 102.729 212.656 103.261 212.029C103.785 211.409 104.323 210.782 104.862 210.155C105.925 208.908 107.002 207.675 108.087 206.443C108.626 205.83 109.172 205.21 109.718 204.598C111.349 202.76 113.002 200.938 114.669 199.13C115.223 198.524 115.776 197.919 116.337 197.322C117.452 196.119 118.573 194.923 119.71 193.743C120.271 193.152 120.839 192.562 121.407 191.964C121.975 191.374 122.543 190.783 123.119 190.193C123.687 189.61 124.263 189.02 124.839 188.437C125.968 187.285 127.104 186.142 128.248 185.005C128.853 184.407 129.451 183.81 130.063 183.219C130.646 182.644 131.237 182.068 131.82 181.5C133 180.356 134.174 179.22 135.369 178.098C135.96 177.53 136.557 176.969 137.155 176.408C145.243 168.807 153.626 161.523 162.275 154.572C162.917 154.048 163.559 153.539 164.208 153.029C168.437 149.664 172.732 146.38 177.086 143.178C177.565 142.824 178.053 142.469 178.54 142.115C179.019 141.761 179.499 141.414 179.986 141.067C180.539 140.661 181.1 140.263 181.654 139.857C183.484 138.551 185.329 137.252 187.181 135.968C187.757 135.569 188.332 135.171 188.908 134.78C190.03 134.005 191.173 133.237 192.31 132.47C192.952 132.035 193.587 131.614 194.236 131.186C194.612 130.935 194.996 130.684 195.38 130.426C195.963 130.05 196.531 129.666 197.114 129.289C197.8 128.839 198.494 128.389 199.188 127.946C201.291 126.588 203.401 125.253 205.527 123.932C206.198 123.519 206.87 123.098 207.549 122.685C208.7 121.984 209.858 121.275 211.017 120.582C211.718 120.154 212.441 119.726 213.15 119.305C218.138 116.353 223.186 113.49 228.3 110.737C228.824 110.449 229.355 110.162 229.887 109.881C231.045 109.261 232.219 108.641 233.384 108.036C234.115 107.653 234.853 107.269 235.591 106.892C239.266 104.996 242.978 103.158 246.712 101.365C247.457 101.011 248.21 100.649 248.955 100.303C249.708 99.9483 250.461 99.6014 251.214 99.2472C251.915 98.9225 252.608 98.5978 253.309 98.2731C255.781 97.1367 258.276 96.0224 260.777 94.9376C261.375 94.6719 261.98 94.4136 262.578 94.1553C265.633 92.8418 268.71 91.5651 271.795 90.318C272.563 90.0006 273.337 89.6981 274.12 89.3881C278.606 87.6097 283.13 85.905 287.691 84.2815C288.48 83.9937 289.27 83.7206 290.067 83.4402C290.709 83.2114 291.344 82.9901 291.986 82.7687C292.93 82.444 293.882 82.1193 294.834 81.7946C295.432 81.5953 296.03 81.3887 296.627 81.1894C296.974 81.0787 297.328 80.9607 297.675 80.8426C299.004 80.4072 300.332 79.9718 301.675 79.5512C306.988 77.8539 312.338 76.2599 317.74 74.7692C318.294 74.6142 318.847 74.4593 319.401 74.3117C322.544 73.4557 325.71 72.6291 328.891 71.8469C329.37 71.7215 329.857 71.6034 330.345 71.4927C330.787 71.382 331.23 71.2713 331.68 71.168C333.23 70.7916 334.78 70.43 336.344 70.0758C344.727 68.1571 353.214 66.4823 361.781 65.058C362.593 64.9252 363.398 64.7923 364.209 64.6594C364.534 64.6078 364.866 64.5562 365.191 64.5045C366.135 64.3496 367.095 64.202 368.047 64.0618C368.844 63.9437 369.648 63.8256 370.452 63.7075C371.722 63.5231 372.991 63.346 374.268 63.1762C383.669 61.8996 393.167 60.918 402.76 60.2538C412.693 59.5749 422.714 59.2207 432.817 59.2207C452.904 59.2207 472.667 60.6008 492.031 63.2648C574.505 74.6069 649.643 109.313 710.51 160.468C647.813 118.943 572.697 94.7531 492.031 94.7531C411.365 94.7531 336.248 118.951 273.551 160.468C167.537 230.662 97.0397 350.389 95.3129 486.379C95.2981 488.084 95.2834 489.796 95.2834 491.5C95.2834 493.205 95.2981 494.917 95.3129 496.622C95.9623 556.359 107.998 614.319 131.119 668.986C154.084 723.285 186.96 772.053 228.831 813.925C270.703 855.796 319.46 888.672 373.766 911.637C383.33 915.681 392.997 919.386 402.76 922.758C507.926 959.25 626.678 955.14 728.738 911.637C755.752 900.214 781.388 886.34 805.497 870.12C768.644 900.708 727.719 925.6 683.368 944.358C622.701 969.995 558.329 982.998 491.994 982.998C425.659 982.998 361.294 969.995 300.664 944.351C256.313 925.592 215.386 900.701 178.532 870.113C166.747 860.335 155.383 849.974 144.453 839.045C99.3274 793.919 63.8978 741.361 39.1394 682.83C14.012 623.41 1.02395 560.381 0.514759 495.456C0.514759 495.176 0.514759 494.895 0.514759 494.607C0.514759 493.574 0.5 492.534 0.5 491.5Z" fill="var(--text)"/>
</g>
<g id="wand_glyph">
<path id="Vector_3" d="M646.97 144.656L672.798 277.488L805.63 303.317L672.798 329.145L646.97 461.977L621.141 329.145L488.309 303.317L621.141 277.488L646.97 144.656Z" fill="var(--text)"/>
<path id="Vector_4" d="M365.07 281.916L403.993 482.091L604.168 521.014L403.993 559.937L365.07 760.112L326.148 559.937L125.973 521.014L326.148 482.091L365.07 281.916Z" fill="#FF4500"/>
<path id="Vector_5" d="M449.197 144.656L460.267 196.313L511.924 207.383L460.267 218.452L449.197 270.109L438.128 218.452L386.471 207.383L438.128 196.313L449.197 144.656Z" fill="var(--text)"/>
<path id="Vector_6" d="M757.663 443.529L765.043 484.117L805.631 491.496L765.043 498.876L757.663 539.464L750.284 498.876L709.696 491.496L750.284 484.117L757.663 443.529Z" fill="var(--text)"/>
<path id="Vector_7" d="M737.739 615.473L745.118 656.06L785.706 663.44L745.118 670.819L737.739 711.407L730.359 670.819L689.771 663.44L730.359 656.06L737.739 615.473Z" fill="var(--text)"/>
<path id="Vector_8" d="M526.683 663.439L538.604 729.004L604.169 740.925L538.604 752.846L526.683 818.41L514.762 752.846L449.198 740.925L514.762 729.004L526.683 663.439Z" fill="var(--text)"/>
</g>
</g>
</g>
</g>
</svg>
