<svg viewBox="0 0 16 16" fill="none" xmlns="http://www.w3.org/2000/svg" id="Discord--Streamline-Unicons" height="16" width="16"><desc>Discord Streamline Icon: https://streamlinehq.com</desc><path d="M6.580933333333332 6.737733333333333c-0.2128 0 -0.4169999999999999 0.08460000000000001 -0.5675333333333332 0.23506666666666667 -0.15046666666666667 0.15053333333333332 -0.235 0.3546666666666667 -0.235 0.5674666666666666 0 0.21293333333333334 0.08453333333333332 0.4170666666666667 0.23506666666666667 0.5674666666666666 0.15046666666666667 0.15059999999999998 0.3546 0.23506666666666667 0.5674666666666666 0.23506666666666667 0.21286666666666665 0 0.41693333333333327 -0.08453333333333332 0.5673999999999999 -0.23506666666666667 0.15053333333333332 -0.15039999999999998 0.23506666666666667 -0.35453333333333337 0.23506666666666667 -0.5674666666666666 0 -0.2128 -0.08453333333333332 -0.41693333333333327 -0.235 -0.5674666666666666 -0.15053333333333332 -0.15046666666666667 -0.35453333333333337 -0.23506666666666667 -0.5674666666666666 -0.23506666666666667Zm2.861666666666667 0c-0.17526666666666668 -0.014866666666666667 -0.3509333333333333 0.0236 -0.504 0.11026666666666665 -0.15306666666666666 0.08666666666666667 -0.2764 0.21739999999999998 -0.35386666666666666 0.3753333333333333 -0.07746666666666666 0.15793333333333331 -0.10546666666666667 0.3355333333333333 -0.08026666666666665 0.5096666666666666 0.02513333333333333 0.174 0.10226666666666667 0.33640000000000003 0.22126666666666664 0.4659333333333333 0.11906666666666667 0.12946666666666667 0.2744 0.22013333333333332 0.44566666666666666 0.25986666666666663 0.17133333333333334 0.03973333333333333 0.3506666666666667 0.026866666666666667 0.5146 -0.037 0.16386666666666666 -0.06386666666666665 0.3046 -0.17573333333333332 0.40386666666666665 -0.32099999999999995 0.09926666666666667 -0.1452 0.15239999999999998 -0.31699999999999995 0.15239999999999998 -0.49279999999999996 0.0046 -0.10973333333333332 -0.012399999999999998 -0.21913333333333332 -0.049999999999999996 -0.32226666666666665 -0.03766666666666667 -0.10306666666666665 -0.09533333333333333 -0.19773333333333332 -0.16953333333333334 -0.27859999999999996 -0.07426666666666666 -0.0808 -0.16373333333333334 -0.1462 -0.26326666666666665 -0.19240000000000002 -0.0996 -0.046266666666666664 -0.2072 -0.07239999999999999 -0.31686666666666663 -0.077ZM13.2528 0.15999999999999998H2.7472666666666665c-0.2116 0.0005333333333333334 -0.42099999999999993 0.042666666666666665 -0.6163333333333333 0.12413333333333333 -0.19526666666666664 0.0814 -0.37259999999999993 0.20053333333333334 -0.5218666666666667 0.3504666666666666 -0.1492 0.15 -0.26746666666666663 0.3279333333333333 -0.3479333333333333 0.5236 -0.08053333333333333 0.19566666666666666 -0.12166666666666666 0.40526666666666666 -0.12113333333333333 0.6168666666666667v10.599733333333333c-0.0005333333333333334 0.21153333333333335 0.0406 0.4212 0.12113333333333333 0.6168666666666667 0.08046666666666666 0.1956 0.19873333333333332 0.37353333333333333 0.348 0.5234666666666666 0.1492 0.15 0.32653333333333334 0.2690666666666667 0.5218666666666667 0.35053333333333336 0.19526666666666664 0.0814 0.4046666666666666 0.12353333333333333 0.6162666666666666 0.12413333333333333h8.890533333333334l-0.41559999999999997 -1.4504666666666666 1.0036 0.9329333333333333 0.9486666666666667 0.8781333333333332L14.86 15.84V1.7750666666666666c0.0005333333333333334 -0.2116 -0.0406 -0.4212 -0.12113333333333333 -0.6168666666666667 -0.08046666666666666 -0.19566666666666666 -0.19866666666666666 -0.3736 -0.3479333333333333 -0.5235333333333333 -0.14933333333333332 -0.15 -0.3266 -0.26913333333333334 -0.5218666666666667 -0.35053333333333336 -0.19526666666666664 -0.08146666666666666 -0.4046666666666666 -0.1236 -0.6162666666666666 -0.12413333333333333Zm-3.0262666666666664 10.238999999999999s-0.28226666666666667 -0.3370666666666667 -0.5174666666666666 -0.635c0.5683333333333334 -0.13373333333333332 1.071 -0.46426666666666666 1.4190666666666667 -0.9329333333333333 -0.28206666666666663 0.18773333333333334 -0.5845333333333333 0.3429333333333333 -0.9016 0.4625333333333333 -0.36473333333333335 0.15566666666666668 -0.7461333333333333 0.2688 -1.1368 0.33713333333333334 -0.6714 0.1236 -1.3599999999999999 0.12093333333333334 -2.0304666666666664 -0.0078 -0.39366666666666666 -0.07706666666666666 -0.7794666666666666 -0.18986666666666666 -1.1526 -0.33713333333333334 -0.19666666666666666 -0.0756 -0.38786666666666664 -0.16473333333333331 -0.5722666666666667 -0.2665333333333333 -0.0236 -0.015733333333333332 -0.04699999999999999 -0.0236 -0.07053333333333334 -0.039266666666666665 -0.0118 -0.0058 -0.022466666666666666 -0.0138 -0.0314 -0.023466666666666667 -0.14106666666666667 -0.07833333333333332 -0.21960000000000002 -0.13333333333333333 -0.21960000000000002 -0.13333333333333333 0.33559999999999995 0.45886666666666664 0.8208666666666666 0.7860666666666667 1.3720666666666665 0.9251333333333333 -0.23513333333333333 0.298 -0.5251999999999999 0.6507333333333333 -0.5251999999999999 0.6507333333333333 -0.46573333333333333 0.012533333333333334 -0.9274 -0.08959999999999999 -1.3443333333333334 -0.2974 -0.4169999999999999 -0.20773333333333333 -0.7764666666666666 -0.5148666666666666 -1.0468666666666666 -0.8942666666666665 0.025466666666666665 -1.5894 0.41146666666666665 -3.1522666666666663 1.1289333333333333 -4.570733333333333 0.6313333333333333 -0.49593333333333334 1.4011333333333333 -0.7835333333333333 2.203 -0.8231999999999999l0.07833333333333332 0.09406666666666666c-0.7544 0.18666666666666668 -1.4584000000000001 0.5373333333333333 -2.0618666666666665 1.0270666666666666 0 0 0.17253333333333332 -0.09406666666666666 0.4625333333333333 -0.2274 0.5636 -0.25726666666666664 1.1642666666666666 -0.42393333333333333 1.7798 -0.4938666666666667 0.04393333333333333 -0.009133333333333334 0.08846666666666667 -0.0144 0.13333333333333333 -0.015733333333333332 0.5254 -0.06839999999999999 1.0570666666666666 -0.07366666666666666 1.5836666666666668 -0.0156 0.8281333333333333 0.09453333333333333 1.6298666666666666 0.35019999999999996 2.3598666666666666 0.7525999999999999 -0.5729333333333333 -0.4663333333333333 -1.2382666666666666 -0.8057333333333332 -1.9520666666666666 -0.9956666666666667l0.10966666666666666 -0.12539999999999998c0.8018666666666667 0.03966666666666666 1.5716 0.32726666666666665 2.2030666666666665 0.8231999999999999 0.7174666666666667 1.4184666666666665 1.1035333333333333 2.9813333333333336 1.129 4.570733333333333 -0.2726666666666666 0.37893333333333334 -0.6337333333333333 0.6856666666666666 -1.0518 0.8934 -0.4181333333333333 0.2076 -0.8806666666666666 0.31006666666666666 -1.3474666666666666 0.2981333333333333Z" fill="#000000" stroke-width="0.6667"></path></svg>