<svg width="50" height="40" viewBox="0 0 50 40" fill="none" xmlns="http://www.w3.org/2000/svg">
<g id="discord 1">
<path id="Vector" d="M40.9765 5.45323C40.963 5.42798 40.9408 5.40853 40.914 5.39854C37.9377 4.03277 34.7969 3.05851 31.5702 2.50011C31.5412 2.49479 31.5113 2.49872 31.4847 2.51134C31.458 2.52396 31.436 2.54462 31.4218 2.57042C30.9938 3.34721 30.6053 4.1451 30.2577 4.96104C26.7777 4.43282 23.2378 4.43282 19.7577 4.96104C19.4088 4.14308 19.0149 3.34499 18.578 2.57042C18.563 2.54539 18.5408 2.52537 18.5144 2.51286C18.488 2.50035 18.4585 2.49592 18.4296 2.50011C15.1972 3.056 12.051 4.03033 9.07022 5.39854C9.04408 5.40962 9.02218 5.42879 9.00772 5.45323C3.0546 14.3517 1.42179 23.0235 2.21866 31.5939C2.22092 31.6154 2.22764 31.6363 2.2384 31.6551C2.24916 31.674 2.26372 31.6903 2.28116 31.7032C5.74885 34.2682 9.62688 36.2257 13.7499 37.4923C13.7795 37.5015 13.8113 37.5011 13.8407 37.4913C13.8702 37.4815 13.8958 37.4627 13.914 37.4376C14.7986 36.2333 15.5825 34.9582 16.2577 33.6251C16.2667 33.6068 16.2718 33.5868 16.2727 33.5663C16.2736 33.5459 16.2703 33.5256 16.263 33.5065C16.2556 33.4874 16.2445 33.4701 16.2301 33.4555C16.2158 33.441 16.1986 33.4296 16.1796 33.422C14.9409 32.9473 13.7419 32.3752 12.5937 31.711C12.5734 31.6986 12.5564 31.6815 12.5441 31.6611C12.5318 31.6408 12.5246 31.6177 12.523 31.594C12.5215 31.5703 12.5257 31.5465 12.5353 31.5247C12.5448 31.5029 12.5595 31.4838 12.578 31.4689C12.8202 31.2892 13.0624 31.1017 13.289 30.9142C13.309 30.8966 13.3335 30.8851 13.3598 30.881C13.3861 30.8768 13.413 30.8802 13.4374 30.8907C20.953 34.3204 29.0937 34.3204 36.5233 30.8907C36.5471 30.8791 36.5736 30.8745 36.5998 30.8772C36.6261 30.88 36.651 30.8901 36.6718 30.9064C36.8983 31.0939 37.1405 31.2892 37.3827 31.4689C37.4012 31.4838 37.4159 31.5029 37.4255 31.5247C37.4351 31.5465 37.4393 31.5703 37.4377 31.594C37.4362 31.6177 37.429 31.6408 37.4167 31.6611C37.4044 31.6815 37.3874 31.6986 37.3671 31.711C36.2219 32.3787 35.0223 32.9484 33.7812 33.4142C33.7622 33.4218 33.745 33.4332 33.7307 33.4477C33.7163 33.4623 33.7051 33.4796 33.6978 33.4987C33.6905 33.5178 33.6871 33.5381 33.688 33.5585C33.6889 33.5789 33.694 33.5989 33.703 33.6173C34.39 34.9437 35.1734 36.218 36.0468 37.4298C36.065 37.4549 36.0906 37.4737 36.12 37.4835C36.1495 37.4933 36.1812 37.4936 36.2108 37.4845C40.3458 36.2235 44.235 34.2657 47.7108 31.6954C47.7286 31.6829 47.7435 31.6666 47.7543 31.6477C47.7651 31.6288 47.7716 31.6077 47.7733 31.586C48.7265 21.6876 46.164 13.086 40.9765 5.45323ZM17.3827 26.3751C15.1171 26.3751 13.2577 24.297 13.2577 21.7501C13.2577 19.2032 15.0858 17.1173 17.3827 17.1173C19.703 17.1173 21.5468 19.211 21.5077 21.7423C21.5077 24.297 19.6796 26.3751 17.3827 26.3751ZM32.6483 26.3751C30.3827 26.3751 28.5233 24.297 28.5233 21.7501C28.5233 19.2032 30.3437 17.1173 32.6483 17.1173C34.9687 17.1173 36.8124 19.211 36.7733 21.7423C36.7733 24.297 34.9608 26.3751 32.6483 26.3751Z" fill="var(--text)"/>
</g>
</svg>
