<svg width="245" height="40" viewBox="0 0 245 40" fill="none" xmlns="http://www.w3.org/2000/svg">
<path fill-rule="evenodd" clip-rule="evenodd" d="M243.508 37.3675C243.487 37.2351 243.467 37.1042 243.445 36.9733C243.311 36.1612 243.145 35.3586 242.952 34.567C242.613 33.184 242.186 31.8343 241.677 30.5271C241.246 29.42 240.756 28.3431 240.212 27.2992C239.513 25.9589 238.724 24.6721 237.852 23.4484C236.783 21.9489 235.59 20.5439 234.287 19.2493C233.74 18.7052 233.174 18.1802 232.59 17.6771C231.324 16.5844 229.972 15.5894 228.548 14.7C228.554 14.6898 228.559 14.6791 228.566 14.6684V14.6681C228.572 14.6577 228.578 14.6471 228.584 14.6369C228.906 14.0792 229.23 13.5217 229.553 12.9643L229.562 12.9485C229.889 12.3845 230.216 11.8205 230.543 11.2562L232.457 7.9542C232.916 7.16419 233.375 6.37255 233.831 5.58255C233.94 5.39487 234.025 5.20095 234.09 5.00232C234.269 4.44881 234.276 3.86694 234.133 3.32602C234.097 3.19206 234.052 3.06118 233.999 2.93347C233.945 2.80566 233.882 2.68112 233.811 2.56129C233.567 2.15134 233.218 1.79492 232.78 1.53469C232.393 1.30454 231.959 1.16732 231.515 1.12792C231.329 1.11216 231.142 1.1137 230.955 1.13263C230.801 1.14839 230.649 1.17683 230.497 1.21623C229.957 1.3597 229.455 1.65616 229.065 2.08503C228.925 2.23956 228.798 2.40993 228.689 2.59751C228.231 3.38752 227.772 4.17916 227.315 4.96917L225.401 8.27113C225.074 8.83483 224.747 9.39823 224.421 9.96155C224.095 10.5249 223.768 11.0882 223.441 11.652C223.424 11.6816 223.408 11.7113 223.39 11.741C223.38 11.7589 223.369 11.7769 223.359 11.795C223.315 11.8705 223.27 11.9462 223.227 12.0225C223.205 12.0138 223.183 12.005 223.162 11.9963C223.085 11.9656 223.008 11.9353 222.931 11.9058C219.333 10.5339 215.43 9.78339 211.35 9.78339C211.237 9.78339 211.128 9.78339 211.015 9.78493C207.388 9.82115 203.902 10.4519 200.65 11.5841C200.275 11.715 199.903 11.8538 199.534 11.9989C199.5 11.9413 199.466 11.8838 199.434 11.8261C199.4 11.7686 199.366 11.7111 199.334 11.6535C199.007 11.0898 198.68 10.5264 198.354 9.96309C198.027 9.39977 197.701 8.83646 197.374 8.27266L195.46 4.9707C195.001 4.1807 194.542 3.38915 194.086 2.59915C193.976 2.41147 193.851 2.24119 193.71 2.08667C193.32 1.65769 192.818 1.36124 192.278 1.21777C192.127 1.17837 191.974 1.15002 191.819 1.13426C191.634 1.11533 191.446 1.11369 191.26 1.12945C190.816 1.16732 190.382 1.30454 189.994 1.53633C189.556 1.79646 189.21 2.15288 188.964 2.56282C188.893 2.68266 188.83 2.80729 188.777 2.935C188.723 3.06271 188.677 3.1936 188.642 3.32765C188.499 3.86848 188.507 4.45034 188.684 5.00386C188.75 5.20258 188.834 5.3965 188.943 5.58418C189.402 6.37419 189.861 7.16573 190.317 7.95574L192.232 11.2577C192.558 11.8212 192.885 12.3843 193.212 12.9474V12.9486C193.538 13.5118 193.865 14.0749 194.191 14.6385C194.194 14.6433 194.196 14.648 194.199 14.6527C194.201 14.6575 194.204 14.6622 194.207 14.6669C192.891 15.4853 191.638 16.392 190.456 17.3838C189.748 17.9784 189.066 18.6012 188.412 19.2524C187.11 20.547 185.918 21.952 184.847 23.4516C183.975 24.6753 183.185 25.9604 182.487 27.3024C181.943 28.3463 181.453 29.4232 181.023 30.5302C180.513 31.8374 180.087 33.1872 179.747 34.5701C179.554 35.3618 179.39 36.1628 179.255 36.9765C179.235 37.0917 179.217 37.2083 179.199 37.3238L179.192 37.3707C179.119 37.8421 179.058 38.3168 179.006 38.7946H243.689C243.637 38.3168 243.575 37.8421 243.503 37.3707L243.508 37.3675ZM228.172 29.8486C229.467 28.987 229.655 26.9936 228.592 25.3964C227.53 23.7991 225.62 23.2028 224.326 24.0644C223.032 24.9261 222.844 26.9194 223.907 28.5166C224.968 30.114 226.879 30.7103 228.172 29.8486ZM198.425 24.07C199.719 24.9316 199.907 26.9249 198.845 28.5222C197.783 30.1194 195.872 30.7158 194.578 29.8541C193.285 28.9925 193.096 26.9992 194.158 25.4019C195.221 23.8047 197.13 23.2083 198.425 24.07Z" fill="#AAAAAA"/>
<path d="M147.012 26.6789C147.012 22.3384 150.145 18.9142 154.097 18.9142C158.05 18.9142 160.941 22.2419 160.941 26.6789C160.941 31.1158 158.001 34.5399 154.097 34.5399C150.193 34.5399 147.012 31.0676 147.012 26.6789ZM133.42 38.7839H138.963V14.6702H133.42V38.7839ZM132.552 6.61632C132.552 8.69008 134.24 10.378 136.216 10.378C138.191 10.378 139.831 8.69008 139.831 6.61632C139.831 4.6872 138.191 3.04751 136.216 3.04751C134.24 3.04751 132.552 4.6872 132.552 6.61632ZM110.815 26.6306C110.815 22.2902 113.996 18.9142 118.093 18.9142C122.19 18.9142 125.371 22.2902 125.371 26.6306C125.371 30.9711 122.141 34.5399 118.093 34.5399C114.044 34.5399 110.815 31.0194 110.815 26.6306ZM105.176 26.6306C105.176 33.8648 110.863 39.5556 118.093 39.5556C125.323 39.5556 131.01 33.8648 131.01 26.6306C131.01 19.3965 125.419 13.8986 118.093 13.8986C110.767 13.8986 105.176 19.4448 105.176 26.6306ZM90.1864 38.7839H95.7293V26.1483C95.7293 21.1327 98.3796 18.9142 102.814 18.9142C103.633 18.9142 104.261 18.9625 104.838 19.1072V14.2363C104.261 14.0433 103.248 13.8986 102.14 13.8986C94.6203 13.8986 90.1864 18.6249 90.1864 26.1483V38.7839ZM67.967 26.6789C67.967 22.3384 71.0999 18.9142 75.0523 18.9142C79.0047 18.9142 81.8962 22.2419 81.8962 26.6789C81.8962 31.1158 78.9567 34.5399 75.0523 34.5399C71.1481 34.5399 67.967 31.0676 67.967 26.6789ZM62.3279 26.6789C62.3279 33.6718 67.9189 39.5556 74.5218 39.5556C77.2692 39.5556 79.7754 38.4463 81.2697 36.6137H81.5109V38.7839H87.0537V1.11838H81.5109V16.6476H81.2697C79.8234 14.9114 77.3173 13.8986 74.5218 13.8986C67.8706 13.8986 62.3279 19.7341 62.3279 26.6789ZM38.0361 38.7839H43.5788V24.6534C43.5788 21.2774 45.8441 18.9142 48.977 18.9142C52.1099 18.9142 54.3752 21.2774 54.3752 24.6534V38.7839H59.918V24.6534C59.918 18.7696 55.2427 13.8986 48.977 13.8986C42.7112 13.8986 38.0361 18.7696 38.0361 24.6534V38.7839ZM12.5874 24.3157L18.564 7.19501H18.8532L24.8298 24.3157H12.5874ZM1.30908 38.7839H7.57484L10.7077 29.8136H26.7095L29.8423 38.7839H36.1081L22.1788 1.11838H15.2383L1.30908 38.7839ZM153.567 39.5556C156.314 39.5556 158.82 38.4463 160.314 36.6137H160.556V38.7839H166.099V1.11838H160.556V16.6476H160.314C158.868 14.9114 156.362 13.8986 153.567 13.8986C146.916 13.8986 141.373 19.7341 141.373 26.6789C141.373 33.6237 146.964 39.5556 153.567 39.5556Z" fill="#AAAAAA"/>
</svg>
