<svg width="205" height="40" viewBox="0 0 205 40" fill="none" xmlns="http://www.w3.org/2000/svg">
<path fill-rule="evenodd" clip-rule="evenodd" d="M9.86713 31.7749C4.52231 31.7749 0 27.8643 0 20.8418C0 13.8193 4.48965 9.90869 9.86713 9.90869C13.2017 9.90869 15.4198 11.334 16.7115 13.463H16.8005V10.5738H22.2226V31.1068H16.8035V28.2177H16.7144C15.4257 30.3496 13.2047 31.772 9.87009 31.772L9.86713 31.7749ZM11.2449 26.6201C14.5349 26.6201 16.7976 24.31 16.7976 20.8418C16.7976 17.3736 14.532 15.0635 11.2449 15.0635C7.95784 15.0635 5.69223 17.3736 5.69223 20.8418C5.69223 24.31 7.95784 26.6201 11.2449 26.6201ZM26.9319 39.997V10.5768H32.3539V13.466H32.443C33.7317 11.334 35.9528 9.91167 39.2874 9.91167C44.6322 9.91167 49.1545 13.8223 49.1545 20.8448C49.1545 27.8673 44.6648 31.7779 39.2874 31.7779C35.9528 31.7779 33.7347 30.3526 32.443 28.2236H32.3539V40L26.9319 39.997ZM37.9096 26.6201C41.1996 26.6201 43.4623 24.31 43.4623 20.8418C43.4623 17.3736 41.1966 15.0635 37.9096 15.0635C34.6225 15.0635 32.3569 17.3736 32.3569 20.8418C32.3569 24.31 34.6225 26.6201 37.9096 26.6201ZM52.7088 39.997V10.5768H58.1308V13.466H58.2199C59.5086 11.334 61.7296 9.91167 65.0642 9.91167C70.409 9.91167 74.9313 13.8223 74.9313 20.8448C74.9313 27.8673 70.4417 31.7779 65.0642 31.7779C61.7296 31.7779 59.5115 30.3526 58.2199 28.2236H58.1308V40L52.7088 39.997ZM63.6864 26.6201C66.9765 26.6201 69.2391 24.31 69.2391 20.8418C69.2391 17.3736 66.9735 15.0635 63.6864 15.0635C60.3994 15.0635 58.1338 17.3736 58.1338 20.8418C58.1338 24.31 60.3994 26.6201 63.6864 26.6201ZM87.1086 31.7749C81.7638 31.7749 77.2415 27.8643 77.2415 20.8418C77.2415 13.8193 81.7311 9.90869 87.1086 9.90869C90.4432 9.90869 92.6613 11.334 93.9529 13.463H94.042V10.5738H99.464V31.1068H94.0361V28.2177H93.947C92.6583 30.3496 90.4372 31.772 87.1027 31.772L87.1086 31.7749ZM88.4864 26.6201C91.7764 26.6201 94.039 24.31 94.039 20.8418C94.039 17.3736 91.7734 15.0635 88.4864 15.0635C85.1993 15.0635 82.9337 17.3736 82.9337 20.8418C82.9337 24.31 85.1993 26.6201 88.4864 26.6201ZM109.729 0V31.1098H104.265V0H109.729ZM124.795 9.91167C131.328 9.91167 136.174 14.4013 136.174 20.8448C136.174 27.2883 131.334 31.7779 124.795 31.7779C118.257 31.7779 113.417 27.2883 113.417 20.8448C113.417 14.4013 118.257 9.91167 124.795 9.91167ZM124.795 15.0664C121.461 15.0664 119.017 17.332 119.017 20.8448C119.017 24.3575 121.461 26.6231 124.795 26.6231C128.13 26.6231 130.526 24.3575 130.526 20.8448C130.526 17.332 128.127 15.0664 124.795 15.0664ZM149.815 9.91167C156.348 9.91167 161.194 14.4013 161.194 20.8448C161.194 27.2883 156.354 31.7779 149.815 31.7779C143.277 31.7779 138.437 27.2883 138.437 20.8448C138.437 14.4013 143.277 9.91167 149.815 9.91167ZM149.815 15.0664C146.481 15.0664 144.037 17.332 144.037 20.8448C144.037 24.3575 146.481 26.6231 149.815 26.6231C153.15 26.6231 155.546 24.3575 155.546 20.8448C155.546 17.332 153.147 15.0664 149.815 15.0664ZM171.503 31.7779C168.659 31.7779 165.416 31.1098 162.705 29.6014L164.926 24.9781C166.969 26.1777 169.327 27.1101 171.815 27.1101C173.508 27.1101 174.348 26.6647 174.348 25.6432C174.348 24.8415 173.769 24.4436 172.566 23.8616L168.878 22.2582C165.633 20.8329 164.255 18.793 164.255 16.1265C164.255 12.1268 167.055 9.90572 172.213 9.90572C174.568 9.90572 177.1 10.4402 179.503 11.331L177.679 15.9097C175.809 15.108 173.769 14.4844 171.901 14.4844C170.298 14.4844 169.814 14.9744 169.814 15.7316C169.814 16.5333 170.348 16.9787 171.773 17.6023L175.461 19.2057C178.351 20.4053 179.996 22.1394 179.996 25.2038C179.996 29.738 176.619 31.7779 171.503 31.7779ZM191.695 31.7779C186.35 31.7779 181.828 27.8673 181.828 20.8448C181.828 13.8223 186.317 9.91167 191.695 9.91167C195.029 9.91167 197.247 11.3369 198.539 13.466H198.628V10.5768H204.05V31.1098H198.628V28.2206H198.539C197.25 30.3526 195.029 31.7779 191.695 31.7779ZM193.073 26.6231C196.363 26.6231 198.625 24.313 198.625 20.8448C198.625 17.3766 196.36 15.0664 193.073 15.0664C189.785 15.0664 187.52 17.3766 187.52 20.8448C187.52 24.313 189.785 26.6231 193.073 26.6231Z" fill="#AAAAAA"/>
</svg>
