<svg width="93" height="40" viewBox="0 0 93 40" fill="none" xmlns="http://www.w3.org/2000/svg">
<g clip-path="url(#clip0_2030_18)">
<mask id="mask0_2030_18" style="mask-type:luminance" maskUnits="userSpaceOnUse" x="0" y="0" width="93" height="27">
<path d="M92.0285 0H0V26.4999H92.0285V0Z" fill="white"/>
</mask>
<g mask="url(#mask0_2030_18)">
<path d="M44.5616 18.5935L40.7332 14.8795C40.6644 15.5662 40.7966 16.3479 41.2441 17.2347C42.0495 18.829 44.5605 21.2485 44.5605 21.2485C44.5605 21.2485 47.0969 18.8363 47.8768 17.2347C48.3072 16.3488 48.433 15.5679 48.3646 14.884L44.5616 18.5935Z" fill="white"/>
</g>
<mask id="mask1_2030_18" style="mask-type:luminance" maskUnits="userSpaceOnUse" x="41" y="7" width="7" height="11">
<path d="M41.2743 13.3052C41.1997 13.4456 41.1729 13.6065 41.1978 13.7635C41.2227 13.9206 41.298 14.0652 41.4123 14.1757L44.5584 17.233L47.6899 14.1766C47.8037 14.0657 47.8785 13.921 47.9031 13.7641C47.9278 13.6072 47.901 13.4465 47.8267 13.3061L44.5489 7.10828L41.2743 13.3052Z" fill="white"/>
</mask>
<g mask="url(#mask1_2030_18)">
<path d="M47.979 7.10828H41.1211V17.233H47.979V7.10828Z" fill="white"/>
</g>
<mask id="mask2_2030_18" style="mask-type:luminance" maskUnits="userSpaceOnUse" x="0" y="0" width="93" height="27">
<path d="M92.0285 0H0V26.4999H92.0285V0Z" fill="white"/>
</mask>
<g mask="url(#mask2_2030_18)">
<path d="M37.3936 24.5124H51.6708V26.5003H37.3936V24.5124Z" fill="#AAAAAA"/>
<path d="M12.8803 13.7174C14.7374 14.2512 15.5471 15.4159 15.5471 16.9568C15.5471 19.0901 14.0072 20.6103 10.2732 20.6103H0V7.10101H9.99705C14.8759 7.10101 15.1922 9.66907 15.1922 10.6755C15.1922 12.3749 14.2637 13.2826 12.8804 13.7173M10.1755 12.4926C11.7154 12.4926 12.4465 11.9989 12.4465 11.0713C12.4465 10.2026 11.8124 9.58965 10.373 9.58965H2.72542V12.4929L10.1755 12.4926ZM2.7257 14.9023V18.0819H10.5695C12.229 18.0819 12.7625 17.3318 12.7625 16.5818C12.7625 15.8318 12.2287 14.9024 10.3729 14.9024L2.7257 14.9023Z" fill="#AAAAAA"/>
<path d="M21.8918 7.10101V15.0209C21.8918 17.233 22.7406 17.8453 25.585 17.8453H32.7231V20.61H25.585C21.121 20.61 19.0674 19.0701 19.0674 15.0208V7.10101H21.8918Z" fill="#AAAAAA"/>
<path d="M56.6514 7.10101H59.4758V14.0924C59.4758 17.3318 59.9786 18.0628 64.4027 18.0628C68.8269 18.0628 69.3107 17.3317 69.3107 14.0924V7.10101H72.1352V14.0924C72.1352 18.9713 70.4666 20.8084 64.4027 20.8084C58.3389 20.8084 56.6514 18.9713 56.6514 14.0924V7.10101Z" fill="#AAAAAA"/>
<path d="M75.676 7.10101H85.5308C90.3699 7.10101 92.0285 9.41185 92.0285 13.8559C92.0285 18.3 90.3699 20.61 85.5308 20.61H75.676V7.10101ZM85.5308 9.84668H78.5004V17.8453H85.5307C88.7501 17.8453 89.1451 16.4431 89.1451 13.8596C89.1451 11.2761 88.7501 9.85027 85.5307 9.85027" fill="#AAAAAA"/>
<path d="M35.1282 16.4865H36.9897C37.4309 16.4864 37.8632 16.3624 38.2373 16.1285C38.6114 15.8947 38.9123 15.5605 39.1057 15.164L44.5327 4.66787L49.9615 15.1649C50.1551 15.5613 50.4561 15.8953 50.8302 16.1289C51.2043 16.3626 51.6365 16.4865 52.0776 16.4865H53.9591C53.9591 16.4865 47.7087 4.97313 45.6252 0.926727C45.3281 0.355138 45.0854 0 44.5327 0C43.9801 0 43.7374 0.355138 43.4457 0.927555C41.3567 4.97221 35.1282 16.4865 35.1282 16.4865Z" fill="#AAAAAA"/>
</g>
<path d="M15.6638 38.2246C15.6069 38.0938 15.5686 37.9557 15.5501 37.8142C15.4031 37.9727 15.2244 38.0984 15.0256 38.1831C14.8268 38.2678 14.6124 38.3096 14.3963 38.3058C13.9546 38.3058 13.5943 38.1799 13.3156 37.9281C13.1818 37.8124 13.075 37.6687 13.0028 37.5073C12.9306 37.3458 12.8947 37.1705 12.8976 36.9936C12.8976 36.5251 13.0717 36.1655 13.4197 35.9149C13.7678 35.6644 14.2653 35.5391 14.9122 35.5392H15.5176V35.2508C15.5274 35.0507 15.4589 34.8548 15.3266 34.7044C15.1993 34.5676 15.0057 34.4993 14.7457 34.4993C14.5478 34.4909 14.353 34.5504 14.1935 34.6679C14.1259 34.7169 14.0711 34.7814 14.0336 34.8559C13.9962 34.9305 13.9771 35.013 13.9781 35.0964H12.9907C12.9923 34.8505 13.0765 34.6123 13.2299 34.42C13.4009 34.2016 13.6257 34.0315 13.8823 33.9264C14.1735 33.804 14.4868 33.7432 14.8026 33.7477C15.3172 33.7477 15.7276 33.877 16.0336 34.1357C16.3396 34.3943 16.4968 34.7579 16.5051 35.2264V37.209C16.4917 37.5328 16.5486 37.8557 16.6717 38.1556V38.2246H15.6638ZM14.5791 37.5138C14.7717 37.5144 14.9613 37.4654 15.1296 37.3716C15.2935 37.2847 15.4284 37.1518 15.5176 36.9892V36.1609H14.9854C14.6197 36.1609 14.3448 36.2246 14.1607 36.3519C14.0722 36.4106 14.0002 36.4912 13.9519 36.5859C13.9035 36.6805 13.8804 36.786 13.8846 36.8922C13.8809 36.9769 13.8959 37.0615 13.9285 37.1398C13.9612 37.2181 14.0107 37.2882 14.0736 37.3452C14.2149 37.4629 14.3954 37.5231 14.5791 37.5138Z" fill="#AAAAAA"/>
<path d="M47.3093 37.5177C47.5336 37.5255 47.7526 37.4485 47.9227 37.3021C48.0006 37.2362 48.0639 37.1549 48.1087 37.0633C48.1534 36.9717 48.1786 36.8718 48.1827 36.7699H49.113C49.1019 37.0442 49.0132 37.3098 48.8571 37.5357C48.6929 37.7764 48.4689 37.9704 48.2071 38.0983C47.9326 38.2368 47.6292 38.3079 47.3218 38.3058C46.707 38.3058 46.2195 38.1068 45.8593 37.7087C45.4991 37.3106 45.3188 36.7607 45.3186 36.0592V35.958C45.3186 35.2893 45.4974 34.7537 45.8549 34.3513C46.2124 33.9489 46.6999 33.7478 47.3174 33.7479C47.8401 33.7479 48.266 33.9003 48.5951 34.205C48.7592 34.3587 48.8899 34.5446 48.979 34.7511C49.0682 34.9576 49.1138 35.1803 49.113 35.4052H48.1827C48.18 35.1726 48.0877 34.9499 47.925 34.7836C47.8447 34.7029 47.7485 34.6397 47.6426 34.5977C47.5368 34.5558 47.4234 34.5361 47.3095 34.5399C47.1672 34.5326 47.0253 34.5606 46.8963 34.6211C46.7674 34.6817 46.6553 34.7731 46.5699 34.8872C46.3963 35.1187 46.3082 35.4701 46.3058 35.9414V36.0999C46.3058 36.5766 46.3917 36.9321 46.5635 37.1663C46.6489 37.2821 46.7618 37.3749 46.892 37.4362C47.0222 37.4976 47.1656 37.5256 47.3093 37.5177ZM49.6737 35.9861C49.6675 35.5835 49.7551 35.185 49.9297 34.8222C50.0864 34.4922 50.3364 34.2154 50.6487 34.0259C50.9711 33.8367 51.3394 33.7404 51.7131 33.7476C52.3063 33.7476 52.7877 33.9385 53.1574 34.3204C53.5271 34.7022 53.7268 35.2087 53.7566 35.8398L53.7607 36.0713C53.7676 36.4726 53.6821 36.8702 53.5108 37.2332C53.3556 37.5618 53.1069 37.8374 52.7957 38.0253C52.4704 38.2163 52.0984 38.3133 51.7212 38.3057C51.101 38.3057 50.6047 38.0991 50.2323 37.6861C49.8599 37.2731 49.6737 36.7227 49.6737 36.0349V35.9861ZM50.6609 36.0714C50.6609 36.5237 50.7543 36.8778 50.9412 37.1338C51.0289 37.2577 51.1462 37.3577 51.2824 37.4248C51.4187 37.4918 51.5695 37.5238 51.7212 37.5177C51.8733 37.5237 52.0244 37.491 52.1604 37.4228C52.2964 37.3546 52.413 37.2531 52.4992 37.1277C52.6847 36.8677 52.7775 36.4873 52.7775 35.9865C52.7775 35.5424 52.682 35.1902 52.4911 34.9302C52.404 34.8057 52.2873 34.7049 52.1515 34.6368C52.0156 34.5687 51.865 34.5355 51.7131 34.5402C51.5634 34.5358 51.4149 34.5685 51.2809 34.6355C51.1469 34.7025 51.0316 34.8017 50.9453 34.9242C50.7557 35.1798 50.6609 35.5622 50.6609 36.0714ZM55.5238 33.8288L55.5523 34.2879C55.861 33.9277 56.2836 33.7476 56.8198 33.7476C57.4075 33.7476 57.8097 33.9724 58.0264 34.422C58.3459 33.9724 58.7955 33.7476 59.3751 33.7476C59.8598 33.7476 60.2207 33.8816 60.4578 34.1497C60.695 34.4179 60.8162 34.8133 60.8214 35.336V38.2246H59.8343V35.3645C59.8343 35.0856 59.7733 34.8811 59.6514 34.7511C59.5295 34.6211 59.3278 34.5561 59.0462 34.5561C58.8468 34.5475 58.6511 34.6118 58.4956 34.7369C58.351 34.8612 58.2469 35.0261 58.197 35.2102L58.201 38.2247H57.2139V35.332C57.2004 34.8147 56.9363 34.5561 56.4217 34.5561C56.0263 34.5561 55.746 34.7172 55.5808 35.0395V38.2246H54.5935V33.8288H55.5238ZM65.6844 36.0714C65.6844 36.7512 65.53 37.2935 65.2212 37.6985C65.079 37.8931 64.8914 38.0501 64.6748 38.156C64.4582 38.2618 64.2191 38.3133 63.9781 38.3058C63.496 38.3058 63.1101 38.1474 62.8203 37.8305V39.9146H61.833V33.8288H62.743L62.7836 34.2757C63.0734 33.9236 63.4675 33.7476 63.9658 33.7476C64.5021 33.7476 64.9225 33.9473 65.2272 34.3468C65.5319 34.7462 65.6842 35.3008 65.6842 36.0104L65.6844 36.0714ZM64.7013 35.9861C64.7013 35.5474 64.6139 35.1993 64.4393 34.942C64.3586 34.8182 64.247 34.7175 64.1156 34.6498C63.9842 34.5821 63.8374 34.5498 63.6897 34.5561C63.2861 34.5561 62.9963 34.7226 62.8203 35.0558V37.0058C62.9991 37.3471 63.2916 37.5177 63.6978 37.5177C63.8429 37.5226 63.9868 37.4902 64.1159 37.4237C64.2449 37.3572 64.3548 37.2588 64.4351 37.1378C64.6126 36.8846 64.7013 36.5007 64.7013 35.9861ZM69.1458 38.2246C69.0889 38.0938 69.0506 37.9557 69.032 37.8142C68.8851 37.9727 68.7064 38.0984 68.5076 38.1831C68.3088 38.2678 68.0943 38.3096 67.8783 38.3058C67.4365 38.3058 67.0763 38.1799 66.7976 37.9281C66.6637 37.8124 66.5569 37.6688 66.4846 37.5074C66.4123 37.3459 66.3763 37.1706 66.3791 36.9937C66.3791 36.5252 66.5532 36.1656 66.9012 35.915C67.2493 35.6645 67.7469 35.5392 68.3942 35.5393H68.9996V35.2508C69.0094 35.0507 68.9408 34.8547 68.8085 34.7044C68.6812 34.5676 68.4875 34.4993 68.2275 34.4993C68.0296 34.4909 67.8348 34.5504 67.6754 34.6679C67.6078 34.7169 67.553 34.7814 67.5155 34.8559C67.4781 34.9305 67.459 35.013 67.46 35.0964H66.4729C66.4745 34.8505 66.5588 34.6123 66.7122 34.42C66.883 34.2017 67.1077 34.0316 67.3642 33.9264C67.6554 33.804 67.9687 33.7432 68.2845 33.7477C68.7991 33.7477 69.2094 33.877 69.5155 34.1357C69.8216 34.3943 69.9786 34.7579 69.9867 35.2265V37.209C69.9733 37.5328 70.0302 37.8557 70.1533 38.1556V38.2246H69.1458ZM68.061 37.5138C68.2537 37.5144 68.4433 37.4654 68.6116 37.3716C68.7754 37.2847 68.9103 37.1518 68.9995 36.9892V36.1609H68.4673C68.1016 36.1609 67.8267 36.2246 67.6426 36.3519C67.554 36.4106 67.4821 36.4912 67.4338 36.5859C67.3854 36.6805 67.3622 36.786 67.3665 36.8922C67.3628 36.9769 67.3778 37.0615 67.4104 37.1398C67.4431 37.2181 67.4926 37.2882 67.5554 37.3452C67.6968 37.4629 67.8773 37.5231 68.061 37.5138ZM71.9367 33.8289L71.9652 34.3367C72.1184 34.1463 72.3137 33.994 72.5358 33.8918C72.7579 33.7896 73.0006 33.7403 73.2449 33.7478C74.1604 33.7478 74.6262 34.2718 74.6425 35.32V38.2246H73.6552V35.3768C73.6552 35.0978 73.5949 34.8913 73.4744 34.7572C73.3539 34.6232 73.1569 34.5561 72.8833 34.5561C72.6986 34.55 72.516 34.5978 72.358 34.6938C72.2 34.7898 72.0734 34.9297 71.9936 35.0964V38.2246H71.0064V33.8288L71.9367 33.8289ZM77.1856 36.8107L78.0794 33.8289H79.1316L77.3847 38.8905C77.1166 39.6299 76.6616 39.9996 76.0197 39.9996C75.8586 39.997 75.6987 39.9724 75.5443 39.9265V39.1626L75.7313 39.1748C75.9804 39.1748 76.168 39.1294 76.2939 39.0387C76.4383 38.9208 76.5426 38.7612 76.5926 38.5817L76.7347 38.2039L75.1909 33.8288H76.2555L77.1856 36.8107Z" fill="#AAAAAA"/>
<mask id="mask3_2030_18" style="mask-type:luminance" maskUnits="userSpaceOnUse" x="20" y="32" width="22" height="7">
<path d="M41.6389 32.3408H20.7048V38.5776H41.6389V32.3408Z" fill="white"/>
</mask>
<g mask="url(#mask3_2030_18)">
<path d="M20.7048 35.4765V35.4594C20.7048 33.7449 21.8895 32.341 23.5761 32.341C24.6012 32.341 25.2216 32.7287 25.7543 33.2797L25.1267 34.0638C24.6805 33.6156 24.2034 33.3143 23.5669 33.3143C22.5016 33.3143 21.7303 34.2611 21.7303 35.4415V35.4594C21.7303 36.639 22.5016 37.6037 23.5669 37.6037C24.2512 37.6037 24.6883 37.3024 25.1656 36.8204L25.794 37.5087C25.2134 38.1636 24.5772 38.577 23.5356 38.577C21.9132 38.577 20.7048 37.2081 20.7048 35.4765Z" fill="#AAAAAA"/>
<path d="M26.3682 32.4446H27.4256L28.7537 36.9144L30.1213 32.4272H30.9487L32.3166 36.9144L33.6443 32.4446H34.6701L32.7299 38.5168H31.8867L30.5188 34.184L29.1516 38.5168H28.3083L26.3682 32.4446Z" fill="#AAAAAA"/>
<path d="M35.1414 37.5951L35.7294 36.8367C36.262 37.3366 36.7947 37.6208 37.4877 37.6208C38.0915 37.6208 38.4732 37.3195 38.4732 36.8632V36.8461C38.4732 36.4148 38.251 36.1828 37.2159 35.9242C36.0313 35.6139 35.3638 35.2351 35.3638 34.1241V34.107C35.3638 33.0729 36.1589 32.3584 37.2645 32.3584C38.0096 32.3461 38.7317 32.6171 39.2848 33.1165L38.7593 33.9172C38.2576 33.5131 37.7572 33.2974 37.2483 33.2974C36.6754 33.2974 36.3411 33.6166 36.3411 34.0122V34.0293C36.3411 34.4949 36.5955 34.7011 37.6623 34.9776C38.8384 35.2868 39.4508 35.7438 39.4508 36.7427V36.7599C39.4508 37.888 38.6318 38.56 37.463 38.56C37.0315 38.5598 36.6044 38.4745 36.206 38.3089C35.8076 38.1434 35.4457 37.9009 35.1411 37.5953" fill="#AAAAAA"/>
<path d="M41.639 32.4444H40.6614V38.474H41.639V32.4444Z" fill="#AAAAAA"/>
</g>
</g>
<defs>
<clipPath id="clip0_2030_18">
<rect width="92.0285" height="40" fill="white"/>
</clipPath>
</defs>
</svg>
