<svg width="129" height="40" viewBox="0 0 129 40" fill="none" xmlns="http://www.w3.org/2000/svg">
<g clip-path="url(#clip0_1880_70)">
<path d="M0 24.7109C0 15.6841 6.03667 9.3653 14.6685 9.3653C20.4795 9.3653 25.2186 12.299 27.1368 16.8124C27.3625 17.2073 27.4189 17.6587 27.4189 18.11C27.4189 19.0691 26.6291 19.8025 25.7264 19.8025C25.67 19.8025 25.67 19.8025 25.6135 19.8025C24.7673 19.8025 24.0339 19.2384 23.8082 18.4485C22.3413 14.7814 18.9563 12.6939 14.725 12.6939C8.29337 12.6939 3.72355 17.6023 3.72355 24.7109C3.72355 31.763 8.18054 36.6714 14.6685 36.6714C18.8999 36.6714 22.1157 34.6403 23.8082 30.3526C24.0339 29.5628 24.7673 28.9986 25.5571 28.9986C26.5726 28.9986 27.3625 29.7884 27.3625 30.8039V30.8604C27.3625 31.2553 27.3061 31.6502 27.1368 32.0451C25.3879 36.897 20.7052 40 14.6685 40C5.98025 40 0 33.7377 0 24.7109Z" fill="#AAAAAA"/>
<path d="M49.0268 37.5176C49.0268 38.7588 48.3497 39.5487 47.165 39.5487C45.9802 39.5487 45.3596 38.7588 45.3596 37.5176V2.08745C45.3596 0.789845 46.0366 0 47.2214 0C48.4062 0 49.0268 0.733427 49.0268 2.08745V10.1551H55.4019C56.5303 10.1551 57.2073 10.7757 57.2073 11.7913C57.2073 12.8068 56.5303 13.4274 55.4019 13.4274H49.0268V37.5176Z" fill="#AAAAAA"/>
<path d="M77.6306 12.1298C77.6306 13.0889 76.8972 13.8787 75.9381 13.8787C75.8817 13.8787 75.8252 13.8787 75.7688 13.8787C75.2611 13.8787 74.8097 13.7094 74.4148 13.4838C73.5121 13.0324 72.4966 12.8068 71.4247 12.8632C67.4755 12.8632 64.9367 16.3047 64.9367 20.6488V37.5176C64.9367 38.8152 64.3161 39.5487 63.1313 39.5487C61.9465 39.5487 61.2695 38.8152 61.2695 37.5176V11.9041C61.2695 10.6065 61.9465 9.81664 63.1313 9.81664C64.3161 9.81664 64.9367 10.5501 64.9367 11.9041V12.6375C66.5728 10.4937 69.168 9.30889 71.876 9.3653C73.5685 9.30889 75.2046 9.70381 76.6715 10.4937C77.2921 10.8322 77.6306 11.4528 77.6306 12.1298Z" fill="#AAAAAA"/>
<path d="M81.4104 11.9041C81.4104 10.6065 82.0874 9.81664 83.2722 9.81664C84.4569 9.81664 85.0775 10.5501 85.0775 11.9041V37.5176C85.0775 38.7588 84.4005 39.5487 83.2158 39.5487C82.031 39.5487 81.4104 38.7588 81.4104 37.5176V11.9041Z" fill="#AAAAAA"/>
<path d="M33.9631 11.9041C33.9631 10.6065 34.6401 9.81664 35.8249 9.81664C37.0097 9.81664 37.6303 10.5501 37.6303 11.9041V37.5176C37.6303 38.7588 36.9533 39.5487 35.7685 39.5487C34.5837 39.5487 33.9631 38.7588 33.9631 37.5176V11.9041Z" fill="#AAAAAA"/>
<path d="M35.8251 5.86742C37.4453 5.86742 38.7588 4.55395 38.7588 2.93371C38.7588 1.31347 37.4453 0 35.8251 0C34.2048 0 32.8914 1.31347 32.8914 2.93371C32.8914 4.55395 34.2048 5.86742 35.8251 5.86742Z" fill="#AAAAAA"/>
<path d="M104.429 26.9676L94.3301 38.8152C93.9915 39.2666 93.4274 39.5487 92.8632 39.5487C91.9041 39.5487 91.1143 38.8152 91.1143 37.8561C91.1143 37.3484 91.2835 36.897 91.622 36.5585L102.172 24.598L92.0169 12.9196C91.622 12.5811 91.3963 12.0733 91.3963 11.5656C91.3963 10.6065 92.1862 9.81664 93.2017 9.87306H93.2581C93.8223 9.87306 94.3301 10.1551 94.6686 10.6065L104.485 22.1721L114.302 10.6065C114.64 10.1551 115.148 9.87306 115.712 9.87306C116.671 9.81664 117.518 10.5501 117.518 11.5092V11.5656C117.518 12.0733 117.292 12.5811 116.897 12.9196L106.742 24.598L117.292 36.5585C117.63 36.897 117.8 37.4048 117.8 37.8561C117.8 38.8152 117.01 39.6051 116.051 39.5487C115.487 39.5487 114.922 39.2666 114.584 38.8152L104.429 26.9676Z" fill="#AAAAAA"/>
<path d="M124.908 36.4457H123.837V39.2666H123.385V36.4457H122.313V36.1072H124.908V36.4457ZM128.745 36.1072V39.2666H128.35V37.2355L128.406 36.615L128.35 36.8406L127.334 39.2102H126.996L125.98 36.8406L125.868 36.615L125.924 37.2355V39.2666H125.529V36.1072H126.037L126.996 38.3639L127.165 38.7588L127.278 38.3639L128.237 36.1072H128.745Z" fill="#AAAAAA"/>
<path d="M104.429 5.86742C106.049 5.86742 107.363 4.55395 107.363 2.93371C107.363 1.31347 106.049 0 104.429 0C102.809 0 101.495 1.31347 101.495 2.93371C101.495 4.55395 102.809 5.86742 104.429 5.86742Z" fill="#AAAAAA"/>
</g>
<defs>
<clipPath id="clip0_1880_70">
<rect width="128.745" height="40" fill="white"/>
</clipPath>
</defs>
</svg>
