<svg width="168" height="40" viewBox="0 0 168 40" fill="none" xmlns="http://www.w3.org/2000/svg">
<g clip-path="url(#clip0_1882_124)">
<mask id="mask0_1882_124" style="mask-type:luminance" maskUnits="userSpaceOnUse" x="0" y="0" width="168" height="40">
<path d="M167.506 0H0V40H167.506V0Z" fill="white"/>
</mask>
<g mask="url(#mask0_1882_124)">
<path d="M4.68185e-05 20.118V20.0065C-0.0390146 17.4186 0.432206 14.8483 1.38679 12.4425C2.34137 10.0368 3.7606 7.84265 5.5634 5.98555C7.36621 4.12844 9.51725 2.64474 11.8936 1.61921C14.27 0.593677 16.8252 0.0464123 19.4131 0.00868115C19.6872 0.00868115 19.9612 0.00868115 20.2352 0.00868115C23.0709 -0.0985943 25.8981 0.380946 28.5398 1.41725C31.1815 2.45356 33.5807 4.0243 35.5871 6.03104L31.164 11.0576C28.281 8.06719 24.3317 6.33917 20.1788 6.25104C12.6671 6.25104 7.23672 12.3255 7.23672 19.8878V20.0007C7.23672 27.563 12.6729 33.7504 20.1846 33.7504C25.0027 33.7504 28.0841 31.8153 31.4492 28.7253L35.8766 33.1396C33.8886 35.3803 31.4315 37.1556 28.6799 38.3393C25.9283 39.523 22.9497 40.0861 19.9559 39.9884C17.3846 40.0385 14.8287 39.5815 12.434 38.6435C10.0394 37.7056 7.85308 36.305 5.9999 34.5218C4.14671 32.7387 2.663 30.6078 1.63353 28.2511C0.604053 25.8944 0.0489904 23.3579 4.68185e-05 20.7866C4.68185e-05 20.5618 4.68185e-05 20.3365 4.68185e-05 20.1107" fill="#AAAAAA"/>
<path d="M39.9219 0.683137H47.3756L56.7341 29.3404L66.3734 0.576035H72.1974L81.8367 29.3404L91.1922 0.683137H98.4289L84.753 39.6049H78.8117L69.1682 11.8276L59.5289 39.5976H53.5948L39.9219 0.683137Z" fill="#AAAAAA"/>
<path d="M101.743 33.6925L105.89 28.8309C109.232 32.016 113.659 33.8128 118.275 33.8575C122.534 33.8575 125.222 31.9268 125.222 28.9988V28.8888C125.222 26.1258 123.662 24.6351 116.369 22.9837C108.019 20.9965 103.301 18.5621 103.301 11.4441V11.3312C103.301 4.69949 108.906 0.12591 116.694 0.12591C121.865 0.0181558 126.907 1.73879 130.933 4.98461L127.224 10.1169C124.197 7.67702 120.461 6.28361 116.576 6.14538C112.541 6.14538 110.186 8.18757 110.186 10.7276V10.8347C110.186 13.8177 111.98 15.1435 119.489 16.9135C127.782 18.8993 132.098 21.8345 132.098 28.2259V28.3287C132.098 35.5654 126.325 39.8683 118.087 39.8683C112.054 39.9046 106.223 37.7008 101.722 33.6838" fill="#AAAAAA"/>
<path d="M147.534 0.677353H140.643V39.3255H147.534V0.677353Z" fill="#AAAAAA"/>
<path d="M161.858 28.5791C162.975 28.5791 164.066 28.9101 164.994 29.5304C165.922 30.1506 166.646 31.0322 167.073 32.0636C167.5 33.095 167.612 34.2299 167.394 35.3249C167.177 36.4198 166.639 37.4256 165.85 38.215C165.06 39.0044 164.054 39.542 162.959 39.7598C161.864 39.9776 160.73 39.8658 159.698 39.4386C158.667 39.0114 157.785 38.2879 157.165 37.3597C156.545 36.4314 156.214 35.3401 156.214 34.2237C156.214 32.7266 156.808 31.2909 157.867 30.2323C158.925 29.1738 160.361 28.5791 161.858 28.5791Z" fill="#AAAAAA"/>
</g>
</g>
<defs>
<clipPath id="clip0_1882_124">
<rect width="167.506" height="40" fill="white"/>
</clipPath>
</defs>
</svg>
