<svg width="179" height="40" viewBox="0 0 179 40" fill="none" xmlns="http://www.w3.org/2000/svg">
<g id="fairphone" clip-path="url(#clip0_5702_624)">
<g id="layer1">
<g id="g1">
<g id="Clip path group">
<mask id="mask0_5702_624" style="mask-type:luminance" maskUnits="userSpaceOnUse" x="-1" y="-1" width="180" height="42">
<g id="clip0_5164_1525">
<path id="rect12" d="M178.786 -0.0747375H-0.00976562V40.075H178.786V-0.0747375Z" fill="white"/>
</g>
</mask>
<g mask="url(#mask0_5702_624)">
<g id="g12">
<g id="Mask group">
<mask id="mask1_5702_624" style="mask-type:luminance" maskUnits="userSpaceOnUse" x="-1" y="-1" width="180" height="42">
<g id="Group">
<path id="path1" d="M178.786 -0.0747375H-0.00976562V40.075H178.786V-0.0747375Z" fill="white"/>
</g>
</mask>
<g mask="url(#mask1_5702_624)">
<g id="g11">
<path id="path2" d="M40.5671 9.11929V30.9176H45.366V9.11929H40.5671Z" fill="#AAAAAA"/>
<path id="path3" d="M60.9228 8.87177C57.2526 8.87177 54.6649 10.4349 53.2471 13.3959L52.6634 9.11904H48.7002V30.9175H53.6221V20.1406C53.6221 13.3996 55.8147 13.5967 60.9228 13.6016C61.1315 13.6016 61.7573 13.6285 61.7573 13.6285V8.87177H60.9228Z" fill="#AAAAAA"/>
<path id="path4" d="M76.3156 8.46051C72.8117 8.46051 69.9336 10.1473 68.4735 12.697L67.973 9.11907H64.0098V40H68.9738V27.8731C70.4761 30.1352 73.1034 31.5345 76.2746 31.5345C82.1563 31.5345 86.2872 26.763 86.2872 19.8947C86.2872 13.0263 82.1563 8.46051 76.3156 8.46051ZM75.1895 27.3798C69.8604 27.3798 68.9738 26.4251 68.9738 19.7709C68.9738 13.1169 70.5619 12.626 75.1485 12.626C80.3684 12.626 81.2386 13.4804 81.2386 19.8947C81.2386 26.3088 80.3684 27.3798 75.1895 27.3798Z" fill="#AAAAAA"/>
<path id="path5" d="M100.388 8.46204C98.2178 8.46204 96.2387 9.06672 94.7524 10.1757V13.7182C95.3187 13.149 96.5094 12.6263 98.1421 12.6263C101.943 12.6263 103.228 13.7317 103.266 19.0074V30.9201H108.189V16.4087C108.189 11.5149 105.103 8.46204 100.388 8.46204ZM93.4674 18.7431H93.4635V11.3913L93.4624 0H88.5393V30.9213H93.4624V20.8263C93.4624 20.1018 93.4573 19.404 93.4674 18.7431Z" fill="#AAAAAA"/>
<path id="path6" d="M121.789 8.46051C115.323 8.46051 110.442 12.697 110.442 19.8126C110.442 26.5572 114.614 31.5345 121.789 31.5345C128.381 31.5345 133.095 27.1742 133.095 19.8126C133.095 13.396 128.923 8.46051 121.789 8.46051ZM121.789 27.3798C116.722 27.3798 115.448 26.8413 115.448 19.8126C115.448 12.7839 116.738 12.6248 121.789 12.6248C126.84 12.6248 128.089 13.1353 128.089 19.8126C128.089 26.49 126.866 27.3798 121.789 27.3798Z" fill="#AAAAAA"/>
<path id="path7" d="M11.2182 4.17906H15.6632V0.083313H10.8854C6.31495 0.083313 3.86397 2.29522 3.86397 6.39098V9.11943H0V12.9704H3.86397V30.9056H8.76717V12.9704H15.1653V9.11943H8.76717V6.71903C8.76717 5.07999 9.63881 4.17906 11.2182 4.17906Z" fill="#AAAAAA"/>
<path id="path8" d="M45.3671 0.0710602H40.5769V4.91594H45.3671V0.0710602Z" fill="#AAAAAA"/>
<path id="path9" d="M147.194 8.46213C143.899 8.46213 141.104 10.0657 139.727 12.3278L139.31 9.11944H135.346V30.9178H140.269V18.4958C140.269 12.6044 143.038 12.6264 145.321 12.6264C148.406 12.6264 150.073 13.5531 150.073 18.7431V30.9178H154.995V16.4823C154.995 11.5872 151.909 8.46213 147.194 8.46213Z" fill="#AAAAAA"/>
<path id="path10" d="M162.172 21.0049H178.776V19.8531C178.65 12.779 174.479 8.46051 168.222 8.46051C161.963 8.46051 157.249 12.9027 157.249 20.1003C157.249 26.763 161.88 31.5345 168.638 31.5345C173.853 31.5345 177.566 28.6957 178.694 24.0076H173.895C173.372 26.7936 172.001 27.3786 168.278 27.3786C166.759 27.3786 165.591 27.31 164.706 27.0151C162.927 26.4239 162.277 24.9036 162.172 21.0649C162.172 21.0612 162.172 21.0562 162.172 21.0562V21.0049ZM162.224 17.6435C162.526 12.7729 164.532 12.7729 167.628 12.6322C167.69 12.6297 168.085 12.6224 168.222 12.626C171.602 12.7289 173.445 12.9296 173.687 17.6435H162.224Z" fill="#AAAAAA"/>
<path id="path11" d="M15.6721 24.8599C15.7143 19.764 20.841 18.6954 25.1358 18.2021C28.4709 17.8323 31.0957 17.705 30.9727 15.9828C30.8138 13.7612 29.4742 12.6766 26.4285 12.6264C23.4832 12.5775 21.6692 12.9569 21.1341 16.2705H16.1737C16.6319 11.668 20.8013 8.46213 26.5128 8.46213C32.2243 8.46213 35.7679 11.668 35.7679 16.3121V26.1756C35.7679 26.7926 36.102 27.1206 36.8519 27.1206H38.0612V30.9019H35.727C33.4758 30.9019 32.1001 29.9972 31.7251 28.3532C31.6419 28.1476 31.5589 27.8601 31.5166 27.614C30.2241 29.9569 27.8065 31.5348 24.0543 31.5348C18.9687 31.5348 15.6336 28.9287 15.6746 24.8599H15.6721ZM31.2112 22.7274C31.2969 21.4483 31.293 19.6121 31.293 19.6121C30.4587 20.8864 28.0116 21.2439 25.676 21.5315C22.9246 21.8609 20.6311 22.2306 20.6311 24.5318C20.6311 26.4217 22.1248 27.4646 25.0502 27.3801C28.4945 27.2811 30.8932 27.4586 31.2112 22.7274Z" fill="#AAAAAA"/>
</g>
</g>
</g>
</g>
</g>
</g>
</g>
</g>
</g>
<defs>
<clipPath id="clip0_5702_624">
<rect width="178.776" height="40" fill="white"/>
</clipPath>
</defs>
</svg>
