<svg width="180" height="40" viewBox="0 0 180 40" fill="none" xmlns="http://www.w3.org/2000/svg">
<g clip-path="url(#clip0_1882_196)">
<path d="M62.2001 10.6V28.8H60.3001V20.4H49.0001V28.8H47.1001V10.6H49.0001V18.7H60.3001V10.6H62.2001Z" fill="#AAAAAA"/>
<path d="M79.2001 15.2L72.4001 30.5C72.0001 31.6 71.4001 32.5 70.5001 33.2C69.7001 33.7 68.8001 34 67.9001 34C67.3001 34 66.6001 33.9 66.1001 33.7C65.5001 33.5 65.0001 33.2 64.6001 32.8L65.5001 31.4C66.1001 32.1 67.1001 32.5 68.0001 32.5C68.6001 32.5 69.1001 32.3 69.6001 32C70.1001 31.5 70.6001 30.9 70.8001 30.2L71.4001 28.9L65.3001 15.3H67.2001L72.3001 26.9L77.4001 15.3H79.2001V15.2Z" fill="#AAAAAA"/>
<path d="M92.3 15.9C93.3 16.5 94.2 17.4 94.7 18.4C95.3 19.5 95.6 20.7 95.6 22C95.6 23.3 95.3 24.5 94.7 25.6C94.1 26.6 93.3 27.5 92.3 28.1C91.2 28.7 90 29 88.8 29C87.8 29 86.7 28.8 85.8 28.3C84.9 27.8 84.1 27.1 83.6 26.3V33.9H81.8V15.2H83.6V17.9C84.1 17 84.9 16.3 85.8 15.8C86.7 15.3 87.8 15.1 88.9 15.1C90 15 91.2 15.3 92.3 15.9ZM91.2 26.6C92 26.2 92.6 25.5 93.1 24.7C93.6 23.8 93.8 22.9 93.8 21.9C93.8 20.9 93.6 20 93.1 19.1C92.7 18.3 92 17.7 91.3 17.3C89.7 16.4 87.7 16.4 86.1 17.3C85.3 17.7 84.7 18.4 84.3 19.2C83.8 20 83.6 21 83.6 22C83.6 23 83.8 23.9 84.3 24.7C84.7 25.5 85.3 26.1 86.1 26.6C87.7 27.5 89.7 27.5 91.2 26.6Z" fill="#AAAAAA"/>
<path d="M111.2 22.5H99.7999C99.8999 23.8 100.4 25.1 101.4 25.9C102.4 26.8 103.8 27.3 105.1 27.2C105.9 27.2 106.7 27.1 107.4 26.7C108.1 26.4 108.8 25.9 109.3 25.4L110.4 26.6C109.8 27.3 109 27.9 108.1 28.3C107.2 28.7 106.1 28.9 105.1 28.9C103.8 28.9 102.5 28.6 101.4 28C100.3 27.4 99.3999 26.6 98.7999 25.5C98.1999 24.4 97.8999 23.2 97.8999 21.9C97.8999 20.7 98.1999 19.4 98.7999 18.4C99.3999 17.4 100.2 16.5 101.2 15.9C102.2 15.3 103.4 15 104.6 15C105.8 15 107 15.3 108 15.9C109 16.5 109.8 17.3 110.3 18.4C110.9 19.5 111.2 20.7 111.2 22V22.5ZM101.3 17.9C100.4 18.8 99.8999 19.9 99.7999 21.2H109.5C109.4 20 108.9 18.8 108 17.9C106.1 16.2 103.2 16.2 101.3 17.9Z" fill="#AAAAAA"/>
<path d="M118.7 15.7C119.7 15.2 120.8 15 121.9 15V16.8H121.5C120.2 16.7 119 17.2 118.1 18.1C117.2 19.1 116.8 20.5 116.9 21.8V28.7H115V15.2H116.8V17.9C117.1 16.9 117.8 16.2 118.7 15.7Z" fill="#AAAAAA"/>
<path d="M137.7 15.2V27.2C137.9 29.1 137.2 30.9 136 32.3C134.6 33.5 132.7 34.1 130.9 34C129.7 34 128.5 33.8 127.3 33.4C126.3 33.1 125.3 32.6 124.5 31.9L125.4 30.5C126.1 31.1 126.9 31.6 127.8 31.9C128.8 32.2 129.8 32.4 130.8 32.4C132.2 32.5 133.6 32.1 134.6 31.2C135.5 30.2 135.9 28.8 135.8 27.5V25.8C135.2 26.6 134.5 27.3 133.5 27.8C132.5 28.3 131.5 28.5 130.4 28.5C129.2 28.5 128 28.2 126.9 27.7C125.9 27.2 125 26.3 124.4 25.3C123.8 24.3 123.5 23.1 123.5 21.9C123.5 20.7 123.8 19.5 124.4 18.5C125 17.5 125.8 16.7 126.8 16.2C127.9 15.6 129.1 15.3 130.3 15.4C131.4 15.4 132.5 15.6 133.5 16.1C134.4 16.6 135.2 17.3 135.8 18.1V15.5H137.7V15.2ZM133.4 26C134.2 25.6 134.8 25 135.3 24.2C136.2 22.6 136.2 20.6 135.3 19C134.9 18.3 134.2 17.6 133.5 17.2C132.7 16.8 131.8 16.6 130.8 16.6C129.9 16.6 129 16.8 128.1 17.2C127.3 17.6 126.7 18.2 126.3 19C125.4 20.6 125.4 22.6 126.3 24.2C126.7 25 127.4 25.6 128.1 26C129.7 26.8 131.7 26.8 133.4 26Z" fill="#AAAAAA"/>
<path d="M151.7 16.4C152.7 17.4 153.2 18.9 153.1 20.3V28.7H151.3V26.6C150.9 27.3 150.2 27.9 149.5 28.3C148.6 28.7 147.6 28.9 146.6 28.9C145.3 29 144 28.6 143 27.8C142.1 27.1 141.6 26 141.7 24.9C141.7 23.8 142.1 22.8 143 22.1C144.2 21.3 145.6 20.9 147 21H151.3V20.2C151.4 19.2 151 18.2 150.3 17.5C149.5 16.8 148.5 16.5 147.4 16.6C146.6 16.6 145.7 16.7 144.9 17C144.1 17.3 143.4 17.7 142.8 18.2L142 16.8C142.7 16.2 143.6 15.7 144.5 15.4C145.5 15.1 146.5 14.9 147.6 14.9C149 15 150.5 15.5 151.7 16.4ZM149.5 26.8C150.3 26.3 150.8 25.6 151.2 24.7V22.5H146.9C144.6 22.5 143.4 23.3 143.4 24.9C143.4 25.6 143.7 26.3 144.3 26.8C145 27.3 145.9 27.5 146.8 27.5C147.8 27.5 148.7 27.2 149.5 26.8Z" fill="#AAAAAA"/>
<path d="M165.3 27.9C164.9 28.2 164.5 28.5 164 28.6C163.5 28.8 163 28.8 162.4 28.8C161.3 28.9 160.2 28.5 159.4 27.7C158.7 26.9 158.3 25.8 158.3 24.8V16.6H155.9V15.1H158.3V12.1H160.1V15.1H164.2V16.6H160.1V24.7C160.1 25.4 160.3 26 160.7 26.6C161.2 27 161.8 27.3 162.4 27.2C162.8 27.2 163.1 27.1 163.5 27C163.8 26.9 164.2 26.7 164.4 26.5L165.3 27.9Z" fill="#AAAAAA"/>
<path d="M180 22.5H168.6C168.7 23.8 169.2 25.1 170.2 25.9C171.2 26.8 172.6 27.3 173.9 27.2C174.7 27.2 175.5 27.1 176.2 26.7C176.9 26.4 177.5 25.9 178 25.4L179.1 26.6C178.5 27.3 177.7 27.9 176.8 28.3C175.9 28.7 174.8 28.9 173.8 28.9C172.5 28.9 171.2 28.6 170.1 28C169 27.4 168.2 26.6 167.6 25.5C167 24.4 166.7 23.2 166.7 21.9C166.7 20.7 167 19.4 167.6 18.3C168.1 17.3 169 16.4 170 15.8C172.1 14.6 174.7 14.6 176.8 15.8C177.8 16.4 178.6 17.3 179.1 18.3C179.7 19.4 180 20.6 180 21.9V22.5ZM170.1 17.9C169.2 18.8 168.7 19.9 168.6 21.2H178.3C178.2 20 177.7 18.8 176.8 17.9C174.8 16.2 172 16.2 170.1 17.9Z" fill="#AAAAAA"/>
<path d="M0 10.3V29.7L16.9 39.5L33.7 29.7V10.3L16.9 0.5L0 10.3Z" fill="#AAAAAA"/>
<path d="M7.3999 13L13.6999 9.5V13L7.3999 16.5V13Z" fill="white"/>
<path d="M7.3999 20L13.6999 16.5V20L7.3999 23.5V20Z" fill="white"/>
<path d="M7.3999 27L13.6999 23.5V27L7.3999 30.5V27Z" fill="white"/>
<path d="M20 13L26.3 9.5V13L20 16.5V13Z" fill="white"/>
<path d="M20 20L26.3 16.5V20L20 23.5V20Z" fill="white"/>
<path d="M20 27L26.3 23.5V27L20 30.5V27Z" fill="white"/>
<path d="M13.7 20L20 16.5V20L13.7 23.5V20Z" fill="white"/>
</g>
<defs>
<clipPath id="clip0_1882_196">
<rect width="180" height="40" fill="white"/>
</clipPath>
</defs>
</svg>
