<svg width="116" height="40" viewBox="0 0 116 40" fill="none" xmlns="http://www.w3.org/2000/svg">
<path fill-rule="evenodd" clip-rule="evenodd" d="M108.015 9.34665C108.015 5.51297 110.629 3.6849 114.251 3.50876V6.67367H113.624C112.022 6.67367 111.151 7.97543 111.151 9.59297V12.1249H114.112V14.9031H111.151V30.447H108.015V14.9031H105.263V12.1249H108.015V9.34665Z" fill="#AAAAAA"/>
<path fill-rule="evenodd" clip-rule="evenodd" d="M97.0237 19.4554C97.0237 16.2905 95.2125 14.8835 93.0525 14.8835C90.4392 14.8835 88.489 16.5361 88.489 19.5965V30.6737H85.3536V19.4554C85.3536 16.2905 83.5423 14.8835 81.3823 14.8835C78.7697 14.8835 76.8188 16.5361 76.8188 19.5965V30.6737H73.6841V12.3516H76.8188V14.5319H76.8883C77.7248 12.6681 79.9886 11.9298 81.9051 11.9298C83.7507 11.9298 85.7718 12.4217 87.27 15.0947C88.3844 12.7733 90.7879 11.9298 93.1915 11.9298C97.0939 11.9298 100.159 14.2856 100.159 19.1038V30.6737H97.0237V19.4554Z" fill="#AAAAAA"/>
<path fill-rule="evenodd" clip-rule="evenodd" d="M58.9907 21.0028C55.1584 21.0028 53.87 22.8667 53.87 24.6603C53.87 26.454 55.1584 28.3179 58.9907 28.3179C62.823 28.3179 64.1121 26.454 64.1121 24.6603C64.1121 22.8667 62.823 21.0028 58.9907 21.0028ZM64.0075 18.4007C64.0075 15.3761 61.0117 14.7081 58.5731 14.7081C56.8665 14.7081 55.2637 15.1298 53.5563 15.974L52.1977 13.3368C54.95 12.1761 57.1093 11.9298 58.7472 11.9298C63.1023 11.9298 67.143 13.7937 67.143 18.1544V30.6737H64.2167V28.7045C62.6138 30.3923 60.837 31.0961 58.4335 31.0961C54.0096 31.0961 50.5261 28.5993 50.5261 24.5193C50.5261 21.1789 53.3472 18.2245 58.3991 18.2245C60.3149 18.2245 62.3352 18.7874 64.0075 20.2996V18.4007Z" fill="#AAAAAA"/>
<path fill-rule="evenodd" clip-rule="evenodd" d="M44.5859 4.21053C45.8056 4.20492 46.7845 5.18527 46.7901 6.41615C46.7957 7.647 45.8252 8.63578 44.6056 8.64139C43.3866 8.647 42.4063 7.66665 42.4006 6.4358C42.3957 5.20492 43.3663 4.21615 44.5859 4.21053ZM43.054 12.2358L46.1894 12.2217L46.2821 32.8968C46.2821 37.6695 43.2021 39.28 39.7445 39.2919C39.7312 39.2919 39.7178 39.2919 38.6098 39.2919L38.5964 36.3102C39.4392 36.3382 39.734 36.3382 39.755 36.3382C42.8259 36.3151 43.148 34.6224 43.148 33.0547L43.054 12.2358Z" fill="#AAAAAA"/>
<path fill-rule="evenodd" clip-rule="evenodd" d="M24.3017 4.8866C20.428 4.8866 18.1391 6.51801 17.0961 10.0189C17.0982 10.0119 14.398 18.3568 14.398 18.3568C13.4089 21.0975 11.8165 22.2263 8.90973 22.2263H2.24163C1.39067 22.2263 0.70166 22.9159 0.70166 23.7663V28.019C0.70166 28.8329 1.36065 29.4919 2.17461 29.4919H29.2393C30.0881 29.4919 30.7765 28.8043 30.7765 27.9555V6.36862C30.7765 5.54978 30.1125 4.8866 29.2944 4.8866H24.3017Z" fill="#AAAAAA"/>
<path fill-rule="evenodd" clip-rule="evenodd" d="M2.34774 0C1.43883 0 0.70166 0.737172 0.70166 1.64608V13.029C0.70166 13.9149 1.41999 14.6339 2.30586 14.6339H8.04271C10.6689 14.6339 14.2738 14.0943 15.2643 9.43109C15.2643 9.43109 16.248 4.76162 16.8309 1.99373C17.048 0.964751 16.2619 0 15.2106 0H2.34774Z" fill="#AAAAAA"/>
</svg>
