<svg width="191" height="40" viewBox="0 0 191 40" fill="none" xmlns="http://www.w3.org/2000/svg">
<path d="M79.9876 8.8875C76.5826 8.8875 72.7101 10.466 70.344 13.6261L70.3456 13.6197L70.344 13.6213L70.3456 9.38377H62.2244V38.9583H70.344V22.1299C70.344 19.1011 72.6925 15.8817 77.0404 15.8817C80.4007 15.8817 83.8777 18.219 83.8777 22.1299V38.9583H91.999V20.6251C91.999 13.823 87.1323 8.8875 79.9876 8.8875Z" fill="#AAAAAA"/>
<path d="M149.718 9.38501L142.376 29.5304L135.035 9.38501H125.758L137.926 38.9499H146.825L158.993 9.38501H149.718Z" fill="#AAAAAA"/>
<path d="M37.9799 18.2943C39.363 16.4373 41.5658 15.3471 44.2265 15.3471C47.1529 15.3471 49.3733 17.0184 50.5211 19.4854L36.3326 25.3718C35.9452 22.3509 36.7184 19.988 37.9799 18.2943ZM53.582 29.8654C50.1641 32.3948 48.211 32.9983 45.0941 32.9983C42.2894 32.9983 40.093 32.1275 38.545 30.6002L59.3067 21.9875C58.8536 18.7778 57.6354 15.9106 55.7607 13.7302C53.0329 10.5621 48.9955 8.886 44.0792 8.886C35.1495 8.886 28.4163 15.4736 28.4163 24.1743C28.4163 33.1008 35.1655 39.461 44.9741 39.461C50.4699 39.461 56.0889 36.8564 58.7176 33.8132L53.582 29.8654Z" fill="#AAAAAA"/>
<path d="M27.6421 31.5014H9.18408V0.538956H0.952393V38.9583H27.6421V31.5014Z" fill="#AAAAAA"/>
<path d="M173.576 15.8452C169.041 15.8452 165.748 19.2823 165.748 24.1713C165.748 28.8395 169.236 32.4975 173.685 32.4975C178.222 32.4975 181.513 28.9659 181.513 24.1713C181.513 19.5032 178.026 15.8452 173.576 15.8452ZM173.576 39.4564C164.694 39.4564 157.735 32.84 157.735 24.1713C157.735 15.6003 164.742 8.8862 173.685 8.8862C182.566 8.8862 189.524 15.5026 189.524 24.1713C189.524 32.7408 182.518 39.4564 173.576 39.4564Z" fill="#AAAAAA"/>
<path d="M111.051 15.8452C106.515 15.8452 103.224 19.2823 103.224 24.1713C103.224 28.8395 106.711 32.4975 111.161 32.4975C115.696 32.4975 118.988 28.9659 118.988 24.1713C118.988 19.5032 115.501 15.8452 111.051 15.8452ZM111.051 39.4564C102.169 39.4564 95.2117 32.84 95.2117 24.1713C95.2117 15.6003 102.217 8.8862 111.161 8.8862C120.041 8.8862 127 15.5026 127 24.1713C127 32.7408 119.993 39.4564 111.051 39.4564Z" fill="#AAAAAA"/>
</svg>
