<svg width="210" height="40" viewBox="0 0 210 40" fill="none" xmlns="http://www.w3.org/2000/svg">
<g clip-path="url(#clip0_1882_180)">
<path d="M53.4902 6.09404H57.7136V32.0626H69.6508V36.1115H53.6997V6.09404H53.4902Z" fill="#AAAAAA"/>
<path d="M158.237 13.2843C151.745 13.2843 146.475 18.5548 146.475 25.0469C146.475 31.5391 151.745 36.8096 158.237 36.8096C164.729 36.8096 170 31.5391 170 25.0469C170.174 18.3803 164.904 13.2843 158.237 13.2843ZM158.237 32.9352C154.014 32.9352 150.523 29.4099 150.523 25.0469C150.523 20.649 154.049 17.1586 158.237 17.1586C162.461 17.1586 165.951 20.6839 165.951 25.0469C165.986 29.2354 162.635 32.9352 158.237 32.9352Z" fill="#AAAAAA"/>
<path d="M110.174 13.2843C103.682 13.2843 98.4116 18.5548 98.4116 25.0469C98.4116 31.5391 103.682 36.8096 110.174 36.8096C116.666 36.8096 121.937 31.5391 121.937 25.0469C122.111 18.3803 116.841 13.2843 110.174 13.2843ZM110.174 32.9352C105.951 32.9352 102.46 29.4099 102.46 25.0469C102.46 20.649 105.986 17.1586 110.174 17.1586C114.363 17.1586 117.888 20.6839 117.888 25.0469C117.888 29.2354 114.572 32.9352 110.174 32.9352Z" fill="#AAAAAA"/>
<path d="M83.6821 13.2843C77.1899 13.2843 71.9194 18.5548 71.9194 25.0469C71.9194 31.5391 77.1899 36.8096 83.6821 36.8096C90.1742 36.8096 95.4447 31.5391 95.4447 25.0469C95.4447 18.3803 90.1742 13.2843 83.6821 13.2843ZM83.6821 32.9352C79.4587 32.9352 75.9683 29.4099 75.9683 25.0469C75.9683 20.649 79.4936 17.1586 83.6821 17.1586C87.8706 17.1586 91.3959 20.6839 91.3959 25.0469C91.3959 29.2354 87.9055 32.9352 83.6821 32.9352Z" fill="#AAAAAA"/>
<path d="M190.174 13.8078V26.7921C190.174 30.1429 187.731 32.7607 184.38 32.7607C181.029 32.7607 178.586 30.1429 178.586 26.7921V13.8078H174.398V26.7921C174.398 32.2372 178.272 36.6002 184.415 36.6002C190.384 36.6002 194.433 32.2023 194.433 26.7921V13.8078H190.174Z" fill="#AAAAAA"/>
<path d="M209.651 17.5077V13.8078H203.857V7.4902H199.633V26.0941C199.633 31.5391 203.508 35.9021 209.651 35.9021V31.8532C206.3 31.8532 203.857 29.5845 203.857 26.0591V17.4728H209.651V17.5077Z" fill="#AAAAAA"/>
<path d="M131.082 6.09404H126.858V36.1115H131.082V6.09404Z" fill="#AAAAAA"/>
<path d="M146.16 13.8078H141.239L131.047 24.8724L141.239 35.9021H146.16L135.968 24.8724L146.16 13.8078Z" fill="#AAAAAA"/>
<path d="M41.0643 6.09405C39.4936 4.87241 31.6053 0.299988 20.7152 0.299988C9.82517 0.299988 1.93686 4.87241 0.366183 6.09405C0.0171432 7.83925 0.191663 16.1115 5.98573 26.2686C12.1288 37.1586 19.1446 39.9509 20.7152 40.3C22.4604 39.9509 29.3016 37.3332 35.4447 26.2686C41.4133 16.0766 41.4133 7.83925 41.0643 6.09405ZM20.6803 35.9021C18.237 35.0295 15.7589 32.5513 13.6646 30.108C15.7589 28.1883 18.237 27.4902 20.6803 27.4902C23.1236 27.4902 25.6018 28.1883 27.696 30.108C25.6018 32.5862 23.1585 34.855 20.6803 35.9021ZM30.5233 26.4431C27.5564 23.9998 24.2056 22.9178 20.7152 22.9178C17.3644 22.9178 13.874 23.9649 10.9072 26.4431C10.2091 25.396 8.46392 22.3942 7.55641 20.3C11.6053 17.5077 15.9683 16.0766 20.7152 16.0766C25.4622 16.0766 29.8252 17.2982 33.6995 20.3C32.9665 22.3942 31.2213 25.2215 30.5233 26.4431ZM35.4447 16.0766C30.5233 12.9352 25.8112 11.5042 20.7152 11.5042C15.6192 11.5042 10.9072 12.9003 5.98573 16.0766C5.46217 14.1569 4.76409 11.3296 4.58957 8.88637C9.51104 6.26857 15.3051 5.01203 20.7152 5.01203C26.1603 5.01203 31.9543 6.23366 36.8409 9.06089C36.6664 11.3646 35.9683 14.1569 35.4447 16.0766Z" fill="#AAAAAA"/>
</g>
<defs>
<clipPath id="clip0_1882_180">
<rect width="210" height="40" fill="white"/>
</clipPath>
</defs>
</svg>
