<svg width="184" height="40" viewBox="0 0 184 40" fill="none" xmlns="http://www.w3.org/2000/svg">
<g clip-path="url(#clip0_1882_217)">
<path d="M0 14.4823C0 12.5203 1.59003 10.9303 3.55269 10.9303H7.10469V14.1829C8.31931 12.8467 9.66971 11.8497 11.1545 11.1898C12.6393 10.5306 14.2571 10.2007 16.0114 10.2007C17.782 10.2007 19.3799 10.6351 20.8036 11.5027C22.2265 12.3695 23.3735 13.6367 24.2404 15.3022C25.3696 13.6367 26.7548 12.3695 28.3947 11.5027C30.0352 10.6351 31.8286 10.2007 33.7728 10.2007C35.7874 10.2007 37.5579 10.67 39.0864 11.6065C40.6128 12.5431 41.7125 13.7662 42.3803 15.2759C43.0491 16.7855 43.3835 19.2403 43.3835 22.6415V35.6428C43.3835 37.6325 41.7707 39.2446 39.7808 39.2446C37.8181 39.2446 36.2268 37.6538 36.2268 35.6904V24.8794C36.2268 21.6695 35.8272 19.4963 35.0293 18.3599C34.2315 17.2236 33.034 16.6554 31.4375 16.6554C30.2236 16.6554 29.1349 17.0024 28.1721 17.6965C27.2092 18.3905 26.4932 19.3491 26.0245 20.5715C25.5559 21.7954 25.322 23.7601 25.322 26.4673V35.8419C25.322 37.7214 23.7988 39.2446 21.9193 39.2446H21.5538C19.6821 39.2446 18.1653 37.7278 18.1653 35.8568V25.5301C18.1653 22.9971 17.979 21.1624 17.6043 20.0254C17.2295 18.889 16.6699 18.0435 15.9211 17.4888C15.1737 16.9327 14.2699 16.6554 13.2089 16.6554C12.0263 16.6554 10.9518 17.0067 9.98757 17.7093C9.02187 18.4119 8.30011 19.3967 7.82224 20.6632C7.34363 21.9297 7.10469 23.9251 7.10469 26.6487V35.6926C7.10469 37.6545 5.51397 39.2446 3.55269 39.2446C1.59003 39.2446 0 37.6545 0 35.6926V14.4823Z" fill="#AAAAAA"/>
<path d="M62.9115 16.7594C60.7158 16.7594 58.8923 17.536 57.439 19.0883C55.9862 20.6413 55.2598 22.6325 55.2598 25.0616C55.2598 27.5078 55.999 29.5203 57.4779 31.0989C58.9558 32.6784 60.7761 33.4677 62.9377 33.4677C65.1686 33.4677 67.0187 32.6912 68.4881 31.1388C69.9585 29.5857 70.6923 27.5512 70.6923 25.036C70.6923 22.572 69.9585 20.5766 68.4881 19.0499C67.0187 17.5232 65.1601 16.7594 62.9115 16.7594ZM70.3803 10.9304H74.0022C75.9254 10.9304 77.4859 12.4892 77.4859 14.4134V35.7617C77.4859 37.686 75.9254 39.2448 74.0022 39.2448H70.3803V36.2524C68.9942 37.5708 67.6033 38.5208 66.2081 39.1018C64.8123 39.6828 63.3019 39.9744 61.6721 39.9744C58.0155 39.9744 54.8523 38.5549 52.1851 35.7184C49.5158 32.8824 48.1814 29.356 48.1814 25.1392C48.1814 20.768 49.4721 17.1846 52.0545 14.3914C54.6369 11.5981 57.7729 10.2008 61.4646 10.2008C63.1633 10.2008 64.7563 10.5222 66.2465 11.1644C67.7377 11.8058 69.1153 12.7693 70.3803 14.0529V10.9304Z" fill="#AAAAAA"/>
<path d="M82.9941 13.8912C82.9941 12.2557 84.3205 10.9302 85.9552 10.9302H90.0987V14.1828C91.3136 12.8467 92.664 11.8496 94.1493 11.1898C95.6336 10.5306 97.2517 10.2013 99.0053 10.2013C100.777 10.2013 102.374 10.6351 103.798 11.5027C105.221 12.3695 106.367 13.6367 107.235 15.3021C108.364 13.6367 109.75 12.3695 111.389 11.5027C113.03 10.6351 114.823 10.2013 116.767 10.2013C118.781 10.2013 120.552 10.6699 122.081 11.6064C123.607 12.543 124.707 13.7661 125.375 15.2758C126.044 16.7855 126.378 19.2403 126.378 22.6415V36.2835C126.378 37.919 125.053 39.2445 123.417 39.2445H122.182C120.547 39.2445 119.221 37.919 119.221 36.2835V24.8794C119.221 21.6694 118.822 19.4963 118.024 18.3599C117.226 17.2243 116.029 16.6554 114.433 16.6554C113.218 16.6554 112.13 17.0024 111.166 17.6964C110.203 18.3904 109.488 19.3491 109.019 20.5722C108.551 21.7952 108.316 23.76 108.316 26.4672V36.2835C108.316 37.919 106.99 39.2445 105.355 39.2445H104.044C102.451 39.2445 101.159 37.9539 101.159 36.3616V25.53C101.159 22.9971 100.973 21.1624 100.599 20.0253C100.223 18.889 99.6645 18.0435 98.9157 17.4888C98.1685 16.9327 97.2645 16.6554 96.2037 16.6554C95.0213 16.6554 93.9467 17.0067 92.9819 17.7092C92.0165 18.4118 91.2949 19.3967 90.8165 20.6632C90.3376 21.9296 90.0987 23.9251 90.0987 26.6486V36.2835C90.0987 37.919 88.7733 39.2445 87.1376 39.2445H85.9552C84.3205 39.2445 82.9941 37.919 82.9941 36.2835V13.8912Z" fill="#AAAAAA"/>
<path d="M182.061 17.6441C180.742 15.3543 178.907 13.541 176.557 12.2055C174.206 10.8693 171.694 10.2009 169.022 10.2009C165.327 10.2009 162.057 11.4852 159.211 14.053C159.006 14.2386 158.811 14.4277 158.62 14.619C160.348 16.8704 161.395 19.4233 161.809 22.3346C162.166 21.1413 162.767 20.091 163.627 19.1929C165.094 17.6576 166.932 16.8896 169.139 16.8896C171.4 16.8896 173.254 17.6491 174.705 19.1673C176.156 20.6848 176.882 22.6588 176.882 25.088C176.882 27.5164 176.144 29.5033 174.666 31.0471C173.189 32.5916 171.337 33.3632 169.114 33.3632C166.889 33.3632 165.051 32.6002 163.601 31.0734C163.223 30.6752 162.897 30.2443 162.616 29.782C161.73 28.4124 161.232 26.651 161.16 24.544C161.037 20.8981 159.985 17.8155 157.962 15.1659C157.753 14.9028 157.544 14.6404 157.313 14.3915C154.728 11.5982 151.588 10.2009 147.892 10.2009C146.193 10.2009 144.595 10.5223 143.104 11.1644C141.611 11.8059 140.224 12.7694 138.939 14.053V0H134.848C133.212 0 131.886 1.32549 131.886 2.96107V36.2837C131.886 37.9193 133.212 39.2448 134.848 39.2448H138.939V36.2524C140.327 37.5701 141.724 38.5202 143.13 39.1019C144.535 39.6828 146.053 39.9737 147.684 39.9737C151.345 39.9737 154.512 38.555 157.184 35.7184C157.253 35.6444 157.313 35.5648 157.38 35.4894C155.46 33.1812 154.285 30.4519 153.86 27.3493C153.53 28.7915 152.878 30.0444 151.887 31.099C150.404 32.6784 148.578 33.4677 146.409 33.4677C144.171 33.4677 142.314 32.6912 140.839 31.1388C139.365 29.5858 138.628 27.5513 138.628 25.0361C138.628 22.5721 139.365 20.5767 140.839 19.05C142.314 17.5232 144.171 16.7595 146.409 16.7595C146.897 16.7595 147.362 16.8036 147.812 16.8782L147.817 16.8491C151.985 17.5083 154.37 20.5198 154.532 25.3298C154.67 29.4542 156.096 32.9472 158.748 35.7298C161.602 38.555 165.033 39.9737 169.048 39.9737C171.808 39.9737 174.332 39.3188 176.622 38.0089C178.912 36.699 180.721 34.8814 182.048 32.5568C183.376 30.2315 184.038 27.7333 184.038 25.0617C184.038 22.4064 183.379 19.9346 182.061 17.6441Z" fill="#AAAAAA"/>
</g>
<defs>
<clipPath id="clip0_1882_217">
<rect width="184" height="40" fill="white"/>
</clipPath>
</defs>
</svg>
