<svg width="200" height="27" viewBox="0 0 200 27" fill="none" xmlns="http://www.w3.org/2000/svg">
<g clip-path="url(#clip0_5702_762)">
<mask id="mask0_5702_762" style="mask-type:luminance" maskUnits="userSpaceOnUse" x="0" y="0" width="200" height="27">
<path d="M200 0H0V26.0382H200V0Z" fill="white"/>
</mask>
<g mask="url(#mask0_5702_762)">
<path d="M5.14925e-05 26.038V10.4238C-0.00208812 10.1171 0.0624749 9.81365 0.189274 9.53435C0.316073 9.25505 0.50208 9.00661 0.734426 8.80622C1.22297 8.35653 1.85943 8.13169 2.6438 8.13169C3.5438 8.13169 4.22922 8.44397 4.70005 9.06853C4.87785 9.26864 4.99965 9.51209 5.05318 9.77429C5.55659 9.16263 6.19961 8.6807 6.92818 8.36902C7.76299 8.00532 8.66602 7.82431 9.57661 7.83814C12.2391 7.83814 14.1584 8.71878 15.3344 10.4801C16.0273 9.62849 16.9132 8.95408 17.9188 8.51267C18.9178 8.06688 19.9997 7.83702 21.0938 7.83814C23.2813 7.83814 25.0141 8.48404 26.2922 9.77586C27.5704 11.0677 28.2068 13.1225 28.2016 15.9403V26.038H23.0297V16.5852C23.0297 15.1383 22.7756 14.101 22.2672 13.4733C21.7589 12.8456 21.0339 12.5333 20.0922 12.5364C19.1547 12.5364 18.4011 12.8201 17.8313 13.3874C17.2687 13.9449 16.8722 14.6477 16.686 15.4172V26.0442H11.5157V16.5852C11.5157 15.1383 11.261 14.101 10.7516 13.4733C10.2422 12.8456 9.51776 12.5333 8.57818 12.5364C8.16807 12.5227 7.75935 12.5909 7.37595 12.7371C6.99255 12.8832 6.64218 13.1043 6.34536 13.3874C5.77817 13.9212 5.37125 14.6025 5.17036 15.3548V26.0396L5.14925e-05 26.038Z" fill="#AAAAAA"/>
<path d="M39.5906 26.0381C36.9677 26.0381 34.8432 25.2053 33.2172 23.5398C31.5911 21.8743 30.7792 19.6539 30.7813 16.8788C30.7813 14.1016 31.5745 11.9 33.1609 10.274C34.7474 8.64805 36.8307 7.83612 39.4109 7.8382C41.2106 7.82111 42.9435 8.51796 44.2297 9.77591C44.39 9.30028 44.6989 8.88866 45.1109 8.60173C45.5554 8.28415 46.0913 8.11974 46.6375 8.13331C47.4198 8.13331 48.0563 8.35815 48.5469 8.80784C48.7785 9.00815 48.964 9.25614 49.0908 9.53481C49.2176 9.81348 49.2825 10.1162 49.2813 10.4223V26.0365H44.2188C44.2188 26.0365 44.2188 25.6446 44.2297 24.333C42.9724 25.4697 41.426 26.0381 39.5906 26.0381ZM40 21.282C41.25 21.282 42.249 20.8614 42.9969 20.0204C43.7448 19.1793 44.1167 18.1321 44.1125 16.8788C44.1125 15.588 43.7406 14.5507 42.9969 13.7669C42.2531 12.9831 41.2542 12.5917 40 12.5927C38.7865 12.5927 37.7969 12.9841 37.0313 13.7669C36.2656 14.5497 35.8833 15.587 35.8844 16.8788C35.8844 18.1279 36.2667 19.1751 37.0313 20.0204C37.7958 20.8656 38.7854 21.2861 40 21.282Z" fill="#AAAAAA"/>
<path d="M66.7188 17.9813C67.6747 17.1728 68.4432 16.1663 68.9712 15.0315C69.4992 13.8967 69.774 12.6608 69.7766 11.4093V11.3812V10.6833C69.76 10.0091 69.4803 9.36816 68.9973 8.89722C68.5143 8.42627 67.8662 8.16266 67.1914 8.16266C66.5166 8.16266 65.8685 8.42627 65.3855 8.89722C64.9025 9.36816 64.6228 10.0091 64.6063 10.6833V11.3812C64.5869 12.295 64.2101 13.1649 63.5566 13.8043C62.903 14.4437 62.0248 14.8018 61.1102 14.8018C60.1955 14.8018 59.3173 14.4437 58.6638 13.8043C58.0102 13.1649 57.6334 12.295 57.6141 11.3812V10.713C57.6141 10.028 57.3418 9.37112 56.8571 8.88679C56.3725 8.40246 55.7151 8.13037 55.0297 8.13037C54.3443 8.13037 53.6869 8.40246 53.2023 8.88679C52.7176 9.37112 52.4453 10.028 52.4453 10.713V11.3812V11.4093C52.4479 12.661 52.7228 13.897 53.2511 15.0319C53.7794 16.1667 54.5483 17.1731 55.5047 17.9813C54.5449 18.7931 53.774 19.8044 53.2456 20.9446C52.7172 22.0848 52.4441 23.3265 52.4453 24.583V26.0367H57.6141V24.583C57.6042 24.118 57.6874 23.6557 57.8587 23.2232C58.0299 22.7907 58.2859 22.3968 58.6115 22.0644C58.9371 21.7321 59.3259 21.4681 59.7549 21.2878C60.184 21.1075 60.6447 21.0147 61.1102 21.0147C61.5756 21.0147 62.0364 21.1075 62.4654 21.2878C62.8945 21.4681 63.2832 21.7321 63.6088 22.0644C63.9344 22.3968 64.1904 22.7907 64.3617 23.2232C64.5329 23.6557 64.6161 24.118 64.6063 24.583V26.007H69.7766V24.583C69.7777 23.3266 69.5047 22.0852 68.9766 20.945C68.4485 19.8049 67.678 18.7935 66.7188 17.9813Z" fill="#AAAAAA"/>
<path d="M78.3938 10.7142V26.0379H73.2234V10.7142C73.24 10.04 73.5197 9.39907 74.0027 8.92812C74.4857 8.45718 75.1338 8.19357 75.8086 8.19357C76.4834 8.19357 77.1315 8.45718 77.6145 8.92812C78.0975 9.39907 78.3772 10.04 78.3938 10.7142ZM78.75 2.81031C78.75 4.32332 77.4344 5.55059 75.8125 5.55059C74.1906 5.55059 72.875 4.32332 72.875 2.81031C72.875 1.2973 74.1828 0.074707 75.8063 0.074707C77.4297 0.074707 78.75 1.30198 78.75 2.81031Z" fill="#AAAAAA"/>
<path d="M82.1077 26.0381V10.424C82.106 10.1178 82.1708 9.81492 82.2976 9.53619C82.4244 9.25746 82.6101 9.00952 82.8421 8.80948C83.3306 8.35979 83.9671 8.13495 84.7514 8.13495C85.6525 8.13495 86.3379 8.44723 86.8077 9.0718C86.9861 9.27148 87.108 9.51511 87.1608 9.77756C87.6646 9.16625 88.3075 8.68438 89.0358 8.37228C89.8694 8.01031 90.7708 7.83038 91.6796 7.84452C94.3421 7.84452 96.2613 8.72516 97.4374 10.4864C98.1303 9.63487 99.0162 8.96047 100.022 8.51905C101.02 8.07366 102.102 7.84381 103.195 7.84452C105.383 7.84452 107.116 8.49043 108.394 9.78224C109.672 11.0741 110.311 13.1268 110.312 15.9405V26.0381H105.139V16.5853C105.139 15.1384 104.884 14.1011 104.375 13.4734C103.866 12.8457 103.141 12.5335 102.201 12.5366C101.264 12.5366 100.51 12.8202 99.9389 13.3875C99.3764 13.9451 98.9799 14.6478 98.7936 15.4174V26.0444H93.6233V16.5853C93.6233 15.1384 93.3686 14.1011 92.8593 13.4734C92.3499 12.8457 91.6254 12.5335 90.6858 12.5366C90.2757 12.5229 89.867 12.5911 89.4836 12.7372C89.1002 12.8833 88.7498 13.1044 88.453 13.3875C87.8858 13.9213 87.4789 14.6027 87.278 15.3549V26.0397L82.1077 26.0381Z" fill="#AAAAAA"/>
<path d="M118.769 10.7142V26.0379H113.594V10.7142C113.61 10.04 113.89 9.39907 114.373 8.92812C114.856 8.45718 115.504 8.19357 116.179 8.19357C116.854 8.19357 117.502 8.45718 117.985 8.92812C118.468 9.39907 118.748 10.04 118.764 10.7142H118.769ZM119.12 2.81031C119.12 4.32332 117.806 5.55059 116.183 5.55059C114.559 5.55059 113.245 4.32332 113.245 2.81031C113.245 1.2973 114.561 0.074707 116.183 0.074707C117.805 0.074707 119.12 1.30198 119.12 2.81031Z" fill="#AAAAAA"/>
<path d="M127.842 2.58264V26.0382H122.672V2.58264C122.688 1.90848 122.968 1.26752 123.451 0.796569C123.934 0.325623 124.582 0.0620117 125.257 0.0620117C125.932 0.0620117 126.58 0.325623 127.063 0.796569C127.546 1.26752 127.826 1.90848 127.842 2.58264Z" fill="#AAAAAA"/>
<path d="M137.045 10.7142V26.0379H131.875V10.7142C131.875 10.0292 132.147 9.37236 132.632 8.88803C133.117 8.4037 133.774 8.13161 134.459 8.13161C135.145 8.13161 135.802 8.4037 136.287 8.88803C136.771 9.37236 137.045 10.0292 137.045 10.7142ZM137.398 2.81031C137.398 4.32332 136.083 5.55059 134.461 5.55059C132.839 5.55059 131.523 4.32332 131.523 2.81031C131.523 1.2973 132.839 0.074707 134.461 0.074707C136.083 0.074707 137.398 1.30198 137.398 2.81031Z" fill="#AAAAAA"/>
<path d="M148.659 26.0381C146.034 26.0381 143.909 25.2053 142.284 23.5398C140.659 21.8743 139.846 19.6539 139.844 16.8788C139.844 14.1016 140.636 11.9 142.222 10.274C143.807 8.64805 145.891 7.83611 148.472 7.8382C150.271 7.82118 152.003 8.51805 153.289 9.77591C153.449 9.30027 153.758 8.88866 154.17 8.60173C154.615 8.28434 155.152 8.11995 155.698 8.13329C156.481 8.13329 157.117 8.35814 157.608 8.80782C157.839 9.00814 158.025 9.25614 158.152 9.53481C158.278 9.81348 158.343 10.1162 158.342 10.4223V26.0365H153.289C153.289 26.0365 153.289 25.6446 153.3 24.333C152.047 25.4697 150.5 26.0381 148.659 26.0381ZM149.07 21.282C150.32 21.282 151.319 20.8614 152.067 20.0204C152.815 19.1793 153.187 18.1321 153.183 16.8788C153.183 15.588 152.811 14.5507 152.067 13.7669C151.323 12.9831 150.324 12.5917 149.07 12.5927C147.857 12.5927 146.867 12.9841 146.102 13.7669C145.336 14.5497 144.954 15.587 144.956 16.8788C144.956 18.1279 145.338 19.1751 146.102 20.0204C146.865 20.8656 147.855 21.2861 149.07 21.282Z" fill="#AAAAAA"/>
<path d="M173.877 26.0382V16.5854C173.877 15.1385 173.553 14.1012 172.906 13.4735C172.592 13.1666 172.22 12.9256 171.811 12.7647C171.403 12.6038 170.966 12.5263 170.527 12.5367C170.078 12.5226 169.632 12.5982 169.213 12.7591C168.795 12.92 168.412 13.1629 168.089 13.4735C167.468 14.0531 167.047 14.8138 166.884 15.647V26.0382H161.719V10.4241C161.717 10.1179 161.782 9.81502 161.909 9.53629C162.035 9.25756 162.221 9.00963 162.453 8.80958C162.942 8.35989 163.578 8.13505 164.363 8.13505C164.928 8.11913 165.483 8.29343 165.938 8.63002C166.358 8.9474 166.666 9.38964 166.819 9.8932C167.876 8.52436 169.482 7.83942 171.638 7.83838C173.825 7.83838 175.607 8.48428 176.983 9.7761C178.359 11.0679 179.044 13.1227 179.039 15.9406V26.0382H173.877Z" fill="#AAAAAA"/>
<path d="M190.313 26.0383C187.688 26.0383 185.562 25.2055 183.937 23.54C182.312 21.8745 181.5 19.6531 181.5 16.8759C181.5 14.0986 182.293 11.897 183.88 10.2711C185.466 8.64513 187.549 7.8332 190.13 7.83528C191.929 7.81792 193.661 8.51484 194.947 9.77299C195.107 9.29735 195.416 8.88574 195.828 8.59881C196.273 8.28142 196.81 8.11704 197.356 8.13038C198.139 8.13038 198.775 8.35523 199.266 8.80492C199.497 9.00523 199.683 9.25322 199.81 9.53189C199.936 9.81056 200.001 10.1133 200 10.4194V26.0336H194.938C194.938 26.0336 194.938 25.6417 194.947 24.3301C193.694 25.4689 192.149 26.0383 190.313 26.0383ZM190.723 21.2822C191.973 21.2822 192.972 20.8616 193.72 20.0206C194.468 19.1795 194.84 18.1323 194.836 16.879C194.836 15.5882 194.464 14.5509 193.72 13.7671C192.977 12.9833 191.978 12.5919 190.723 12.5929C189.51 12.5929 188.52 12.9843 187.755 13.7671C186.989 14.5499 186.607 15.5872 186.609 16.879C186.609 18.1281 186.991 19.1753 187.755 20.0206C188.518 20.8658 189.506 21.2864 190.717 21.2822H190.723Z" fill="#AAAAAA"/>
</g>
</g>
<defs>
<clipPath id="clip0_5702_762">
<rect width="200" height="27" fill="white"/>
</clipPath>
</defs>
</svg>
