<svg width="188" height="40" viewBox="0 0 188 40" fill="none" xmlns="http://www.w3.org/2000/svg">
<g clip-path="url(#clip0_1882_140)">
<path d="M78.0001 8.00001V32H73.8335V13.1667H73.7779L66.3335 32H63.5557L55.9446 13.1667H55.889V32H52.0557V8.00001H58.0557L64.9446 25.7778H65.0557L72.3335 8.00001H78.0001ZM81.4446 9.83334C81.4446 9.16667 81.6668 8.61112 82.1668 8.16667C82.6668 7.72223 83.2223 7.50001 83.889 7.50001C84.6112 7.50001 85.2223 7.72223 85.6668 8.16667C86.1112 8.61112 86.389 9.16667 86.389 9.83334C86.389 10.5 86.1668 11.0556 85.6668 11.5C85.1668 11.9445 84.6112 12.1667 83.889 12.1667C83.1668 12.1667 82.6112 11.9445 82.1668 11.5C81.7223 11 81.4446 10.4445 81.4446 9.83334ZM85.9446 14.7778V32H81.889V14.7778H85.9446ZM98.2224 29.0556C98.8335 29.0556 99.5001 28.9445 100.222 28.6111C100.945 28.3333 101.611 27.9445 102.222 27.5V31.2778C101.556 31.6667 100.833 31.9445 100 32.1111C99.1668 32.2778 98.2779 32.3889 97.2779 32.3889C94.7224 32.3889 92.6668 31.6111 91.1112 30C89.5001 28.3889 88.7223 26.3333 88.7223 23.8889C88.7223 21.1111 89.5557 18.8333 91.1668 17.0556C92.7779 15.2778 95.0557 14.3889 98.0557 14.3889C98.8335 14.3889 99.6112 14.5 100.333 14.6667C101.111 14.8333 101.722 15.1111 102.167 15.3333V19.2222C101.556 18.7778 100.889 18.3889 100.278 18.1667C99.6112 17.9445 98.9446 17.7778 98.2779 17.7778C96.6668 17.7778 95.389 18.2778 94.389 19.3333C93.389 20.3889 92.9446 21.7778 92.9446 23.5556C92.9446 25.2778 93.4446 26.6667 94.389 27.6111C95.3335 28.5556 96.6112 29.0556 98.2224 29.0556ZM113.722 14.5C114.056 14.5 114.333 14.5 114.611 14.5556C114.889 14.6111 115.111 14.6667 115.278 14.7222V18.8333C115.056 18.6667 114.778 18.5 114.333 18.3889C113.889 18.2778 113.445 18.1667 112.833 18.1667C111.833 18.1667 111 18.6111 110.333 19.4445C109.667 20.2778 109.278 21.5556 109.278 23.3333V32H105.222V14.7778H109.278V17.5H109.333C109.722 16.5556 110.278 15.8333 111 15.2778C111.778 14.7778 112.667 14.5 113.722 14.5ZM115.5 23.6667C115.5 20.8333 116.333 18.5556 117.889 16.8889C119.5 15.2222 121.722 14.3889 124.556 14.3889C127.222 14.3889 129.333 15.1667 130.833 16.7778C132.333 18.3889 133.111 20.5556 133.111 23.2778C133.111 26.0556 132.278 28.2778 130.722 29.9445C129.111 31.6111 126.945 32.4445 124.167 32.4445C121.5 32.4445 119.389 31.6667 117.833 30.1111C116.278 28.5 115.5 26.3333 115.5 23.6667ZM119.722 23.5C119.722 25.2778 120.111 26.6667 120.945 27.6111C121.778 28.5556 122.945 29.0556 124.445 29.0556C125.889 29.0556 127.056 28.6111 127.833 27.6111C128.611 26.6667 129 25.2778 129 23.3889C129 21.5556 128.611 20.1667 127.833 19.1667C127.056 18.2222 125.889 17.7222 124.5 17.7222C123 17.7222 121.889 18.2222 121.056 19.2222C120.111 20.2778 119.722 21.6667 119.722 23.5ZM139.167 19.3333C139.167 19.8889 139.333 20.3889 139.722 20.7222C140.111 21.0556 140.889 21.4445 142.167 21.9445C143.778 22.6111 144.945 23.3333 145.556 24.1111C146.222 24.9445 146.556 25.8889 146.556 27.0556C146.556 28.6667 145.945 29.9445 144.667 30.9445C143.445 31.9445 141.722 32.3889 139.611 32.3889C138.889 32.3889 138.111 32.2778 137.222 32.1111C136.333 31.9445 135.611 31.7222 135 31.4445V27.4445C135.722 27.9445 136.556 28.3889 137.389 28.6667C138.222 28.9445 139 29.1111 139.722 29.1111C140.611 29.1111 141.333 29 141.722 28.7222C142.167 28.4445 142.389 28.0556 142.389 27.4445C142.389 26.8889 142.167 26.4445 141.722 26C141.278 25.6111 140.389 25.1667 139.167 24.6667C137.667 24.0556 136.611 23.3333 136 22.5556C135.389 21.7778 135.056 20.7778 135.056 19.5556C135.056 18 135.667 16.7222 136.889 15.7222C138.111 14.7222 139.722 14.2222 141.667 14.2222C142.278 14.2222 142.945 14.2778 143.667 14.4445C144.389 14.6111 145.056 14.7778 145.556 14.9445V18.8889C145 18.5556 144.389 18.2222 143.667 17.9445C142.945 17.6667 142.222 17.5556 141.556 17.5556C140.778 17.5556 140.167 17.7222 139.778 18C139.389 18.3889 139.167 18.7778 139.167 19.3333ZM148.278 23.6667C148.278 20.8333 149.111 18.5556 150.667 16.8889C152.278 15.2222 154.5 14.3889 157.334 14.3889C160 14.3889 162.111 15.1667 163.611 16.7778C165.111 18.3889 165.889 20.5556 165.889 23.2778C165.889 26.0556 165.056 28.2778 163.5 29.9445C161.889 31.6111 159.722 32.4445 156.945 32.4445C154.278 32.4445 152.167 31.6667 150.611 30.1111C149.111 28.5 148.278 26.3333 148.278 23.6667ZM152.5 23.5C152.5 25.2778 152.889 26.6667 153.722 27.6111C154.556 28.5556 155.722 29.0556 157.222 29.0556C158.667 29.0556 159.833 28.6111 160.611 27.6111C161.389 26.6667 161.778 25.2778 161.778 23.3889C161.778 21.5556 161.389 20.1667 160.611 19.1667C159.833 18.2222 158.667 17.7222 157.278 17.7222C155.778 17.7222 154.667 18.2222 153.833 19.2222C152.945 20.2778 152.5 21.6667 152.5 23.5ZM179.389 18.1111H173.334V32H169.222V18.1111H166.333V14.7778H169.222V12.3889C169.222 10.6111 169.833 9.11112 171 7.94445C172.167 6.77778 173.667 6.22223 175.5 6.22223C176 6.22223 176.445 6.27778 176.833 6.27778C177.222 6.27778 177.556 6.3889 177.834 6.50001V10C177.722 9.94445 177.445 9.83334 177.111 9.72223C176.778 9.61112 176.389 9.55556 175.945 9.55556C175.111 9.55556 174.445 9.83334 174 10.3333C173.556 10.8333 173.334 11.6667 173.334 12.6667V14.7222H179.389V10.8333L183.445 9.61112V14.7222H187.556V18.0556H183.445V26.1111C183.445 27.1667 183.667 27.8889 184 28.3333C184.389 28.7778 185 29 185.834 29C186.056 29 186.334 28.9445 186.667 28.8333C187 28.7222 187.278 28.6111 187.5 28.4445V31.7778C187.222 31.9445 186.834 32.0556 186.222 32.1667C185.611 32.2778 185.056 32.3333 184.445 32.3333C182.722 32.3333 181.445 31.8889 180.611 31C179.778 30.1111 179.333 28.7222 179.333 26.8889L179.389 18.1111Z" fill="#AAAAAA"/>
<path d="M19 0H0V19H19V0Z" fill="#AAAAAA"/>
<path d="M40 0H21V19H40V0Z" fill="#AAAAAA"/>
<path d="M19 21H0V40H19V21Z" fill="#AAAAAA"/>
<path d="M40 21H21V40H40V21Z" fill="#AAAAAA"/>
</g>
<defs>
<clipPath id="clip0_1882_140">
<rect width="187.556" height="40" fill="white"/>
</clipPath>
</defs>
</svg>
