<svg width="206" height="40" viewBox="0 0 206 40" fill="none" xmlns="http://www.w3.org/2000/svg">
<g clip-path="url(#clip0_1939_317)">
<path d="M198.61 26.2514C196.675 26.2514 194.737 26.268 192.799 26.24C192.331 26.232 192.228 26.3794 192.242 26.8194C192.25 27.6874 192.352 28.552 192.547 29.3977C193.101 31.5412 194.487 32.6863 196.703 32.7692C199.108 32.8375 201.516 32.72 203.903 32.4177C204.611 32.3326 204.835 32.516 204.844 33.2177C204.865 34.9937 204.88 34.9474 203.197 35.2177C200.811 35.6512 198.379 35.7825 195.961 35.6086C192.408 35.2817 189.961 33.1012 189.221 29.5674C189.074 28.9511 188.996 28.3204 188.988 27.6869C189.019 25.6057 188.855 23.5234 189.096 21.4457C189.27 19.6221 190.111 17.9268 191.458 16.6846C192.804 15.4424 194.561 14.7406 196.393 14.7137C197.785 14.5998 199.186 14.7597 200.516 15.1846C203.186 16.1526 204.603 18.156 205.183 20.8577C205.513 22.3972 205.385 23.9577 205.394 25.5137C205.398 26.0326 205.121 26.2423 204.527 26.244C202.555 26.2492 200.582 26.244 198.609 26.244M197.255 17.5492C195.992 17.6 194.741 17.7989 193.756 18.7834C192.459 20.0834 192.279 21.7423 192.251 23.4543C192.246 23.7726 192.467 23.7286 192.661 23.7286C195.666 23.7286 198.671 23.7234 201.677 23.7349C202.014 23.7349 202.149 23.6149 202.103 23.292C202.011 22.6469 202.052 21.992 201.923 21.3492C201.598 19.7343 200.925 18.4034 199.222 17.8583C198.584 17.6677 197.922 17.5644 197.255 17.5514" fill="#AAAAAA"/>
<path d="M180.106 16.428C181.114 15.7258 182.239 15.2078 183.428 14.8983C184.081 14.7559 184.749 14.6914 185.418 14.7063C185.514 14.6944 185.611 14.7044 185.702 14.7353C185.793 14.7663 185.875 14.8176 185.944 14.8852C186.012 14.9528 186.064 15.0351 186.096 15.1257C186.128 15.2164 186.138 15.3131 186.128 15.4086C186.141 15.8434 186.14 16.2783 186.128 16.7131C186.111 17.3463 185.916 17.5497 185.257 17.5469C183.639 17.574 182.056 18.0159 180.659 18.8303C180.506 18.8976 180.378 19.0119 180.294 19.1568C180.21 19.3017 180.174 19.4695 180.192 19.636C180.205 24.5103 180.209 29.3832 180.202 34.2549C180.202 35.2492 179.991 35.4549 178.981 35.4549C178.567 35.4549 178.149 35.4697 177.734 35.4469C177.62 35.4579 177.504 35.4427 177.397 35.4024C177.289 35.362 177.192 35.2976 177.113 35.2141C177.034 35.1305 176.975 35.03 176.941 34.9202C176.906 34.8104 176.898 34.6943 176.915 34.5806C176.912 28.3116 176.912 22.0431 176.915 15.7749C176.915 15.192 177.164 14.9543 177.741 14.9411C178.193 14.9314 178.645 14.9377 179.099 14.9411C179.852 14.9446 180.066 15.1526 180.076 15.8977C180.079 16.0389 180.09 16.18 180.102 16.4263" fill="#AAAAAA"/>
<path d="M172.565 25.216C172.64 26.7896 172.499 28.3659 172.149 29.9017C171.771 31.5603 170.837 33.0397 169.502 34.0939C168.167 35.1481 166.512 35.7137 164.811 35.6966C163.197 35.8039 161.583 35.4989 160.12 34.8103C159.077 34.2858 158.18 33.5136 157.506 32.5613C156.832 31.609 156.402 30.5058 156.254 29.3486C155.705 26.3869 155.754 23.3451 156.399 20.4029C156.75 18.8041 157.633 17.3716 158.903 16.3393C160.174 15.307 161.756 14.7359 163.393 14.7194C164.694 14.615 166.004 14.7485 167.257 15.1132C170.078 16.0434 171.6 18.0949 172.249 20.8966C172.53 22.3175 172.636 23.7675 172.565 25.2143M169.224 24.8857C169.245 23.9344 169.21 22.9826 169.119 22.0354C168.572 18.2983 165.919 17.1057 162.9 17.7326C160.957 18.1326 159.752 19.5903 159.441 21.7829C159.228 23.8555 159.198 25.9428 159.352 28.0206C159.393 28.6534 159.536 29.2755 159.773 29.8634C160.519 31.8634 162.062 32.8257 164.476 32.7846C165.444 32.8178 166.396 32.5261 167.18 31.9561C167.963 31.3861 168.534 30.5704 168.8 29.6389C169.306 28.1829 169.226 26.68 169.223 24.8863" fill="#AAAAAA"/>
<path d="M151.608 21.2349V34.0029C151.608 34.812 151.528 34.9286 150.715 35.0777C148.079 35.648 145.372 35.8262 142.684 35.6063C139.198 35.2126 137.057 33.4172 136.291 29.9886C135.467 26.5757 135.53 23.0087 136.473 19.6269C137.357 16.6217 139.806 14.8657 142.939 14.7263C144.603 14.6403 146.271 14.7282 147.916 14.9886C148.298 15.0526 148.339 14.944 148.337 14.624C148.328 12.54 148.332 10.4589 148.332 8.37486C148.332 7.62458 148.516 7.44287 149.253 7.43944C149.705 7.43944 150.158 7.43944 150.611 7.43944C151.442 7.43944 151.606 7.61087 151.608 8.46801V21.236L151.608 21.2349ZM148.333 25.2029C148.333 22.9217 148.329 20.6423 148.338 18.3594C148.338 18.0394 148.321 17.8046 147.909 17.7669C146.525 17.6176 145.134 17.5535 143.743 17.5749C141.267 17.652 139.871 18.74 139.427 21.1749C138.917 23.9389 138.936 26.7747 139.484 29.5314C139.62 30.4219 140.067 31.2354 140.746 31.8273C141.425 32.4193 142.292 32.7514 143.193 32.7646C144.747 32.8242 146.303 32.7771 147.851 32.6234C148.261 32.5954 148.342 32.428 148.341 32.0492C148.322 29.768 148.331 27.4886 148.331 25.2057" fill="#AAAAAA"/>
<path d="M128.226 33.9257C127.112 34.5856 125.915 35.0939 124.667 35.4372C123.417 35.7553 122.113 35.7943 120.847 35.5514C119.666 35.3855 118.583 34.805 117.792 33.9138C117 33.0225 116.551 31.8787 116.526 30.6869C116.4 29.6048 116.442 28.5098 116.65 27.4406C117.124 25.4251 118.512 24.3257 120.405 23.7594C121.797 23.3587 123.241 23.1662 124.69 23.188C125.703 23.188 126.717 23.188 127.732 23.188C127.954 23.188 128.179 23.2109 128.168 22.8743C128.205 21.9516 128.167 21.0274 128.054 20.1109C127.736 18.5074 126.839 17.6623 125.209 17.5589C123.347 17.4688 121.481 17.516 119.626 17.7C119.211 17.736 118.795 17.7572 118.381 17.7789C117.909 17.8086 117.666 17.6074 117.686 17.1109C117.699 16.732 117.707 16.3492 117.686 15.972C117.669 15.8819 117.672 15.7893 117.693 15.7002C117.715 15.6112 117.755 15.5277 117.811 15.4551C117.867 15.3825 117.937 15.3225 118.018 15.2789C118.099 15.2354 118.188 15.2093 118.279 15.2023C121.089 14.7229 123.919 14.3932 126.744 14.9497C129.519 15.496 131.103 17.3834 131.409 20.2211C131.476 20.8689 131.508 21.5197 131.504 22.1709C131.507 26.2112 131.507 30.2511 131.504 34.2903C131.504 35.2223 131.275 35.452 130.361 35.4554C130.018 35.4554 129.675 35.4589 129.329 35.4554C128.507 35.4474 128.273 35.2109 128.26 34.384C128.257 34.2594 128.243 34.1343 128.23 33.9229M128.173 28.5337C128.173 27.7377 128.141 26.9383 128.185 26.144C128.211 25.6434 128.031 25.5337 127.569 25.5514C126.683 25.584 125.797 25.5577 124.909 25.5611C123.895 25.5343 122.883 25.6566 121.905 25.924C121.354 26.0519 120.857 26.3512 120.487 26.7791C120.117 27.207 119.892 27.7413 119.844 28.3052C119.734 29.1309 119.749 29.9686 119.89 30.7897C119.949 31.2893 120.166 31.7571 120.508 32.126C120.85 32.4949 121.3 32.7459 121.794 32.8429C122.111 32.9172 122.434 32.9633 122.759 32.9806C124.577 33.0158 126.37 32.5509 127.942 31.6366C128.166 31.5166 128.174 31.3463 128.174 31.1411C128.171 30.2731 128.174 29.4034 128.174 28.5337" fill="#AAAAAA"/>
<path d="M107.702 16.4023C108.369 15.9858 109.064 15.6156 109.782 15.2943C110.787 14.8758 111.869 14.6756 112.958 14.7069C113.536 14.7269 113.685 14.8783 113.692 15.4617C113.697 15.8617 113.695 16.2617 113.692 16.6566C113.689 17.3491 113.521 17.5446 112.84 17.5429C111.223 17.5728 109.641 18.0168 108.245 18.8326C108.1 18.8946 107.978 19.0018 107.898 19.1384C107.819 19.275 107.785 19.4337 107.803 19.5909C107.812 24.4815 107.815 29.3716 107.809 34.2611C107.809 35.2229 107.619 35.4149 106.679 35.4166C106.226 35.4166 105.773 35.4263 105.322 35.4166C104.771 35.4017 104.545 35.172 104.515 34.6166C104.51 34.5069 104.515 34.3983 104.515 34.2886V16.0897C104.515 15.0823 104.661 14.9412 105.687 14.9412C106.03 14.9412 106.373 14.9412 106.715 14.9412C107.433 14.9446 107.682 15.1937 107.701 15.9194C107.704 16.044 107.701 16.1703 107.701 16.4051" fill="#AAAAAA"/>
<path d="M95.7313 25.1572C95.7313 22.116 95.7313 19.0745 95.7313 16.0326C95.7313 15.1514 95.9376 14.9429 96.8044 14.9411C97.221 14.9411 97.637 14.9377 98.053 14.9411C98.7759 14.9463 99.0164 15.1909 99.0182 15.9274C99.0216 17.8657 99.0216 19.8029 99.0182 21.7389V34.2852C99.0182 35.2566 98.8542 35.4194 97.8827 35.4194C97.4679 35.4194 97.0519 35.4257 96.6359 35.4194C95.9502 35.4097 95.7313 35.1909 95.7296 34.5006C95.7265 31.3874 95.7265 28.2737 95.7296 25.1594" fill="#AAAAAA"/>
<path d="M99.1005 9.50229C99.1005 9.97315 99.1216 10.444 99.0954 10.9137C99.1014 11.0188 99.0849 11.1239 99.0469 11.222C99.009 11.3201 98.9505 11.409 98.8753 11.4826C98.8002 11.5563 98.7102 11.613 98.6114 11.649C98.5125 11.6851 98.4071 11.6995 98.3022 11.6914C97.7062 11.6977 97.1097 11.7011 96.5131 11.6914C96.4038 11.7056 96.2927 11.695 96.1881 11.6604C96.0834 11.6259 95.9878 11.5683 95.9084 11.4919C95.829 11.4155 95.7678 11.3223 95.7292 11.219C95.6906 11.1158 95.6758 11.0052 95.6857 10.8954C95.6578 9.93696 95.6578 8.9781 95.6857 8.01886C95.6748 7.90886 95.6887 7.79782 95.7265 7.69394C95.7642 7.59005 95.8248 7.49597 95.9038 7.41864C95.9828 7.34131 96.0781 7.28269 96.1828 7.24712C96.2874 7.21156 96.3988 7.19995 96.5085 7.21315C97.1034 7.1983 97.7028 7.19658 98.2982 7.21315C98.4072 7.20585 98.5166 7.22235 98.6186 7.26152C98.7206 7.30069 98.8128 7.36159 98.889 7.43999C98.9651 7.51838 99.0232 7.61241 99.0593 7.71552C99.0955 7.81864 99.1087 7.92838 99.0982 8.03715C99.1125 8.52629 99.1011 9.01543 99.0982 9.50286" fill="#AAAAAA"/>
<path d="M86.5178 12.6291C85.8263 14.0535 85.1353 15.4791 84.4446 16.9057C83.3829 19.1063 82.3126 21.3023 81.2703 23.5114C81.1272 23.8963 80.8593 24.2222 80.5096 24.4373C80.1598 24.6523 79.7481 24.7442 79.3401 24.6983C78.8709 24.672 78.3978 24.68 77.9275 24.6983C77.537 24.7328 77.1458 24.639 76.8135 24.4311C76.4811 24.2232 76.2256 23.9125 76.0858 23.5463C74.3783 19.9718 72.6604 16.4019 70.932 12.8366C70.904 12.7743 70.8635 12.7166 70.7646 12.5509C70.7532 12.84 70.7366 13.0217 70.7366 13.2057C70.7366 20.2362 70.7366 27.2669 70.7366 34.2977C70.7366 35.2349 70.5183 35.4566 69.5938 35.4594C69.2121 35.4594 68.8332 35.4629 68.4509 35.4594C67.6269 35.4514 67.3789 35.2069 67.3789 34.388C67.3789 30.0391 67.3789 25.6907 67.3789 21.3429V9.16572C67.3789 8.13714 67.7526 7.76743 68.7898 7.76572C69.44 7.76572 70.0955 7.80343 70.7446 7.756C71.0681 7.71304 71.3965 7.78381 71.6735 7.95622C71.9506 8.12863 72.1591 8.39196 72.2635 8.70115C74.2063 12.8023 76.1863 16.8937 78.156 20.9834C78.2703 21.2166 78.32 21.5549 78.6612 21.5549C79.0023 21.5549 79.0612 21.2349 79.1755 20.9971C81.1452 16.904 83.1212 12.8143 85.0663 8.71143C85.1709 8.40234 85.3787 8.13866 85.6548 7.96467C85.9308 7.79069 86.2584 7.71701 86.5823 7.756C87.3035 7.80343 88.0309 7.76115 88.7538 7.76744C88.9127 7.75507 89.0724 7.77658 89.2224 7.83055C89.3724 7.88451 89.5092 7.96971 89.6239 8.08049C89.7385 8.19128 89.8283 8.32512 89.8873 8.47319C89.9464 8.62126 89.9733 8.78018 89.9663 8.93943C89.9726 9.048 89.9663 9.15772 89.9663 9.26629V34.2177C89.9663 35.2463 89.7532 35.46 88.7309 35.46C88.3669 35.46 88.0046 35.4652 87.6452 35.46C86.8572 35.4469 86.6166 35.2023 86.6166 34.4097C86.6166 27.3594 86.6166 20.3103 86.6166 13.2623V12.6646L86.5178 12.6291Z" fill="#AAAAAA"/>
<path d="M50.9867 20.1354V33.0183C50.9882 34.7724 50.3497 36.4669 49.191 37.7839C48.0324 39.1009 46.4331 39.95 44.693 40.172C40.7747 40.5492 37.4107 38.1583 36.6553 34.4446C36.5613 33.9833 36.514 33.5137 36.5142 33.0429C36.5206 24.417 36.5224 15.7924 36.5193 7.16915C36.5386 5.37148 37.2256 3.64518 38.4468 2.32581C39.668 1.00645 41.3361 0.188275 43.1269 0.0303171C44.9178 -0.127641 46.7034 0.385901 48.1367 1.47113C49.5699 2.55636 50.5485 4.13574 50.8822 5.90229C50.9555 6.32994 50.9907 6.76327 50.9873 7.19715L50.9867 20.1354Z" fill="#AAAAAA"/>
<path d="M32.7292 20.1863V32.9612C32.7399 34.7909 32.057 36.5567 30.8179 37.9031C29.5788 39.2495 27.8756 40.0763 26.0513 40.2171C24.2269 40.358 22.417 39.8023 20.9859 38.6621C19.5549 37.5218 18.609 35.8817 18.3389 34.072C18.2889 33.7136 18.2625 33.3522 18.26 32.9903V7.22458C18.2643 5.41763 18.944 3.67755 20.1655 2.34606C21.3871 1.01457 23.0623 0.187873 24.8622 0.0283065C26.6621 -0.13126 28.4567 0.387839 29.8934 1.48366C31.3302 2.57948 32.3053 4.17285 32.6274 5.95087C32.6982 6.36109 32.7317 6.77688 32.7274 7.19315C32.7274 11.5242 32.7274 15.8551 32.7274 20.1857" fill="#AAAAAA"/>
<path d="M14.4691 20.1642C14.4691 24.459 14.4691 28.7539 14.4691 33.0488C14.4589 34.8605 13.7694 36.6025 12.5369 37.9306C11.3045 39.2586 9.61878 40.0761 7.81283 40.2215C6.00688 40.3668 4.21209 39.8296 2.78309 38.7158C1.35409 37.602 0.394831 35.9927 0.0948574 34.2059C0.0339025 33.8308 0.00218775 33.4516 0 33.0716C0 24.4293 0 15.7861 0 7.14189C0.0251822 5.34876 0.714686 3.62873 1.93506 2.31472C3.15543 1.0007 4.81989 0.186144 6.60627 0.0287045C8.39265 -0.128735 10.1739 0.382141 11.6053 1.46245C13.0367 2.54275 14.0164 4.11566 14.3549 5.87674C14.4329 6.32276 14.4711 6.77482 14.4691 7.2276C14.4691 11.5388 14.4691 15.8507 14.4691 20.1642Z" fill="#AAAAAA"/>
</g>
<defs>
<clipPath id="clip0_1939_317">
<rect width="205.143" height="40" fill="white"/>
</clipPath>
</defs>
</svg>
