<svg width="147" height="40" viewBox="0 0 147 40" fill="none" xmlns="http://www.w3.org/2000/svg">
<path d="M1.13086 38.8457L9.24924 30.7289V20.0007L1.13086 11.8823V38.8457Z" fill="#AAAAAA"/>
<path d="M28.0945 1.15417L9.24951 20.0008L14.6137 25.3633L19.9779 20.0008V30.7275L28.0945 38.8458V1.15417Z" fill="#AAAAAA"/>
<path d="M5.19775 34.781L9.24948 30.7276V20.001L5.226 15.9741L5.19775 34.781Z" fill="#949494"/>
<path d="M14.6137 20.001H9.24951L14.6137 25.3635L19.9777 20.001V30.726L23.988 34.7379L24.0366 10.5768L14.6137 20.001Z" fill="#949494"/>
<path d="M110.517 13.3724C110.517 15.5675 107.19 15.5675 107.19 13.3724C107.19 11.179 110.517 11.179 110.517 13.3724Z" fill="#AAAAAA"/>
<path d="M142.862 27.9712V22.0114C142.862 20.2792 141.915 18.9618 140.113 18.9618C138.381 18.9618 137.202 20.4186 137.202 22.1508V27.9712H134.407V16.561H136.925L137.11 18.109C138.264 16.9758 139.419 16.3984 140.853 16.3984C143.532 16.3984 145.679 18.4093 145.679 21.9882V27.9712H142.862ZM124.039 22.2892C124.039 24.0214 125.08 25.6391 127.135 25.6391C129.191 25.6391 130.23 24.0214 130.23 22.2892C130.23 20.5802 129.029 18.9177 127.135 18.9177C125.103 18.9177 124.039 20.5802 124.039 22.2892ZM133.07 22.2892C133.07 25.5694 130.83 28.2257 127.135 28.2257C123.439 28.2257 121.222 25.5694 121.222 22.2892C121.222 19.0322 123.485 16.3543 127.112 16.3543C130.738 16.3543 133.07 19.0322 133.07 22.2892ZM114.874 16.5831L115.082 17.8988C115.959 16.4918 117.137 16.2844 118.292 16.2844C119.47 16.2844 120.603 16.7457 121.227 17.3695L119.956 19.8185C119.379 19.3323 118.848 19.0785 117.924 19.0785C116.445 19.0785 115.082 19.8633 115.082 21.9655V27.9717H112.264V16.5831H114.874ZM107.445 27.9717H110.262V16.5383H107.445V27.9717ZM103.105 20.9482C102.919 19.4699 101.764 18.7332 100.148 18.7332C98.6232 18.7332 97.3755 19.4699 96.9607 20.9482H103.105ZM96.9142 23.2827C97.0984 24.6913 98.3228 25.7067 100.309 25.7067C101.349 25.7067 102.711 25.3152 103.359 24.6465L105.16 26.4235C103.959 27.6712 101.996 28.2719 100.264 28.2719C96.3368 28.2719 94.0041 25.8461 94.0041 22.1976C94.0041 18.7332 96.3601 16.2378 100.055 16.2378C103.866 16.2378 106.245 18.5938 105.807 23.2827H96.9142ZM92.5802 27.9717H89.7846V11.8245H92.5802V27.9717ZM84.4204 27.9717H87.2393V16.5383H84.4204V27.9717ZM87.4932 13.3726C87.4932 15.5677 84.1682 15.5677 84.1682 13.3726C84.1682 11.1791 87.4932 11.1791 87.4932 13.3726ZM73.5221 22.2669C73.5221 24.3227 75.0468 25.6152 76.8238 25.6152C78.6257 25.6152 80.0592 24.253 80.0592 22.2669C80.0592 20.2112 78.6257 18.9403 76.8238 18.9403C75.0468 18.9403 73.5221 20.2792 73.5221 22.2669ZM73.3363 11.824V18.1306C74.0065 16.9542 75.8781 16.3071 77.0777 16.3071C80.4044 16.3071 82.8765 18.3397 82.8765 22.2669C82.8765 26.0084 80.3579 28.2251 77.0097 28.2251C75.6242 28.2251 74.214 27.7622 73.3363 26.4016L73.1521 27.9712H70.519V11.824H73.3363ZM60.0816 22.2892C60.0816 24.0214 61.1219 25.6391 63.1776 25.6391C65.2333 25.6391 66.2719 24.0214 66.2719 22.2892C66.2719 20.5802 65.0723 18.9177 63.1776 18.9177C61.1434 18.9177 60.0816 20.5802 60.0816 22.2892ZM69.1125 22.2892C69.1125 25.5694 66.8726 28.2257 63.1776 28.2257C59.4825 28.2257 57.2643 25.5694 57.2643 22.2892C57.2643 19.0322 59.5273 16.3543 63.1543 16.3543C66.7796 16.3543 69.1125 19.0322 69.1125 22.2892ZM45.7467 27.9712V21.8737C45.7467 20.3705 44.9619 19.01 43.4139 19.01C41.8891 19.01 40.9882 20.3705 40.9882 21.8737V27.9712H38.1709V16.561H40.7808L40.9882 17.9464C41.5887 16.7916 42.9062 16.3768 43.9913 16.3768C45.3535 16.3768 46.7174 16.931 47.3627 18.5022C48.3799 16.8845 49.6972 16.4216 51.1755 16.4216C54.4093 16.4216 56.0021 18.4093 56.0021 21.8272V27.9712H53.1848V21.8272C53.1848 20.3257 52.561 19.0548 51.0361 19.0548C49.5114 19.0548 48.5656 20.3705 48.5656 21.8737V27.9712H45.7467Z" fill="#AAAAAA"/>
</svg>
