<svg width="120" height="40" viewBox="0 0 120 40" fill="none" xmlns="http://www.w3.org/2000/svg">
<g clip-path="url(#clip0_5703_778)">
<mask id="mask0_5703_778" style="mask-type:luminance" maskUnits="userSpaceOnUse" x="0" y="0" width="120" height="40">
<path d="M0 0.11853H119.782V40H0V0.11853Z" fill="white"/>
</mask>
<g mask="url(#mask0_5703_778)">
<path d="M0 35.8855V1.92078C0 0.959637 0.779004 0.180634 1.74044 0.180634C2.11636 0.180634 2.48332 0.302754 2.78459 0.528782L30.6093 21.4242V2.73889C30.6093 1.326 31.7549 0.180634 33.1678 0.180634C34.5804 0.180634 35.7264 1.326 35.7264 2.73889V36.7039C35.7264 37.6651 34.9471 38.4441 33.9862 38.4441H33.9659C33.5882 38.4441 33.2216 38.3217 32.92 38.095L5.11712 17.2014V35.8855C5.11712 37.2984 3.97146 38.4441 2.55856 38.4441C1.14566 38.4441 0 37.2984 0 35.8855Z" fill="#AAAAAA"/>
</g>
<mask id="mask1_5703_778" style="mask-type:luminance" maskUnits="userSpaceOnUse" x="0" y="0" width="120" height="40">
<path d="M0 0.11853H119.782V40H0V0.11853Z" fill="white"/>
</mask>
<g mask="url(#mask1_5703_778)">
<path d="M73.7547 0.241241C71.6169 0.241241 69.8812 1.96914 69.872 4.1076L69.7725 26.5891C69.7725 32.0977 65.2974 36.5669 59.7873 36.5669H59.6153C54.1077 36.5669 49.6382 32.0977 49.6382 26.5891V4.12402C49.6382 1.97959 47.8998 0.241241 45.7554 0.241241H45.6479C43.5035 0.241241 41.7651 1.97959 41.7651 4.12402V8.7652V11.8084V24.7215C41.7651 34.6285 49.7976 39.7967 59.7028 39.7967C69.6077 39.7967 77.6381 34.6282 77.6381 24.7215V11.8084V8.7652V4.12402C77.6378 1.97959 75.8995 0.241241 73.7547 0.241241Z" fill="#AAAAAA"/>
</g>
<mask id="mask2_5703_778" style="mask-type:luminance" maskUnits="userSpaceOnUse" x="0" y="0" width="120" height="40">
<path d="M0 0.11853H119.782V40H0V0.11853Z" fill="white"/>
</mask>
<g mask="url(#mask2_5703_778)">
<path d="M115.9 0.241241C113.763 0.241241 112.026 1.96914 112.017 4.10819L111.92 26.5891C111.92 32.0977 107.444 36.5669 101.933 36.5669H101.761C96.2525 36.5669 91.7875 32.0977 91.7875 26.5891V4.12402C91.7875 1.97959 90.048 0.241241 87.9032 0.241241H87.7934C85.6489 0.241241 83.9109 1.97959 83.9109 4.12402V8.7652V12.1171V24.7215C83.9109 34.6127 91.9195 39.7802 101.803 39.7961C101.813 39.7961 101.823 39.7967 101.834 39.7967H101.842H101.847C111.754 39.7967 119.783 34.6282 119.783 24.7215V12.1171V8.7652V4.12402C119.782 1.97959 118.045 0.241241 115.9 0.241241Z" fill="#AAAAAA"/>
</g>
</g>
<defs>
<clipPath id="clip0_5703_778">
<rect width="119.782" height="40" fill="white"/>
</clipPath>
</defs>
</svg>
