<svg width="213" height="40" viewBox="0 0 213 40" fill="none" xmlns="http://www.w3.org/2000/svg">
<g clip-path="url(#clip0_4776_396)">
<mask id="mask0_4776_396" style="mask-type:luminance" maskUnits="userSpaceOnUse" x="33" y="9" width="46" height="29">
<path d="M78.6527 37.3211H73.2842V36.6737C73.2842 30.5947 73.3158 24.5158 73.2579 18.4368C73.2474 17.1526 73.0474 15.8316 72.6684 14.6053C71.8421 11.9474 70.0211 10.6842 67.2106 10.6053C64.4 10.5316 62.0106 11.4 60.3106 13.7263C59.2895 15.1211 58.8263 16.7158 58.7106 18.4211C58.6737 19.0053 58.6842 19.5947 58.6842 20.1842C58.6842 25.6737 58.6842 31.1632 58.6842 36.6526V37.3053H53.3211V36.5842C53.3211 30.5211 53.3316 24.4632 53.3158 18.4C53.3158 16.9158 53.1106 15.4526 52.5158 14.0684C51.5737 11.8842 49.8842 10.7579 47.5106 10.6158C45.0948 10.4684 42.9527 11.0632 41.2632 12.8895C40.1158 14.1316 39.4106 15.6158 39.0948 17.2421C38.8369 18.5474 38.6474 19.8842 38.6316 21.2105C38.579 26.3421 38.6106 31.4789 38.6106 36.6105V37.2895C38.4474 37.3053 38.3106 37.3368 38.1737 37.3368C36.7 37.3368 35.2211 37.3263 33.7474 37.3474C33.3579 37.3474 33.2632 37.2105 33.2632 36.8474C33.2737 28.0263 33.2684 19.2 33.2737 10.3789C33.2737 10.2737 33.2842 10.1684 33.2948 10.0263H38.3948V15.1526C38.4263 15.1684 38.4632 15.1842 38.4948 15.2C38.6579 14.9632 38.8263 14.7316 38.9895 14.4947C41.2263 11.2105 44.3632 9.57894 48.3421 9.45263C50.4527 9.38421 52.4632 9.68947 54.3106 10.7474C56.0263 11.7263 57.2369 13.1368 57.9474 14.9684C57.9842 15.0684 58.0316 15.1632 58.1 15.3105C58.4369 14.8316 58.7369 14.3842 59.0684 13.9526C60.9842 11.4632 63.5527 10.0526 66.6527 9.6C68.9211 9.26842 71.1737 9.3421 73.3211 10.2684C76.2421 11.5368 77.8895 13.8053 78.4421 16.8737C78.5948 17.7105 78.6421 18.5737 78.6421 19.4263C78.6579 25.1684 78.6527 30.9053 78.6527 36.6474V37.3211Z" fill="white"/>
</mask>
<g mask="url(#mask0_4776_396)">
<path d="M79.8263 8.10526H32.1052V38.521H79.8263V8.10526Z" fill="#AAAAAA"/>
</g>
<mask id="mask1_4776_396" style="mask-type:luminance" maskUnits="userSpaceOnUse" x="82" y="9" width="26" height="29">
<path d="M87.4525 37.3526H82.1472V10.021H87.4209V15.0947C87.5893 14.8895 87.7156 14.7526 87.8156 14.6053C90.363 10.9316 93.9104 9.24736 98.4156 9.43158C100.695 9.52631 102.784 10.1053 104.558 11.5737C106.352 13.0579 107.352 14.9684 107.631 17.2421C107.726 18 107.747 18.7737 107.747 19.5368C107.758 25.2526 107.747 30.9684 107.747 36.6842V37.3526H102.405V36.5105C102.405 30.5105 102.416 24.5105 102.395 18.5105C102.389 16.6947 102.11 14.921 101.137 13.321C100.031 11.5053 98.3472 10.6737 96.2472 10.5947C92.6262 10.4632 90.1735 12.1737 88.6577 15.3053C87.6788 17.3316 87.3893 19.5053 87.3893 21.7158C87.3893 26.6421 87.4262 31.5737 87.4525 36.5C87.4525 36.7684 87.4525 37.0368 87.4525 37.3579" fill="white"/>
</mask>
<g mask="url(#mask1_4776_396)">
<path d="M108.921 8.0842H80.9841V38.5158H108.921V8.0842Z" fill="#AAAAAA"/>
</g>
<mask id="mask2_4776_396" style="mask-type:luminance" maskUnits="userSpaceOnUse" x="176" y="10" width="31" height="30">
<path d="M206.674 37.1211C206.416 38.5316 204.837 39.5947 202.879 39.6737C201.463 39.7316 200.079 39.5737 198.974 38.5947C197.889 37.6368 197.595 36.2895 197.405 34.9105C196.716 35.5263 196.105 36.1842 195.389 36.7C192.131 39.0368 188.463 39.9158 184.484 39.6316C183.042 39.5263 181.621 39.3158 180.274 38.7579C177.279 37.5158 176.258 35.1158 176.431 32.1579C176.6 29.2947 178.405 27.7211 180.768 26.5684C182.816 25.5684 185.031 25.1 187.21 24.5158C189.8 23.8211 192.405 23.1526 194.731 21.7789C195.626 21.2526 196.363 20.4632 197.158 19.7737C197.284 19.6684 197.395 19.4632 197.395 19.3105C197.384 17.4 197.153 15.5263 196.1 13.8632C195.089 12.2684 193.531 11.5684 191.726 11.3C187.995 10.7421 185.089 12.2526 182.658 14.9211C181.031 16.7053 179.868 18.7737 179.021 21.0263C178.979 21.1421 178.931 21.2579 178.826 21.5211C178.805 21.2211 178.789 21.0737 178.789 20.9263C178.789 18.9053 178.774 16.8842 178.805 14.8684C178.805 14.6053 178.958 14.2684 179.158 14.0947C181.1 12.3789 183.453 11.5263 185.958 11.0684C189.31 10.4526 192.668 10.3895 195.984 11.3C200.458 12.5316 202.8 15.6789 202.784 20.3158C202.768 25.1 202.768 29.8895 202.784 34.6737C202.784 35.2316 202.863 35.8053 203 36.3421C203.405 37.9263 204.974 38.4474 206.284 37.4632C206.41 37.3684 206.531 37.2579 206.674 37.1421M197.421 20.5105C196.963 20.9211 196.51 21.3368 196.042 21.7368C194.547 23.0421 192.753 23.8 190.921 24.4842C189.253 25.1105 187.537 25.6211 185.9 26.3211C183.31 27.4316 182.053 29.4579 182.058 32.2947C182.058 35.2421 183.563 37.4105 186.2 38.1158C187.695 38.5158 189.195 38.4105 190.7 38.1632C194.331 37.5737 196.926 34.8947 197.305 31.2474C197.442 29.9316 197.41 28.6 197.416 27.2737C197.431 25 197.416 22.7316 197.416 20.5105" fill="white"/>
</mask>
<g mask="url(#mask2_4776_396)">
<path d="M207.842 9.2H175.1V41.0737H207.842V9.2Z" fill="#AAAAAA"/>
</g>
<mask id="mask3_4776_396" style="mask-type:luminance" maskUnits="userSpaceOnUse" x="149" y="10" width="23" height="30">
<path d="M149.647 29.7263C150.242 30.8947 150.726 32.0158 151.358 33.0474C154.221 37.7368 159.61 40.021 164.631 38.7C166 38.3421 167.231 37.6842 168.052 36.3947C168.979 34.9316 168.726 32.8947 167.552 31.6421C166.331 30.3474 164.837 29.5842 163.252 29.0053C161.242 28.2684 159.2 27.621 157.2 26.8474C155.421 26.1579 153.705 25.321 152.247 23.9684C151.095 22.9 150.368 21.5842 150.131 19.9789C149.842 17.9737 149.947 16.0053 150.963 14.2263C152.068 12.2789 153.852 11.4 155.847 10.9842C158.726 10.3789 161.61 10.5421 164.489 11.0263C166.126 11.3 167.71 11.7421 169.189 12.5947C170.137 13.1368 170.652 13.7842 170.558 15.0579C170.426 16.8263 170.526 18.6158 170.526 20.4C169.979 19.3 169.521 18.1632 168.895 17.1421C166.295 12.8947 162.631 10.8474 157.847 11.3C156.489 11.4316 155.195 11.8263 154.163 12.8526C152.852 14.1526 152.705 16.2842 153.784 17.8632C154.637 19.1158 155.81 19.9316 157.121 20.4737C159.163 21.3158 161.242 22.0684 163.326 22.8C165.205 23.4579 167.068 24.1105 168.737 25.3053C172.595 28.0684 172.279 33.3789 170.5 36C169.337 37.721 167.658 38.6105 165.779 39.1316C163.742 39.6947 161.668 39.7421 159.584 39.6421C157.452 39.5368 155.337 39.3158 153.279 38.6789C152.058 38.3 150.905 37.7632 149.931 36.8737C149.805 36.7579 149.668 36.5579 149.668 36.3947C149.652 34.1947 149.658 31.9947 149.658 29.7263" fill="white"/>
</mask>
<g mask="url(#mask3_4776_396)">
<path d="M173.747 9.20526H148.479V41.1789H173.747V9.20526Z" fill="#AAAAAA"/>
</g>
<mask id="mask4_4776_396" style="mask-type:luminance" maskUnits="userSpaceOnUse" x="122" y="10" width="23" height="30">
<path d="M122.884 29.8105C123.584 31.0895 124.179 32.4316 124.99 33.6C127.358 37.0263 130.59 38.8316 134.579 39.0263C136.216 39.1053 137.816 38.9158 139.316 38.1421C140.353 37.6053 141.237 36.8737 141.663 35.6737C142.226 34.0789 141.732 32.4053 140.379 31.1895C139.047 29.9895 137.458 29.3421 135.842 28.7421C133.4 27.8368 130.942 26.9632 128.532 25.9526C127.547 25.5421 126.642 24.8684 125.784 24.1895C123.663 22.521 123.074 20.1474 123.268 17.4684C123.447 14.9895 124.453 13.0579 126.568 11.8789C127.668 11.2684 128.853 10.9053 130.079 10.7632C133.642 10.3579 137.163 10.5895 140.611 11.7053C141.647 12.0421 142.616 12.5421 143.432 13.3105C143.611 13.4789 143.763 13.7842 143.768 14.0316C143.795 16.0684 143.784 18.1105 143.784 20.1474C143.784 20.1895 143.763 20.2368 143.737 20.3368C143.353 19.5158 143.026 18.7263 142.632 17.9737C140.858 14.5789 138.3 12.2474 134.668 11.4368C132.753 11.0105 130.837 11.0632 128.974 11.8C127.19 12.5053 126.195 13.9474 126.305 15.7421C126.4 17.2737 127.216 18.3737 128.337 19.2421C129.805 20.3789 131.479 21.0526 133.184 21.6474C135.079 22.3053 136.995 22.9053 138.874 23.6105C140.695 24.2947 142.353 25.2632 143.611 26.9053C144.6 28.2 144.968 29.6947 144.995 31.3158C145.042 34.1 144.105 36.3474 141.842 37.8684C140.3 38.9053 138.584 39.3579 136.811 39.5316C133.611 39.8474 130.437 39.6105 127.3 38.8789C125.805 38.5316 124.4 37.9263 123.195 36.8842C123.053 36.7632 122.905 36.5421 122.9 36.3632C122.879 34.1632 122.89 31.9632 122.89 29.7947" fill="white"/>
</mask>
<g mask="url(#mask4_4776_396)">
<path d="M146.2 9.20526H121.71V41.0263H146.2V9.20526Z" fill="#AAAAAA"/>
</g>
<mask id="mask5_4776_396" style="mask-type:luminance" maskUnits="userSpaceOnUse" x="-2" y="0" width="215" height="39">
<path d="M212.495 0.110519H-1.64746V38.5158H212.495V0.110519Z" fill="white"/>
</mask>
<g mask="url(#mask5_4776_396)">
<mask id="mask6_4776_396" style="mask-type:luminance" maskUnits="userSpaceOnUse" x="-1" y="0" width="213" height="39">
<path d="M211.331 0.110519H-0.258057V38.7579H211.331V0.110519Z" fill="white"/>
</mask>
<g mask="url(#mask6_4776_396)">
<mask id="mask7_4776_396" style="mask-type:luminance" maskUnits="userSpaceOnUse" x="112" y="10" width="6" height="28">
<path d="M117.063 10.5842H112.405V37.3526H117.063V10.5842Z" fill="white"/>
</mask>
<g mask="url(#mask7_4776_396)">
<path d="M118.226 9.42105H111.242V38.5158H118.226V9.42105Z" fill="#AAAAAA"/>
</g>
<mask id="mask8_4776_396" style="mask-type:luminance" maskUnits="userSpaceOnUse" x="0" y="15" width="24" height="24">
<path d="M6.20501 15.2421C2.67869 21.0579 4.16817 27.3842 7.81027 31.1263C11.5471 34.9684 18.0945 36.579 23.9524 33.0211C22.8997 35.8947 16.9997 38.7632 12.9366 38.5C6.6208 38.0947 2.04711 33.6368 0.947114 28.3158C-0.263413 22.4421 2.72606 17.4474 6.19974 15.2421" fill="white"/>
</mask>
<g mask="url(#mask8_4776_396)">
<mask id="mask9_4776_396" style="mask-type:luminance" maskUnits="userSpaceOnUse" x="0" y="0" width="213" height="39">
<path d="M212.495 0.110535H0.678955V38.5158H212.495V0.110535Z" fill="white"/>
</mask>
<g mask="url(#mask9_4776_396)">
<path d="M25.1209 14.079H-0.484375V39.6842H25.1209V14.079Z" fill="#AAAAAA"/>
</g>
</g>
<mask id="mask10_4776_396" style="mask-type:luminance" maskUnits="userSpaceOnUse" x="6" y="9" width="24" height="24">
<path d="M24.2313 32.7C27.7576 26.9421 26.3682 20.5316 22.5577 16.7C18.7261 12.8474 12.2313 11.4053 6.49976 14.9211C8.19976 12.0053 12.6734 9.06842 17.8734 9.45789C23.5682 9.88947 28.2945 13.9632 29.484 19.5263C30.705 25.2421 27.8998 30.3368 24.2313 32.7Z" fill="white"/>
</mask>
<g mask="url(#mask10_4776_396)">
<mask id="mask11_4776_396" style="mask-type:luminance" maskUnits="userSpaceOnUse" x="0" y="0" width="213" height="39">
<path d="M212.494 0.110535H0.678711V38.5158H212.494V0.110535Z" fill="white"/>
</mask>
<g mask="url(#mask11_4776_396)">
<path d="M31.8735 7.90001H5.33667V33.8632H31.8735V7.90001Z" fill="#AAAAAA"/>
</g>
</g>
<mask id="mask12_4776_396" style="mask-type:luminance" maskUnits="userSpaceOnUse" x="112" y="0" width="7" height="6">
<path d="M115.347 5.93157C113.731 5.9421 112.405 4.6421 112.405 3.05789C112.405 1.42631 113.689 0.115784 115.284 0.115784C116.91 0.115784 118.216 1.39473 118.226 2.99473C118.231 4.61578 116.947 5.92631 115.347 5.93684" fill="white"/>
</mask>
<g mask="url(#mask12_4776_396)">
<mask id="mask13_4776_396" style="mask-type:luminance" maskUnits="userSpaceOnUse" x="0" y="0" width="213" height="39">
<path d="M212.494 0.110519H0.678711V38.5158H212.494V0.110519Z" fill="white"/>
</mask>
<g mask="url(#mask13_4776_396)">
<path d="M119.395 -1.05263H111.242V7.1H119.395V-1.05263Z" fill="#AAAAAA"/>
</g>
</g>
<mask id="mask14_4776_396" style="mask-type:luminance" maskUnits="userSpaceOnUse" x="206" y="9" width="6" height="6">
<path d="M210.6 14.0474V11.4421C210.558 11.4263 210.51 11.4105 210.468 11.3947C210.163 11.8684 209.863 12.3474 209.558 12.8211C209.231 13.3368 208.842 13.3368 208.521 12.8211C208.216 12.3316 207.905 11.8421 207.479 11.3737V13.9895C206.7 14.1526 206.674 14.1316 206.674 13.4579C206.674 12.1632 206.674 10.8632 206.674 9.57895C207.053 9.41053 207.253 9.53158 207.437 9.82631C207.942 10.6474 208.474 11.4474 209.037 12.3211C209.589 11.4526 210.1 10.6211 210.647 9.82105C210.768 9.64737 211.016 9.55263 211.205 9.42105C211.247 9.46316 211.289 9.50526 211.331 9.55263V14.0474H210.6Z" fill="white"/>
</mask>
<g mask="url(#mask14_4776_396)">
<mask id="mask15_4776_396" style="mask-type:luminance" maskUnits="userSpaceOnUse" x="0" y="0" width="213" height="39">
<path d="M212.495 0.110519H0.678955V38.5158H212.495V0.110519Z" fill="white"/>
</mask>
<g mask="url(#mask15_4776_396)">
<path d="M212.495 8.24738H205.51V15.3158H212.495V8.24738Z" fill="#AAAAAA"/>
</g>
</g>
<mask id="mask16_4776_396" style="mask-type:luminance" maskUnits="userSpaceOnUse" x="203" y="9" width="5" height="6">
<path d="M205.974 14.0789H205.021V10.0737H203.184V9.42105H207.8C207.81 9.62105 207.826 9.8 207.842 10.0579H205.979V14.0789H205.974Z" fill="white"/>
</mask>
<g mask="url(#mask16_4776_396)">
<mask id="mask17_4776_396" style="mask-type:luminance" maskUnits="userSpaceOnUse" x="0" y="0" width="213" height="39">
<path d="M212.494 0.110519H0.678711V38.5158H212.494V0.110519Z" fill="white"/>
</mask>
<g mask="url(#mask17_4776_396)">
<path d="M209.005 8.25789H202.021V15.2421H209.005V8.25789Z" fill="#AAAAAA"/>
</g>
</g>
</g>
</g>
</g>
<defs>
<clipPath id="clip0_4776_396">
<rect width="212.632" height="40" fill="white"/>
</clipPath>
</defs>
</svg>
