<svg width="263" height="40" viewBox="0 0 263 40" fill="none" xmlns="http://www.w3.org/2000/svg">
<g clip-path="url(#clip0_1881_89)">
<path d="M194.055 1.1977V38.2345H203.251L202.733 7.84138H202.94L212.189 38.2345H225.515V1.1977H216.246L216.754 30.5655H216.552L207.943 1.1977H194.055ZM48.3563 4.64828H48.5678L53.5609 38.6184H63.6092L56.7126 1.1977H40.0575L33.1241 38.6184H43.2368L48.3563 4.64828ZM87.1724 1.1977H71.9103L71.0828 38.6184H80.4391L80.6759 4.96552H80.8828L87.1402 38.6184H96.6322L102.883 4.97471L103.085 4.96552L103.326 38.6184H112.692L111.862 1.1977H96.6L91.9816 29.8092H91.777L87.1724 1.1977ZM9.94483 10.8184C9.76552 10.0529 9.8069 9.29195 9.90575 8.86207C10.1747 7.66207 10.9862 6.34943 13.3241 6.34943C15.5218 6.34943 16.8023 7.70115 16.8023 9.73793V12.046H26.1402V9.43218C26.1402 1.27586 18.823 0 13.5218 0C6.86667 0 1.44138 2.2069 0.441379 8.31264C0.165517 9.96322 0.131035 11.4598 0.528736 13.3517C2.14943 20.9977 15.446 23.2138 17.3747 28.0552C17.7379 28.9586 17.6161 30.1241 17.446 30.8299C17.1402 32.0506 16.3012 33.3264 13.8 33.3264C11.4644 33.3264 10.0368 31.9885 10.0368 29.9494L10.0299 26.3149H0V29.2115C0 37.5563 6.56322 40.0667 13.5954 40.0667C20.3724 40.0667 25.931 37.7678 26.8276 31.5264C27.2851 28.2874 26.9494 26.1678 26.7862 25.377C25.2023 17.5333 11.0092 15.2138 9.94483 10.8184ZM131.69 10.9126C131.51 10.1632 131.559 9.4092 131.644 8.98851C131.908 7.7931 132.708 6.49425 135.03 6.49425C137.2 6.49425 138.474 7.83218 138.474 9.83448V12.1264H147.715V9.54253C147.715 1.47126 140.464 0.211494 135.23 0.211494C128.641 0.211494 123.257 2.36782 122.276 8.42759C122 10.0667 121.961 11.5494 122.359 13.4184C123.968 20.9954 137.131 23.1908 139.046 27.977C139.395 28.8736 139.29 30.023 139.117 30.7264C138.814 31.9586 137.975 33.1908 135.506 33.1908C133.184 33.1908 131.782 31.8782 131.782 29.8529L131.775 26.2552H121.834L121.83 29.1149C121.83 37.3862 128.338 39.8598 135.303 39.8598C142.005 39.8598 147.515 37.5954 148.393 31.4092C148.846 28.2069 148.513 26.108 148.354 25.3172C146.791 17.5632 132.731 15.2621 131.69 10.9126ZM174.138 28.8644C174.143 29.3471 174.129 29.892 174.048 30.2966C173.864 31.2276 173.055 32.9931 170.453 32.9931C167.851 32.9931 167.051 31.2276 166.864 30.2966C166.784 29.892 166.766 29.3471 166.775 28.8644V1.1908H157.315V28.0092C157.297 28.7034 157.368 30.1126 157.405 30.4828C158.046 37.4598 163.577 39.7172 170.453 39.7172C177.329 39.7172 182.871 37.4621 183.524 30.4828C183.566 30.1126 183.637 28.7034 183.628 28.0092V1.1908H174.138V28.8644ZM248.614 23.0552H252.444V28.4782C252.457 28.954 252.43 29.4805 252.359 29.9034C252.184 30.9034 251.237 32.6092 248.533 32.6092C245.83 32.6092 244.883 30.9034 244.703 29.9034C244.637 29.4782 244.614 28.954 244.618 28.4782V11.3655C244.618 10.7517 244.664 10.0851 244.77 9.61149C244.977 8.68736 245.779 6.88736 248.497 6.88736C251.356 6.88736 252.067 8.78621 252.237 9.61149C252.349 10.1333 252.359 11.0184 252.359 11.0184V13.1218H261.789V11.8782C261.784 11.8782 261.825 10.5954 261.717 9.42989C261.025 2.39081 255.207 0.181609 248.575 0.181609C241.943 0.181609 236.271 2.4115 235.441 9.42989C235.366 10.0322 235.285 11.2046 235.285 11.8782L235.28 27.623L235.412 30.0943C236.028 36.9034 241.94 39.3402 248.572 39.3402C255.205 39.3402 261.117 36.9012 261.743 30.0943L261.86 27.623V17.5816H248.618V23.0552H248.614Z" fill="#AAAAAA"/>
</g>
<defs>
<clipPath id="clip0_1881_89">
<rect width="262.069" height="40" fill="white"/>
</clipPath>
</defs>
</svg>
