<svg width="136" height="40" viewBox="0 0 136 40" fill="none" xmlns="http://www.w3.org/2000/svg">
<g clip-path="url(#clip0_1883_223)">
<path fill-rule="evenodd" clip-rule="evenodd" d="M15.4023 5.81609C12.2989 4.43678 10.4598 3.90805 8.62069 3.90805C6.68966 3.90805 5.47126 4.5977 5.47126 5.65517C5.47126 8.87356 16.3678 7.95402 16.3678 15.4023C16.3678 19.4943 12.9195 21.8851 8.16092 21.8851C4.41379 21.8851 2.57472 20.9195 0.436787 19.8161V15.2184C3.49426 17.2414 5.37931 17.977 7.74713 17.977C9.79311 17.977 10.8966 17.2644 10.8966 16C10.8966 12.5057 0 13.7931 0 6.13793C0 2.43678 3.1954 0 8.16092 0C10.5517 0 12.7126 0.505743 15.4023 1.65517V5.81609Z" fill="#AAAAAA"/>
<path fill-rule="evenodd" clip-rule="evenodd" d="M30.6667 20.8966C28.8506 21.5632 27.3104 21.8621 25.7702 21.8621C20.6897 21.8621 17.4023 18.8966 17.4023 14.4138C17.4023 10 20.8046 6.87357 25.5633 6.87357C27.0345 6.87357 28.9196 7.24138 30.4138 7.8161V11.1954C29.2184 10.5517 27.8391 10.2069 26.7127 10.2069C23.9771 10.2069 22.2299 11.8391 22.2299 14.3678C22.2299 16.9425 23.9541 18.6207 26.5518 18.6207C27.6552 18.6207 28.6207 18.3678 30.6207 17.6092V20.8966" fill="#AAAAAA"/>
<path fill-rule="evenodd" clip-rule="evenodd" d="M70.2529 12.7586C70.4368 10.7586 71.6092 9.58621 73.3793 9.58621C75.1265 9.58621 76.3218 10.7816 76.5058 12.7586H70.2529ZM73.0575 6.87357C68.5977 6.87357 65.4253 10.023 65.4253 14.4368C65.4253 18.8966 68.7126 21.8391 73.8161 21.8391C74.9425 21.8391 77.6552 21.8391 80.2529 19.9081V17.0805C78.1379 18.5977 76.7127 19.1035 74.8966 19.1035C72.023 19.1035 70.2759 17.6322 70.115 15.1034H80.4828C80.7356 9.88506 77.2644 6.87357 73.0575 6.87357Z" fill="#AAAAAA"/>
<path fill-rule="evenodd" clip-rule="evenodd" d="M82.2759 21.6092H86.8046V7.14941H82.2759V21.6092Z" fill="#AAAAAA"/>
<path fill-rule="evenodd" clip-rule="evenodd" d="M99.4254 17.6552C98.4829 18.5057 97.7013 18.8506 96.7357 18.8506C94.5978 18.8506 93.2415 17.1034 93.2415 14.4598C93.2415 11.5632 94.5978 9.90804 96.8737 9.90804C97.7012 9.90804 98.7587 10.2759 99.4254 10.7586V17.6552ZM99.4254 0.252869V7.7931C98.207 7.19539 96.9886 6.89654 95.6553 6.89654C91.5173 6.89654 88.6667 9.95402 88.6667 14.3678C88.6667 18.6896 91.5403 21.885 95.4024 21.885C96.9426 21.885 98.138 21.4713 99.4254 20.4598V21.6322H103.954V0.275852H99.4254V0.252869Z" fill="#AAAAAA"/>
<path fill-rule="evenodd" clip-rule="evenodd" d="M110.667 12.7586C110.851 10.7586 112.023 9.58621 113.793 9.58621C115.54 9.58621 116.759 10.7816 116.942 12.7586H110.667ZM113.494 6.87357C109.034 6.87357 105.885 10.023 105.885 14.4368C105.885 18.8966 109.172 21.8391 114.253 21.8391C115.379 21.8391 118.115 21.8391 120.713 19.9081V17.0805C118.575 18.5977 117.172 19.1035 115.356 19.1035C112.506 19.1035 110.759 17.6322 110.598 15.1034H120.965C121.172 9.88506 117.701 6.87357 113.494 6.87357Z" fill="#AAAAAA"/>
<path fill-rule="evenodd" clip-rule="evenodd" d="M127.747 11.2874H127.816C129.173 8.27587 130.667 6.87357 132.414 6.87357C133.31 6.87357 134.092 7.2184 135.425 8.18391L134.184 12.1839C132.989 11.4253 132.207 11.1264 131.494 11.1264C129.839 11.1264 128.759 12.6897 127.77 15.3563V21.5862H123.219V7.12644H127.77V11.2874" fill="#AAAAAA"/>
<path fill-rule="evenodd" clip-rule="evenodd" d="M87.0115 1.08046C87.4483 2.2069 86.6667 3.77012 85.3104 4.57472C83.9311 5.37932 82.4828 5.12644 82.069 4.00001C81.6322 2.87357 82.3909 1.31035 83.7702 0.505749C85.1495 -0.321837 86.5977 -0.0459749 87.0115 1.08046Z" fill="#AAAAAA"/>
<path fill-rule="evenodd" clip-rule="evenodd" d="M46.9886 12.4138C46.9886 8.50574 44.3219 6.89655 41.7012 6.89655C39.9081 6.89655 38.4369 7.65517 37.1265 9.31034H37.0575V0.252869H32.5288V21.5632H37.0575V12.4138C38.115 10.8736 39.0346 10.2299 40.092 10.2299C41.4943 10.2299 42.4368 11.2414 42.4368 13.4023V18.4828C43.9541 17.7011 45.5173 17.2184 46.9656 17.0345V12.4138" fill="#AAAAAA"/>
<path fill-rule="evenodd" clip-rule="evenodd" d="M58.3908 6.87357C56.5517 6.87357 55.1264 7.56322 53.6782 9.2184V7.14943H49.1494V16.9655C50.7126 17.1264 52.7356 17.8391 53.6782 19.0345V12.2759C54.8736 10.4828 55.7241 9.88506 56.8506 9.88506C58.1379 9.88506 59.1034 10.7356 59.1034 12.7816V21.5632H63.6322V12.4138C63.6552 8.16092 60.6437 6.87357 58.3908 6.87357Z" fill="#AAAAAA"/>
<path fill-rule="evenodd" clip-rule="evenodd" d="M66.161 25.7241H60.8736V29.4712H65.9771V31.0804H60.8736V34.9425H66.3219V36.5517H59.1035V24.1149H66.161V25.7241Z" fill="#AAAAAA"/>
<path fill-rule="evenodd" clip-rule="evenodd" d="M70.4597 36.5517H72.0689V24.1149H70.4597V36.5517Z" fill="#AAAAAA"/>
<path fill-rule="evenodd" clip-rule="evenodd" d="M80.0689 29.5862C81.2183 29.5862 81.9309 30.3678 81.9769 31.6092H77.862C78.0918 30.3218 78.8275 29.5862 80.0689 29.5862ZM77.839 32.6896H83.5861C83.5861 29.6552 82.2068 28.1839 80.0229 28.1839C77.77 28.1839 76.2068 29.8391 76.2068 32.3218C76.2068 34.5977 77.6091 36.6896 80.1608 36.6896C81.5401 36.6896 82.4367 36.3908 83.4252 35.7241V34.1609C82.4597 34.7816 81.5401 35.1494 80.5516 35.1494C79.0114 35.1494 78.0918 34.3218 77.839 32.6896Z" fill="#AAAAAA"/>
<path fill-rule="evenodd" clip-rule="evenodd" d="M94.1379 30.5057C93.2183 29.8621 92.5976 29.6782 91.885 29.6782C90.4137 29.6782 89.3793 30.8046 89.3793 32.4828C89.3793 34.1839 90.4597 35.1954 92.1609 35.1954C92.8505 35.1954 93.5172 35.0115 94.3218 34.6437V36.2299C93.7701 36.4827 92.7356 36.6896 91.885 36.6896C89.4482 36.6896 87.7471 35.0115 87.7471 32.5977C87.7471 29.8851 89.2873 28.1839 91.7701 28.1839C92.7126 28.1839 93.3563 28.4138 94.1379 28.7586V30.5057Z" fill="#AAAAAA"/>
<path fill-rule="evenodd" clip-rule="evenodd" d="M101.494 28.3448H104.092V29.7931H101.494V34C101.494 34.9655 102.184 35.2414 102.667 35.2414C103.241 35.2414 103.862 35.0345 104.506 34.6437V36.1609C103.931 36.4828 103.057 36.7126 102.529 36.7126C100.782 36.7126 99.885 35.6322 99.885 34.1379V29.8161H98.4597V29.6322L101.494 26.6667V28.3448Z" fill="#AAAAAA"/>
<path fill-rule="evenodd" clip-rule="evenodd" d="M110.276 28.3448V30.2529H110.299C111.127 28.8046 111.908 28.2069 112.667 28.2069C113.333 28.2069 113.931 28.5057 114.621 29.1494L113.77 30.5747C113.287 30.0919 112.644 29.7471 112.253 29.7471C111.15 29.7471 110.276 30.8735 110.276 32.2758V36.5517H108.667V28.3448H110.276Z" fill="#AAAAAA"/>
<path fill-rule="evenodd" clip-rule="evenodd" d="M131.172 30.5057C130.23 29.8621 129.609 29.6782 128.896 29.6782C127.425 29.6782 126.414 30.8046 126.414 32.4828C126.414 34.1839 127.494 35.1954 129.172 35.1954C129.862 35.1954 130.529 35.0115 131.356 34.6437V36.2299C130.805 36.4827 129.77 36.6896 128.896 36.6896C126.46 36.6896 124.759 35.0115 124.759 32.5977C124.759 29.8851 126.322 28.1839 128.805 28.1839C129.747 28.1839 130.391 28.4138 131.172 28.7586V30.5057Z" fill="#AAAAAA"/>
<path fill-rule="evenodd" clip-rule="evenodd" d="M118.896 36.5517H120.529V28.3448H118.896V36.5517Z" fill="#AAAAAA"/>
<path fill-rule="evenodd" clip-rule="evenodd" d="M120.575 25.4023C120.736 25.7931 120.46 26.3678 119.977 26.6437C119.494 26.9195 118.966 26.8276 118.828 26.4368C118.69 26.046 118.943 25.4713 119.448 25.1954C119.908 24.9195 120.437 25.0115 120.575 25.4023Z" fill="#AAAAAA"/>
<path fill-rule="evenodd" clip-rule="evenodd" d="M48.2759 26.069C48.0001 26.069 47.8622 26.1149 47.7472 26.2529C47.7012 26.2988 47.6783 26.3448 47.6783 26.4598L46.23 31.954C45.8851 33.885 43.5173 35.7931 40.4369 35.7931H36.138L36.8737 32.9655H39.6323C39.9081 32.9655 40.138 32.8736 40.3219 32.6667C40.3909 32.5977 40.4828 32.4598 40.4828 32.3448L41.6323 27.5402C41.9771 25.6092 44.0001 23.4942 47.0805 23.4942H51.4943L50.9426 26.0919H48.2759V26.069ZM49.2645 29.4253L49.7472 27.6552H54.207C54.7587 25.0805 54.3219 22.6896 52.7587 21.1264C49.5863 17.954 42.9656 19.0345 38.0461 23.7471C37.2874 24.4828 36.6208 25.2643 36.0231 26.0919H38.7127L38.092 27.8621H34.8737C34.5748 28.4138 34.2759 28.9885 34.0691 29.5402H37.8851L37.2874 31.3103H33.5403C32.8966 34.023 33.3104 36.5747 34.9196 38.1839C38.0461 41.3103 44.6438 40.2069 49.5863 35.4942C50.4599 34.6667 51.1725 33.7931 51.8162 32.8735H48.3679L48.8966 31.1034H52.9426C53.2415 30.5287 53.5173 29.977 53.7242 29.4023H49.2645V29.4253Z" fill="#AAAAAA"/>
</g>
<defs>
<clipPath id="clip0_1883_223">
<rect width="135.402" height="40" fill="white"/>
</clipPath>
</defs>
</svg>
