<svg width="218" height="40" viewBox="0 0 218 40" fill="none" xmlns="http://www.w3.org/2000/svg">
<mask id="mask0_1882_149" style="mask-type:luminance" maskUnits="userSpaceOnUse" x="1" y="1" width="215" height="38">
<path d="M1.08496 38.9152H215.925V1.08505H1.08496V38.9152Z" fill="white"/>
</mask>
<g mask="url(#mask0_1882_149)">
<path d="M178.881 32.6248V36.8239H201.919V32.6103H197.56L196.421 32.5457C195.959 32.4232 195.638 32.103 195.521 31.7618L195.424 30.8408V24.2002L195.598 23.5744C195.907 23.2094 207.823 9.60017 208.372 9.00463C209.521 7.6831 210.146 7.3985 211.685 7.3985H215.923V3.22311H196.942V7.3985H199.784C200.628 7.3985 200.862 8.25361 200.498 8.70949L192.432 18.1341L192.202 18.1077L184.344 8.70949C183.777 8.01118 184.245 7.3985 184.86 7.3985H187.652V3.22311H164.489V7.3985H168.616C170.408 7.3985 171.571 8.53689 172.254 9.27736C172.789 9.85973 184.582 23.2357 184.86 23.6165C185.154 23.9841 185.154 24.0381 185.154 24.2002V30.8408L185.079 31.7618C184.898 32.103 184.616 32.4232 184.168 32.5457L183.009 32.6248H178.881ZM107.996 3.22311V7.41036H111.665C114.325 7.41036 114.519 8.8979 114.519 10.172V29.8381C114.519 31.0173 114.587 32.6248 112.888 32.6248H108.333V36.8239H127.742V32.6248H123.012C121.137 32.6248 121.028 31.7763 120.996 29.9198V13.0904L147.608 36.8239H154.369L154.014 10.0152C154.062 8.06915 154.17 7.3985 156.181 7.3985H160.427V3.22311H140.671V7.3985H145.022C146.998 7.3985 147.353 8.18773 147.363 10.0152L147.608 24.0381L124.511 3.22311H107.996ZM20.755 1.08601C16.5941 1.08601 11.8509 1.89895 7.86652 3.67504C4.14569 5.34045 1.08496 8.01118 1.08496 12.4606C1.08496 16.4463 3.6292 18.7902 3.55014 18.7138C4.64637 19.7152 6.38425 21.4175 10.9365 22.3964C12.9589 22.8471 17.3003 23.5111 21.6404 23.9973C25.9291 24.4413 30.1678 24.8722 31.8951 25.2991C33.2614 25.6601 35.5435 26.1331 35.5435 28.6997C35.5435 31.2795 33.1257 32.0543 32.7041 32.2163C32.2719 32.3942 29.3812 33.7197 24.1478 33.7197C20.2978 33.7197 15.6666 32.5615 13.9748 31.9778C12.0445 31.2795 10.0063 30.3467 8.0984 28.0199C7.61749 27.4401 6.90337 25.8524 6.90337 24.2898H2.1377V37.5143H7.3935V35.7316C7.3935 35.5498 7.67151 34.692 8.52661 35.1124C9.61756 35.617 12.843 36.8779 16.2292 37.5789C18.9763 38.1507 20.755 38.5604 24.1807 38.5604C29.7883 38.5604 32.7884 37.6566 34.8597 37.065C36.8505 36.4919 39.2709 35.4786 41.2117 33.9305C42.2789 33.0938 44.5978 30.9093 44.5978 26.9724C44.5978 23.1738 42.5899 20.8193 41.8573 20.1197C40.8836 19.1381 39.7096 18.3858 38.4672 17.8034C37.3683 17.3053 35.6713 16.6834 34.2865 16.3541C31.5618 15.6715 25.4456 14.8573 22.539 14.5608C19.477 14.2288 14.1355 13.7901 12.0274 13.1326C11.3805 12.9415 10.0511 12.2946 10.0511 10.782C10.0511 9.70558 10.6756 8.778 11.8509 8.01908C13.7258 6.84644 17.5625 6.12573 21.506 6.12573C26.2164 6.11519 30.1823 7.15344 32.7041 8.29314C33.5684 8.70949 34.5606 9.2352 35.3761 9.89004C36.2747 10.6266 37.5317 12.151 37.9889 14.2802H42.2407V2.7646H37.5132V4.09798C37.5132 4.53805 37.0679 5.0888 36.2036 4.64346C34.0955 3.51693 28.1097 1.12158 20.755 1.08601ZM77.6202 38.9149C69.8478 38.9149 62.6394 36.5749 57.8012 32.2374C54.1779 28.9725 52.4032 24.5296 52.4032 19.9761C52.4032 15.4713 54.2438 10.9678 57.8012 7.71736C62.2823 3.64737 70.197 1.08469 77.6202 1.08469C85.8919 1.08469 92.4706 3.17041 97.4932 7.73712C101.082 11.0034 102.819 15.4449 102.819 19.9761C102.819 24.3504 100.985 29.0238 97.4932 32.2374C92.8224 36.6157 85.4413 38.9149 77.6202 38.9149V33.9305C81.7811 33.9305 85.5994 32.4851 88.2675 29.8381C90.9251 27.1727 92.1636 23.9472 92.1636 19.9761C92.1636 16.138 90.8328 12.6108 88.2675 10.085C85.6363 7.49469 81.702 6.00846 77.6202 6.00846C73.5357 6.00846 69.6225 7.46965 66.9623 10.085C64.4352 12.6108 63.0913 16.1709 63.0913 19.9761C63.0913 23.7535 64.4524 27.2991 66.9623 29.8381C69.6225 32.4706 73.5357 33.9305 77.6202 33.9305" fill="#AAAAAA"/>
</g>
</svg>
