<svg width="139" height="40" viewBox="0 0 139 40" fill="none" xmlns="http://www.w3.org/2000/svg">
<g clip-path="url(#clip0_1882_194)">
<path d="M14.0244 39.3638C6.31122 39.2677 0 38.9992 0 38.7671C0 38.056 54.0634 37.5818 97.278 37.9139C119.792 38.0869 138.323 38.3382 138.457 38.4724C138.591 38.6065 138.57 38.8471 138.41 39.0071C138.08 39.3368 35.4829 39.631 14.0244 39.3638ZM12.1951 30.616C12.1951 30.4107 12.6131 29.7896 13.124 29.2357C13.6348 28.6819 15.7362 23.9484 17.7938 18.7167C22.0597 7.86987 23.1709 5.75036 25.7314 3.57621L27.5611 2.02251L22.9259 2.29979C17.6274 2.61674 14.5064 3.5552 12.5649 5.4152C11.0884 6.82974 10.1811 9.34632 10.5874 10.9001C10.9453 12.2685 9.97029 12.1459 8.45654 10.6321C6.66405 8.83971 7.11322 6.40805 9.68215 3.99654C12.8952 0.980439 15.0841 0.564 29.5124 0.223268C36.488 0.0585317 42.2695 -0.0361073 42.3597 0.0129561C42.4501 0.0620195 41.9117 0.503834 41.1633 0.99481C40.1449 1.66286 38.6309 1.92881 35.1452 2.05183C30.9336 2.2005 30.3615 2.33584 29.1652 3.46647C27.7925 4.76413 25.0244 10.9587 21.4784 20.6679C19.4624 26.1879 17.8431 29.0113 16.1999 29.8718C14.9428 30.5301 12.1951 31.0407 12.1951 30.616ZM53.6585 30.674C53.6585 30.4851 54.0618 29.7479 54.5548 29.0357C55.0477 28.3236 55.5733 27.4116 55.7227 27.0092C55.8722 26.6067 56.4513 25.1306 57.0096 23.7289L58.0248 21.1803L55.8302 22.8555C52.0804 25.7178 48.0599 26.3331 46.0756 24.3484C43.9835 22.2564 44.8074 17.6831 48.0821 13.2109C51.7561 8.19332 58.5368 6.33966 58.5368 10.3534C58.5368 12.1948 55.7775 15.3256 52.2182 17.5222C49.2484 19.3552 48.3702 20.9409 49.3308 22.7358C49.9139 23.8255 50.96 23.8074 53.4146 22.6654C56.4675 21.245 59.2707 17.9666 60.6985 14.1464C61.3874 12.3035 61.9511 10.7273 61.9511 10.6438C61.9511 10.5602 61.4572 10.3995 60.8535 10.2866C59.8382 10.0968 59.8707 10.0329 61.2873 9.43444C62.1295 9.07861 63.2028 8.11302 63.6723 7.28868C66.302 2.6721 69.8001 0.590634 75.4504 0.28039C79.2258 0.073122 79.5045 0.128283 80.6943 1.31805C81.3854 2.00917 81.9509 2.82098 81.9509 3.1221C81.9509 3.87351 79.2442 6.52137 78.4762 6.52137C77.9917 6.52137 77.9834 6.39129 78.4387 5.936C78.7606 5.61405 79.024 4.74107 79.024 3.99605C79.024 1.04507 74.5202 0.268342 71.184 2.644C69.8008 3.62898 66.829 7.6401 66.829 8.52205C66.829 8.71249 69.0241 8.74735 71.707 8.59952C76.8841 8.31424 77.8763 8.75549 75.1858 10.1468C71.2488 12.1826 67.4716 23.0595 70.5492 23.4985C72.8804 23.8311 77.0731 16.3765 77.0731 11.899C77.0731 10.6017 77.2404 10.5113 81.463 9.52649C86.782 8.28596 87.5181 8.45805 87.1757 10.8625C87.0381 11.8284 86.7604 13.0295 86.5586 13.5315C86.3568 14.0336 87.2216 13.3433 88.4803 11.9976C91.0319 9.26981 93.0459 8.21283 94.8359 8.6621C97.1976 9.25483 96.9772 10.5367 92.9812 19.448C91.8686 21.9292 91.2291 24.1054 91.2253 25.4236C91.2184 27.8149 90.7023 27.9996 88.9428 26.2402C87.2532 24.5506 87.5389 22.2895 90.1788 16.4567C91.2877 14.0067 92.195 11.7567 92.195 11.4567C92.195 9.23279 87.2784 14.9114 84.1462 20.7528C81.9062 24.9304 81.5778 25.3142 80.1218 25.4545C79.2498 25.5386 78.5364 25.444 78.5364 25.2442C78.5364 25.0445 79.634 22.0646 80.9755 18.6223C83.8601 11.2198 83.9926 10.2667 82.073 10.7257C80.1699 11.1806 79.9999 11.3281 79.9995 12.5256C79.999 13.8962 77.4891 19.2114 75.7912 21.4378C73.16 24.8874 68.817 26.4441 66.4497 24.7864C63.9752 23.0532 65.8 15.7806 69.6445 12.0537L71.5777 10.1798L68.7536 10.3432L65.9294 10.5065L63.8875 16.1968C61.0651 24.0621 58.829 28.7475 57.4812 29.6197C56.1452 30.4843 53.658 31.17 53.658 30.6738L53.6585 30.674ZM53.7495 14.493C55.5775 12.5595 56.3278 10.4818 55.3356 10.101C53.9528 9.57035 51.1374 13.0655 50.0063 16.7166L49.6437 17.8873L51.0413 16.8831C51.81 16.3308 53.0287 15.2553 53.7495 14.493ZM38.846 26.4857C37.8358 25.691 37.5607 25.052 37.5607 23.5008V21.5271L35.8532 22.8295C31.986 25.779 28.5332 26.3184 26.5049 24.2899C25.3714 23.1564 25.2814 22.7942 25.5776 20.5606C26.3589 14.6708 30.8805 9.29864 35.9435 8.24449C37.1417 7.99499 37.7232 8.14711 38.4856 8.90957C39.3177 9.74166 39.3942 10.1276 38.9689 11.3476C38.3447 13.1382 34.4858 16.811 31.7762 18.1929C29.9263 19.1367 29.7557 19.3851 29.7557 21.1362C29.7557 22.1882 29.9527 23.1705 30.1934 23.3193C31.3573 24.0386 34.0293 22.7978 36.3481 20.4612C38.3656 18.4285 39.4183 16.6329 42.2164 10.4524C45.4276 3.35825 45.7203 2.89581 47.2471 2.49971C48.1393 2.26851 49.0561 2.14575 49.2844 2.22692C49.5126 2.30808 48.0897 6.03155 46.1224 10.5016C41.8836 20.1318 40.8414 23.1172 40.8414 25.6279C40.8414 27.7768 40.6117 27.8755 38.8451 26.4858L38.846 26.4857ZM33.6963 15.0808C35.9607 12.9351 36.9037 11.0346 36.1019 10.2329C35.7347 9.86561 35.3365 9.86707 34.7423 10.2379C32.8375 11.4266 29.2023 18.3715 31.0161 17.3564C31.3903 17.147 32.5964 16.123 33.6963 15.0808ZM125.145 26.4505C124.028 25.5717 123.844 25.1039 123.995 23.5237C124.093 22.4893 124.004 21.6429 123.795 21.6429C123.587 21.6429 123.416 21.8611 123.416 22.1277C123.416 23.088 119.385 25.5454 117.809 25.5454C116.106 25.5454 114.636 24.3021 114.636 22.8609C114.636 22.0164 114.568 22.0228 113.538 22.9642C110.494 25.7481 106.614 26.3476 104.609 24.3436L103.407 23.1418L101.636 24.3436C99.5818 25.7379 97.0195 25.9082 95.8403 24.7288C94.6682 23.5566 95.1256 21.5753 98.0742 15.0517C100.584 9.499 100.595 9.48437 102.613 9.0629C103.726 8.83048 104.709 8.69405 104.799 8.75972C104.888 8.82539 103.736 11.609 102.238 14.9456C99.4183 21.2256 98.9637 23.1065 100.266 23.1065C101.422 23.1065 103.904 21.0745 103.904 20.1284C103.904 18.6716 105.843 14.686 107.586 12.5586C109.582 10.1226 112.747 8.4724 115.424 8.4724C118.648 8.4724 119.603 10.4909 117.253 12.3394C115.682 13.5748 114.9 13.6401 115.37 12.4968C116.455 9.85161 114.826 9.11034 112.591 11.2322C108.443 15.1696 106.405 24.3629 109.909 23.3249C112.292 22.6195 114.575 20.5271 116.115 17.6361C119.453 11.3746 122.972 8.82537 128.373 8.75707C130.16 8.73444 131.784 8.87602 131.981 9.07167C132.178 9.26732 131.773 10.6942 131.081 12.2424C128.976 16.9519 127.217 22.7317 127.144 25.1775C127.106 26.4522 126.94 27.4954 126.775 27.4957C126.609 27.496 125.876 27.0255 125.145 26.4502L125.145 26.4505ZM122.098 21.4018C123.706 19.7466 128.57 10.5369 128.091 10.0574C127.522 9.48854 125.057 10.6174 123.687 12.074C121.768 14.1142 119.689 17.9579 119.109 20.5408C118.396 23.7173 119.532 24.0443 122.098 21.4018ZM104.513 5.69347C103.678 5.37956 103.743 3.35854 104.611 2.6381C105.715 1.72191 107.074 2.22027 107.074 3.54147C107.074 4.77176 105.524 6.07381 104.513 5.69347Z" fill="#AAAAAA"/>
</g>
<defs>
<clipPath id="clip0_1882_194">
<rect width="139" height="40" fill="white"/>
</clipPath>
</defs>
</svg>
