<svg width="143" height="40" viewBox="0 0 143 40" fill="none" xmlns="http://www.w3.org/2000/svg">
<g clip-path="url(#clip0_1882_214)">
<path d="M0 19.4235C0.363432 19.3734 0.726864 19.3358 1.0903 19.3107C1.45373 19.2857 1.77956 19.2731 2.0678 19.2731C2.43124 19.2731 2.8072 19.2857 3.18316 19.3107C3.55913 19.3358 3.8975 19.3734 4.18574 19.4235L8.09576 35.8281L12.5321 19.4235C12.8204 19.3734 13.1337 19.3358 13.4721 19.3107C13.8104 19.2857 14.1613 19.2731 14.5248 19.2731C14.9383 19.2982 15.3017 19.3233 15.6025 19.3358C15.9033 19.3483 16.1915 19.3859 16.4798 19.436L20.866 35.5649L24.7886 19.436C25.0768 19.3859 25.3651 19.3483 25.6533 19.3233C25.9415 19.2982 26.2548 19.2857 26.5932 19.2857C26.8814 19.2857 27.1947 19.2982 27.5582 19.3233C27.9091 19.3483 28.2725 19.3859 28.6359 19.436L22.6456 39.5251C22.3072 39.5752 21.9563 39.6128 21.6054 39.6379C21.2545 39.6629 20.9412 39.6754 20.653 39.6754C20.3647 39.6754 20.0514 39.6629 19.7131 39.6379C19.3747 39.6128 19.0363 39.5752 18.698 39.5251L14.3744 24.3236L9.86279 39.5125C9.49936 39.5627 9.13593 39.6003 8.78503 39.6253C8.43413 39.6504 8.10829 39.6629 7.82006 39.6629C7.53182 39.6629 7.20598 39.6504 6.85508 39.6253C6.50418 39.6003 6.19088 39.5627 5.89011 39.5125L0 19.4235ZM40.4913 26.2786C40.4913 24.7371 40.1029 23.6719 39.3133 23.0704C38.5363 22.4688 37.3959 22.168 35.9046 22.168C34.9897 22.168 34.1376 22.2432 33.3355 22.3811C32.5334 22.5315 31.769 22.7069 31.0045 22.945C30.5032 22.0803 30.2651 21.0527 30.2651 19.8496C31.1549 19.5614 32.1324 19.3358 33.1976 19.1854C34.2754 19.0225 35.303 18.9473 36.2931 18.9473C38.8998 18.9473 40.8924 19.5363 42.2458 20.7269C43.5993 21.9174 44.2761 23.8098 44.2761 26.429V38.9987C43.3612 39.2118 42.2458 39.4248 40.9425 39.6379C39.6392 39.8634 38.2982 39.9762 36.9447 39.9762C35.6665 39.9762 34.5135 39.8634 33.4733 39.6253C32.4457 39.3872 31.5685 39.0112 30.8541 38.4849C30.1273 37.9585 29.5759 37.2943 29.1874 36.4923C28.7989 35.6777 28.5983 34.7002 28.5983 33.5598C28.5983 32.4444 28.8239 31.4544 29.2876 30.6022C29.7388 29.75 30.3654 29.0482 31.1549 28.4968C31.9319 27.9328 32.8342 27.5193 33.8618 27.2436C34.8769 26.9679 35.9547 26.83 37.0701 26.83C37.9097 26.83 38.5865 26.8425 39.1253 26.8927C39.6517 26.9303 40.1028 26.9804 40.4788 27.0305V26.2786H40.4913ZM40.4913 30.0758C40.1028 30.0257 39.6016 29.9756 39 29.9254C38.3985 29.8753 37.8847 29.8503 37.4711 29.8503C35.8545 29.8503 34.6138 30.151 33.7741 30.7526C32.9219 31.3541 32.4958 32.269 32.4958 33.4971C32.4958 34.2741 32.6337 34.8882 32.9219 35.3393C33.2102 35.778 33.5736 36.1289 33.9997 36.3544C34.4258 36.5925 34.902 36.7304 35.4284 36.7805C35.9547 36.8307 36.4435 36.8682 36.9197 36.8682C37.5212 36.8682 38.1353 36.8307 38.787 36.768C39.4261 36.7053 39.9901 36.6051 40.4913 36.4672V30.0758ZM47.3715 19.4235C47.6597 19.3734 47.9354 19.3358 48.2111 19.3107C48.4869 19.2857 48.7626 19.2731 49.0508 19.2731C49.339 19.2731 49.6022 19.2857 49.8529 19.3107C50.1035 19.3358 50.3667 19.3734 50.6549 19.4235C50.7301 19.812 50.8053 20.3509 50.893 21.0151C50.9682 21.6793 51.0058 22.2307 51.0058 22.6819C51.269 22.2432 51.6074 21.7921 52.0084 21.3535C52.4094 20.9148 52.8731 20.5138 53.3995 20.1629C53.9258 19.812 54.5148 19.5238 55.2041 19.2982C55.8808 19.0851 56.6327 18.9724 57.4348 18.9724C59.7282 18.9724 61.4326 19.6366 62.5228 20.9524C63.6131 22.2808 64.1646 24.2233 64.1646 26.8049V39.5251C63.8763 39.5752 63.5505 39.6128 63.1871 39.6379C62.8236 39.6629 62.4978 39.6754 62.2095 39.6754C61.9213 39.6754 61.5955 39.6629 61.2446 39.6379C60.8937 39.6128 60.5678 39.5752 60.2796 39.5251V27.8576C60.2796 26.0029 59.9914 24.6369 59.4149 23.7722C58.8384 22.8949 57.9236 22.4563 56.6829 22.4563C55.956 22.4563 55.2542 22.5816 54.6025 22.8448C53.9509 23.108 53.3744 23.509 52.8731 24.0604C52.3718 24.6118 51.9833 25.3261 51.6825 26.1909C51.3818 27.0681 51.2314 28.1208 51.2314 29.349V39.5251C50.9431 39.5752 50.6173 39.6128 50.2664 39.6379C49.9155 39.6629 49.5897 39.6754 49.3014 39.6754C49.0132 39.6754 48.6874 39.6629 48.3239 39.6379C47.9605 39.6128 47.6347 39.5752 47.3464 39.5251V19.4235H47.3715ZM90.3693 30.4267C90.4194 32.6199 90.9833 34.224 92.0736 35.2391C93.1514 36.2542 94.7555 36.768 96.8734 36.768C98.7282 36.768 100.483 36.4422 102.162 35.7905C102.375 36.179 102.538 36.6552 102.676 37.2191C102.801 37.7831 102.889 38.3345 102.914 38.8859C102.049 39.2494 101.109 39.5251 100.069 39.713C99.0415 39.901 97.9011 39.9888 96.6479 39.9888C94.8182 39.9888 93.2517 39.7381 91.9483 39.2243C90.645 38.7105 89.5672 37.9961 88.715 37.0688C87.8628 36.1414 87.2488 35.0386 86.8603 33.7853C86.4718 32.5196 86.2713 31.1285 86.2713 29.6121C86.2713 28.1208 86.4592 26.7297 86.8352 25.4389C87.2112 24.1481 87.8002 23.0202 88.5772 22.0678C89.3542 21.1153 90.3442 20.3634 91.5348 19.7995C92.7253 19.2355 94.1164 18.9598 95.7456 18.9598C97.1241 18.9598 98.3397 19.1979 99.3924 19.6616C100.433 20.1378 101.31 20.777 102.012 21.6041C102.713 22.4312 103.252 23.4087 103.616 24.5366C103.979 25.677 104.167 26.9052 104.167 28.2336C104.167 28.597 104.155 28.9855 104.13 29.3866C104.104 29.7876 104.079 30.1385 104.054 30.4267H90.3693ZM100.307 27.5318C100.307 26.8049 100.207 26.1031 100.019 25.4389C99.8185 24.7747 99.5303 24.1983 99.1543 23.697C98.7783 23.1957 98.2896 22.8072 97.7006 22.5064C97.1116 22.2056 96.4098 22.0553 95.6077 22.0553C94.0161 22.0553 92.8005 22.5315 91.9483 23.509C91.0961 24.474 90.5823 25.8149 90.4069 27.5443H100.307V27.5318ZM106.498 19.4235C106.786 19.3734 107.062 19.3358 107.325 19.3107C107.588 19.2857 107.864 19.2731 108.152 19.2731C108.441 19.2731 108.729 19.2857 109.017 19.3107C109.305 19.3358 109.569 19.3734 109.807 19.4235C109.882 19.812 109.97 20.3384 110.045 20.9775C110.12 21.6166 110.158 22.1555 110.158 22.5941C110.709 21.7044 111.436 20.9399 112.326 20.2882C113.228 19.6366 114.381 19.3107 115.797 19.3107C116.01 19.3107 116.223 19.3233 116.436 19.3233C116.662 19.3358 116.85 19.3608 117 19.3859C117.05 19.624 117.088 19.8747 117.113 20.1378C117.138 20.401 117.15 20.6767 117.15 20.965C117.15 21.2783 117.138 21.6041 117.088 21.9425C117.05 22.2808 117 22.6067 116.95 22.92C116.737 22.8698 116.524 22.8448 116.311 22.8448H115.784C115.083 22.8448 114.406 22.945 113.767 23.133C113.128 23.3335 112.551 23.6719 112.05 24.1732C111.536 24.6745 111.135 25.3512 110.834 26.2034C110.533 27.0681 110.383 28.1709 110.383 29.5244V39.5125C110.095 39.5627 109.782 39.6003 109.431 39.6253C109.08 39.6504 108.754 39.6629 108.466 39.6629C108.177 39.6629 107.864 39.6504 107.501 39.6253C107.15 39.6003 106.811 39.5627 106.498 39.5125V19.4235ZM130.372 26.2786C130.372 24.7371 129.983 23.6719 129.194 23.0704C128.417 22.4688 127.276 22.168 125.785 22.168C124.87 22.168 124.018 22.2432 123.216 22.3811C122.414 22.5315 121.649 22.7069 120.885 22.945C120.384 22.0803 120.146 21.0527 120.146 19.8496C121.035 19.5614 122.013 19.3358 123.078 19.1854C124.143 19.0225 125.171 18.9473 126.174 18.9473C128.78 18.9473 130.773 19.5363 132.126 20.7269C133.48 21.9174 134.157 23.8098 134.157 26.429V38.9987C133.242 39.2118 132.139 39.4248 130.836 39.6379C129.532 39.8634 128.204 39.9762 126.838 39.9762C125.56 39.9762 124.407 39.8634 123.366 39.6253C122.339 39.3872 121.462 39.0112 120.747 38.4849C120.033 37.9585 119.469 37.2943 119.08 36.4923C118.692 35.6777 118.491 34.7002 118.491 33.5598C118.491 32.4444 118.717 31.4544 119.181 30.6022C119.632 29.75 120.258 29.0482 121.035 28.4968C121.812 27.9328 122.715 27.5193 123.742 27.2436C124.757 26.9679 125.835 26.83 126.951 26.83C127.778 26.83 128.467 26.8425 129.006 26.8927C129.545 26.9303 129.996 26.9804 130.359 27.0305V26.2786H130.372ZM130.372 30.0758C129.983 30.0257 129.482 29.9756 128.881 29.9254C128.279 29.8753 127.765 29.8503 127.352 29.8503C125.735 29.8503 124.494 30.151 123.655 30.7526C122.802 31.3541 122.389 32.269 122.389 33.4971C122.389 34.2741 122.527 34.8882 122.815 35.3393C123.103 35.778 123.467 36.1289 123.893 36.3544C124.319 36.5925 124.795 36.7304 125.321 36.7805C125.848 36.8307 126.337 36.8682 126.813 36.8682C127.414 36.8682 128.028 36.8307 128.667 36.768C129.307 36.7053 129.871 36.6051 130.372 36.4672V30.0758ZM83.1883 10.7011C82.8374 10.6761 82.5116 10.6635 82.2234 10.6635C81.9602 10.6635 81.6469 10.6761 81.2835 10.7011C80.92 10.7262 80.5942 10.7638 80.306 10.8139V36.3795C79.8548 36.5048 79.3535 36.6051 78.777 36.6677C78.2006 36.7304 77.5739 36.768 76.8972 36.768C74.9171 36.768 73.3506 36.2291 72.1977 35.1639C71.0447 34.0986 70.4557 32.3191 70.4432 29.8377C70.4432 28.7474 70.5685 27.7323 70.8191 26.8049C71.0698 25.8776 71.4457 25.0755 71.9596 24.3988C72.4608 23.722 73.1125 23.1832 73.902 22.7947C74.679 22.4062 75.6064 22.2056 76.6842 22.2056C77.386 22.2056 78.0376 22.2558 78.6392 22.356C79.0277 22.4187 79.3911 22.5189 79.742 22.6317C79.7295 21.955 79.6292 20.6391 79.0527 19.2355C78.8773 19.1979 78.6893 19.1603 78.4888 19.1353C77.7995 19.035 77.1103 18.9849 76.4335 18.9849C74.9171 18.9849 73.5386 19.2481 72.2979 19.7619C71.0572 20.2882 69.992 21.0151 69.1148 21.9801C68.225 22.9325 67.5482 24.0729 67.0595 25.4013C66.5707 26.7297 66.3326 28.2085 66.3326 29.8252C66.3326 31.705 66.6083 33.2841 67.1597 34.5623C67.7112 35.8406 68.4506 36.8808 69.3905 37.6954C70.3304 38.51 71.4332 39.0864 72.6989 39.4373C73.9647 39.7882 75.3056 39.9637 76.7092 39.9637C78.2256 39.9637 79.5916 39.8634 80.8198 39.6629C82.0479 39.4749 83.1508 39.2243 84.1408 38.9361V10.8139C83.8526 10.7638 83.5392 10.7262 83.1883 10.7011Z" fill="#AAAAAA"/>
<path d="M141.225 19.4987C140.586 18.1202 139.771 16.7542 138.768 15.4759C137.753 14.2102 136.588 13.0071 135.31 11.8792C134.019 10.7638 132.615 9.74871 131.111 8.79627C129.607 7.85636 128.016 7.01671 126.362 6.22718C123.041 4.71079 119.469 3.50771 115.797 2.60539C112.113 1.69055 108.328 1.03888 104.518 0.60025C100.708 0.174157 96.8861 -0.0138246 93.1139 0.0112397C89.3543 0.0488361 85.6573 0.312011 82.0982 0.7757C78.5516 1.25192 75.1428 1.91613 71.9847 2.78084C68.8141 3.63303 65.8816 4.66066 63.2498 5.78856C60.6181 6.91645 58.2996 8.1446 56.3195 9.34768C55.317 9.9367 54.4272 10.5633 53.6001 11.1272C52.798 11.7288 52.0461 12.2677 51.4069 12.8066C51.0811 13.0697 50.7803 13.3204 50.4921 13.5585C50.2164 13.8091 49.9532 14.0472 49.7151 14.2603C49.2264 14.6864 48.8504 15.0874 48.5246 15.3882C47.7476 16.1025 47.7476 16.5662 47.7476 16.5662C47.7476 16.5662 48.1987 16.5286 49.1136 15.9396C49.1386 15.9271 49.1637 15.9145 49.1762 15.902C49.4895 15.6639 49.853 15.4007 50.254 15.0874C51.0686 14.4984 52.0837 13.7966 53.2868 13.0697C53.8758 12.6812 54.54 12.3429 55.2167 11.9418C55.906 11.5659 56.6454 11.1899 57.4224 10.8139C58.9889 10.0871 60.6933 9.33515 62.5605 8.68348C64.4153 8.03181 66.4079 7.39267 68.5008 6.91645C69.5409 6.64074 70.6187 6.46529 71.6965 6.23971C72.7868 6.06426 73.8896 5.86375 75.005 5.75096C76.1203 5.58804 77.2482 5.52538 78.3761 5.42512C79.5165 5.38753 80.6444 5.31233 81.7848 5.34993C82.9253 5.3374 84.0532 5.41259 85.1811 5.48778C85.745 5.53791 86.309 5.60057 86.8604 5.66323L87.7 5.75096L88.5271 5.88881C90.7328 6.20212 92.8633 6.71593 94.906 7.22975C95.9211 7.51799 96.9237 7.76863 97.8886 8.09447C98.3774 8.24486 98.8536 8.39524 99.3173 8.54563C99.781 8.72108 100.245 8.884 100.696 9.04691C101.611 9.36022 102.475 9.73618 103.315 10.0871C103.528 10.1748 103.741 10.2625 103.942 10.3377C104.142 10.438 104.343 10.5257 104.543 10.626C104.944 10.8139 105.333 11.0019 105.721 11.1774C108.792 12.6436 115.108 16.278 115.572 16.5787L115.772 16.3532C115.772 16.3532 115.584 16.1276 115.221 15.714C115.045 15.5135 114.807 15.2503 114.544 14.9496C114.268 14.6613 113.98 14.2853 113.604 13.947C112.852 13.2326 111.975 12.3303 110.847 11.428C110.295 10.9643 109.694 10.4756 109.017 10.0119C108.353 9.5482 107.676 9.00932 106.899 8.55816C105.383 7.60572 103.691 6.64074 101.786 5.81362C101.31 5.60057 100.834 5.40006 100.345 5.18701C99.8437 5.01156 99.3424 4.82358 98.8411 4.6356C97.826 4.23457 96.7482 3.98393 95.6705 3.65809C93.7029 3.1944 91.6476 2.80591 89.5422 2.61792C90.7203 2.59286 91.8983 2.58033 93.0888 2.60539C96.7608 2.69312 100.495 2.99389 104.192 3.50771C107.877 4.07165 111.536 4.79852 115.033 5.85122C118.542 6.87885 121.888 8.1446 125.008 9.5858C126.562 10.3127 128.041 11.1147 129.47 11.9293C130.873 12.7815 132.189 13.6838 133.417 14.6237C135.823 16.5537 137.791 18.7343 139.032 21.0527C140.247 23.2584 140.736 25.5643 140.774 27.6571C140.724 29.7375 140.247 31.5797 139.759 33.0585C139.207 34.5749 138.656 35.7404 138.242 36.5174C137.829 37.2944 137.603 37.7079 137.603 37.7079L137.854 37.8834C137.854 37.8834 138.142 37.5074 138.693 36.7931C138.982 36.4422 139.27 35.9785 139.633 35.4271C140.009 34.8882 140.348 34.2115 140.761 33.4721C141.5 31.9557 142.265 29.9756 142.553 27.5444C142.816 25.1507 142.516 22.2683 141.225 19.4987Z" fill="#AAAAAA"/>
</g>
<defs>
<clipPath id="clip0_1882_214">
<rect width="142.653" height="40" fill="white"/>
</clipPath>
</defs>
</svg>
